<svg id="Layer_1" data-name="Layer 1" xmlns="http://www.w3.org/2000/svg" viewBox="0 0 30 20"><defs><style>.cls-1{fill:#0437a0;}.cls-1,.cls-2,.cls-3{fill-rule:evenodd;}.cls-2{fill:#f4f4f4;}.cls-3{fill:#ff1612;}</style></defs><polygon class="cls-1" points="0 0 15 0 30 0 30 20 15 20 0 20 0 0 0 0"/><polygon class="cls-2" points="6.26 0 7.5 0 8.74 0 8.74 2.94 13.14 0 15 0 15 1.24 11.83 3.35 15 3.35 15 6.65 11.83 6.65 15 8.76 15 10 13.14 10 8.74 7.06 8.74 10 7.5 10 6.26 10 6.26 7.06 1.85 10 0 10 0 8.76 3.17 6.65 0 6.65 0 3.35 3.17 3.35 0 1.24 0 0 1.85 0 6.26 2.94 6.26 0 6.26 0"/><path class="cls-3" d="M8.27,0V4H15V6H8.27v4H6.73V6H0V4H6.73V0H8.27ZM15,9.54,10.67,6.65H9.28l5,3.35H15V9.54ZM10.67,3.35,15,.46V0h-.7l-5,3.35Zm-4.95,0L.7,0H0V.46L4.33,3.35ZM4.33,6.65,0,9.54V10H.7l5-3.35Z"/><polygon class="cls-2" points="22.5 13.07 22.71 13.71 23.34 13.47 22.96 14.03 23.54 14.38 22.87 14.44 22.96 15.11 22.5 14.62 22.04 15.11 22.13 14.44 21.45 14.38 22.04 14.03 21.66 13.47 22.29 13.71 22.5 13.07 22.5 13.07"/><polygon class="cls-2" points="18.75 7.13 18.96 7.77 19.59 7.54 19.21 8.1 19.79 8.44 19.12 8.5 19.21 9.17 18.75 8.68 18.29 9.17 18.38 8.5 17.71 8.44 18.29 8.1 17.91 7.54 18.54 7.77 18.75 7.13 18.75 7.13"/><polygon class="cls-2" points="22.5 3.07 22.71 3.71 23.34 3.47 22.96 4.03 23.54 4.38 22.87 4.44 22.96 5.11 22.5 4.62 22.04 5.11 22.13 4.44 21.45 4.38 22.04 4.03 21.66 3.47 22.29 3.71 22.5 3.07 22.5 3.07"/><polygon class="cls-2" points="25.83 6.13 26.04 6.77 26.67 6.54 26.3 7.1 26.88 7.44 26.2 7.5 26.3 8.17 25.83 7.68 25.37 8.17 25.46 7.5 24.79 7.44 25.37 7.1 25 6.54 25.63 6.77 25.83 6.13 25.83 6.13"/><polygon class="cls-2" points="24 9.14 24.16 9.54 24.59 9.57 24.26 9.85 24.37 10.27 24 10.04 23.63 10.27 23.73 9.85 23.41 9.57 23.84 9.54 24 9.14 24 9.14"/><polygon class="cls-2" points="7.5 12.63 7.93 13.97 9.26 13.47 8.47 14.65 9.69 15.38 8.28 15.5 8.48 16.9 7.5 15.88 6.52 16.9 6.72 15.5 5.31 15.38 6.53 14.65 5.74 13.47 7.07 13.97 7.5 12.63 7.5 12.63"/></svg>