<?xml version="1.0" encoding="UTF-8"?>
<svg width="420px" height="320px" viewBox="0 0 420 320" version="1.1" xmlns="http://www.w3.org/2000/svg" xmlns:xlink="http://www.w3.org/1999/xlink">
    <title>D33A34B7-1441-4F9A-8BF0-73D92C6CF10A</title>
    <defs>
        <polygon id="path-1" points="0 0 420 0 420 320 0 320"></polygon>
    </defs>
    <g id="Page-1" stroke="none" stroke-width="1" fill="none" fill-rule="evenodd">
        <g id="Country-Flags" transform="translate(-972.000000, -568.000000)">
            <g id="hk" transform="translate(972.000000, 568.000000)">
                <mask id="mask-2" fill="white">
                    <use xlink:href="#path-1"></use>
                </mask>
                <g id="Path"></g>
                <g id="Group" mask="url(#mask-2)">
                    <g transform="translate(-4.000000, 10.000000)" id="Path">
                        <polygon stroke="none" fill="#BA0000" fill-rule="evenodd" points="429 300 0 300 0 0 429 0"></polygon>
                        <path d="M208.399918,145.195313 C208.399918,145.195313 178.134126,132.1875 182.474569,98.4375 C186.639048,82.2070313 194.088187,71.1328125 207.520098,65.0976562 C213.854799,63.1640625 220.306809,62.2851562 226.876128,61.7578125 C225.116489,63.3984375 223.708778,65.0390625 222.946267,67.03125 C221.538556,70.78125 222.59434,74.296875 224.529943,77.8710938 C226.934783,81.9726562 228.401148,86.1914062 228.870386,91.6992187 C229.767539,99.3391539 226.499836,106.873899 220.306809,111.445312 C216.435603,114.433594 211.860541,115.488281 208.106645,118.886719 C205.173913,121.699219 203.414274,124.570312 202.827728,129.492188 C202.710418,138.925781 205.232568,140.273438 208.399918,145.195313 L208.399918,145.195313 Z" stroke="none" fill="#FFFFFF" fill-rule="evenodd"></path>
                        <line x1="202.829252" y1="96.6903574" x2="202.829252" y2="96.3744352" stroke="#000000" stroke-width="1.974" fill="#BA0000" fill-rule="evenodd"></line>
                        <path d="M204.528712,141.679688 C192.797785,131.308594 193.794914,105.117188 202.769073,96.3867188" stroke="#BA0000" stroke-width="1.974" fill="none"></path>
                        <polyline stroke="none" fill="#BA0000" fill-rule="evenodd" points="209.983593 90.5273437 211.919196 93.75 208.399918 92.2851562 205.64315 95.2148437 206.112387 91.40625 202.593109 89.9414062 206.40566 89.0625 206.874897 85.3125 208.8105 88.5351562 212.681706 87.65625"></polyline>
                        <path d="M210.980722,142.96875 C210.980722,142.96875 214.5,110.214844 248.109106,104.472656 C264.884331,103.769531 277.671042,107.578125 287.407711,118.710938 C291.102953,124.160156 293.801066,130.078125 296.205906,136.171875 C294.152994,135 292.217391,134.121094 289.988515,134.003906 C286.058655,133.710938 282.949959,135.761719 280.134537,138.632813 C276.846796,142.268576 272.747427,145.078948 268.168991,146.835938 C261.128209,149.945866 252.959483,149.051592 246.760049,144.492188 C242.771534,141.621094 240.425349,137.578125 236.084906,135 C232.557377,132.905212 228.376285,132.195164 224.353979,133.007813 C215.26251,135.703125 214.793273,138.515625 210.980722,142.96875 L210.980722,142.96875 Z" stroke="none" fill="#FFFFFF" fill-rule="evenodd"></path>
                        <line x1="256.134127" y1="123.397631" x2="256.451777" y2="123.397631" stroke="#000000" stroke-width="1.974" fill="#BA0000" fill-rule="evenodd"></line>
                        <path d="M213.150943,138.28125 C219.720263,123.984375 245.059065,117.304687 256.027482,123.28125" stroke="#BA0000" stroke-width="1.974" fill="none"></path>
                        <polyline stroke="none" fill="#BA0000" fill-rule="evenodd" points="263.769893 128.496094 261.247744 131.25 261.599672 127.441406 258.080394 125.683594 261.775636 125.097656 262.127564 121.171875 264.121821 124.6875 267.875718 123.984375 265.353568 126.738281 267.289171 130.253906"></polyline>
                        <path d="M213.209598,145.3125 C213.209598,145.3125 245.469647,138.28125 261.541017,168.339844 C267.582445,183.984375 267.993027,197.285156 260.543888,210 C256.555373,215.273438 251.745693,219.667969 246.760049,223.945312 C247.229286,221.601562 247.40525,219.492188 246.818704,217.382812 C245.88023,213.515625 242.947498,211.230469 239.310911,209.472656 C234.798536,207.501436 230.818434,204.489337 227.697293,200.683594 C222.546829,195.000432 220.824929,187.003026 223.180886,179.707031 C224.588597,175.019531 227.697293,171.503906 228.753076,166.582031 C229.630826,162.58594 228.982327,158.406423 226.934783,154.863281 C221.479902,147.128906 218.664479,147.539062 213.209598,145.3125 L213.209598,145.3125 Z" stroke="none" fill="#FFFFFF" fill-rule="evenodd"></path>
                        <line x1="246.479727" y1="181.886073" x2="246.691493" y2="182.096688" stroke="#000000" stroke-width="1.974" fill="#BA0000" fill-rule="evenodd"></line>
                        <path d="M218.429861,145.898438 C234.031993,147.597656 248.402379,169.453125 246.232158,181.816406" stroke="#BA0000" stroke-width="1.974" fill="none"></path>
                        <polyline stroke="none" fill="#BA0000" fill-rule="evenodd" points="243.710008 190.78125 240.249385 189.257812 244.061936 188.378906 244.531173 184.453125 246.349467 187.792969 250.162018 186.914062 247.522559 189.84375 249.282199 193.183594 245.88023 191.660156 243.240771 194.648438"></polyline>
                        <path d="M212.505742,148.652344 C212.505742,148.652344 228.283839,177.597656 204.00082,201.386719 C190.627564,211.582031 177.958162,215.742187 163.646432,212.167969 C157.487695,209.824219 151.915505,206.484375 146.343314,202.851562 C148.6895,202.675781 150.859721,202.265625 152.736669,201.09375 C156.138638,199.101562 157.487695,195.644531 158.19155,191.71875 C158.802072,186.822994 160.571461,182.142998 163.353158,178.066406 C167.359,171.519159 174.561357,167.608898 182.239951,167.8125 C187.16694,167.871094 191.390074,169.921875 196.434372,169.570312 C200.481542,169.042969 203.648893,167.929687 207.226825,164.414062 C213.092289,157.089844 211.919196,154.453125 212.505742,148.59375 L212.505742,148.652344 Z" stroke="none" fill="#FFFFFF" fill-rule="evenodd"></path>
                        <line x1="187.07477" y1="190.792323" x2="186.968887" y2="191.002938" stroke="#000000" stroke-width="1.974" fill="#BA0000" fill-rule="evenodd"></line>
                        <path d="M213.326907,153.75 C216.200984,169.21875 199.19114,189.199219 186.697703,190.488281" stroke="#BA0000" stroke-width="1.974" fill="none"></path>
                        <polyline stroke="none" fill="#BA0000" fill-rule="evenodd" points="177.371616 190.664062 177.899508 186.914062 179.835111 190.253906 183.706317 189.667969 181.008203 192.363281 182.943806 195.703125 179.365874 194.003906 176.66776 196.699219 177.136998 192.949219 173.559065 191.25"></polyline>
                        <path d="M208.92781,148.007812 C208.92781,148.007812 186.873667,172.5 156.255947,157.617188 C142.178835,148.417969 134.084495,137.8125 132.735439,123.164062 C132.911403,116.542969 134.14315,110.214844 135.726825,103.828125 C136.723954,105.9375 137.838392,107.8125 139.539377,109.21875 C142.530763,111.738281 146.28466,111.855469 150.273175,111.210938 C155.060547,110.163689 160.030045,110.28428 164.76087,111.5625 C172.301204,113.148159 178.412421,118.649254 180.773585,125.976562 C182.35726,130.605469 181.829368,135.292969 183.882281,139.921875 C185.64192,143.554688 187.753486,146.132812 192.269893,148.359375 C201.185398,151.464844 203.23831,149.472656 208.92781,148.066406 L208.92781,148.007812 Z" stroke="none" fill="#FFFFFF" fill-rule="evenodd"></path>
                        <line x1="161.055726" y1="138.069425" x2="160.84396" y2="137.964118" stroke="#000000" stroke-width="1.974" fill="#BA0000" fill-rule="evenodd"></line>
                        <path d="M204.352748,150.527344 C190.744873,158.320312 166.227235,148.945312 160.831009,137.636719" stroke="#BA0000" stroke-width="1.974" fill="none"></path>
                        <polyline stroke="none" fill="#BA0000" fill-rule="evenodd" points="157.605004 128.90625 161.300246 128.144531 158.778097 131.074219 160.59639 134.53125 157.194422 132.890625 154.672272 135.820312 155.082855 131.835937 151.622231 130.195312 155.317473 129.433594 155.728056 125.449219"></polyline>
                    </g>
                </g>
            </g>
        </g>
    </g>
</svg>