<?xml version="1.0" encoding="UTF-8"?>
<svg width="24px" height="24px" viewBox="0 0 24 24" version="1.1" xmlns="http://www.w3.org/2000/svg" xmlns:xlink="http://www.w3.org/1999/xlink">
    <!-- Generator: sketchtool 58 (101010) - https://sketch.com -->
    <title>3ADF72DC-1B03-4DCD-B66C-A579F4415E50</title>
    <desc>Created with sketchtool.</desc>
    <g id="Atoms" stroke="none" stroke-width="1" fill="none" fill-rule="evenodd">
        <g id="Icons" transform="translate(-196.000000, -1844.000000)">
            <g id="Social-Media" transform="translate(120.000000, 1772.000000)">
                <g id="Icons-/-Social-/-Black-/-Youtube" transform="translate(72.000000, 68.000000)">
                    <circle id="Oval" fill="#fff" cx="16" cy="16" r="12"></circle>
                    <g id="Icons-/-Social-/-Youtube">
                        <g>
                            <rect id="Rectangle" x="0" y="0" width="32" height="32"></rect>
                            <g id="streamline-icon-social-video-youtube-clip@16x16" transform="translate(8.000000, 10.000000)" stroke="#000" stroke-linecap="round" stroke-linejoin="round">
                                <path d="M15.5,2.96 C15.5,1.69333333 14.4733333,0.666666667 13.2066667,0.666666667 L13.2066667,0.666666667 L2.79333333,0.666666667 C1.52666667,0.666666667 0.5,1.69333333 0.5,2.96 C0.5,2.96 0.5,2.96 0.5,2.96 L0.5,9.04 C0.5,10.3066667 1.52666667,11.3333333 2.79333333,11.3333333 L2.79333333,11.3333333 L13.2066667,11.3333333 C14.4733333,11.3333333 15.5,10.3066667 15.5,9.04 C15.5,9.04 15.5,9.04 15.5,9.04 L15.5,2.96 Z" id="Path"></path>
                                <polygon id="Path" points="6.33333333 8.62666667 6.33333333 2.85333333 10.8466667 5.74"></polygon>
                            </g>
                        </g>
                    </g>
                </g>
            </g>
        </g>
    </g>
</svg>