<?xml version="1.0" encoding="UTF-8"?>
<svg width="68px" height="67px" viewBox="0 0 68 67" version="1.1" xmlns="http://www.w3.org/2000/svg" xmlns:xlink="http://www.w3.org/1999/xlink">
    <!-- Generator: Sketch 55.2 (78181) - https://sketchapp.com -->
    <title>Icon/groß/alarm_blue</title>
    <desc>Created with Sketch.</desc>
    <g id="Design-System" stroke="none" stroke-width="1" fill="none" fill-rule="evenodd">
        <g id="Icons" transform="translate(-1278.000000, -472.000000)" stroke="#001489">
            <g id="Icon/groß/alarm_blue" transform="translate(1261.000000, 451.000000)">
                <path d="M78.864119,52.7218708 C83.3666563,46.3946925 86.0681786,36.3654175 75.2084457,27.4063332 C64.3487128,18.4472489 54.5886718,24.8734671 50.9483881,28.3022416 C47.3081043,31.7310162 38.2397128,40.738658 33.8387465,45.1040244 C30.9047689,48.0142686 25.8927649,48.9273836 18.8027344,47.8433694 L58.0082258,86.8486328 C56.5427428,82.2378134 57.0410705,77.6541569 59.5032088,73.0976632 C61.4392999,69.5146857 64.5516787,67.06323 68.8452701,62.9522002 C73.1388615,58.8411703 77.1139435,55.1813003 78.864119,52.7218708 Z" id="Path-18" stroke-width="2" stroke-linecap="round" stroke-linejoin="round"></path>
                <path d="M38.4099587,72.8486328 C38.7685072,72.6035219 39.0964315,72.3172997 39.3868565,71.9968041 C40.2669921,71.0255393 40.8027344,69.7395079 40.8027344,68.329024 C40.8027344,65.3022875 38.3357358,62.8486328 35.2925389,62.8486328 C34.0018437,62.8486328 32.8147961,63.2900007 31.8756497,64.0292632 C31.4671523,64.3508177 31.1055568,64.7287328 30.8027344,65.1512013" id="Oval" stroke-width="2" transform="translate(35.802734, 67.848633) rotate(-180.000000) translate(-35.802734, -67.848633) "></path>
                <g id="Waves" stroke-width="1" fill-rule="evenodd" transform="translate(19.802734, 23.848633)" stroke-linecap="round">
                    <path d="M7.19726562,16.1513672 C7.19882436,13.6589137 8.09704598,11.5358004 9.8919305,9.7820271 C11.686815,8.02825383 13.7885934,7.15136719 16.1972656,7.15136719" id="Path-19" stroke-width="2"></path>
                    <path d="M0.197265625,16.1513672 C0.313930918,11.6317244 1.72908385,7.86616316 4.44272442,4.85468357 C7.15636499,1.84320397 11.0745454,0.275431842 16.1972656,0.151367188" id="Path-20" stroke-width="2"></path>
                </g>
                <g id="Waves-Copy" stroke-width="1" fill-rule="evenodd" transform="translate(19.802734, 23.848633)" stroke-linecap="round">
                    <path d="M7.19726562,16.1513672 C7.19882436,13.6589137 8.09704598,11.5358004 9.8919305,9.7820271 C11.686815,8.02825383 13.7885934,7.15136719 16.1972656,7.15136719" id="Path-19" stroke-width="2"></path>
                    <path d="M0.197265625,16.1513672 C0.313930918,11.6317244 1.72908385,7.86616316 4.44272442,4.85468357 C7.15636499,1.84320397 11.0745454,0.275431842 16.1972656,0.151367188" id="Path-20" stroke-width="2"></path>
                </g>
                <g id="Waves-Copy-2" stroke-width="1" fill-rule="evenodd" transform="translate(76.302734, 79.348633) scale(-1, -1) translate(-76.302734, -79.348633) translate(67.802734, 70.848633)" stroke-linecap="round">
                    <path d="M7.80273438,16.8486328 C7.80429311,14.3561794 8.70251473,12.233066 10.4973992,10.4792927 C12.2922838,8.72551945 14.3940621,7.84863281 16.8027344,7.84863281" id="Path-19" stroke-width="2"></path>
                    <path d="M0.802734375,16.8486328 C0.919399668,12.32899 2.3345526,8.56342879 5.04819317,5.55194919 C7.76183374,2.54046959 11.6800141,0.972697467 16.8027344,0.848632812" id="Path-20" stroke-width="2"></path>
                </g>
            </g>
        </g>
    </g>
</svg>