<?xml version="1.0" encoding="utf-8"?>
<!-- Generator: Adobe Illustrator 26.0.3, SVG Export Plug-In . SVG Version: 6.00 Build 0)  -->
<svg version="1.1" id="Ebene_1" xmlns="http://www.w3.org/2000/svg" xmlns:xlink="http://www.w3.org/1999/xlink" x="0px" y="0px"
	 viewBox="0 0 70 70" style="enable-background:new 0 0 70 70;" xml:space="preserve">
<style type="text/css">
	.st0{clip-path:url(#SVGID_00000175303080886740344660000002919420652540704696_);}
	.st1{filter:url(#Adobe_OpacityMaskFilter);}
	.st2{mask:url(#SVGID_00000005240203441171720570000009274421884319472006_);}
	.st3{fill:#888B8D;}
	.st4{fill:url(#SVGID_00000008834572251570365710000017198919620438415499_);}
</style>
<g>
	<defs>
		<path id="SVGID_1_" d="M32.8-1.8c-20.9,0-37.9,17-37.9,37.9C-5.1,57,11.8,74,32.8,74s37.9-17,37.9-37.9
			C70.7,15.1,53.7-1.8,32.8-1.8z M41.3,30.3c2.5-2.4,6.1-5.7,9-6.7h0h0l0,0c1.3,0.3-1.4,2.1-2.1,2.7c-2.1,1.6-7.8,5.4-7.8,5.4
			S40.3,31.2,41.3,30.3z M24.4,15.5c0-0.1,0.1-0.1,0.3-0.1l0-0.1v0.1c0,0,0.1,0,0.1,0c2,0.3,3.8,0.9,7.5,6.5c1,1.5,2.7,5.8,3,6.6
			c0.1,0.3,0.2,1.1,0.3,1.7c0,0.3,0.1,0.5,0.1,0.6c-0.1-0.1-0.3-0.4-0.7-0.8c-1.1-1.2-3-3.3-3.6-4c-0.6-0.7-1.1-1.2-1.6-1.8
			c-0.8-0.8-1.4-1.4-2.1-2.5c-0.1-0.2-0.3-0.5-0.5-0.8C26.2,19.5,24,16.2,24.4,15.5z M28.3,25.4c0,0-0.1,0.1-0.2,0
			c-1.3-0.3-2.6-0.7-5-1.1c-0.6-0.1-1.2-0.2-1.9-0.4c-2.1-0.4-4.5-1-5.8-1.1c-1.1-0.1-1.5-0.4-1.5-1.7c0-1.2,0.1-1.8,0.5-2.3
			c0.3-0.3,0.7-0.4,1.2-0.4c0.1,0,0.2,0,0.3,0l0,0l0,0c3.1,0,7.3,2.2,9.5,3.5l0,0l0,0c0.7,0.3,1.1,0.8,1.6,1.4
			c0.1,0.1,0.2,0.2,0.3,0.4c0.1,0.1,0.2,0.2,0.3,0.4c0.2,0.2,0.8,1,0.8,1.1C28.3,25.2,28.3,25.4,28.3,25.4z M23.9,18.1
			c0.2,0.5,0.5,1,0.8,1.6c-2.2-1.2-5.9-2.5-9.2-2.9c-0.1,0-0.6-0.1-0.6-1.1c0-0.6,0.3-1.2,0.7-1.7c0.3-0.4,0.9-0.9,1.7-0.9h0h0
			C21.4,13.4,22.5,15.2,23.9,18.1z M15.5,5.7c1.3,0.7,5.5,3,4.4,3.9c-0.7,0.5-5.5,2.7-5.8,1.5c-0.2-1.1-0.4-2-0.9-3.8
			C12.8,5.7,14.7,5.2,15.5,5.7z M10.1,42.4c0.8-1.8,1.7-4,4.3-4.1c0.4,0,1,0,1.7,0l0-0.1v0.1c2.9,0,7.4,0.2,8.5,0.3
			c-1.1,0.9-3.9,2.4-5,2.7c-0.9,0.2-2.1,0.4-3.4,0.6c-2.2,0.3-4.7,0.7-6.4,1.3C9.9,42.9,10,42.7,10.1,42.4z M24.3,37.1
			c-2.5,0-5-0.1-7-0.2c-1.3-0.1-2.5-0.1-3.4-0.1c1.3-2.2,3-3.3,5.4-3.3c0.1,0,0.2,0,0.3,0l0,0l0,0c0.1,0,0.3,0,0.4,0
			c2,0,11.8,1.8,12.4,2c0.6,0.1,0.7,0.3,0.6,0.5C31.5,36.8,28.6,37.1,24.3,37.1z M33,37.7c-0.7,1.2-2.3,2.1-4.1,3
			c-0.9,0.5-1.8,1-2.6,1.5c-0.6,0.4-1.4,1-2.4,2c0,0-0.1,0.1-0.1,0.1c-0.7,0.5-2.9,0.8-4.5,0.8c-0.5,0-0.8,0-1-0.1
			c0.4-0.6,2.1-2.4,2.5-2.6c0,0,5.4-3,5.7-3.3c0.4-0.2,2.3-0.6,3.9-0.9C31.4,38.1,32.3,37.9,33,37.7z M8.2,48.4
			c0.1-0.5,0.4-1.9,0.8-2.8c0.7-1.4,3.7-1.8,6.4-2.2c1-0.1,1.9-0.3,2.7-0.5c-0.2,0.2-0.4,0.5-0.6,0.8c-0.7,0.9-1,1.2-1,1.3
			c-0.6,0.2-3.4,1.3-8.2,3.2C8.3,48.4,8.3,48.4,8.2,48.4z M13.6,53.3C13.6,53.3,13.6,53.3,13.6,53.3c-2.5-0.2-3.8-1.5-4.3-2.2
			c-0.5-0.6-0.6-1.2-0.6-1.3c0.4-0.3,7.3-2.9,8-3.1c0.5-0.1,1.1-0.2,1.5-0.2c0.2,0,0.4,0,0.6,0c0.2,0,0.5,0,0.7,0
			c0.5,0,1.1,0,1.7-0.1c-0.6,0.5-1.2,1.1-1.9,1.9c-0.5,0.6-1.2,1.3-2,2.1c-0.5,0.5-0.9,0.9-1.2,1.3C15.2,52.7,14.6,53.3,13.6,53.3z
			 M29.7,42.2c0,0.1-0.1,0.3-0.1,0.3c-1.7,1.9-4,4.5-6.3,6.8c-2.1,2.1-4.8,4.6-6,4.7l0,0l0,0c0,0-0.1,0-0.1,0
			c-0.2,0-0.3-0.1-0.3-0.2c-0.1-0.3,0-0.8,0.1-1c3.9-4.4,9.7-9.6,12.8-11C29.8,41.9,29.7,42,29.7,42.2z M33.6,46.6
			C33.6,46.5,33.7,46.5,33.6,46.6c-0.7,3.5-0.9,8.9-2.3,11.3C30.5,54.2,32.3,50.2,33.6,46.6z M33.4,59.2c-0.3,0.5-0.4,0.5-0.6,0.6
			c-0.1,0.1-0.1,0-0.2-0.2c-0.4-1.3,0.6-7.6,1.7-10.2c0-0.1,0.1,0,0.1,0C34.3,52,34.1,56.9,33.4,59.2z M33.6,33
			C33.6,33,33.6,33,33.6,33c-0.2,0-0.5,0-0.8-0.1c-0.6-0.1-5.5-1.1-9.7-2c-3.1-0.7-5.8-1.2-6.4-1.3c-0.9-0.2-1.8-0.3-2.5-0.5
			c-1-0.2-1.1-1-1-2.7c0-0.2,0-0.4,0-0.7c0-1.1,0.6-1.7,1.8-1.7l0,0h0h0c0.2,0,0.4,0,0.7,0.1c1,0.1,11.8,2.2,13,2.6
			c1.3,0.4,3.1,1.7,4.4,3.2c0.5,0.6,0.9,1,1.1,1.3c0.4,0.5,0.6,0.7,0.8,1c0.1,0.1,0.1,0.1,0.1,0.2c-0.1,0.1-0.6,0.5-0.7,0.5
			C34.2,33,33.9,33.1,33.6,33z M34.9,58.9c-0.4-0.4-0.1-4.5,0-6.4c0.3-3.8,0.4-6.7,1.4-10.3c-0.1,2.7,0,5.6,0.3,8.4
			C36.9,54.3,36.7,56.4,34.9,58.9z M37.8,53.3c-0.1-0.4-1.3-8.7-0.6-13.6c0.4,1.2,2.7,6.2,2.8,8.1C40,49.2,38.9,52.8,37.8,53.3z
			 M40.9,46.4c-0.8-1.5-3.8-7.8-2.9-9.6c0,0,0.1-0.1,0.2-0.1s0.1,0,0.1,0c1.1,0.8,2.9,3.2,3.2,4.9C41.7,43.2,41.6,45.5,40.9,46.4z
			 M45.9,38.5c-1.8-0.2-2.5-1.4-4-2.3c-2.8-1.8-3.4-2.1-2.9-2.7c0.4-0.4,2.7-1.7,3.4-1.6c1.4,0.2,5.5,2.8,5.7,3.7
			C48.4,36.9,47.4,38.6,45.9,38.5z M50.3,33.7c-0.6,0.7-1.1,0.9-1.7,0.5c-1.2-0.9-3.4-1.9-5.2-2.8c-0.7-0.3,2-2,3-2.1
			c0.3,0,4.2,0.9,4.7,1C52.7,30.7,50.9,33,50.3,33.7z M53.1,29.2c-1.4,0.3-4.1-0.2-6-0.8c1.3-1.1,4.2-3.5,6.4-3.4
			C57,24.9,55.5,28.3,53.1,29.2z M58.1,23.3c-0.8,0.3-3.5-0.9-2.6-2c0.9-1,5.2-2.5,6.9-2.3C64.6,19.1,59.8,22.7,58.1,23.3z"/>
	</defs>
	<clipPath id="SVGID_00000072241956726708162790000008227639029657294512_">
		<use xlink:href="#SVGID_1_"  style="overflow:visible;"/>
	</clipPath>
	<g style="clip-path:url(#SVGID_00000072241956726708162790000008227639029657294512_);">
		<defs>
			<filter id="Adobe_OpacityMaskFilter" filterUnits="userSpaceOnUse" x="8.9" y="24.6" width="57.8" height="43.5">
				<feFlood  style="flood-color:white;flood-opacity:1" result="back"/>
				<feBlend  in="SourceGraphic" in2="back" mode="normal"/>
			</filter>
		</defs>
		
			<mask maskUnits="userSpaceOnUse" x="8.9" y="24.6" width="57.8" height="43.5" id="SVGID_00000031193104455831144900000004683592864770589839_">
			<g class="st1">
				<image style="overflow:visible;" width="63" height="49" xlink:href="E46D7C3E.jpg"  transform="matrix(1 0 0 1 6 22)">
				</image>
			</g>
		</mask>
		<g style="mask:url(#SVGID_00000031193104455831144900000004683592864770589839_);">
			<path class="st3" d="M43.2,45.8c0,0,10.3-6.5,14-7.7c3.5-1.2,9.1-3.2,9.5-1.8c0.4,1.4-2.8,4.8-5.8,6.8c-3.1,2-7.4,5.5-9.6,7.8
				c-2.3,2.4-2.4,2.5-3.3,2.6c-0.9,0.1-2-0.4-2-0.4s-2,5.6-6.5,9.9c-4.8,4.3-7,5.3-7.7,5.3c-0.7,0-2.8-1.6-2.2-3.8
				c0.6-2.2,6.1-9.7,6.1-9.7s-15,8.4-17.3,8.6c-2.4,0.2-2.2,0.3-3.8,0C13,63,12,63,12,63l-0.9-1.1c0,0-1.5-0.4-2-0.9
				c-0.4-0.5,0-1.5,0-2.1c0-0.6-0.2-1.1-0.2-1.1s1-3.3,5-7c3.9-3.7,5.4-4.3,6.1-4.5c0.6-0.3,1.8-0.7,1.8-0.7s-1,0-1.7-0.8
				c-0.7-0.8,1.8-4.6,3.2-7.6c1.4-3,1.5-6.1,2.8-8.7c1.3-2.7,1.9-3.7,3.4-3.7c1.4,0,6.8,0,10.4,9.3C44.4,43.1,43.2,45.8,43.2,45.8z"
				/>
		</g>
	</g>
</g>
<linearGradient id="SVGID_00000065053656692948598230000004485407680890146468_" gradientUnits="userSpaceOnUse" x1="35.4355" y1="62.3474" x2="35.4355" y2="-8.4444">
	<stop  offset="4.581744e-03" style="stop-color:#C49600"/>
	<stop  offset="0.2522" style="stop-color:#FFE842"/>
	<stop  offset="0.3145" style="stop-color:#FBDF3C"/>
	<stop  offset="0.4146" style="stop-color:#EFC82A"/>
	<stop  offset="0.5395" style="stop-color:#DBA20E"/>
	<stop  offset="0.5955" style="stop-color:#D18E00"/>
	<stop  offset="0.8708" style="stop-color:#FFCC00"/>
	<stop  offset="1" style="stop-color:#FFD100"/>
</linearGradient>
<path style="fill:url(#SVGID_00000065053656692948598230000004485407680890146468_);" d="M65.3,16.4c-1.2-1.6-7.5,1.1-12.3,4
	c-4.5,2.7-9.7,6-13.8,10.9c0,0.1,0,0,0-0.2c0.2-0.7-0.2-1.2-0.6-1.3c-1.1-0.2-1.3,0.9-1.3,0.9l-0.1,0C35.5,17.8,22,2.2,12,1.8
	c-2.2-0.1-4,1.5-3.7,3.7c0.7,7,3,12.2,2.1,18.9c-0.7,5.5-2.6,6.9,4,7.2c0.1,0,0.2,0,0.2,0.1c-0.4,0.1-1,0.2-1.5,0.3
	c-1.3,0.3-2.2,1.5-3.2,3.3c-2.7,5-7.7,11.8-2.2,18.4c3.7,4.4,10.5,3.2,13,1.4c3.9-2.9,9.3-9,11.5-11.5l0,0c-0.4,0.6,0.3,1.1,0.8,0.6
	c0,0,0.2,0,0.1,0.1c-1.1,2.5-7.4,18.3,1,18c2.4-0.1,9.9-13,9.3-18.4c-0.2-1.3-0.5-2.9-0.5-2.9c1.3,1.3,3.6,1.5,4.6-0.3
	C55.1,28.3,68.4,20.6,65.3,16.4z M41.3,30.3c2.5-2.4,6.1-5.7,9-6.7h0h0h0c1.3,0.3-1.4,2.1-2.1,2.7c-2.1,1.6-7.8,5.4-7.8,5.4
	S40.3,31.2,41.3,30.3z M24.4,15.5c0-0.1,0.1-0.1,0.3-0.1l0-0.1v0.1c0,0,0.1,0,0.1,0c2,0.3,3.8,0.9,7.5,6.5c1,1.5,2.7,5.8,3,6.6
	c0.1,0.3,0.2,1.1,0.3,1.7c0,0.3,0.1,0.5,0.1,0.6c-0.1-0.1-0.3-0.4-0.7-0.8c-1.1-1.2-3-3.3-3.6-4c-0.6-0.7-1.1-1.2-1.6-1.8
	c-0.8-0.8-1.4-1.4-2.1-2.5c-0.1-0.2-0.3-0.5-0.5-0.8C26.2,19.5,24,16.2,24.4,15.5z M28.3,25.4c0,0-0.1,0.1-0.2,0
	c-1.3-0.3-2.6-0.7-5-1.1c-0.6-0.1-1.2-0.2-1.9-0.4c-2.1-0.4-4.5-1-5.8-1.1c-1.1-0.1-1.5-0.4-1.5-1.7c0-1.2,0.1-1.8,0.5-2.3
	c0.3-0.3,0.7-0.4,1.2-0.4c0.1,0,0.2,0,0.3,0l0,0l0,0c3.1,0,7.3,2.2,9.5,3.5l0,0l0,0c0.7,0.3,1.1,0.8,1.6,1.4
	c0.1,0.1,0.2,0.2,0.3,0.4c0.1,0.1,0.2,0.2,0.3,0.4c0.2,0.2,0.8,1,0.8,1.1C28.3,25.2,28.3,25.4,28.3,25.4z M23.9,18.1
	c0.2,0.5,0.5,1,0.8,1.6c-2.2-1.2-5.9-2.5-9.2-2.9c-0.1,0-0.6-0.1-0.6-1.1c0-0.6,0.3-1.2,0.7-1.7c0.3-0.4,0.9-0.9,1.7-0.9h0h0
	C21.4,13.4,22.5,15.2,23.9,18.1z M15.5,5.7c1.3,0.7,5.5,3,4.4,3.9c-0.7,0.5-5.5,2.7-5.8,1.5c-0.2-1.1-0.4-2-0.9-3.8
	C12.8,5.7,14.7,5.2,15.5,5.7z M10.1,42.4c0.8-1.8,1.7-4,4.3-4.1c0.4,0,1,0,1.7,0l0-0.1v0.1c2.9,0,7.4,0.2,8.5,0.3
	c-1.1,0.9-3.9,2.4-5,2.7c-0.9,0.2-2.1,0.4-3.4,0.6c-2.2,0.3-4.7,0.7-6.4,1.3C9.9,42.9,10,42.7,10.1,42.4z M8.2,48.4
	c0.1-0.5,0.4-1.9,0.8-2.8c0.7-1.4,3.7-1.8,6.4-2.2c1-0.1,1.9-0.3,2.7-0.5c-0.2,0.2-0.4,0.5-0.6,0.8c-0.7,0.9-1,1.2-1,1.3
	c-0.6,0.2-3.4,1.3-8.2,3.2C8.3,48.4,8.3,48.4,8.2,48.4z M13.6,53.3C13.6,53.3,13.6,53.3,13.6,53.3c-2.5-0.2-3.8-1.5-4.3-2.2
	c-0.5-0.6-0.6-1.2-0.6-1.3c0.4-0.3,7.3-2.9,8-3.1c0.5-0.1,1.1-0.2,1.5-0.2c0.2,0,0.4,0,0.6,0c0.2,0,0.5,0,0.7,0c0.5,0,1.1,0,1.7-0.1
	c-0.6,0.5-1.2,1.1-1.9,1.9c-0.5,0.6-1.2,1.3-2,2.1c-0.5,0.5-0.9,0.9-1.2,1.3C15.2,52.7,14.6,53.3,13.6,53.3z M29.7,42.2
	c0,0.1-0.1,0.3-0.1,0.3c-1.7,1.9-4,4.5-6.3,6.8c-2.1,2.1-4.8,4.6-6,4.7l0,0l0,0c0,0-0.1,0-0.1,0c-0.2,0-0.3-0.1-0.3-0.2
	c-0.1-0.3,0-0.8,0.1-1c3.9-4.4,9.7-9.6,12.8-11C29.8,41.9,29.7,42,29.7,42.2z M28.9,40.7c-0.9,0.5-1.8,1-2.6,1.5
	c-0.6,0.4-1.4,1-2.4,2c0,0-0.1,0.1-0.1,0.1c-0.7,0.5-2.9,0.8-4.5,0.8c-0.5,0-0.8,0-1-0.1c0.4-0.6,2.1-2.4,2.5-2.6c0,0,5.4-3,5.7-3.3
	c0.4-0.2,2.3-0.6,3.9-0.9c1-0.2,1.9-0.4,2.6-0.5C32.3,39,30.7,39.8,28.9,40.7z M33.1,36c-1.6,0.8-4.5,1.1-8.8,1.1
	c-2.5,0-5-0.1-7-0.2c-1.3-0.1-2.5-0.1-3.4-0.1c1.3-2.2,3-3.3,5.4-3.3c0.1,0,0.2,0,0.3,0l0,0l0,0c0.1,0,0.3,0,0.4,0
	c2,0,11.8,1.8,12.4,2C33.1,35.6,33.2,35.7,33.1,36z M33.6,46.6C33.6,46.5,33.7,46.5,33.6,46.6c-0.7,3.5-0.9,8.9-2.3,11.3
	C30.5,54.2,32.3,50.2,33.6,46.6z M33.4,59.2c-0.3,0.5-0.4,0.5-0.6,0.6c-0.1,0.1-0.1,0-0.2-0.2c-0.4-1.3,0.6-7.6,1.7-10.2
	c0-0.1,0.1,0,0.1,0C34.3,52,34.1,56.9,33.4,59.2z M33.6,33C33.6,33,33.6,33,33.6,33c-0.2,0-0.5,0-0.8-0.1c-0.6-0.1-5.5-1.1-9.7-2
	c-3.1-0.7-5.8-1.2-6.4-1.3c-0.9-0.2-1.8-0.3-2.5-0.5c-1-0.2-1.1-1-1-2.7c0-0.2,0-0.4,0-0.7c0-1.1,0.6-1.7,1.8-1.7l0,0l0,0l0,0
	c0.2,0,0.4,0,0.7,0.1c1,0.1,11.8,2.2,13,2.6c1.3,0.4,3.1,1.7,4.4,3.2c0.5,0.6,0.9,1,1.1,1.3c0.4,0.5,0.6,0.7,0.8,1
	c0.1,0.1,0.1,0.1,0.1,0.2c-0.1,0.1-0.6,0.5-0.7,0.5C34.2,33,33.9,33.1,33.6,33z M34.9,58.9c-0.4-0.4-0.1-4.5,0-6.4
	c0.3-3.8,0.4-6.7,1.4-10.3c-0.1,2.7,0,5.6,0.3,8.4C36.9,54.3,36.7,56.4,34.9,58.9z M37.8,53.3c-0.1-0.4-1.3-8.7-0.6-13.6
	c0.4,1.2,2.7,6.2,2.8,8.1C40,49.2,38.9,52.8,37.8,53.3z M40.9,46.4c-0.8-1.5-3.8-7.8-2.9-9.6c0,0,0.1-0.1,0.2-0.1c0.1,0,0.1,0,0.1,0
	c1.1,0.8,2.9,3.2,3.2,4.9C41.7,43.2,41.6,45.5,40.9,46.4z M45.9,38.5c-1.8-0.2-2.5-1.4-4-2.3c-2.8-1.8-3.4-2.1-2.9-2.7
	c0.4-0.4,2.7-1.7,3.4-1.6c1.4,0.2,5.5,2.8,5.7,3.7C48.4,36.9,47.4,38.6,45.9,38.5z M50.3,33.7c-0.6,0.7-1.1,0.9-1.7,0.5
	c-1.2-0.9-3.4-1.9-5.2-2.8c-0.7-0.3,2-2,3-2.1c0.3,0,4.2,0.9,4.7,1C52.7,30.7,50.9,33,50.3,33.7z M53.1,29.2c-1.4,0.3-4.1-0.2-6-0.8
	c1.3-1.1,4.2-3.5,6.4-3.4C57,24.9,55.5,28.3,53.1,29.2z M58.1,23.3c-0.8,0.3-3.5-0.9-2.6-2c0.9-1,5.2-2.5,6.9-2.3
	C64.6,19.1,59.8,22.7,58.1,23.3z"/>
</svg>
