<?xml version="1.0" encoding="UTF-8"?>
<svg width="120px" height="31px" viewBox="0 0 120 31" version="1.1" xmlns="http://www.w3.org/2000/svg" xmlns:xlink="http://www.w3.org/1999/xlink">
    <!-- Generator: sketchtool 58 (101010) - https://sketch.com -->
    <title>816B731C-8EB6-4A6B-8DC7-30C17C76831F</title>
    <desc>Created with sketchtool.</desc>
    <g id="Atoms" stroke="none" stroke-width="1" fill="none" fill-rule="evenodd">
        <g id="Logo" transform="translate(-120.000000, -372.000000)" fill-rule="nonzero">
            <g id="Logo-/-Abbott-/-Desktop-/-1-line" transform="translate(120.000000, 372.000000)">
                <g id="Logo-/-Abbott">
                    <g id="Group">
                        <path d="M32.5042545,0.0143555556 L0.0102584493,0.0143555556 L0.0102584493,5.06449524 L30.8821074,5.06449524 L30.8821074,5.06895873 C31.7757853,5.06895873 32.4893439,5.79373333 32.4893439,6.69354921 L32.4893439,23.6520444 L32.4854076,23.6664 C32.4799205,24.5622349 31.7592048,25.2821841 30.8750696,25.2821841 L6.61395626,25.2821841 C5.72576541,25.2821841 4.99884692,24.5564444 4.99884692,23.6519238 L4.99884692,16.800946 C4.99884692,15.9011302 5.72576541,15.1706857 6.61395626,15.1706857 L27.4866799,15.1706857 L27.4866799,10.1273016 L4.98930417,10.1273016 C2.23944334,10.1273016 0.0102584493,12.3776254 0.0102584493,15.1566921 L0.0102584493,25.296419 C0.0102584493,28.0774159 2.23944334,30.3309968 4.98930417,30.3309968 L32.5042545,30.3309968 C35.256501,30.3309968 37.4824652,28.0774159 37.4824652,25.296419 L37.4824652,5.05050159 C37.4824652,2.26986667 35.256501,0.0143555556 32.5042545,0.0143555556" id="Shape" fill="#159BD7"></path>
                        <g transform="translate(44.970179, 7.117460)" fill="#ffffff" id="Shape">
                            <path d="M6.03638171,8.6332381 L9.41582505,8.6332381 L7.74178926,3.56102222 L7.69538767,3.56102222 L6.03638171,8.6332381 Z M10.959006,0.056215873 L14.8518489,11.8324762 C15.313837,13.2692381 15.6409145,13.6017079 16.452167,13.6017079 L17.2436183,13.6017079 L17.2436183,15.674819 L8.74353877,15.674819 L8.74353877,13.6017079 L9.44063618,13.6017079 C10.1394036,13.6017079 10.7205567,13.507854 10.7205567,13.251746 C10.7205567,13.0097524 10.6972962,12.7509905 10.6037773,12.3968063 L10.1178131,10.7046603 L5.36576541,10.7046603 L5.0817495,11.6474222 C4.82755467,12.4696698 4.7332008,12.8187873 4.7332008,13.1495683 C4.7332008,13.5296889 5.5511332,13.6017079 6.1845328,13.6017079 L6.85431412,13.6017079 L6.85431412,15.674819 L0.00679920477,15.674819 L0.00679920477,13.6017079 L0.799920477,13.6017079 C1.61534791,13.6017079 1.93586481,13.2692381 2.40858847,11.8324762 L6.29809145,0.056215873 L10.959006,0.056215873 Z"></path>
                            <path d="M22.465169,10.1579429 C22.465169,12.5650921 22.9992048,13.9994413 24.3022664,13.9994413 C25.6136779,13.9994413 26.1435388,12.5650921 26.1435388,10.1579429 C26.1435388,7.75742857 25.6136779,6.32151111 24.3022664,6.32151111 C22.9992048,6.32151111 22.465169,7.75742857 22.465169,10.1579429 L22.465169,10.1579429 Z M18.5947515,2.95483175 C18.5947515,2.28928889 18.4324056,1.94005079 17.7568986,1.94005079 L16.6864414,1.94005079 L16.6864414,0.056215873 L22.465169,0.056215873 L22.465169,5.91883175 C23.325328,4.92914286 24.4223857,4.2936381 25.4654076,4.2936381 C28.9609145,4.2936381 30.2631412,7.05497143 30.2631412,10.1579429 C30.2631412,13.2692381 28.9609145,16.0239365 25.4654076,16.0239365 C23.9984493,16.0239365 22.6927634,15.5065333 21.8805567,14.2104317 L21.2075547,15.6765079 L18.5947515,15.6765079 L18.5947515,2.95483175 Z"></path>
                            <path d="M35.5320477,10.1579429 C35.5320477,12.5650921 36.0726441,13.9994413 37.3740358,13.9994413 C38.6797217,13.9994413 39.2128032,12.5650921 39.2128032,10.1579429 C39.2128032,7.75742857 38.6796024,6.32151111 37.3740358,6.32151111 C36.0726441,6.32151111 35.5320477,7.75742857 35.5320477,10.1579429 L35.5320477,10.1579429 Z M31.6631809,2.95483175 C31.6631809,2.28928889 31.499165,1.94005079 30.830338,1.94005079 L29.7565408,1.94005079 L29.7565408,0.056215873 L35.5320477,0.056215873 L35.5320477,5.91883175 C36.3963817,4.92914286 37.4892644,4.2936381 38.5372962,4.2936381 C42.0326839,4.2936381 43.3383698,7.05497143 43.3383698,10.1579429 C43.3383698,13.2692381 42.0326839,16.0239365 38.5372962,16.0239365 C37.0702187,16.0239365 35.7646521,15.5065333 34.9507753,14.2104317 L34.2727634,15.6765079 L31.6631809,15.6765079 L31.6631809,2.95483175 L31.6631809,2.95483175 Z"></path>
                            <path d="M48.5788867,10.1587873 C48.5788867,12.9377333 49.0673559,14.139981 50.4657256,14.139981 C51.8615905,14.139981 52.3492247,12.9377333 52.3492247,10.1587873 C52.3492247,7.37984127 51.8615905,6.1791619 50.4657256,6.1791619 C49.0673559,6.1791619 48.5788867,7.37984127 48.5788867,10.1587873 M56.475507,10.1587873 C56.475507,13.9298349 53.9346322,16.0239365 50.4657256,16.0239365 C46.9893042,16.0239365 44.4543936,13.9298349 44.4543936,10.1587873 C44.4543936,6.39015238 46.9894235,4.2936381 50.4657256,4.2936381 C53.9346322,4.2936381 56.475507,6.39015238 56.475507,10.1587873"></path>
                            <path d="M73.0839364,10.3496317 L73.0839364,12.1866603 C73.0839364,13.2692381 72.8528827,13.9098095 71.9670775,13.9098095 C71.4322068,13.9098095 71.1780119,13.5062857 71.1780119,13.0097524 L71.1780119,6.53262222 L74.0376143,6.53262222 L74.0376143,4.64709841 L71.1781312,4.64709841 L71.1781312,0.271307937 L68.8675944,0.271307937 C68.6787674,2.22306032 68.0753082,4.64697778 65.7464016,4.64697778 L62.1135984,4.64697778 L62.1135984,0.271307937 L59.809503,0.271307937 C59.6215109,2.22306032 59.0147117,4.64697778 56.6883101,4.64697778 L56.6883101,6.53250159 L58.2480716,6.53250159 L58.2480716,12.4444571 C58.2480716,14.8482286 59.5752286,16.0238159 61.970338,16.0238159 C64.7719682,16.0238159 65.8831014,14.7553397 65.8831014,12.4444571 L65.8831014,10.3495111 L64.0258449,10.3495111 L64.0258449,12.1865397 C64.0258449,13.2691175 63.7907356,13.9096889 62.9082704,13.9096889 C62.367674,13.9096889 62.1134791,13.5061651 62.1134791,13.0096317 L62.1134791,6.53250159 L67.3142744,6.53250159 L67.3142744,12.4444571 C67.3142744,14.8482286 68.6355865,16.0238159 71.0357058,16.0238159 C73.8298211,16.0238159 74.9508549,14.7553397 74.9508549,12.4444571 L74.9508549,10.3495111 L73.0839364,10.3495111 L73.0839364,10.3496317 Z"></path>
                        </g>
                    </g>
                </g>
            </g>
        </g>
    </g>
</svg>
