<?xml version="1.0" encoding="UTF-8"?>
<svg width="16px" height="16px" viewBox="0 0 16 16" version="1.1" xmlns="http://www.w3.org/2000/svg" xmlns:xlink="http://www.w3.org/1999/xlink">
    <title>Desktop</title>
    <defs>
        <rect id="path-1" x="0" y="0" width="1408" height="928" rx="6"></rect>
        <filter x="-0.5%" y="-0.5%" width="101.0%" height="101.5%" filterUnits="objectBoundingBox" id="filter-2">
            <feOffset dx="0" dy="2" in="SourceAlpha" result="shadowOffsetOuter1"></feOffset>
            <feGaussianBlur stdDeviation="2" in="shadowOffsetOuter1" result="shadowBlurOuter1"></feGaussianBlur>
            <feColorMatrix values="0 0 0 0 0   0 0 0 0 0   0 0 0 0 0  0 0 0 0.241859703 0" type="matrix" in="shadowBlurOuter1"></feColorMatrix>
        </filter>
    </defs>
    <g id="Storybook-&amp;-Theme-Builder" stroke="none" stroke-width="1" fill="none" fill-rule="evenodd">
        <g id="Storybook" transform="translate(-314.000000, -104.000000)">
            <rect fill="#F5F5F5" x="0" y="0" width="1440" height="1024"></rect>
            <g id="Group-4" transform="translate(16.000000, 80.000000)">
                <g id="Cards/_utils/Card-Background" transform="translate(0.000000, 0.000000)">
                    <g id="Shadow" fill="black" fill-opacity="1">
                        <g id="Shape">
                            <use filter="url(#filter-2)" xlink:href="#path-1"></use>
                        </g>
                    </g>
                    <g id="Fill" fill="#FFFFFF">
                        <rect id="Shape" x="0" y="0" width="1408" height="928" rx="6"></rect>
                    </g>
                    <g id="Inner-Shadow">
                        <rect id="Shape" x="0" y="0" width="1408" height="928" rx="6"></rect>
                    </g>
                    <g id="Border" stroke="#E0E0E0">
                        <rect id="Shape" x="0.5" y="0.5" width="1407" height="927" rx="6"></rect>
                    </g>
                </g>
                <g id="Group-2" transform="translate(0.000000, 0.000000)">
                    <g id="_Primitives/Round-Rect-M/Top" stroke="#E0E0E0">
                        <path d="M1402,0.5 C1403.51878,0.5 1404.89378,1.11560847 1405.88909,2.1109127 C1406.88439,3.10621694 1407.5,4.48121694 1407.5,6 L1407.5,6 L1407.5,63.5 L0.5,63.5 L0.5,6 C0.5,4.48121694 1.11560847,3.10621694 2.1109127,2.1109127 C3.10621694,1.11560847 4.48121694,0.5 6,0.5 L6,0.5 Z" id="Shape"></path>
                    </g>
                    <g id="Toolbar" transform="translate(254.000000, 20.000000)">
                        <g id="Desktop" transform="translate(40.000000, 0.000000)">
                            <rect id="Rectangle" x="0" y="0" width="24" height="24"></rect>
                            <g id="Icon/Desktop" transform="translate(4.000000, 4.000000)">
                                <rect id="Rectangle" x="0" y="0" width="16" height="16"></rect>
                                <g id="Desktop" transform="translate(1.263158, 1.937753)" fill="#7F7F7F">
                                    <path d="M0.327314126,9.56104738 C0.55374376,9.77458622 0.817724845,9.88780103 1.11981785,9.88780103 L4.94446099,9.88780103 C4.94446099,10.0643489 4.90634907,10.2526666 4.83124617,10.4415448 C4.7555828,10.6175322 4.67991943,10.7811892 4.60481653,10.9319555 C4.52915317,11.0703915 4.49160172,11.1712759 4.49160172,11.2340485 C4.49160172,11.3595937 4.52915317,11.4604782 4.61714686,11.5484718 C4.71803135,11.6364655 4.81835537,11.6869078 4.94446099,11.6869078 L8.52978369,11.6869078 C8.65532884,11.6869078 8.75621333,11.6364655 8.85653735,11.5484718 C8.94453104,11.4604782 8.98264296,11.3595937 8.98264296,11.2340485 C8.98264296,11.1712759 8.94453104,11.0703915 8.86942815,10.9319555 C8.79376478,10.7935196 8.71810141,10.6175322 8.64299851,10.4292145 C8.56733514,10.2403363 8.52978369,10.0643489 8.52978369,9.88780103 L12.3538664,9.88780103 C12.6559594,9.88780103 12.9199405,9.77458622 13.1463701,9.56104738 C13.3604694,9.33461774 13.4736842,9.07007619 13.4736842,8.76854366 L13.4736842,1.11981785 C13.4736842,0.817724845 13.3604694,0.55374376 13.1463701,0.327314126 C12.9199405,0.113214817 12.6559594,0 12.3538664,0 L1.11981785,0 C0.817724845,0 0.55374376,0.113214817 0.327314126,0.327314126 C0.113214817,0.55374376 0,0.817724845 0,1.11981785 L0,8.76854366 C0,9.07007619 0.113214817,9.33461774 0.327314126,9.56104738 L0.327314126,9.56104738 Z M0.893388213,1.11981785 C0.893388213,1.05648481 0.918609335,1.00660303 0.956160785,0.956160785 C1.00660303,0.918609335 1.05704528,0.893388213 1.11981785,0.893388213 L12.3538664,0.893388213 C12.4166389,0.893388213 12.4670812,0.918609335 12.5175234,0.956160785 C12.5550749,1.00660303 12.580296,1.05648481 12.580296,1.11981785 L12.580296,6.9694369 C12.580296,7.03220948 12.5550749,7.08265172 12.5175234,7.13309397 C12.4670812,7.17064542 12.4166389,7.19586654 12.3538664,7.19586654 L1.11981785,7.19586654 C1.05704528,7.19586654 1.00660303,7.17064542 0.956160785,7.13309397 C0.918609335,7.08265172 0.893388213,7.03220948 0.893388213,6.9694369 L0.893388213,1.11981785 L0.893388213,1.11981785 Z" id="Icon-Color"></path>
                                </g>
                            </g>
                        </g>
                    </g>
                </g>
            </g>
        </g>
    </g>
</svg>
