<?xml version="1.0" encoding="UTF-8"?>
<svg width="16px" height="16px" viewBox="0 0 16 16" version="1.1" xmlns="http://www.w3.org/2000/svg" xmlns:xlink="http://www.w3.org/1999/xlink">
    <title>Go To FullScreen</title>
    <g id="Symbols" stroke="none" stroke-width="1" fill="none" fill-rule="evenodd">
        <g id="Icon/FullScreenEnter">
            <rect id="Rectangle" x="0" y="0" width="16" height="16"></rect>
            <g id="FullScreenEnter" fill="#7F7F7F">
                <path d="M0.205448118,15.8128509 C0.336036598,15.9442712 0.485755874,16 0.672073196,16 L5.33998752,16 C5.61946351,16 5.82491162,15.8694115 5.95633188,15.5891038 C6.06778956,15.3279268 6.01206072,15.0850489 5.8066126,14.8796007 L4.29444791,13.3674361 L8.00998129,9.67103348 L11.7063839,13.3674361 L10.1942192,14.8796007 C9.98877105,15.0850489 9.93221044,15.3279268 10.0636307,15.5891038 C10.1750884,15.8694115 10.3805365,16 10.6608443,16 L15.3279268,16 C15.5150759,16 15.6639634,15.9442712 15.8136827,15.8128509 C15.9442712,15.6822624 16,15.5142441 16,15.3462258 L16,10.6791433 C16,10.3805365 15.8694115,10.1750884 15.5899355,10.0627989 C15.3096278,9.93221044 15.0667498,9.98793928 14.8613017,10.2125182 L13.3674361,11.7055521 L9.67103348,8.00914951 L13.3674361,4.31274693 L14.8613017,5.8066126 C14.9918902,5.93720108 15.1599085,6.01122895 15.3279268,6.01122895 C15.4219172,6.01122895 15.5150759,5.99292992 15.5899355,5.9555001 C15.8694115,5.84321065 16,5.63776253 16,5.33915575 L16,0.672073196 C16,0.484924101 15.9442712,0.336036598 15.8136827,0.205448118 C15.6639634,0.0748596382 15.5150759,0 15.3279268,0 L10.6608443,0 C10.3805365,0 10.1750884,0.148887503 10.0636307,0.429195259 C9.93221044,0.690372219 9.98877105,0.933250156 10.1942192,1.13869827 L11.7063839,2.63256394 L8.00998129,6.34809732 L4.29444791,2.63256394 L5.8066126,1.13869827 C6.01206072,0.933250156 6.06778956,0.690372219 5.95633188,0.429195259 C5.82491162,0.148887503 5.61946351,0 5.33998752,0 L0.672073196,0 C0.485755874,0 0.336036598,0.0748596382 0.205448118,0.205448118 C0.0748596382,0.336036598 0,0.484924101 0,0.672073196 L0,5.33915575 C0,5.63776253 0.131420254,5.84321065 0.410896236,5.9555001 C0.504054897,5.99292992 0.578914535,6.01122895 0.672073196,6.01122895 C0.840091495,6.01122895 1.00810979,5.93720108 1.13953005,5.8066126 L2.63256394,4.31274693 L6.32979829,8.00914951 L2.63256394,11.7055521 L1.13953005,10.2125182 C0.93408193,9.98793928 0.691203993,9.93221044 0.410896236,10.0627989 C0.131420254,10.1750884 0,10.3805365 0,10.6791433 L0,15.3462258 C0,15.5142441 0.0748596382,15.6822624 0.205448118,15.8128509" id="Icon-Color"></path>
            </g>
        </g>
    </g>
</svg>