<?xml version="1.0" encoding="UTF-8"?>
<svg width="16px" height="16px" viewBox="0 0 16 16" version="1.1" xmlns="http://www.w3.org/2000/svg" xmlns:xlink="http://www.w3.org/1999/xlink">
    <title>9B5A90E6-B345-418D-B91A-CD975FE2BEAD</title>
    <g id="Symbols" stroke="none" stroke-width="1" fill="none" fill-rule="evenodd">
        <g id="Icon/FullScreenExit">
            <rect id="Rectangle" x="0" y="0" width="16" height="16"></rect>
            <path d="M6.33790809,9 C6.52422541,9 6.67394469,9.07485964 6.80453317,9.20544812 C6.93512165,9.3360366 7.00998129,9.4849241 7.00998129,9.6720732 L7.00998129,14.3391557 C7.00998129,14.6377625 6.87856103,14.8432106 6.59908505,14.9555001 C6.50592639,14.9929299 6.43106675,15.0112289 6.33790809,15.0112289 C6.16988979,15.0112289 6.00187149,14.9372011 5.87045124,14.8066126 L4.37741734,13.3127469 L2.40567966,15.284 L0.734679656,13.613 L2.71553337,11.6325639 L1.20336868,10.1386983 C0.997920566,9.93325016 0.942191724,9.69037222 1.05364941,9.42919526 C1.18506966,9.1488875 1.39051778,9 1.66999376,9 L6.33790809,9 Z M14.3399875,9 C14.6194635,9 14.8249116,9.1488875 14.9563319,9.42919526 C15.0538574,9.6577251 15.0233806,9.87224475 14.8766034,10.0599381 L14.8066126,10.1386983 L13.2944479,11.6325639 L15.27,13.608 L13.599,15.279 L11.6325639,13.3127469 L10.13953,14.8066126 C10.0081098,14.9372011 9.8400915,15.0112289 9.6720732,15.0112289 C9.57891454,15.0112289 9.5040549,14.9929299 9.41089624,14.9555001 C9.16635475,14.8572468 9.03516843,14.687669 9.00619282,14.4467665 L9,14.3391557 L9,9.6720732 C9,9.4849241 9.07485964,9.3360366 9.20544812,9.20544812 C9.3099189,9.10097733 9.4266334,9.03217301 9.56453483,9.00883011 L9.6720732,9 L14.3399875,9 Z M2.40067966,0.720679656 L4.37741734,2.69640258 L5.87045124,1.20253691 C6.00187149,1.07194843 6.16988979,0.997920566 6.33790809,0.997920566 C6.43106675,0.997920566 6.50592639,1.01621959 6.59908505,1.05364941 C6.84362653,1.15190268 6.97481285,1.32148056 7.00378847,1.56238303 L7.00998129,1.66999376 L7.00998129,6.33707632 C7.00998129,6.52422541 6.93512165,6.67311291 6.80453317,6.80370139 C6.70006238,6.90817218 6.58334789,6.9769765 6.44544645,7.0003194 L6.33790809,7.00914951 L1.66999376,7.00914951 C1.39051778,7.00914951 1.18506966,6.86026201 1.05364941,6.57995425 C0.956123934,6.35142441 0.986600645,6.13690476 1.13337785,5.94921144 L1.20336868,5.87045124 L2.71553337,4.37658557 L0.730679656,2.39167966 L2.40067966,0.720679656 Z M13.603,0.725679656 L15.275,2.39567966 L13.2944479,4.37658557 L14.8066126,5.87045124 C15.0120607,6.07589936 15.0677896,6.31877729 14.9563319,6.57995425 C14.8249116,6.86026201 14.6194635,7.00914951 14.3399875,7.00914951 L9.6720732,7.00914951 C9.48575587,7.00914951 9.3360366,6.93428987 9.20544812,6.80370139 C9.07485964,6.67311291 9,6.52422541 9,6.33707632 L9,1.66999376 C9,1.37138698 9.13142025,1.16593886 9.41089624,1.05364941 C9.5040549,1.01621959 9.57891454,0.997920566 9.6720732,0.997920566 C9.8400915,0.997920566 10.0081098,1.07194843 10.13953,1.20253691 L11.6325639,2.69640258 L13.603,0.725679656 Z" id="FullScreenExit" fill="#7F7F7F"></path>
        </g>
    </g>
</svg>