<?xml version="1.0" encoding="UTF-8"?>
<svg width="16px" height="16px" viewBox="0 0 16 16" version="1.1" xmlns="http://www.w3.org/2000/svg" xmlns:xlink="http://www.w3.org/1999/xlink">
    <title>Mobile</title>
    <defs>
        <rect id="path-1" x="0" y="0" width="1408" height="928" rx="6"></rect>
        <filter x="-0.5%" y="-0.5%" width="101.0%" height="101.5%" filterUnits="objectBoundingBox" id="filter-2">
            <feOffset dx="0" dy="2" in="SourceAlpha" result="shadowOffsetOuter1"></feOffset>
            <feGaussianBlur stdDeviation="2" in="shadowOffsetOuter1" result="shadowBlurOuter1"></feGaussianBlur>
            <feColorMatrix values="0 0 0 0 0   0 0 0 0 0   0 0 0 0 0  0 0 0 0.241859703 0" type="matrix" in="shadowBlurOuter1"></feColorMatrix>
        </filter>
    </defs>
    <g id="Storybook-&amp;-Theme-Builder" stroke="none" stroke-width="1" fill="none" fill-rule="evenodd">
        <g id="Storybook" transform="translate(-394.000000, -104.000000)">
            <rect fill="#F5F5F5" x="0" y="0" width="1440" height="1024"></rect>
            <g id="Group-4" transform="translate(16.000000, 80.000000)">
                <g id="Cards/_utils/Card-Background" transform="translate(0.000000, 0.000000)">
                    <g id="Shadow" fill="black" fill-opacity="1">
                        <g id="Shape">
                            <use filter="url(#filter-2)" xlink:href="#path-1"></use>
                        </g>
                    </g>
                    <g id="Fill" fill="#FFFFFF">
                        <rect id="Shape" x="0" y="0" width="1408" height="928" rx="6"></rect>
                    </g>
                    <g id="Inner-Shadow">
                        <rect id="Shape" x="0" y="0" width="1408" height="928" rx="6"></rect>
                    </g>
                    <g id="Border" stroke="#E0E0E0">
                        <rect id="Shape" x="0.5" y="0.5" width="1407" height="927" rx="6"></rect>
                    </g>
                </g>
                <g id="Group-2" transform="translate(0.000000, 0.000000)">
                    <g id="_Primitives/Round-Rect-M/Top" stroke="#E0E0E0">
                        <path d="M1402,0.5 C1403.51878,0.5 1404.89378,1.11560847 1405.88909,2.1109127 C1406.88439,3.10621694 1407.5,4.48121694 1407.5,6 L1407.5,6 L1407.5,63.5 L0.5,63.5 L0.5,6 C0.5,4.48121694 1.11560847,3.10621694 2.1109127,2.1109127 C3.10621694,1.11560847 4.48121694,0.5 6,0.5 L6,0.5 Z" id="Shape"></path>
                    </g>
                    <g id="Toolbar" transform="translate(254.000000, 20.000000)">
                        <g id="Mobile" transform="translate(120.000000, 0.000000)">
                            <rect id="Rectangle" x="0" y="0" width="24" height="24"></rect>
                            <g id="Icon/Mobile-Portrait" transform="translate(4.000000, 4.000000)">
                                <rect id="Rectangle" x="0" y="0" width="16" height="16"></rect>
                                <g id="Mobile-Portrait" transform="translate(4.127372, 1.263158)" fill="#7F7F7F">
                                    <path d="M0.395988098,13.0776961 C0.659980164,13.3416882 0.981142486,13.4736842 1.35863432,13.4736842 L6.75533836,13.4736842 C7.11433394,13.4736842 7.43465553,13.3416882 7.69864759,13.0776961 C7.9634804,12.8128633 8.09547643,12.4925417 8.09547643,12.1335461 L8.09547643,1.33929733 C8.09547643,0.981142486 7.9634804,0.659980164 7.69864759,0.395988098 C7.43465553,0.131996033 7.11433394,0 6.75533836,0 L1.35863432,0 C0.981142486,0 0.659980164,0.131996033 0.395988098,0.395988098 C0.131996033,0.659980164 0,0.981142486 0,1.33929733 L0,12.1335461 C0,12.4925417 0.131996033,12.8128633 0.395988098,13.0776961 L0.395988098,13.0776961 Z M1.01897574,3.03843097 C1.01897574,2.94342746 1.056809,2.86776094 1.11313852,2.79293516 C1.18880503,2.73576491 1.26447155,2.69793165 1.35863432,2.69793165 L6.73684211,2.69793165 C6.83100488,2.69793165 6.9066714,2.73576491 6.98233791,2.79293516 C7.03866743,2.86776094 7.07650069,2.94342746 7.07650069,3.03843097 L7.07650069,10.4352532 C7.07650069,10.529416 7.03866743,10.6050825 6.98233791,10.680749 C6.9066714,10.7370786 6.83100488,10.7749118 6.73684211,10.7749118 L1.35863432,10.7749118 C1.26447155,10.7749118 1.18880503,10.7370786 1.11313852,10.680749 C1.056809,10.6050825 1.01897574,10.529416 1.01897574,10.4352532 L1.01897574,3.03843097 L1.01897574,3.03843097 Z M3.20826026,1.33929733 L4.88721617,1.33929733 C5.00071594,1.33929733 5.05704546,1.39646758 5.05704546,1.50912662 C5.05704546,1.62262639 5.00071594,1.67895591 4.88721617,1.67895591 L3.20826026,1.67895591 C3.09476049,1.67895591 3.03759023,1.62262639 3.03759023,1.50912662 C3.03759023,1.39646758 3.09476049,1.33929733 3.20826026,1.33929733 L3.20826026,1.33929733 Z M4.03806972,11.2843997 C4.28356552,11.2843997 4.47189107,11.3600662 4.64172036,11.5298955 C4.81154965,11.6997248 4.88721617,11.8880503 4.88721617,12.1150499 C4.88721617,12.3605457 4.81154965,12.5488712 4.64172036,12.7187005 C4.47189107,12.8885298 4.28356552,12.9641963 4.03806972,12.9641963 C3.81191091,12.9641963 3.62274462,12.8885298 3.45291533,12.7187005 C3.28308604,12.5488712 3.20826026,12.3605457 3.20826026,12.1150499 C3.20826026,11.8880503 3.28308604,11.6997248 3.45291533,11.5298955 C3.62274462,11.3600662 3.81191091,11.2843997 4.03806972,11.2843997 L4.03806972,11.2843997 Z" id="Icon-Color"></path>
                                </g>
                            </g>
                        </g>
                    </g>
                </g>
            </g>
        </g>
    </g>
</svg>