<?xml version="1.0" encoding="UTF-8"?>
<svg width="16px" height="16px" viewBox="0 0 16 16" version="1.1" xmlns="http://www.w3.org/2000/svg" xmlns:xlink="http://www.w3.org/1999/xlink">
    <title>Tablet</title>
    <defs>
        <rect id="path-1" x="0" y="0" width="1408" height="928" rx="6"></rect>
        <filter x="-0.5%" y="-0.5%" width="101.0%" height="101.5%" filterUnits="objectBoundingBox" id="filter-2">
            <feOffset dx="0" dy="2" in="SourceAlpha" result="shadowOffsetOuter1"></feOffset>
            <feGaussianBlur stdDeviation="2" in="shadowOffsetOuter1" result="shadowBlurOuter1"></feGaussianBlur>
            <feColorMatrix values="0 0 0 0 0   0 0 0 0 0   0 0 0 0 0  0 0 0 0.241859703 0" type="matrix" in="shadowBlurOuter1"></feColorMatrix>
        </filter>
    </defs>
    <g id="Storybook-&amp;-Theme-Builder" stroke="none" stroke-width="1" fill="none" fill-rule="evenodd">
        <g id="Storybook" transform="translate(-354.000000, -104.000000)">
            <rect fill="#F5F5F5" x="0" y="0" width="1440" height="1024"></rect>
            <g id="Group-4" transform="translate(16.000000, 80.000000)">
                <g id="Cards/_utils/Card-Background" transform="translate(0.000000, 0.000000)">
                    <g id="Shadow" fill="black" fill-opacity="1">
                        <g id="Shape">
                            <use filter="url(#filter-2)" xlink:href="#path-1"></use>
                        </g>
                    </g>
                    <g id="Fill" fill="#FFFFFF">
                        <rect id="Shape" x="0" y="0" width="1408" height="928" rx="6"></rect>
                    </g>
                    <g id="Inner-Shadow">
                        <rect id="Shape" x="0" y="0" width="1408" height="928" rx="6"></rect>
                    </g>
                    <g id="Border" stroke="#E0E0E0">
                        <rect id="Shape" x="0.5" y="0.5" width="1407" height="927" rx="6"></rect>
                    </g>
                </g>
                <g id="Group-2" transform="translate(0.000000, 0.000000)">
                    <g id="_Primitives/Round-Rect-M/Top" stroke="#E0E0E0">
                        <path d="M1402,0.5 C1403.51878,0.5 1404.89378,1.11560847 1405.88909,2.1109127 C1406.88439,3.10621694 1407.5,4.48121694 1407.5,6 L1407.5,6 L1407.5,63.5 L0.5,63.5 L0.5,6 C0.5,4.48121694 1.11560847,3.10621694 2.1109127,2.1109127 C3.10621694,1.11560847 4.48121694,0.5 6,0.5 L6,0.5 Z" id="Shape"></path>
                    </g>
                    <g id="Toolbar" transform="translate(254.000000, 20.000000)">
                        <g id="Tablet" transform="translate(80.000000, 0.000000)">
                            <rect id="Rectangle" x="0" y="0" width="24" height="24"></rect>
                            <g id="Icon/Tablet-Portrait" transform="translate(4.000000, 4.000000)">
                                <rect id="Rectangle" x="0" y="0" width="16" height="16"></rect>
                                <g id="Tablet-Portrait" transform="translate(2.717247, 1.263158)" fill="#7F7F7F">
                                    <path d="M0.445809188,13.0271103 C0.754740427,13.3192186 1.11566999,13.4736842 1.52706852,13.4736842 L9.49122409,13.4736842 C9.9033873,13.4736842 10.2635522,13.3192186 10.5724834,13.0271103 C10.8645917,12.7181791 11.0190573,12.3580142 11.0190573,11.945851 L11.0190573,1.5278332 C11.0190573,1.11566999 10.8645917,0.755505108 10.5724834,0.446573869 C10.2635522,0.154465619 9.9033873,0 9.49122409,0 L1.52706852,0 C1.11566999,0 0.754740427,0.154465619 0.445809188,0.446573869 C0.154465619,0.755505108 0,1.11566999 0,1.5278332 L0,11.945851 C0,12.3580142 0.154465619,12.7181791 0.445809188,13.0271103 L0.445809188,13.0271103 Z M1.21813728,1.5278332 C1.21813728,1.4421889 1.25254794,1.37336758 1.30454627,1.30454627 C1.3726029,1.25331262 1.44142422,1.21890197 1.52706852,1.21890197 L9.49122409,1.21890197 C9.57763307,1.21890197 9.64568971,1.25331262 9.71451102,1.30454627 C9.76574467,1.37336758 9.80015533,1.4421889 9.80015533,1.5278332 L9.80015533,10.7101261 C9.80015533,10.7957704 9.76574467,10.8645917 9.71451102,10.933413 C9.64568971,10.9846466 9.57763307,11.0190573 9.49122409,11.0190573 L1.52706852,11.0190573 C1.44142422,11.0190573 1.3726029,10.9846466 1.30454627,10.933413 C1.25254794,10.8645917 1.21813728,10.7957704 1.21813728,10.7101261 L1.21813728,1.5278332 L1.21813728,1.5278332 Z M5.50952865,11.6369198 C5.68081725,11.6369198 5.81845988,11.7057411 5.93851485,11.825796 C6.05856981,11.945851 6.12739112,12.0834936 6.12739112,12.2379593 C6.12739112,12.4092479 6.05856981,12.5468905 5.93851485,12.6669455 C5.81845988,12.7870004 5.68081725,12.8558217 5.50952865,12.8558217 C5.33747536,12.8558217 5.20059741,12.7870004 5.08054245,12.6669455 C4.96048748,12.5468905 4.89166617,12.4092479 4.89166617,12.2379593 C4.89166617,12.0834936 4.96048748,11.945851 5.08054245,11.825796 C5.20059741,11.7057411 5.33747536,11.6369198 5.50952865,11.6369198 L5.50952865,11.6369198 Z" id="Icon-Color"></path>
                                </g>
                            </g>
                        </g>
                    </g>
                </g>
            </g>
        </g>
    </g>
</svg>