<?xml version="1.0" encoding="UTF-8"?>
<svg width="116px" height="30px" viewBox="0 0 116 30" version="1.1" xmlns="http://www.w3.org/2000/svg" xmlns:xlink="http://www.w3.org/1999/xlink">
    <title>797FC208-5B68-456F-B004-666043AD2286</title>
    <g id="Example-Pages" stroke="none" stroke-width="1" fill="none" fill-rule="evenodd">
        <g id="Product-Page-Example-" transform="translate(-42.000000, -3796.000000)" fill="#FFFFFF" fill-rule="nonzero">
            <g id="Logo-/-Abbott-/-White" transform="translate(42.009808, 3796.013827)">
                <path d="M31.3286337,0 L0,0 L0,4.90506791 L29.7646631,4.90506791 L29.7646631,4.90940318 C30.6262902,4.90940318 31.3142579,5.6133577 31.3142579,6.48732521 L31.3142579,22.9586658 L31.3104626,22.972609 C31.3051724,23.8427099 30.6103044,24.5419776 29.7578778,24.5419776 L6.36686326,24.5419776 C5.51052643,24.5419776 4.80967809,23.8370858 4.80967809,22.9585487 L4.80967809,16.304374 C4.80967809,15.4304065 5.51052643,14.720945 6.36686326,14.720945 L26.4910091,14.720945 L26.4910091,9.82243862 L4.80047758,9.82243862 C2.14923756,9.82243862 0,12.008119 0,14.7073534 L0,24.5558036 C0,27.2569128 2.14923756,29.4457567 4.80047758,29.4457567 L31.3286337,29.4457567 C33.9821738,29.4457567 36.1283062,27.2569128 36.1283062,24.5558036 L36.1283062,4.89147624 C36.1283062,2.19071864 33.9821738,0 31.3286337,0" id="Shape"></path>
                <g id="Abbott" transform="translate(43.354036, 6.953660)">
                    <path d="M5.81333798,8.3306362 L9.07158121,8.3306362 L7.45758292,3.40412627 L7.41284548,3.40412627 L5.81333798,8.3306362 Z M10.5594176,0 L14.3126479,11.4379721 C14.7580672,12.8334611 15.0734145,13.1563803 15.8555723,13.1563803 L16.6186391,13.1563803 L16.6186391,15.1699386 L8.42340575,15.1699386 L8.42340575,13.1563803 L9.09550252,13.1563803 C9.76920938,13.1563803 10.32952,13.0652225 10.32952,12.8164715 C10.32952,12.5814295 10.3070938,12.3301008 10.2169289,11.9860911 L9.74839323,10.3425542 L5.16677262,10.3425542 L4.89294264,11.258234 C4.64786423,12.0568615 4.55689426,12.3959501 4.55689426,12.7172289 C4.55689426,13.0864302 5.3454924,13.1563803 5.9561758,13.1563803 L6.60193613,13.1563803 L6.60193613,15.1699386 L0,15.1699386 L0,13.1563803 L0.764676827,13.1563803 C1.55085983,13.1563803 1.85988174,12.8334611 2.31565167,11.4379721 L6.06566179,0 L10.5594176,0 Z" id="Shape"></path>
                    <path d="M21.6529244,9.81154186 C21.6529244,12.1495426 22.1678075,13.5426883 23.4241363,13.5426883 C24.6885155,13.5426883 25.1993734,12.1495426 25.1993734,9.81154186 C25.1993734,7.47998543 24.6885155,6.08531655 23.4241363,6.08531655 C22.1678075,6.08531655 21.6529244,7.47998543 21.6529244,9.81154186 L21.6529244,9.81154186 Z M17.9213153,2.81534939 C17.9213153,2.16892512 17.7647917,1.82971934 17.1135111,1.82971934 L16.0814446,1.82971934 L16.0814446,0 L21.6529244,0 L21.6529244,5.69420468 C22.4822348,4.73294588 23.5399477,4.11569681 24.5455627,4.11569681 C27.915707,4.11569681 29.1712307,6.79770729 29.1712307,9.81154186 C29.1712307,12.8334611 27.915707,15.5090273 24.5455627,15.5090273 C23.1312153,15.5090273 21.8723564,15.0064872 21.0892786,13.7476178 L20.4404131,15.1715791 L17.9213153,15.1715791 L17.9213153,2.81534939 Z" id="Shape"></path>
                    <path d="M34.2511735,9.81154186 C34.2511735,12.1495426 34.7723821,13.5426883 36.0271007,13.5426883 C37.2859595,13.5426883 37.7999226,12.1495426 37.7999226,9.81154186 C37.7999226,7.47998543 37.2858445,6.08531655 36.0271007,6.08531655 C34.7723821,6.08531655 34.2511735,7.47998543 34.2511735,9.81154186 L34.2511735,9.81154186 Z M30.5210595,2.81534939 C30.5210595,2.16892512 30.3629259,1.82971934 29.7180856,1.82971934 L28.6827989,1.82971934 L28.6827989,0 L34.2511735,0 L34.2511735,5.69420468 C35.0845091,4.73294588 36.1381967,4.11569681 37.1486421,4.11569681 C40.5186714,4.11569681 41.7775302,6.79770729 41.7775302,9.81154186 C41.7775302,12.8334611 40.5186714,15.5090273 37.1486421,15.5090273 C35.7341797,15.5090273 34.4754357,15.0064872 33.6907478,13.7476178 L33.0370521,15.1715791 L30.5210595,15.1715791 L30.5210595,2.81534939 L30.5210595,2.81534939 Z" id="Shape"></path>
                    <path d="M46.8301016,9.81236204 C46.8301016,12.5114792 47.3010524,13.6791907 48.6492711,13.6791907 C49.9950747,13.6791907 50.4652204,12.5114792 50.4652204,9.81236204 C50.4652204,7.11324482 49.9950747,5.94705652 48.6492711,5.94705652 C47.3010524,5.94705652 46.8301016,7.11324482 46.8301016,9.81236204 M54.443518,9.81236204 C54.443518,13.4750815 51.9937691,15.5090273 48.6492711,15.5090273 C45.2975277,15.5090273 42.8535291,13.4750815 42.8535291,9.81236204 C42.8535291,6.15198602 45.2976427,4.11569681 48.6492711,4.11569681 C51.9937691,4.11569681 54.443518,6.15198602 54.443518,9.81236204" id="Shape"></path>
                    <path d="M70.456304,9.99772423 L70.456304,11.7819818 C70.456304,12.8334611 70.2335368,13.4556313 69.3795,13.4556313 C68.8638118,13.4556313 68.6187334,13.0636993 68.6187334,12.5814295 L68.6187334,6.29036323 L71.3757792,6.29036323 L71.3757792,4.45900352 L68.6188484,4.45900352 L68.6188484,0.208913266 L66.3911766,0.208913266 C66.2091216,2.10459904 65.6273048,4.45888635 63.3819219,4.45888635 L59.8794054,4.45888635 L59.8794054,0.208913266 L57.6579439,0.208913266 C57.4766939,2.10459904 56.891657,4.45888635 54.6486893,4.45888635 L54.6486893,6.29024606 L56.1525115,6.29024606 L56.1525115,12.0323731 C56.1525115,14.3670931 57.4320715,15.5089101 59.7412828,15.5089101 C62.4424356,15.5089101 63.5137191,14.2768725 63.5137191,12.0323731 L63.5137191,9.99760707 L61.7230713,9.99760707 L61.7230713,11.7818646 C61.7230713,12.8333439 61.4963939,13.4555141 60.6455773,13.4555141 C60.1243688,13.4555141 59.8792904,13.0635821 59.8792904,12.5813123 L59.8792904,6.29024606 L64.8935646,6.29024606 L64.8935646,12.0323731 C64.8935646,14.3670931 66.1674894,15.5089101 68.4815309,15.5089101 C71.1754383,15.5089101 72.2562674,14.2768725 72.2562674,12.0323731 L72.2562674,9.99760707 L70.456304,9.99760707 L70.456304,9.99772423 Z" id="Path"></path>
                </g>
            </g>
        </g>
    </g>
</svg>