<?xml version="1.0" encoding="UTF-8" standalone="no" ?>
<!DOCTYPE svg PUBLIC "-//W3C//DTD SVG 1.1//EN" "http://www.w3.org/Graphics/SVG/1.1/DTD/svg11.dtd">
<svg xmlns="http://www.w3.org/2000/svg" xmlns:xlink="http://www.w3.org/1999/xlink" version="1.1" width="520" height="390" viewBox="0 0 520 390" xml:space="preserve">
<desc>Created with Fabric.js 3.6.6</desc>
<defs>
</defs>
<rect x="0" y="0" width="100%" height="100%" fill="rgba(82, 116, 255, 0)"></rect>
<g transform="matrix(1 0 0 1 260 196)"  >
<g style=""   >
		<g transform="matrix(1 0 0 1 -490 -490)"  >
<rect style="stroke: none; stroke-width: 1; stroke-dasharray: none; stroke-linecap: butt; stroke-dashoffset: 0; stroke-linejoin: miter; stroke-miterlimit: 4; fill: rgb(255,255,255); fill-opacity: 0; fill-rule: nonzero; opacity: 1;"  x="-50" y="-50" rx="0" ry="0" width="100" height="100" />
</g>
		<g transform="matrix(1 0 0 1 0 0)" id="df4c41fa-6fda-4e3c-89c9-05920004d2a1"  >
<rect style="stroke: none; stroke-width: 1; stroke-dasharray: none; stroke-linecap: butt; stroke-dashoffset: 0; stroke-linejoin: miter; stroke-miterlimit: 4; fill: rgb(255,255,255); fill-rule: nonzero; opacity: 1; visibility: hidden;" vector-effect="non-scaling-stroke"  x="-540" y="-540" rx="0" ry="0" width="1080" height="1080" />
</g>
		<g transform="matrix(1 0 0 1 0 0)" id="7"  >
<path style="stroke: rgb(0,156,222); stroke-width: 0; stroke-dasharray: none; stroke-linecap: butt; stroke-dashoffset: 0; stroke-linejoin: miter; stroke-miterlimit: 4; fill: rgb(0,156,222); fill-rule: nonzero; opacity: 1;" vector-effect="non-scaling-stroke"  transform=" translate(-256, -256)" d="M 496 384 L 64 384 L 64 80 C 64 71.16 56.84 64 48 64 L 16 64 C 7.16 64 0 71.16 0 80 L 0 416 C 0 433.67 14.33 448 32 448 L 496 448 C 504.84 448 512 440.84 512 432 L 512 400 C 512 391.16 504.84 384 496 384 z M 464 96 L 345.94 96 C 324.56 96 313.85 121.85 328.97 136.97 L 361.37 169.37 L 288 242.75 L 214.63 169.38 C 202.13 156.88 181.87 156.88 169.38 169.38 L 100.69 238.07 C 94.44 244.32 94.44 254.45 100.69 260.7 L 123.31 283.32 C 129.56 289.57 139.69 289.57 145.94 283.32 L 192 237.25 L 265.37 310.62 C 277.87 323.12 298.13 323.12 310.62 310.62 L 406.62 214.62 L 439.02 247.02 C 454.14 262.14 479.99 251.43 479.99 230.05 L 479.99 112 C 480 103.16 472.84000000000003 96 464 96 z" stroke-linecap="round" />
</g>
</g>
</g>
</svg>