<?xml version="1.0" encoding="UTF-8" standalone="no" ?>
<!DOCTYPE svg PUBLIC "-//W3C//DTD SVG 1.1//EN" "http://www.w3.org/Graphics/SVG/1.1/DTD/svg11.dtd">
<svg xmlns="http://www.w3.org/2000/svg" xmlns:xlink="http://www.w3.org/1999/xlink" version="1.1" width="640" height="480" viewBox="0 0 640 480" xml:space="preserve">
<desc>Created with Fabric.js 3.6.6</desc>
<defs>
</defs>
<g transform="matrix(1 0 0 1 311 228)"  >
<rect style="stroke: none; stroke-width: 0; stroke-dasharray: none; stroke-linecap: butt; stroke-dashoffset: 0; stroke-linejoin: miter; stroke-miterlimit: 4; fill: rgb(255,255,255); fill-rule: nonzero; opacity: 1; visibility: hidden;"  x="-540" y="-540" rx="0" ry="0" width="1080" height="1080" />
</g>
<g transform="matrix(1 0 0 1 320 240)"  >
<rect style="stroke: none; stroke-width: 1; stroke-dasharray: none; stroke-linecap: butt; stroke-dashoffset: 0; stroke-linejoin: miter; stroke-miterlimit: 4; fill: rgb(255,255,255); fill-rule: nonzero; opacity: 1; visibility: hidden;"  x="-540" y="-540" rx="0" ry="0" width="1080" height="1080" />
</g>
<g transform="matrix(1.06 0 0 1.17 322 238.98)"  >
<path style="stroke: rgb(0,156,222); stroke-width: 0; stroke-dasharray: none; stroke-linecap: butt; stroke-dashoffset: 0; stroke-linejoin: miter; stroke-miterlimit: 4; fill: rgb(0,156,222); fill-rule: nonzero; opacity: 1;"  transform=" translate(-288, -256)" d="M 552 64 L 88 64 C 74.745 64 64 74.745 64 88 L 64 96 L 24 96 C 10.745 96 0 106.745 0 120 L 0 392 C 0 422.928 25.072 448 56 448 L 528 448 C 554.51 448 576 426.51 576 400 L 576 88 C 576 74.745 565.255 64 552 64 z M 56 400 C 51.581722001353654 400 48 396.4182779986464 48 392 L 48 144 L 64 144 L 64 392 C 64 396.4182779986464 60.418277998646346 400 56 400 z M 292 384 L 140 384 C 133.373 384 128 378.627 128 372 L 128 364 C 128 357.373 133.373 352 140 352 L 292 352 C 298.627 352 304 357.373 304 364 L 304 372 C 304 378.627 298.627 384 292 384 z M 500 384 L 348 384 C 341.373 384 336 378.627 336 372 L 336 364 C 336 357.373 341.373 352 348 352 L 500 352 C 506.627 352 512 357.373 512 364 L 512 372 C 512 378.627 506.627 384 500 384 z M 292 288 L 140 288 C 133.373 288 128 282.627 128 276 L 128 268 C 128 261.373 133.373 256 140 256 L 292 256 C 298.627 256 304 261.373 304 268 L 304 276 C 304 282.627 298.627 288 292 288 z M 500 288 L 348 288 C 341.373 288 336 282.627 336 276 L 336 268 C 336 261.373 341.373 256 348 256 L 500 256 C 506.627 256 512 261.373 512 268 L 512 276 C 512 282.627 506.627 288 500 288 z M 500 192 L 140 192 C 133.373 192 128 186.627 128 180 L 128 140 C 128 133.373 133.373 128 140 128 L 500 128 C 506.627 128 512 133.373 512 140 L 512 180 C 512 186.627 506.627 192 500 192 z" stroke-linecap="round" />
</g>
</svg>