<?xml version="1.0" encoding="UTF-8" standalone="no" ?>
<!DOCTYPE svg PUBLIC "-//W3C//DTD SVG 1.1//EN" "http://www.w3.org/Graphics/SVG/1.1/DTD/svg11.dtd">
<svg xmlns="http://www.w3.org/2000/svg" xmlns:xlink="http://www.w3.org/1999/xlink" version="1.1" width="525" height="460" viewBox="0 0 525 460" xml:space="preserve">
<desc>Created with Fabric.js 3.6.6</desc>
<defs>
</defs>
<rect x="0" y="0" width="100%" height="100%" fill="rgba(82, 116, 255, 0)"></rect>
<g transform="matrix(1 0 0 1 263 230)"  >
<g style=""   >
		<g transform="matrix(1 0 0 1 -490 -490)"  >
<rect style="stroke: none; stroke-width: 1; stroke-dasharray: none; stroke-linecap: butt; stroke-dashoffset: 0; stroke-linejoin: miter; stroke-miterlimit: 4; fill: rgb(255,255,255); fill-opacity: 0; fill-rule: nonzero; opacity: 1;"  x="-50" y="-50" rx="0" ry="0" width="100" height="100" />
</g>
		<g transform="matrix(1 0 0 1 0 0)" id="df4c41fa-6fda-4e3c-89c9-05920004d2a1"  >
<rect style="stroke: none; stroke-width: 1; stroke-dasharray: none; stroke-linecap: butt; stroke-dashoffset: 0; stroke-linejoin: miter; stroke-miterlimit: 4; fill: rgb(255,255,255); fill-rule: nonzero; opacity: 1; visibility: hidden;" vector-effect="non-scaling-stroke"  x="-540" y="-540" rx="0" ry="0" width="1080" height="1080" />
</g>
		<g transform="matrix(1 0 0 1 0 0)" id="146"  >
<path style="stroke: rgb(0,79,113); stroke-width: 0; stroke-dasharray: none; stroke-linecap: butt; stroke-dashoffset: 0; stroke-linejoin: miter; stroke-miterlimit: 4; fill: rgb(0,79,113); fill-rule: nonzero; opacity: 1;" vector-effect="non-scaling-stroke"  transform=" translate(-256, -256)" d="M 149.333 56 L 149.333 136 C 149.333 149.255 138.588 160 125.333 160 L 24 160 C 10.745 160 0 149.255 0 136 L 0 56 C 0 42.745 10.745 32 24 32 L 125.333 32 C 138.588 32 149.333 42.745 149.333 56 z M 330.66700000000003 296 L 330.66700000000003 216 C 330.66700000000003 202.745 319.922 192 306.66700000000003 192 L 205.333 192 C 192.078 192 181.333 202.745 181.333 216 L 181.333 296 C 181.333 309.255 192.078 320 205.333 320 L 306.666 320 C 319.922 320 330.667 309.255 330.667 296 z M 362.66700000000003 56 L 362.66700000000003 136 C 362.66700000000003 149.255 373.41200000000003 160 386.66700000000003 160 L 488 160 C 501.255 160 512 149.255 512 136 L 512 56 C 512 42.745 501.255 32 488 32 L 386.667 32 C 373.412 32 362.667 42.745 362.667 56 z M 330.66700000000003 136 L 330.66700000000003 56 C 330.66700000000003 42.745 319.922 32 306.66700000000003 32 L 205.333 32 C 192.078 32 181.333 42.745 181.333 56 L 181.333 136 C 181.333 149.255 192.078 160 205.333 160 L 306.666 160 C 319.922 160 330.667 149.255 330.667 136 z M 125.33300000000003 192 L 24 192 C 10.745 192 0 202.745 0 216 L 0 296 C 0 309.255 10.745 320 24 320 L 125.333 320 C 138.588 320 149.333 309.255 149.333 296 L 149.333 216 C 149.333 202.745 138.588 192 125.333 192 z M 0 376 L 0 456 C 0 469.255 10.745 480 24 480 L 125.333 480 C 138.588 480 149.333 469.255 149.333 456 L 149.333 376 C 149.333 362.745 138.588 352 125.333 352 L 24 352 C 10.745 352 0 362.745 0 376 z M 386.667 320 L 488 320 C 501.255 320 512 309.255 512 296 L 512 216 C 512 202.745 501.255 192 488 192 L 386.667 192 C 373.412 192 362.667 202.745 362.667 216 L 362.667 296 C 362.667 309.255 373.412 320 386.667 320 z M 386.667 480 L 488 480 C 501.255 480 512 469.255 512 456 L 512 376 C 512 362.745 501.255 352 488 352 L 386.667 352 C 373.412 352 362.667 362.745 362.667 376 L 362.667 456 C 362.667 469.255 373.412 480 386.667 480 z M 181.333 376 L 181.333 456 C 181.333 469.255 192.078 480 205.333 480 L 306.666 480 C 319.921 480 330.666 469.255 330.666 456 L 330.666 376 C 330.666 362.745 319.921 352 306.666 352 L 205.333 352 C 192.078 352 181.333 362.745 181.333 376 z" stroke-linecap="round" />
</g>
</g>
</g>
</svg>