<!-- Generated by IcoMoon.io -->
<svg version="1.1" xmlns="http://www.w3.org/2000/svg" width="32" height="32" viewBox="0 0 32 32">
<title>grid</title>
<path style="fill: #004f71;" d="M9.143 23.428v3.429c0 0.946-0.768 1.714-1.714 1.714h-5.714c-0.946 0-1.714-0.768-1.714-1.714v-3.429c0-0.946 0.768-1.714 1.714-1.714h5.714c0.946 0 1.714 0.768 1.714 1.714zM9.143 14.286v3.429c0 0.946-0.768 1.714-1.714 1.714h-5.714c-0.946 0-1.714-0.768-1.714-1.714v-3.429c0-0.946 0.768-1.714 1.714-1.714h5.714c0.946 0 1.714 0.768 1.714 1.714zM20.571 23.428v3.429c0 0.946-0.768 1.714-1.714 1.714h-5.714c-0.946 0-1.714-0.768-1.714-1.714v-3.429c0-0.946 0.768-1.714 1.714-1.714h5.714c0.946 0 1.714 0.768 1.714 1.714zM9.143 5.143v3.429c0 0.946-0.768 1.714-1.714 1.714h-5.714c-0.946 0-1.714-0.768-1.714-1.714v-3.429c0-0.946 0.768-1.714 1.714-1.714h5.714c0.946 0 1.714 0.768 1.714 1.714zM20.571 14.286v3.429c0 0.946-0.768 1.714-1.714 1.714h-5.714c-0.946 0-1.714-0.768-1.714-1.714v-3.429c0-0.946 0.768-1.714 1.714-1.714h5.714c0.946 0 1.714 0.768 1.714 1.714zM32 23.428v3.429c0 0.946-0.768 1.714-1.714 1.714h-5.714c-0.946 0-1.714-0.768-1.714-1.714v-3.429c0-0.946 0.768-1.714 1.714-1.714h5.714c0.946 0 1.714 0.768 1.714 1.714zM20.571 5.143v3.429c0 0.946-0.768 1.714-1.714 1.714h-5.714c-0.946 0-1.714-0.768-1.714-1.714v-3.429c0-0.946 0.768-1.714 1.714-1.714h5.714c0.946 0 1.714 0.768 1.714 1.714zM32 14.286v3.429c0 0.946-0.768 1.714-1.714 1.714h-5.714c-0.946 0-1.714-0.768-1.714-1.714v-3.429c0-0.946 0.768-1.714 1.714-1.714h5.714c0.946 0 1.714 0.768 1.714 1.714zM32 5.143v3.429c0 0.946-0.768 1.714-1.714 1.714h-5.714c-0.946 0-1.714-0.768-1.714-1.714v-3.429c0-0.946 0.768-1.714 1.714-1.714h5.714c0.946 0 1.714 0.768 1.714 1.714z"></path>
</svg>
