<?xml version="1.0" encoding="UTF-8" standalone="no" ?>
<!DOCTYPE svg PUBLIC "-//W3C//DTD SVG 1.1//EN" "http://www.w3.org/Graphics/SVG/1.1/DTD/svg11.dtd">
<svg xmlns="http://www.w3.org/2000/svg" xmlns:xlink="http://www.w3.org/1999/xlink" version="1.1" width="522" height="392" viewBox="0 0 522 392" xml:space="preserve">
<desc>Created with Fabric.js 3.6.6</desc>
<defs>
</defs>
<rect x="0" y="0" width="100%" height="100%" fill="rgba(82, 116, 255, 0)"></rect>
<g transform="matrix(1 0 0 1 261 196)"  >
<g style=""   >
		<g transform="matrix(1 0 0 1 -490 -490)"  >
<rect style="stroke: none; stroke-width: 1; stroke-dasharray: none; stroke-linecap: butt; stroke-dashoffset: 0; stroke-linejoin: miter; stroke-miterlimit: 4; fill: rgb(255,255,255); fill-opacity: 0; fill-rule: nonzero; opacity: 1;"  x="-50" y="-50" rx="0" ry="0" width="100" height="100" />
</g>
		<g transform="matrix(1 0 0 1 0 0)" id="df4c41fa-6fda-4e3c-89c9-05920004d2a1"  >
<rect style="stroke: none; stroke-width: 1; stroke-dasharray: none; stroke-linecap: butt; stroke-dashoffset: 0; stroke-linejoin: miter; stroke-miterlimit: 4; fill: rgb(255,255,255); fill-rule: nonzero; opacity: 1; visibility: hidden;" vector-effect="non-scaling-stroke"  x="-540" y="-540" rx="0" ry="0" width="1080" height="1080" />
</g>
		<g transform="matrix(1 0 0 1 0 0)" id="85"  >
<path style="stroke: rgb(0,79,113); stroke-width: 0; stroke-dasharray: none; stroke-linecap: butt; stroke-dashoffset: 0; stroke-linejoin: miter; stroke-miterlimit: 4; fill: rgb(0,79,113); fill-rule: nonzero; opacity: 1;" vector-effect="non-scaling-stroke"  transform=" translate(-256, -256)" d="M 488 64 L 480 64 L 480 84 C 480 90.6 474.6 96 468 96 L 428 96 C 421.4 96 416 90.6 416 84 L 416 64 L 96 64 L 96 84 C 96 90.6 90.6 96 84 96 L 44 96 C 37.4 96 32 90.6 32 84 L 32 64 L 24 64 C 10.7 64 0 74.7 0 88 L 0 424 C 0 437.3 10.7 448 24 448 L 32 448 L 32 428 C 32 421.4 37.4 416 44 416 L 84 416 C 90.6 416 96 421.4 96 428 L 96 448 L 416 448 L 416 428 C 416 421.4 421.4 416 428 416 L 468 416 C 474.6 416 480 421.4 480 428 L 480 448 L 488 448 C 501.3 448 512 437.3 512 424 L 512 88 C 512 74.7 501.3 64 488 64 z M 96 372 C 96 378.6 90.6 384 84 384 L 44 384 C 37.4 384 32 378.6 32 372 L 32 332 C 32 325.4 37.4 320 44 320 L 84 320 C 90.6 320 96 325.4 96 332 L 96 372 z M 96 276 C 96 282.6 90.6 288 84 288 L 44 288 C 37.4 288 32 282.6 32 276 L 32 236 C 32 229.4 37.4 224 44 224 L 84 224 C 90.6 224 96 229.4 96 236 L 96 276 z M 96 180 C 96 186.6 90.6 192 84 192 L 44 192 C 37.4 192 32 186.6 32 180 L 32 140 C 32 133.4 37.4 128 44 128 L 84 128 C 90.6 128 96 133.4 96 140 L 96 180 z M 368 388 C 368 394.6 362.6 400 356 400 L 156 400 C 149.4 400 144 394.6 144 388 L 144 292 C 144 285.4 149.4 280 156 280 L 356 280 C 362.6 280 368 285.4 368 292 L 368 388 z M 368 220 C 368 226.6 362.6 232 356 232 L 156 232 C 149.4 232 144 226.6 144 220 L 144 124 C 144 117.4 149.4 112 156 112 L 356 112 C 362.6 112 368 117.4 368 124 L 368 220 z M 480 372 C 480 378.6 474.6 384 468 384 L 428 384 C 421.4 384 416 378.6 416 372 L 416 332 C 416 325.4 421.4 320 428 320 L 468 320 C 474.6 320 480 325.4 480 332 L 480 372 z M 480 276 C 480 282.6 474.6 288 468 288 L 428 288 C 421.4 288 416 282.6 416 276 L 416 236 C 416 229.4 421.4 224 428 224 L 468 224 C 474.6 224 480 229.4 480 236 L 480 276 z M 480 180 C 480 186.6 474.6 192 468 192 L 428 192 C 421.4 192 416 186.6 416 180 L 416 140 C 416 133.4 421.4 128 428 128 L 468 128 C 474.6 128 480 133.4 480 140 L 480 180 z" stroke-linecap="round" />
</g>
</g>
</g>
</svg>