<?xml version="1.0" encoding="UTF-8" standalone="no" ?>
<!DOCTYPE svg PUBLIC "-//W3C//DTD SVG 1.1//EN" "http://www.w3.org/Graphics/SVG/1.1/DTD/svg11.dtd">
<svg xmlns="http://www.w3.org/2000/svg" xmlns:xlink="http://www.w3.org/1999/xlink" version="1.1" width="650" height="520" viewBox="0 0 650 520" xml:space="preserve">
<desc>Created with Fabric.js 3.6.6</desc>
<defs>
</defs>
<rect x="0" y="0" width="100%" height="100%" fill="rgba(82, 116, 255, 0)"></rect>
<g transform="matrix(1 0 0 1 325 259)"  >
<g style=""   >
		<g transform="matrix(1 0 0 1 -490 -490)"  >
<rect style="stroke: none; stroke-width: 1; stroke-dasharray: none; stroke-linecap: butt; stroke-dashoffset: 0; stroke-linejoin: miter; stroke-miterlimit: 4; fill: rgb(255,255,255); fill-opacity: 0; fill-rule: nonzero; opacity: 1;"  x="-50" y="-50" rx="0" ry="0" width="100" height="100" />
</g>
		<g transform="matrix(1 0 0 1 0 0)" id="df4c41fa-6fda-4e3c-89c9-05920004d2a1"  >
<rect style="stroke: none; stroke-width: 1; stroke-dasharray: none; stroke-linecap: butt; stroke-dashoffset: 0; stroke-linejoin: miter; stroke-miterlimit: 4; fill: rgb(255,255,255); fill-rule: nonzero; opacity: 1; visibility: hidden;" vector-effect="non-scaling-stroke"  x="-540" y="-540" rx="0" ry="0" width="1080" height="1080" />
</g>
		<g transform="matrix(1 0 0 1 0 0)" id="406"  >
<path style="stroke: rgb(0,156,222); stroke-width: 0; stroke-dasharray: none; stroke-linecap: butt; stroke-dashoffset: 0; stroke-linejoin: miter; stroke-miterlimit: 4; fill: rgb(0,156,222); fill-rule: nonzero; opacity: 1;" vector-effect="non-scaling-stroke"  transform=" translate(-319.96, -255.25)" d="M 512.1 191 L 503.90000000000003 205.3 C 500.90000000000003 210.60000000000002 494.50000000000006 212.8 488.8 210.70000000000002 C 477 206.3 466.2 200.00000000000003 456.7 192.10000000000002 C 452.09999999999997 188.3 450.9 181.60000000000002 453.9 176.40000000000003 L 462.09999999999997 162.10000000000002 C 455.2 154.10000000000002 449.79999999999995 144.8 446.2 134.70000000000002 L 429.7 134.70000000000002 C 423.7 134.70000000000002 418.5 130.4 417.5 124.40000000000002 C 415.5 112.40000000000002 415.4 99.80000000000001 417.5 87.30000000000001 C 418.5 81.30000000000001 423.7 76.9 429.7 76.9 L 446.2 76.9 C 449.8 66.80000000000001 455.2 57.50000000000001 462.09999999999997 49.50000000000001 L 453.9 35.2 C 450.9 30.000000000000004 452 23.300000000000004 456.7 19.500000000000004 C 466.2 11.600000000000003 477.09999999999997 5.300000000000004 488.8 0.9000000000000021 C 494.5 -1.199999999999998 500.90000000000003 1.0000000000000022 503.90000000000003 6.3000000000000025 L 512.1 20.6 C 522.6 18.700000000000003 533.3000000000001 18.700000000000003 543.8000000000001 20.6 L 552 6.3 C 555 1 561.4 -1.2000000000000002 567.1 0.8999999999999995 C 578.9 5.3 589.7 11.599999999999998 599.2 19.5 C 603.8000000000001 23.3 605 30 602 35.2 L 593.8 49.5 C 600.6999999999999 57.5 606.0999999999999 66.8 609.6999999999999 76.9 L 626.1999999999999 76.9 C 632.1999999999999 76.9 637.4 81.2 638.4 87.2 C 640.4 99.2 640.5 111.80000000000001 638.4 124.30000000000001 C 637.4 130.3 632.1999999999999 134.70000000000002 626.1999999999999 134.70000000000002 L 609.6999999999999 134.70000000000002 C 606.0999999999999 144.8 600.6999999999999 154.10000000000002 593.8 162.10000000000002 L 602 176.40000000000003 C 605 181.60000000000002 603.9 188.30000000000004 599.2 192.10000000000002 C 589.7 200.00000000000003 578.8000000000001 206.3 567.1 210.70000000000002 C 561.4 212.8 555 210.60000000000002 552 205.3 L 543.8 191 C 533.4 192.9 522.5999999999999 192.9 512.0999999999999 191 z M 501.6 132.2 C 540.1 161.79999999999998 584 117.89999999999999 554.4 79.39999999999999 C 515.9 49.69999999999999 472 93.69999999999999 501.59999999999997 132.2 z M 386.3 286.1 L 420 302.90000000000003 C 430.1 308.70000000000005 434.5 321.00000000000006 430.5 332.00000000000006 C 421.6 356.20000000000005 404.1 378.40000000000003 387.9 397.80000000000007 C 380.5 406.70000000000005 367.7 408.9000000000001 357.59999999999997 403.1000000000001 L 328.49999999999994 386.30000000000007 C 312.49999999999994 400.00000000000006 293.8999999999999 410.9000000000001 273.59999999999997 418.00000000000006 L 273.59999999999997 451.6000000000001 C 273.59999999999997 463.2000000000001 265.29999999999995 473.2000000000001 253.89999999999998 475.2000000000001 C 229.29999999999998 479.4000000000001 203.49999999999997 479.6000000000001 177.99999999999997 475.2000000000001 C 166.49999999999997 473.2000000000001 157.99999999999997 463.3000000000001 157.99999999999997 451.6000000000001 L 157.99999999999997 418 C 137.69999999999996 410.8 119.09999999999997 400 103.09999999999997 386.3 L 74 403 C 64 408.8 51.1 406.6 43.7 397.7 C 27.500000000000004 378.3 10.400000000000006 356.09999999999997 1.5 332 C -2.5 321.1 1.9 308.8 12 302.9 L 45.3 286.09999999999997 C 41.4 265.2 41.4 243.69999999999996 45.3 222.69999999999996 L 12 205.8 C 1.9000000000000004 200 -2.5999999999999996 187.70000000000002 1.5 176.8 C 10.4 152.60000000000002 27.5 130.4 43.7 111.00000000000001 C 51.1 102.10000000000001 63.900000000000006 99.90000000000002 74 105.70000000000002 L 103.1 122.50000000000001 C 119.1 108.80000000000001 137.7 97.9 158 90.80000000000001 L 158 57.1 C 158 45.6 166.2 35.6 177.6 33.6 C 202.2 29.400000000000002 228.1 29.200000000000003 253.6 33.5 C 265.1 35.5 273.6 45.4 273.6 57.1 L 273.6 90.7 C 293.90000000000003 97.9 312.5 108.7 328.5 122.4 L 357.6 105.60000000000001 C 367.6 99.80000000000001 380.5 102.00000000000001 387.90000000000003 110.9 C 404.1 130.3 421.1 152.5 430.00000000000006 176.7 C 434.00000000000006 187.6 430.1000000000001 199.89999999999998 420.00000000000006 205.79999999999998 L 386.30000000000007 222.6 C 390.20000000000005 243.6 390.20000000000005 265.1 386.30000000000007 286.1 z M 268.70000000000005 307.20000000000005 C 327.90000000000003 230.20000000000005 240.00000000000006 142.30000000000004 163.00000000000006 201.50000000000006 C 103.80000000000005 278.50000000000006 191.70000000000005 366.4000000000001 268.70000000000005 307.20000000000005 z M 512.1 489.90000000000003 L 503.90000000000003 504.20000000000005 C 500.90000000000003 509.50000000000006 494.50000000000006 511.70000000000005 488.8 509.6 C 477 505.20000000000005 466.2 498.90000000000003 456.7 491 C 452.09999999999997 487.2 450.9 480.5 453.9 475.3 L 462.09999999999997 461 C 455.2 453 449.79999999999995 443.7 446.2 433.6 L 429.7 433.6 C 423.7 433.6 418.5 429.3 417.5 423.3 C 415.5 411.3 415.4 398.7 417.5 386.2 C 418.5 380.2 423.7 375.8 429.7 375.8 L 446.2 375.8 C 449.8 365.7 455.2 356.40000000000003 462.09999999999997 348.40000000000003 L 453.9 334.1 C 450.9 328.90000000000003 452 322.20000000000005 456.7 318.40000000000003 C 466.2 310.50000000000006 477.09999999999997 304.20000000000005 488.8 299.8 C 494.5 297.7 500.90000000000003 299.90000000000003 503.90000000000003 305.2 L 512.1 319.5 C 522.6 317.6 533.3000000000001 317.6 543.8000000000001 319.5 L 552.0000000000001 305.2 C 555.0000000000001 299.9 561.4000000000001 297.7 567.1000000000001 299.8 C 578.9000000000001 304.2 589.7000000000002 310.5 599.2000000000002 318.40000000000003 C 603.8000000000002 322.20000000000005 605.0000000000001 328.90000000000003 602.0000000000001 334.1 L 593.8000000000001 348.40000000000003 C 600.7 356.40000000000003 606.1 365.70000000000005 609.7 375.8 L 626.2 375.8 C 632.2 375.8 637.4000000000001 380.1 638.4000000000001 386.1 C 640.4000000000001 398.1 640.5000000000001 410.70000000000005 638.4000000000001 423.20000000000005 C 637.4000000000001 429.20000000000005 632.2 433.6 626.2 433.6 L 609.7 433.6 C 606.1 443.70000000000005 600.7 453 593.8000000000001 461 L 602.0000000000001 475.3 C 605.0000000000001 480.5 603.9000000000001 487.2 599.2000000000002 491 C 589.7000000000002 498.9 578.8000000000002 505.2 567.1000000000001 509.6 C 561.4000000000001 511.70000000000005 555.0000000000001 509.5 552.0000000000001 504.20000000000005 L 543.8000000000001 489.90000000000003 C 533.4000000000001 491.8 522.6 491.8 512.1 489.90000000000003 z M 501.6 431 C 540.1 460.6 584 416.7 554.4 378.2 C 515.9 348.59999999999997 472 392.5 501.59999999999997 431 z" stroke-linecap="round" />
</g>
</g>
</g>
</svg>