<?xml version="1.0" encoding="UTF-8"?>
<svg width="24px" height="24px" viewBox="0 0 24 24" version="1.1" xmlns="http://www.w3.org/2000/svg" xmlns:xlink="http://www.w3.org/1999/xlink">
    <!-- Generator: sketchtool 58 (101010) - https://sketch.com -->
    <title>99CF696A-5F07-4AEB-928C-F77A4EBA8160</title>
    <desc>Created with sketchtool.</desc>
    <g id="Atoms" stroke="none" stroke-width="1" fill="none" fill-rule="evenodd">
        <g id="Icons" transform="translate(-378.000000, -1844.000000)">
            <g id="Social-Media" transform="translate(120.000000, 1772.000000)">
                <g id="Icons-/-Social-/-White-/-Twitter" transform="translate(254.000000, 68.000000)">
                    <g id="Icons-/-Social-/-Twitter">
                        <rect id="Rectangle" x="0" y="0" width="32" height="32"></rect>
                    </g>
                    <circle id="Oval" fill="#000" cx="16" cy="16" r="12"></circle>
                    <g id="streamline-icon-social-media-twitter@16x16" transform="translate(9.000000, 10.000000)" stroke="#fff" stroke-linecap="round" stroke-linejoin="round">
                        <path d="M14.9,2.43333333 L13.5,1.83333333 L14.2333333,0.233333333 L12.5266667,0.8 C11.9833333,0.293333333 11.27,0.008 10.5266667,-8.8817842e-16 C8.87133333,0.00333333333 7.53,1.34466667 7.52666667,3 L7.52666667,3.66666667 C5.16666667,4.15333333 3.10666667,2.86666667 1.19333333,0.666666667 C0.86,2.44466667 1.19333333,3.778 2.19333333,4.66666667 L7.28306304e-13,4.33333333 C0.174666667,5.79066667 1.368,6.914 2.83333333,7 L1,7.66666667 C1.66666667,9 2.88,9.20666667 4.5,9.33333333 C3.176,10.2366667 1.60266667,10.7026667 7.28306304e-13,10.6666667 C8.50666667,14.4466667 13.5,8.89333333 13.5,4 L13.5,3.44666667 L14.9,2.43333333 Z" id="Path"></path>
                    </g>
                </g>
            </g>
        </g>
    </g>
</svg>