<?xml version="1.0" encoding="UTF-8"?>
<svg width="119px" height="31px" viewBox="0 0 119 31" version="1.1" xmlns="http://www.w3.org/2000/svg" xmlns:xlink="http://www.w3.org/1999/xlink">
    <!-- Generator: sketchtool 58 (101010) - https://sketch.com -->
    <title>09841EC7-55C1-458F-9193-F6038E1C3C10</title>
    <desc>Created with sketchtool.</desc>
    <g id="Organisms" stroke="none" stroke-width="1" fill="none" fill-rule="evenodd">
        <g id="Footers" transform="translate(-154.000000, -1241.000000)" fill="#FFFFFF" fill-rule="nonzero">
            <g id="Footer-/-Tablet-/-Default" transform="translate(114.000000, 1017.000000)">
                <g id="Footer-/-Mobile-/-Opened" transform="translate(0.000000, -1.000000)">
                    <g id="Group" transform="translate(40.000000, 200.000000)">
                        <g id="Logo-/-Abbot-/-White-Logo-/-Abbott-/-White" transform="translate(0.000000, 25.000000)">
                            <g id="Logo-/-Abbott-/-White">
                                <path d="M32.1494215,0.0142880658 L0.0101464629,0.0142880658 L0.0101464629,5.04068555 L30.5449826,5.04068555 L30.5449826,5.04512806 C31.4289046,5.04512806 32.1346738,5.76649528 32.1346738,6.66208086 L32.1346738,23.5408492 L32.1307803,23.5551372 C32.1253532,24.4467606 31.4125052,25.1633251 30.5380217,25.1633251 L6.54175495,25.1633251 C5.66326005,25.1633251 4.94427697,24.4409974 4.94427697,23.5407291 L4.94427697,16.7219598 C4.94427697,15.8263742 5.66326005,15.0993638 6.54175495,15.0993638 L27.1866214,15.0993638 L27.1866214,10.0796902 L4.9348384,10.0796902 C2.21499644,10.0796902 0.0101464629,12.3194346 0.0101464629,15.085436 L0.0101464629,25.1774931 C0.0101464629,27.9454157 2.21499644,30.1884019 4.9348384,30.1884019 L32.1494215,30.1884019 C34.8716231,30.1884019 37.0732876,27.9454157 37.0732876,25.1774931 L37.0732876,5.02675768 C37.0732876,2.25919535 34.8716231,0.0142880658 32.1494215,0.0142880658" id="Shape"></path>
                                <g id="Shape" transform="translate(44.479261, 7.083999)">
                                    <path d="M5.9704855,8.59265069 L9.31303713,8.59265069 L7.65727596,3.54428081 L7.61138092,3.54428081 L5.9704855,8.59265069 Z M10.8393719,0.0559515855 L14.6897186,11.7768482 C15.1466633,13.2068555 15.4701703,13.5377622 16.2725668,13.5377622 L17.0553782,13.5377622 L17.0553782,15.6011271 L8.64808986,15.6011271 L8.64808986,13.5377622 L9.33757741,13.5377622 C10.0287167,13.5377622 10.6035256,13.4443496 10.6035256,13.1894457 C10.6035256,12.9485897 10.5805191,12.6910443 10.4880211,12.3385253 L10.0073619,10.6543345 L5.30718998,10.6543345 L5.02627455,11.5926642 C4.77485463,12.4110462 4.68153077,12.7585223 4.68153077,13.0877482 C4.68153077,13.4660818 5.49053422,13.5377622 6.1170193,13.5377622 L6.77948895,13.5377622 L6.77948895,15.6011271 L0.0067249812,15.6011271 L0.0067249812,13.5377622 L0.791188139,13.5377622 C1.59771395,13.5377622 1.91473193,13.2068555 2.3822951,11.7768482 L6.22933829,0.0559515855 L10.8393719,0.0559515855 Z"></path>
                                    <path d="M22.2199278,10.1101874 C22.2199278,12.5060199 22.7481337,13.9336258 24.0369705,13.9336258 C25.334066,13.9336258 25.8581426,12.5060199 25.8581426,10.1101874 C25.8581426,7.7209586 25.334066,6.29179182 24.0369705,6.29179182 C22.7481337,6.29179182 22.2199278,7.7209586 22.2199278,10.1101874 L22.2199278,10.1101874 Z M18.3917617,2.94094021 C18.3917617,2.27852627 18.231188,1.93093004 17.5630553,1.93093004 L16.5042837,1.93093004 L16.5042837,0.0559515855 L22.2199278,0.0559515855 L22.2199278,5.89100557 C23.0706969,4.9059695 24.1557786,4.27345244 25.1874143,4.27345244 C28.6447625,4.27345244 29.9327734,7.02180393 29.9327734,10.1101874 C29.9327734,13.2068555 28.6447625,15.9486033 25.1874143,15.9486033 C23.73647,15.9486033 22.4450377,15.4336326 21.6416974,14.1436243 L20.9760422,15.6028081 L18.3917617,15.6028081 L18.3917617,2.94094021 Z"></path>
                                    <path d="M35.1441618,10.1101874 C35.1441618,12.5060199 35.6788569,13.9336258 36.9660419,13.9336258 C38.2574742,13.9336258 38.7847363,12.5060199 38.7847363,10.1101874 C38.7847363,7.7209586 38.2573562,6.29179182 36.9660419,6.29179182 C35.6788569,6.29179182 35.1441618,7.7209586 35.1441618,10.1101874 L35.1441618,10.1101874 Z M31.3175296,2.94094021 C31.3175296,2.27852627 31.1553042,1.93093004 30.4937784,1.93093004 L29.4317032,1.93093004 L29.4317032,0.0559515855 L35.1441618,0.0559515855 L35.1441618,5.89100557 C35.9990604,4.9059695 37.0800126,4.27345244 38.1166036,4.27345244 C41.5738338,4.27345244 42.8652661,7.02180393 42.8652661,10.1101874 C42.8652661,13.2068555 41.5738338,15.9486033 38.1166036,15.9486033 C36.6655414,15.9486033 35.3742269,15.4336326 34.5692349,14.1436243 L33.8986245,15.6028081 L31.3175296,15.6028081 L31.3175296,2.94094021 L31.3175296,2.94094021 Z"></path>
                                    <path d="M48.0485749,10.1110278 C48.0485749,12.8769092 48.5317117,14.0735047 49.9148162,14.0735047 C51.2954431,14.0735047 51.777754,12.8769092 51.777754,10.1110278 C51.777754,7.34514645 51.2954431,6.15011184 49.9148162,6.15011184 C48.5317117,6.15011184 48.0485749,7.34514645 48.0485749,10.1110278 M55.8589917,10.1110278 C55.8589917,13.8643467 53.3458544,15.9486033 49.9148162,15.9486033 C46.4763451,15.9486033 43.9691069,13.8643467 43.9691069,10.1110278 C43.9691069,6.36011038 46.476463,4.27345244 49.9148162,4.27345244 C53.3458544,4.27345244 55.8589917,6.36011038 55.8589917,10.1110278"></path>
                                    <path d="M72.2861151,10.3009751 L72.2861151,12.1293672 C72.2861151,13.2068555 72.0575837,13.8444154 71.1814484,13.8444154 C70.6524165,13.8444154 70.4009966,13.4427887 70.4009966,12.9485897 L70.4009966,6.50191044 L73.2293821,6.50191044 L73.2293821,4.62525102 L70.4011146,4.62525102 L70.4011146,0.270032437 L68.1158008,0.270032437 C67.9290351,2.21260905 67.3321636,4.62513096 65.0286805,4.62513096 L61.4355349,4.62513096 L61.4355349,0.270032437 L59.1565921,0.270032437 C58.9706522,2.21260905 58.3704772,4.62513096 56.0694718,4.62513096 L56.0694718,6.50179036 L57.612206,6.50179036 L57.612206,12.3859521 C57.612206,14.7784226 58.9248752,15.9484832 61.2938383,15.9484832 C64.0648845,15.9484832 65.163888,14.6859704 65.163888,12.3859521 L65.163888,10.300855 L63.3269064,10.300855 L63.3269064,12.1292471 C63.3269064,13.2067354 63.0943636,13.8442953 62.2215318,13.8442953 C61.6868368,13.8442953 61.4354169,13.4426686 61.4354169,12.9484696 L61.4354169,6.50179036 L66.5794375,6.50179036 L66.5794375,12.3859521 C66.5794375,14.7784226 67.8863256,15.9484832 70.260244,15.9484832 C73.0238573,15.9484832 74.1326534,14.6859704 74.1326534,12.3859521 L74.1326534,10.300855 L72.2861151,10.300855 L72.2861151,10.3009751 Z" id="Path"></path>
                                </g>
                            </g>
                        </g>
                    </g>
                </g>
            </g>
        </g>
    </g>
</svg>