<?xml version="1.0" standalone="no"?>
<!DOCTYPE svg PUBLIC "-//W3C//DTD SVG 1.1//EN" "http://www.w3.org/Graphics/SVG/1.1/DTD/svg11.dtd" >
<svg xmlns="http://www.w3.org/2000/svg">
<metadata>
This is a custom SVG webfont generated by Font Squirrel.
Copyright   :  copyright by Fontbit
</metadata>
<defs>
<font id="ExtazaBlack" horiz-adv-x="1013" >
<font-face units-per-em="2048" ascent="1505" descent="-543" />
<missing-glyph horiz-adv-x="435" />
<glyph unicode=" "  horiz-adv-x="435" />
<glyph unicode="&#x09;" horiz-adv-x="435" />
<glyph unicode="&#xa0;" horiz-adv-x="435" />
<glyph unicode="!" horiz-adv-x="526" d="M52 1235v5q0 66 61 66h258q59 0 59 -59v-10l-66 -771q-4 -50 -48 -50h-148q-44 0 -48 48zM81 142q0 75 48.5 121.5t118.5 46.5q74 0 121 -44.5t47 -119.5q0 -79 -48 -125t-119 -46t-119.5 45t-48.5 122z" />
<glyph unicode="&#x22;" horiz-adv-x="731" d="M40 971l98 445q7 28 24 28q4 0 9 -1l185 -50q27 -7 27 -33q0 -17 -11 -42l-184 -395q-13 -28 -33 -28q-3 0 -7 1l-86 21q-24 6 -24 34q0 9 2 20zM384 971l98 445q7 28 26 28q4 0 9 -1l184 -50q27 -7 27 -34q0 -16 -11 -41l-184 -395q-12 -28 -33 -28q-4 0 -8 1l-85 21 q-25 6 -25 35q0 8 2 19z" />
<glyph unicode="#" horiz-adv-x="1167" d="M38 215l26 164h186l90 424h-187l26 162h193l45 235h197l-45 -235h188l41 235h195l-39 -235h175l-29 -162h-176l-87 -424h180l-26 -164h-181l-39 -215h-196l39 215h-199l-39 -215h-197l39 215h-180zM446 379h192l89 424h-190z" />
<glyph unicode="$" horiz-adv-x="1037" d="M60 865q0 153 108 244q95 77 244 89v79q0 41 37 41h95q25 0 25 -41v-81q68 0 166.5 -31t156.5 -72q21 -14 21 -35q0 -13 -9 -30l-62 -119q-15 -26 -35 -26q-13 0 -27 9q-105 65 -211 77v-239q228 -87 313 -185q74 -87 74 -226q0 -145 -129 -230q-111 -73 -258 -75v-87 q0 -37 -25 -37h-106q-26 0 -26 35v85q-250 40 -329 108q-19 15 -19 36q0 14 9 30l61 114q15 33 32 33q10 0 26 -10q98 -62 220 -75v259q-168 60 -246 130q-106 93 -106 230zM314 896q0 -70 95 -107v192q-95 0 -95 -85zM569 244q60 5 82 23.5t22 73.5q0 52 -36 81l-68 36 v-214z" />
<glyph unicode="%" horiz-adv-x="1650" d="M101 906q0 131 86 221t241 90q153 0 242 -95q79 -85 79 -213q0 -122 -87 -220q-97 -105 -234 -105q-143 0 -235 87t-92 235zM330 83q0 10 11 27l782 1111q18 25 38 25q12 0 25 -9l126 -90q23 -15 23 -34q0 -13 -11 -28l-793 -1116q-15 -21 -31 -21q-11 0 -22 9l-124 92 q-24 18 -24 34zM332 898q0 -134 88 -134q89 0 89 134t-87 134q-90 0 -90 -134zM900 292q0 130 86 220t241 90q153 0 242 -95q79 -85 79 -213q0 -122 -87 -219q-97 -106 -234 -106q-143 0 -235 87.5t-92 235.5zM1131 284q0 -134 87 -134q90 0 90 134t-88 134q-89 0 -89 -134z " />
<glyph unicode="&#x26;" horiz-adv-x="1445" d="M70 27l53 930q4 57 48 71q174 55 360 55q224 0 332 -75q116 -83 124 -270l16 -369q2 -55 -47 -57l-129 -6h-3q-44 0 -48 55l-21 345q-4 81 -55.5 114t-162.5 33q-63 0 -165 -17l-52 -813q-4 -54 -50 -54h-3l-148 4q-51 2 -49 54zM440 685v7q0 50 54 54l114 8h7 q47 0 51 -54l37 -485q63 -18 180 -18q110 0 155.5 39.5t51.5 132.5l43 651q4 59 49 59h3l151 -9q46 -2 46 -47v-7l-45 -681q-24 -366 -456 -366q-240 0 -352 54q-45 20 -49 85z" />
<glyph unicode="'" horiz-adv-x="378" d="M40 971l98 445q7 28 24 28q4 0 9 -1l185 -50q27 -7 27 -33q0 -17 -11 -42l-184 -395q-13 -28 -33 -28q-3 0 -7 1l-86 21q-24 6 -24 34q0 9 2 20z" />
<glyph unicode="(" horiz-adv-x="613" d="M80 586q0 405 254 764q19 29 40 29q6 0 18 -4l166 -77q15 -6 15 -23q0 -20 -15 -35q-91 -143 -143 -340q-47 -174 -47 -314q0 -150 53.5 -331.5t142.5 -335.5q9 -14 9 -27q0 -14 -15 -24q-76 -30 -164 -71q-12 -8 -22 -8q-14 0 -30 25q-262 401 -262 772z" />
<glyph unicode=")" horiz-adv-x="609" d="M36 -105q0 12 8 24h2q195 338 195 667q0 140 -47 314q-53 197 -144 340q-14 15 -14 35q0 17 14 23l168 77q13 4 19 4q19 0 40 -29q109 -156 178 -359q74 -215 74 -405q0 -375 -260 -772q-17 -25 -30 -25q-10 0 -23 8q-68 27 -165 71q-15 8 -15 27z" />
<glyph unicode="*" horiz-adv-x="895" d="M66 1074v75q0 37 74 37q40 0 110 -12q88 -17 93 -17l-128 92q-90 69 -90 105q0 10 11 21q66 66 87 66q14 0 27 -17l155 -195q0 9 -18 97q-17 75 -17 115q0 64 35 64l75 2q39 0 39 -85q0 -41 -11 -112q-10 -79 -10 -91l152 205q14 17 28 17q17 0 52 -30q27 -26 38 -45 q4 -6 4 -16q0 -36 -83 -101l-122 -90q6 0 89 15q70 12 108 12q69 0 69 -37v-75q0 -42 -39 -42h-6l-223 34l190 -149q17 -13 17 -31q0 -21 -67 -87q-10 -10 -22 -10q-35 0 -98 89l-87 126l25 -230q0 -36 -43 -36h-77q-33 0 -33 57q0 37 16.5 111.5t16.5 89.5l-89 -120 q-69 -87 -104 -87q-14 0 -20 10q-69 60 -69 89q0 16 17 29l205 149l-230 -34h-8q-39 0 -39 42z" />
<glyph unicode="+" horiz-adv-x="814" d="M40 515v164q0 25 24 25h239v233q13 24 25 24h162q24 0 24 -24v-233l235 -2q24 0 24 -23v-164q0 -24 -24 -24h-235v-240q0 -24 -24 -24h-162v2q-25 0 -25 22v240h-239q-24 0 -24 24z" />
<glyph unicode="," horiz-adv-x="451" d="M8 -132l98 444q7 30 26 30q4 0 8 -1l185 -51q27 -7 27 -34q0 -16 -11 -41l-185 -395q-12 -28 -32 -28q-4 0 -8 1l-85 21q-25 6 -25 35q0 8 2 19z" />
<glyph unicode="-" horiz-adv-x="814" d="M60 515v164q0 23 25 23h645q23 0 23 -23v-164q0 -24 -23 -24h-645q-25 0 -25 24z" />
<glyph unicode="." horiz-adv-x="480" d="M28 142q0 75 48.5 121.5t117.5 46.5q75 0 121.5 -44.5t46.5 -119.5q0 -79 -47.5 -125t-118.5 -46t-119.5 45t-48.5 122z" />
<glyph unicode="/" horiz-adv-x="855" d="M38 16q0 7 8 25l495 1129q13 30 42 30h201q32 0 32 -22q0 -6 -6 -21l-494 -1128q-13 -29 -45 -29h-201q-32 0 -32 16z" />
<glyph unicode="0" horiz-adv-x="1114" d="M74 604q0 255 105 426q129 205 377 205q250 0 378 -207q106 -171 106 -424h1q0 -281 -117 -452q-130 -189 -368 -189q-230 0 -360 183q-122 170 -122 458zM423 604q0 -209 28.5 -287.5t106.5 -78.5t107.5 80.5t29.5 285.5q0 203 -30.5 278t-108.5 75q-103 0 -127 -134 q-6 -38 -6 -219z" />
<glyph unicode="1" horiz-adv-x="1114" d="M80 909q0 28 27 37q157 66 332 254h268q16 0 33 -16t17 -41v-890h146q49 0 49 -52v-149q0 -52 -46 -52h-688q-51 0 -51 52v141q0 60 51 60h195v604q-69 -79 -180 -137q-15 -8 -37 -4q-25 6 -31 18q-34 71 -77 150q-8 10 -8 25z" />
<glyph unicode="2" horiz-adv-x="1114" d="M97 52v60q0 312 379 527q97 56 130 98.5t33 109.5q0 124 -112 124q-43 0 -71 -32.5t-28 -66.5q0 -49 -49 -49h-233q-41 0 -41 51v8q37 355 434 355q201 0 320.5 -100t119.5 -278q0 -166 -95 -271q-59 -65 -255 -186q-118 -73 -161 -149h517q43 0 43 -46v-153 q0 -54 -45 -54h-841q-45 0 -45 52z" />
<glyph unicode="3" horiz-adv-x="1114" d="M107 110l44 143q7 23 39 23q15 0 29 -7q110 -48 239 -48q213 0 213 135q0 76 -73 112q-51 25 -118 25h-145q-45 0 -45 47v155q0 46 53 46h129q184 0 184 114q0 116 -170 116q-134 0 -240 -69q-17 -10 -33 -10q-35 0 -41 23l-48 155q-8 27 -8 29q0 25 28 42q150 96 387 96 q225 0 338 -105q96 -88 96 -223q0 -197 -164 -263q95 -40 153 -116q64 -84 64 -182q0 -160 -142 -269.5t-365 -109.5q-252 0 -383 70q-26 12 -26 42q0 13 5 29z" />
<glyph unicode="4" horiz-adv-x="1114" d="M82 267v254l402 628q32 51 66 51h258q33 0 33 -32q0 -19 -8 -30l-414 -643h228v207q0 36 33 36h236q38 0 38 -43v-208h73q36 0 36 -35v-185q0 -33 -36 -33h-73v-185q0 -49 -42 -49h-218q-47 0 -47 49v185h-528q-37 0 -37 33z" />
<glyph unicode="5" horiz-adv-x="1114" d="M95 87l54 180q5 13 27 17q23 2 33 -4q101 -61 259 -61q229 0 229 154t-168 154q-77 0 -128 -38q-30 -23 -45 -21l-220 37q-33 6 -26 40l97 612q6 43 50 43h637q41 0 41 -45v-164q0 -45 -45 -45h-393l-37 -198q51 20 144 20q174 0 292 -91q134 -105 134 -292 q0 -418 -539 -418q-114 0 -226 23q-119 24 -168 60q-6 4 -6 15q0 9 4 22z" />
<glyph unicode="6" horiz-adv-x="1114" d="M87 505q0 732 513 732q73 0 168 -16q122 -21 157 -53q10 -11 10 -25l-6 -24l-62 -160q-12 -32 -35 -32q-15 0 -37 10q-83 38 -151 38q-119 0 -170 -53q-45 -46 -45 -149q0 -12 1 -25q93 49 197 49q184 0 296 -114q105 -107 105 -277q0 -199 -125 -318t-348 -119 q-210 0 -334 134q-134 143 -134 402zM412 387q0 -168 141 -168q82 0 115.5 36.5t33.5 133.5q0 168 -143 168q-79 0 -113 -38.5t-34 -131.5z" />
<glyph unicode="7" horiz-adv-x="1114" d="M72 991v168q0 41 43 41h886q60 0 60 -61q0 -89 -14 -111q-371 -586 -454 -983q-10 -45 -58 -45h-266q-38 0 -38 33q0 9 2 19q109 453 443 894h-565q-39 0 -39 45z" />
<glyph unicode="8" horiz-adv-x="1114" d="M74 314q0 237 223 332q-93 21 -144 114q-40 74 -40 159q0 143 119.5 237.5t325.5 94.5q191 0 303.5 -87.5t112.5 -236.5q0 -211 -184 -275q156 -62 213 -159q37 -65 37 -174q0 -163 -132 -267q-136 -108 -354 -108t-349 107t-131 263zM388 350q0 -162 170 -162 q161 0 161 145q0 93 -37.5 137.5t-133.5 44.5q-160 0 -160 -165zM421 886q0 -140 125 -140h10q56 0 90 49q28 39 28 89q0 140 -128 140q-125 0 -125 -138z" />
<glyph unicode="9" horiz-adv-x="1114" d="M85 801q0 199 125 317.5t347 118.5q209 0 335 -138q134 -148 134 -408q0 -381 -175 -567q-143 -155 -369 -155q-72 0 -172 17q-128 20 -162 53q-10 10 -10 23l6 25l61 161q12 32 37 32q13 0 36 -11q83 -38 150 -38q255 0 255 217v10q-93 -48 -196 -48q-185 0 -297 113 q-105 108 -105 278zM412 817q0 -169 141 -169q80 0 114.5 39t34.5 132q0 168 -143 168q-81 0 -114 -36t-33 -134z" />
<glyph unicode=":" horiz-adv-x="480" d="M28 142q0 75 48.5 121.5t117.5 46.5q75 0 121.5 -44.5t46.5 -119.5q0 -79 -47.5 -125t-118.5 -46t-119.5 45t-48.5 122zM28 847q0 76 48.5 122.5t117.5 46.5q75 0 121.5 -45.5t46.5 -121.5q0 -77 -47.5 -122.5t-118.5 -45.5t-119.5 44.5t-48.5 121.5z" />
<glyph unicode=";" horiz-adv-x="451" d="M8 -132l98 444q8 36 34 29l185 -51q27 -7 27 -34q0 -17 -11 -41l-185 -395q-12 -28 -32 -28q-4 0 -8 1l-85 21q-25 6 -25 35q0 8 2 19zM29 847q0 76 48.5 122.5t117.5 46.5q74 0 121 -45.5t47 -121.5q0 -77 -48 -122.5t-118 -45.5q-71 0 -119.5 44.5t-48.5 121.5z" />
<glyph unicode="&#x3c;" horiz-adv-x="814" d="M49 596q0 87 54 116l566 300q8 4 12 4q16 0 23 -14l60 -164q2 -4 2 -12q0 -15 -10 -21l-423 -209l419 -197q12 -6 12 -18q0 -10 -2 -14l-56 -179q-7 -16 -19 -16q-10 0 -16 4l-564 294q-58 31 -58 126z" />
<glyph unicode="=" horiz-adv-x="814" d="M60 331v164q0 24 25 24h645q23 0 23 -24v-164q0 -25 -23 -25h-645q-25 0 -25 25zM60 702v163q0 25 25 25l645 -2q23 0 23 -23v-163q0 -25 -23 -25l-645 -2q-25 0 -25 27z" />
<glyph unicode="&#x3e;" horiz-adv-x="814" d="M54 826q0 8 2 12l61 164q7 14 23 14q4 0 11 -4l567 -300q54 -29 54 -116q0 -95 -58 -126l-565 -294q-5 -4 -15 -4q-12 0 -19 16l-57 179q-2 4 -2 14q0 12 12 18l420 197l-424 209q-10 6 -10 21z" />
<glyph unicode="?" horiz-adv-x="989" d="M28 1151q0 33 18 45q166 108 379 108q189 0 311 -87q137 -98 137 -273q0 -141 -108 -249q-99 -101 -265 -148v-79q0 -58 -56 -58h-167q-56 0 -56 66v179q0 53 31 61q273 62 273 199q0 60 -53 93q-42 26 -108 26q-110 0 -215 -79q-13 -11 -32 -4q-16 4 -24 22l-55 128 q-10 25 -10 50zM190 142q0 75 48.5 121.5t117.5 46.5q76 0 122.5 -44.5t46.5 -119.5q0 -79 -47.5 -125t-119.5 -46q-71 0 -119.5 45t-48.5 122z" />
<glyph unicode="@" horiz-adv-x="1867" d="M104 424q0 261 121 484q123 230 345 357t470 127q200 0 359 -78q174 -86 261 -251.5t87 -348.5q0 -168 -65 -327q-69 -171 -191 -269q-128 -103 -290 -103q-152 0 -179 120q16 63 55 103q-243 -224 -400 -224q-84 0 -134 76q-45 66 -45 155q0 154 103 341q85 155 215 293 q106 72 175 72q30 0 52 -12q139 0 200 -84l8 95l135 -23l-100 -389q-71 -278 -71 -335q0 -19 5 -29q-6 -20 -6 -32q0 -28 24 -28q17 0 45 13q20 -9 40 -9q73 0 150 120q91 39 143 155q72 162 72 339q-33 139 -104 306q-90 132 -243 209q-148 76 -311 76q-230 -64 -388 -159 q-221 -75 -262 -269q-155 -214 -155 -407q0 -35 5 -68q-1 -16 -1 -32q0 -217 104 -372q60 -215 269 -254q139 -83 356 -110q55 -7 100 -7q229 0 391 149q209 104 254 396l123 -36q-94 -285 -327 -447q-229 -160 -532 -160q-238 0 -435 109q-203 113 -315.5 317.5 t-112.5 450.5zM646 290q19 -29 30 -94q29 24 49 24q22 0 35 -30q111 56 246 190q39 87 119 143q45 144 45 242q0 60 -32 99q-16 22 -43 22q-28 0 -65 -23h-8q-75 0 -127 -134q-110 -13 -190 -209q-59 -144 -59 -230z" />
<glyph unicode="A" horiz-adv-x="1464" d="M16 0v37q84 14 95 66q63 19 126 165l472 1105l43 -27l459 -1090q47 -112 104 -137q30 -76 126 -82v-37h-529l38 32q72 31 98 87q0 43 -39 137l-81 193h-520l-91 -211q-34 -79 -34 -117q0 -73 113 -81l43 -40h-423zM439 523l424 16l-174 522z" />
<glyph unicode="B" horiz-adv-x="1352" d="M79 63l5 -26q85 0 121 53q9 53 23 148v867q0 125 -29 157q-39 44 -115 44l43 -7l-48 39l535 4h14q323 0 461 -137q90 -90 90 -221q0 -221 -242 -299q139 -30 208 -95q96 -91 96 -223q0 -112 -64 -198.5t-172 -125.5q-115 -43 -312 -43h-26l-572 8zM396 158 q137 -88 248 -88q150 0 250 64q118 75 118 216q0 187 -181 265q-96 41 -238 41q-127 0 -175 -9zM418 739h8q64 0 168 29q67 -11 123 -11q160 0 217 94q38 65 38 141q0 144 -122 220q-103 64 -254 64q-99 0 -178 -22v-515z" />
<glyph unicode="C" horiz-adv-x="1352" d="M73 650q0 197 85 362q90 173 254 269q157 92 344 92q147 0 287 -71q43 -22 60 -22q23 5 23 31t-25 75l120 -13l30 -456l-63 2q-83 383 -416 383q-292 0 -411 -284q-62 -150 -62 -370q0 -378 235 -520q87 -27 211 -27q30 0 63 2q54 -18 105 -18q81 0 149 48 q78 113 189 202l72 -18q-236 -348 -596 -348q-334 0 -517 248q-137 184 -137 433z" />
<glyph unicode="D" horiz-adv-x="1464" d="M63 1362l518 -20q293 -10 403 -48q196 -66 303 -240q100 -161 100 -376q0 -281 -170 -468q-191 -210 -561 -210h-21l-532 8l-16 -8l-2 37q85 0 121 54q22 33 22 147v867q0 126 -101 138q11 20 11 31q0 15 -19 15q-12 0 -32 -6zM412 1228l6 -1131q14 1 43 1q57 0 173 -3 h18q244 0 379 158q130 153 130 415q0 265 -147 409q-163 159 -388 159q-29 2 -63 2q-67 0 -151 -10z" />
<glyph unicode="E" horiz-adv-x="1238" d="M71 1299v39l997 -11l15 -294l-69 5q-16 87 -32 126q-32 39 -206 87h-372l24 -483l283 -45q190 0 190 103q0 15 -6 29l71 32l32 -356l-87 -32q-3 50 -17 77q-39 75 -154 75q-17 0 -29 -1l-291 -24l-4 -418v-41q0 -33 1 -35q36 -25 58 -37q11 -6 26 -6q24 0 61 14h182 q56 8 94 8q37 0 57 -8q71 24 124 33q42 62 66 181l95 -16l-95 -317h-990l-16 79l2 -42q47 0 85 82q18 -16 31 -16q33 0 33 164v10l-4 832q-28 118 -28 147q0 8 2 10q-35 40 -119 40z" />
<glyph unicode="F" horiz-adv-x="1127" d="M32 8l39 55l9 -26q55 50 102 50q0 63 43 151v867q0 102 -13 134q-27 67 -132 67l-9 -23l-8 63l951 -8l30 -291l-78 -2q-24 143 -119 191q-31 -16 -150 -16h-285l16 -412l231 -66q70 34 132 46q32 39 44 138h36v-455h-36q-2 132 -74 171q-32 17 -102 17l-223 -41l-21 -380 q19 -52 19 -92q0 -23 -6 -43q4 -11 18 -11q18 0 53 19q63 -40 61 -74h49v-37z" />
<glyph unicode="G" horiz-adv-x="1464" d="M63 643q-1 16 -1 32q0 186 86 307q163 396 499 396q61 0 127 -13q130 0 303 -64q57 -21 74 -21q29 0 29 25q0 14 -8 33l79 8l20 -405l-83 9q-4 150 -87 230q-95 67 -218 67q-51 0 -107 -11q-67 25 -126 25q-159 0 -246 -192q-113 -146 -113 -384q0 -174 63 -327 q113 -120 208 -184l222 -55q14 -1 28 -1q123 0 194 64l78 309q0 75 -6 102l-96 41q1 8 1 14q0 41 -33 49l32 79l444 -8l-48 -95l25 14q-52 -65 -76 -65q-14 0 -20 20q-17 -24 -17 -74q0 -35 9 -85l-103 -380q-111 -190 -412 -214q-432 32 -602 309q-109 177 -119 445z" />
<glyph unicode="H" horiz-adv-x="1464" d="M27 0v37l21 42q26 -8 45 -8q39 0 50 32q55 47 71 158l5 843v14q0 95 -13 121q-48 4 -48 20q-79 0 -84 47l-42 -55v103l570 -12v-36h-49q-52 0 -85 -28q-22 -19 -55 -74q-4 -23 -4 -100l42 -336h571l11 336v29q0 73 -13 106q-62 12 -132 67h-47v36h574v-36h-48 q-81 0 -139 -118q-1 -1 -1 -3q0 -15 24 -92l-28 -855v-29q0 -72 13 -90q49 -28 49 -46q0 -7 -9 -13q43 -23 91 -23h48v-37h-552l-22 37l46 3h10q76 0 111 45q25 32 25 153v408h-624v-408q0 -102 35 -135q5 -36 60 -36q19 0 42 4l56 -34v-45z" />
<glyph unicode="I" horiz-adv-x="675" d="M40 4l3 33h47q83 0 92 66q40 44 53 135v867q0 102 -13 134q-10 26 -68 28q-26 21 -67 32l-43 12v47l578 8l-4 -60h-49q-58 -35 -86 -86q-47 -24 -58 -115l19 -859q22 -58 22 -103q0 -17 -3 -32q24 -48 106 -74l41 42l8 -79z" />
<glyph unicode="J" horiz-adv-x="789" d="M56 159q0 50 40 50q10 0 23 -3q20 6 37 6q42 0 65 -33q15 -21 44 -68q15 -17 24 -17q8 0 12 13q51 0 55 87l39 911q1 18 1 33q0 67 -14 101q-49 36 -133 44l-47 23l-12 76h594l-7 -76h-48q-80 -15 -120 -49q-24 -30 -24 -152v-657q0 -282 -141 -420q-88 -59 -202 -59 q-77 0 -134 37q-49 53 -49 121q-3 19 -3 32z" />
<glyph unicode="K" horiz-adv-x="1464" d="M46 1298l2 52l566 -4l-4 -55l-44 -20q-9 2 -18 2q-40 0 -104 -89q-16 -10 -16 -87v-411q38 37 122 154q309 243 357 332q8 44 16 71q-23 12 -64 48l-31 28l4 47l483 4l2 -72q-74 -11 -173 -59q-39 -39 -114 -122q-96 -79 -171 -167l-182 -213l436 -492q179 -202 380 -216 v-37h-639v37q108 0 108 62q0 43 -71 113l-463 458v-432q0 -102 13 -135q24 -42 82 -42q13 0 27 2l56 -7l4 -56h-562l7 36l24 23q91 8 135 26q24 31 24 153v867q-12 99 -13 136q-25 9 -67 38q-22 16 -65 27h-47z" />
<glyph unicode="L" horiz-adv-x="1238" d="M28 1346h621l-7 -95q-68 19 -113 19q-72 0 -93 -44q-9 -18 -16 -152l-44 -844q16 -68 60 -112q27 -23 83 -31l190 16q131 -4 196 -13q179 43 220 231l95 -44l-144 -285h-1039v37h50q85 0 122 55q21 32 21 147v866q0 126 -32 174q-48 2 -99 8l-67 8zM1133 55z" />
<glyph unicode="M" horiz-adv-x="1802" d="M36 1350l384 8l435 -1041l527 1049l364 -20l-8 -43l-24 -1q-86 -23 -122 -52q-22 -31 -22 -144v-877q0 -124 28 -155q37 -42 97 -42h55l-8 -44l-542 12v44l47 15q26 -9 48 -9q58 0 76 66q9 32 9 113v897l-497 -1094l-55 -16l-468 1041l-49 -828q18 -114 27 -155 q36 -41 115 -41h48v-37h-450l8 52l52 -4q9 -2 18 -2q40 0 57 45q20 28 38 142l-26 876q6 76 6 114v16q-38 52 -164 56z" />
<glyph unicode="N" horiz-adv-x="1464" d="M4 1311l8 35l317 12l817 -1026v774q-17 110 -27 154h-3q-41 0 -110 23h-56l6 55h468l2 -59h-44q-77 0 -127 -29q-21 -31 -21 -144v-1132h-36l-885 1081v-826q0 -125 27 -155q34 -38 84 -38h8l19 4l-11 -32l-404 -12l39 48l7 -11q86 0 122 51q22 32 22 145v933 q-51 60 -78 81q-38 30 -99 50q-28 9 -45 18z" />
<glyph unicode="O" horiz-adv-x="1464" d="M71 676q0 320 218 522q189 175 453 175q292 0 472 -203q172 -195 172 -491q0 -306 -175 -503q-183 -207 -485 -207q-304 0 -483 204q-172 195 -172 503zM298 672q0 -228 11 -229q5 0 12 44q205 -416 349 -416q14 0 27 4q22 -4 44 -4q234 0 419 436q0 -37 -1 -37v174 q0 176 -18 261q-11 56 -54 149q-99 216 -322 216q-25 0 -52 -3q-28 4 -54 4q-134 0 -225 -112q-136 -166 -136 -487z" />
<glyph unicode="P" horiz-adv-x="1127" d="M34 0v37h50q85 0 122 55q20 31 20 146v867q0 127 -27 157q-39 44 -115 44h-50v36h492q158 0 251 -26q125 -36 200 -125q79 -93 79 -220q0 -181 -119 -279q-110 -91 -295 -91q-98 0 -226 28v-391q0 -126 28 -158q38 -43 113 -43h52v-37h-575zM416 685q105 -20 162 -20 q114 0 185 88q68 83 68 198q0 197 -137 275q-64 36 -149 36q-50 0 -129 -19v-558z" />
<glyph unicode="Q" horiz-adv-x="1464" d="M71 674q0 306 179 500q186 199 489 199q295 0 476 -207q172 -197 172 -496q0 -241 -132 -426q-133 -191 -362 -259q189 -327 485 -350v-32q-300 11 -586 193q-140 89 -241 189q-144 59 -225 122q-255 200 -255 567zM298 674q0 -326 141 -502q123 -49 288 -135 q230 0 343 199q90 158 90 409q0 450 -222 593q-94 59 -211 59q-233 0 -343 -206q-86 -161 -86 -417z" />
<glyph unicode="R" horiz-adv-x="1352" d="M59 -4l32 40l-6 1q85 0 122 55q21 32 21 146v867q0 128 -28 157q-20 22 -38 33l4 -4l-31 59l389 -8q198 -4 263 -17q132 -28 210 -110q85 -88 85 -218q0 -270 -331 -344l278 -385q84 -117 142 -160q78 -58 199 -71v-37h-358l-455 628q-50 -2 -82 -2q-27 0 -58 2v-390 q0 -126 28 -158q38 -43 112 -43h53v-37zM401 1237l39 -524l-11 -35q18 -1 27 -1q162 0 265 65q122 78 122 230q0 132 -77.5 207.5t-209.5 75.5q-57 0 -155 -18z" />
<glyph unicode="S" horiz-adv-x="1127" d="M123 1028q0 160 119 259q110 94 274 94q108 0 226 -52q32 -14 53 -14q16 0 25 8q15 -5 26 -5q28 0 33 32l60 -4l-4 -396l-52 32q-28 185 -202 242q-43 47 -97 47q-35 0 -73 -20q-35 21 -66 21q-47 0 -89 -44q-76 -42 -76 -132q0 -60 43 -112q61 -73 292 -198 q165 -89 204 -116q196 -134 196 -320q0 -173 -128 -277q-118 -96 -295 -96q-73 0 -110 9l-137 34q-49 12 -112 33q-50 0 -55 -49l-43 8l4 392l27 12q29 -107 65 -174q47 -90 144 -140q90 -48 196 -48q109 0 183 55q85 60 85 165q0 109 -112 194q-70 53 -229 140 q-154 84 -227 140q-148 117 -148 280z" />
<glyph unicode="T" horiz-adv-x="1238" d="M59 1156l18 186h1096l15 -209h-67q4 -5 5 -6l1 1q-1 6 -6 18q-72 66 -216 112l-188 -26l-1 -999q-11 -43 -11 -75q0 -58 37 -80q38 -27 116 -41l13 -1l8 -32l-527 -8l4 44l27 -3q85 0 121 51q31 18 31 73q0 31 -9 72l-15 1003l-143 3h-142q-101 -33 -101 -79q0 -6 2 -12z " />
<glyph unicode="U" horiz-adv-x="1464" d="M12 1315l16 79h570l-7 -88h-51q-85 -11 -119 -53q-61 -25 -73 -136l-3 -594q23 -238 117 -340q73 -105 233 -105q17 0 34 1q15 -1 30 -1q111 0 195 53q115 43 143 154q40 71 63 285v535q0 126 -51 154q-12 27 -62 27q-16 0 -37 -3h-48l16 99l463 -16l1 -60h-50 q-78 0 -109 -59q-12 -29 -12 -142v-555q-22 -186 -51 -281q-94 -301 -487 -301q-392 0 -495 281q-32 243 -32 331v525q0 104 -22 143q-32 58 -123 58z" />
<glyph unicode="V" horiz-adv-x="1464" d="M18 1306v36h548v-36q-148 -14 -148 -90q0 -50 45 -155l342 -787l317 777q46 114 46 160q0 70 -126 92l-16 3v36h413v-36q-72 -13 -107 -46q-52 -46 -94 -148l-468 -1143h-36l-503 1158q-39 89 -55 109q-49 61 -158 70z" />
<glyph unicode="W" horiz-adv-x="1913" d="M111 1295l8 51l384 -8l33 -36l-37 -27q-31 7 -43 7q-52 -1 -52 -61q0 -22 43 -160l234 -740l182 629v201q-40 117 -127 145q-3 3 12 19l4 47h396v-55l-4 -44q-27 8 -50 8q-58 0 -84 -51q4 -52 91 -182l222 -741l257 760q16 48 44 159q0 48 -20 55q-35 12 -56 4l-8 79h341 l-12 -55q-59 -32 -83 -91q-19 -20 -63 -159l-353 -1085l-84 1l-264 863l-346 -863h-35l-399 1115q-42 117 -57 148q-32 67 -74 67z" />
<glyph unicode="X" horiz-adv-x="1464" d="M15 0v37q49 5 87 20q124 53 244 203l316 400l-264 387q-88 129 -147 179q-90 76 -209 80v36h620v-36q-137 -5 -137 -76q0 -36 47 -107l206 -308l239 302q60 76 60 114q0 48 -49 66q-22 8 -94 9v36h476v-36q-58 -3 -92 -18q-96 -41 -224 -204l-266 -341l288 -429 q97 -146 131 -181q87 -90 193 -96v-37h-576v37q45 1 66 6q67 15 67 70q0 23 -9 45q-5 12 -54 88l-228 344l-281 -360q-63 -81 -63 -117q0 -71 129 -76v-37h-476z" />
<glyph unicode="Y" horiz-adv-x="1464" d="M48 1303v39h419l8 -23l4 -4q21 -9 -14 -29q-42 -24 -42 -67q0 -20 60 -129l222 -401l253 388q99 91 103 127q-4 55 -43 75q-14 27 -20 28l-4 35h356l8 -35q-46 -1 -130 -89q-48 -50 -100 -139l-300 -509l-24 -337q24 -118 28 -155q37 -41 118 -41h44v-37h-570v37h47 q85 0 121 51q-10 27 -26 138l32 313l-352 574q-50 80 -77 110q-32 36 -109 73q-9 5 -12 7zM1335 1307z" />
<glyph unicode="Z" horiz-adv-x="1238" d="M10 -8v37l841 1214h-407q-183 0 -206 -71q-4 -67 -28 -103l-67 8v277h946l-824 -1223h567q44 -11 77 -11q63 0 89 38q59 44 75 163h95v-317z" />
<glyph unicode="[" horiz-adv-x="660" d="M121 -188v1567q0 24 25 24h429q24 0 24 -22v-146q0 -24 -24 -24h-146v-1231h146q24 0 24 -25v-143q0 -25 -24 -25h-434q-20 0 -20 25z" />
<glyph unicode="\" horiz-adv-x="792" d="M16 1141q0 15 11 15q7 0 20 -7l81 -44q21 -12 31 -35l571 -1206q4 -7 4 -13q0 -4 -2 -7q-4 -5 -10 -5q-3 0 -6 1l-98 44q-22 11 -30 29l-568 1215q-4 8 -4 13z" />
<glyph unicode="]" horiz-adv-x="660" d="M60 -45q0 25 25 25h146v1231h-146q-25 0 -25 24v146q0 22 25 22h430q24 0 24 -24v-1567q0 -25 -20 -25h-434q-25 0 -25 25v143z" />
<glyph unicode="^" horiz-adv-x="780" d="M27 432l314 694h105l314 -694h-158l-206 503l-230 -503h-139z" />
<glyph unicode="_" horiz-adv-x="1021" d="M-8 -127h1034l6 -128h-1032z" />
<glyph unicode="`" horiz-adv-x="675" d="M117 1376h221l105 -341l-55 -9z" />
<glyph unicode="a" horiz-adv-x="899" d="M72 215q0 140 172 241q101 60 333 145v36q0 236 -168 236q-53 0 -93 -29q-46 -31 -44 -82l2 -57v-6q0 -89 -84 -89q-83 0 -83 96q0 112 116 175q95 53 216 53q226 0 284 -137q18 -43 18 -174v-308q0 -179 21 -198q11 -10 26 -10q16 0 28 7q20 12 80 72v-55 q-111 -149 -212 -149q-105 0 -107 149q-140 -109 -175 -125q-54 -25 -114 -25q-99 0 -158 69q-58 65 -58 165zM239 261q0 -64 37 -113q41 -52 103 -52q75 0 198 99v346q-146 -59 -193 -85q-145 -81 -145 -195z" />
<glyph unicode="b" d="M-4 1297l272 111h45v-658q132 184 284 184q166 0 263 -146q84 -126 84 -300q0 -241 -160 -389q-138 -127 -307 -127q-157 0 -328 115v940q0 213 -30 238q-16 13 -40 13q-28 0 -69 -16zM313 145q102 -100 215 -100q123 0 192 139q53 110 53 248q0 135 -57 237 q-71 124 -197 124q-53 0 -105 -27q-40 -20 -101 -79v-542z" />
<glyph unicode="c" horiz-adv-x="899" d="M69 452q0 205 112 339q120 143 321 143q105 0 198 -56q108 -64 108 -162q0 -84 -92 -84q-60 0 -88 37q-7 9 -23 81q-14 64 -43 90.5t-93 26.5q-99 0 -159 -73q-80 -97 -80 -256q0 -154 69 -272q82 -139 226 -139q96 0 174 66q54 47 106 165l29 -13q-32 -157 -125 -258 q-105 -115 -256 -115q-181 0 -289 155q-95 136 -95 325z" />
<glyph unicode="d" d="M67 416q0 199 118 352q128 167 321 167q120 0 198 -77v168q0 214 -31 239q-16 13 -39 13q-26 0 -69 -16l-13 35l271 111h44v-1049q0 -216 32 -243q16 -14 38 -14q26 0 71 17l11 -35l-270 -112h-45v130q-124 -130 -266 -130q-169 0 -275 142q-96 129 -96 302zM248 494 q0 -151 64 -269q77 -144 218 -144q90 0 174 90v468q0 141 -114 206q-48 28 -96 28q-87 0 -155 -78q-91 -103 -91 -301z" />
<glyph unicode="e" horiz-adv-x="899" d="M75 442q0 213 100 345q111 148 319 148q160 0 255 -106q93 -102 93 -264h-626q-1 -168 78 -290q92 -141 252 -141q185 0 266 216l30 -19q-22 -149 -120 -250q-105 -109 -251 -109q-187 0 -297 146q-99 131 -99 324zM216 623h420q-5 87 -21 122q-53 119 -176 119 q-96 0 -158 -75q-55 -66 -65 -166z" />
<glyph unicode="f" horiz-adv-x="675" d="M78 836v71h176v59q0 268 178 382q89 58 201 58q104 0 191 -68q57 -44 57 -100q0 -29 -25.5 -55.5t-55.5 -26.5q-17 0 -109 89.5t-137 89.5q-96 0 -122 -99q-14 -52 -14 -264v-65h233v-71h-233v-596q0 -127 28 -161q36 -43 98 -43h82v-36h-542v36h41q91 0 118 73 q11 33 11 131v596h-176z" />
<glyph unicode="g" d="M60 -248q0 49 81 149q7 10 101 107q-94 56 -94 110q0 80 158 213q-172 84 -172 274q0 151 107 242q100 87 254 87q130 0 225 -64h192q42 0 49 -3q16 -7 16 -39q0 -38 -15 -44q-8 -3 -50 -3h-118q55 -71 55 -182q0 -144 -109 -229q-100 -78 -248 -78q-67 0 -138 20 q-74 -64 -74 -114q0 -44 80 -55q29 -4 139 -7q205 -5 264 -14q89 -13 143 -64q59 -55 59 -141q0 -112 -105 -210q-154 -145 -403 -145q-192 0 -322 87q-75 48 -75 103zM202 -174q0 -48 57 -83q99 -62 286 -62q122 0 217 39q131 53 131 158q0 69 -102 89q-33 7 -152 10 q-210 6 -343 23q-94 -102 -94 -174zM306 648q0 -156 67 -242q52 -65 131 -65q172 0 172 233q0 158 -68 247q-51 65 -130 65q-91 0 -135 -77q-37 -63 -37 -161z" />
<glyph unicode="h" d="M13 1297l271 111h46v-664q82 91 133 128q84 62 170 62q163 0 214 -177q19 -64 19 -231v-321q0 -85 14 -118q22 -51 121 -51v-36h-446v36h21q104 0 123 76q3 12 3 93v321q0 112 -4 141q-20 147 -142 147q-105 0 -226 -130v-479q0 -69 3 -87q13 -82 143 -82v-36h-449v36 q59 0 95 18q43 23 43 151v821q0 214 -29 239q-15 13 -42 13q-21 0 -67 -16z" />
<glyph unicode="i" horiz-adv-x="563" d="M59 823l274 111h43v-729q0 -128 50 -155q24 -14 88 -14v-36h-441v36q101 0 126 55q13 29 13 114v349q0 149 -9 191q-12 57 -62 57q-28 0 -68 -15zM193 1308q0 42 29 71t72 29q42 0 71 -29.5t29 -70.5q0 -42 -29 -71.5t-71 -29.5t-71.5 29.5t-29.5 71.5z" />
<glyph unicode="j" horiz-adv-x="563" d="M-154 -338q0 34 23.5 59.5t57.5 25.5q23 0 52 -13q15 -7 71 -55q44 -38 75 -38q60 0 80 79q11 43 11 187v645q0 150 -9 192q-12 58 -62 58q-28 0 -68 -15l-14 36l274 111h42v-913q0 -198 -77 -317q-91 -142 -279 -142q-60 0 -110 21q-67 28 -67 79zM193 1307q0 42 29 72 t72 30t72.5 -30t29.5 -72q0 -43 -29.5 -72t-72.5 -29q-42 0 -71.5 29.5t-29.5 71.5z" />
<glyph unicode="k" d="M17 0v36q112 0 135 50q15 32 15 113v826q0 216 -29 241q-15 13 -42 13q-21 0 -62 -17l-17 35l269 111h46v-903l230 211q73 66 85 85q8 12 8 24q0 46 -70 50v32h394v-32q-142 -4 -253 -106l-233 -215l233 -294q93 -117 130 -154q48 -47 84 -60q24 -10 86 -10v-36h-441v36 q64 2 64 40q0 23 -39 73l-278 356v-301q0 -131 47 -155q23 -12 99 -13v-36h-461z" />
<glyph unicode="l" horiz-adv-x="563" d="M60 1297l271 111h44v-1203q0 -127 51 -155q26 -14 96 -14v-36h-445v36q97 0 121 55q13 30 13 114v824q0 212 -29 236q-15 13 -39 13q-26 0 -66 -16z" />
<glyph unicode="m" horiz-adv-x="1577" d="M17 823l273 111h43v-193q98 98 116 113q95 80 198 80q187 0 229 -193q80 93 138 133q84 60 179 60q155 0 217 -159q22 -56 22 -180v-390q0 -87 12 -117q23 -52 124 -52v-36h-447v36h18q104 0 124 73q4 15 4 96v390q0 112 -27 156q-37 64 -123 64q-103 0 -234 -124l-2 -11 l2 -42v-433q0 -69 3 -87q14 -82 145 -82v-36h-459v36q121 0 143 71q5 16 5 98v390q0 112 -33 159q-43 64 -122 64q-52 0 -106 -29q-83 -45 -126 -98v-486q0 -128 49 -155q25 -14 98 -14v-36h-448v36q100 0 124 56q13 29 13 113v346q0 151 -9 193q-12 58 -62 58 q-28 0 -66 -15z" />
<glyph unicode="n" d="M12 823l273 111h43v-192q159 192 304 192q153 0 212 -160q22 -58 22 -182v-387q0 -128 50 -155q24 -14 89 -14v-36h-449v36h19q104 0 124 76q4 15 4 93v371q0 236 -141 236q-117 0 -234 -129v-478q0 -91 11 -114q26 -55 136 -55v-36h-448v36h20q76 0 101 48q16 34 16 121 v337q0 222 -29 247q-15 13 -42 13q-28 0 -66 -15z" />
<glyph unicode="o" d="M68 445q0 127 57 243q61 124 165 185t217 61q206 0 331 -157q105 -133 105 -307q0 -129 -55 -245q-58 -123 -162 -188t-230 -65q-205 0 -326 164q-102 137 -102 309zM252 528q0 -169 61 -306q78 -179 226 -179q220 0 220 351q0 241 -104 380q-71 95 -179 95 q-132 0 -191 -140q-33 -79 -33 -201z" />
<glyph unicode="p" d="M-6 -397h25q88 0 114 46q18 32 18 133v858q0 124 -32 147q-17 12 -48 12q-23 0 -60 -14l-12 32l279 113h38v-212q127 216 290 216q136 0 228 -107q111 -131 111 -341q0 -235 -134 -388q-111 -126 -279 -126q-74 0 -127 21q-41 16 -89 59v-276q0 -73 3 -89q9 -48 48 -69 q29 -15 102 -15v-37h-475v37zM316 321q0 -109 9 -145q17 -67 76 -107q55 -37 128 -37q99 0 160 77q80 101 80 284q0 208 -91 320q-63 77 -150 77q-48 0 -94 -24q-36 -18 -118 -107v-338z" />
<glyph unicode="q" d="M67 413q0 220 121 365q130 156 346 156q113 0 189 -64q57 28 110 64h33v-1167q0 -63 4 -84q9 -46 46 -66q25 -14 98 -14v-37h-458v37h19q93 0 116 54q12 29 12 110v390q-157 -185 -297 -185q-159 0 -256 147q-83 128 -83 294zM234 485q0 -148 61 -250q74 -123 214 -123 q110 0 194 108v425q0 137 -88 190q-50 29 -112 29q-141 0 -212 -125q-57 -101 -57 -254z" />
<glyph unicode="r" horiz-adv-x="675" d="M13 823l274 111h42v-204q114 204 233 204q50 0 88 -31t38 -79q0 -38 -24.5 -65t-62.5 -27q-21 0 -80 34t-62 34q-16 0 -38 -20q-46 -41 -92 -134v-434q0 -93 31 -133q36 -43 127 -43v-36h-464v36q117 0 137 72q5 17 5 96v351q0 122 1 122v-2q-5 92 -30 113q-17 14 -44 14 q-31 0 -69 -15z" />
<glyph unicode="s" horiz-adv-x="789" d="M99 671q0 117 80 190q77 73 195 73q54 0 130 -23q50 -15 67 -15q27 0 46 38h32v-309h-32q-32 120 -77 176q-61 74 -170 74q-57 0 -103 -30q-51 -33 -51 -88q0 -105 156 -181l145 -70q201 -98 201 -258q0 -127 -89 -203q-85 -73 -214 -73q-85 0 -190 30q-35 10 -54 10 q-23 0 -35 -26h-33v324h33q23 -120 91 -194q76 -85 190 -85q62 0 108 37.5t46 98.5q0 82 -84 146q-42 32 -162 90q-106 51 -156 99q-70 68 -70 169z" />
<glyph unicode="t" horiz-adv-x="563" d="M20 838v32q122 49 213 197q20 34 63 138h31v-298h212v-69h-212v-589q0 -149 90 -149q77 0 111 80h38q-69 -195 -228 -195q-110 0 -154 98q-21 47 -21 145v610h-143z" />
<glyph unicode="u" d="M2 870v37h318v-607q0 -206 150 -206q98 0 225 129v514q0 80 -34 107q-29 24 -112 26v37h309v-550q0 -214 32 -241q16 -14 38 -14q30 0 69 17l14 -35l-271 -112h-45v192q-88 -96 -136 -130q-84 -62 -172 -62q-160 0 -210 158q-22 69 -22 196v405q0 101 -54 127 q-24 12 -89 12h-10z" />
<glyph unicode="v" d="M17 870v37h427v-37h-28q-79 0 -79 -69q0 -33 20 -82l211 -501l212 520q23 55 23 84q0 14 -8 22q-19 26 -96 26v37h296v-37q-52 -4 -71 -21q-33 -27 -63 -99l-321 -778h-41l-324 766q-36 87 -92 115q-17 9 -66 17z" />
<glyph unicode="w" horiz-adv-x="1464" d="M13 870v37h380v-37q-85 -6 -85 -61q0 -29 17 -74l194 -522l195 425l-52 133q-21 58 -62 82q-23 14 -81 17v37h431v-37q-120 -5 -120 -76q0 -21 8 -41l205 -520l192 502q19 52 19 85q0 47 -95 50v37h286v-37q-86 -13 -126 -117l-303 -781h-41l-227 579l-264 -579h-37 l-291 763q-24 64 -50 91q-31 30 -93 44z" />
<glyph unicode="x" d="M27 870v37h426v-37q-73 0 -73 -50q0 -24 35 -74q16 -22 32 -49l65 -103l74 103q71 99 71 124q0 49 -71 49v37h307v-37q-49 -3 -84 -27q-47 -31 -133 -146l-124 -165l226 -325q65 -94 86 -115q53 -52 125 -56v-36h-428v36q88 0 88 56q0 22 -63 115l-133 194l-145 -194 q-67 -90 -67 -107q0 -60 89 -64v-36h-296v36q36 5 62 24q39 30 127 147l190 252l-172 250q-60 86 -88 112q-53 49 -126 49z" />
<glyph unicode="y" d="M12 870v37h423v-37h-21q-89 0 -89 -67q0 -40 32 -107l221 -457l203 501q17 41 17 80q0 32 -32 44q-16 6 -59 6v37h295v-37q-62 -7 -100 -60q-6 -9 -34 -76l-369 -905q-44 -107 -118 -179q-88 -88 -189 -88q-52 0 -91 29q-43 32 -43 82q0 92 102 92q32 0 89 -21 q39 -15 50 -15q74 0 136 149l64 158l-326 684q-15 30 -47 76q-26 36 -41 46q-22 16 -73 28z" />
<glyph unicode="z" horiz-adv-x="899" d="M41 0v36l602 802h-297q-77 0 -99 -5q-98 -21 -106 -178h-40l6 252h760v-37l-608 -804h331q82 0 115 9q58 16 86 70q16 30 27 133h33l-10 -278h-800z" />
<glyph unicode="{" horiz-adv-x="607" d="M40 619q0 33 31 41.5t55.5 47t24.5 93.5q0 27 -6 50l-63 244q-8 31 -8 62q0 147 176 226q134 60 291 60h5q20 0 20 -23v-155q0 -18 -27 -27h-4q-145 0 -145 -135q0 -39 6 -63l48 -193q5 -24 5 -58q0 -75 -51 -124l-80 -59l80 -61q55 -48 55 -117q0 -26 -4 -43l-57 -233 q-6 -24 -6 -53q0 -130 151 -130q29 0 29 -21v-157q0 -27 -31 -27q-169 0 -294 56q-169 70 -169 215q0 34 8 64l68 244q7 30 7 63q0 121 -87 163h2q-30 17 -30 50z" />
<glyph unicode="|" horiz-adv-x="335" d="M60 -234v1637h213v-1637h-213z" />
<glyph unicode="}" horiz-adv-x="607" d="M40 -52q0 21 28 21q152 0 152 130q0 29 -6 53l-57 233q-4 17 -4 43q0 69 55 117l81 61l-81 59q-51 49 -51 126q0 30 6 56l45 193q6 26 6 63q0 135 -142 135h-4q-28 9 -28 27v155q0 23 19 23h7q156 0 289 -60q178 -79 178 -226q0 -31 -9 -62l-63 -244q-6 -23 -6 -50 q0 -55 24.5 -93.5t55.5 -47t31 -41.5q0 -25 -29 -50q-43 -33 -56 -50q-30 -43 -30 -111q0 -35 8 -65l65 -244q9 -30 9 -62q0 -145 -175 -217q-130 -56 -286 -56q-32 11 -32 27v157z" />
<glyph unicode="~" horiz-adv-x="1100" d="M20 466q122 215 302 215q73 0 237 -75q170 -58 207 -58q115 0 207 154l97 -63q-133 -235 -308 -235q-67 0 -132 29l-103 45q-120 69 -200 69q-70 0 -126 -50q-39 -35 -106 -130z" />
<glyph unicode="&#xa2;" d="M128 447q0 251 155 387q120 104 270 104q20 0 61 -4l138 379h72l-144 -398q100 -45 137 -86q47 -54 47 -114q0 -84 -93 -84q-54 0 -85 37q-18 22 -26 81q-4 31 -16 65l-226 -625q86 -60 161 -60q128 0 200 85q32 37 82 144l30 -12q-47 -187 -161 -290q-89 -80 -219 -80 q-80 0 -161 35l-140 -386h-69l153 423q-80 75 -116 152q-50 109 -50 247zM286 530q0 -136 80 -282l221 608q-28 12 -59 12q-101 0 -161 -73q-81 -99 -81 -265z" />
<glyph unicode="&#xa3;" horiz-adv-x="897" d="M65 0l69 174h59q20 112 20 242q0 20 -1 60t-1 60h-108l55 145h47q-2 16 -2 47v22q3 172 115.5 293t281.5 123h3q104 0 184 -65l-94 -146q-105 67 -194 67q-141 0 -141 -159q0 -31 9 -180h167l-58 -145h-105q-8 -245 -93 -364h513l-61 -174h-665z" />
<glyph unicode="&#xa5;" d="M2 348v73h420v142l-15 36h-405v72h373l-211 491q-30 73 -58 101q-39 41 -104 42v37h438v-37q-120 -8 -120 -62q0 -14 18 -58l211 -514l211 499q21 50 21 74q0 21 -21 41q-13 13 -63 17q-7 1 -27 3v37h343v-37q-59 0 -86 -23q-43 -36 -85 -131l-212 -480h383v-72h-415 l-7 -16v-162h422v-73h-422v-106q0 -112 11 -142q22 -59 118 -59h40v-41h-510v41h32q117 0 136 82q4 18 4 119v106h-420z" />
<glyph unicode="&#xa8;" horiz-adv-x="675" d="M56 1216q0 44 31.5 76t75.5 32q46 0 77 -31.5t31 -76.5t-31 -76t-76 -31q-44 0 -76 31t-32 76zM405 1216q0 44 31.5 76t76.5 32q44 0 75.5 -32t31.5 -76q0 -45 -31.5 -76t-75.5 -31q-45 0 -76.5 31t-31.5 76z" />
<glyph unicode="&#xa9;" horiz-adv-x="1540" d="M68 671q0 192 95 356q96 167 263 256.5t344 89.5q188 0 352 -93q167 -94 257 -256q94 -170 94 -353q0 -190 -94 -352q-95 -166 -259 -257q-169 -93 -350 -93q-193 0 -353 92q-164 94 -256.5 261t-92.5 349zM130 671q0 -174 86 -323.5t237 -233.5t317 -84q175 0 324.5 85 t233.5 237t84 319q0 175 -87 325.5t-239.5 233.5t-315.5 83q-170 0 -320 -86q-152 -88 -234 -234q-86 -154 -86 -322zM317 665q0 209 143 337q138 122 350 122q69 0 183 -38q24 -8 37 -8q30 0 48 45h40l20 -278h-39q-70 234 -300 234q-159 0 -244 -117q-74 -103 -74 -268 q0 -180 71 -285q85 -124 257 -124q193 0 309 161l36 -19q-137 -201 -379 -201q-199 0 -328.5 120.5t-129.5 318.5z" />
<glyph unicode="&#xab;" d="M63 459l383 466h57l-242 -466l242 -467h-57zM503 459l390 466h57l-240 -466l240 -467h-57z" />
<glyph unicode="&#xae;" horiz-adv-x="1540" d="M68 671q0 192 95 356q96 167 263 256.5t344 89.5q188 0 352 -93q167 -94 257 -256q94 -170 94 -353q0 -190 -94 -352q-95 -166 -259 -257q-169 -93 -350 -93q-193 0 -353 92q-164 94 -256.5 261t-92.5 349zM130 671q0 -174 86 -323.5t237 -233.5t317 -84q175 0 324.5 85 t233.5 237t84 319q0 175 -87 325.5t-239.5 233.5t-315.5 83q-170 0 -320 -86q-152 -88 -234 -234q-86 -154 -86 -322zM370 247v32q77 0 96 45q7 17 7 92v518q0 75 -3 86q-13 47 -88 47v36h382q119 0 199 -51q95 -59 95 -171q0 -162 -219 -220l206 -295q37 -52 68 -72 q18 -12 52 -15v-32h-182l-291 400h-75v-305q11 -63 117 -63v-32h-364zM617 690q193 0 253 87q29 42 29 93q0 86 -56 137.5t-143 51.5q-38 0 -83 -16v-353z" />
<glyph unicode="&#xb0;" horiz-adv-x="789" d="M83 1028q0 134 87.5 222t222.5 88t223 -88t88 -222q0 -135 -88 -221.5t-223 -86.5q-134 0 -222 87t-88 221zM168 1028q0 -101 64 -165t165 -64t165.5 64.5t64.5 164.5t-65 164.5t-165 64.5t-164.5 -64t-64.5 -165z" />
<glyph unicode="&#xb4;" horiz-adv-x="675" d="M234 1035l104 341h221l-292 -341h-33z" />
<glyph unicode="&#xb8;" horiz-adv-x="675" d="M185 -337q28 -4 48 -4q47 0 83 31.5t36 77.5q0 32 -23.5 53t-55.5 21q-10 0 -25 -2l109 176h60l-50 -78q124 -32 124 -145q0 -82 -67 -133q-61 -46 -146 -46q-36 0 -93 7v42z" />
<glyph unicode="&#xbb;" d="M63 -8l241 465l-241 468h58l390 -468l-390 -465h-58zM511 -8l241 465l-241 468h56l383 -468l-383 -465h-56z" />
<glyph unicode="&#x2c6;" horiz-adv-x="780" d="M27 432l314 694h105l314 -694h-158l-206 503l-230 -503h-139z" />
<glyph unicode="&#x2da;" horiz-adv-x="435" d="M-311 429q0 134 87.5 222t222.5 88t223 -88t88 -222q0 -135 -88 -221.5t-223 -86.5q-134 0 -222 87t-88 221zM-226 429q0 -101 64 -165t165 -64t165.5 64.5t64.5 164.5t-65 164.5t-165 64.5t-164.5 -64t-64.5 -165z" />
<glyph unicode="&#x2dc;" horiz-adv-x="435" d="M-524 219q122 215 302 215q73 0 237 -75q170 -58 207 -58q115 0 207 154l97 -63q-133 -235 -308 -235q-67 0 -132 29l-103 45q-120 69 -200 69q-70 0 -126 -50q-39 -35 -106 -130z" />
<glyph unicode="&#x5b0;" horiz-adv-x="145" d="M0 -132h146v-144h-146v144zM0 -361h146v-144h-146v144z" />
<glyph unicode="&#x5b1;" horiz-adv-x="644" d="M0 -132h146v-144h-146v144zM126 -361h145v-144h-145v144zM249 -132h146v-144h-146v144zM499 -132h145v-144h-145v144zM499 -361h145v-144h-145v144z" />
<glyph unicode="&#x5b2;" horiz-adv-x="628" d="M0 -132h395v-121h-395v121zM482 -132h147v-144h-147v144zM482 -361h147v-144h-147v144z" />
<glyph unicode="&#x5b3;" horiz-adv-x="628" d="M0 -132h395v-121h-144l8 -205h-119l6 205h-146v121zM482 -132h147v-144h-147v144zM482 -361h147v-144h-147v144z" />
<glyph unicode="&#x5b4;" horiz-adv-x="145" d="M0 -132h146v-144h-146v144z" />
<glyph unicode="&#x5b5;" horiz-adv-x="395" d="M0 -132h146v-144h-146v144zM249 -132h146v-144h-146v144z" />
<glyph unicode="&#x5b6;" horiz-adv-x="395" d="M0 -132h146v-144h-146v144zM126 -361h145v-144h-145v144zM249 -132h146v-144h-146v144z" />
<glyph unicode="&#x5b7;" horiz-adv-x="395" d="M0 -132h395v-121h-395v121z" />
<glyph unicode="&#x5b8;" horiz-adv-x="395" d="M0 -132h395v-121h-144l8 -205h-119l6 205h-146v121z" />
<glyph unicode="&#x5b9;" horiz-adv-x="145" d="M0 1124v143h146v-143h-146z" />
<glyph unicode="&#x5bb;" horiz-adv-x="644" d="M0 -132h146v-144h-146v144zM249 -248h146v-143h-146v143zM499 -361h145v-144h-145v144z" />
<glyph unicode="&#x5bc;" horiz-adv-x="145" d="M0 438v144h146v-144h-146z" />
<glyph unicode="&#x5bd;" horiz-adv-x="91" d="M0 -132h91v-257h-91v257z" />
<glyph unicode="&#x5be;" horiz-adv-x="814" d="M60 515v164q0 23 25 23h645q23 0 23 -23v-164q0 -24 -23 -24h-645q-25 0 -25 24z" />
<glyph unicode="&#x5bf;" horiz-adv-x="631" d="M70 940v236q0 24 25 24h401q25 0 25 -24v-236q0 -23 -25 -23h-401q-25 0 -25 23z" />
<glyph unicode="&#x5c0;" horiz-adv-x="335" d="M60 -234v1637h213v-1637h-213z" />
<glyph unicode="&#x5c1;" horiz-adv-x="1234" d="M843 1124v143h146v-143h-146z" />
<glyph unicode="&#x5c2;" horiz-adv-x="1234" d="M122 1124v143h145v-143h-145z" />
<glyph unicode="&#x5c3;" horiz-adv-x="480" d="M28 142q0 75 48.5 121.5t117.5 46.5q75 0 121.5 -44.5t46.5 -119.5q0 -79 -47.5 -125t-118.5 -46t-119.5 45t-48.5 122zM28 847q0 76 48.5 122.5t117.5 46.5q75 0 121.5 -45.5t46.5 -121.5q0 -77 -47.5 -122.5t-118.5 -45.5t-119.5 44.5t-48.5 121.5z" />
<glyph unicode="&#x5d0;" horiz-adv-x="1177" d="M36 1159q0 41 34 41h272q42 0 77 -53l270 -419q6 -10 12 -8q8 2 6 14q-5 30 -5 53q0 17 3 30l64 345q9 38 45 38h247q45 0 45 -45q0 -8 -2 -17l-66 -300q-27 -114 -78 -179q-16 -22 -133 -132l288 -467q8 -11 8 -24q0 -6 -2 -13q-4 -23 -27 -23h-273q-47 0 -76 47 l-305 504q-7 10 -15 8t-6 -12q5 -38 5 -70q0 -24 -3 -45l-53 -391q-6 -41 -46 -41h-246q-37 0 -37 33q0 5 1 10l59 425q14 99 72 171q21 24 130 117l-257 378q-8 11 -8 25z" />
<glyph unicode="&#x5d1;" horiz-adv-x="1095" d="M60 43v203q0 44 49 44h476v472q0 81 -56.5 131.5t-141.5 50.5q-106 0 -213 -62q-14 -8 -24 -8q-18 0 -24 26l-54 191q-6 24 -4 33q4 8 25 19q142 80 366 80q234 0 358 -122q116 -116 116 -325v-486h64q39 0 39 -42v-209q0 -39 -35 -39h-902q-39 0 -39 43z" />
<glyph unicode="&#x5d2;" horiz-adv-x="861" d="M32 174q-4 13 -4 23q0 27 30 34q84 22 188 90t141 125l-27 326q-8 106 -66 145q-39 23 -126 27q-30 2 -34 19q-2 8 2 47l21 172q7 43 72 43q276 0 389 -132q83 -97 93 -280q13 -209 19 -277q12 -128 32 -222q28 -128 61 -196q8 -17 8 -31q0 -31 -30 -40l-203 -65 q-13 -4 -24 -4q-26 0 -43 25q-24 36 -74 179q-133 -186 -313 -215q-11 -2 -19 -2q-10 0 -14 3q-8 5 -16 30z" />
<glyph unicode="&#x5d3;" horiz-adv-x="1086" d="M50 953v202q0 45 49 45h847q49 0 49 -43v-209q0 -37 -45 -37h-99v-870q0 -41 -38 -41h-278q-34 0 -34 45v866h-412q-39 0 -39 42z" />
<glyph unicode="&#x5d4;" horiz-adv-x="1124" d="M54 1117q2 13 27 24q165 90 418 90q529 0 529 -457v-731q0 -43 -41 -43h-257q-49 0 -49 47v695q0 197 -235 197q-162 0 -280 -63q-15 -9 -27 -9q-22 0 -30 31l-51 183q-5 17 -5 28q0 5 1 8zM93 50v593q0 50 53 50h239q53 0 53 -50v-593q0 -50 -55 -50h-241q-49 0 -49 50z " />
<glyph unicode="&#x5d5;" horiz-adv-x="546" d="M97 50v1099q0 51 52 51h252q45 0 45 -51v-1099q0 -50 -47 -50h-253q-49 0 -49 50z" />
<glyph unicode="&#x5d6;" horiz-adv-x="755" d="M42 967q-2 2 -2 8q0 8 4 23l46 196q6 27 30 27q7 0 15 -2q131 -35 253 -35q145 0 234 21q32 8 40 -31l37 -183q1 -6 1 -12q0 -23 -20 -33q-109 -54 -136 -114q-17 -41 -17 -182v-598q0 -52 -43 -52h-255q-33 0 -40.5 12.5t-7.5 39.5v402q0 173 21 248q35 121 147 198 q-19 -2 -56 -2q-58 0 -129.5 14.5t-95.5 32.5t-26 22z" />
<glyph unicode="&#x5d7;" horiz-adv-x="1181" d="M72 47l59 906l-47 107q-8 21 -8 35q0 27 39 46q150 80 468 80q261 0 380 -95.5t125 -314.5l23 -768q2 -43 -41 -43h-264q-30 0 -38.5 6t-8.5 37l-17 768q-2 79 -55 108q-39 21 -122 21q-48 0 -91 -13l-49 -882q-2 -45 -47 -45h-263q-45 0 -43 47z" />
<glyph unicode="&#x5d8;" horiz-adv-x="1184" d="M64 1145q-2 55 47 55h249q53 0 55 -47l31 -606q7 -172 48 -239q31 -55 98 -55q172 0 172 395q0 265 -92 265q-22 0 -58 -23q-12 -8 -27 -4q-16 2 -18 16l-38 217q-1 5 -1 10q0 28 29 49q63 41 192 41q155 0 252 -116q116 -138 116 -414q0 -339 -151 -526.5t-407 -187.5 q-220 0 -334 139t-130 439z" />
<glyph unicode="&#x5d9;" horiz-adv-x="524" d="M87 493v656q0 29 9 40t44 11h251q43 0 43 -41v-549q0 -55 -45 -68l-253 -80q-12 -3 -20 -3q-29 0 -29 34z" />
<glyph unicode="&#x5da;" horiz-adv-x="1066" d="M46 1074q-3 10 -3 18q0 26 27 42q155 89 393 89q244 0 378 -120q127 -116 127 -323v-1151q0 -35 -30 -35h-286q-30 0 -30 35v1103q0 108 -68 162q-60 48 -159 48q-133 0 -246 -70q-36 -23 -46 10z" />
<glyph unicode="&#x5db;" horiz-adv-x="973" d="M42 1081q-5 11 -5 21q0 21 19 36q103 81 312 81q270 0 402 -134q148 -150 148 -483q0 -335 -161 -492q-137 -135 -375 -135q-178 0 -285 50q-36 15 -36 40q0 5 1 10l45 188q8 37 37 37q7 0 15 -4q89 -35 167 -35q116 0 168 58q71 76 71 283q0 187 -59 263q-53 68 -170 68 q-86 0 -160 -43q-19 -10 -32 -10q-25 0 -35 26z" />
<glyph unicode="&#x5dc;" horiz-adv-x="1023" d="M10 1464q-1 11 -1 18q0 16 3 20q4 5 37 7l257 20h6q34 0 36 -43l18 -286h479q94 0 94 -89q0 -16 -2 -41l-70 -555q-31 -264 -163.5 -393.5t-399.5 -148.5q-8 -1 -15 -1q-18 0 -25 4q-9 6 -15 32l-40 195q-2 9 -2 17q0 33 37 33q259 0 281 215l44 441h-482q-38 0 -42 48z " />
<glyph unicode="&#x5dd;" horiz-adv-x="1195" d="M50 1095q0 27 41 46q151 80 478 80q262 0 386.5 -99.5t131.5 -318.5l20 -741q0 -62 -41 -62h-955q-43 0 -43 57v10l43 886l-51 107q-10 21 -10 35zM422 269h328l-10 544q-2 79 -57 108q-39 19 -122 19q-73 0 -115 -13z" />
<glyph unicode="&#x5de;" horiz-adv-x="1236" d="M45 1002q0 10 9 30l98 193q14 26 30 28h3q10 0 38 -9q102 -27 197 -106q135 93 332 93q156 0 256 -90q113 -102 124 -311l17 -378q1 -23 1 -46q0 -420 -414 -420q-93 0 -156 24q-23 8 -25 15q-4 8 0 35l33 201q6 37 47 27q52 -15 58 -15q118 0 118 111v7l-16 400 q-4 74 -53 113q-36 31 -79 31q-81 0 -152 -51l-73 -839q-4 -45 -51 -45h-257q-35 0 -35 48v10l61 733q1 13 1 25q0 104 -76 151q-36 22 -36 35z" />
<glyph unicode="&#x5df;" horiz-adv-x="551" d="M101 -354v1503q0 51 52 51h252q44 0 44 -51v-1503q0 -52 -46 -52h-254q-48 0 -48 52z" />
<glyph unicode="&#x5e0;" horiz-adv-x="729" d="M58 43v203q0 44 39 44h188v511q0 136 -164 136q-36 0 -36 36q0 7 2 16l26 183q6 43 61 49q11 2 29 2q27 0 68 -4q362 -29 362 -420v-750q0 -49 -39 -49h-497q-39 0 -39 43z" />
<glyph unicode="&#x5e1;" horiz-adv-x="1221" d="M47 1113q0 25 28 36q91 37 262 62q147 20 271 20q294 0 418 -116q133 -124 133 -428q0 -316 -137 -511q-148 -207 -406 -207q-237 0 -359 161q-117 150 -123 429l-10 412q-6 8 -64 101q-13 23 -13 41zM466 921l8 -358q4 -135 37 -218q40 -97 110 -97q186 0 186 395 q0 183 -42.5 245.5t-170.5 62.5q-81 0 -128 -30z" />
<glyph unicode="&#x5e2;" horiz-adv-x="1147" d="M18 67q0 28 36 43l191 76l-193 944q-2 13 -2 23q0 47 45 47h257q53 0 61 -49l134 -843q130 55 138 249l26 588q2 37 15.5 46t49.5 9h250q40 0 40 -50v-9l-26 -456q-16 -283 -169 -445q-116 -124 -391 -240l-338 -142q-21 -8 -31 -8q-18 0 -31 30l-58 165q-4 11 -4 22z " />
<glyph unicode="&#x5e3;" horiz-adv-x="1181" d="M58 1101q0 25 35 40q186 90 470 90q260 0 385 -101q136 -110 136 -347v-1137q0 -52 -46 -52h-254q-48 0 -48 52v1116q0 122 -40 166.5t-139 44.5q-28 0 -87 -18v-160q0 -61 8 -82.5t35 -21.5q20 0 50 11q33 10 39 -27l26 -139q2 -9 2 -17q0 -28 -24 -43q-81 -46 -201 -46 q-130 0 -203 69q-78 70 -78 207v263l-52 93q-14 25 -14 39z" />
<glyph unicode="&#x5e4;" horiz-adv-x="1165" d="M58 1101q0 25 35 40q186 90 450 90q272 0 401 -124q161 -152 161 -527q0 -296 -163 -458q-154 -155 -419 -155q-280 0 -406 98q-20 16 -20 39q0 10 4 22l75 186q8 21 26 21q15 0 39 -17q98 -68 233 -68q148 0 207 56q75 73 75 284q0 235 -55 318q-45 67 -154 67 q-28 0 -87 -18v-160q0 -61 8 -82.5t35 -21.5q20 0 50 11q32 10 39 -27l26 -139q2 -9 2 -16q0 -29 -24 -44q-81 -46 -191 -46q-130 0 -203 69q-78 70 -78 207v263l-52 93q-14 25 -14 39z" />
<glyph unicode="&#x5e5;" horiz-adv-x="1145" d="M36 1162q0 38 50 38h260q42 0 61 -38l126 -276q42 -95 79 -188q22 43 30 68q12 47 32 178l33 215q4 29 18 35q9 6 40 6h273q34 0 34 -33q0 -9 -3 -22l-64 -309q-29 -141 -120 -224q-35 -34 -199 -140q50 -160 50 -352v-472q0 -54 -50 -54h-244q-43 0 -43 45v456 q0 304 -141 594l-214 445q-8 15 -8 28z" />
<glyph unicode="&#x5e6;" horiz-adv-x="1100" d="M14 1164q0 36 42 36h262q32 0 44.5 -7t22.5 -42q85 -288 217 -488q10 26 29 144l54 350q6 43 55 43h255q37 0 37 -37q0 -8 -2 -18l-80 -391q-15 -75 -73 -135l-134 -124q62 -75 207 -232q33 -29 33 -77v-117q0 -69 -56 -69h-826q-37 0 -37 39v212q0 39 41 39h464 q-224 197 -344 383q-108 169 -203 453q-8 21 -8 38z" />
<glyph unicode="&#x5e7;" horiz-adv-x="1177" d="M58 1099q-2 9 -2 16q0 28 31 42q148 70 472 70q277 0 393 -70q159 -93 159 -354q0 -412 -156 -645q-108 -164 -303 -164q-44 0 -71.5 12t-27.5 52l4 199q0 23 19 25l38 4q47 10 69 53q69 135 69 383q0 129 -69 176q-52 37 -190 37q-164 0 -325 -55q-10 -4 -18 -4 q-27 0 -38 37zM103 -350v1025q0 57 43 57h239q59 0 59 -55v-1027h2q0 -56 -57 -56h-231q-55 0 -55 56z" />
<glyph unicode="&#x5e8;" horiz-adv-x="1015" d="M30 1091q-3 8 -3 16q0 22 23 36q120 80 378 80q240 0 368 -124q122 -118 122 -329v-735q0 -35 -30 -35h-286q-31 0 -31 35v706q0 201 -217 201q-131 0 -214 -56q-10 -8 -27 -6q-16 2 -20 16z" />
<glyph unicode="&#x5e9;" horiz-adv-x="1465" d="M68 1145v8q0 47 47 47h243q47 0 49 -47l21 -488q4 -106 12 -131q113 50 119 285l6 326q0 25 8 40t51 15h199q58 0 56 -55l-16 -354q-8 -166 -120 -272q-93 -89 -277 -152q47 -129 213 -129q154 0 227 70q87 83 103 296l38 551q4 45 64 45h225q47 0 47 -56q0 -7 -1 -14 l-39 -515q-29 -371 -216 -520q-154 -122 -457 -122q-261 0 -387 108q-153 136 -176 482z" />
<glyph unicode="&#x5ea;" horiz-adv-x="1230" d="M24 158q-2 10 -2 18q0 37 36 37q147 0 151 176l10 501l-57 -18q-15 -5 -27 -5q-23 0 -28 21l-51 193q-7 32 -6 41q2 16 29 25q78 35 241.5 59.5t310.5 24.5q246 0 364 -80q143 -97 146 -330l12 -776q0 -31 -7 -39t-31 -8l-260 2q-50 0 -50 49l-15 768q-4 140 -151 140 q-37 0 -82 -11l-12 -601q-8 -399 -440 -399q-45 0 -51 34z" />
<glyph unicode="&#x5f0;" horiz-adv-x="1092" d="M97 50v1099q0 51 52 51h252q45 0 45 -51v-1099q0 -50 -47 -50h-253q-49 0 -49 50zM643 50v1099q0 51 52 51h252q45 0 45 -51v-1099q0 -50 -47 -50h-253q-49 0 -49 50z" />
<glyph unicode="&#x5f1;" horiz-adv-x="1071" d="M87 493v656q0 29 9 40t44 11h251q43 0 43 -41v-549q0 -55 -45 -68l-253 -80q-12 -3 -20 -3q-29 0 -29 34zM622 50v1099q0 51 52 51h252q45 0 45 -51v-1099q0 -50 -47 -50h-253q-49 0 -49 50z" />
<glyph unicode="&#x5f2;" horiz-adv-x="1049" d="M87 493v656q0 29 9 40t44 11h251q43 0 43 -41v-549q0 -55 -45 -68l-253 -80q-12 -3 -20 -3q-29 0 -29 34zM612 493v656q0 29 9 40t44 11h251q43 0 43 -41v-549q0 -55 -45 -68l-253 -80q-12 -3 -20 -3q-29 0 -29 34z" />
<glyph unicode="&#x5f3;" horiz-adv-x="378" d="M40 971l98 445q7 28 24 28q4 0 9 -1l185 -50q27 -7 27 -33q0 -17 -11 -42l-184 -395q-13 -28 -33 -28q-3 0 -7 1l-86 21q-24 6 -24 34q0 9 2 20z" />
<glyph unicode="&#x5f4;" horiz-adv-x="731" d="M40 971l98 445q7 28 24 28q4 0 9 -1l185 -50q27 -7 27 -33q0 -17 -11 -42l-184 -395q-13 -28 -33 -28q-3 0 -7 1l-86 21q-24 6 -24 34q0 9 2 20zM384 971l98 445q7 28 26 28q4 0 9 -1l184 -50q27 -7 27 -34q0 -16 -11 -41l-184 -395q-12 -28 -33 -28q-4 0 -8 1l-85 21 q-25 6 -25 35q0 8 2 19z" />
<glyph unicode="&#x2013;" d="M-17 448v73h1049v-73h-1049z" />
<glyph unicode="&#x2014;" horiz-adv-x="2027" d="M60 491v211h1906v-211h-1906z" />
<glyph unicode="&#x2018;" horiz-adv-x="378" d="M40 971l98 445q7 28 24 28q4 0 9 -1l185 -50q27 -7 27 -33q0 -17 -11 -42l-184 -395q-13 -28 -33 -28q-3 0 -7 1l-86 21q-24 6 -24 34q0 9 2 20z" />
<glyph unicode="&#x2019;" horiz-adv-x="378" d="M40 971l98 445q7 28 24 28q4 0 9 -1l185 -50q27 -7 27 -33q0 -17 -11 -42l-184 -395q-13 -28 -33 -28q-3 0 -7 1l-86 21q-24 6 -24 34q0 9 2 20z" />
<glyph unicode="&#x201a;" horiz-adv-x="378" d="M40 971l98 445q7 28 24 28q4 0 9 -1l185 -50q27 -7 27 -33q0 -17 -11 -42l-184 -395q-13 -28 -33 -28q-3 0 -7 1l-86 21q-24 6 -24 34q0 9 2 20z" />
<glyph unicode="&#x201c;" horiz-adv-x="731" d="M40 971l98 445q7 28 24 28q4 0 9 -1l185 -50q27 -7 27 -33q0 -17 -11 -42l-184 -395q-13 -28 -33 -28q-3 0 -7 1l-86 21q-24 6 -24 34q0 9 2 20zM384 971l98 445q7 28 26 28q4 0 9 -1l184 -50q27 -7 27 -34q0 -16 -11 -41l-184 -395q-12 -28 -33 -28q-4 0 -8 1l-85 21 q-25 6 -25 35q0 8 2 19z" />
<glyph unicode="&#x201d;" horiz-adv-x="731" d="M40 971l98 445q7 28 24 28q4 0 9 -1l185 -50q27 -7 27 -33q0 -17 -11 -42l-184 -395q-13 -28 -33 -28q-3 0 -7 1l-86 21q-24 6 -24 34q0 9 2 20zM384 971l98 445q7 28 26 28q4 0 9 -1l184 -50q27 -7 27 -34q0 -16 -11 -41l-184 -395q-12 -28 -33 -28q-4 0 -8 1l-85 21 q-25 6 -25 35q0 8 2 19z" />
<glyph unicode="&#x201e;" horiz-adv-x="731" d="M40 971l98 445q7 28 24 28q4 0 9 -1l185 -50q27 -7 27 -33q0 -17 -11 -42l-184 -395q-13 -28 -33 -28q-3 0 -7 1l-86 21q-24 6 -24 34q0 9 2 20zM384 971l98 445q7 28 26 28q4 0 9 -1l184 -50q27 -7 27 -34q0 -16 -11 -41l-184 -395q-12 -28 -33 -28q-4 0 -8 1l-85 21 q-25 6 -25 35q0 8 2 19z" />
<glyph unicode="&#x2026;" horiz-adv-x="2027" d="M228 82q0 47 31.5 78.5t78.5 31.5q46 0 77.5 -31.5t31.5 -78.5q0 -45 -32 -77.5t-77 -32.5q-46 0 -78 32.5t-32 77.5zM904 82q0 47 31.5 78.5t78.5 31.5q45 0 77.5 -32t32.5 -78q0 -45 -32.5 -77.5t-77.5 -32.5q-46 0 -78 32.5t-32 77.5zM1580 82q0 47 31.5 78.5 t78.5 31.5q45 0 77.5 -32t32.5 -78q0 -45 -32.5 -77.5t-77.5 -32.5q-46 0 -78 32.5t-32 77.5z" />
<glyph unicode="&#x2039;" horiz-adv-x="675" d="M118 459l383 466h56l-241 -466l241 -467h-56z" />
<glyph unicode="&#x203a;" horiz-adv-x="675" d="M114 -8l240 465l-240 468h57l390 -468l-390 -465h-57z" />
<glyph unicode="&#x2122;" horiz-adv-x="1986" d="M30 1143l20 199h721l22 -199h-34q-19 140 -192 140h-74v-573q0 -75 16 -99q20 -29 89 -32v-35h-370v35q67 6 85 34q14 22 14 96v574h-76q-86 0 -126 -27q-46 -30 -62 -113h-33zM861 544v35q85 0 103 41q9 21 9 89v461q0 107 -36 126q-19 10 -76 10v36h283l271 -566 l262 566h276v-36q-40 -1 -59 -6q-30 -8 -42 -37q-9 -22 -9 -91v-463q0 -79 16 -100q20 -26 94 -30v-35h-394v35q44 1 63 6q33 9 46 38q9 20 9 85v487l-304 -651h-32l-304 642v-477q0 -98 35 -119q19 -11 57 -11h35v-35h-303z" />
<glyph unicode="&#xe000;" horiz-adv-x="905" d="M0 905h905v-905h-905v905z" />
<glyph unicode="&#xfb00;" horiz-adv-x="1350" d="M78 836v71h176v59q0 268 178 382q89 58 201 58q104 0 191 -68q57 -44 57 -100q0 -29 -25.5 -55.5t-55.5 -26.5q-17 0 -109 89.5t-137 89.5q-96 0 -122 -99q-14 -52 -14 -264v-65h233v-71h-233v-596q0 -127 28 -161q36 -43 98 -43h82v-36h-542v36h41q91 0 118 73 q11 33 11 131v596h-176zM753 836v71h176v59q0 268 178 382q89 58 201 58q104 0 191 -68q57 -44 57 -100q0 -29 -25.5 -55.5t-55.5 -26.5q-17 0 -109 89.5t-137 89.5q-96 0 -122 -99q-14 -52 -14 -264v-65h233v-71h-233v-596q0 -127 28 -161q36 -43 98 -43h82v-36h-542v36h41 q91 0 118 73q11 33 11 131v596h-176z" />
<glyph unicode="&#xfb01;" horiz-adv-x="1238" d="M78 836v71h176v59q0 268 178 382q89 58 201 58q104 0 191 -68q57 -44 57 -100q0 -29 -25.5 -55.5t-55.5 -26.5q-17 0 -109 89.5t-137 89.5q-96 0 -122 -99q-14 -52 -14 -264v-65h233v-71h-233v-596q0 -127 28 -161q36 -43 98 -43h82v-36h-542v36h41q91 0 118 73 q11 33 11 131v596h-176zM734 823l274 111h43v-729q0 -128 50 -155q24 -14 88 -14v-36h-441v36q101 0 126 55q13 29 13 114v349q0 149 -9 191q-12 57 -62 57q-28 0 -68 -15zM868 1308q0 42 29 71t72 29q42 0 71 -29.5t29 -70.5q0 -42 -29 -71.5t-71 -29.5t-71.5 29.5 t-29.5 71.5z" />
<glyph unicode="&#xfb02;" horiz-adv-x="1238" d="M78 836v71h176v59q0 268 178 382q89 58 201 58q104 0 191 -68q57 -44 57 -100q0 -29 -25.5 -55.5t-55.5 -26.5q-17 0 -109 89.5t-137 89.5q-96 0 -122 -99q-14 -52 -14 -264v-65h233v-71h-233v-596q0 -127 28 -161q36 -43 98 -43h82v-36h-542v36h41q91 0 118 73 q11 33 11 131v596h-176zM735 1297l271 111h44v-1203q0 -127 51 -155q26 -14 96 -14v-36h-445v36q97 0 121 55q13 30 13 114v824q0 212 -29 236q-15 13 -39 13q-26 0 -66 -16z" />
<glyph unicode="&#xfb03;" horiz-adv-x="1913" d="M78 836v71h176v59q0 268 178 382q89 58 201 58q104 0 191 -68q57 -44 57 -100q0 -29 -25.5 -55.5t-55.5 -26.5q-17 0 -109 89.5t-137 89.5q-96 0 -122 -99q-14 -52 -14 -264v-65h233v-71h-233v-596q0 -127 28 -161q36 -43 98 -43h82v-36h-542v36h41q91 0 118 73 q11 33 11 131v596h-176zM753 836v71h176v59q0 268 178 382q89 58 201 58q104 0 191 -68q57 -44 57 -100q0 -29 -25.5 -55.5t-55.5 -26.5q-17 0 -109 89.5t-137 89.5q-96 0 -122 -99q-14 -52 -14 -264v-65h233v-71h-233v-596q0 -127 28 -161q36 -43 98 -43h82v-36h-542v36h41 q91 0 118 73q11 33 11 131v596h-176zM1409 823l274 111h43v-729q0 -128 50 -155q24 -14 88 -14v-36h-441v36q101 0 126 55q13 29 13 114v349q0 149 -9 191q-12 57 -62 57q-28 0 -68 -15zM1543 1308q0 42 29 71t72 29q42 0 71 -29.5t29 -70.5q0 -42 -29 -71.5t-71 -29.5 t-71.5 29.5t-29.5 71.5z" />
<glyph unicode="&#xfb04;" horiz-adv-x="1913" d="M78 836v71h176v59q0 268 178 382q89 58 201 58q104 0 191 -68q57 -44 57 -100q0 -29 -25.5 -55.5t-55.5 -26.5q-17 0 -109 89.5t-137 89.5q-96 0 -122 -99q-14 -52 -14 -264v-65h233v-71h-233v-596q0 -127 28 -161q36 -43 98 -43h82v-36h-542v36h41q91 0 118 73 q11 33 11 131v596h-176zM753 836v71h176v59q0 268 178 382q89 58 201 58q104 0 191 -68q57 -44 57 -100q0 -29 -25.5 -55.5t-55.5 -26.5q-17 0 -109 89.5t-137 89.5q-96 0 -122 -99q-14 -52 -14 -264v-65h233v-71h-233v-596q0 -127 28 -161q36 -43 98 -43h82v-36h-542v36h41 q91 0 118 73q11 33 11 131v596h-176zM1410 1297l271 111h44v-1203q0 -127 51 -155q26 -14 96 -14v-36h-445v36q97 0 121 55q13 30 13 114v824q0 212 -29 236q-15 13 -39 13q-26 0 -66 -16z" />
<glyph unicode="&#xfb06;" horiz-adv-x="1352" d="M99 671q0 117 80 190q77 73 195 73q54 0 130 -23q50 -15 67 -15q27 0 46 38h32v-309h-32q-32 120 -77 176q-61 74 -170 74q-57 0 -103 -30q-51 -33 -51 -88q0 -105 156 -181l145 -70q201 -98 201 -258q0 -127 -89 -203q-85 -73 -214 -73q-85 0 -190 30q-35 10 -54 10 q-23 0 -35 -26h-33v324h33q23 -120 91 -194q76 -85 190 -85q62 0 108 37.5t46 98.5q0 82 -84 146q-42 32 -162 90q-106 51 -156 99q-70 68 -70 169zM809 838v32q122 49 213 197q20 34 63 138h31v-298h212v-69h-212v-589q0 -149 90 -149q77 0 111 80h38q-69 -195 -228 -195 q-110 0 -154 98q-21 47 -21 145v610h-143z" />
<glyph unicode="&#xfb1d;" horiz-adv-x="670" d="M0 -132h146v-144h-146v144zM233 493v656q0 29 9 40t44 11h251q43 0 43 -41v-549q0 -55 -45 -68l-253 -80q-12 -3 -20 -3q-29 0 -29 34z" />
<glyph unicode="&#xfb1f;" horiz-adv-x="1444" d="M0 -132h395v-121h-395v121zM482 493v656q0 29 9 40t44 11h251q43 0 43 -41v-549q0 -55 -45 -68l-253 -80q-12 -3 -20 -3q-29 0 -29 34zM1007 493v656q0 29 9 40t44 11h251q43 0 43 -41v-549q0 -55 -45 -68l-253 -80q-12 -3 -20 -3q-29 0 -29 34z" />
<glyph unicode="&#xfb20;" horiz-adv-x="1147" d="M18 67q0 28 36 43l191 76l-193 944q-2 13 -2 23q0 47 45 47h257q53 0 61 -49l134 -843q130 55 138 249l26 588q2 37 15.5 46t49.5 9h250q40 0 40 -50v-9l-26 -456q-16 -283 -169 -445q-116 -124 -391 -240l-338 -142q-21 -8 -31 -8q-18 0 -31 30l-58 165q-4 11 -4 22z " />
<glyph unicode="&#xfb21;" horiz-adv-x="1177" d="M36 1159q0 41 34 41h272q42 0 77 -53l270 -419q6 -10 12 -8q8 2 6 14q-5 30 -5 53q0 17 3 30l64 345q9 38 45 38h247q45 0 45 -45q0 -8 -2 -17l-66 -300q-27 -114 -78 -179q-16 -22 -133 -132l288 -467q8 -11 8 -24q0 -6 -2 -13q-4 -23 -27 -23h-273q-47 0 -76 47 l-305 504q-7 10 -15 8t-6 -12q5 -38 5 -70q0 -24 -3 -45l-53 -391q-6 -41 -46 -41h-246q-37 0 -37 33q0 5 1 10l59 425q14 99 72 171q21 24 130 117l-257 378q-8 11 -8 25z" />
<glyph unicode="&#xfb22;" horiz-adv-x="1086" d="M50 953v202q0 45 49 45h847q49 0 49 -43v-209q0 -37 -45 -37h-99v-870q0 -41 -38 -41h-278q-34 0 -34 45v866h-412q-39 0 -39 42z" />
<glyph unicode="&#xfb23;" horiz-adv-x="1124" d="M54 1117q2 13 27 24q165 90 418 90q529 0 529 -457v-731q0 -43 -41 -43h-257q-49 0 -49 47v695q0 197 -235 197q-162 0 -280 -63q-15 -9 -27 -9q-22 0 -30 31l-51 183q-5 17 -5 28q0 5 1 8zM93 50v593q0 50 53 50h239q53 0 53 -50v-593q0 -50 -55 -50h-241q-49 0 -49 50z " />
<glyph unicode="&#xfb24;" horiz-adv-x="973" d="M42 1081q-5 11 -5 21q0 21 19 36q103 81 312 81q270 0 402 -134q148 -150 148 -483q0 -335 -161 -492q-137 -135 -375 -135q-178 0 -285 50q-36 15 -36 40q0 5 1 10l45 188q8 37 37 37q7 0 15 -4q89 -35 167 -35q116 0 168 58q71 76 71 283q0 187 -59 263q-53 68 -170 68 q-86 0 -160 -43q-19 -10 -32 -10q-25 0 -35 26z" />
<glyph unicode="&#xfb25;" horiz-adv-x="1023" d="M10 1464q-1 11 -1 18q0 16 3 20q4 5 37 7l257 20h6q34 0 36 -43l18 -286h479q94 0 94 -89q0 -16 -2 -41l-70 -555q-31 -264 -163.5 -393.5t-399.5 -148.5q-8 -1 -15 -1q-18 0 -25 4q-9 6 -15 32l-40 195q-2 9 -2 17q0 33 37 33q259 0 281 215l44 441h-482q-38 0 -42 48z " />
<glyph unicode="&#xfb26;" horiz-adv-x="1195" d="M50 1095q0 27 41 46q151 80 478 80q262 0 386.5 -99.5t131.5 -318.5l20 -741q0 -62 -41 -62h-955q-43 0 -43 57v10l43 886l-51 107q-10 21 -10 35zM422 269h328l-10 544q-2 79 -57 108q-39 19 -122 19q-73 0 -115 -13z" />
<glyph unicode="&#xfb27;" horiz-adv-x="1015" d="M30 1091q-3 8 -3 16q0 22 23 36q120 80 378 80q240 0 368 -124q122 -118 122 -329v-735q0 -35 -30 -35h-286q-31 0 -31 35v706q0 201 -217 201q-131 0 -214 -56q-10 -8 -27 -6q-16 2 -20 16z" />
<glyph unicode="&#xfb28;" horiz-adv-x="1230" d="M24 158q-2 10 -2 18q0 37 36 37q147 0 151 176l10 501l-57 -18q-15 -5 -27 -5q-23 0 -28 21l-51 193q-7 32 -6 41q2 16 29 25q78 35 241.5 59.5t310.5 24.5q246 0 364 -80q143 -97 146 -330l12 -776q0 -31 -7 -39t-31 -8l-260 2q-50 0 -50 49l-15 768q-4 140 -151 140 q-37 0 -82 -11l-12 -601q-8 -399 -440 -399q-45 0 -51 34z" />
<glyph unicode="&#xfb29;" horiz-adv-x="814" d="M40 515v164q0 25 24 25h239v233q13 24 25 24h162q24 0 24 -24v-233l235 -2q24 0 24 -23v-164q0 -24 -24 -24h-235v-240q0 -24 -24 -24h-162v2q-25 0 -25 22v240h-239q-24 0 -24 24z" />
<glyph unicode="&#xfb2a;" horiz-adv-x="2699" d="M843 1124v143h146v-143h-146zM1303 1145v8q0 47 47 47h243q47 0 49 -47l21 -488q4 -106 12 -131q113 50 119 285l6 326q0 25 8 40t51 15h199q58 0 56 -55l-16 -354q-8 -166 -120 -272q-93 -89 -277 -152q47 -129 213 -129q154 0 227 70q87 83 103 296l38 551q4 45 64 45 h225q47 0 47 -56q0 -7 -1 -14l-39 -515q-29 -371 -216 -520q-154 -122 -457 -122q-261 0 -387 108q-153 136 -176 482z" />
<glyph unicode="&#xfb2b;" horiz-adv-x="2699" d="M122 1124v143h145v-143h-145zM1303 1145v8q0 47 47 47h243q47 0 49 -47l21 -488q4 -106 12 -131q113 50 119 285l6 326q0 25 8 40t51 15h199q58 0 56 -55l-16 -354q-8 -166 -120 -272q-93 -89 -277 -152q47 -129 213 -129q154 0 227 70q87 83 103 296l38 551q4 45 64 45 h225q47 0 47 -56q0 -7 -1 -14l-39 -515q-29 -371 -216 -520q-154 -122 -457 -122q-261 0 -387 108q-153 136 -176 482z" />
<glyph unicode="&#xfb2e;" horiz-adv-x="1572" d="M0 -132h395v-121h-395v121zM431 1159q0 41 34 41h272q42 0 77 -53l270 -419q6 -10 12 -8q8 2 6 14q-5 30 -5 53q0 17 3 30l64 345q9 38 45 38h247q45 0 45 -45q0 -8 -2 -17l-66 -300q-27 -114 -78 -179q-16 -22 -133 -132l288 -467q8 -11 8 -24q0 -6 -2 -13 q-4 -23 -27 -23h-273q-47 0 -76 47l-305 504q-7 10 -15 8t-6 -12q5 -38 5 -70q0 -24 -3 -45l-53 -391q-6 -41 -46 -41h-246q-37 0 -37 33q0 5 1 10l59 425q14 99 72 171q21 24 130 117l-257 378q-8 11 -8 25z" />
<glyph unicode="&#xfb2f;" horiz-adv-x="1572" d="M0 -132h395v-121h-144l8 -205h-119l6 205h-146v121zM431 1159q0 41 34 41h272q42 0 77 -53l270 -419q6 -10 12 -8q8 2 6 14q-5 30 -5 53q0 17 3 30l64 345q9 38 45 38h247q45 0 45 -45q0 -8 -2 -17l-66 -300q-27 -114 -78 -179q-16 -22 -133 -132l288 -467q8 -11 8 -24 q0 -6 -2 -13q-4 -23 -27 -23h-273q-47 0 -76 47l-305 504q-7 10 -15 8t-6 -12q5 -38 5 -70q0 -24 -3 -45l-53 -391q-6 -41 -46 -41h-246q-37 0 -37 33q0 5 1 10l59 425q14 99 72 171q21 24 130 117l-257 378q-8 11 -8 25z" />
<glyph unicode="&#xfb30;" horiz-adv-x="1322" d="M0 438v144h146v-144h-146zM182 1159q0 41 34 41h272q42 0 77 -53l270 -419q6 -10 12 -8q8 2 6 14q-5 30 -5 53q0 17 3 30l64 345q9 38 45 38h247q45 0 45 -45q0 -8 -2 -17l-66 -300q-27 -114 -78 -179q-16 -22 -133 -132l288 -467q8 -11 8 -24q0 -6 -2 -13 q-4 -23 -27 -23h-273q-47 0 -76 47l-305 504q-7 10 -15 8t-6 -12q5 -38 5 -70q0 -24 -3 -45l-53 -391q-6 -41 -46 -41h-246q-37 0 -37 33q0 5 1 10l59 425q14 99 72 171q21 24 130 117l-257 378q-8 11 -8 25z" />
<glyph unicode="&#xfb31;" horiz-adv-x="1241" d="M0 438v144h146v-144h-146zM206 43v203q0 44 49 44h476v472q0 81 -56.5 131.5t-141.5 50.5q-106 0 -213 -62q-14 -8 -24 -8q-18 0 -24 26l-54 191q-6 24 -4 33q4 8 25 19q142 80 366 80q234 0 358 -122q116 -116 116 -325v-486h64q39 0 39 -42v-209q0 -39 -35 -39h-902 q-39 0 -39 43z" />
<glyph unicode="&#xfb32;" horiz-adv-x="1006" d="M0 438v144h146v-144h-146zM178 174q-4 13 -4 23q0 27 30 34q84 22 188 90t141 125l-27 326q-8 106 -66 145q-39 23 -126 27q-30 2 -34 19q-2 8 2 47l21 172q7 43 72 43q276 0 389 -132q83 -97 93 -280q13 -209 19 -277q12 -128 32 -222q28 -128 61 -196q8 -17 8 -31 q0 -31 -30 -40l-203 -65q-13 -4 -24 -4q-26 0 -43 25q-24 36 -74 179q-133 -186 -313 -215q-11 -2 -19 -2q-10 0 -14 3q-8 5 -16 30z" />
<glyph unicode="&#xfb33;" horiz-adv-x="1231" d="M0 438v144h146v-144h-146zM196 953v202q0 45 49 45h847q49 0 49 -43v-209q0 -37 -45 -37h-99v-870q0 -41 -38 -41h-278q-34 0 -34 45v866h-412q-39 0 -39 42z" />
<glyph unicode="&#xfb34;" horiz-adv-x="1270" d="M0 438v144h146v-144h-146zM200 1117q2 13 27 24q165 90 418 90q529 0 529 -457v-731q0 -43 -41 -43h-257q-49 0 -49 47v695q0 197 -235 197q-162 0 -280 -63q-15 -9 -27 -9q-22 0 -30 31l-51 183q-5 17 -5 28q0 5 1 8zM239 50v593q0 50 53 50h239q53 0 53 -50v-593 q0 -50 -55 -50h-241q-49 0 -49 50z" />
<glyph unicode="&#xfb35;" horiz-adv-x="692" d="M0 438v144h146v-144h-146zM243 50v1099q0 51 52 51h252q45 0 45 -51v-1099q0 -50 -47 -50h-253q-49 0 -49 50z" />
<glyph unicode="&#xfb36;" horiz-adv-x="900" d="M0 438v144h146v-144h-146zM188 967q-2 2 -2 8q0 8 4 23l46 196q6 27 30 27q7 0 15 -2q131 -35 253 -35q145 0 234 21q32 8 40 -31l37 -183q1 -6 1 -12q0 -23 -20 -33q-109 -54 -136 -114q-17 -41 -17 -182v-598q0 -52 -43 -52h-255q-33 0 -40.5 12.5t-7.5 39.5v402 q0 173 21 248q35 121 147 198q-19 -2 -56 -2q-58 0 -129.5 14.5t-95.5 32.5t-26 22z" />
<glyph unicode="&#xfb38;" horiz-adv-x="1329" d="M0 438v144h146v-144h-146zM210 1145q-2 55 47 55h249q53 0 55 -47l31 -606q7 -172 48 -239q31 -55 98 -55q172 0 172 395q0 265 -92 265q-22 0 -58 -23q-12 -8 -27 -4q-16 2 -18 16l-38 217q-1 5 -1 10q0 28 29 49q63 41 192 41q155 0 252 -116q116 -138 116 -414 q0 -339 -151 -526.5t-407 -187.5q-220 0 -334 139t-130 439z" />
<glyph unicode="&#xfb39;" horiz-adv-x="670" d="M0 438v144h146v-144h-146zM233 493v656q0 29 9 40t44 11h251q43 0 43 -41v-549q0 -55 -45 -68l-253 -80q-12 -3 -20 -3q-29 0 -29 34z" />
<glyph unicode="&#xfb3a;" horiz-adv-x="1211" d="M0 438v144h146v-144h-146zM192 1074q-3 10 -3 18q0 26 27 42q155 89 393 89q244 0 378 -120q127 -116 127 -323v-1151q0 -35 -30 -35h-286q-30 0 -30 35v1103q0 108 -68 162q-60 48 -159 48q-133 0 -246 -70q-36 -23 -46 10z" />
<glyph unicode="&#xfb3b;" horiz-adv-x="1118" d="M0 438v144h146v-144h-146zM188 1081q-5 11 -5 21q0 21 19 36q103 81 312 81q270 0 402 -134q148 -150 148 -483q0 -335 -161 -492q-137 -135 -375 -135q-178 0 -285 50q-36 15 -36 40q0 5 1 10l45 188q8 37 37 37q7 0 15 -4q89 -35 167 -35q116 0 168 58q71 76 71 283 q0 187 -59 263q-53 68 -170 68q-86 0 -160 -43q-19 -10 -32 -10q-25 0 -35 26z" />
<glyph unicode="&#xfb3c;" horiz-adv-x="1169" d="M0 438v144h146v-144h-146zM156 1464q-1 11 -1 18q0 16 3 20q4 5 37 7l257 20h6q34 0 36 -43l18 -286h479q94 0 94 -89q0 -16 -2 -41l-70 -555q-31 -264 -163.5 -393.5t-399.5 -148.5q-8 -1 -15 -1q-18 0 -25 4q-9 6 -15 32l-40 195q-2 9 -2 17q0 33 37 33q259 0 281 215 l44 441h-482q-38 0 -42 48z" />
<glyph unicode="&#xfb3e;" horiz-adv-x="1382" d="M0 438v144h146v-144h-146zM191 1002q0 10 9 30l98 193q14 26 30 28h3q10 0 38 -9q102 -27 197 -106q135 93 332 93q156 0 256 -90q113 -102 124 -311l17 -378q1 -23 1 -46q0 -420 -414 -420q-93 0 -156 24q-23 8 -25 15q-4 8 0 35l33 201q6 37 47 27q52 -15 58 -15 q118 0 118 111v7l-16 400q-4 74 -53 113q-36 31 -79 31q-81 0 -152 -51l-73 -839q-4 -45 -51 -45h-257q-35 0 -35 48v10l61 733q1 13 1 25q0 104 -76 151q-36 22 -36 35z" />
<glyph unicode="&#xfb40;" horiz-adv-x="875" d="M0 438v144h146v-144h-146zM204 43v203q0 44 39 44h188v511q0 136 -164 136q-36 0 -36 36q0 7 2 16l26 183q6 43 61 49q11 2 29 2q27 0 68 -4q362 -29 362 -420v-750q0 -49 -39 -49h-497q-39 0 -39 43z" />
<glyph unicode="&#xfb41;" horiz-adv-x="1367" d="M0 438v144h146v-144h-146zM193 1113q0 25 28 36q91 37 262 62q147 20 271 20q294 0 418 -116q133 -124 133 -428q0 -316 -137 -511q-148 -207 -406 -207q-237 0 -359 161q-117 150 -123 429l-10 412q-6 8 -64 101q-13 23 -13 41zM612 921l8 -358q4 -135 37 -218 q40 -97 110 -97q186 0 186 395q0 183 -42.5 245.5t-170.5 62.5q-81 0 -128 -30z" />
<glyph unicode="&#xfb43;" horiz-adv-x="1326" d="M0 438v144h146v-144h-146zM204 1101q0 25 35 40q186 90 470 90q260 0 385 -101q136 -110 136 -347v-1137q0 -52 -46 -52h-254q-48 0 -48 52v1116q0 122 -40 166.5t-139 44.5q-28 0 -87 -18v-160q0 -61 8 -82.5t35 -21.5q20 0 50 11q33 10 39 -27l26 -139q2 -9 2 -17 q0 -28 -24 -43q-81 -46 -201 -46q-130 0 -203 69q-78 70 -78 207v263l-52 93q-14 25 -14 39z" />
<glyph unicode="&#xfb44;" horiz-adv-x="1310" d="M0 438v144h146v-144h-146zM204 1101q0 25 35 40q186 90 450 90q272 0 401 -124q161 -152 161 -527q0 -296 -163 -458q-154 -155 -419 -155q-280 0 -406 98q-20 16 -20 39q0 10 4 22l75 186q8 21 26 21q15 0 39 -17q98 -68 233 -68q148 0 207 56q75 73 75 284 q0 235 -55 318q-45 67 -154 67q-28 0 -87 -18v-160q0 -61 8 -82.5t35 -21.5q20 0 50 11q32 10 39 -27l26 -139q2 -9 2 -16q0 -29 -24 -44q-81 -46 -191 -46q-130 0 -203 69q-78 70 -78 207v263l-52 93q-14 25 -14 39z" />
<glyph unicode="&#xfb46;" horiz-adv-x="1246" d="M0 438v144h146v-144h-146zM160 1164q0 36 42 36h262q32 0 44.5 -7t22.5 -42q85 -288 217 -488q10 26 29 144l54 350q6 43 55 43h255q37 0 37 -37q0 -8 -2 -18l-80 -391q-15 -75 -73 -135l-134 -124q62 -75 207 -232q33 -29 33 -77v-117q0 -69 -56 -69h-826q-37 0 -37 39 v212q0 39 41 39h464q-224 197 -344 383q-108 169 -203 453q-8 21 -8 38z" />
<glyph unicode="&#xfb47;" horiz-adv-x="1322" d="M0 438v144h146v-144h-146zM204 1099q-2 9 -2 16q0 28 31 42q148 70 472 70q277 0 393 -70q159 -93 159 -354q0 -412 -156 -645q-108 -164 -303 -164q-44 0 -71.5 12t-27.5 52l4 199q0 23 19 25l38 4q47 10 69 53q69 135 69 383q0 129 -69 176q-52 37 -190 37 q-164 0 -325 -55q-10 -4 -18 -4q-27 0 -38 37zM249 -350v1025q0 57 43 57h239q59 0 59 -55v-1027h2q0 -56 -57 -56h-231q-55 0 -55 56z" />
<glyph unicode="&#xfb48;" horiz-adv-x="1161" d="M0 438v144h146v-144h-146zM176 1091q-3 8 -3 16q0 22 23 36q120 80 378 80q240 0 368 -124q122 -118 122 -329v-735q0 -35 -30 -35h-286q-31 0 -31 35v706q0 201 -217 201q-131 0 -214 -56q-10 -8 -27 -6q-16 2 -20 16z" />
<glyph unicode="&#xfb49;" horiz-adv-x="1610" d="M0 438v144h146v-144h-146zM214 1145v8q0 47 47 47h243q47 0 49 -47l21 -488q4 -106 12 -131q113 50 119 285l6 326q0 25 8 40t51 15h199q58 0 56 -55l-16 -354q-8 -166 -120 -272q-93 -89 -277 -152q47 -129 213 -129q154 0 227 70q87 83 103 296l38 551q4 45 64 45h225 q47 0 47 -56q0 -7 -1 -14l-39 -515q-29 -371 -216 -520q-154 -122 -457 -122q-261 0 -387 108q-153 136 -176 482z" />
<glyph unicode="&#xfb4a;" horiz-adv-x="1376" d="M0 438v144h146v-144h-146zM170 158q-2 10 -2 18q0 37 36 37q147 0 151 176l10 501l-57 -18q-15 -5 -27 -5q-23 0 -28 21l-51 193q-7 32 -6 41q2 16 29 25q78 35 241.5 59.5t310.5 24.5q246 0 364 -80q143 -97 146 -330l12 -776q0 -31 -7 -39t-31 -8l-260 2q-50 0 -50 49 l-15 768q-4 140 -151 140q-37 0 -82 -11l-12 -601q-8 -399 -440 -399q-45 0 -51 34z" />
<glyph unicode="&#xfb4b;" horiz-adv-x="692" d="M0 1124v143h146v-143h-146zM243 50v1099q0 51 52 51h252q45 0 45 -51v-1099q0 -50 -47 -50h-253q-49 0 -49 50z" />
<glyph unicode="&#xfb4c;" horiz-adv-x="1727" d="M70 940v236q0 24 25 24h401q25 0 25 -24v-236q0 -23 -25 -23h-401q-25 0 -25 23zM692 43v203q0 44 49 44h476v472q0 81 -56.5 131.5t-141.5 50.5q-106 0 -213 -62q-14 -8 -24 -8q-18 0 -24 26l-54 191q-6 24 -4 33q4 8 25 19q142 80 366 80q234 0 358 -122 q116 -116 116 -325v-486h64q39 0 39 -42v-209q0 -39 -35 -39h-902q-39 0 -39 43z" />
<glyph unicode="&#xfb4d;" horiz-adv-x="1604" d="M70 940v236q0 24 25 24h401q25 0 25 -24v-236q0 -23 -25 -23h-401q-25 0 -25 23zM674 1081q-5 11 -5 21q0 21 19 36q103 81 312 81q270 0 402 -134q148 -150 148 -483q0 -335 -161 -492q-137 -135 -375 -135q-178 0 -285 50q-36 15 -36 40q0 5 1 10l45 188q8 37 37 37 q7 0 15 -4q89 -35 167 -35q116 0 168 58q71 76 71 283q0 187 -59 263q-53 68 -170 68q-86 0 -160 -43q-19 -10 -32 -10q-25 0 -35 26z" />
<glyph unicode="&#xfb4e;" horiz-adv-x="1796" d="M70 940v236q0 24 25 24h401q25 0 25 -24v-236q0 -23 -25 -23h-401q-25 0 -25 23zM690 1101q0 25 35 40q186 90 450 90q272 0 401 -124q161 -152 161 -527q0 -296 -163 -458q-154 -155 -419 -155q-280 0 -406 98q-20 16 -20 39q0 10 4 22l75 186q8 21 26 21q15 0 39 -17 q98 -68 233 -68q148 0 207 56q75 73 75 284q0 235 -55 318q-45 67 -154 67q-28 0 -87 -18v-160q0 -61 8 -82.5t35 -21.5q20 0 50 11q32 10 39 -27l26 -139q2 -9 2 -16q0 -29 -24 -44q-81 -46 -191 -46q-130 0 -203 69q-78 70 -78 207v263l-52 93q-14 25 -14 39z" />
<glyph unicode="&#xfb4f;" horiz-adv-x="2200" d="M10 1464q-1 11 -1 18q0 16 3 20q4 5 37 7l257 20h6q34 0 36 -43l18 -286h479q94 0 94 -89q0 -16 -2 -41l-70 -555q-31 -264 -163.5 -393.5t-399.5 -148.5q-8 -1 -15 -1q-18 0 -25 4q-9 6 -15 32l-40 195q-2 9 -2 17q0 33 37 33q259 0 281 215l44 441h-482q-38 0 -42 48z M1060 1159q0 41 34 41h272q42 0 77 -53l270 -419q6 -10 12 -8q8 2 6 14q-5 30 -5 53q0 17 3 30l64 345q9 38 45 38h247q45 0 45 -45q0 -8 -2 -17l-66 -300q-27 -114 -78 -179q-16 -22 -133 -132l288 -467q8 -11 8 -24q0 -6 -2 -13q-4 -23 -27 -23h-273q-47 0 -76 47 l-305 504q-7 10 -15 8t-6 -12q5 -38 5 -70q0 -24 -3 -45l-53 -391q-6 -41 -46 -41h-246q-37 0 -37 33q0 5 1 10l59 425q14 99 72 171q21 24 130 117l-257 378q-8 11 -8 25z" />
</font>
</defs>
</svg>
