<?xml version="1.0" encoding="UTF-8"?>
<svg width="121px" height="52px" viewBox="0 0 121 52" version="1.1" xmlns="http://www.w3.org/2000/svg" xmlns:xlink="http://www.w3.org/1999/xlink">
    <!-- Generator: sketchtool 58 (101010) - https://sketch.com -->
    <title>7C200314-3441-4498-901B-CE80973990FA</title>
    <desc>Created with sketchtool.</desc>
    <g id="Atoms" stroke="none" stroke-width="1" fill="none" fill-rule="evenodd">
        <g id="Logo" transform="translate(-120.000000, -437.000000)" fill-rule="nonzero">
            <g id="Logo-/-Abbott-/-Desktop-/-2-lines" transform="translate(120.000000, 437.000000)">
                <g id="Logo-/-Abbott-/-Mobile">
                    <g>
                        <g id="Group">
                            <path d="M30.434043,0.0130962963 L0.00960508378,0.0130962963 L0.00960508378,4.62024127 L28.9152112,4.62024127 L28.9152112,4.62431323 C29.7519704,4.62431323 30.4200821,5.28551111 30.4200821,6.10639577 L30.4200821,21.5773037 L30.4163965,21.5904 C30.4112589,22.4076529 29.7364459,23.0644487 28.9086217,23.0644487 L6.19271024,23.0644487 C5.36108868,23.0644487 4.68046798,22.4023704 4.68046798,21.5771937 L4.68046798,15.3271788 C4.68046798,14.5062942 5.36108868,13.8399238 6.19271024,13.8399238 L25.7360402,13.8399238 L25.7360402,9.2389418 L4.67153302,9.2389418 C2.09681213,9.2389418 0.00960508378,11.2918688 0.00960508378,13.8271577 L0.00960508378,23.0774349 C0.00960508378,25.6144847 2.09681213,27.6703831 4.67153302,27.6703831 L30.434043,27.6703831 C33.0109977,27.6703831 35.0951892,25.6144847 35.0951892,23.0774349 L35.0951892,4.60747513 C35.0951892,2.07075556 33.0109977,0.0130962963 30.434043,0.0130962963" id="Shape" fill="#159BD7"></path>
                            <g transform="translate(42.106007, 6.493122)" fill="#000000" id="Shape">
                                <path d="M5.65192168,7.87593651 L8.81612667,7.87593651 L7.24871102,3.24865185 L7.20526477,3.24865185 L5.65192168,7.87593651 Z M10.2610217,0.0512846561 L13.9059276,10.7945397 C14.3384914,12.1052698 14.6447372,12.4085757 15.4043206,12.4085757 L16.145364,12.4085757 L16.145364,14.2998349 L8.18665862,14.2998349 L8.18665862,12.4085757 L8.83935757,12.4085757 C9.49362014,12.4085757 10.0377593,12.3229545 10.0377593,12.0893122 C10.0377593,11.868546 10.0159803,11.6324825 9.92841771,11.3093672 L9.47340479,9.76565503 L5.02401725,9.76565503 L4.75809046,10.6257185 C4.52008542,11.3758392 4.43174098,11.6943323 4.43174098,11.9960974 C4.43174098,12.3428741 5.19757888,12.4085757 5.79063696,12.4085757 L6.41775959,12.4085757 L6.41775959,14.2998349 L0.00636616018,14.2998349 L0.00636616018,12.4085757 L0.748973161,12.4085757 C1.51246563,12.4085757 1.81256866,12.1052698 2.25518432,10.7945397 L5.89696301,0.0512846561 L10.2610217,0.0512846561 Z"></path>
                                <path d="M21.0343517,9.26689524 C21.0343517,11.462891 21.5343745,12.7714201 22.7544435,12.7714201 C23.9823306,12.7714201 24.4784443,11.462891 24.4784443,9.26689524 C24.4784443,7.07695238 23.9823306,5.76699259 22.7544435,5.76699259 C21.5343745,5.76699259 21.0343517,7.07695238 21.0343517,9.26689524 L21.0343517,9.26689524 Z M17.4104429,2.69563598 C17.4104429,2.08847407 17.2584369,1.7698709 16.6259533,1.7698709 L15.623674,1.7698709 L15.623674,0.0512846561 L21.0343517,0.0512846561 L21.0343517,5.39963598 C21.8397268,4.4967619 22.8669123,3.91700317 23.8435036,3.91700317 C27.1163801,3.91700317 28.3356673,6.43611429 28.3356673,9.26689524 C28.3356673,12.1052698 27.1163801,14.618328 23.8435036,14.618328 C22.4699766,14.618328 21.2474505,14.1463111 20.4869736,12.9639026 L19.8568354,14.3013757 L17.4104429,14.3013757 L17.4104429,2.69563598 Z"></path>
                                <path d="M33.2689947,9.26689524 C33.2689947,11.462891 33.7751603,12.7714201 34.9936656,12.7714201 C36.2161918,12.7714201 36.7153211,11.462891 36.7153211,9.26689524 C36.7153211,7.07695238 36.2160801,5.76699259 34.9936656,5.76699259 C33.7751603,5.76699259 33.2689947,7.07695238 33.2689947,9.26689524 L33.2689947,9.26689524 Z M29.6465378,2.69563598 C29.6465378,2.08847407 29.4929682,1.7698709 28.8667391,1.7698709 L27.8613325,1.7698709 L27.8613325,0.0512846561 L33.2689947,0.0512846561 L33.2689947,5.39963598 C34.0782788,4.4967619 35.1015553,3.91700317 36.0828375,3.91700317 C39.3556022,3.91700317 40.5781284,6.43611429 40.5781284,9.26689524 C40.5781284,12.1052698 39.3556022,14.618328 36.0828375,14.618328 C34.7091988,14.618328 33.4867844,14.1463111 32.7247438,12.9639026 L32.0899148,14.3013757 L29.6465378,14.3013757 L29.6465378,2.69563598 L29.6465378,2.69563598 Z"></path>
                                <path d="M45.4848743,9.26766561 C45.4848743,11.8028444 45.9422326,12.8996317 47.2515395,12.8996317 C48.5585011,12.8996317 49.0150776,11.8028444 49.0150776,9.26766561 C49.0150776,6.73248677 48.5585011,5.63713016 47.2515395,5.63713016 C45.9422326,5.63713016 45.4848743,6.73248677 45.4848743,9.26766561 M52.878555,9.26766561 C52.878555,12.7079196 50.4995098,14.618328 47.2515395,14.618328 C43.996533,14.618328 41.6230721,12.7079196 41.6230721,9.26766561 C41.6230721,5.8296127 43.9966447,3.91700317 47.2515395,3.91700317 C50.4995098,3.91700317 52.878555,5.8296127 52.878555,9.26766561"></path>
                                <path d="M68.4291857,9.44176931 L68.4291857,11.117655 C68.4291857,12.1052698 68.2128479,12.6896508 67.3834601,12.6896508 C66.8826555,12.6896508 66.6446505,12.3215238 66.6446505,11.868546 L66.6446505,5.95958519 L69.3221234,5.95958519 L69.3221234,4.2394582 L66.6447621,4.2394582 L66.6447621,0.247508995 L64.4813845,0.247508995 C64.304584,2.02805503 63.7395594,4.23934815 61.558982,4.23934815 L58.1575537,4.23934815 L58.1575537,0.247508995 L56.0002073,0.247508995 C55.8241885,2.02805503 55.2560366,4.23934815 53.0778047,4.23934815 L53.0778047,5.95947513 L54.5382242,5.95947513 L54.5382242,11.3528381 C54.5382242,13.5457524 55.7808539,14.618218 58.0234176,14.618218 C60.6466107,14.618218 61.6869753,13.4610116 61.6869753,11.3528381 L61.6869753,9.44165926 L59.9480084,9.44165926 L59.9480084,11.117545 C59.9480084,12.1051598 59.7278733,12.6895407 58.9016127,12.6895407 C58.3954471,12.6895407 58.1574421,12.3214138 58.1574421,11.868436 L58.1574421,5.95947513 L63.0269962,5.95947513 L63.0269962,11.3528381 C63.0269962,13.5457524 64.2641533,14.618218 66.5114078,14.618218 C69.1275646,14.618218 70.1771992,13.4610116 70.1771992,11.3528381 L70.1771992,9.44165926 L68.4291857,9.44165926 L68.4291857,9.44176931 Z"></path>
                            </g>
                        </g>
                        <path d="M27.4973265,38.2522458 L26.7309176,38.1333333 L24.7351615,40.2270167 L22.6144172,41.2988034 L22.4714286,41.9288459 L24.0577403,41.9288459 L23.2028509,45.7754594 C22.9355078,46.9329794 22.7397858,48.5333333 24.6997947,48.5333333 C25.9283813,48.5333333 27.0696282,48.1758693 28.2985951,47.6996138 L28.2985951,47.0864031 C28.0313788,47.103356 27.7816558,47.1203089 27.4610722,47.1203089 C26.4810678,47.1203089 26.1248639,46.9844435 25.9283813,46.7967507 C25.7326593,46.6097844 25.6972924,46.3034212 25.9112683,45.3668945 L26.6772969,41.9287248 L29.118498,41.9287248 L29.3857143,40.7543731 L26.9446399,40.7543731 L27.4973265,38.2522458 Z" id="Shape" fill="#000000"></path>
                        <path d="M33.5338973,41.6 C31.1676066,41.6 29.3857143,43.5994451 29.3857143,45.8146038 C29.3857143,47.5983352 30.5546192,48.5333333 32.1511697,48.5333333 C34.5181077,48.5333333 36.3,46.533786 36.3,44.3186272 C36.3,42.5346912 35.1305557,41.6 33.5338973,41.6 M32.4080375,47.7853962 C31.8376636,47.7853962 31.5817668,47.2818254 31.5817668,46.4333993 C31.5817668,45.1384007 32.1660574,42.3478348 33.2776768,42.3478348 C33.847727,42.3478348 34.1042712,42.8510986 34.1042712,43.7000364 C34.1042712,44.9946257 33.5196569,47.7853962 32.4080375,47.7853962" id="Shape" fill="#000000"></path>
                        <path d="M44.7825794,38.2522458 L44.0168469,38.1333333 L42.0201106,40.2270167 L39.8997669,41.2988034 L39.7571429,41.9288459 L41.3432487,41.9288459 L40.4876314,45.7754594 C40.2203857,46.9329794 40.0242618,48.5333333 41.9844863,48.5333333 C43.2147294,48.5333333 44.3549609,48.1758693 45.5848237,47.6996138 L45.5848237,47.0864031 C45.3179583,47.103356 45.0678275,47.1203089 44.7469551,47.1203089 C43.7672232,47.1203089 43.4109801,46.9844435 43.2147294,46.7967507 C43.0186056,46.6097844 42.9828545,46.3034212 43.1964736,45.3668945 L43.9629667,41.9287248 L46.4045632,41.9287248 L46.6714286,40.7543731 L44.2305928,40.7543731 L44.7825794,38.2522458 Z" id="Shape" fill="#000000"></path>
                        <path d="M54.0863727,46.3774157 L54.7174538,43.7538406 C55.1045383,42.161058 54.7329694,40.7770898 53.2143982,40.7770898 C52.3100134,40.7770898 51.55113,41.2434879 50.54848,42.0966049 L50.3872331,42.0643211 L51.55113,36.6089289 L51.2116266,36.4 L47.7057993,37.1242107 L47.640634,37.6070941 L48.8041861,38.3148194 L46.6714286,48.3244044 L49.0464587,48.3244044 L50.1772558,43.0138315 C50.7748922,42.643598 51.2921925,42.4504675 51.6799666,42.4504675 C52.3744891,42.4504675 52.535736,42.9333509 52.3100134,43.8826324 L51.6637615,46.6181705 C51.5985961,46.8920105 51.5661859,47.1334522 51.5661859,47.3588665 C51.5661859,48.1150175 51.9708547,48.5333333 52.9558055,48.5333333 C53.7481335,48.5333333 54.539542,48.2440383 55.3142857,47.7771823 L55.2336048,47.3588665 C53.9578809,47.2786149 53.8930603,47.1979054 54.0863727,46.3774157" id="Shape" fill="#000000"></path>
                        <path d="M62.2285714,43.2255276 C62.2285714,42.3048558 61.3581931,41.6 59.8358322,41.6 C57.4742609,41.6 55.3142857,43.4700987 55.3142857,45.9439502 C55.3142857,47.3824168 56.3549819,48.5333333 58.3903963,48.5333333 C59.7734966,48.5333333 60.8143033,47.9292735 61.5291741,46.9078057 L61.2494372,46.6343773 C60.6279594,46.9656227 59.9912293,47.1666007 59.4005878,47.1666007 C58.172553,47.1666007 57.4742609,46.677561 57.4583454,45.5125228 C57.5679854,45.515388 57.6764097,45.5171276 57.7845024,45.5171276 C60.2588085,45.51723 62.2285714,44.7278488 62.2285714,43.2255276 M59.6492673,42.3337131 C60.0380916,42.3337131 60.2239934,42.5779772 60.2239934,42.9377729 C60.2239934,43.8438114 59.602184,44.6496679 57.5210126,44.850646 C57.7849445,43.441139 58.8879764,42.3337131 59.6492673,42.3337131" id="Shape" fill="#000000"></path>
                        <path d="M71.0504271,37.4865746 C71.6727975,38.4273344 72.5131052,38.8001775 73.1182606,38.8001775 C73.891621,38.8001775 74.3285714,38.2647923 74.3285714,37.6326202 C74.3285714,36.8864726 73.6728469,36.4 72.5633156,36.4 C71.6225871,36.4 70.7990162,36.6597904 69.9755649,37.1945988 C68.7154023,38.0217291 67.9256637,39.2377375 67.4889524,40.9081484 L67.454881,41.0379283 L65.5393525,41.7029779 L65.3877648,42.33515 L67.2200874,42.33515 L66.2115748,48.0594222 C65.8749257,49.9892774 65.6232757,50.6217956 65.3540521,50.8813553 C64.8668912,50.0377286 64.0938895,49.5836721 63.3710982,49.5836721 C62.6992346,49.5836721 62.2285714,50.1675084 62.2285714,50.7351944 C62.2285714,51.4808806 62.9180087,52 63.9767318,52 C64.7664703,52 65.7071989,51.7565907 66.5981952,51.1084989 C67.7407219,50.2648722 68.4627959,48.8866678 68.8665118,46.6485709 L69.6401113,42.3352654 L71.7567207,42.3352654 L72.0094466,41.2486907 L69.8243358,41.2486907 L69.8917613,40.8763091 C70.3118554,38.5571142 70.6312894,37.8432673 71.0504271,37.4865746" id="Shape" fill="#000000"></path>
                        <path d="M79.9983178,46.5889899 L81.2089881,41.7856889 L80.8603849,41.6 L77.3773034,42.2434028 L77.3773034,42.6725413 L78.3891259,43.2727251 L77.5762691,46.5461778 C76.9622602,46.8752518 76.4321568,47.0468055 76.0336352,47.0468055 C75.3206154,47.0468055 75.1545745,46.6321072 75.3870553,45.7743385 L76.4653178,41.7857906 L76.1170686,41.6001017 L72.666558,42.2435044 L72.6,42.672643 L73.6277539,43.25859 L72.9153242,45.8887416 C72.5337961,47.3040853 72.8983307,48.5333333 74.4579582,48.5333333 C75.4855941,48.5333333 76.3817663,47.9898934 77.3606639,47.2323927 L77.5262327,47.2610697 C77.4271038,47.9471829 77.675634,48.5333333 78.803815,48.5333333 C79.6333112,48.5333333 80.4462859,48.2761553 81.2428571,47.8613552 L81.1600137,47.4897741 C79.8655559,47.4038447 79.799706,47.3753711 79.9983178,46.5889899" id="Shape" fill="#000000"></path>
                        <path d="M82.0976474,37.1246207 L82.0246347,37.6074723 L83.3348508,38.3151508 L81.3514676,46.618297 C81.0416813,47.8088271 81.3514676,48.5333333 82.8430505,48.5333333 C83.7351264,48.5333333 84.6273317,48.2438285 85.5543604,47.7768888 L85.4638712,47.3586006 C83.9171404,47.262328 83.8628986,47.2139055 84.0802539,46.3771002 L86.4285714,36.6092586 L86.0461607,36.4 L82.0976474,37.1246207 Z" id="Shape" fill="#000000"></path>
                        <path d="M87.2828602,37.1246207 L87.2106202,37.6074723 L88.5201329,38.3151508 L86.537027,46.618297 C86.2276117,47.8088271 86.537027,48.5333333 88.0289524,48.5333333 C88.9210782,48.5333333 89.8125567,48.2438285 90.7404141,47.7768888 L90.6491431,47.3586006 C89.1028435,47.262328 89.0484692,47.2139055 89.2666135,46.3771002 L91.6142857,36.6092586 L91.2318536,36.4 L87.2828602,37.1246207 Z" id="Shape" fill="#000000"></path>
                        <path d="M96.8,43.2255276 C96.8,42.3048558 95.9295799,41.6 94.4074776,41.6 C92.0454614,41.6 89.8857143,43.4700987 89.8857143,45.9439502 C89.8857143,47.3824168 90.9264604,48.5333333 92.9619724,48.5333333 C94.3444758,48.5333333 95.3852219,47.9292735 96.1009007,46.9078057 L95.8211504,46.6343773 C95.1996428,46.9656227 94.5625506,47.1666007 93.9719913,47.1666007 C92.7442292,47.1666007 92.045572,46.677561 92.0299873,45.5125228 C92.139301,45.515388 92.2480621,45.5171276 92.3558284,45.5171276 C94.8304742,45.51723 96.8,44.7278488 96.8,43.2255276 M94.2202406,42.3337131 C94.6097467,42.3337131 94.7953258,42.5779772 94.7953258,42.9377729 C94.7953258,43.8438114 94.1738182,44.6496679 92.0922154,44.850646 C92.35616,43.441139 93.4592447,42.3337131 94.2202406,42.3337131" id="Shape" fill="#000000"></path>
                        <path d="M101.089619,41.6 C98.84877,41.6 97.7124621,42.7506435 97.7124621,43.9160231 C97.7124621,44.8365175 98.3847966,45.2826937 99.3776428,45.6706419 L100.065007,45.9440784 C100.961642,46.3038848 101.21771,46.548463 101.21771,46.9658834 C101.21771,47.469162 100.897426,47.81413 100.337812,47.81413 C99.953653,47.81413 99.6326859,47.7277601 99.1851081,47.5121423 C99.1369459,46.4765222 98.512432,45.9154249 97.8404391,45.9154249 C97.2808245,45.9154249 96.8,46.3612941 96.8,46.9367182 C96.8,47.914929 98.1766632,48.5333333 100.00136,48.5333333 C102.257694,48.5333333 103.233803,47.2819932 103.233803,46.2029834 C103.233803,45.2682647 102.59426,44.8366198 101.53788,44.3909552 L100.849492,44.1030897 C100.016731,43.7575078 99.7452919,43.5419924 99.7452919,43.1390011 C99.7452919,42.7364191 100.081288,42.3478569 100.625874,42.3478569 C100.849492,42.3478569 101.089505,42.3912465 101.297867,42.4772071 C101.409903,43.3260676 102.001512,43.9735349 102.737721,43.9735349 C103.282307,43.9735349 103.714286,43.6425867 103.714286,43.0528358 C103.714286,42.3048766 102.722692,41.6 101.089619,41.6" id="Shape" fill="#000000"></path>
                        <path d="M108.740022,38.2522458 L107.973951,38.1333333 L105.977756,40.2270167 L103.856925,41.2988034 L103.714286,41.9288459 L105.300186,41.9288459 L104.444601,45.7754594 C104.177706,46.9329794 103.981434,48.5333333 105.941874,48.5333333 C107.172253,48.5333333 108.312229,48.1758693 109.542227,47.6996138 L109.542227,47.0864031 C109.274952,47.103356 109.025428,47.1203089 108.70452,47.1203089 C107.7243,47.1203089 107.367637,46.9844435 107.172253,46.7967507 C106.975727,46.6097844 106.940352,46.3034212 107.153614,45.3668945 L107.920572,41.9287248 L110.361677,41.9287248 L110.628571,40.7543731 L108.187467,40.7543731 L108.740022,38.2522458 Z" id="Shape" fill="#000000"></path>
                        <path d="M19.886019,48.5333333 C19.3998195,48.5333333 19.0142857,48.1436848 19.0142857,47.6671688 C19.0142857,47.1905272 19.3999436,46.8 19.886019,46.8 C20.3571993,46.8 20.7428571,47.1905272 20.7428571,47.6671688 C20.7428571,48.1438104 20.3571993,48.5333333 19.886019,48.5333333" id="Shape" fill="#000000"></path>
                        <path d="M111.500305,48.5333333 C111.014229,48.5333333 110.628571,48.1436848 110.628571,47.6671688 C110.628571,47.1905272 111.014229,46.8 111.500305,46.8 C111.971609,46.8 112.357143,47.1905272 112.357143,47.6671688 C112.357143,48.1438104 111.971485,48.5333333 111.500305,48.5333333" id="Shape" fill="#000000"></path>
                        <path d="M0.648419876,37.2424077 L0.612735842,37.2536717 L0.594104355,37.6293646 L1.94704505,37.9634149 L0.0347386944,47.3287722 C-0.0407346173,47.7066269 0.00758093368,48.0358986 0.17179065,48.2556028 C0.307158403,48.4373052 0.518420518,48.5333333 0.781682377,48.5333333 C1.28515358,48.5333333 2.08093912,48.2470695 2.67346251,47.8531722 L2.70346237,47.8330336 L2.66114679,47.5564408 L2.61756805,47.5557581 C1.82525617,47.5455181 1.45241591,47.5150258 1.33841647,47.3585819 C1.28631147,47.2872435 1.28125886,47.1757417 1.32167971,46.9853921 L3.45177446,36.6214108 L3.45714286,36.5954695 L3.31640671,36.4 L0.648419876,37.2424077 Z" id="Shape" fill="#000000"></path>
                        <path d="M13.3466248,37.1137382 C13.5082767,37.9436024 13.9654933,38.4186629 14.6073183,38.4186629 C15.1573174,38.4186629 15.5571429,38.0620233 15.5571429,37.5705537 C15.5571429,37.006907 15.023285,36.4 13.8507109,36.4 C13.1017556,36.4 12.4251371,36.6253669 11.7804426,37.0894115 C10.6782922,37.8910474 10.1204018,38.882019 9.79183713,40.6251697 L9.69714164,41.1378679 L7.88573158,41.5802249 L7.84986207,41.5889459 L7.74225355,42.0636621 L9.51026151,42.0636621 L8.2958396,48.7230005 C8.08181821,49.858441 7.80466649,50.6387336 7.44967795,51.1031225 C7.06922205,50.5842279 6.63292929,50.3207644 6.15275617,50.3207644 C5.59235492,50.3207644 5.18571429,50.6433236 5.18571429,51.0877461 C5.18571429,51.5410043 5.60419186,52 6.40444054,52 C7.03012429,52 7.65473196,51.7263238 8.21118756,51.20938 C9.23884891,50.254669 9.5985005,49.4314603 10.0434019,47.01634 L10.9419331,42.0636621 L12.8232887,42.0636621 L12.998571,41.206832 L11.0984437,41.206832 L11.2369,40.4677342 C11.6356493,38.3234213 12.364159,37.1657195 13.3466248,37.1137382" id="Shape" fill="#000000"></path>
                        <path d="M18.0036752,46.8631707 C17.347333,47.3668998 16.6422002,47.6110918 15.849698,47.6110918 C15.1839003,47.6110918 14.6659876,47.4464898 14.3098281,47.1218894 C13.866047,46.717699 13.6890388,46.0736133 13.796454,45.2563323 C13.9899779,45.2625727 14.180602,45.2658463 14.3654268,45.2658463 C17.3197228,45.2658463 19.0142857,44.462069 19.0142857,43.0603437 C19.0142857,42.1736005 18.1269757,41.6 16.7530194,41.6 C15.5106845,41.6 14.3209226,42.1392274 13.4047416,43.1178367 C12.5872767,43.9898486 12.1,45.0976638 12.1,46.0804674 C12.1,47.570683 13.279676,48.5333333 15.1053561,48.5333333 C16.4547279,48.5333333 17.6490285,48.0057682 18.3832845,47.0857772 L18.4165681,47.0440385 L18.040741,46.8348334 L18.0036752,46.8631707 Z M16.7806296,44.312403 C16.1367689,44.703192 15.1144334,44.8594053 13.8872274,44.7562861 C14.2940688,43.1595755 15.3269945,42.0910438 16.4694786,42.0910438 C17.1106918,42.0910438 17.5591376,42.4659761 17.5591376,43.0032599 C17.5590116,43.5503644 17.2902214,44.0029431 16.7806296,44.312403 L16.7806296,44.312403 Z" id="Shape" fill="#000000"></path>
                        <path d="M6.91428571,47.9122721 L6.86143865,47.6665531 L6.80859158,47.6659474 C5.85045126,47.6568616 5.39946408,47.6292006 5.25943212,47.4883715 C5.19586245,47.4244684 5.18896936,47.3265443 5.23722103,47.1600732 L6.78063625,41.7817149 L6.78829524,41.7546596 L6.59235261,41.6 L3.52377612,42.3464446 L3.48126869,42.3570446 L3.45714286,42.6889772 L4.95537,42.9854754 L3.67759427,47.4641428 C3.58568633,47.7900183 3.64695829,48.0884346 3.84519862,48.2839801 C4.01063292,48.4472206 4.26554982,48.5333333 4.58288753,48.5333333 C5.19382006,48.5333333 6.11558015,48.2906429 6.87701194,47.9301407 L6.91428571,47.9122721 Z" id="Shape" fill="#000000"></path>
                        <path d="M6.05677258,39.8666667 C6.52969565,39.8666667 6.91428571,39.4779833 6.91428571,39.0002341 C6.91428571,38.5222507 6.52957988,38.1333333 6.05677258,38.1333333 C5.57632443,38.1333333 5.18571429,38.5222507 5.18571429,39.0002341 C5.18571429,39.4779833 5.57632443,39.8666667 6.05677258,39.8666667" id="Shape" fill="#000000"></path>
                        <g id="Group" transform="translate(112.357143, 38.133333)" fill="#231F20">
                            <path d="M1.12852526,1.12568182 L0.216071429,1.12568182 C0.145769164,1.12568182 0.09528223,1.06103636 0.09528223,0.988590909 L0.09528223,0.209418182 C0.09528223,0.137090909 0.145769164,0.0725636364 0.216071429,0.0725636364 L3.05061237,0.0725636364 C3.12070383,0.0725636364 3.17119077,0.136972727 3.17119077,0.209418182 L3.17119077,0.988590909 C3.17119077,1.06091818 3.12070383,1.12568182 3.05061237,1.12568182 L2.13794774,1.12568182 L2.13794774,4.94768182 C2.13794774,5.01847273 2.08050436,5.083 2.01578833,5.083 L1.25079007,5.083 C1.18628484,5.083 1.12863066,5.01835455 1.12863066,4.94768182 L1.12863066,1.12568182 L1.12852526,1.12568182 Z" id="Shape"></path>
                            <path d="M4.19178571,0.114990909 C4.19737195,0.0522363636 4.25492073,0.00165454545 4.30698868,0.00165454545 L4.40806794,0.00165454545 C4.44042596,0.00165454545 4.49786934,0.0300181818 4.51768467,0.0725636364 L5.99866986,3.16408182 L6.01131794,3.16408182 L7.49103833,0.0725636364 C7.51074826,0.0300181818 7.56819164,0.00165454545 7.60054965,0.00165454545 L7.70299913,0.00165454545 C7.75348606,0.00165454545 7.81114024,0.0521181818 7.81672648,0.114990909 L8.53829965,4.92558182 C8.55094774,5.01847273 8.49339895,5.083 8.41772125,5.083 L7.66368467,5.083 C7.60613589,5.083 7.54869251,5.02627273 7.54310627,4.96812727 L7.25525697,2.75647273 L7.24260889,2.75647273 L6.17005139,5.0752 C6.15171167,5.11916364 6.09416289,5.15379091 6.06191028,5.15379091 L5.94670732,5.15379091 C5.90876307,5.15379091 5.85690592,5.11916364 5.8386716,5.0752 L4.75905226,2.75647273 L4.74640418,2.75647273 L4.46561672,4.96812727 C4.45992509,5.02627273 4.40806794,5.083 4.34482753,5.083 L3.59100174,5.083 C3.51521864,5.083 3.45766986,5.01835455 3.47021254,4.92558182 L4.19178571,0.114990909 Z" id="Shape"></path>
                        </g>
                    </g>
                </g>
            </g>
        </g>
    </g>
</svg>