<svg id="Layer_1" data-name="Layer 1" xmlns="http://www.w3.org/2000/svg" viewBox="0 0 30 20"><defs><style>.cls-1{fill:#ff1612;}.cls-1,.cls-2{fill-rule:evenodd;}.cls-2{fill:#fedf00;}</style></defs><polygon class="cls-1" points="0 20 30 20 30 0 0 0 0 20 0 20"/><path class="cls-2" d="M10.35,1l-.45.6L9.2,1.4l.43.6-.45.6.71-.22.43.61V2.24L11,2l-.7-.24V1ZM12.8,3.39l-.7.24L11.65,3v.75L11,4l.71.21V5l.43-.61.71.22L12.37,4l.43-.6ZM13,6.7h-.75L12,6l-.25.7H11l.59.44-.24.71L12,7.39l.59.45-.21-.71L13,6.7ZM11,9l-.72-.22V8l-.42.61-.72-.23L9.6,9l-.43.61.71-.24.44.6V9.24L11,9ZM5,2,4.32,4.11H2.1l1.8,1.3L3.21,7.52,5,6.21,6.79,7.52,6.1,5.41l1.8-1.3H5.68L5,2Z"/></svg>