<?xml version="1.0" encoding="UTF-8"?>
<svg width="30px" height="20px" viewBox="0 0 30 20" version="1.1" xmlns="http://www.w3.org/2000/svg" xmlns:xlink="http://www.w3.org/1999/xlink">
    <title>29067F9D-83AB-467F-AA15-BA6A4E407473@2x</title>
    <g id="Flags" stroke="none" stroke-width="1" fill="none" fill-rule="evenodd">
        <g transform="translate(-648.000000, -1487.000000)" id="TR">
            <g transform="translate(648.000000, 1487.000000)" id="Flag-of-Turkey">
                <polygon id="Fill-1" fill="#E30A17" points="0 20 30 20 30 0 0 0"></polygon>
                <path d="M17.3716775,10 L18.4393275,8.530675 L16.7118275,9.0919 L15.6440025,7.622325 L15.6440025,9.438825 L13.9166775,10 L15.6440025,10.561175 L15.6440025,12.377675 L16.7118275,10.9081 L18.4393275,11.469325 L17.3716775,10 Z M14.2250025,12.673675 C12.7483775,15.007125 9.6597025,15.701725 7.3262275,14.2251 C4.9927775,12.748475 4.2981775,9.6598 5.7748025,7.326325 C7.2514275,4.992875 10.3401025,4.298275 12.6735525,5.7749 C13.2992025,6.1708 13.8291025,6.7007 14.2250025,7.326325 C12.7483775,5.6832 10.2193275,5.548225 8.5761775,7.02485 C6.9330525,8.501475 6.7980775,11.030525 8.2747025,12.673675 C9.7513275,14.3168 12.2804025,14.451775 13.9235275,12.97515 C14.0293025,12.880075 14.1299275,12.77945 14.2250025,12.673675 L14.2250025,12.673675 Z" id="Fill-2" fill="#FFFFFF"></path>
            </g>
        </g>
    </g>
</svg>