<svg xmlns="http://www.w3.org/2000/svg" width="120" height="30" viewBox="0 0 120 30">
    <g fill="#FFF" fill-rule="evenodd">
        <path d="M5.488 10C2.743 10 .519 12.23.519 14.98v10.038C.52 27.77 2.743 30 5.49 30h27.465c2.744 0 4.968-2.23 4.968-4.982V4.98C37.922 2.23 35.698 0 32.954 0H.519v5h30.805c.89 0 1.611.722 1.611 1.615v16.77c0 .891-.721 1.616-1.61 1.616H7.116c-.89 0-1.61-.725-1.61-1.616v-6.77c0-.892.72-1.616 1.61-1.616h20.83v-5H5.488M84.33 17.058c0 2.34-.529 3.733-1.839 3.733-1.3 0-1.833-1.394-1.833-3.733 0-2.333.533-3.728 1.833-3.728 1.31 0 1.84 1.395 1.84 3.728zm33.808.186v1.785c0 1.053-.232 1.675-1.116 1.675-.533 0-.787-.392-.787-.875v-6.294h2.854v-1.832h-2.854V7.45h-2.306c-.189 1.897-.791 4.253-3.116 4.253h-3.626V7.45h-2.3c-.188 1.897-.794 4.253-3.115 4.253v1.832h1.556v5.745c0 2.336 1.326 3.479 3.716 3.479 2.796 0 3.905-1.233 3.905-3.479v-2.036h-1.853v1.785c0 1.053-.235 1.675-1.116 1.675-.54 0-.793-.392-.793-.875v-6.294h5.19v5.745c0 2.336 1.32 3.479 3.716 3.479 2.788 0 3.907-1.233 3.907-3.479v-2.036h-1.862zM95.56 13.191c-1.395 0-1.882 1.167-1.882 3.868 0 2.7.487 3.869 1.882 3.869 1.392 0 1.88-1.169 1.88-3.869s-.488-3.868-1.88-3.868zm-24.276 3.867c0 2.34-.53 3.733-1.838 3.733-1.301 0-1.836-1.394-1.836-3.733 0-2.333.535-3.728 1.836-3.728 1.309 0 1.838 1.395 1.838 3.728zM51.475 7.24l-3.883 11.444c-.471 1.397-.791 1.72-1.605 1.72h-.792v2.016h6.835v-2.017h-.668c-.633 0-1.45-.07-1.45-.44 0-.32.095-.66.348-1.458l.283-.917h4.744l.486 1.645c.093.344.116.595.116.83 0 .25-.58.34-1.278.34h-.696v2.017H62.4v-2.017h-.79c-.81 0-1.136-.322-1.598-1.72L56.127 7.242h-4.652zm1.394 3.406h.047l1.67 4.93h-3.373l1.656-4.93zm10.88 11.774h2.608l.672-1.425c.81 1.26 2.114 1.763 3.578 1.763 3.49 0 4.79-2.677 4.79-5.701 0-3.015-1.3-5.699-4.79-5.699-1.04 0-2.135.618-2.996 1.58V7.24h-5.767v1.831h1.069c.673 0 .835.34.835.986v12.363zm13.047 0h2.608l.672-1.425c.81 1.26 2.113 1.763 3.577 1.763 3.49 0 4.789-2.677 4.789-5.701 0-3.015-1.3-5.699-4.789-5.699-1.042 0-2.136.618-2.995 1.58V7.24H74.89v1.831h1.068c.674 0 .837.34.837.986v12.363zm24.764-5.362c0 3.664-2.536 5.7-6 5.7-3.468 0-5.999-2.036-5.999-5.7 0-3.662 2.53-5.7 6-5.7 3.463 0 5.999 2.038 5.999 5.7z"/>
    </g>
</svg>
