<svg xmlns="http://www.w3.org/2000/svg" xmlns:xlink="http://www.w3.org/1999/xlink" width="24" height="24" viewBox="0 0 24 24">
        <path fill="#fe9e1f" fill-rule="evenodd" d="M12 20.832c1.587 0 3.067-.406 4.442-1.217 1.34-.775 2.398-1.833 3.173-3.173.811-1.375 1.217-2.855 1.217-4.442 0-1.587-.406-3.067-1.217-4.442-.775-1.34-1.833-2.398-3.173-3.173-1.375-.811-2.855-1.217-4.442-1.217-1.587 0-3.067.406-4.442 1.217-1.34.775-2.398 1.833-3.173 3.173C3.574 8.933 3.168 10.413 3.168 12c0 1.587.406 3.067 1.217 4.442.775 1.34 1.833 2.398 3.173 3.173 1.375.811 2.855 1.217 4.442 1.217zM12 1c2.01 0 3.87.502 5.58 1.507 1.656.952 2.96 2.257 3.913 3.914C22.498 8.13 23 9.99 23 12c0 2.01-.502 3.87-1.507 5.58-.952 1.656-2.257 2.96-3.914 3.913C15.87 22.498 14.01 23 12 23c-2.01 0-3.87-.502-5.58-1.507-1.656-.97-2.96-2.283-3.913-3.94C1.502 15.843 1 13.992 1 12s.502-3.843 1.507-5.553c.97-1.657 2.283-2.97 3.94-3.94C8.157 1.502 10.008 1 12 1zm1.084 6.558v3.358h3.358c.6 0 1.084.485 1.084 1.084 0 .599-.485 1.084-1.084 1.084h-3.358v3.358c0 .6-.485 1.084-1.084 1.084-.599 0-1.084-.485-1.084-1.084v-3.358H7.558c-.6 0-1.084-.485-1.084-1.084 0-.599.485-1.084 1.084-1.084h3.358V7.558c0-.6.485-1.084 1.084-1.084.599 0 1.084.485 1.084 1.084z"/>
</svg>
