<svg width="16" height="16" viewBox="0 0 16 16" fill="none" xmlns="http://www.w3.org/2000/svg">
<path fill-rule="evenodd" clip-rule="evenodd" d="M8 0C3.58186 0 0 3.58186 0 8C0 12.4181 3.58186 16 8 16C12.4181 16 16 12.4181 16 8C16 3.58186 12.4181 0 8 0ZM8 1C11.8659 1 15 4.13414 15 8C15 11.8659 11.8659 15 8 15C4.13414 15 1 11.8659 1 8C1 4.13414 4.13414 1 8 1ZM7.9999 3.39394C7.46531 3.39394 7.0304 3.82914 7.0304 4.36407C7.0304 4.89852 7.46531 5.33333 7.9999 5.33333C8.5345 5.33333 8.96941 4.89852 8.96941 4.36407C8.96941 3.82914 8.5345 3.39394 7.9999 3.39394ZM8 6.78788C7.59835 6.78788 7.27273 7.1135 7.27273 7.51515V11.8788C7.27273 12.2804 7.59835 12.6061 8 12.6061C8.40165 12.6061 8.72727 12.2804 8.72727 11.8788V7.51515C8.72727 7.1135 8.40165 6.78788 8 6.78788Z" fill="#222731"/>
</svg>
