<svg xmlns="http://www.w3.org/2000/svg" width="24" height="24" viewBox="0 0 24 24">
    <path fill="#FE9E1F" fill-rule="evenodd" d="M9.378 2c.351 0 .703.145.971.434.537.579.537 1.517 0 2.096L4.69 10.636h16.936c.759 0 1.374.663 1.374 1.482s-.615 1.482-1.374 1.482H4.69l5.44 5.87c.269.29.403.669.403 1.048 0 .38-.134.759-.402 1.048-.537.579-1.407.579-1.943 0l-7.786-8.4v-.001L.4 13.164H.4l-.001-.002c-.243-.264-.375-.602-.396-.946-.006-.095-.003-.19.008-.284.033-.283.141-.558.326-.786.023-.029.047-.057.072-.084l7.997-8.628c.269-.29.62-.434.972-.434"/>
</svg>
