<svg xmlns="http://www.w3.org/2000/svg" width="24" height="24" viewBox="0 0 24 24">
    <path fill="#FE9E1F" fill-rule="evenodd" d="M14.622 22c-.351 0-.703-.145-.971-.434-.537-.579-.537-1.517 0-2.096l5.659-6.106H2.374c-.759 0-1.374-.663-1.374-1.482S1.615 10.4 2.374 10.4H19.31l-5.44-5.87c-.269-.29-.403-.669-.403-1.048 0-.38.134-.759.402-1.048.537-.579 1.407-.579 1.943 0l7.786 8.4v.001l.001.001h.001l.001.002c.243.264.375.602.396.946.006.095.003.19-.008.284-.033.283-.141.558-.326.786-.023.029-.047.057-.072.084l-7.997 8.628c-.269.29-.62.434-.972.434"/>
</svg>
