<svg xmlns="http://www.w3.org/2000/svg" width="30" height="27" viewBox="0 0 30 27">
    <path fill="#FFF" fill-rule="evenodd" d="M18.278 24.75c-.44 0-.88-.163-1.215-.488-.67-.652-.67-1.707 0-2.359l7.074-6.868H2.967c-.948 0-1.717-.747-1.717-1.668 0-.92.769-1.667 1.717-1.667h21.17l-6.8-6.603c-.336-.326-.503-.753-.503-1.18 0-.426.167-.853.503-1.179.67-.65 1.758-.65 2.428 0l9.732 9.45.002.002.001.002h.001v.001c.304.297.469.677.495 1.064.007.106.004.213-.01.32-.04.318-.177.627-.407.884-.029.032-.06.064-.09.094l-9.997 9.707c-.335.325-.775.488-1.214.488"/>
</svg>
