<svg xmlns="http://www.w3.org/2000/svg" width="26" height="26" viewBox="0 0 26 26">
    <path fill="#FE9E1F" fill-rule="evenodd" d="M4.767 7.192v13.783c0 .442.358.8.8.8h14.866c.442 0 .8-.358.8-.8V7.192c0-.442-.358-.8-.8-.8H5.567c-.442 0-.8.358-.8.8zm3.4-5.567c.276 0 .5.224.5.5v1.666h8.666V2.125c0-.276.224-.5.5-.5h2.25c.276 0 .5.224.5.5v1.666h1.25c1.105 0 2 .896 2 2v16.584c0 1.105-.895 2-2 2H4.167c-1.105 0-2-.895-2-2V5.792c0-1.105.895-2 2-2l1.25-.001V2.125c0-.276.224-.5.5-.5h2.25zm.783 6.5H7.3c-.442 0-.8.358-.8.8v1.65c0 .442.358.8.8.8h1.65c.442 0 .8-.358.8-.8v-1.65c0-.442-.358-.8-.8-.8zm4.875 0h-1.65c-.442 0-.8.358-.8.8v1.65c0 .442.358.8.8.8h1.65c.442 0 .8-.358.8-.8v-1.65c0-.442-.358-.8-.8-.8zm4.875 0h-1.65c-.442 0-.8.358-.8.8v1.65c0 .442.358.8.8.8h1.65c.442 0 .8-.358.8-.8v-1.65c0-.442-.358-.8-.8-.8z"/>
</svg>
