<svg xmlns="http://www.w3.org/2000/svg" width="24" height="24" viewBox="0 0 24 24">
    <path fill="#002F87" d="M21.588 12.102l1.888-8.009c.136-.578-.32-1.129-.935-1.129H6.857L6.491 1.24C6.401.809 6.008.5 5.552.5H1.458C.93.5.5.914.5 1.424v.616c0 .51.43.924.958.924h2.79l2.806 13.224c-.671.372-1.123 1.07-1.123 1.87 0 1.19 1 2.156 2.236 2.156 1.235 0 2.236-.965 2.236-2.156 0-.603-.258-1.149-.672-1.54h8.371c-.414.391-.671.937-.671 1.54 0 1.19 1 2.156 2.236 2.156 1.235 0 2.236-.965 2.236-2.156 0-.854-.515-1.591-1.261-1.94l.22-.936c.136-.578-.32-1.128-.934-1.128H9.21l-.262-1.233h11.706c.447 0 .835-.298.934-.719z"/>
</svg>
