<svg width="16" height="16" viewBox="0 0 16 16" fill="none" xmlns="http://www.w3.org/2000/svg">
<path fill-rule="evenodd" clip-rule="evenodd" d="M0.784306 0.0881029L0.853553 0.145958L8 7.29251L15.1464 0.145958C15.3417 -0.0493038 15.6583 -0.0493038 15.8536 0.145958C16.0271 0.319525 16.0464 0.588949 15.9114 0.783817L15.8536 0.853065L8.707 7.99951L15.8536 15.146C16.0488 15.3412 16.0488 15.6578 15.8536 15.8531C15.68 16.0266 15.4106 16.0459 15.2157 15.9109L15.1464 15.8531L8 8.70651L0.853553 15.8531C0.658291 16.0483 0.341709 16.0483 0.146447 15.8531C-0.0271197 15.6795 -0.0464049 15.4101 0.0885912 15.2152L0.146447 15.146L7.293 7.99951L0.146447 0.853065C-0.0488155 0.657803 -0.0488155 0.34122 0.146447 0.145958C0.320013 -0.027608 0.589437 -0.0468932 0.784306 0.0881029Z" fill="black"/>
</svg>
