<svg xmlns="http://www.w3.org/2000/svg" width="24" height="24" viewBox="0 0 24 24">
    <g fill="none" fill-rule="evenodd">
        <g fill="#002F87">
            <g>
                <g>
                    <g>
                        <g>
                            <path d="M23.464 3.122L14.587 12l8.877 8.878c.715.714.715 1.872 0 2.586-.714.715-1.872.715-2.586 0L12 14.587l-8.878 8.877c-.714.715-1.872.715-2.586 0-.715-.714-.715-1.872 0-2.586L9.413 12 .536 3.122C-.18 2.408-.18 1.25.536.536c.714-.715 1.872-.715 2.586 0L12 9.413 20.878.536c.714-.715 1.872-.715 2.586 0 .715.714.715 1.872 0 2.586z" transform="translate(-335 -70) translate(0 45) translate(193 17) translate(142) translate(0 8)"/>
                        </g>
                    </g>
                </g>
            </g>
        </g>
    </g>
</svg>
