<svg width="35" height="29" viewBox="0 0 35 29" fill="none" xmlns="http://www.w3.org/2000/svg">
<rect width="35" height="29" rx="4" fill="#FE9E1F"/>
<path fill-rule="evenodd" clip-rule="evenodd" d="M28.175 8.125C28.6306 8.125 29 8.49437 29 8.95C29 9.36007 28.7008 9.70026 28.3088 9.7642L28.175 9.775H7.825C7.36937 9.775 7 9.40563 7 8.95C7 8.53993 7.29919 8.19974 7.69118 8.1358L7.825 8.125H28.175ZM28.175 14.1749C28.6306 14.1749 29 14.5442 29 14.9999C29 15.4099 28.7008 15.7501 28.3088 15.8141L28.175 15.8249H7.825C7.36937 15.8249 7 15.4555 7 14.9999C7 14.5898 7.29919 14.2496 7.69118 14.1857L7.825 14.1749H28.175ZM29 21.0497C29 20.5941 28.6306 20.2247 28.175 20.2247H7.825L7.69118 20.2355C7.29919 20.2995 7 20.6397 7 21.0497C7 21.5054 7.36937 21.8747 7.825 21.8747H28.175L28.3088 21.8639C28.7008 21.8 29 21.4598 29 21.0497Z" fill="#464646"/>
</svg>
