<svg width="16" height="14" viewBox="0 0 16 14" fill="none" xmlns="http://www.w3.org/2000/svg">
<path d="M1.85533 13L14.3553 1" stroke="#222731" stroke-linecap="round" stroke-linejoin="round"/>
<path d="M5.976 11.7006C6.63121 11.9041 7.31394 12.0051 8 12C10.7333 12.046 13.5053 10.1246 15.216 8.24198C15.5959 7.82025 15.5959 7.17972 15.216 6.75798C14.5963 6.07812 13.9097 5.46235 13.1667 4.91998" stroke="#222731" stroke-linecap="round" stroke-linejoin="round"/>
<path d="M9.60867 3.18799C9.08264 3.05709 8.54204 2.99391 8 2.99999C5.31267 2.95532 2.53333 4.83465 0.785999 6.75665C0.406122 7.17839 0.406122 7.81892 0.785999 8.24065C1.31728 8.82225 1.89716 9.35752 2.51933 9.84065" stroke="#222731" stroke-linecap="round" stroke-linejoin="round"/>
<path d="M5.5 7.5C5.49982 6.8369 5.76316 6.20092 6.23204 5.73204C6.70092 5.26316 7.3369 4.99982 8 5" stroke="#222731" stroke-linecap="round" stroke-linejoin="round"/>
<path d="M10.5 7.49933V7.49933C10.5002 8.16249 10.2369 8.79854 9.768 9.26753C9.29914 9.73651 8.66316 10 8 10" stroke="#222731" stroke-linecap="round" stroke-linejoin="round"/>
</svg>
