<svg xmlns="http://www.w3.org/2000/svg" width="24" height="25" viewBox="0 0 24 25">
    <path fill="#FE9E1F" fill-rule="evenodd" d="M12 2c2.01 0 3.87.502 5.58 1.507 1.656.952 2.96 2.257 3.913 3.914C22.498 9.13 23 10.99 23 13c0 2.01-.502 3.87-1.507 5.58-.952 1.656-2.257 2.96-3.914 3.913C15.87 23.498 14.01 24 12 24c-2.01 0-3.87-.502-5.58-1.507-1.656-.97-2.96-2.283-3.913-3.94C1.502 16.843 1 14.992 1 13s.502-3.843 1.507-5.553c.97-1.657 2.283-2.97 3.94-3.94C8.157 2.502 10.008 2 12 2zm0 4.39c.793 0 1.525.198 2.195.594.67.397 1.203.93 1.6 1.6.396.67.594 1.402.594 2.195 0 .6-.176 1.154-.528 1.666-.212.317-.591.718-1.137 1.203-.547.485-.917.86-1.111 1.124-.137.185-.255.437-.352.755-.141.462-.568.778-1.052.778h-.287c-.486 0-.88-.394-.88-.88 0-.057.005-.113.016-.17.058-.292.125-.524.202-.695.176-.388.45-.758.82-1.11.14-.124.466-.388.978-.794.388-.3.66-.564.82-.793.229-.317.343-.679.343-1.084 0-.6-.22-1.11-.66-1.534-.442-.423-.962-.634-1.561-.634-.6 0-1.12.211-1.56.634-.184.177-.34.444-.466.801-.156.44-.571.733-1.037.733h-.242c-.503 0-.91-.407-.91-.91 0-.071.008-.143.025-.212.11-.455.241-.812.396-1.073.396-.67.93-1.203 1.6-1.6.67-.396 1.4-.595 2.194-.595zm-1.084 12.136v-.052c0-.6.485-1.085 1.084-1.085.599 0 1.084.486 1.084 1.085v.052c0 .6-.485 1.085-1.084 1.085-.599 0-1.084-.486-1.084-1.085z"/>
</svg>
