<svg width="24" height="24" viewBox="0 0 24 24" fill="none" xmlns="http://www.w3.org/2000/svg">
<rect width="24" height="24" fill="#E5E5E5"/>
<rect width="375" height="667" transform="translate(-193 -272)" fill="white"/>
<g clip-path="url(#clip0_3837_15168)">
<rect x="-178" y="2" width="345" height="116" rx="8.85693" fill="white"/>
</g>
<rect x="-177.5" y="2.5" width="344" height="115" rx="8.35693" stroke="#003087"/>
<rect x="-33" y="-272" width="215" height="667" fill="#E5F2F7"/>
<circle cx="12" cy="12" r="12" fill="#003087"/>
<path fill-rule="evenodd" clip-rule="evenodd" d="M8.49335 4.5H15.4933C17.7027 4.5 19.4933 6.29067 19.4933 8.5V15.5C19.4933 17.7093 17.7027 19.5 15.4933 19.5H8.49335C6.28401 19.5 4.49335 17.7093 4.49335 15.5V8.5C4.49335 6.29067 6.28401 4.5 8.49335 4.5Z" stroke="white" stroke-linecap="round" stroke-linejoin="round"/>
<path fill-rule="evenodd" clip-rule="evenodd" d="M11.9934 8.66675C13.834 8.66675 15.3267 10.1594 15.3267 12.0001C15.3267 13.8407 13.834 15.3334 11.9934 15.3334C10.1527 15.3334 8.66003 13.8407 8.66003 12.0001C8.66003 10.1594 10.1527 8.66675 11.9934 8.66675Z" stroke="white" stroke-linecap="round" stroke-linejoin="round"/>
<path d="M16.8934 7.43327C16.8934 7.61727 16.744 7.7666 16.56 7.7666C16.376 7.7666 16.2267 7.61727 16.2267 7.43327" stroke="white" stroke-linecap="round" stroke-linejoin="round"/>
<path d="M16.2267 7.43335C16.2267 7.24935 16.376 7.10002 16.56 7.10002C16.744 7.10002 16.8934 7.24935 16.8934 7.43335" stroke="white" stroke-linecap="round" stroke-linejoin="round"/>
<defs>
<clipPath id="clip0_3837_15168">
<rect x="-178" y="2" width="345" height="116" rx="8.85693" fill="white"/>
</clipPath>
</defs>
</svg>
