<svg xmlns="http://www.w3.org/2000/svg" width="27" height="26" viewBox="0 0 27 26">
    <path fill="#FE9E1F" fill-rule="evenodd" d="M24.972 22.79l-6.167-6.212c-.231-.233-.255-.592-.075-.867 2.528-3.878 1.938-9.21-1.792-12.396-3.59-3.064-9.053-2.96-12.53.233-3.992 3.664-4.093 9.9-.301 13.695 3.233 3.236 8.237 3.629 11.912 1.198.276-.183.638-.159.87.075l6.154 6.2c.266.267.698.268.965 0l.962-.963c.266-.265.267-.696.002-.962zm-18.94-7.475c-2.63-2.633-2.63-6.918 0-9.55 2.632-2.634 6.913-2.635 9.544 0 2.631 2.632 2.631 6.917 0 9.55-2.631 2.633-6.912 2.633-9.543 0z"/>
</svg>
