<svg xmlns="http://www.w3.org/2000/svg" width="24" height="24" viewBox="0 0 24 24">
    <path fill="#002F87" fill-rule="evenodd" d="M22.817 21.037l-5.692-5.734c-.214-.215-.235-.546-.07-.8C19.389 10.923 18.845 6 15.4 3.06 12.088.23 7.045.328 3.835 3.275.15 6.657.057 12.415 3.557 15.916c2.985 2.987 7.604 3.35 10.996 1.106.255-.168.589-.146.804.07l5.68 5.722c.245.247.644.248.89.002l.889-.89c.245-.245.246-.642.001-.889zm-17.482-6.9c-2.43-2.43-2.43-6.386 0-8.816 2.428-2.43 6.38-2.432 8.809 0 2.429 2.43 2.429 6.385 0 8.816-2.429 2.43-6.38 2.43-8.81 0z"/>
</svg>
