<svg xmlns="http://www.w3.org/2000/svg" xmlns:xlink="http://www.w3.org/1999/xlink" width="1440" height="899" viewBox="0 0 1440 899">
    <defs>
        <path id="prefix__a" d="M21.588 12.102l1.888-8.009c.136-.578-.32-1.129-.935-1.129H6.857L6.491 1.24C6.401.809 6.008.5 5.552.5H1.458C.93.5.5.914.5 1.424v.616c0 .51.43.924.958.924h2.79l2.806 13.224c-.671.372-1.123 1.07-1.123 1.87 0 1.19 1 2.156 2.236 2.156 1.235 0 2.236-.965 2.236-2.156 0-.603-.258-1.149-.672-1.54h8.371c-.414.391-.671.937-.671 1.54 0 1.19 1 2.156 2.236 2.156 1.235 0 2.236-.965 2.236-2.156 0-.854-.515-1.591-1.261-1.94l.22-.936c.136-.578-.32-1.128-.934-1.128H9.21l-.262-1.233h11.706c.447 0 .835-.298.934-.719z"/>
        <path id="prefix__c" d="M0.028 0.441L155.459 0.441 155.459 41.972 0.028 41.972z"/>
        <path id="prefix__f" d="M0 0H375V679H0z"/>
        <path id="prefix__g" d="M0.001 0.001L20 0.001 20 19.879 0.001 19.879z"/>
        <filter id="prefix__e" width="104.5%" height="102.7%" x="-2.3%" y="-1.1%" filterUnits="objectBoundingBox">
            <feOffset dy="1" in="SourceAlpha" result="shadowOffsetOuter1"/>
            <feGaussianBlur in="shadowOffsetOuter1" result="shadowBlurOuter1" stdDeviation="2.5"/>
            <feComposite in="shadowBlurOuter1" in2="SourceAlpha" operator="out" result="shadowBlurOuter1"/>
            <feColorMatrix in="shadowBlurOuter1" result="shadowMatrixOuter1" values="0 0 0 0 0 0 0 0 0 0 0 0 0 0 0 0 0 0 0.14 0"/>
            <feOffset dy="3" in="SourceAlpha" result="shadowOffsetOuter2"/>
            <feGaussianBlur in="shadowOffsetOuter2" result="shadowBlurOuter2" stdDeviation="2"/>
            <feComposite in="shadowBlurOuter2" in2="SourceAlpha" operator="out" result="shadowBlurOuter2"/>
            <feColorMatrix in="shadowBlurOuter2" result="shadowMatrixOuter2" values="0 0 0 0 0 0 0 0 0 0 0 0 0 0 0 0 0 0 0.12 0"/>
            <feOffset dy="2" in="SourceAlpha" result="shadowOffsetOuter3"/>
            <feGaussianBlur in="shadowOffsetOuter3" result="shadowBlurOuter3" stdDeviation="2"/>
            <feComposite in="shadowBlurOuter3" in2="SourceAlpha" operator="out" result="shadowBlurOuter3"/>
            <feColorMatrix in="shadowBlurOuter3" result="shadowMatrixOuter3" values="0 0 0 0 0 0 0 0 0 0 0 0 0 0 0 0 0 0 0.1 0"/>
            <feMerge>
                <feMergeNode in="shadowMatrixOuter1"/>
                <feMergeNode in="shadowMatrixOuter2"/>
                <feMergeNode in="shadowMatrixOuter3"/>
            </feMerge>
        </filter>
    </defs>
    <g fill="none" fill-rule="evenodd">
        <path fill="#FFF" d="M0 0H1440V85H0z" transform="translate(0 45)"/>
        <g>
            <g>
                <path fill="#FFF" d="M0 0H66V5H0z" transform="translate(1057 76) translate(152) translate(0 62)"/>
                <text fill="#002F87" font-family="Roboto-Regular, Roboto" font-size="12" transform="translate(1057 76) translate(152)">
                    <tspan x="12.278" y="46">My Cart</tspan>
                </text>
                <g>
                    <g transform="translate(1057 76) translate(152) translate(21.5) translate(2.118 10)">
                        <mask id="prefix__b" fill="#fff">
                            <use xlink:href="#prefix__a"/>
                        </mask>
                        <use fill="#777" fill-rule="nonzero" xlink:href="#prefix__a"/>
                        <path fill="#002F87" d="M0 -2H24V22H0z" mask="url(#prefix__b)"/>
                    </g>
                    <g transform="translate(1057 76) translate(152) translate(21.5) translate(16.47)">
                        <path fill="#FE9E1F" d="M10 0h3.53c5.522 0 10 4.477 10 10s-4.478 10-10 10H10C4.477 20 0 15.523 0 10S4.477 0 10 0z"/>
                        <rect width="23.529" height="20" fill="#FFF" fill-opacity="0" rx="10"/>
                        <text fill="#FFF" font-family="Roboto-Regular, Roboto" font-size="14">
                            <tspan x="7.834" y="14">1</tspan>
                        </text>
                    </g>
                </g>
            </g>
            <g>
                <path fill="#FE9E1F" d="M0 0H66V5H0z" transform="translate(1057 76) translate(76) translate(0 62)"/>
                <text fill="#002F87" font-family="Roboto-Regular, Roboto" font-size="12" transform="translate(1057 76) translate(76)">
                    <tspan x="18.217" y="46">Login</tspan>
                </text>
                <path fill="#002F87" d="M33 8.5c-6.353 0-11.5 5.147-11.5 11.5S26.647 31.5 33 31.5 44.5 26.353 44.5 20 39.353 8.5 33 8.5zm.397 4.759c2.19 0 3.965 1.775 3.965 3.965s-1.775 3.966-3.965 3.966-3.966-1.776-3.966-3.966c0-2.19 1.776-3.965 3.966-3.965zM33 28.328c-2.701 0-5.122-1.154-6.741-2.958.865-1.536 2.558-2.594 4.532-2.594.11 0 .221.017.327.048.598.182 1.224.299 1.882.299.658 0 1.288-.117 1.882-.3.106-.03.216-.047.327-.047 1.974 0 3.667 1.058 4.532 2.594-1.62 1.804-4.04 2.958-6.741 2.958z" transform="translate(1057 76) translate(76)"/>
            </g>
            <path fill="#FFF" d="M0 0H66V5H0z" transform="translate(1057 76) translate(0 62)"/>
            <text fill="#002F87" font-family="Roboto-Regular, Roboto" font-size="12" transform="translate(1057 76)">
                <tspan x="14.522" y="46">Search</tspan>
            </text>
            <path fill="#002F87" d="M43.817 29.037l-5.692-5.734c-.214-.215-.235-.546-.07-.8 2.334-3.58 1.79-8.503-1.654-11.443-3.313-2.829-8.356-2.732-11.566.215-3.685 3.382-3.778 9.14-.278 12.641 2.985 2.987 7.604 3.35 10.996 1.106.255-.168.589-.146.804.07l5.68 5.722c.245.247.644.248.89.002l.889-.89c.245-.245.246-.642.001-.889zm-17.482-6.9c-2.43-2.43-2.43-6.386 0-8.816 2.428-2.43 6.38-2.432 8.809 0 2.429 2.43 2.429 6.385 0 8.816-2.429 2.43-6.38 2.43-8.81 0z" transform="translate(1057 76)"/>
        </g>
        <g>
            <g>
                <path fill="#FFF" d="M0 0H88V5H0z" transform="translate(376 83) translate(492) translate(0 55)"/>
                <text fill="#002F87" font-family="BrandonText-Bold, Brandon Text" font-size="18" font-weight="bold" transform="translate(376 83) translate(492)">
                    <tspan x="0" y="19">Resources </tspan> <tspan x="0" y="39">&amp; Tools</tspan>
                </text>
            </g>
            <g>
                <path fill="#FFF" d="M0 0H85V5H0z" transform="translate(376 83) translate(377) translate(0 55)"/>
                <text fill="#002F87" font-family="BrandonText-Bold, Brandon Text" font-size="18" font-weight="bold" transform="translate(376 83) translate(377)">
                    <tspan x="0" y="19">Coupons </tspan> <tspan x="0" y="39">&amp; Samples</tspan>
                </text>
            </g>
            <g>
                <path fill="#FFF" d="M0 0H87V5H0z" transform="translate(376 83) translate(260) translate(0 55)"/>
                <text fill="#002F87" font-family="BrandonText-Bold, Brandon Text" font-size="18" font-weight="bold" transform="translate(376 83) translate(260)">
                    <tspan x="0" y="19">Your </tspan> <tspan x="0" y="39">Pregnancy</tspan>
                </text>
            </g>
            <g>
                <path fill="#FFF" d="M0 0H126V5H0z" transform="translate(376 83) translate(104) translate(0 55)"/>
                <text fill="#002F87" font-family="BrandonText-Bold, Brandon Text" font-size="18" font-weight="bold" transform="translate(376 83) translate(104)">
                    <tspan x="0" y="19">Baby Feeding </tspan> <tspan x="0" y="39">&amp; Development</tspan>
                </text>
            </g>
            <path fill="#FFF" d="M0 0H74V5H0z" transform="translate(376 83) translate(0 55)"/>
            <text fill="#002F87" font-family="BrandonText-Bold, Brandon Text" font-size="18" font-weight="bold" transform="translate(376 83)">
                <tspan x="0" y="19">Similac</tspan> <tspan x="0" y="39">Products</tspan>
            </text>
        </g>
        <g transform="translate(165 80)">
            <mask id="prefix__d" fill="#fff">
                <use xlink:href="#prefix__c"/>
            </mask>
            <path fill="#004B86" d="M15.618 41.659c1.95 0 3.725-.27 5.318-.805 1.594-.54 2.943-1.297 4.066-2.266 1.121-.981 1.987-2.164 2.602-3.561.617-1.392.921-2.945.921-4.655 0-2.431-.519-4.465-1.54-6.095-1.028-1.627-2.32-3.034-3.877-4.216-1.556-1.17-3.222-2.18-5.013-3.016-1.791-.832-3.458-1.658-5.01-2.474-1.551-.818-2.847-1.724-3.874-2.72-1.032-.991-1.543-2.21-1.543-3.643 0-1.87.566-3.273 1.71-4.214 1.138-.932 2.52-1.4 4.148-1.4 1.307 0 2.583.298 3.853.843 3.491 1.498 8.018 5.998 8.847 9.786h.113l.007-10.946h-1.955c-.685 0-1.427-.09-2.22-.274-.796-.187-1.647-.407-2.547-.647-.913-.248-1.864-.458-2.878-.643C15.734.53 14.686.44 13.593.44c-4.19 0-7.316.84-9.383 2.53-2.055 1.7-3.399 4.16-3.399 7.904 0 2.153.832 4.22 1.886 5.696 1.049 1.471 2.361 2.743 3.934 3.816 1.576 1.077 3.274 2.03 5.107 2.866 1.827.831 3.524 1.709 5.101 2.6 1.579.896 2.883 1.892 3.934 2.984 1.049 1.102 1.573 2.46 1.573 4.089 0 1.2-.187 2.187-.565 2.962-.386.783-.928 1.393-1.635 1.848-.7.465-1.546.786-2.519.985-.979.2-2.062.3-3.26.3-1.46 0-2.903-.31-4.32-.942C5.43 35.995 1.313 30.557.215 27.112H.011L0 39.618h2.19c.772 0 1.6.1 2.496.304.887.211 1.829.483 2.848.725 2.165.509 3.336 1.012 8.084 1.012M155.36 32.898l.099.026c-.536 3.956-2.449 6.211-4.237 7.355-1.799 1.143-3.714 1.721-5.743 1.721-3.407 0-6.132-1.338-8.186-3.983-2.043-2.654-3.047-5.84-3.047-9.563 0-3.591.924-6.74 2.795-9.472 2.25-3.288 5.362-4.937 9.32-4.937 2.653 0 4.768.69 6.344 2.072 1.548 1.377 2.348 2.918 2.348 4.61 0 1.075-.324 1.94-.965 2.58-.626.637-1.47.963-2.502.963-1.09 0-1.982-.364-2.697-1.108-.715-.733-1.144-2.048-1.31-3.935-.114-1.185-.383-2.021-.813-2.49-.421-.476-.92-.716-1.494-.716-.88 0-1.633.48-2.266 1.439-.963 1.446-1.439 3.654-1.439 6.637 0 2.477.35 4.855 1.146 7.106 2.266 6.34 10.604 6.141 12.647 1.695" mask="url(#prefix__d)"/>
            <path fill="#004B86" d="M39.64 41.276v-26.07H29.55c1.39.59 2.19 2.433 2.19 4.3v15.948c.126 1.803 1.092 5.82 7.034 5.82l-.003.002h.869M94.414 41.276v-26.07h-9.369c1.039.925 1.785 2.708 1.785 4.587v15.66c.124 1.804 1.045 5.82 6.74 5.82v.003h.844M82.162 41.276V24.545c0-2.869-.196-4.962-.614-6.271-.408-1.307-1.137-2.392-2.197-3.241-1.059-.853-2.474-1.274-4.257-1.274-1.475 0-2.881.38-4.214 1.143-1.366.764-2.77 2-4.234 3.722-.6-1.641-1.472-2.864-2.597-3.663-1.111-.802-2.5-1.202-4.161-1.202-1.43 0-2.752.318-3.945.955-1.212.638-2.52 1.761-3.935 3.362v-3.488h-9.485s1.769.793 1.769 3.18v17.548c.127 1.846 1.074 5.957 6.87 5.957v.003h.846v-20.17c.971-1.409 1.89-2.413 2.751-3.003.62-.4 1.28-.59 2.026-.59.491 0 .966.168 1.39.51.436.345.73.826.928 1.436.185.607.268 2.132.268 4.553v10.425c0 .02-.016.308 0 .753.099 1.766.938 6.083 6.885 6.083v.003h.831v-20.17c.83-1.196 1.639-2.096 2.443-2.698.813-.601 1.617-.899 2.4-.899.54 0 .986.155 1.38.472.395.316.686.803.867 1.453.186.647.289 2.168.289 4.56v11.322c.12 1.846 1.062 5.957 6.867 5.957l-.014.003h.843M106.667 41.276V2.896h-9.37c.65.251 1.913 1.913 1.913 5.462v26.136l.012-.002-.012.035v.668c.08 1.736.869 6.078 6.652 6.078v.003h.805M123.813 35.094c-1.204 1.113-2.424 1.712-3.514 1.712-1.077 0-2.044-.196-2.547-.652-.506-.453-.786-1.011-.858-2.048-.069-1.04.045-2.002 1.444-3.67 1.4-1.664 3.28-2.812 5.475-4.152v8.81zm7.55.482V23.651c0-4.979-.437-6.4-3.012-8.285-1.43-1.052-3.349-1.607-5.784-1.607-2.018 0-3.946.329-5.81.998-1.875.667-3.333 1.622-4.367 2.867-1.055 1.248-1.568 2.552-1.568 3.926 0 .97.39 1.812 1.16 2.538.771.727 1.75 1.084 2.9 1.084 1.076 0 1.96-.324 2.614-.979.677-.659 1.01-1.458 1.01-2.383 0-.765-.35-1.552-1.048-2.377-.504-.582-.77-1.083-.77-1.483 0-.456.237-.85.714-1.201.771-.55 1.75-.824 2.938-.824.729 0 1.386.193 1.973.585.577.389.982.847 1.19 1.37.215.525.31 1.8.31 3.82v2.685c-5.882 2.459-9.492 3.4-11.707 5.312-1.846 1.598-2.645 3.301-2.549 5.412.07 1.501.494 3.15 1.457 4.16 1.147 1.232 2.968 1.99 4.384 1.99 2.887 0 5.29-1.136 8.415-4.075.184 1.477.698 2.572 1.512 3.317 1.068.956 5.336.758 5.336.758h1.23s-.528-2.515-.528-5.683zM32.432 9.052c0 1.801 1.455 3.258 3.248 3.258 1.787 0 3.239-1.457 3.239-3.258 0-1.798-1.452-3.259-3.24-3.259-1.792 0-3.247 1.461-3.247 3.26M87.207 9.052c0 1.801 1.45 3.258 3.243 3.258 1.788 0 3.244-1.457 3.244-3.258 0-1.798-1.456-3.259-3.244-3.259-1.793 0-3.243 1.461-3.243 3.26"/>
            <path fill="#00B8E0" d="M26.653 24.492c-.99-1.569-2.255-2.94-3.756-4.077-1.548-1.163-3.215-2.165-4.947-2.97-1.739-.807-3.454-1.653-5.104-2.516-1.631-.857-3.001-1.819-4.073-2.858C7.596 10.943 7 9.538 7 7.902c0-1.413.311-2.6.914-3.557-.942 1.048-1.427 2.468-1.427 4.238 0 1.64.599 3.04 1.776 4.17 1.07 1.037 2.44 2 4.07 2.857 1.653.863 3.37 1.71 5.106 2.515 1.733.807 3.399 1.805 4.948 2.972 1.5 1.136 2.765 2.507 3.756 4.076.965 1.534 1.453 3.48 1.453 5.787 0 1.628-.294 3.12-.874 4.425-.244.556-.538 1.065-.866 1.546.55-.668 1.012-1.397 1.38-2.227.577-1.307.873-2.796.873-4.424 0-2.308-.49-4.257-1.455-5.788"/>
            <path fill="#00B8E0" d="M3.995 4.39c1.896-1.52 4.868-2.44 8.826-2.44 1.032 0 2.038.085 2.989.252 1.01.181 1.918.38 2.78.608.897.238 1.742.451 2.535.633.821.186 1.607.282 2.34.282h1.261l-.003 5.65c.174.253.342.506.497.763l.005-6.92h-1.264c-.73 0-1.515-.094-2.337-.28-.793-.182-1.64-.395-2.534-.632-.865-.229-1.773-.426-2.78-.607-.953-.166-1.96-.25-2.991-.25-3.958 0-6.928.77-8.826 2.29-.64.519-1.169 1.107-1.61 1.75.333-.39.696-.761 1.112-1.1M9.312 38.85c1.488.649 3.033.978 4.598.978 1.237 0 2.38-.104 3.395-.305 1.08-.217 2.01-.573 2.76-1.057.628-.397 1.149-.764 1.557-1.383-.308.335-.659.628-1.052.873-.75.485-1.678.84-2.76 1.058-1.014.202-2.154.303-3.395.303-1.563 0-3.11-.33-4.597-.976-3.664-1.608-7.195-5.324-9.094-8.651L.72 31.026c1.982 3.096 5.228 6.35 8.59 7.824M145.912 14.96c2.46 0 4.435.633 5.867 1.88 1.396 1.233 2.102 2.6 2.102 4.056 0 .614-.12 1.127-.362 1.552.48-.5.715-1.164.715-2.027 0-1.458-.706-2.824-2.103-4.054-1.431-1.25-3.406-1.884-5.866-1.884-3.675 0-6.493 1.456-8.607 4.446 2.071-2.67 4.781-3.97 8.254-3.97"/>
            <path fill="#00B8E0" d="M141.494 31.636c-.777-2.227-1.172-4.693-1.172-7.335 0-3.09.49-5.355 1.485-6.922-.155.177-.306.367-.448.584-1.034 1.568-1.54 3.863-1.54 7.015 0 2.64.396 5.107 1.177 7.334 1.402 3.954 4.81 5.362 7.535 5.36 1.704 0 3.283-.525 4.482-1.429-.304.847-.682 1.546-1.083 2.136.582-.698 1.155-1.614 1.584-2.811-1.198.902-2.777 1.428-4.48 1.428-2.727.001-6.134-1.405-7.54-5.36M31.712 15.207c.139.212.257.29.372.53h6.338v24.8c.115.002.22.014.336.014h.161V15.208h-7.207M86.486 15.207c.125.215.228.296.334.53h6.379v24.8c.11.002.207.014.32.014h.175V15.208h-7.208M50.45 22.385v18.152c.162.003.315.014.481.014h.24V21.725l-.72.661M65.586 22.387v18.15c.17.003.325.014.503.014h.217V21.725l-.72.663M98.739 3.62c.115.2.223.277.327.521h6.385v36.395c.118.004.223.015.344.015h.15V3.622H98.74M116.68 23.89c.536-.524.797-1.138.797-1.879 0-.592-.288-1.221-.874-1.912-.629-.716-.935-1.345-.935-1.915 0-.286.073-.551.193-.805-.456.433-.546.772-.546 1.329 0 .572.304 1.2.934 1.916.585.69.875 1.32.875 1.914 0 .445-.26.994-.454 1.359.005-.002.006-.004.01-.007M111.991 30.901c1.469-1.202 3.753-2.114 6.992-3.296 1.299-.475 4.981-1.946 4.981-1.946v-.314c-1.73.684-3.267 1.246-4.623 1.741-3.237 1.183-5.374 1.965-6.842 3.165-.64.528-1.14 1.055-1.508 1.611.287-.324.614-.642 1-.96"/>
            <path fill="#00B8E0" d="M112.556 18.584c.96-1.144 2.337-2.038 4.095-2.66 1.783-.633 3.67-.956 5.61-.956 2.253 0 4.075.498 5.41 1.474 2.333 1.698 2.746 2.851 2.746 7.714V36.05c0 1.837.172 3.447.326 4.502h.428c-.163-1.007-.397-2.84-.397-4.987V23.671c0-4.864-.412-6.015-2.747-7.715-1.336-.978-3.155-1.473-5.41-1.473-1.936 0-3.826.324-5.607.958-1.761.62-3.14 1.513-4.097 2.656-.18.212-.34.423-.48.637.04-.051.082-.101.123-.15M115.33 35.058c.076 1.145.386 1.89 1.037 2.498.719.678 1.956.823 2.867.823 1.204 0 2.516-.652 3.8-1.883l.21-.199v-.23c-1.194 1.064-2.407 1.632-3.525 1.632-.91 0-2.149-.143-2.867-.822-.653-.606-.96-1.352-1.037-2.498-.068-1.07.081-2.002.89-3.241-1.24 1.599-1.456 2.666-1.375 3.92M89.91 6.972c1.495 0 2.714 1.166 2.714 2.601 0 .47-.134.909-.365 1.29.44-.463.714-1.073.714-1.746 0-1.432-1.217-2.6-2.712-2.6-.999 0-1.86.526-2.333 1.296.494-.514 1.196-.841 1.983-.841M35.134 6.972c1.496 0 2.714 1.166 2.714 2.601 0 .47-.135.909-.363 1.29.44-.463.713-1.073.713-1.746 0-1.432-1.217-2.6-2.714-2.6-.998 0-1.862.526-2.33 1.296.49-.514 1.193-.841 1.98-.841M50.653 20.276c.13-.139.308-.327.518-.544v-4.525h-7.207c.136.2.257.282.364.535h6.325v4.534M65.933 18.726c-.544-1.436-1.33-2.517-2.336-3.21-.975-.686-2.23-1.033-3.727-1.033-1.308 0-2.515.283-3.595.843-.69.354-1.435.889-2.22 1.599.535-.36 1.225-.761 2.023-1.091 1.001-.459 2.103-.694 3.29-.694 1.495 0 2.751.347 3.727 1.03 1.007.694 1.79 1.775 2.334 3.214l.338.892c.097-.103.29-.303.54-.56l-.374-.99M80.859 18.508c-.366-1.172-1.028-2.147-1.977-2.903-.94-.754-2.195-1.122-3.836-1.122-1.352 0-2.658.355-3.887 1.056-.863.48-1.763 1.18-2.69 2.09.5-.411 1.382-1.062 2.514-1.59 1.133-.579 2.322-.874 3.554-.874 1.644 0 2.899.367 3.839 1.12.943.756 1.607 1.732 1.973 2.903.385 1.21.583 3.24.583 6.047v15.301c.12.003.232.015.359.015h.15V24.556c0-2.805-.195-4.837-.582-6.047"/>
            <path fill="#004B86" d="M157.795 15.779c.307 0 .587-.024.587-.375 0-.299-.293-.326-.55-.326h-.487v.701h.45zm-.45.361V17c0 .12-.069.192-.2.192-.134 0-.196-.073-.196-.192v-2.154c0-.091.04-.125.137-.125h.79c.598 0 .901.173.901.713 0 .468-.273.649-.615.693l.533.814c.023.034.058.108.058.15 0 .064-.12.101-.218.101-.123 0-.182-.037-.242-.133l-.568-.919h-.38zm2.169-.21c0-.948-.767-1.715-1.678-1.715-.906 0-1.67.767-1.67 1.715 0 .954.764 1.716 1.67 1.716.911 0 1.678-.762 1.678-1.716zm-3.838 0c0-1.2.97-2.171 2.16-2.171 1.2 0 2.164.97 2.164 2.171 0 1.202-.964 2.173-2.164 2.173-1.19 0-2.16-.97-2.16-2.173z"/>
        </g>
        <path fill="#007DB3" d="M0 0H1440V58H0z"/>
        <g fill="#FFF">
            <g>
                <path d="M5.488 10C2.743 10 .519 12.23.519 14.98v10.038C.52 27.77 2.743 30 5.49 30h27.465c2.744 0 4.968-2.23 4.968-4.982V4.98C37.922 2.23 35.698 0 32.954 0H.519v5h30.805c.89 0 1.611.722 1.611 1.615v16.77c0 .891-.721 1.616-1.61 1.616H7.116c-.89 0-1.61-.725-1.61-1.616v-6.77c0-.892.72-1.616 1.61-1.616h20.83v-5H5.488M84.33 17.058c0 2.34-.529 3.733-1.839 3.733-1.3 0-1.833-1.394-1.833-3.733 0-2.333.533-3.728 1.833-3.728 1.31 0 1.84 1.395 1.84 3.728zm33.808.186v1.785c0 1.053-.232 1.675-1.116 1.675-.533 0-.787-.392-.787-.875v-6.294h2.854v-1.832h-2.854V7.45h-2.306c-.189 1.897-.791 4.253-3.116 4.253h-3.626V7.45h-2.3c-.188 1.897-.794 4.253-3.115 4.253v1.832h1.556v5.745c0 2.336 1.326 3.479 3.716 3.479 2.796 0 3.905-1.233 3.905-3.479v-2.036h-1.853v1.785c0 1.053-.235 1.675-1.116 1.675-.54 0-.793-.392-.793-.875v-6.294h5.19v5.745c0 2.336 1.32 3.479 3.716 3.479 2.788 0 3.907-1.233 3.907-3.479v-2.036h-1.862zM95.56 13.191c-1.395 0-1.882 1.167-1.882 3.868 0 2.7.487 3.869 1.882 3.869 1.392 0 1.88-1.169 1.88-3.869s-.488-3.868-1.88-3.868zm-24.276 3.867c0 2.34-.53 3.733-1.838 3.733-1.301 0-1.836-1.394-1.836-3.733 0-2.333.535-3.728 1.836-3.728 1.309 0 1.838 1.395 1.838 3.728zM51.475 7.24l-3.883 11.444c-.471 1.397-.791 1.72-1.605 1.72h-.792v2.016h6.835v-2.017h-.668c-.633 0-1.45-.07-1.45-.44 0-.32.095-.66.348-1.458l.283-.917h4.744l.486 1.645c.093.344.116.595.116.83 0 .25-.58.34-1.278.34h-.696v2.017H62.4v-2.017h-.79c-.81 0-1.136-.322-1.598-1.72L56.127 7.242h-4.652zm1.394 3.406h.047l1.67 4.93h-3.373l1.656-4.93zm10.88 11.774h2.608l.672-1.425c.81 1.26 2.114 1.763 3.578 1.763 3.49 0 4.79-2.677 4.79-5.701 0-3.015-1.3-5.699-4.79-5.699-1.04 0-2.135.618-2.996 1.58V7.24h-5.767v1.831h1.069c.673 0 .835.34.835.986v12.363zm13.047 0h2.608l.672-1.425c.81 1.26 2.113 1.763 3.577 1.763 3.49 0 4.789-2.677 4.789-5.701 0-3.015-1.3-5.699-4.789-5.699-1.042 0-2.136.618-2.995 1.58V7.24H74.89v1.831h1.068c.674 0 .837.34.837.986v12.363zm24.764-5.362c0 3.664-2.536 5.7-6 5.7-3.468 0-5.999-2.036-5.999-5.7 0-3.662 2.53-5.7 6-5.7 3.463 0 5.999 2.038 5.999 5.7z" transform="translate(165) translate(990 14)"/>
            </g>
            <text font-family="Roboto-Regular, Roboto" font-size="16" transform="translate(165) translate(894 16)">
                <tspan x="0" y="18">For HCP</tspan>
            </text>
            <g>
                <path d="M0 0H2V16H0z" transform="translate(165) translate(820 16) translate(61 5)"/>
                <text font-family="Roboto-Regular, Roboto" font-size="16" transform="translate(165) translate(820 16)">
                    <tspan x="0" y="18">English</tspan>
                </text>
            </g>
            <g>
                <path d="M0 0H2V16H0z" transform="translate(165) translate(698 16) translate(109 5)"/>
                <text font-family="Roboto-Regular, Roboto" font-size="16" transform="translate(165) translate(698 16)">
                    <tspan x="0" y="18">Why Similac®</tspan>
                </text>
            </g>
            <g>
                <path d="M0 0H2V16H0z" transform="translate(165) translate(574 16) translate(111 5)"/>
                <text font-family="Roboto-Regular, Roboto" font-size="16" transform="translate(165) translate(574 16)">
                    <tspan x="0" y="18">Find a Retailer</tspan>
                </text>
            </g>
            <g>
                <path d="M0 0H2V16H0z" transform="translate(165) translate(479 16) translate(82 5)"/>
                <text font-family="Roboto-Regular, Roboto" font-size="16" transform="translate(165) translate(479 16)">
                    <tspan x="0" y="18">Shop Now</tspan>
                </text>
            </g>
            <g>
                <path d="M0 0H2V16H0z" transform="translate(165) translate(317 16) translate(149 5)"/>
                <text font-family="Roboto-Regular, Roboto" font-size="16" transform="translate(165) translate(317 16)">
                    <tspan x="0" y="18">Join StrongMoms®</tspan>
                </text>
            </g>
        </g>
        <g transform="translate(824 143)">
            <use fill="#000" filter="url(#prefix__e)" xlink:href="#prefix__f"/>
            <use fill="#FFF" fill-opacity="0" xlink:href="#prefix__f"/>
            <path fill="#E5F2F7" d="M0 0H375V679H0z"/>
            <g transform="translate(15 607)">
                <path fill="#FFF" d="M21 0h303c11.598 0 21 9.402 21 21s-9.402 21-21 21H21C9.402 42 0 32.598 0 21S9.402 0 21 0z"/>
                <rect width="342" height="39" x="1.5" y="1.5" stroke="#FE9E1F" stroke-width="3" rx="19.5"/>
                <rect width="345" height="42" fill="#FFF" fill-opacity="0" rx="21"/>
                <text fill="#FE9E1F" font-family="BrandonText-Bold, Brandon Text" font-size="18" font-weight="bold">
                    <tspan x="152.745" y="28.226">CTA</tspan>
                </text>
            </g>
            <text fill="#002F87" font-family="Roboto-Regular, Roboto" font-size="16">
                <tspan x="15" y="568">Lorem ipsum dolor sit amet, consectetur </tspan> <tspan x="15" y="590">adipiscing elit, sed do eiusmod tempor </tspan>
            </text>
            <text fill="#002F87" font-family="BrandonText-Bold, Brandon Text" font-size="24" font-weight="bold">
                <tspan x="15" y="539">Lorem Ipsum dolor</tspan>
            </text>
            <text fill="#07F" font-family="Roboto-Regular, Roboto" font-size="16">
                <tspan x="15" y="476">Forgot Password?</tspan>
            </text>
            <g>
                <path fill="#FE9E1F" d="M21 0h303c11.598 0 21 9.402 21 21s-9.402 21-21 21H21C9.402 42 0 32.598 0 21S9.402 0 21 0z" transform="translate(15 404)"/>
                <text fill="#FFF" font-family="BrandonText-Bold, Brandon Text" font-size="18" font-weight="bold" transform="translate(15 404)">
                    <tspan x="152.745" y="28.226">CTA</tspan>
                </text>
            </g>
            <g>
                <g transform="translate(20 321) translate(0 26)">
                    <path fill="#FFF" d="M7.692 0h319.616c2.675 0 3.645.278 4.623.801.977.523 1.745 1.29 2.268 2.268.523.978.801 1.948.801 4.623v26.616c0 2.675-.278 3.645-.801 4.623-.523.977-1.29 1.745-2.268 2.268-.978.523-1.948.801-4.623.801H7.692c-2.675 0-3.645-.278-4.623-.801-.977-.523-1.745-1.29-2.268-2.268C.278 37.953 0 36.983 0 34.308V7.692c0-2.675.278-3.645.801-4.623.523-.977 1.29-1.745 2.268-2.268C4.047.278 5.017 0 7.692 0z"/>
                    <rect width="334" height="41" x=".5" y=".5" stroke="#029CE8" rx="6"/>
                    <path fill="#FE9E1F" d="M313.108 14.658c2.26 1.74 3.796 4.263 4.809 6.884-1.842 4.766-5.417 9.208-11.917 9.208-2.792 0-5.044-.82-6.85-2.132l3.119-3.12c.965.91 2.273 1.46 3.731 1.46 3.033 0 5.417-2.383 5.417-5.416 0-1.459-.551-2.766-1.46-3.732zm1.543-4.158l.766.766-19.151 19.15-.766-.765 2.239-2.24c-1.643-1.639-2.826-3.721-3.656-5.87 1.842-4.766 5.417-9.208 11.917-9.208 2.143 0 3.967.483 5.517 1.3l3.134-3.133zm-6.226 8.841c.517.572.825 1.34.825 2.2 0 1.842-1.408 3.25-3.25 3.25-.862 0-1.628-.308-2.2-.824zM306 16.125c-3.033 0-5.417 2.383-5.417 5.417 0 .888.205 1.721.57 2.455l1.683-1.683c-.056-.246-.086-.505-.086-.772 0-1.842 1.408-3.25 3.25-3.25.268 0 .526.03.772.086l1.683-1.683c-.734-.365-1.566-.57-2.455-.57z"/>
                    <text fill="#474747" font-family="Roboto-Regular, Roboto" font-size="16">
                        <tspan x="16" y="15">••••••••</tspan>
                    </text>
                </g>
                <text fill="#002F87" font-family="Roboto-Bold, Roboto" font-size="18" font-weight="bold" transform="translate(20 321)">
                    <tspan x="0" y="17">Password*</tspan>
                </text>
            </g>
            <g>
                <g transform="translate(20 243) translate(0 26)">
                    <path fill="#FFF" d="M7.692 0h319.616c2.675 0 3.645.278 4.623.801.977.523 1.745 1.29 2.268 2.268.523.978.801 1.948.801 4.623v26.616c0 2.675-.278 3.645-.801 4.623-.523.977-1.29 1.745-2.268 2.268-.978.523-1.948.801-4.623.801H7.692c-2.675 0-3.645-.278-4.623-.801-.977-.523-1.745-1.29-2.268-2.268C.278 37.953 0 36.983 0 34.308V7.692c0-2.675.278-3.645.801-4.623.523-.977 1.29-1.745 2.268-2.268C4.047.278 5.017 0 7.692 0z"/>
                    <rect width="334" height="41" x=".5" y=".5" stroke="#029CE8" rx="6"/>
                    <text fill="#474747" font-family="Roboto-Regular, Roboto" font-size="16">
                        <tspan x="16" y="15">Input</tspan>
                    </text>
                </g>
                <text fill="#002F87" font-family="Roboto-Bold, Roboto" font-size="18" font-weight="bold" transform="translate(20 243)">
                    <tspan x="0" y="17">Email Address*</tspan>
                </text>
            </g>
            <g transform="translate(15 109)">
                <g fill="#002F87">
                    <text font-family="Roboto-Bold, Roboto" font-size="18" font-weight="bold" transform="translate(0 80)">
                        <tspan x="160.542" y="17">OR</tspan>
                    </text>
                    <path d="M0 12H147V13H0zM198 12H345V13H198z" transform="translate(0 80)"/>
                </g>
                <rect width="158" height="50" fill="#007DB3" rx="6"/>
                <g transform="translate(14 15)">
                    <mask id="prefix__h" fill="#fff">
                        <use xlink:href="#prefix__g"/>
                    </mask>
                    <path fill="#1877F2" d="M20 10c0-5.523-4.477-10-10-10S0 4.477 0 10c0 4.991 3.657 9.128 8.438 9.879V12.89h-2.54V10h2.54V7.797c0-2.506 1.492-3.89 3.777-3.89 1.094 0 2.238.195 2.238.195v2.46h-1.26c-1.243 0-1.63.771-1.63 1.562V10h2.773l-.443 2.89h-2.33v6.989C16.343 19.129 20 14.99 20 10" mask="url(#prefix__h)"/>
                    <path fill="#FFF" d="M13.893 12.89l.443-2.89h-2.774V8.124c0-.79.388-1.562 1.63-1.562h1.261v-2.46s-1.144-.196-2.238-.196c-2.285 0-3.777 1.385-3.777 3.89V10h-2.54v2.89h2.54v6.989c.509.08 1.03.121 1.562.121s1.053-.042 1.563-.121V12.89h2.33"/>
                </g>
                <text fill="#FFF" font-family="BrandonText-Bold, Brandon Text" font-size="16" font-weight="bold">
                    <tspan x="46" y="32">FACEBOOK</tspan>
                </text>
                <g transform="translate(187)">
                    <rect width="158" height="50" fill="#CCC" rx="6"/>
                    <path fill="#007DB3" d="M24.129 23.185v3.63s3.571-.005 5.025-.005c-.787 2.354-2.011 3.636-5.025 3.636-3.05 0-5.43-2.439-5.43-5.446 0-3.007 2.38-5.446 5.43-5.446 1.612 0 2.654.56 3.609 1.338.764-.754.7-.861 2.646-2.673-1.652-1.483-3.846-2.386-6.255-2.386-5.133 0-9.296 4.104-9.296 9.167 0 5.062 4.163 9.167 9.296 9.167 7.673 0 9.549-6.59 8.927-10.982H24.13"/>
                    <text fill="#002F87" font-family="BrandonText-Bold, Brandon Text" font-size="16" font-weight="bold">
                        <tspan x="46" y="32">GOOGLE</tspan>
                    </text>
                </g>
            </g>
            <text fill="#002F87" font-family="Roboto-Regular, Roboto" font-size="16">
                <tspan x="15" y="70">Lorem ipsum dolor sit amet, consectetur </tspan> <tspan x="15" y="92">adipiscing elit, sed do eiusmod tempor.</tspan>
            </text>
            <text fill="#002F87" font-family="BrandonText-Bold, Brandon Text" font-size="24" font-weight="bold">
                <tspan x="15" y="41">Lorem Ipsum dolor</tspan>
            </text>
        </g>
    </g>
</svg>
