<svg width="16" height="10" viewBox="0 0 16 10" fill="none" xmlns="http://www.w3.org/2000/svg">
<path fill-rule="evenodd" clip-rule="evenodd" d="M7.99972 0C11.4676 0 14.477 2.02617 16 5C14.477 7.97383 11.4676 10 7.99972 10C4.53182 10 1.52246 7.97383 0 5C1.52246 2.02617 4.53182 0 7.99972 0ZM7.99972 1.28799C6.02661 1.28799 4.42735 2.94977 4.42735 5C4.42735 7.05023 6.02661 8.71201 7.99972 8.71201C9.97282 8.71201 11.5721 7.05023 11.5721 5C11.5721 2.94977 9.97282 1.28799 7.99972 1.28799ZM7.99949 3.18848C8.96289 3.18848 9.74332 3.99941 9.74332 4.99988C9.74332 6.00094 8.96289 6.81188 7.99949 6.81188C7.03666 6.81188 6.25622 6.00094 6.25622 4.99988C6.25622 3.99941 7.03666 3.18848 7.99949 3.18848Z" fill="#777777"/>
</svg>
