<svg xmlns="http://www.w3.org/2000/svg" width="26" height="26" viewBox="0 0 26 26">
    <path fill="#FE9E1F" fill-rule="evenodd" d="M13 4.333c-6.5 0-10.075 4.442-11.917 9.209C2.925 18.308 6.5 22.75 13 22.75s10.075-4.442 11.917-9.208C23.075 8.775 19.5 4.333 13 4.333zm0 14.625c-3.033 0-5.417-2.383-5.417-5.416 0-3.034 2.384-5.417 5.417-5.417s5.417 2.383 5.417 5.417c0 3.033-2.384 5.416-5.417 5.416zm0-8.666c-1.842 0-3.25 1.408-3.25 3.25 0 1.841 1.408 3.25 3.25 3.25s3.25-1.409 3.25-3.25c0-1.842-1.408-3.25-3.25-3.25z"/>
</svg>
