<svg xmlns="http://www.w3.org/2000/svg" width="24" height="24" viewBox="0 0 24 24">
    <path fill="#F3BD3E" fill-rule="evenodd" d="M12 16.244l3.85 2.414-1.012-4.594 3.43-3.167-4.54-.39L12 6.147l-1.728 4.36-4.54.39 3.43 3.167-1.012 4.594L12 16.244zm8.934-5.475L16.69 14.66l1.263 5.724c.095.432-.177.859-.609.954-.206.046-.423.007-.601-.106L12 18.217l-4.735 3.011c-.372.237-.867.127-1.104-.245-.114-.18-.152-.397-.106-.605l1.28-5.717-4.263-3.892c-.326-.298-.349-.804-.051-1.13.134-.147.32-.24.518-.257l5.574-.51 2.145-5.305c.166-.41.632-.607 1.042-.442.201.081.36.24.442.442l2.146 5.305 5.578.51c.44.04.764.43.724.87-.018.198-.11.382-.256.517z"/>
</svg>
