<svg xmlns="http://www.w3.org/2000/svg" width="24" height="24" viewBox="0 0 24 24">
    <path fill="#F3BD3E" fill-rule="evenodd" d="M20 10.769l-4.244 3.892 1.263 5.724c.095.432-.178.859-.609.954-.207.046-.423.007-.602-.106l-4.741-3.016-4.735 3.011c-.373.237-.867.127-1.104-.245-.114-.18-.152-.397-.106-.605l1.28-5.717-4.263-3.892c-.326-.298-.35-.804-.051-1.13.134-.147.319-.24.518-.257l5.573-.51 2.146-5.305c.166-.41.632-.607 1.042-.442.2.081.36.24.441.442l2.146 5.305 5.58.51c.44.04.763.43.723.87-.018.198-.11.382-.256.517z"/>
</svg>
