<svg xmlns="http://www.w3.org/2000/svg" width="24" height="24" viewBox="0 0 24 24">
    <path fill="#002F87" fill-rule="evenodd" d="M12 .5C5.647.5.5 5.647.5 12S5.647 23.5 12 23.5 23.5 18.353 23.5 12 18.353.5 12 .5zm.397 4.759c2.19 0 3.965 1.775 3.965 3.965s-1.775 3.966-3.965 3.966S8.43 11.414 8.43 9.224c0-2.19 1.776-3.965 3.966-3.965zM12 20.328c-2.701 0-5.122-1.154-6.741-2.958.865-1.536 2.558-2.594 4.532-2.594.11 0 .221.017.327.048.598.182 1.224.299 1.882.299.658 0 1.288-.117 1.882-.3.106-.03.216-.047.327-.047 1.974 0 3.667 1.058 4.532 2.594-1.62 1.804-4.04 2.958-6.741 2.958z"/>
</svg>
