<svg xmlns="http://www.w3.org/2000/svg" xmlns:xlink="http://www.w3.org/1999/xlink" width="52" height="52" viewBox="0 0 52 52">
    <g fill="none" fill-rule="evenodd">
        <g transform="translate(0 5.38)">
            <mask id="youtube" fill="#fff">
                <path d="M.018.013h52.04v39.12H.018z"/>
            </mask>
            <path fill="#D9252A" d="M50.97 6.11c-.599-2.405-2.362-4.299-4.602-4.942C42.308 0 26.028 0 26.028 0S9.75 0 5.69 1.168c-2.24.643-4.003 2.537-4.602 4.943C0 10.47 0 19.566 0 19.566s0 9.096 1.088 13.456c.599 2.405 2.363 4.3 4.602 4.943 4.06 1.168 20.339 1.168 20.339 1.168s16.279 0 20.339-1.168c2.24-.643 4.003-2.538 4.602-4.943 1.088-4.36 1.088-13.456 1.088-13.456s0-9.096-1.088-13.455" mask="url(#youtube)"/>
        </g>
        <path fill="#FFFFFE" d="M19.724 34.069L34.07 26l-14.345-8.069v16.138"/>
    </g>
</svg>
