<svg width="24" height="24" viewBox="0 0 24 24" fill="none" xmlns="http://www.w3.org/2000/svg">
<rect width="24" height="24" fill="#E5E5E5"/>
<rect width="375" height="667" transform="translate(-229 -272)" fill="white"/>
<g clip-path="url(#clip0_3837_15168)">
<rect x="-214" y="2" width="345" height="116" rx="8.85693" fill="white"/>
</g>
<rect x="-213.5" y="2.5" width="344" height="115" rx="8.35693" stroke="#003087"/>
<rect x="-69" y="-272" width="215" height="667" fill="#E5F2F7"/>
<circle cx="12" cy="12" r="12" fill="#003087"/>
<path fill-rule="evenodd" clip-rule="evenodd" d="M19.5 8.96008C19.5 7.69341 18.4733 6.66675 17.2067 6.66675V6.66675H6.79333C5.52667 6.66675 4.5 7.69341 4.5 8.96008V8.96008V15.0401C4.5 16.3067 5.52667 17.3334 6.79333 17.3334V17.3334H17.2067C18.4733 17.3334 19.5 16.3067 19.5 15.0401V15.0401V8.96008Z" stroke="white" stroke-linecap="round" stroke-linejoin="round"/>
<path fill-rule="evenodd" clip-rule="evenodd" d="M10.3333 14.6266V8.85327L14.8466 11.7399L10.3333 14.6266Z" stroke="white" stroke-linecap="round" stroke-linejoin="round"/>
<defs>
<clipPath id="clip0_3837_15168">
<rect x="-214" y="2" width="345" height="116" rx="8.85693" fill="white"/>
</clipPath>
</defs>
</svg>
