<?xml version="1.0" standalone="no"?>
<!DOCTYPE svg PUBLIC "-//W3C//DTD SVG 1.1//EN" "http://www.w3.org/Graphics/SVG/1.1/DTD/svg11.dtd" >
<svg xmlns="http://www.w3.org/2000/svg">
<metadata>Generated by IcoMoon</metadata>
<defs>
<font id="Abbott-icon" horiz-adv-x="1024">
<font-face units-per-em="1024" ascent="960" descent="-64" />
<missing-glyph horiz-adv-x="1024" />
<glyph unicode="&#x20;" horiz-adv-x="512" d="" />
<glyph unicode="&#xe900;" glyph-name="alert" d="M1007.676 176.355l-391.399 677.923c-21.764 37.696-60.746 60.204-104.278 60.204-43.53 0-82.514-22.508-104.278-60.204l-391.397-677.921c-21.766-37.7-21.766-82.712 0-120.41s60.746-60.204 104.278-60.204h782.794c43.53 0 82.512 22.508 104.28 60.202 21.766 37.7 21.766 82.712 0 120.41zM955.72 85.941c-10.922-18.916-30.482-30.208-52.324-30.208h-782.794c-21.844 0-41.404 11.292-52.324 30.208s-10.92 41.5 0 60.416l391.401 677.923c10.92 18.916 30.48 30.208 52.322 30.208 21.84 0 41.402-11.292 52.322-30.208l391.399-677.923c10.918-18.916 10.918-41.5-0.002-60.416zM482.001 615.092h59.992v-299.963h-59.992v299.963zM511.999 255.132c-22.054 0-39.996-17.942-39.996-39.996s17.942-39.996 39.996-39.996c22.052 0 39.996 17.942 39.996 39.996s-17.942 39.996-39.996 39.996z" />
<glyph unicode="&#xe901;" glyph-name="avatar" d="M508.289 415.351c1.060 0 2.121 0 3.393 0 0.424 0 0.848 0 1.272 0 0.636 0 1.484 0 2.121 0 62.131 1.060 112.388 22.902 149.497 64.676 81.64 92.031 68.069 249.797 66.584 264.853-5.301 113.024-58.738 167.097-102.845 192.331-32.868 18.873-71.25 29.051-114.084 29.899h-1.484c-0.212 0-0.636 0-0.848 0h-1.272c-23.538 0-69.765-3.817-114.084-29.051-44.531-25.234-98.816-79.308-104.118-193.18-1.484-15.056-15.056-172.823 66.584-264.853 36.897-41.774 87.153-63.616 149.285-64.676zM349.038 739.579c0 0.636 0.212 1.272 0.212 1.696 6.998 152.041 114.932 168.369 161.16 168.369h0.848c0.424 0 1.060 0 1.696 0 57.254-1.272 154.586-24.598 161.16-168.369 0-0.636 0-1.272 0.212-1.696 0.212-1.484 15.056-145.68-52.377-221.595-26.719-30.111-62.343-44.955-109.207-45.379-0.424 0-0.636 0-1.060 0v0c-0.424 0-0.636 0-1.060 0-46.651 0.424-82.488 15.268-108.995 45.379-67.221 75.491-52.801 220.322-52.589 221.595zM947.449 153.679c0 0.212 0 0.424 0 0.636 0 1.696-0.212 3.393-0.212 5.301-1.272 41.986-4.029 140.166-96.060 171.55-0.636 0.212-1.484 0.424-2.121 0.636-95.636 24.386-175.155 79.52-176.003 80.156-12.935 9.118-30.748 5.937-39.866-6.998s-5.937-30.748 6.998-39.866c3.605-2.545 88.002-61.283 193.604-88.426 49.408-17.6 54.922-70.401 56.406-118.749 0-1.908 0-3.605 0.212-5.301 0.212-19.085-1.060-48.56-4.453-65.524-34.352-19.509-169.006-86.941-373.848-86.941-203.994 0-339.496 67.645-374.060 87.153-3.393 16.964-4.877 46.439-4.453 65.524 0 1.696 0.212 3.393 0.212 5.301 1.484 48.348 6.998 101.149 56.406 118.749 105.602 27.143 189.999 86.093 193.604 88.426 12.935 9.118 16.116 26.931 6.998 39.866s-26.931 16.116-39.866 6.998c-0.848-0.636-79.944-55.77-176.003-80.156-0.848-0.212-1.484-0.424-2.121-0.636-92.031-31.596-94.787-129.776-96.060-171.55 0-1.908 0-3.605-0.212-5.301 0-0.212 0-0.424 0-0.636-0.212-11.027-0.424-67.645 10.815-96.060 2.121-5.513 5.937-10.179 11.027-13.359 6.362-4.241 158.827-101.361 413.926-101.361s407.564 97.332 413.926 101.361c4.877 3.181 8.906 7.846 11.027 13.359 10.603 28.203 10.391 84.821 10.179 95.848z" />
<glyph unicode="&#xe902;" glyph-name="calendar-focus" d="M984 263.111c22.092 0 40 17.908 40 40v424c0 88.224-71.776 160-160 160h-52v40c0 22.092-17.908 40-40 40s-40-17.908-40-40v-40h-182v40c0 22.092-17.908 40-40 40s-40-17.908-40-40v-40h-180v40c0 22.092-17.908 40-40 40s-40-17.908-40-40v-40h-50c-88.224 0-160-71.776-160-160v-624c0-88.224 71.776-160 160-160h704c88.224 0 160 71.776 160 160 0 22.092-17.908 40-40 40s-40-17.908-40-40c0-44.112-35.888-80-80-80h-704c-44.112 0-80 35.888-80 80v624c0 44.112 35.888 80 80 80h50v-40c0-22.092 17.908-40 40-40s40 17.908 40 40v40h180v-40c0-22.092 17.908-40 40-40s40 17.908 40 40v40h182v-40c0-22.092 17.908-40 40-40s40 17.908 40 40v40h52c44.112 0 80-35.888 80-80v-424c0-22.092 17.908-40 40-40zM290 547.111c0-22.091-17.909-40-40-40s-40 17.909-40 40c0 22.091 17.909 40 40 40s40-17.909 40-40zM638 547.111c0-22.091-17.909-40-40-40s-40 17.909-40 40c0 22.091 17.909 40 40 40s40-17.909 40-40zM812 547.111c0-22.091-17.909-40-40-40s-40 17.909-40 40c0 22.091 17.909 40 40 40s40-17.909 40-40zM290 373.111c0-22.091-17.909-40-40-40s-40 17.909-40 40c0 22.091 17.909 40 40 40s40-17.909 40-40zM290 199.111c0-22.091-17.909-40-40-40s-40 17.909-40 40c0 22.091 17.909 40 40 40s40-17.909 40-40zM464 547.111c0-22.091-17.909-40-40-40s-40 17.909-40 40c0 22.091 17.909 40 40 40s40-17.909 40-40zM464 373.111c0-22.091-17.909-40-40-40s-40 17.909-40 40c0 22.091 17.909 40 40 40s40-17.909 40-40zM464 199.111c0-22.091-17.909-40-40-40s-40 17.909-40 40c0 22.091 17.909 40 40 40s40-17.909 40-40zM638 373.111c0-22.091-17.909-40-40-40s-40 17.909-40 40c0 22.091 17.909 40 40 40s40-17.909 40-40zM812 373.111c0-22.091-17.909-40-40-40s-40 17.909-40 40c0 22.091 17.909 40 40 40s40-17.909 40-40zM638 199.111c0-22.091-17.909-40-40-40s-40 17.909-40 40c0 22.091 17.909 40 40 40s40-17.909 40-40z" />
<glyph unicode="&#xe903;" glyph-name="calendar" d="M892 887.111h-92v48c0 17.672-14.326 32-32 32s-32-14.328-32-32v-48h-448v48c0 17.672-14.326 32-32 32s-32-14.328-32-32v-48h-92c-72.786 0-132-59.214-132-132v-680c0-72.786 59.214-132 132-132h760c72.786 0 132 59.214 132 132v680c0 72.786-59.214 132-132 132zM132 823.111h92v-32c0-17.672 14.326-32 32-32s32 14.328 32 32v32h448v-32c0-17.672 14.326-32 32-32s32 14.328 32 32v32h92c37.496 0 68-30.504 68-68v-76h-896v76c0 37.496 30.504 68 68 68zM892 7.111h-760c-37.496 0-68 30.504-68 68v540h896v-540c0-37.496-30.504-68-68-68z" />
<glyph unicode="&#xe904;" glyph-name="cancel" d="M568.571 455.108l443.713 443.715c15.622 15.622 15.622 40.95 0 56.57s-40.95 15.622-56.57 0l-443.715-443.715-443.713 443.715c-15.622 15.622-40.95 15.622-56.57 0s-15.622-40.95 0-56.57l443.713-443.713-443.713-443.715c-15.622-15.622-15.622-40.95 0-56.57 7.81-7.81 18.048-11.714 28.286-11.714s20.474 3.904 28.286 11.714l443.711 443.713 443.713-443.713c7.81-7.81 18.048-11.714 28.286-11.714s20.474 3.904 28.286 11.714c15.622 15.622 15.622 40.95 0 56.57l-443.713 443.713z" />
<glyph unicode="&#xe905;" glyph-name="check" d="M414.165 151.282c-7.979-8.021-18.859-12.501-30.165-12.501s-22.187 4.48-30.165 12.501l-240.896 240.939c-25.003 25.003-25.003 65.536 0 90.496l30.165 30.165c25.003 25.003 65.493 25.003 90.496 0l150.4-150.4 406.4 406.4c25.003 25.003 65.536 25.003 90.496 0l30.165-30.165c25.003-25.003 25.003-65.536 0-90.496z" />
<glyph unicode="&#xe906;" glyph-name="circle" d="M512 967.111c-281.22 0-512-230.78-512-512s230.78-512 512-512 512 230.78 512 512-230.78 512-512 512z" />
<glyph unicode="&#xe907;" glyph-name="down-arrow" d="M511.999 163.257c-18.352 0-36.702 7.007-50.694 20.992l-440.297 440.301c-28.009 28.009-28.009 73.42 0 101.417 27.997 27.997 73.399 27.997 101.41 0l389.58-389.603 389.583 389.589c28.009 27.997 73.406 27.997 101.401 0 28.022-27.997 28.022-73.408 0-101.417l-440.29-440.301c-13.999-13.987-32.349-20.979-50.694-20.979z" />
<glyph unicode="&#xe908;" glyph-name="exclamation" d="M512 967.111c-283.006 0-512-229.014-512-512 0-283.006 229.014-512 512-512 283.006 0 512 229.014 512 512 0 283.006-229.014 512-512 512zM512 23.111c-238.786 0-432 193.23-432 432 0 238.786 193.23 432 432 432 238.786 0 432-193.23 432-432 0-238.786-193.23-432-432-432zM512 709.357c-22.092 0-40-17.908-40-40v-257.586c0-22.092 17.908-40 40-40s40 17.908 40 40v257.586c0 22.092-17.908 40-40 40zM566 268.791c0-29.823-24.177-54-54-54s-54 24.177-54 54c0 29.823 24.177 54 54 54s54-24.177 54-54z" />
<glyph unicode="&#xe909;" glyph-name="eye" d="M518.231 194.706c-180.2 0-343.615 94.51-464.199 248.019-9.84 12.577-9.84 30.147 0 42.724 120.584 153.694 283.999 248.204 464.199 248.204s343.615-94.51 464.199-248.019c9.84-12.577 9.84-30.147 0-42.724-120.584-153.694-283.999-248.204-464.199-248.204zM531.157 653.939c-119.619 7.213-218.401-87.297-210.877-202.151 6.174-94.695 86.241-171.45 185.024-177.368 119.619-7.213 218.401 87.297 210.877 202.151-6.367 94.51-86.434 171.265-185.024 177.368zM525.176 566.272c-64.44 3.884-117.69-46.978-113.445-108.751 3.28-51.046 46.497-92.291 99.747-95.62 64.44-3.884 117.69 46.978 113.445 108.751-3.473 51.231-46.69 92.476-99.747 95.62z" />
<glyph unicode="&#xe90a;" glyph-name="facebook-black" d="M512 967.111c-282.771 0-512-229.229-512-512s229.229-512 512-512 512 229.229 512 512-229.229 512-512 512zM707.33 706.371l-70.816-0.031c-55.532 0-66.269-26.388-66.269-65.106v-85.377h132.423l-0.063-133.722h-132.35v-343.163h-138.122v343.163h-115.463v133.722h115.463v98.618c0 114.447 69.925 176.777 172.011 176.777l103.196-0.157v-124.724h-0.010z" />
<glyph unicode="&#xe90b;" glyph-name="facebook-white" horiz-adv-x="1022" d="M580-54.889h-163.984c-27.391 0-49.672 22.281-49.672 49.672v369.875h-95.672c-27.391 0-49.672 22.289-49.672 49.672v158.492c0 27.391 22.281 49.672 49.672 49.672h95.672v79.367c0 78.695 24.711 145.648 71.453 193.609 46.953 48.18 112.57 73.641 189.758 73.641l125.063-0.203c27.344-0.047 49.586-22.328 49.586-49.672v-147.156c0-27.391-22.273-49.672-49.656-49.672l-84.203-0.031c-25.68 0-32.219-5.148-33.617-6.727-2.305-2.617-5.047-10.016-5.047-30.445v-62.703h116.539c8.773 0 17.273-2.164 24.578-6.242 15.758-8.805 25.555-25.453 25.555-43.445l-0.063-158.492c0-27.375-22.281-49.656-49.672-49.656h-116.938v-369.883c0-27.391-22.289-49.672-49.68-49.672zM426.375 5.142h143.266v386.391c0 18.289 14.883 33.164 33.164 33.164h133.453l0.055 137.766h-133.516c-18.281 0-33.156 14.875-33.156 33.164v89.578c0 23.453 2.383 50.125 20.086 70.172 21.391 24.234 55.102 27.031 78.602 27.031l73.844 0.031v126.453l-114.664 0.188c-124.047 0-201.133-79.406-201.133-207.219v-106.234c0-18.281-14.875-33.164-33.156-33.164h-112.188v-137.766h112.188c18.281 0 33.156-14.875 33.156-33.164zM752.5 908.877h0.008z" />
<glyph unicode="&#xe90c;" glyph-name="hamburger" d="M981.333 413.33h-938.667c-23.552 0-42.667 19.115-42.667 42.667s19.115 42.667 42.667 42.667h938.667c23.552 0 42.667-19.115 42.667-42.667s-19.115-42.667-42.667-42.667zM981.333 740.444h-938.667c-23.552 0-42.667 19.115-42.667 42.667s19.115 42.667 42.667 42.667h938.667c23.552 0 42.667-19.115 42.667-42.667s-19.115-42.667-42.667-42.667zM981.333 86.226h-938.667c-23.552 0-42.667 19.115-42.667 42.667s19.115 42.667 42.667 42.667h938.667c23.552 0 42.667-19.115 42.667-42.667s-19.115-42.667-42.667-42.667z" />
<glyph unicode="&#xe90d;" glyph-name="instagram-black" d="M610 455.111c0-54.125-43.875-98-98-98s-98 43.875-98 98 43.875 98 98 98 98-43.875 98-98zM741.188 628.502c-4.711 12.766-12.227 24.32-21.992 33.805-9.484 9.766-21.031 17.281-33.805 21.992-10.359 4.023-25.922 8.813-54.586 10.117-31.008 1.414-40.305 1.719-118.805 1.719-78.508 0-87.805-0.297-118.805-1.711-28.664-1.313-44.234-6.102-54.586-10.125-12.773-4.711-24.328-12.227-33.805-21.992-9.766-9.484-17.281-21.031-22-33.805-4.023-10.359-8.813-25.93-10.117-54.594-1.414-31-1.719-40.297-1.719-118.805 0-78.5 0.305-87.797 1.719-118.805 1.305-28.664 6.094-44.227 10.117-54.586 4.719-12.773 12.227-24.32 21.992-33.805 9.484-9.766 21.031-17.281 33.805-21.992 10.359-4.031 25.93-8.82 54.594-10.125 31-1.414 40.289-1.711 118.797-1.711 78.516 0 87.812 0.297 118.805 1.711 28.664 1.305 44.234 6.094 54.594 10.125 25.641 9.891 45.906 30.156 55.797 55.797 4.023 10.359 8.813 25.922 10.125 54.586 1.414 31.008 1.711 40.305 1.711 118.805 0 78.508-0.297 87.805-1.711 118.805-1.305 28.664-6.094 44.234-10.125 54.594zM512 304.142c-83.383 0-150.977 67.586-150.977 150.969s67.594 150.969 150.977 150.969c83.375 0 150.969-67.586 150.969-150.969s-67.594-150.969-150.969-150.969zM668.938 576.767c-19.484 0-35.281 15.797-35.281 35.281s15.797 35.281 35.281 35.281 35.281-15.797 35.281-35.281c-0.008-19.484-15.797-35.281-35.281-35.281zM512 967.111c-282.727 0-512-229.273-512-512s229.273-512 512-512 512 229.273 512 512-229.273 512-512 512zM804.227 333.9c-1.422-31.297-6.398-52.664-13.664-71.367-15.273-39.492-46.492-70.711-85.984-85.984-18.695-7.266-40.070-12.234-71.359-13.664-31.352-1.43-41.367-1.773-121.211-1.773-79.852 0-89.859 0.344-121.219 1.773-31.289 1.43-52.664 6.398-71.359 13.664-19.625 7.383-37.391 18.953-52.078 33.914-14.953 14.68-26.523 32.453-33.906 52.070-7.266 18.695-12.242 40.070-13.664 71.359-1.445 31.359-1.781 41.375-1.781 121.219s0.336 89.859 1.773 121.211c1.422 31.297 6.391 52.664 13.656 71.367 7.383 19.617 18.961 37.391 33.922 52.070 14.68 14.961 32.453 26.531 52.070 33.914 18.703 7.266 40.070 12.234 71.367 13.664 31.352 1.43 41.367 1.773 121.211 1.773s89.859-0.344 121.211-1.781c31.297-1.422 52.664-6.391 71.367-13.648 19.617-7.383 37.391-18.961 52.078-33.922 14.953-14.688 26.531-32.453 33.906-52.070 7.273-18.703 12.242-40.070 13.672-71.367 1.43-31.352 1.766-41.367 1.766-121.211s-0.336-89.859-1.773-121.211z" />
<glyph unicode="&#xe90e;" glyph-name="instagram-white" d="M726.546 967.111h-429.090c-164.018 0-297.456-133.438-297.456-297.456v-429.088c0-164.018 133.438-297.456 297.456-297.456h429.088c164.018 0 297.456 133.438 297.456 297.454v429.090c0 164.018-133.438 297.456-297.454 297.456zM944 240.567c0-119.906-97.55-217.456-217.454-217.456h-429.090c-119.906 0-217.456 97.55-217.456 217.454v429.090c0 119.906 97.55 217.456 217.456 217.456h429.088c119.906 0 217.456-97.55 217.456-217.456v-429.088zM512 731.111c-152.188 0-276-123.812-276-276s123.812-276 276-276 276 123.812 276 276-123.812 276-276 276zM512 259.111c-108.074 0-196 87.926-196 196s87.926 196 196 196 196-87.926 196-196-87.926-196-196-196zM832 735.111c0-22.091-17.909-40-40-40s-40 17.909-40 40c0 22.091 17.909 40 40 40s40-17.909 40-40z" />
<glyph unicode="&#xe90f;" glyph-name="left-arrow" d="M759.288 11.367l-414.598 415.46c-15.596 15.596-15.596 40.972 0.030 56.598l414.566 415.43c15.606 15.638 15.578 40.964-0.058 56.568-15.638 15.606-40.964 15.58-56.568-0.058l-414.538-415.402c-46.788-46.788-46.788-122.918-0.030-169.676l414.568-415.43c7.814-7.83 18.062-11.746 28.314-11.746 10.222 0 20.448 3.896 28.256 11.688 15.636 15.604 15.662 40.93 0.058 56.568z" />
<glyph unicode="&#xe910;" glyph-name="menu" d="M348 487.111h-216c-72.786 0-132 59.214-132 132v216c0 72.786 59.214 132 132 132h216c72.786 0 132-59.214 132-132v-216c0-72.786-59.214-132-132-132zM132 903.111c-37.496 0-68-30.504-68-68v-216c0-37.496 30.504-68 68-68h216c37.496 0 68 30.504 68 68v216c0 37.496-30.504 68-68 68zM892 487.111h-216c-72.786 0-132 59.214-132 132v216c0 72.786 59.214 132 132 132h216c72.786 0 132-59.214 132-132v-216c0-72.786-59.214-132-132-132zM676 903.111c-37.496 0-68-30.504-68-68v-216c0-37.496 30.504-68 68-68h216c37.496 0 68 30.504 68 68v216c0 37.496-30.504 68-68 68zM784-56.889c-132.336 0-240 107.664-240 240s107.664 240 240 240 240-107.664 240-240-107.664-240-240-240zM784 359.111c-97.046 0-176-78.954-176-176s78.954-176 176-176 176 78.954 176 176-78.954 176-176 176zM348-56.889h-216c-72.786 0-132 59.214-132 132v216c0 72.786 59.214 132 132 132h216c72.786 0 132-59.214 132-132v-216c0-72.786-59.214-132-132-132zM132 359.111c-37.496 0-68-30.504-68-68v-216c0-37.496 30.504-68 68-68h216c37.496 0 68 30.504 68 68v216c0 37.496-30.504 68-68 68z" />
<glyph unicode="&#xe911;" glyph-name="minus" d="M984 495.111h-944c-22.092 0-40-17.908-40-40s17.908-40 40-40h944c22.092 0 40 17.908 40 40s-17.908 40-40 40z" />
<glyph unicode="&#xe912;" glyph-name="plus" d="M984 495.111h-432v432c0 22.092-17.908 40-40 40s-40-17.908-40-40v-432h-432c-22.092 0-40-17.908-40-40s17.908-40 40-40h432v-432c0-22.092 17.908-40 40-40s40 17.908 40 40v432h432c22.092 0 40 17.908 40 40s-17.908 40-40 40z" />
<glyph unicode="&#xe913;" glyph-name="right-arrow" d="M735.908 539.935l-414.568 415.432c-15.608 15.638-40.934 15.662-56.568 0.058-15.638-15.604-15.664-40.93-0.060-56.568l414.598-415.462c15.596-15.596 15.596-40.972-0.030-56.598l-414.568-415.432c-15.604-15.638-15.578-40.964 0.060-56.568 7.806-7.792 18.032-11.686 28.254-11.686 10.25 0 20.5 3.916 28.314 11.746l414.538 415.402c46.788 46.788 46.788 122.918 0.030 169.676z" />
<glyph unicode="&#xe914;" glyph-name="search" d="M1015.031-4.667l-248.848 248.848c66.753 76.743 107.168 176.873 107.168 286.311 0 240.901-195.945 436.619-436.619 436.619-240.901 0-436.619-195.945-436.619-436.619s195.945-436.619 436.619-436.619c109.439 0 209.568 40.415 286.311 107.168l248.848-248.848c5.903-5.903 13.85-9.082 21.57-9.082s15.667 2.952 21.57 9.082c11.807 11.807 11.807 31.333 0 43.14zM61.19 530.492c0 207.071 168.472 375.315 375.315 375.315 207.071 0 375.315-168.472 375.315-375.315s-168.245-375.542-375.315-375.542c-206.843 0-375.315 168.472-375.315 375.542z" />
<glyph unicode="&#xe915;" glyph-name="twitter-black" d="M512 967.111c-282.727 0-512-229.273-512-512s229.273-512 512-512 512 229.273 512 512-229.273 512-512 512zM745.773 567.908c0.227-5.039 0.336-10.102 0.336-15.188 0-155.289-118.203-334.359-334.367-334.367v0c-66.367 0-128.125 19.453-180.133 52.789 9.195-1.086 18.555-1.625 28.031-1.625 55.063 0 105.734 18.781 145.961 50.305-51.445 0.953-94.82 34.93-109.789 81.625 7.164-1.375 14.531-2.125 22.086-2.125 10.727 0 21.117 1.445 30.992 4.141-53.773 10.766-94.281 58.289-94.281 115.195 0 0.531 0 1.008 0.016 1.5 15.836-8.805 33.945-14.102 53.227-14.695-31.555 21.055-52.297 57.047-52.297 97.82 0 21.531 5.82 41.703 15.914 59.070 57.953-71.109 144.563-117.875 242.234-122.789-2.016 8.609-3.055 17.578-3.055 26.797 0 64.875 52.633 117.508 117.531 117.508 33.805 0 64.336-14.289 85.781-37.133 26.773 5.281 51.914 15.063 74.625 28.523-8.789-27.43-27.414-50.445-51.68-65 23.773 2.844 46.43 9.148 67.484 18.508-15.727-23.57-35.672-44.273-58.617-60.859z" />
<glyph unicode="&#xe916;" glyph-name="twitter-white" d="M1024 761.181c-64.414-2.969-63.008-2.727-70.289-3.336l38.148 108.945s-119.078-43.805-149.266-51.641c-79.281 71.258-197.125 74.406-281.375 22.625-68.992-42.414-106.023-115.25-93.672-200.383-134.273 18.633-247.406 82.281-336.727 189.578l-28.25 33.93-21.109-38.766c-26.68-48.984-35.539-104.992-24.953-157.703 4.344-21.625 11.727-42.25 21.953-61.563l-24.234 9.391-2.875-40.492c-2.914-41.133 10.781-89.148 36.641-128.43 7.281-11.063 16.656-23.211 28.539-35.195l-12.523 1.922 15.281-46.398c20.086-60.961 61.805-108.125 115.945-134.344-54.070-22.945-97.75-37.586-169.547-61.203l-65.688-21.594 60.672-33.172c23.133-12.648 104.875-54.891 185.641-67.563 179.531-28.156 381.664-5.227 517.742 117.328 114.617 103.227 152.227 250.063 144.414 402.867-1.18 23.133 5.156 45.211 17.844 62.156 25.414 33.93 97.531 132.813 97.688 133.039zM878.336 664.080c-21.070-28.133-31.625-64.063-29.734-101.156 7.883-154.133-34.055-273.664-124.656-355.258-105.836-95.32-276.547-132.734-468.344-102.648-34.734 5.445-70.633 17.641-100.344 29.82 60.195 20.711 106.68 39.172 181.75 74.703l104.797 49.602-115.703 7.406c-55.422 3.547-101.57 30.406-129.938 74.016 15.063 0.875 29.586 3.313 44.047 7.344l110.352 30.734-111.273 27.25c-54.070 13.242-84.891 45.594-101.227 70.406-10.727 16.305-17.734 33.008-21.938 48.406 11.156-2.992 24.164-5.125 45.141-7.203l102.992-10.188-81.602 63.656c-58.797 45.859-82.359 114.758-65.086 180.992 183.5-190.328 398.953-176.023 420.641-181.055-4.773 46.367-4.898 46.477-6.148 50.891-27.773 98.18 33.094 148.031 60.547 164.906 57.344 35.242 148.367 40.555 211.414-17.508 13.617-12.531 32.031-17.461 49.266-13.18 15.469 3.844 28.164 7.914 40.594 12.344l-25.875-73.891 33.031-0.023c-6.234-8.359-13.711-18.367-22.703-30.367z" />
<glyph unicode="&#xe917;" glyph-name="up-arrow" d="M1013.768 265.281l-478.18 478.147c-6.832 6.839-14.692 10.264-23.583 10.264s-16.765-3.425-23.601-10.264l-478.14-478.147c-6.85-6.85-10.264-14.71-10.264-23.605 0-8.891 3.425-16.762 10.264-23.597l51.292-51.288c6.839-6.839 14.71-10.257 23.601-10.257s16.762 3.418 23.601 10.257l403.247 403.24 403.262-403.265c6.836-6.839 14.71-10.235 23.587-10.235 8.906 0 16.776 3.418 23.612 10.235l51.299 51.31c6.836 6.836 10.232 14.71 10.232 23.597 0.004 8.898-3.393 16.769-10.228 23.608z" />
<glyph unicode="&#xe918;" glyph-name="youtube-black" d="M448.227 359.189l166.547 95.922-166.547 95.922zM512 967.111c-282.727 0-512-229.273-512-512s229.273-512 512-512 512 229.273 512 512-229.273 512-512 512zM831.922 454.588s0-103.836-13.172-153.906c-7.383-27.406-28.992-49.016-56.398-56.391-50.070-13.18-250.352-13.18-250.352-13.18s-199.758 0-250.352 13.703c-27.406 7.375-49.016 28.992-56.398 56.398-13.18 49.539-13.18 153.898-13.18 153.898s0 103.828 13.18 153.898c7.375 27.406 29.516 49.547 56.398 56.922 50.070 13.18 250.352 13.18 250.352 13.18s200.281 0 250.352-13.703c27.406-7.375 49.016-28.992 56.398-56.398 13.703-50.070 13.172-154.422 13.172-154.422z" />
<glyph unicode="&#xe919;" glyph-name="youtube-white" d="M511.962 83.126c-0.086 0-0.18 0-0.273 0-30.898 0.211-304.055 2.703-381.446 23.633-54.086 14.539-96.781 57.188-111.36 111.281-20.25 76.024-18.961 222.391-18.82 234.079-0.133 11.633-1.438 159.211 18.758 235.86 0.023 0.070 0.039 0.148 0.063 0.219 14.414 53.477 58.070 97.445 111.227 112.024 0.133 0.039 0.273 0.070 0.406 0.109 76.516 20.109 350.212 22.57 381.173 22.781h0.555c30.977-0.211 304.86-2.703 381.54-23.664 53.945-14.5 96.61-57.094 111.227-111.117 21.008-76.703 19.063-224.602 18.852-237.086 0.148-12.297 1.375-157.352-18.758-233.758-0.016-0.078-0.039-0.148-0.055-0.219-14.586-54.094-57.274-96.742-111.422-111.297-0.070-0.023-0.148-0.039-0.219-0.063-76.508-20.102-350.212-22.563-381.165-22.781-0.094 0-0.188 0-0.281 0zM96.149 667.463c-17.781-67.656-16.102-213.352-16.086-214.821v-1.055c-0.531-40.406 1.336-157.422 16.094-212.844 7.156-26.539 28.211-47.563 54.914-54.742 57.102-15.445 279.579-20.305 360.891-20.875 81.524 0.57 304.329 5.297 361.008 20.125 26.617 7.203 47.602 28.156 54.805 54.727 14.773 56.234 16.625 172.68 16.086 212.828 0 0.422 0 0.844 0.008 1.266 0.734 40.891-0.711 159.274-16.023 215.141-0.016 0.055-0.031 0.109-0.039 0.164-7.188 26.656-28.25 47.68-54.953 54.859-56.547 15.461-279.383 20.305-360.891 20.875-81.469-0.57-304.055-5.289-360.907-20.102-26.195-7.266-47.727-29.039-54.906-55.547zM966.424 227.673h0.023zM410.001 291.126v323.993l280-162z" />
<glyph unicode="&#xe91a;" glyph-name="bell" d="M885.608 258.528l-48.037 30.9v268.259c0 170.776-136.002 311.455-308.988 326.568v53.044c0 16.464-13.834 29.813-30.899 29.813s-30.899-13.348-30.899-29.813v-53.044c-172.986-15.113-308.988-155.792-308.988-326.568v-268.259l-48.037-30.9c-8.598-5.529-13.76-14.835-13.76-24.804v-119.25c0-16.464 13.834-29.813 30.899-29.813h203.674c14.504-76.771 83.892-135.15 167.111-135.15 83.217 0 152.607 58.379 167.111 135.15h203.674c17.064 0 30.899 13.348 30.899 29.813v119.25c0 9.969-5.164 19.277-13.76 24.804zM497.684 9.136c-49.003 0-90.503 31.917-103.735 75.525h207.473c-13.235-43.608-54.734-75.525-103.738-75.525zM837.571 144.286c-28.676 0-646.019 0-679.773 0v73.484l48.037 30.9c8.596 5.527 13.76 14.837 13.76 24.804v284.212c0 147.948 124.751 268.313 278.089 268.313s278.089-120.365 278.089-268.313v-284.212c0-9.969 5.164-19.277 13.76-24.804l48.037-30.9v-73.484z" />
<glyph unicode="&#xe91b;" glyph-name="cross" d="M83.782 961.187l428.206-428.214 428.229 428.214 77.858-77.858-428.226-428.218 428.226-428.218-77.858-77.858-428.229 428.214-428.206-428.214-77.858 77.858 428.202 428.218-428.202 428.218 77.858 77.858z" />
<glyph unicode="&#xe91c;" glyph-name="hambuerger-menu" d="M1024 71.111v-128h-1024v128h1024zM1024 519.111v-128h-1024v128h1024zM1024 967.111v-128h-1024v128h1024z" />
<glyph unicode="&#xe91d;" glyph-name="heart-fill" horiz-adv-x="1040" d="M521.25 23.491l-408.791 444.559c-73.68 76.776-91.931 194.027-45.312 291.107v0c34.799 72.508 100.954 123.172 177.791 136.158s154.984-13.288 210.019-70.613l66.786-69.648 66.884 69.648c55.036 57.325 133.183 83.6 210.019 70.613s142.992-63.65 177.791-136.158v0c46.594-97.102 28.303-214.356-45.41-291.107l-409.776-444.559z" />
<glyph unicode="&#xe91e;" glyph-name="notepad" d="M893.895 763.684l-1.052 1.033v1.033l-200.999 197.231c0 0-1.052 0-1.052 1.033 0 0-1.052 0-1.052 1.033-3.157 2.065-6.314 2.065-10.523 2.065h-495.656c-19.995 0-37.885-8.261-50.513-20.652s-21.047-30.979-21.047-49.566v-878.763c0-18.587 7.366-36.142 19.995-48.533l1.052-1.033c12.628-12.391 31.57-20.652 50.513-20.652h640.881c19.995 0 37.885 8.261 50.513 20.652s21.047 30.979 21.047 49.566v735.228c0 4.13-1.052 7.228-2.105 10.326zM699.211 892.762l118.915-116.687h-87.345c-8.419 0-16.838 3.098-22.099 9.294-5.262 5.163-9.471 13.424-9.471 21.685v85.708zM850.749 18.129c0-7.228-3.157-13.424-8.419-18.587s-11.576-8.261-18.942-8.261h-639.828c-7.366 0-13.681 3.098-18.942 8.261l-1.052 1.033c-4.209 5.163-7.366 11.359-7.366 17.555v879.796c0 7.228 3.157 13.424 8.419 18.587s11.576 8.261 18.942 8.261h471.452v-116.687c0-20.652 8.419-39.24 23.152-53.696 13.681-13.424 33.675-21.685 54.722-21.685h117.863v-714.576zM268.8 496.711h470.4v-78.4h-470.4v78.4zM268.8 277.191h470.4v-78.4h-470.4v78.4zM671.829 924.773l186.395-175.798-172.094 13.441z" />
<glyph unicode="&#xe91f;" glyph-name="pdf" d="M301.714 448.573c0 27.251-18.923 43.515-52.316 43.515-13.622 0-22.851-1.314-27.69-2.631v-87.506c5.721-1.299 12.755-1.744 22.401-1.744 35.627 0 57.606 18.022 57.606 48.366zM508.402 491.21c-14.965 0-24.615-1.317-30.351-2.637v-193.88c5.725-1.339 14.959-1.339 23.316-1.339 60.663-0.424 100.233 32.973 100.233 103.761 0.445 61.574-35.616 94.095-93.198 94.095zM904.438 605.124h-24.3v117.25c0 0.731-0.116 1.468-0.213 2.208-0.039 4.656-1.519 9.229-4.707 12.852l-195.118 222.889c-0.059 0.057-0.116 0.077-0.156 0.14-1.163 1.299-2.519 2.379-3.952 3.315-0.424 0.285-0.853 0.524-1.297 0.77-1.242 0.678-2.559 1.24-3.915 1.646-0.367 0.103-0.698 0.254-1.066 0.349-1.474 0.349-3.004 0.568-4.555 0.568h-479.528c-21.897 0-39.686-17.809-39.686-39.688v-322.29h-24.295c-31.324 0-56.724-25.388-56.724-56.724v-294.973c0-31.313 25.399-56.718 56.724-56.718h24.297v-201.918c0-21.877 17.789-39.688 39.686-39.688h654.821c21.877 0 39.686 17.809 39.686 39.688v201.918h24.3c31.315 0 56.72 25.405 56.72 56.718v294.963c0 31.334-25.406 56.724-56.722 56.724zM185.631 927.416h459.685v-203.048c0-10.963 8.894-19.843 19.843-19.843h175.293v-99.414h-654.821v322.305zM672.813 399.337c0-56.729-20.657-95.844-49.277-120.038-31.181-25.937-78.674-38.242-136.689-38.242-34.725 0-59.34 2.199-76.067 4.389v291.061c24.618 3.948 56.733 6.148 90.587 6.148 56.244 0 92.744-10.12 121.335-31.65 30.762-22.865 50.111-59.349 50.111-111.669zM155.315 244.127v292.38c20.653 3.498 49.685 6.148 90.573 6.148 41.323 0 70.786-7.915 90.563-23.753 18.91-14.939 31.629-39.565 31.629-68.584 0-29.028-9.646-53.646-27.246-70.342-22.86-21.548-56.709-31.227-96.288-31.227-8.779 0-16.72 0.446-22.847 1.328v-105.958l-66.384 0.007zM840.454 5.544h-654.823v191.175h654.823v-191.175zM897.956 485.5h-113.894v-67.707h106.405v-54.521h-106.405v-119.147h-67.233v296.33h181.127v-54.956z" />
<glyph unicode="&#xe920;" glyph-name="squares" d="M439.111 398.222c8.837 0 16-7.163 16-16v-423.111c0-8.837-7.163-16-16-16h-423.111c-8.837 0-16 7.163-16 16v423.111c0 8.837 7.163 16 16 16h423.111zM1008 398.222c8.837 0 16-7.163 16-16v-423.111c0-8.837-7.163-16-16-16h-423.111c-8.837 0-16 7.163-16 16v423.111c0 8.837 7.163 16 16 16h423.111zM439.111 967.111c8.837 0 16-7.163 16-16v-423.111c0-8.837-7.163-16-16-16h-423.111c-8.837 0-16 7.163-16 16v423.111c0 8.837 7.163 16 16 16h423.111zM1008 967.111c8.837 0 16-7.163 16-16v-423.111c0-8.837-7.163-16-16-16h-423.111c-8.837 0-16 7.163-16 16v423.111c0 8.837 7.163 16 16 16h423.111z" />
<glyph unicode="&#xe921;" glyph-name="tick" d="M1019.806 737.648l-634.899-665.83c-5.592-5.865-14.647-5.865-20.226 0l-360.496 378.073c-5.579 5.837-5.579 15.333 0 21.198l87.596 91.863c5.592 5.851 14.647 5.851 20.226 0l262.8-275.59 537.19 563.361c5.605 5.851 14.634 5.851 20.226 0l87.583-91.863c5.592-5.851 5.592-15.333 0-21.212z" />
<glyph unicode="&#xe922;" glyph-name="xml" horiz-adv-x="950" d="M832.295 627.807h-22.778v109.903c0 0.691-0.108 1.376-0.2 2.075-0.036 4.364-1.424 8.651-4.412 12.042l-182.891 208.927c-0.055 0.053-0.108 0.072-0.146 0.126-1.090 1.218-2.361 2.235-3.704 3.107-0.398 0.272-0.799 0.494-1.216 0.727-1.164 0.63-2.399 1.162-3.67 1.543-0.344 0.091-0.654 0.232-0.999 0.327-1.381 0.322-2.816 0.527-4.269 0.527h-449.479c-20.525 0-37.199-16.693-37.199-37.201v-302.094h-22.772c-29.362 0-53.169-23.797-53.169-53.164v-276.483c0-29.353 23.808-53.174 53.169-53.174h22.774v-189.265c0-20.506 16.674-37.201 37.199-37.201h613.788c20.506 0 37.199 16.693 37.199 37.201v189.265h22.778c29.353 0 53.166 23.813 53.166 53.164v276.483c0 29.367-23.814 53.166-53.167 53.166zM158.531 929.903h430.879v-190.319c0-10.276 8.337-18.6 18.6-18.6h164.309v-93.184h-613.788v302.103zM627.536 322.1h-55.21l-3.713 95.614c-1.109 30.025-2.235 66.335-2.235 102.661h-1.090c-7.774-31.888-18.164-67.451-27.791-96.721l-30.388-97.478h-44.119l-26.684 96.713c-8.137 29.27-16.655 64.854-22.6 97.476h-0.741c-1.471-33.729-2.597-72.265-4.454-103.397l-4.436-94.868h-52.256l15.947 249.777h75.22l24.467-83.39c7.779-28.888 15.57-60.013 21.111-89.283h1.126c7.028 28.881 15.565 61.866 23.721 89.664l26.682 83.009h73.744l13.698-249.777zM111.673 322.1l72.254 126.383-69.652 123.395h64.849l21.851-45.578c7.433-15.203 12.973-27.431 18.927-41.491h0.727c5.921 15.916 10.729 27.028 17.038 41.491l21.138 45.578h64.468l-70.42-121.924 74.13-127.853h-65.212l-22.619 45.219c-9.258 17.408-15.185 30.378-22.232 44.846h-0.746c-5.182-14.468-11.494-27.438-19.271-44.846l-20.739-45.219h-64.491zM772.32 65.799h-613.789v179.195h613.789v-179.195zM826.955 322.1h-156.044v249.777h56.717v-202.352h99.339v-47.426h-0.012z" />
<glyph unicode="&#xe923;" glyph-name="play" d="M874.057 817.168c-92.648 92.648-220.648 149.943-362.057 149.943s-269.41-57.295-362.057-149.943c-92.648-92.648-149.943-220.648-149.943-362.057s57.295-269.41 149.943-362.057c92.648-92.648 220.648-149.943 362.057-149.943s269.41 57.295 362.057 149.943c92.648 92.648 149.943 220.648 149.943 362.057s-57.295 269.41-149.943 362.057zM830.171 136.94c-81.676-81.676-193.829-131.657-318.171-131.657s-236.495 49.981-318.171 131.657c-80.457 81.676-131.657 193.829-131.657 318.171s49.981 236.495 131.657 318.171c81.676 81.676 193.829 131.657 318.171 131.657s236.495-49.981 318.171-131.657c81.676-81.676 131.657-193.829 131.657-318.171s-51.2-236.495-131.657-318.171zM796.038 491.682c-2.438 2.438-6.095 7.314-9.752 12.19-1.219 1.219-1.219 1.219-2.438 2.438-3.657 3.657-7.314 6.095-12.19 8.533l-180.419 103.619c0 0-1.219 0-1.219 1.219l-181.638 104.838c-15.848 9.752-34.133 10.971-51.2 7.314-17.067-4.876-31.695-15.848-41.448-31.695-3.657-4.876-4.876-10.971-7.314-15.848-1.219-3.657-1.219-8.533-2.438-13.41 0-1.219 0-3.657 0-4.876v-420.571c0-18.286 7.314-35.352 19.505-47.543s29.257-19.505 47.543-19.505c6.095 0 13.41 1.219 19.505 3.657s12.19 4.876 17.067 8.533l179.2 103.619 2.438 1.219 180.419 103.619c1.219 0 1.219 1.219 2.438 1.219 14.629 9.752 25.6 24.381 29.257 40.229 4.876 17.067 2.438 35.352-7.314 51.2zM743.619 453.892c0-1.219-1.219-2.438-2.438-2.438h-1.219l-179.2-104.838-1.219-1.219-179.2-103.619c-1.219 0-1.219-1.219-2.438-1.219 0 0-1.219 0-1.219-1.219h-1.219c-1.219 0-2.438 1.219-3.657 1.219-1.219 1.219-1.219 2.438-1.219 3.657v423.010c1.219 1.219 2.438 2.438 3.657 2.438s2.438 0 3.657 0l180.419-103.619 1.219-1.219 181.638-104.838 2.438-2.438c0-1.219 0-2.438 0-3.657z" />
<glyph unicode="&#xe924;" glyph-name="alert-tringle" d="M1011.2 15.111l-483.2 908.8c-4.8 8-14.4 11.2-22.4 6.4-3.2-1.6-4.8-3.2-6.4-6.4l-486.4-908.8c-4.8-8-1.6-17.6 6.4-22.4 1.6-1.6 4.8-1.6 8-1.6h971.2c9.6 0 16 6.4 16 16-1.6 3.2-1.6 4.8-3.2 8zM561.6 123.911h-89.6v81.6h89.6v-81.6zM561.6 247.111h-89.6v340.8h89.6v-340.8z" />
<glyph unicode="&#xe925;" glyph-name="spinner" d="M633.6 954.311l-12.8-64c192-51.2 339.2-224 339.2-435.2 0-249.6-198.4-448-448-448s-448 198.4-448 448c0 211.2 147.2 384 339.2 435.2l-12.8 64c-224-57.6-390.4-262.4-390.4-499.2 0-281.6 230.4-512 512-512s512 230.4 512 512c0 236.8-166.4 441.6-390.4 499.2z" />
<glyph unicode="&#xe926;" glyph-name="arrow-right" d="M541.932-11.203l-31.508 34.658 404.874 373.366h-915.298v47.262h915.298l-404.874 371.791 31.508 34.658 469.465-430.080z" />
<glyph unicode="&#xe927;" glyph-name="calender-icon" d="M798.4 853.511v78.4c0 19.2-14.4 35.2-33.6 35.2s-35.2-16-35.2-35.2v-78.4h-419.2v78.4c0 19.2-16 35.2-35.2 35.2s-35.2-16-35.2-35.2v-78.4h-208v-899.2h976v899.2h-209.6zM944 19.911h-848v494.4h848v-494.4zM96 583.111v206.4h145.6v-67.2c0-19.2 16-35.2 35.2-35.2s35.2 16 35.2 35.2v67.2h417.6v-67.2c0-19.2 16-35.2 35.2-35.2s35.2 16 35.2 35.2v67.2h144v-206.4h-848z" />
<glyph unicode="&#xe928;" glyph-name="checkbox" d="M840-56.889h-656c-100.8 0-184 83.2-184 184v656c0 100.8 83.2 184 184 184h656c100.8 0 184-83.2 184-184v-656c0-100.8-83.2-184-184-184zM184 919.111c-75.2 0-136-60.8-136-136v-656c0-75.2 60.8-136 136-136h656c75.2 0 136 60.8 136 136v656c0 75.2-60.8 136-136 136h-656z" />
<glyph unicode="&#xe929;" glyph-name="delete" d="M772.8 789.511l-4.8 145.6-518.4-4.8v-142.4h-233.6v-57.6h118.4v-620.8c0-75.2 65.6-136 144-136h467.2c80 0 144 60.8 144 136v620.8h116.8v57.6h-233.6zM305.6 875.911l408 3.2 3.2-89.6h-411.2v86.4zM833.6 109.511c0-44.8-40-80-88-80h-467.2c-49.6 0-88 36.8-88 80v619.2h644.8v-619.2zM366.4 554.311h57.6v-350.4h-57.6v350.4zM598.4 554.311h57.6v-350.4h-57.6v350.4z" />
<glyph unicode="&#xe92a;" glyph-name="heart" d="M512-7.977c0 0 0 0 0 0-9.6 0-17.6 3.2-24 9.6l-400 435.2c-81.6 84.8-100.8 212.8-49.6 320 38.4 80 112 136 198.4 150.4 84.8 14.4 172.8-14.4 233.6-78.4l41.6-41.6 43.2 44.8c60.8 64 148.8 92.8 233.6 78.4s160-70.4 198.4-150.4c51.2-107.2 32-236.8-49.6-321.6l-401.6-435.2c-6.4-8-14.4-11.2-24-11.2zM278.4 849.623c-11.2 0-22.4-1.6-32-3.2-64-11.2-121.6-54.4-150.4-115.2-40-83.2-24-184 38.4-249.6l377.6-409.6 377.6 409.6c64 65.6 78.4 166.4 38.4 249.6-28.8 60.8-86.4 104-150.4 115.2s-131.2-11.2-177.6-59.2l-65.6-68.8c-6.4-6.4-14.4-9.6-22.4-9.6 0 0 0 0 0 0-8 0-17.6 3.2-22.4 9.6l-65.6 68.8c-38.4 40-91.2 62.4-145.6 62.4z" />
<glyph unicode="&#xe92b;" glyph-name="user" horiz-adv-x="1008" d="M500.25 471.587c-135.483 0-245.76 110.277-245.76 245.76s110.277 245.76 245.76 245.76c135.483 0 245.76-110.277 245.76-245.76s-110.277-245.76-245.76-245.76zM500.25 906.393c-105.551 0-190.622-85.071-190.622-190.622s85.071-189.046 190.622-189.046 190.622 85.071 190.622 190.622-85.071 189.046-190.622 189.046zM905.124-27.81c-15.754 0-28.357 12.603-28.357 28.357 0 207.951-170.142 378.092-378.092 378.092s-378.092-170.142-378.092-378.092c0-15.754-12.603-28.357-28.357-28.357s-28.357 12.603-28.357 28.357c0 237.883 193.772 433.231 433.231 433.231s433.231-193.772 433.231-433.231c3.151-15.754-9.452-28.357-25.206-28.357z" />
</font>
</defs>
</svg>
