<svg id="Layer_1" data-name="Layer 1" xmlns="http://www.w3.org/2000/svg" viewBox="0 0 30 20"><defs><style>.cls-1{fill:#f0f0f0;}.cls-1,.cls-2{fill-rule:evenodd;}.cls-2{fill:#ff1612;}</style></defs><polygon class="cls-1" points="7.49 0 22.51 0 22.51 20 7.49 20 7.49 0 7.49 0"/><polygon class="cls-2" points="0 0 7.49 0 7.49 20 0 20 0 0 0 0"/><polygon class="cls-2" points="22.51 0 30 0 30 20 22.51 20 22.51 0 22.51 0"/><path class="cls-2" d="M15,3.64s.88,1.67,1,1.88.25.25.56.1.75-.39.75-.39-.49,2.6-.57,3,.2.57.47.25l1.29-1.44s.15.52.19.68.13.27.43.22l1.54-.33s-.44,1.55-.48,1.75-.1.28.16.41l.56.26s-2.55,2.1-2.77,2.26-.26.26-.15.6.2.68.2.68l-2.8-.39c-.27,0-.25.26-.24.41s.07,2.81.07,2.81h-.45s.07-2.65.07-2.81,0-.45-.24-.41l-2.79.39s.08-.33.19-.68.06-.43-.15-.6S9.07,10,9.07,10l.56-.26c.25-.13.2-.21.16-.41s-.48-1.75-.48-1.75L10.85,8c.3,0,.38-.06.42-.22s.19-.68.19-.68l1.29,1.44c.27.32.55.17.47-.25s-.57-3-.57-3,.44.25.75.39.44.12.56-.1,1-1.88,1-1.88Z"/></svg>