<svg id="Regional_flags" data-name="Regional flags" xmlns="http://www.w3.org/2000/svg" xmlns:xlink="http://www.w3.org/1999/xlink" viewBox="0 0 30 20"><defs><style>.cls-1{fill:#fff;}.cls-2{fill:#004d71;}.cls-3{fill:#009ade;}.cls-4{clip-path:url(#clip-path);}</style><clipPath id="clip-path"><path class="cls-1" d="M13.87,0h-.16l-.13.12-.14,0-.18.12h-.18c-.53.34-.52,1-.71,1.56h.15l.12.14c0,.09-.05.18-.07.27h.14l.12.13.73.07.35-.21,0-.15.37-.24.37,0,0,.13.28,0-.15.07,0,.24-.18.1c0,.19-.07.37-.1.56l-.16,0,0,.21c.44,0,.74-.14,1.16.09,0,.27-.05.55-.07.82l.24.29,0,.16.54.08,0-.17a1.87,1.87,0,0,0,.92.31l0-.29.19-.11.3.05.17-.11.28,0,.17-.11.06.24.08-.08.37.05.11.17.66.1,0,.18.26.05.16-.14.53.09V5l-.16,0,.15.08,0,.12.14,0,.08.15.18,0,.15.15.16,0v.18l.13.16,0,.11.34.07.13.16a3.4,3.4,0,0,1,.46.09l.13.15.35.07v.13l.15,0,0,.3L23,7.4l-.43.27,0,.17c0-.06.05-.12.08-.19l.55.06c0,.06,0,.13,0,.2a.39.39,0,0,0-.19.17l.31-.22a.92.92,0,0,1,.66.31l0,.1.16,0v.12l.25.05V8.36l.2,0v.13l.79.16a1.47,1.47,0,0,0,1.06.69v.1l.13.18c-.06.39-.51.56-.77.84a.88.88,0,0,1,0,.17l-.12,0-.17.09-.19,0c0,.32-.09.65-.15,1l-.15,0a1.87,1.87,0,0,0,0,.25l-.36.27c0,.1,0,.19,0,.29l-.22,0-.13.12-.65-.1,0,.11-.25.15-.35,0-.45.25c0,.19-.07.38-.11.56l-.37.29,0,.17-.16,0a3.5,3.5,0,0,1-1.4.94l-.08-.18-.36-.05a1.52,1.52,0,0,1,.18.36l.15,0a2.38,2.38,0,0,1-.05.26l-.43.27c-.36-.08-.68.13-1.05,0,0,.16-.07.33-.1.5l-.15,0,0,.1-.08.08L18.27,16,18,16l-.05.21.35,0,0,.17-.33-.05c0,.18-.07.36-.11.54l-.18.13L17.36,17c0,.11-.05.23-.08.34h.15c.05.12.1.23.14.35s-.23.14-.36.09l0,.13H17l-.06.25-.28,0c0,.14-.06.28-.08.42s.07.13.1.2l0,.17a1.53,1.53,0,0,0,.7.61l-.51,0,0,.12c-.3-.05-.66,0-.84-.27l-.18-.05,0-.17L15.53,19l0-.12-.14,0,0-.13-.31-.05.32-.21-.11,0,0-.09-.12-.2,0-.29-.12-.16,0-.26.16-.11,0-.26-.14,0,0-.31.34.06,0,.13c.07-.23.14-.46.22-.7l-.29,0,0-.22.14,0c0-.16,0-.32.08-.49l.17-.1c0-.27.08-.54.13-.8l.17-.11,0-.18.15,0,0-.2.23-.14L17,12.49l.19-.15.12-.8.18-.1.09-.56-.38-.54-.21,0,0-.12-.29,0a2.24,2.24,0,0,1-.61-.54l.05-.33-.16,0L16,8.94l-.27-.29,0-.17-.11-.22-.17,0,0-.31-.11-.13-.15,0-.15-.16c0-.15,0-.3.07-.46l.31,0V7.08L15.66,7l-.27,0c0-.14,0-.27.07-.41l.16-.06,0-.18.16,0a.59.59,0,0,0,.21-.4l.17,0,.32-.2,0-.11L16.4,5.5l0-.2.15,0-.14-.07a.75.75,0,0,0-.24-.6L16,4.79l0,.22-.35,0,0-.25-.5-.06,0-.13L15,4.5l-.2-.23-.06.08-.2-.18,0-.23c-.18-.2-.45-.18-.7-.21l-.24-.28-.25,0c-.23-.22-.46-.5-.81-.49l0,.12-.22,0-.12-.13-.5,0,0-.13-.11-.12-.44,0-.15-.17h-.17l-.17-.21-.34-.05.15-.52A1.11,1.11,0,0,0,10,1H9.83L9.92.72,9.83.61H9.68L9.46.39,9.53.25,9.29,0M9.06,0a.55.55,0,0,1,.3.18l0,.12L9.4.44l0,.12.1.1,0,.11.11.11,0,.16.06.06h.13l-.06.36-.06-.12H9.28L9.17,1.2,9.26.94,9,.7,8.77.64,8.68.53A.4.4,0,0,0,9,.46C8.85.25,8.91.26,8.69.18l0-.12m9.41,4.77.05-.31,0,0-.09,0,0,.27,0,0h.06"/></clipPath></defs><rect class="cls-2" width="30" height="20"/><path class="cls-3" d="M26.73,10A11.72,11.72,0,0,0,21.12,0H8.87a11.73,11.73,0,0,0,0,20l12.26,0A11.71,11.71,0,0,0,26.73,10Z"/><path class="cls-1" d="M13.87,0h-.16l-.13.12-.14,0-.18.12h-.18c-.53.34-.52,1-.71,1.56h.15l.12.14c0,.09-.05.18-.07.27h.14l.12.13.73.07.35-.21,0-.15.37-.24.37,0,0,.13.28,0-.15.07,0,.24-.18.1c0,.19-.07.37-.1.56l-.16,0,0,.21c.44,0,.74-.14,1.16.09,0,.27-.05.55-.07.82l.24.29,0,.16.54.08,0-.17a1.87,1.87,0,0,0,.92.31l0-.29.19-.11.3.05.17-.11.28,0,.17-.11.06.24.08-.08.37.05.11.17.66.1,0,.18.26.05.16-.14.53.09V5l-.16,0,.15.08,0,.12.14,0,.08.15.18,0,.15.15.16,0v.18l.13.16,0,.11.34.07.13.16a3.4,3.4,0,0,1,.46.09l.13.15.35.07v.13l.15,0,0,.3L23,7.4l-.43.27,0,.17c0-.06.05-.12.08-.19l.55.06c0,.06,0,.13,0,.2a.39.39,0,0,0-.19.17l.31-.22a.92.92,0,0,1,.66.31l0,.1.16,0v.12l.25.05V8.36l.2,0v.13l.79.16a1.47,1.47,0,0,0,1.06.69v.1l.13.18c-.06.39-.51.56-.77.84a.88.88,0,0,1,0,.17l-.12,0-.17.09-.19,0c0,.32-.09.65-.15,1l-.15,0a1.87,1.87,0,0,0,0,.25l-.36.27c0,.1,0,.19,0,.29l-.22,0-.13.12-.65-.1,0,.11-.25.15-.35,0-.45.25c0,.19-.07.38-.11.56l-.37.29,0,.17-.16,0a3.5,3.5,0,0,1-1.4.94l-.08-.18-.36-.05a1.52,1.52,0,0,1,.18.36l.15,0a2.38,2.38,0,0,1-.05.26l-.43.27c-.36-.08-.68.13-1.05,0,0,.16-.07.33-.1.5l-.15,0,0,.1-.08.08L18.27,16,18,16l-.05.21.35,0,0,.17-.33-.05c0,.18-.07.36-.11.54l-.18.13L17.36,17c0,.11-.05.23-.08.34h.15c.05.12.1.23.14.35s-.23.14-.36.09l0,.13H17l-.06.25-.28,0c0,.14-.06.28-.08.42s.07.13.1.2l0,.17a1.53,1.53,0,0,0,.7.61l-.51,0,0,.12c-.3-.05-.66,0-.84-.27l-.18-.05,0-.17L15.53,19l0-.12-.14,0,0-.13-.31-.05.32-.21-.11,0,0-.09-.12-.2,0-.29-.12-.16,0-.26.16-.11,0-.26-.14,0,0-.31.34.06,0,.13c.07-.23.14-.46.22-.7l-.29,0,0-.22.14,0c0-.16,0-.32.08-.49l.17-.1c0-.27.08-.54.13-.8l.17-.11,0-.18.15,0,0-.2.23-.14L17,12.49l.19-.15.12-.8.18-.1.09-.56-.38-.54-.21,0,0-.12-.29,0a2.24,2.24,0,0,1-.61-.54l.05-.33-.16,0L16,8.94l-.27-.29,0-.17-.11-.22-.17,0,0-.31-.11-.13-.15,0-.15-.16c0-.15,0-.3.07-.46l.31,0V7.08L15.66,7l-.27,0c0-.14,0-.27.07-.41l.16-.06,0-.18.16,0a.59.59,0,0,0,.21-.4l.17,0,.32-.2,0-.11L16.4,5.5l0-.2.15,0-.14-.07a.75.75,0,0,0-.24-.6L16,4.79l0,.22-.35,0,0-.25-.5-.06,0-.13L15,4.5l-.2-.23-.06.08-.2-.18,0-.23c-.18-.2-.45-.18-.7-.21l-.24-.28-.25,0c-.23-.22-.46-.5-.81-.49l0,.12-.22,0-.12-.13-.5,0,0-.13-.11-.12-.44,0-.15-.17h-.17l-.17-.21-.34-.05.15-.52A1.11,1.11,0,0,0,10,1H9.83L9.92.72,9.83.61H9.68L9.46.39,9.53.25,9.29,0M9.06,0a.55.55,0,0,1,.3.18l0,.12L9.4.44l0,.12.1.1,0,.11.11.11,0,.16.06.06h.13l-.06.36-.06-.12H9.28L9.17,1.2,9.26.94,9,.7,8.77.64,8.68.53A.4.4,0,0,0,9,.46C8.85.25,8.91.26,8.69.18l0-.12m9.41,4.77.05-.31,0,0-.09,0,0,.27,0,0h.06"/><g class="cls-4"><rect class="cls-1" width="30" height="20"/></g></svg>