<svg id="Layer_1" data-name="Layer 1" xmlns="http://www.w3.org/2000/svg" xmlns:xlink="http://www.w3.org/1999/xlink" viewBox="0 0 30 20"><defs><style>.cls-1{fill:#f0f0f0;}.cls-1,.cls-10,.cls-11,.cls-12,.cls-13,.cls-14,.cls-15,.cls-16,.cls-17,.cls-18,.cls-19,.cls-2,.cls-20,.cls-22,.cls-23,.cls-24,.cls-25,.cls-26,.cls-27,.cls-28,.cls-29,.cls-3,.cls-30,.cls-31,.cls-32,.cls-33,.cls-34,.cls-35,.cls-36,.cls-37,.cls-38,.cls-39,.cls-4,.cls-40,.cls-41,.cls-42,.cls-43,.cls-44,.cls-45,.cls-46,.cls-47,.cls-48,.cls-49,.cls-5,.cls-50,.cls-51,.cls-52,.cls-53,.cls-54,.cls-55,.cls-56,.cls-58,.cls-59,.cls-6,.cls-60,.cls-61,.cls-62,.cls-63,.cls-64,.cls-65,.cls-9{fill-rule:evenodd;}.cls-2{fill:#47b71d;}.cls-3{fill:#ff1612;}.cls-15,.cls-4{fill:#fcca3e;}.cls-4{stroke:#aa8c30;}.cls-20,.cls-22,.cls-26,.cls-4,.cls-59,.cls-6,.cls-61{stroke-miterlimit:2.41;}.cls-20,.cls-22,.cls-4,.cls-59{stroke-width:0.01px;}.cls-5{fill:#aa8c30;}.cls-6{fill:#30c2dc;stroke-width:0.02px;}.cls-6,.cls-61{stroke:#0872a7;}.cls-7,.cls-9{fill:#953220;}.cls-8{fill:#f9aa51;}.cls-11{fill:#04534e;}.cls-12{fill:#0c8489;}.cls-13{fill:#8cbebf;}.cls-14{fill:url(#New_Gradient_53);}.cls-16{fill:#e92736;}.cls-17{fill:#f7e204;}.cls-18{fill:url(#New_Gradient_53-2);}.cls-19{fill:url(#New_Gradient_53-3);}.cls-20,.cls-56{fill:#fcca3d;}.cls-20,.cls-59{stroke:#987c2e;}.cls-21{fill:#987c2e;}.cls-22,.cls-30{fill:#202020;}.cls-22{stroke:#494037;}.cls-23{fill:#a8ac71;}.cls-24{fill:#78732e;}.cls-25,.cls-61{fill:#fff;}.cls-26,.cls-48{fill:none;}.cls-26{stroke:#78732e;stroke-width:0.01px;}.cls-27{fill:#404118;}.cls-28{fill:#f1a720;}.cls-29{fill:#c6c7a6;}.cls-31{fill:#dbad6c;}.cls-32{fill:#ab6d29;}.cls-33{fill:#8f4620;}.cls-34{fill:#4d2a15;}.cls-35{fill:#d2a567;}.cls-36{fill:#b07229;}.cls-37{fill:#803f1d;}.cls-38{fill:#8b441f;}.cls-39{fill:#5c3818;}.cls-40{fill:#904720;}.cls-41{fill:#6c4119;}.cls-42{fill:#874f20;}.cls-43{fill:#b27129;}.cls-44{fill:#1e2121;}.cls-45{fill:#fff6f0;}.cls-46{fill:#f16e16;}.cls-47{fill:#d5d3ca;}.cls-49{fill:#6c3f18;}.cls-50{fill:#f9c83a;}.cls-51{fill:#fcf3d8;}.cls-52{fill:#fdeaaf;}.cls-53{fill:#bf802d;}.cls-54{fill:#513625;}.cls-55{fill:#af7029;}.cls-57{fill:#494037;}.cls-58{fill:#a86828;}.cls-59,.cls-60{fill:#f8c83c;}.cls-61{stroke-width:0.04px;}.cls-62{fill:#9ca168;}.cls-63{fill:#717732;}.cls-64{fill:#cd202a;}.cls-65{fill:#016848;}</style><radialGradient id="New_Gradient_53" cx="31078.97" cy="-6501.65" r="4.95" gradientTransform="translate(-1235.77 271.29) scale(0.04)" gradientUnits="userSpaceOnUse"><stop offset="0" stop-color="#fff"/><stop offset="0.75" stop-color="#f15870"/><stop offset="1" stop-color="#f15770"/></radialGradient><radialGradient id="New_Gradient_53-2" cx="21639.94" cy="-31574.45" r="4.95" gradientTransform="matrix(0.03, 0.02, -0.02, 0.03, -1217.95, 336.74)" xlink:href="#New_Gradient_53"/><radialGradient id="New_Gradient_53-3" cx="1385.92" cy="-30475.9" r="4.95" gradientTransform="matrix(0.01, 0.04, -0.04, 0.01, -1203.22, 382.74)" xlink:href="#New_Gradient_53"/></defs><polygon class="cls-1" points="10 0 20.09 0 20.09 20 10 20 10 0 10 0"/><polygon class="cls-2" points="0 0 10 0 10 20 0 20 0 0 0 0"/><polygon class="cls-3" points="20.09 0 30 0 30 20 20.09 20 20.09 0 20.09 0"/><polygon class="cls-4" points="11.61 10.65 11.41 10.53 11.4 10.55 11.49 10.63 11.62 10.74 11.61 10.65 11.61 10.65"/><path class="cls-4" d="M11.25,10.44a.07.07,0,0,1,.09,0l0,0,0,0-.06,0s-.06,0,0-.08Z"/><polygon class="cls-5" points="11.49 10.63 11.47 10.57 11.41 10.53 11.41 10.56 11.49 10.63 11.49 10.63"/><path class="cls-4" d="M11.43,10.56s0-.09,0-.11-.07,0-.07,0,0,0,0,.07,0,.05,0,.07.08,0,.1,0Z"/><polygon class="cls-4" points="11.61 10.61 11.74 10.42 11.76 10.45 11.71 10.54 11.64 10.7 11.61 10.61 11.61 10.61"/><path class="cls-4" d="M11.85,10.28s-.06,0-.07.05l0,.05.05,0,0,0s0-.07,0-.09Z"/><polygon class="cls-5" points="11.71 10.54 11.7 10.48 11.74 10.42 11.75 10.45 11.71 10.54 11.71 10.54"/><path class="cls-4" d="M11.73,10.46s-.06-.07-.05-.1a0,0,0,0,1,.08,0,.12.12,0,0,0,.05.05s.06,0,0,.06-.07,0-.11,0Z"/><polygon class="cls-4" points="12.23 11.76 12 11.77 12.01 11.79 12.12 11.81 12.3 11.83 12.23 11.76 12.23 11.76"/><path class="cls-4" d="M11.83,11.79s.05,0,.08,0H12v.05a.09.09,0,0,1-.06,0s-.07,0-.07,0Z"/><polygon class="cls-5" points="12.12 11.81 12.08 11.76 12 11.77 12.02 11.79 12.12 11.81 12.12 11.81"/><path class="cls-4" d="M12,11.78a.12.12,0,0,0-.06-.1s-.06,0-.05.06a.08.08,0,0,1,0,.07s0,.06,0,.06.06,0,.06-.09Z"/><polygon class="cls-4" points="12.24 11.76 12.27 11.53 12.29 11.54 12.3 11.65 12.3 11.82 12.24 11.76 12.24 11.76"/><path class="cls-4" d="M12.3,11.35s-.05.05-.05.08a.2.2,0,0,0,0,.05h.05a.14.14,0,0,0,0-.05s0-.07,0-.08Z"/><polygon class="cls-5" points="12.3 11.65 12.26 11.6 12.27 11.53 12.29 11.54 12.3 11.65 12.3 11.65"/><path class="cls-4" d="M12.27,11.57a.13.13,0,0,1-.09-.07,0,0,0,0,1,.06-.05s0,0,.07,0,.06,0,.06,0-.06.05-.1.06Z"/><polygon class="cls-4" points="13.2 12.61 12.97 12.65 12.99 12.68 13.09 12.68 13.27 12.68 13.2 12.61 13.2 12.61"/><path class="cls-4" d="M12.8,12.7s0,0,.07,0h.05v.06l-.06,0s-.07,0-.07,0Z"/><polygon class="cls-5" points="13.09 12.68 13.04 12.64 12.97 12.65 12.99 12.68 13.09 12.68 13.09 12.68"/><path class="cls-4" d="M13,12.66a.13.13,0,0,0-.07-.09,0,0,0,0,0,0,.07.12.12,0,0,1,0,.07s0,.06,0,0,0-.06,0-.1Z"/><polygon class="cls-4" points="13.21 12.64 13.18 12.41 13.21 12.42 13.24 12.52 13.29 12.69 13.21 12.64 13.21 12.64"/><path class="cls-4" d="M13.18,12.23s0,.06,0,.09l0,0h.05a.24.24,0,0,0,0-.07s0-.06-.05-.06Z"/><polygon class="cls-5" points="13.24 12.52 13.19 12.48 13.18 12.41 13.21 12.42 13.24 12.52 13.24 12.52"/><path class="cls-4" d="M13.2,12.44a.09.09,0,0,1-.1,0s0-.07.05-.06a.06.06,0,0,0,.07,0s.06,0,.06,0,0,.06-.08.07Z"/><polygon class="cls-4" points="18.14 10.68 17.97 10.52 18 10.48 18.03 10.51 18.14 10.59 18.14 10.68 18.14 10.68"/><polygon class="cls-5" points="18.03 10.51 18.03 10.57 17.97 10.52 18 10.48 18.03 10.51 18.03 10.51"/><path class="cls-4" d="M18,10.41a.06.06,0,0,1,.06.06.06.06,0,0,1-.06.06s-.07,0-.07-.06A.07.07,0,0,1,18,10.41Z"/><polygon class="cls-4" points="18.14 10.68 18.39 10.61 18.37 10.57 18.34 10.57 18.16 10.6 18.14 10.68 18.14 10.68"/><polygon class="cls-5" points="18.34 10.57 18.31 10.63 18.39 10.61 18.37 10.57 18.34 10.57 18.34 10.57"/><path class="cls-4" d="M18.45,10.52a.07.07,0,0,0-.09,0,.06.06,0,0,0,0,.08.07.07,0,0,0,.09,0A.06.06,0,0,0,18.45,10.52Z"/><polygon class="cls-4" points="17.57 11.8 17.43 11.55 17.46 11.52 17.49 11.55 17.62 11.73 17.57 11.8 17.57 11.8"/><polygon class="cls-5" points="17.49 11.55 17.47 11.62 17.43 11.55 17.46 11.52 17.49 11.55 17.49 11.55"/><path class="cls-4" d="M17.44,11.44a.06.06,0,0,1,0,.08s0,.05-.07,0-.06,0-.05-.07A.06.06,0,0,1,17.44,11.44Z"/><polygon class="cls-4" points="17.57 11.8 17.8 11.84 17.8 11.8 17.77 11.79 17.62 11.74 17.57 11.8 17.57 11.8"/><polygon class="cls-5" points="17.77 11.79 17.72 11.83 17.8 11.84 17.8 11.8 17.77 11.79 17.77 11.79"/><path class="cls-4" d="M17.89,11.79a.06.06,0,0,0-.09,0,.06.06,0,0,0,0,.08.06.06,0,1,0,.1-.07Z"/><polygon class="cls-4" points="16.56 12.61 16.56 12.37 16.6 12.37 16.61 12.41 16.63 12.55 16.56 12.61 16.56 12.61"/><polygon class="cls-5" points="16.61 12.41 16.56 12.46 16.56 12.37 16.6 12.37 16.61 12.41 16.61 12.41"/><path class="cls-4" d="M16.62,12.29a.06.06,0,0,1,0,.09.06.06,0,0,1-.09-.09A.06.06,0,0,1,16.62,12.29Z"/><polygon class="cls-4" points="16.56 12.61 16.79 12.73 16.81 12.69 16.78 12.67 16.64 12.57 16.56 12.61 16.56 12.61"/><polygon class="cls-5" points="16.78 12.67 16.72 12.7 16.79 12.73 16.81 12.69 16.78 12.67 16.78 12.67"/><path class="cls-4" d="M16.9,12.71a.07.07,0,0,0-.08,0,.06.06,0,0,0,0,.08.06.06,0,0,0,.08,0A.07.07,0,0,0,16.9,12.71Z"/><path class="cls-6" d="M13.06,11.43l.54.27c.12.06.2,0,.17-.08s0-.1.1,0a.58.58,0,0,0,.2.23.35.35,0,0,0,.21,0s1.12.08,1.24.11a1,1,0,0,0,.35,0l.33-.08c.09,0,.16,0,.16,0s-.06.07-.17.1-.29.07-.3.13.12.11.19.13,0,0-.12.06a1.07,1.07,0,0,0-.39.16c-.12.1-.14.13-.27.14s-.5,0-.63,0a.41.41,0,0,1-.29-.07.66.66,0,0,0-.26-.16,1.23,1.23,0,0,0-.38,0c-.1,0-.06-.06,0-.1s.13-.06.13-.1,0-.1-.19-.14a2,2,0,0,0-.39-.06c-.14,0-.1,0-.08-.05s.14,0,.15-.08,0-.07-.12-.14L13,11.55c-.07-.05-.09-.18,0-.12Z"/><path class="cls-7" d="M14.21,11.94a.17.17,0,0,1-.06-.12.13.13,0,0,1,0-.09.09.09,0,0,1,.08,0,.1.1,0,0,1,.1,0H15a2.83,2.83,0,0,1,.42.06.16.16,0,0,1,.11,0l.08,0a.19.19,0,0,1,0,.1.11.11,0,0,1,0,0l0,.07a.22.22,0,0,1,0,.26.13.13,0,0,1,.06.17l0,0-.07,0-.07,0h0l-.06,0h-.78a.18.18,0,0,1-.1,0,.15.15,0,0,1-.06-.05.15.15,0,0,1-.12.05.08.08,0,0,1-.07,0s-.05,0-.05-.07,0,0,0-.06a.1.1,0,0,1,0-.05l0,0-.06-.09a.22.22,0,0,1,0-.08.08.08,0,0,1,0-.07l0-.07Z"/><path class="cls-8" d="M14.17,11.82a.18.18,0,0,0,.05.11h0l-.05.08a.35.35,0,0,0,0,.06.64.64,0,0,0,0,.07l.06.1h0l0,0a.09.09,0,0,0,0,0,0,0,0,0,0,0,.05.07.07,0,0,0,0,.06l.06,0a.19.19,0,0,0,.12-.05h0a.16.16,0,0,0,.06.05l.1,0h.7l.06,0c.05,0,.06,0,.06,0h0l0,0h.07l.06,0,0,0a.12.12,0,0,0-.05-.15h0a.22.22,0,0,0,0-.25h0l0-.07v0a.13.13,0,0,0,0-.08.1.1,0,0,0-.07,0,.1.1,0,0,0-.1.05h0a1.85,1.85,0,0,0-.42-.06h-.6a.09.09,0,0,0-.08-.05l-.07,0a.2.2,0,0,0,0,.08Z"/><path class="cls-7" d="M15.49,11.85h0s0,0,0,0h0l0,0s0,0,0,0h0s0,0,0,0,0,0,0,0h.06a0,0,0,0,0,0,0v0Zm-1.22.51h0l0,0h0l0,0a.09.09,0,0,1,0,.05s0,0,0,0,0,0,0,0h0s0,0,0-.06a.14.14,0,0,0,0-.06l-.05,0h0s0,0,0,0Zm1.23,0h0a.08.08,0,0,0,0-.05.05.05,0,0,0-.05,0h0l0,0a.08.08,0,0,0,0,.05.14.14,0,0,0,0,.06h0a.11.11,0,0,1,0-.05s0,0,0,0l0,0h0l0,0s0,0,0,0Zm-1.21-.58h0v0l0,0s0,0,0,0h0a.14.14,0,0,0,0-.06s0-.05,0-.06h0s0,0,0,0a.07.07,0,0,1,0,.06h0l0,0s0,0,0,0Z"/><path class="cls-9" d="M14.41,12.38s0,.06.12.08a2.55,2.55,0,0,0,.41,0h.28a.13.13,0,0,0,.12-.08s.05,0,.05,0a.11.11,0,0,0,0,.1l-.08,0a.9.9,0,0,1-.22,0h-.56a.28.28,0,0,1-.11,0l0,0a.05.05,0,0,0,0,0Z"/><path class="cls-7" d="M14.46,11.73a.91.91,0,0,1,.13.16.63.63,0,0,1,.08.22,1.16,1.16,0,0,0,.2.38h0a1.22,1.22,0,0,1-.19-.38.93.93,0,0,0-.08-.22l-.13-.15v0Z"/><path class="cls-7" d="M14.63,11.73h0a.61.61,0,0,1,.12.15.63.63,0,0,1,.09.22,1,1,0,0,0,.22.39h0a1.13,1.13,0,0,1-.22-.4.71.71,0,0,0-.08-.21,1.07,1.07,0,0,0-.14-.16Z"/><path class="cls-7" d="M15,12v.05s0,0,0,0a1.15,1.15,0,0,0,.22.39h0a1.09,1.09,0,0,1-.23-.4.06.06,0,0,0,0,0v0Z"/><path class="cls-9" d="M15,11.94a.13.13,0,0,0,0,.1,1.31,1.31,0,0,0,.28,0s0-.06,0-.11a.35.35,0,0,1,.07-.12s0,0,0,0l-.15,0h-.12a1.92,1.92,0,0,0-.13.17Z"/><path class="cls-10" d="M12.78,10.18s0,.08,0,.1.1,0,0-.1Zm-.42.38h.08s0,0,0,0-.06,0-.08,0Zm.15.27a.1.1,0,0,0,.08,0s0,0,0,0a.1.1,0,0,1-.11,0Zm.24.2a.09.09,0,0,0,.06-.08c0-.06,0,0,0,0s0,.06-.08.07Zm.31.2a.3.3,0,0,1,.08-.07s0,0,0,0l-.12,0Zm.33.11,0-.06s0,0,0,0a.15.15,0,0,1-.07.05Zm0,0s0-.08,0-.09,0,0,0,0a.17.17,0,0,1-.08.08Zm.64.14a.15.15,0,0,0,.07,0s0,0,0,0a.09.09,0,0,1-.1,0Zm.32.08a.25.25,0,0,0,0-.07s0,0,0,0,0,.06-.09.06Zm.33,0s.06-.06,0-.1-.08,0-.08,0,0,.07,0,.08a.13.13,0,0,0,.07-.08.17.17,0,0,1,0,.08Zm1.38.14a.18.18,0,0,1,0-.11c0-.06,0,0,0,0a.14.14,0,0,0,.08.12Zm.58,0a.18.18,0,0,1-.09-.07s0,0,0,0a.09.09,0,0,0,.11.06Zm0,0s-.09,0-.11-.06,0,0,0,0a.1.1,0,0,0,.12,0Zm.24-.21a.16.16,0,0,0-.1,0s0,0,0,0a.11.11,0,0,0,.11,0ZM16.62,11a.12.12,0,0,0,0,.08s0,0,0,0,0-.08.08-.1Zm-.24.13a.19.19,0,0,0,0,.13s0,0,0,0a.13.13,0,0,1,.06-.14Zm-1.73-.27s0,.11,0,.11.07,0,0-.11Zm-.08,0a.34.34,0,0,1,0,.1s0,0,0,0,0-.1,0-.12Zm-.38-.06s0,.1.06.11.09,0,.08,0a.35.35,0,0,0-.08-.1.13.13,0,0,0,0,0s0,0-.07,0Zm-.19.1c0,.05.08.13.11.11s0-.09-.11-.11Zm-.72-.19s0,.1.05.09,0-.09-.05-.09Zm-.16-.14a.11.11,0,0,1,0,0,0,0,0,0,0,0,0,.12.12,0,0,0,0-.09Z"/><path class="cls-11" d="M15.28,11.9a.26.26,0,0,1,.11-.2.59.59,0,0,1,.28-.1.42.42,0,0,0,.16,0,2.54,2.54,0,0,0,.34.13.8.8,0,0,0,.31,0,1.13,1.13,0,0,0,.29-.13c.05,0,.11-.06.12-.11a.34.34,0,0,0,0-.25.62.62,0,0,0-.22-.17.23.23,0,0,0-.15.05l-.18.15s-.09.14-.14.16a.45.45,0,0,1-.16,0,.36.36,0,0,0,0-.25c-.05-.11-.26-.16-.39-.16s-.44,0-.53,0a.43.43,0,0,1-.2,0s-.12-.07-.24-.12a.87.87,0,0,0-.31-.09.34.34,0,0,0-.22.09A.64.64,0,0,0,14,11a1.11,1.11,0,0,0-.35-.27.48.48,0,0,0-.5,0,.62.62,0,0,0-.16-.38.47.47,0,0,0-.4-.17c-.16,0-.19.23-.18.33a.51.51,0,0,0,.26.33A.69.69,0,0,0,13,11s0,.11.13.2a.89.89,0,0,0,.49.12.55.55,0,0,0,.27-.09.38.38,0,0,0,.21.26,1.21,1.21,0,0,0,.6,0,.67.67,0,0,0,.19-.1.63.63,0,0,0,0,.18c0,.11,0,.22,0,.3s0,.08.07.08h.27s0,0,0,0a.19.19,0,0,0,0-.08Z"/><path class="cls-12" d="M15.88,11.54a.27.27,0,0,0,.07-.06l0-.06s0,0,.07,0a.17.17,0,0,0,.14,0s.08-.11.12-.14a1.92,1.92,0,0,1,.15-.14l.09,0a.15.15,0,0,1,.11,0,.51.51,0,0,1,.12.09.33.33,0,0,1,.08.17.14.14,0,0,1-.05.15,2,2,0,0,1-.33.16.64.64,0,0,1-.31,0,2.83,2.83,0,0,1-.3-.11ZM13.05,11a.34.34,0,0,1,.08-.14A1.43,1.43,0,0,0,13,10.5a.53.53,0,0,0-.25-.22.27.27,0,0,0-.23,0c-.1.05-.1.22-.1.27a.49.49,0,0,0,.19.24.59.59,0,0,0,.42.15Zm.88.25A.38.38,0,0,1,14,11a1.1,1.1,0,0,0-.27-.22.61.61,0,0,0-.38-.1.36.36,0,0,0-.25.2c0,.05,0,.13,0,.17a.71.71,0,0,0,.35.16.8.8,0,0,0,.48-.05Zm.94-.14a.35.35,0,0,1-.14-.06,1,1,0,0,0-.25-.12.61.61,0,0,0-.27,0,.36.36,0,0,0-.2.17c0,.07-.08.2,0,.26a.81.81,0,0,0,.42.19.77.77,0,0,0,.49-.09c.07,0,.1-.14.15-.18l.12-.1v0H15s-.05,0-.05,0a.19.19,0,0,1-.06-.08Zm.2.19a.52.52,0,0,0-.08.11.79.79,0,0,0-.06.22v.34s0,.06.06.06a.64.64,0,0,0,.2,0s0-.05.05-.09a.24.24,0,0,1,.08-.17.38.38,0,0,1,.17-.1,1,1,0,0,1,.2,0,.42.42,0,0,0,.2-.08.18.18,0,0,0,.08-.12s0-.08-.06-.11-.05-.06-.09-.1a.15.15,0,0,0-.14,0l-.17,0a.17.17,0,0,0-.1.1s0,0-.09,0-.12,0-.13,0,0,0,0,.07,0,0-.07,0,0-.14,0-.1Z"/><path class="cls-13" d="M16,11.45l0,0s0,0,.07,0a.17.17,0,0,0,.14,0s.08-.11.12-.14a1.92,1.92,0,0,1,.15-.14l.09,0a.15.15,0,0,1,.11,0l0,0h-.06a.42.42,0,0,0-.15.13h0a.09.09,0,0,1,0,.05h0c-.06.06-.15.14-.21.14h0a.1.1,0,0,1,0,.08s-.07,0-.09,0a.11.11,0,0,1,0-.08Zm-3.52-1a.17.17,0,0,1,.09-.1.39.39,0,0,1,.28,0,.66.66,0,0,1,.14.17l0,0a0,0,0,0,0-.05,0s0,0,0,0h0a.38.38,0,0,1,0,.1,1.25,1.25,0,0,1,0,.21.41.41,0,0,1,.08-.13A1.43,1.43,0,0,0,13,10.5a.53.53,0,0,0-.25-.22.27.27,0,0,0-.23,0c-.06,0-.08.1-.09.16Zm1.29.66a.05.05,0,0,0,0,0s0,0,0,0a0,0,0,0,0,0,0s0,0,0,0Zm-.12.07s0,0,.05,0,0,0,0,0l0,0s0,0,0,0Zm-.14-.08s0,0,.06,0,0-.09-.06-.06,0,0,0,.07Zm-.18.06s.06,0,.07,0,0,0,0-.06a0,0,0,0,0-.06.06Zm0-.24s0,0,0,.05,0,0-.06,0,0-.05,0-.05Zm.13-.08,0,0s0,0,0,0,0,0,0,0,0,0,.05,0Zm-.5,0a.08.08,0,0,0,.07,0,0,0,0,0,0,0-.05s-.09,0-.07,0Zm-.13,0s0,0,0,0,0,0,0,0a0,0,0,0,1,0,0,.06.06,0,0,1,0-.05Zm0-.21s0,0,.05.05a0,0,0,0,1,0,0,0,0,0,0,1,0-.05s0,0,0,0Zm-.17,0s0,0,0,0,0,0,0,.05a0,0,0,0,1-.06,0s0-.05,0-.06Zm0-.12a0,0,0,0,0,.05,0s0,0,0,0-.07,0-.05,0Zm.17-.05a0,0,0,0,0,0,.05s0,0,0,0-.06,0-.07,0Zm.37.7a.49.49,0,0,1,0-.15.17.17,0,0,1,.18-.15.64.64,0,0,1,.32.06.88.88,0,0,1,.21.15c.06,0,.09,0,.07,0a.49.49,0,0,0-.08-.12l-.12-.08a.61.61,0,0,0-.38-.1.36.36,0,0,0-.25.2c0,.05,0,.13,0,.17l.05,0Zm3.41.24s0,0,.06,0a0,0,0,0,0,0-.06s-.1,0-.05.06Zm0,.19s.06,0,.08,0,0-.05,0-.06-.13,0-.08.06Zm-.17-.11s0,.05,0,.07,0,0,.06,0,0-.09-.07-.05Zm-.73.08a0,0,0,0,0,.06,0,0,0,0,0,0,0-.05s-.08,0-.06,0Zm-.2,0a0,0,0,0,0,.07,0s0,0,0,0-.1,0-.07,0Zm-.29.27s.05,0,.08,0a0,0,0,0,0,0-.06s-.06,0-.08,0,0,0,0,.07ZM14.33,11a0,0,0,0,0,.06,0,.06.06,0,0,0,0-.06l.24.1v0s0,0,.05,0l0,0,.07,0,.22.12h.07l.12-.1v0H15s-.05,0-.05,0a.19.19,0,0,1-.06-.08.35.35,0,0,1-.14-.06,1,1,0,0,0-.25-.12.61.61,0,0,0-.27,0,.36.36,0,0,0-.2.17c0,.07-.08.2,0,.26a1,1,0,0,1,0-.17.27.27,0,0,1,.13-.15.44.44,0,0,1,.21,0h0a0,0,0,0,0,0,.06Zm.17.13s0,0,0,.06a0,0,0,0,1-.06,0s0,0,0-.06a0,0,0,0,1,.06,0Zm.18.1s.05,0,.07,0,0,0,0,.06,0,0,0,0a.05.05,0,0,1,0-.06Zm-.1.1s0,0,0,0,0,0,0,0a0,0,0,0,1-.05,0s0-.05.05-.05Zm-.32,0a0,0,0,0,1,.06,0s0,0,0,.05a.06.06,0,0,1-.06,0,0,0,0,0,1,0-.06Zm-.09-.16s0,0,0,0,.05,0,.05,0-.07-.07-.08,0Zm.86.61a1.25,1.25,0,0,1,.11-.18c0-.05,0-.06.06-.06a.11.11,0,0,0,.07,0,.31.31,0,0,1,.05-.1.35.35,0,0,1,.11-.09s.05,0,.07,0,0,0,0,0a.05.05,0,0,0,.07,0s0-.06.07-.06.09,0,.09,0a.06.06,0,0,1,0,0s0,.06,0,.07a.08.08,0,0,0,.08,0s0,0,0,0,0,0,0,0a.07.07,0,0,0,.06,0s0,0,0-.06l0,0c-.06,0-.05-.06-.09-.1a.15.15,0,0,0-.14,0l-.17,0a.17.17,0,0,0-.1.1s0,0-.09,0-.12,0-.13,0,0,0,0,.07h0s-.05-.05-.07-.06,0,0,0,0l-.06.19s0,.15,0,.18a.41.41,0,0,0,0,.11s0,.09.05.05a.45.45,0,0,1,0-.13Z"/><path class="cls-11" d="M12.78,10.47h0s0,0,0,0,0,0,0,0,0,0,0-.05h0v0s0,0,0,0Zm3.65.84a0,0,0,0,0,0,0s0-.05,0-.06,0,0,0,0h0a.09.09,0,0,1,0,.05h0Zm-.37.21h0s0,.05.05.06.06-.05.07-.09h0a.05.05,0,0,1,0,0s-.07,0-.09,0v0Zm.27,0h0s0,.07.05.07.05,0,.05-.08,0,0,0,0h0s0,0,0,.05-.05,0-.06,0l0,0Zm.17,0h0s0,.06,0,.06a.05.05,0,0,0,.05,0h0s-.05,0-.08,0,0,0,0,0Zm.05-.19h0a.05.05,0,0,0,.05.05s0,0,0-.05,0,0,0,0h0s0,0,0,0,0,0-.06,0v0Zm-1.44.39h0a0,0,0,0,0,0,0,.07.07,0,0,0,.07,0,0,0,0,0,0,0,0s0,0,0,0-.06,0-.08,0v0Zm.42-.41h0s.05,0,.06,0,0,0,0,0,0,0,0,0l-.05,0Zm.2,0a.07.07,0,0,0,0,.08s.07,0,.08,0a0,0,0,0,0,0,0v0a.08.08,0,0,1-.08,0s0,0,0-.07Zm.11,0Zm-.43.12h0a0,0,0,0,0,0,.06s.05,0,.07,0,0,0,0,0,0,0,0,0a0,0,0,0,1-.07,0s0,0,0,0Zm.08,0Zm-.3,0h0s0,0,.05,0,0,0,0,0v0a.11.11,0,0,1-.07,0Zm-.66-.11s0,0,0,0a0,0,0,0,0,.06,0s0,0,0,0h0s0,0,0,0a0,0,0,0,1-.05,0Zm.15-.14h0s0,0,0,.05a.05.05,0,0,0,.05,0s0,0,0,0h0s0,0,0,0a.05.05,0,0,1,0-.05Zm-.42.12h.06a.05.05,0,0,0,0,0l0,0h0l0,0s0,0,0,.05Zm.05-.4h0a0,0,0,0,0,0,.07.06.06,0,0,0,.06-.05l0,0h0s0,0,0,0a0,0,0,0,1-.06,0,0,0,0,0,1,0,0Zm.14.24h0s0,0,0,0a0,0,0,0,0,0,0s0,0,0-.05h0a.08.08,0,0,1,0,0,0,0,0,0,1-.06,0l0,0Zm-.28-.09h0a0,0,0,0,0,0,0s0,0,.05,0a0,0,0,0,0,0,0h0a.09.09,0,0,1-.05,0s0,0,0,0Zm.44,0h0a.07.07,0,0,0,.05,0s0,0,0,0h0l0,0-.05,0Zm-.87,0h0s0,.07,0,.08a.09.09,0,0,0,.05,0h0a.05.05,0,0,1,0,0v0Zm-.38-.21a.05.05,0,0,0,0,0s0,0,0,0h0a.05.05,0,0,1,0,0s0,0,0,0Zm-.12.08s0,.05,0,.06.05,0,0-.06h0v0s0,0-.06,0a0,0,0,0,1,0,0Zm.23.11h0s0,.06,0,.07a.05.05,0,0,0,.06-.06h0v0s0,0-.06,0a.08.08,0,0,1,0,0Zm.14.17h0s0,0,0,0,0,0,0,0,0,0,0,0l0,0s0,0,0,0Zm-.67-.62a0,0,0,0,0,0,0s0,0,.05,0a0,0,0,0,0,0,0h0l0,0Zm0,.2h0s0,.06,0,.06.05,0,.05-.06h0v0a.08.08,0,0,1-.07,0Zm-.13.06h0l.06,0s0,0,0,0l0,0s0,0,0,0Zm0-.23h0s0,0,0,0,0,0,0,0h0s0,0,0,0Zm-.16,0h0a0,0,0,0,0,.05,0,.05.05,0,0,0,0,0s0,0,0,0h0s0,0,0,.05,0,0-.05,0Zm0-.19h0s0,0,0,0,0,0,.06,0a0,0,0,0,0,0,0s0,0,0,0a0,0,0,0,1-.05,0Z"/><path class="cls-10" d="M12.58,10.41s0,.06.05.07,0,0,0-.05a.12.12,0,0,0,0,0v.06l0,0Zm3.89.78s-.06.05,0,.07,0,0,0-.07Zm.16.1s-.06,0-.06.06,0,0,.06-.06Zm0,.2s-.08,0-.08,0,.06,0,.08,0Zm-.23-.09s-.05.09,0,.1.06-.05.07-.05,0,0-.05,0a.32.32,0,0,1,0-.07Zm-.21,0c-.07,0-.1.06-.09.08s.06-.06.09-.08Zm-.58-.26s-.08.05-.07.07.06,0,.07-.07Zm.24.07c-.05,0-.08.06-.07.08s.06-.05.07-.08Zm-.09.22s-.11,0-.1.06a.1.1,0,0,0,.1-.06Zm-.26-.11s-.06.09-.05.12.08,0,.12,0a.12.12,0,0,0-.08,0s0,0,0-.08Zm-.29.25a.11.11,0,0,0,0,.11s.11,0,.12-.05a.2.2,0,0,0-.09,0s0,0,0-.08Zm.1-.25s-.09.07-.07.11.07-.08.07-.11Zm-.25.06s0,.08,0,.09,0,0,0,0,0,0,0-.07Zm-.76-.48s.05.08.08.07,0-.08-.08-.07Zm.29.05s0,.1.08.09,0-.09-.08-.09Zm.07.25s.07,0,.09,0,0,0-.09,0Zm-.44.12s.06,0,.07,0,0,0-.07,0Zm.29,0s.09,0,.1,0-.08,0-.1,0Zm-.13-.24s.09.08.12.06-.08-.11-.09-.11a.15.15,0,0,0,0,.06Zm-.26,0s.09,0,.1,0-.07-.09-.1-.1l.06.08-.06,0Zm-.4-.06s.08,0,.08,0,0,0-.08,0Zm-.16.13s.07,0,.08,0,0,0-.08,0Zm-.1-.23s.08.07.08.09-.1,0-.1,0h.06s0-.05,0-.07Zm-.19.17s.08,0,.09,0-.06,0-.08,0a.08.08,0,0,0,0,0,.07.07,0,0,0,0,0Zm0-.24s0,.06.06,0,0,0-.06,0Zm.12-.14c0,.05,0,.1.07.08s0-.07-.07-.08Zm-.61,0a.07.07,0,0,0,0,.06s0-.05,0-.06Zm.17,0,0,.05a.13.13,0,0,0,0-.11.22.22,0,0,0,0,.06Zm.07-.25s0,.1,0,.1,0-.09,0-.1Zm-.41.07s0,.06,0,.05,0-.05,0-.05Zm.16,0s0,.07.06.06,0-.05-.06-.06Zm.1-.23s0,.09,0,.09,0-.06,0-.09Z"/><path class="cls-14" d="M12.34,10c.07,0,.17,0,.23.12s0,.22,0,.26-.17,0-.23-.12-.05-.22,0-.26Z"/><path class="cls-15" d="M12.21,9.63a.07.07,0,0,1,.06.07.08.08,0,0,1,0,0l.09.14-.06,0a1.28,1.28,0,0,0-.07-.16h0a.07.07,0,0,1-.07-.06.07.07,0,0,1,.07-.07Z"/><path class="cls-5" d="M12.21,9.63h0s0,0,0,.06a0,0,0,0,0,.05.05l0,0,0,0,.09.14h0s-.06-.11-.06-.07l0,.11h0a1.28,1.28,0,0,0-.07-.16h0a.07.07,0,0,1-.07-.06.07.07,0,0,1,.07-.07Z"/><path class="cls-16" d="M12.17,10.05a.06.06,0,0,0,.09.07.07.07,0,0,0,.05-.09s.07,0,.09,0v0a.07.07,0,0,0,.09,0,.06.06,0,0,0,0-.1s0,0,0,0,0,0,0,0h-.05s0,0,0,0,0,0,0,0v0l0,0s0,0,0,0,0,0,0,0l-.07,0s0,0,0,0,0,0,0,0V10h0s0,0,0,0,0,0,0,0l0,0s0,0,0,0,0,0,0,0Z"/><path class="cls-17" d="M12.44,9.89s.05,0,.06,0a0,0,0,0,1,0,.05l0,0s0,0,0,0Zm-.23.15s0,0,0,0,0,.05,0,.06h0s0,0,0,0Zm.1-.1s0,0,.07,0,0,.06,0,.06,0,0-.06,0a0,0,0,0,1,0-.05Z"/><path class="cls-18" d="M13.69,10.6c.06,0,.1.1.08.19s-.09.17-.16.15-.09-.1-.07-.19.08-.17.15-.15Z"/><path class="cls-15" d="M13.79,10.3a.05.05,0,0,1,0,.08l0,0,0,.13h-.05a.79.79,0,0,1,0-.13h0s0-.05,0-.07a0,0,0,0,1,.07,0Z"/><path class="cls-5" d="M13.79,10.3h0a0,0,0,0,0-.06,0s0,0,0,.06,0,0,0,0h0l0,.13h0v0s0-.1,0-.07a.35.35,0,0,0-.05.08h0a.79.79,0,0,1,0-.13h0s0-.05,0-.07a0,0,0,0,1,.07,0Z"/><path class="cls-16" d="M13.54,10.55a.05.05,0,0,0,0,.09s.08,0,.08,0a.07.07,0,0,0,.07,0s0,0,0,0a.08.08,0,0,0,0,.05,0,0,0,0,0,.06-.06s0,0,0,0,0,0,0,0l0,0h0s0,0,0,0l0,0v0s0,0,0,0,0,0,0,0h-.09s0,0,0,0l0,0s0,0,0,0,0,0,0,0,0,0,0,0h0s0,0,0,0,0,0,0,0Z"/><path class="cls-17" d="M13.8,10.6s0,0,0,0,0,0,0,0a.11.11,0,0,1,0-.05Zm-.22,0s0,0,0,0,0,0,0,0l0,0a0,0,0,0,1,0,0Zm.11,0s0,0,0,0,0,0,0,0,0,0,0,0,0,0,0,0Z"/><path class="cls-19" d="M17.09,11s0,.16-.09.25-.2.12-.25.07,0-.16.08-.25.21-.12.26-.07Z"/><path class="cls-15" d="M17.34,10.78a.06.06,0,0,1,0,.07h0l-.1.11,0,0,.12-.1h0a.06.06,0,0,1,.05-.07,0,0,0,0,1,.06,0Z"/><path class="cls-5" d="M17.34,10.78h0a0,0,0,0,0-.06,0s0,0,0,.06l0,0h0l-.1.11h0s.07-.08,0-.07l-.09.05h0l.12-.1h0a.06.06,0,0,1,.05-.07,0,0,0,0,1,.06,0Z"/><path class="cls-16" d="M17,10.84s-.07.06,0,.09S17,11,17,11a.08.08,0,0,0,0,.07h0a.05.05,0,0,0,0,.07,0,0,0,0,0,.08,0h0s0,0,0,0,0,0,0,0,0,0,0,0,0,0,0,0h0v0s0,0,0,0,0,0,0,0a.12.12,0,0,0-.05,0s0,0,0,0,0,0,0,0h0v0s0,0,0,0,0,0,0,0,0,0-.05,0,0,0,0,0,0,0,0,0Z"/><path class="cls-17" d="M17.17,11s0,0,0,0,0,0-.05,0a.11.11,0,0,1,0-.05s0,0,0,0ZM17,10.87s0,0,0,0,0,0-.05,0a.11.11,0,0,1,0,0s0,0,0,0Zm.1.07a0,0,0,0,1,0,.05,0,0,0,0,1-.06-.05s0,0,0,0Z"/><path class="cls-20" d="M15.45,10.7c0,.05,0,.07,0,.07l-.13.08-.06,0a.11.11,0,0,1-.08,0,.11.11,0,0,0-.08,0L15,10.9l0,0,0,.1s0,0,.09,0v.06s.08.1.08.1a.17.17,0,0,0,.11,0,.08.08,0,0,0,0-.09l.14-.1v0s0,0,.05,0a.05.05,0,0,0,0,0,.05.05,0,0,0,.06.05.06.06,0,0,0,.06-.06s0,0,0,0,0,0,0,0a.14.14,0,0,0,.06.09.09.09,0,0,0,.11,0l0,0,.09-.1a0,0,0,0,0,0,0s0-.13-.15-.09a.14.14,0,0,0-.09,0,.14.14,0,0,0-.09-.07s0-.06-.08-.07a.41.41,0,0,1-.1-.14h0s-.08,0-.07.08Z"/><path class="cls-21" d="M15.13,11.08h0a.09.09,0,0,1,.06-.06h0l.09,0,.1-.07h0l-.1.07-.08,0h0a.13.13,0,0,0,0,.06Z"/><path class="cls-21" d="M15.45,10.77v0s0,0,0,.06a.08.08,0,0,0,0,0h.06l.06,0,0,0v-.14h0a.82.82,0,0,1,0,.14,0,0,0,0,1,0,0l-.06,0h-.06s0,0,0-.05a.15.15,0,0,0,0-.06v0Z"/><path class="cls-21" d="M15.62,10.86l0,0h0l.05-.07h0s0,.05-.06.06h0l0,0Z"/><path class="cls-21" d="M15.69,10.9l0,0,0,0s0,0,0,0h0l.05-.06h0l0,0h0s0,0,0,0,0,0,0,0l0,0Z"/><path class="cls-21" d="M15.78,11l0,0,0,0h0l0,0,0,0s0,0,0,0h0s0,0,0,0l0,0,0,0h0l0,0,0,0Z"/><path class="cls-21" d="M15.34,11l0,0,0,0h0s0,0,.06,0l0,0h0s0,0,0,0l-.05,0h-.06l0,0,0,0Z"/><path class="cls-21" d="M15.23,11l0,0a.05.05,0,0,0,.05,0h0s0,0,0,0a.05.05,0,0,0,0,0h0l0,0s0,0,0,0h0l0,0,0-.05Z"/><path class="cls-21" d="M15.18,10.87s0,0,0,0a.05.05,0,0,0,0,0s0,0,0,0l0,0,0,0h0l0,0H15.2s0,0,0,0,0,0,0-.05Z"/><path class="cls-21" d="M15.3,10.86h0l0,0s0,0,0,0h-.06a.07.07,0,0,1,0-.05h0Z"/><path class="cls-22" d="M14.93,11.14s-.06-.13.12-.08a.14.14,0,0,0,0-.14s-.13,0-.16.08a.14.14,0,0,0,.07.14Z"/><path class="cls-22" d="M15.21,11.24s-.12,0,0,.14-.14-.05-.12-.16.1-.1.11-.09.06.06.05.11Z"/><path class="cls-22" d="M16.09,11.06a.15.15,0,0,1,.1.16c0,.09-.09.11-.16.09a.08.08,0,0,0,.06-.06s0-.07-.07-.07,0,0,0-.06l.07-.06Z"/><path class="cls-23" d="M13.36,10a.14.14,0,0,1-.15,0,.45.45,0,0,1-.07-.18A.47.47,0,0,0,13,9.62c-.11-.09-.18-.14-.19-.21s0-.16.08-.27,0-.26-.25-.38h-.1l0,.12.08,0s.13.07.09.18a.68.68,0,0,0-.09.41c0,.16.2.24.25.29s.07.08.09.19,0,.28.16.33a.36.36,0,0,0,.36-.06c.11-.07-.09-.23-.09-.23Z"/><path class="cls-24" d="M12.93,10v0c0,.11,0,.28.16.33a.36.36,0,0,0,.36-.06s0-.06,0-.1l0,0s0,.07-.12.1a.32.32,0,0,1-.15,0l.05-.09a.43.43,0,0,1-.17,0,.52.52,0,0,1,.07-.11l-.15,0L13,10l-.11,0Z"/><path class="cls-24" d="M13.36,10a.14.14,0,0,1-.15,0,.61.61,0,0,1-.07-.17l-.09.16a.24.24,0,0,0,.11,0,.45.45,0,0,1,0,.13.31.31,0,0,0,.12-.06,1.31,1.31,0,0,1,0,.15.17.17,0,0,0,.11-.06l.08-.09-.05,0Z"/><path class="cls-24" d="M13.13,9.79A.61.61,0,0,0,13,9.67l0,.05,0,0-.13,0h0a.18.18,0,0,1,.07.1h0l0-.13.17,0Z"/><path class="cls-25" d="M13.27,10.05h0a.44.44,0,0,1-.09.08.33.33,0,0,0,0-.13h0a.34.34,0,0,1-.11,0l.08-.15h0l-.09.16s0,0,0,0L12.93,10h0L13,10l0,0,0,0h0l0,0h0l0,0h.12l0,0,0,0h0v0h.05l.13,0a.38.38,0,0,1,0,.08.49.49,0,0,0,.16,0,.76.76,0,0,0,.17-.13h0l-.06.06a.25.25,0,0,1-.21.1.17.17,0,0,0,0-.06.35.35,0,0,0,.18-.16h0a.49.49,0,0,1-.15.15s0-.16,0-.16Zm-.14-.24h0l-.14,0,.07-.06h0a.25.25,0,0,0-.08.09.21.21,0,0,0-.13,0h0s.06,0,.08,0,0,0,0,0,0,.06,0,.08h0a.66.66,0,0,1,0-.11s0-.05,0,0l.14,0ZM13,9.6h0a.45.45,0,0,0-.12.06s0,.08,0,.12h0a.23.23,0,0,1,0-.1A.17.17,0,0,1,13,9.6Zm-.08-.07h0l-.1,0s-.08.07-.11.1h0a.59.59,0,0,1,.08-.11l.1-.05Zm0,0h0a.17.17,0,0,0-.12,0l-.09.09h0a.29.29,0,0,1,.1-.09Zm0-.19h0a.14.14,0,0,0-.1-.07.21.21,0,0,0-.11,0h0a.14.14,0,0,1,.11,0,.16.16,0,0,1,.1.05Zm0-.09h0a.23.23,0,0,0-.1-.07.13.13,0,0,0-.1,0h0a.21.21,0,0,1,.11,0,.2.2,0,0,1,.1.08Zm0-.16h0a.16.16,0,0,0-.1,0,.15.15,0,0,0-.1,0h0a.15.15,0,0,1,.1,0,.21.21,0,0,1,.1,0Zm-.06-.14h0a.11.11,0,0,0-.08,0,.35.35,0,0,0-.05.08h0s0-.06.06-.07a.17.17,0,0,1,.1,0Zm-.11-.1h0l0,0a.15.15,0,0,0,0,.1h0a.15.15,0,0,1,0-.08l.06-.07Zm-.06,0h0a.14.14,0,0,0-.06.07.22.22,0,0,0,0,.08h0a.22.22,0,0,1,0-.08s0-.05.06-.07Zm.4,1.46.07-.09a.22.22,0,0,0,.11-.05l0,.12a.44.44,0,0,1-.15,0Zm0-.2h.09a.33.33,0,0,1,0,.1.36.36,0,0,1-.11,0l.05-.06Z"/><path class="cls-26" d="M13.36,10a.14.14,0,0,1-.15,0,.45.45,0,0,1-.07-.18A.47.47,0,0,0,13,9.62c-.11-.09-.18-.14-.19-.21s0-.16.08-.27,0-.26-.25-.38h-.1l0,.12.08,0s.13.07.09.18a.68.68,0,0,0-.09.41c0,.16.2.24.25.29s.07.08.09.19,0,.28.16.33a.36.36,0,0,0,.36-.06c.11-.07-.09-.23-.09-.23Z"/><polygon class="cls-27" points="14.02 9.87 14.07 9.9 14.09 9.96 14.02 10.03 14 10 14.02 9.87 14.02 9.87"/><path class="cls-28" d="M13.22,7.45a.2.2,0,0,1,0,.1.35.35,0,0,1,0,.07s0,0,0,0a.25.25,0,0,0,0-.13.64.64,0,0,0,0-.07h0l0,0Z"/><path class="cls-23" d="M13.37,7.93l-.21,0a.07.07,0,0,1-.07-.1.47.47,0,0,0,.24-.13c.06-.09,0,0,0,0a.29.29,0,0,1-.18,0s0,0,0-.07.06-.07.08-.11,0-.1,0-.13l.06-.06s0-.07,0-.05l-.05.05s0,0-.06,0a.55.55,0,0,0-.17.13s-.12.09-.12.17a.18.18,0,0,0,.06.13,1.44,1.44,0,0,0,0,.18c0,.06,0,.15.11.17h.31l.06-.25Z"/><path class="cls-25" d="M13.37,7.93l-.21,0c-.05,0-.07,0-.07-.06a.26.26,0,0,0-.15,0,.12.12,0,0,0,0,.05V8c.09-.08.14-.08.14-.08a.17.17,0,0,0,0,.13.19.19,0,0,0,0,.11h.34l.06-.25Zm-.17.12.09.07s0-.1,0-.11l0,0s0,0,0,0L13.2,8s0,0,0,0Zm-.08.1L13,8.05A.65.65,0,0,1,13.12,8a.15.15,0,0,0,0,0s0,0,0,0a.14.14,0,0,1,0,.06s0,0,0,0Z"/><path class="cls-25" d="M13,7.52a.1.1,0,0,0,.06,0,.14.14,0,0,1,.14,0,.28.28,0,0,1,0,.05.28.28,0,0,0,0,.08.16.16,0,0,1,0,.07.58.58,0,0,0-.05.11s0,.08,0,.08h0a0,0,0,0,1,0,0s0,0,0-.06,0-.06,0-.1l.07-.1a.31.31,0,0,0,0-.07.14.14,0,0,1,0-.07.08.08,0,0,0-.08,0s-.07.07-.11.06Z"/><path class="cls-29" d="M13,7.65l.1-.09a.08.08,0,0,1,0,0,.14.14,0,0,1,0-.07.08.08,0,0,0-.08,0s-.07.07-.11.06h0a.22.22,0,0,0-.07.07.1.1,0,0,0,0,.1s.11,0,.15,0Z"/><path class="cls-10" d="M13.13,7.44h0Z"/><path class="cls-24" d="M13.37,7.93l-.21,0a.1.1,0,0,1-.07,0A.08.08,0,0,0,13,8l0,0s0,0,0,0L13.12,8s0,0,0,0,0,.06,0,0L13.25,8h0l.06,0h0V7.93ZM13,8.16h.12l0,0L13,8.07s0,0,0,0a.34.34,0,0,0,0,.08Zm.18,0h.15l0,0-.08-.06s0,0,0,0a.31.31,0,0,0,0,.1Z"/><path class="cls-26" d="M13.37,7.93l-.21,0a.07.07,0,0,1-.07-.1.47.47,0,0,0,.24-.13c.06-.09,0,0,0,0a.29.29,0,0,1-.18,0s0,0,0-.07.06-.07.08-.11,0-.1,0-.13l.06-.06s0-.07,0-.05l-.05.05s0,0-.06,0a.55.55,0,0,0-.17.13s-.12.09-.12.17a.18.18,0,0,0,.06.13,1.44,1.44,0,0,0,0,.18c0,.06,0,.15.11.17h.31l.06-.25Z"/><path class="cls-30" d="M13.58,8.3s-.05.06-.16,0a.25.25,0,0,1-.15-.25c0-.07.11-.16.15-.19s0-.05.08-.1a.05.05,0,0,1,0-.08.62.62,0,0,0,.26-.41s.06,0,0,.19c0,0,.1,0,.09-.31,0,0,.09.06,0,.23a.15.15,0,0,0,.06,0,.57.57,0,0,0,.06-.3s0,0,.07.21a.35.35,0,0,0,.1-.19.32.32,0,0,1,.08.18s0,0,.07,0h0a.47.47,0,0,1,.19,0c.07,0,.17.07.23,0a.19.19,0,0,1,0,.08.49.49,0,0,1,.21.27A.25.25,0,0,0,15,7.37a.48.48,0,0,0-.31-.17c-.07,0-.15,0-.15-.15s0-.24.31-.23c0,0,0-.13.29-.12a2.48,2.48,0,0,1,.81.17,1.5,1.5,0,0,1,.38.21.27.27,0,0,0,.21.06c.1,0,.11,0,.1,0l-.07.09s0,0,0,0a2.18,2.18,0,0,1,.32.25,3.67,3.67,0,0,1,.34.42c0,.06.21.42.26.54a.41.41,0,0,0,.16.21c.07,0,.05.09-.06.09a1.22,1.22,0,0,1,.08.38,1,1,0,0,1-.06.47,4.4,4.4,0,0,0-.06.53,1.06,1.06,0,0,1,0,.33.21.21,0,0,0,0,.14s-.05.06-.06,0a.3.3,0,0,1,0-.16.83.83,0,0,0,0-.32,1.55,1.55,0,0,1,0-.29c0-.09,0-.42,0-.5a.41.41,0,0,0-.11-.19s0,.39,0,.49,0,.38,0,.51a1.1,1.1,0,0,1,0,.3c0,.06,0,0,0,0v-.36c0-.06-.05-.11-.07-.21a1.65,1.65,0,0,1,0-.31A.7.7,0,0,0,17,9.21s0,.3.05.43,0,.27,0,.4v.33s0,0,0,0a2.09,2.09,0,0,0,0-.25s0-.06-.06-.15a1.9,1.9,0,0,1-.09-.29,2.12,2.12,0,0,1,0-.24.21.21,0,0,0-.12-.18s0,.15,0,.22.07.21.09.3,0,.15,0,.19,0,0,0,0a1.13,1.13,0,0,1-.08-.22s-.06-.22-.09-.28a.27.27,0,0,0-.17-.18s0,0,.05.08,0,.12.06.21a1.31,1.31,0,0,0,.05.21s.06.1,0,.1l-.06-.06-.1-.19a1.15,1.15,0,0,1-.06-.17s0-.05-.05-.09l-.14-.11a.1.1,0,0,0-.08,0,.42.42,0,0,1,.07.14.91.91,0,0,0,.06.16.4.4,0,0,0,.07.13s.05,0,0,0-.05,0-.1-.08l-.18-.25A.27.27,0,0,0,16,9.24a.32.32,0,0,1-.16-.14s0,0,0,0a.15.15,0,0,1-.05.12.68.68,0,0,1,.12.45l1.29,1c.06,0-.21.17-.31.12a.34.34,0,0,1-.33.06s-.09.15-.26,0a.12.12,0,0,1-.2,0c-.11-.12-.24-.29-.24-.29s0,.2,0,.21-.08-.06-.08-.06,0,.14,0,.14-.13-.13-.13-.13,0,.2,0,.21-.18-.18-.18-.18,0,.11-.06.11-.19-.29-.19-.29,0,0-.26-.27c0,0,0,.27-.06.27s-.1-.12-.1-.12-.3.13-.39.08,0,0,0-.08a1.22,1.22,0,0,1-.33-.12s0-.07.18,0a0,0,0,0,1,0,0,.18.18,0,0,0,.16,0s-.12-.06-.13-.09a.18.18,0,0,1,.19-.13s-.11-.05-.13-.09-.07-.11,0-.11a.13.13,0,0,1,.09,0l.08.06s-.27-.24-.2-.46a.64.64,0,0,1-.06-.1l-.09,0a1.1,1.1,0,0,0,0-.25.63.63,0,0,1-.07-.22.81.81,0,0,1,.14-.32v0H14a1.91,1.91,0,0,1,.18-.29s0,0,0,0a.61.61,0,0,0,.1-.19h0s0-.11-.07-.09h0v0A.29.29,0,0,1,14,8l-.22.09c-.08,0-.26,0-.24.18Z"/><path class="cls-31" d="M14.31,7.25s0,0,.07,0h0a.47.47,0,0,1,.19,0c.07,0,.17.07.23,0a.19.19,0,0,1,0,.08s0,.08-.14.08a.19.19,0,0,1,.05.12.32.32,0,0,1-.15,0s.07.11.06.15-.16,0-.16,0a.2.2,0,0,1,0,.08s0,0,0,0-.08,0-.07-.06-.1-.09-.1-.09a.18.18,0,0,0,0-.1s-.16,0-.16,0a.45.45,0,0,0,.22-.37Z"/><path class="cls-32" d="M14.31,7.25s0,0,.07,0h0a.47.47,0,0,1,.19,0c.07,0,.17.07.23,0s0,.1-.14.06a.65.65,0,0,0-.22-.08.32.32,0,0,0-.13,0v0Zm.45.19a.13.13,0,0,1-.1,0c-.06,0-.07,0-.12-.07l-.14-.05-.05,0h0l0,0a.73.73,0,0,1,.2,0,.33.33,0,0,0,.16.05Zm0,.15a.32.32,0,0,1-.15,0l-.09-.09a.85.85,0,0,0-.22-.07h0v0h0l.18,0a.49.49,0,0,1,.27.13Zm-.09.17s-.16,0-.16,0a.28.28,0,0,0-.11-.15s0,0,0,0a.89.89,0,0,1,.24.12s0,.06,0,.06Zm-.28.06h0c0-.08-.1-.09-.1-.09s.08-.08.07-.14l.08.08a.15.15,0,0,1,0,.15s-.05.07-.08,0Z"/><path class="cls-33" d="M13.58,8.3s-.05.06-.16,0a.25.25,0,0,1-.15-.25c0-.07.11-.16.15-.19s0-.05.08-.1a.05.05,0,0,1,0-.08.62.62,0,0,0,.26-.41s.06,0,0,.19c0,0,.1,0,.09-.31,0,0,.09.06,0,.23a.15.15,0,0,0,.06,0,.57.57,0,0,0,.06-.3s0,0,.07.21a.35.35,0,0,0,.1-.19.32.32,0,0,1,.08.18.45.45,0,0,1-.22.37s.15,0,.16,0a.18.18,0,0,1,0,.1s.1,0,.1.09.05.07.07.06a.19.19,0,0,0,.05-.12l.08,0a.6.6,0,0,1,0,.25s0-.15-.05-.15,0,0-.07.09a.61.61,0,0,1-.13.14.93.93,0,0,0,.1-.15s0-.06,0,0a.17.17,0,0,1-.08.07h0s0-.11-.07-.09h0v0A.29.29,0,0,1,14,8l-.22.09c-.08,0-.26,0-.24.18Z"/><path class="cls-34" d="M15.67,10.78h0s-.11-.1-.13-.13a2.33,2.33,0,0,1-.09-.23s0,0,0-.05,0,0,.06,0l.08.27.07.16Zm-.11,0s0,0,0,0-.18-.18-.18-.18l0,.06s0,0,0,0-.1-.27-.11-.31.06-.07.06-.07a.13.13,0,0,1,.09.08c0,.07.08.14.08.15s0-.06,0-.07,0,0,0,0,.05.1.06.14l.05.14Z"/><path class="cls-33" d="M15.33,8.7l.08.13s0,0,.06,0,.11-.07.14-.09a.12.12,0,0,0,.05-.09s0-.05,0-.05,0,0,.07,0a.18.18,0,0,0,.09-.1.45.45,0,0,0,0-.11s0,0,0,0h.05l.09-.1a.14.14,0,0,0,0-.09.15.15,0,0,0-.07-.07L15.83,8s0,0-.05,0l0,.08s0,0,0,.06a.14.14,0,0,1,0,.1.35.35,0,0,1,0,.07s0,0,0,0l-.07-.07s0,0-.05,0l-.05.1s0,0,0,0,.07,0,.06.08a.22.22,0,0,1,0,.09h0a.73.73,0,0,1-.08-.09s0,0,0,0l-.07.08s0,0,0,0,0,0,0,0,0,0,0,0h-.07l-.05,0s0,0,0,0Z"/><path class="cls-34" d="M15.81,8s0,0,0,0l0,.08s0,0,0,.06a.14.14,0,0,1,0,.1.35.35,0,0,1,0,.07h0l0,0s0,0,0-.05a.2.2,0,0,0,0-.13L15.81,8Zm-.15.24-.05.1s0,0,0,0,.07,0,.06.08a.22.22,0,0,1,0,.09.05.05,0,0,0,.06,0,.14.14,0,0,0,0-.09.45.45,0,0,0,0-.11l-.07-.11Zm-.12.2,0,0-.07.08s0,0,0,0,0,0,0,0,0,0,0,0h-.07l-.05,0h0a.23.23,0,0,0,.11,0c.06,0,.1-.06.1-.1s0-.07,0-.11v0a0,0,0,0,1,0-.05Z"/><path class="cls-35" d="M15.4,8.82h0s0,0,.06,0,.11-.07.14-.09a.12.12,0,0,0,.05-.09s0-.05,0-.05,0,0,.07,0a.18.18,0,0,0,.09-.1.45.45,0,0,0,0-.11s0,0,0,0h.05l.09-.1a.14.14,0,0,0,0-.09.15.15,0,0,0-.07-.07l0,0a.06.06,0,0,0,0,0s0,.09.06.12,0,.06,0,.07-.05,0-.08,0l0,0h0l-.07-.07h0s0,0,0,0a.59.59,0,0,0,.08.11.11.11,0,0,1,0,.11.24.24,0,0,1-.11.09s0,0,0,0h0a.73.73,0,0,1-.08-.09h0a0,0,0,0,0,0,.05l.07.09s0,0,0,.08a.16.16,0,0,1-.06.08l-.1.06Z"/><path class="cls-33" d="M16,6.94l-.28-.11-.4-.09-.32,0c-.1,0-.21.06-.22.11a.29.29,0,0,0,0,.13.16.16,0,0,0,.11.08,3.25,3.25,0,0,1,.33.19.72.72,0,0,1,.18.33,2.45,2.45,0,0,1,0,.38.3.3,0,0,1-.08.21.52.52,0,0,1-.23.16v0l.15.3s0,0,.05,0l.07-.07s0,0,0,0a.22.22,0,0,1-.09-.1s0,0,0,0a.1.1,0,0,0,.08.07s0,0,.07,0l.1-.1s0,0,0,0a.11.11,0,0,1-.08-.07s0,0,0,0a.15.15,0,0,0,.09.05.07.07,0,0,0,.06,0s.07-.11.08-.14,0,0,0,0a.12.12,0,0,1-.09-.07s0-.05,0,0a.09.09,0,0,0,.09.05c.05,0,.07,0,.08-.07a.82.82,0,0,0,0-.14s0-.07,0,0-.11,0-.14-.05,0,0,0,0a.15.15,0,0,0,.1,0c.05,0,.07,0,.07-.06a.33.33,0,0,0,0-.1.16.16,0,0,0-.05-.09,0,0,0,0,1,0,0s0,0-.05,0a.14.14,0,0,1-.13,0c0-.06,0,0,0,0s.09,0,.12,0a.08.08,0,0,0,0-.11.42.42,0,0,1,0-.1s0,0,0,0a.15.15,0,0,1-.14,0s0,0,0,0,.09,0,.12,0,0-.09,0-.12l-.19-.16a.76.76,0,0,1,.17.12c.08.07.08.09.11.1s.09,0,.08,0A.21.21,0,0,0,15.63,7a.17.17,0,0,1,.08.12c0,.09,0,.08,0,.09a.25.25,0,0,0,.12,0s.08,0,0-.09-.06-.08-.06-.08l.08.09a.09.09,0,0,1,0,.09s0,0,0,0l.15.08s.06,0,.06,0a.51.51,0,0,0,0-.13.31.31,0,0,1,0,.13c0,.05,0,.05,0,.06a.23.23,0,0,0,.12,0l.17-.09s0,0,0,0,0,0,0,0l0-.07s0,0,0,0h-.13A1.14,1.14,0,0,1,16.15,7L16,6.94Z"/><path class="cls-35" d="M15.51,7.08l-.17-.15h0s-.06,0,0,0a.34.34,0,0,1,.14,0,.32.32,0,0,1,.16.1.28.28,0,0,1,.05.16s.05,0,0,0A.21.21,0,0,0,15.63,7h0l-.07-.06a.62.62,0,0,0-.31-.12c-.16,0-.34,0-.36,0s0,.14.1.17a.72.72,0,0,0,.25,0,.4.4,0,0,1,.18,0l.08,0Zm.36.14s.08,0,0-.09l-.05-.08h0a.67.67,0,0,0-.19-.16c-.09,0,0,0,0,0A.55.55,0,0,1,15.8,7a.89.89,0,0,1,.07.19Zm.23.12s0,0,0,0a.69.69,0,0,0,0-.13.47.47,0,0,0,0-.09S16,7,16,7s0,0,0,.06a.68.68,0,0,1,.05.25Zm0,0s0,0,0,0a.23.23,0,0,0,.12,0l.17-.09h0a.35.35,0,0,0,0-.06s0-.06-.08,0-.14.1-.19.13a.08.08,0,0,1-.08,0Z"/><path class="cls-34" d="M15,7.66A.25.25,0,0,0,15,7.37a.48.48,0,0,0-.31-.17c-.07,0-.15,0-.15-.15s0-.24.31-.23h0a.29.29,0,0,0,0,.13.16.16,0,0,0,.1.08h0s.2.1.26.14l.18.16h0a.64.64,0,0,1,.08.2,2.45,2.45,0,0,1,0,.38.3.3,0,0,1-.08.21.4.4,0,0,1-.23.15A1.48,1.48,0,0,0,15,7.66Z"/><path class="cls-35" d="M15.34,7.36a.6.6,0,0,1,.08.19,2.45,2.45,0,0,1,0,.38.3.3,0,0,1-.08.21.4.4,0,0,1-.23.15.43.43,0,0,0,0,0,.32.32,0,0,0,.19-.19.6.6,0,0,0,0-.38,1,1,0,0,0-.09-.31s0,0,0,0l.05,0Z"/><path class="cls-32" d="M15.15,8.2a.38.38,0,0,0,.12-.1c0-.07,0-.11-.08-.15s.12.1.14,0a.42.42,0,0,0,0-.1c0-.08-.12-.17-.2-.17a.15.15,0,0,1,.16,0s0,0,0,0a.79.79,0,0,0,0-.13.12.12,0,0,0-.08-.09.11.11,0,0,0-.1,0,.14.14,0,0,1,.09,0,.1.1,0,0,1,.07,0s0,0,0,0,0-.09,0-.1a.08.08,0,0,0,0,0s0,0-.06,0a.19.19,0,0,0-.1,0s0,0,0,0a.14.14,0,0,1,.09,0h0l-.07-.06a.25.25,0,0,0-.24-.07h-.07s0,0,0,0h.05s0,0,0,0a.5.5,0,0,0-.27,0s-.06,0-.06,0,0,0,.09,0h.1s0,0,0,0a.22.22,0,0,0-.11,0s0,0,0,0,.05,0,.08,0,0,0,0,0,0-.11,0-.11h-.14a.2.2,0,0,0-.14.11.29.29,0,0,0,0,.16s0,0,.11.07a.48.48,0,0,1,.23.08.75.75,0,0,1,.16.15.27.27,0,0,1,0,.19s0,.07,0,.08a1.58,1.58,0,0,1,.13.52Z"/><path class="cls-35" d="M15.32,7.6h0s-.05-.08-.08-.09h-.12a.49.49,0,0,1,.21.08Z"/><path class="cls-35" d="M15.36,7.86a.24.24,0,0,0-.19-.13.5.5,0,0,1,.19.13Z"/><path class="cls-35" d="M15.26,7.37l0,0s0,0-.06,0a.19.19,0,0,0-.1,0h0a.47.47,0,0,1,.2.07Zm-.11-.14h0a.25.25,0,0,0-.24-.07h0l.29.07Zm-.58-.15s0,0,.09,0h.1s0,0,0,0a.22.22,0,0,0-.11,0s0,0,0,0,.05,0,.08,0,0,0,0,0,0-.09,0-.1h-.12a.28.28,0,0,0-.11.07.15.15,0,0,0,0,.11s0,0,0,0Z"/><path class="cls-34" d="M15.87,8s0,.08.09.09a.15.15,0,0,0,.14-.07.11.11,0,0,0,0-.12L16,7.86a.17.17,0,0,0,.12,0,.13.13,0,0,0,0-.13,1.49,1.49,0,0,0-.11-.15s.1,0,.15,0a.11.11,0,0,0,0-.14h0s-.22-.08-.28-.1l-.12-.06s0,0,0,0a1.15,1.15,0,0,1,.2.16.22.22,0,0,1,.08.1h0l-.16-.1-.12,0s0,0,0,0,0,0,0,0-.06,0,0,.07l.18.15s0,0,0,.05,0,0-.1,0-.08,0-.05,0,.06,0,0,.07,0,0,0,.07l.09.1s0,0,0,.06,0,0,0,.06Z"/><path class="cls-33" d="M15.89,8.06a.09.09,0,0,0,.07.06.15.15,0,0,0,.14-.07.11.11,0,0,0,0-.12L16,7.86a.17.17,0,0,0,.12,0,.13.13,0,0,0,0-.13,1.49,1.49,0,0,0-.11-.15s.1,0,.15,0a.11.11,0,0,0,0-.14h0a.09.09,0,0,1,0,.1.15.15,0,0,1-.13,0h0l-.07,0a.07.07,0,0,0-.08,0,.06.06,0,0,0,0,.09s.08,0,.1.08a.06.06,0,0,1-.05.09s0,0,0,0a.55.55,0,0,1,.1.11s0,.11,0,.14a.24.24,0,0,1-.13,0Z"/><path class="cls-35" d="M15.9,8.08a.09.09,0,0,0,.06,0,.15.15,0,0,0,.14-.07.11.11,0,0,0,0-.12L16,7.86a0,0,0,0,0,0,0s.05,0,0,.09,0,.07-.08.08Zm.22-.23,0,0a.13.13,0,0,0,0-.13,1.49,1.49,0,0,0-.11-.15s.1,0,.15,0a.11.11,0,0,0,0-.14h0a.14.14,0,0,1,0,.11.12.12,0,0,1-.12,0H16l-.07,0s0,0,0,0,.07.07.11.13.09.11.06.14-.1,0-.14,0,0,0,0,0l.12,0Z"/><path class="cls-34" d="M16.73,7.77A1.94,1.94,0,0,1,17,8c.1.12.2.29.24.34a1.22,1.22,0,0,1,.07.17s.1.22,0,.2a1,1,0,0,1-.23-.16A3.44,3.44,0,0,1,17,8.23a4.48,4.48,0,0,0-.26-.43c-.08-.09,0-.06,0,0Z"/><path class="cls-33" d="M16.41,7.37l.1-.08h0a2.65,2.65,0,0,1,.26.22c.12.13.19.2.25.28a3.4,3.4,0,0,1,.2.31,3.33,3.33,0,0,1,.17.37.76.76,0,0,0,.09.18.32.32,0,0,0,.09.08s0,0,0,0a1,1,0,0,1-.27,0,.09.09,0,0,1-.08-.12.32.32,0,0,0,0-.21,2.49,2.49,0,0,0-.15-.29s0,0,0,0h0A.12.12,0,0,1,17,8a1.56,1.56,0,0,0-.13-.19s0,0,0,0h0s0,0-.05,0l-.11-.12-.12-.1s0,0,0,0h.05l-.11,0-.11-.09s0,0,0,0Z"/><path class="cls-35" d="M16.41,7.37l.09-.07s.08.1.05.13l-.08,0-.06,0s0,0,0,0Zm.78,1,0,0,.06,0s0,0,0,0Zm-.08-.15c0-.05-.05-.09-.05-.1s0,0,0,0h0s0,0,0,0,.05,0,.06,0a.11.11,0,0,1-.08.06Zm-.18-.29a.25.25,0,0,0-.05-.07s0,0,0,0H17s0,0,0,0-.06.06-.06.06Zm-.16-.2-.05-.06-.12-.1s0,0,0,0h.07a.12.12,0,0,1,.09,0,.53.53,0,0,1,0,.12v0Z"/><path class="cls-35" d="M17.51,8.76l-.19,0h0l0,0-.13-.1a1,1,0,0,1,.23.05.78.78,0,0,1,.15.1Z"/><path class="cls-34" d="M17.41,8.79a.35.35,0,0,1-.2-.08.85.85,0,0,1-.15-.15.48.48,0,0,0,0,.16.63.63,0,0,0,.09.31,1.16,1.16,0,0,0,.16.2.17.17,0,0,1,.06.14s0,.37,0,.41,0,.15,0,.2,0,.1,0,0,0-.27,0-.29,0-.22,0-.28-.05-.29-.05-.32l0-.09a.18.18,0,0,0,.09.09l-.06,0a2,2,0,0,1,.06.27,1.81,1.81,0,0,1,0,.34c0,.06,0,.32,0,.4s0,.11,0,.12,0-.11,0-.21,0-.24,0-.3l.06-.26a1.1,1.1,0,0,0,0-.25c0-.07-.07-.3-.08-.34s-.05-.06-.12-.07Z"/><path class="cls-33" d="M17.06,8.56a.48.48,0,0,0,0,.16.63.63,0,0,0,.09.31l.12.16a.07.07,0,0,0,0-.07,1.6,1.6,0,0,0-.11-.33s-.1-.19-.12-.23Zm.31.46h0a.2.2,0,0,0,.08.08l-.06,0a2,2,0,0,1,.06.27c0,.08,0,.22,0,.3a.45.45,0,0,0,.06-.12s0-.24,0-.28,0-.25,0-.3a.23.23,0,0,0-.08-.09.57.57,0,0,0-.13-.07s0,0,0,0a.94.94,0,0,0,.12.09h0l-.07,0s0,0,0,0a.11.11,0,0,0,0,.07l0,0Z"/><path class="cls-35" d="M17.42,8.92h0s0,0,0,0a.2.2,0,0,1-.12,0v0s0,0,0,0l.07,0Zm0,.19h-.05v0l.06,0Z"/><path class="cls-32" d="M17.05,8.65a.17.17,0,0,0,0,.07.63.63,0,0,0,.09.31l.12.16h0v0a3.4,3.4,0,0,0-.09-.33,1,1,0,0,0-.12-.17Z"/><path class="cls-35" d="M17.05,8.8a.52.52,0,0,0,.08.23l.06.08c0-.06-.05-.13-.06-.17a.47.47,0,0,0-.08-.14Z"/><path class="cls-34" d="M16.74,8.47a.58.58,0,0,0,.14.17A.17.17,0,0,0,17,8.7s0,0,.05.09a.59.59,0,0,0,0,.23c0,.08.09.2.12.26a.51.51,0,0,1,0,.23c0,.09,0,.46,0,.51s0,0-.05,0a.75.75,0,0,1-.06-.13s0-.11,0-.22a1.42,1.42,0,0,0,0-.25A.34.34,0,0,0,17,9.2,2.22,2.22,0,0,1,16.79,9a.81.81,0,0,1-.05-.27V8.47Z"/><path class="cls-32" d="M16.88,9.11,16.79,9a.81.81,0,0,1-.05-.27h0s0,0,.05,0,.09,0,.1.11a.83.83,0,0,1,0,.31Z"/><path class="cls-35" d="M16.83,9l0-.06a.75.75,0,0,1-.05-.26.22.22,0,0,1,.08.14,1.09,1.09,0,0,1,0,.18Z"/><path class="cls-33" d="M17.18,10h0a.75.75,0,0,1-.06-.13s0-.11,0-.22a1.42,1.42,0,0,0,0-.25A.34.34,0,0,0,17,9.2l-.08-.09a.83.83,0,0,0,0-.31.15.15,0,0,0-.06-.09s0-.05,0,0a.25.25,0,0,1,.1.12c0,.07.06.24.09.31a1.15,1.15,0,0,0,.1.23.51.51,0,0,1,0,.22c0,.07,0,.3,0,.38v0Z"/><path class="cls-34" d="M16.52,8.58a.21.21,0,0,0,.09.11s.07,0,.09,0a.78.78,0,0,1,0,.21.49.49,0,0,0,.1.19.3.3,0,0,1,.09.15c0,.05,0,.3,0,.37s0,.3,0,.35,0,0,0,0a1.71,1.71,0,0,1-.07-.18s0-.2-.06-.25a1.64,1.64,0,0,0,0-.22.29.29,0,0,0-.08-.1l-.09-.07A.37.37,0,0,1,16.52,9c-.07-.14-.09-.32,0-.4Z"/><path class="cls-33" d="M16.92,9.86l0-.06s0-.2-.06-.25a1.64,1.64,0,0,0,0-.22.29.29,0,0,0-.08-.1l-.09-.07A.37.37,0,0,1,16.52,9a.48.48,0,0,1-.05-.3s0,0,0,0l.11.13a1.39,1.39,0,0,1,.1.21,1.27,1.27,0,0,0,.11.18.26.26,0,0,1,.07.1,2.18,2.18,0,0,1,.05.29.67.67,0,0,1,0,.2l0,0Z"/><path class="cls-32" d="M16.7,9.2l-.05,0A.37.37,0,0,1,16.52,9a.46.46,0,0,1-.06-.23,1.81,1.81,0,0,1,.15.19,2,2,0,0,1,.09.26Z"/><path class="cls-35" d="M16.63,9.15A.56.56,0,0,1,16.52,9a.44.44,0,0,1-.05-.15,1.19,1.19,0,0,1,.09.15l.07.17Z"/><path class="cls-34" d="M16.26,8.62a.17.17,0,0,0,.09.13c.06,0,.07,0,.08.05a.33.33,0,0,0,.05.18.91.91,0,0,0,.1.16l.08.1a.85.85,0,0,1,0,.17l0,.18c0,.05,0,.09,0,.1s0,0-.05-.06a1.94,1.94,0,0,0-.06-.22.5.5,0,0,0-.11-.16.4.4,0,0,0-.12-.07A.91.91,0,0,1,16.24,9a.31.31,0,0,1,0-.17.27.27,0,0,0,0-.15s0-.06,0-.07Z"/><path class="cls-33" d="M16.72,9.68l0,0a1.94,1.94,0,0,0-.06-.22.5.5,0,0,0-.11-.16.4.4,0,0,0-.12-.07A.91.91,0,0,1,16.24,9a.31.31,0,0,1,0-.17s0,0,0-.05a.25.25,0,0,1,.09.09c.06.07.17.24.2.27a.81.81,0,0,1,.12.14,1.11,1.11,0,0,1,.07.2,1.23,1.23,0,0,1,0,.19Z"/><path class="cls-32" d="M16.48,9.21l-.07,0A.91.91,0,0,1,16.24,9a.27.27,0,0,1,0-.16s0,0,0,0a1,1,0,0,0,.12.15.94.94,0,0,1,.1.14l0,0Z"/><path class="cls-35" d="M16.37,9.15,16.24,9a.46.46,0,0,1,0-.09l.05.05.06.1s.05,0,.05.08Z"/><path class="cls-34" d="M16,8.76l.13.06s0,.08,0,.1a1.06,1.06,0,0,0,.18.22c.1.09.16.12.17.16l.07.15a1,1,0,0,1,0,.22s0,0-.05-.05l-.06-.15a.52.52,0,0,0,0-.11l-.11-.12a.47.47,0,0,0-.09-.06h-.11A1.9,1.9,0,0,1,15.94,9s0-.2,0-.2Z"/><path class="cls-33" d="M16.55,9.66l0,0-.06-.15a.52.52,0,0,0,0-.11l-.11-.12a.47.47,0,0,0-.09-.06h-.11A1.9,1.9,0,0,1,15.94,9v0H16a.59.59,0,0,1,.17.13.86.86,0,0,0,.14.13l.1.09a.31.31,0,0,1,0,.1.72.72,0,0,1,.05.14.53.53,0,0,1,0,.13Z"/><path class="cls-32" d="M16.22,9.17h-.09A1.74,1.74,0,0,1,16,9a.53.53,0,0,1,.15,0,.57.57,0,0,1,.1.13Z"/><path class="cls-35" d="M16.15,9.17h0L16,9a.24.24,0,0,1,.11.06.3.3,0,0,1,0,.08Z"/><path class="cls-34" d="M16.31,8.48h0L16,8.17s0,0,0,0h0a.38.38,0,0,0,.09.13l.19.19c-.07,0-.06,0-.05,0Zm-.2-.38s0,0,0,0l.2.15a3.43,3.43,0,0,1,.27.27,0,0,0,0,0,0,.06l-.05-.05,0,0,0-.06-.19-.19-.14-.13Zm.12-.32h0s0,0,0,0l.07,0,.18.17.27.31.1.13a2,2,0,0,0-.14-.2,2.66,2.66,0,0,0-.29-.35c-.11-.1-.19-.15-.19-.18a.71.71,0,0,1,0-.16h0s0,0,0,0l.08.08s.19.19.24.24l.19.27c0,.06.11.2.13.23s0,.13,0,.13a.23.23,0,0,1-.18-.11,2.12,2.12,0,0,0-.12-.2A1.19,1.19,0,0,0,16.44,8a1.9,1.9,0,0,0-.2-.18Zm0,.83-.19-.24a.06.06,0,0,1,0-.07s0,0,.06,0l.23.21,0,0h0s-.15-.11-.17-.09,0,.12,0,.13Z"/><path class="cls-33" d="M16.35,7.51a3.86,3.86,0,0,1,.33.31,2.79,2.79,0,0,1,.21.28,2.36,2.36,0,0,1,.13.23c0,.07.1.3,0,.32s-.22-.07-.26-.11,0,0,0,0,0,.16,0,.17a.34.34,0,0,1-.17,0s0,0,0,0,0,.11,0,.1a.26.26,0,0,1-.15,0l-.08,0s0,0,0,0,0,.12,0,.16a.23.23,0,0,1-.2,0A.26.26,0,0,1,16,8.72l-.06-.14s0,0,0,0l.21.17s0,0,0,0l-.27-.29s0,0,0,0,0,0,.06,0,0-.05,0-.05l.06.06.17.2s0,0,0,0-.07-.12,0-.13.16.08.18.1l0,0-.05-.07a.13.13,0,0,1-.05-.06s0,0,.05,0-.16-.15-.19-.19a.38.38,0,0,1-.09-.13l0,0,.14.13.19.19,0,.06,0,0,.05.05a0,0,0,0,1,0-.06l.07.08s0,0,0,0l-.09-.12s0,0,.05,0l.06,0-.05,0-.08,0-.12-.13s-.08-.09-.06-.09.08,0,.1,0,0,0,0,0l-.06,0-.08,0L16.23,8l-.11-.1s0,0,0,0a.11.11,0,0,0,.06,0l0,0s0,0,0,0a1.9,1.9,0,0,1,.2.18,1.19,1.19,0,0,1,.16.22,2.12,2.12,0,0,1,.12.2.23.23,0,0,0,.18.11c.06,0,0-.1,0-.13s-.09-.17-.13-.23l-.19-.27c-.05-.05-.21-.22-.24-.24l-.08-.08s0,0,0,0,0,0,.07,0Z"/><path class="cls-35" d="M16.27,8.65h.07a.43.43,0,0,0,.13,0s0,0,0,0l0,0-.05-.07a.13.13,0,0,1-.05-.06s0,0,.05,0a.05.05,0,0,1,.05,0s0,0,0,.06l.06.08s0,0,0,0a.27.27,0,0,1,0-.12l0,0,.05.05.12.08s.06,0,.06,0a.21.21,0,0,0,0-.06s0,.14,0,.15a.34.34,0,0,1-.17,0s0,0,0,0,0,.11,0,.1a.26.26,0,0,1-.15,0l-.08,0Zm.49-.14h0L17,8.6s.06,0,.06,0,0-.2-.05-.26v-.1s.05.08.06.11.1.3,0,.32-.22-.07-.26-.11l0,0Zm-.5.16s0,.12,0,.16l-.06,0-.12,0s0,0,0,0,.08,0,.1,0,0,0,0,0h0v0A1.25,1.25,0,0,0,16,8.61s0,0,0,0h.07s-.06-.12-.07-.15,0,0,0,0l.15.18h0l0,.07Z"/><path class="cls-33" d="M15.87,8.59l.12.18a.2.2,0,0,1,0,.15.16.16,0,0,1-.05.06s0,0,0,0a1,1,0,0,0,.15.16.35.35,0,0,1,.1.12s0,.09.05.13a.56.56,0,0,0,0,.12.1.1,0,0,1,0,.07l-.2-.29A.17.17,0,0,0,16,9.24s-.07,0-.09-.05l-.08-.09a.12.12,0,0,0-.07,0,.17.17,0,0,1-.17.17s0,0,0,.06,0-.1,0-.14a1.09,1.09,0,0,0-.06-.23s0,0,0,0l0,0a.29.29,0,0,1,.08.13.22.22,0,0,0-.06-.15c-.06-.05,0,0,0-.06a.1.1,0,0,0,0-.05s0,0,0,0l.05.09s0,0,0,0a.5.5,0,0,1,0-.13s0,0,0,0l.19.19s0,0,0,0l-.19-.23s0,0,0,0a.14.14,0,0,0,.09-.07s0,0,0,0Z"/><path class="cls-32" d="M15.74,9.05a.17.17,0,0,1-.17.17,1.11,1.11,0,0,0,0-.13s0,0,0,0a.09.09,0,0,0,.09,0,.14.14,0,0,0,0-.14l0-.16h0s0,0,0,0l.05.09h0a.81.81,0,0,1,0,.15Z"/><path class="cls-35" d="M15.74,9.05a.17.17,0,0,1-.17.17l0-.09a.11.11,0,0,0,.11,0,.18.18,0,0,0,.06-.18s0-.06,0-.07l0,0h0a.81.81,0,0,1,0,.15Z"/><path class="cls-35" d="M15.87,8.59l.12.18a.2.2,0,0,1,0,.15.16.16,0,0,1-.05.06h-.07s0,0,0,0,.07,0,.07,0v0l-.08-.09a0,0,0,0,1,0,0h.07s0,0,0,0-.07-.14-.05-.17v0Z"/><path class="cls-34" d="M15.94,9s0,0,0,0a1,1,0,0,0,.15.16.35.35,0,0,1,.1.12s0,.09.05.13a.56.56,0,0,0,0,.12.1.1,0,0,1,0,.07l-.07-.1V9.45a.29.29,0,0,0-.05-.13A.6.6,0,0,0,16,9.17.6.6,0,0,1,15.9,9s0,0,0,0Z"/><path class="cls-34" d="M15.83,9.89l.41.37.43.36c0,.05.16.12.25.06s.1-.1.1-.1l-1.21-.92V9.8a.1.1,0,0,0,0,.09Z"/><path class="cls-36" d="M15.9,9.85l.28.24s.1,0,.12,0,0,0,0,0-.07,0,0,0l.15.13h.11s.06,0,0,0-.09,0,0,0l.11.09a.44.44,0,0,0,.16,0s0,0,0,0h-.09s0,0,0,0l.15.12s0,0,0,0l-.18-.11s0,0,0,0,0,.06,0,0,0-.08,0-.1,0,0-.05-.06a.51.51,0,0,0-.09-.08s0,0,0,0,0,.06,0,.06v0a.17.17,0,0,0,0-.07l-.1-.09s-.06-.05-.07,0,0,0,0,.06,0,0,0,0a.11.11,0,0,0,0-.08s-.28-.28-.29-.29,0,0,0,0Z"/><path class="cls-34" d="M15.82,10l.44.39c.11.1.39.31.46.36s-.08.14-.27,0a7.25,7.25,0,0,1-.65-.61.32.32,0,0,0,0-.15Z"/><path class="cls-37" d="M15.82,10l.44.39c.11.1.39.31.46.36a.12.12,0,0,1,0,0,6,6,0,0,1-.5-.37L15.82,10V10Z"/><path class="cls-34" d="M15.79,10.14h-.06a.37.37,0,0,1,0,.08s0,.08.06.11l.38.37c.05.05.18.2.28.08s-.48-.44-.65-.64Z"/><path class="cls-37" d="M15.79,10.14h-.06v0c.15.17.49.59.68.63l0,0s-.48-.44-.65-.64Z"/><path class="cls-34" d="M15.76,10.36l.41.4s0,.06-.06.05-.07,0-.12-.1-.19-.24-.21-.25a.22.22,0,0,1,0-.1Z"/><path class="cls-34" d="M15.7,10.26a.75.75,0,0,1,0,.16v.15s0,0,0,0a.42.42,0,0,1,0-.13c0-.05,0-.2,0-.14Z"/><path class="cls-34" d="M15.6,10.32a1.32,1.32,0,0,1,.08.19s0,.1,0,.11,0,0,0-.06a.69.69,0,0,1-.05-.17c0-.06,0-.11,0-.07Z"/><path class="cls-38" d="M15.64,9.2a.88.88,0,0,1,.11.25,2.47,2.47,0,0,1,.05.44c0,.09,0,.22,0,.23s-.06,0-.06,0,0,.11,0,.12-.08,0-.08,0,0,.15,0,.15a.12.12,0,0,1-.12-.07s0,.15,0,.16-.13,0-.15-.08,0,.13,0,.14-.14-.11-.14-.11,0,.11,0,.14-.08-.07-.09-.1a.37.37,0,0,0,0-.15c0-.06-.19-.28-.22-.31a.17.17,0,0,0,0-.06.15.15,0,0,0,.09,0,.57.57,0,0,0,.09.15.87.87,0,0,0,.31.24A3.15,3.15,0,0,1,15,9.92a.2.2,0,0,0,0-.19l0,0a1.59,1.59,0,0,0,.13.24,1.38,1.38,0,0,0,.12.17.42.42,0,0,0,0-.22,1,1,0,0,1-.07-.15s0,0,0-.06a.33.33,0,0,1,.12.16,1.07,1.07,0,0,1,.06.15,2,2,0,0,0-.06-.23,1.36,1.36,0,0,0-.09-.18.29.29,0,0,0,.1,0s0,0,0,0a2.53,2.53,0,0,1,.12.24,3.91,3.91,0,0,0-.1-.44.09.09,0,0,0,.08,0l.11.31a1.27,1.27,0,0,0,0-.23c0-.08-.06-.21-.06-.23a0,0,0,0,1,0,0s0,0,.06.09a.49.49,0,0,0,0-.16Z"/><path class="cls-34" d="M15.64,9.2a.88.88,0,0,1,.11.25,2.47,2.47,0,0,1,.05.44c0,.09,0,.22,0,.23h0s0-.07,0-.16a1.66,1.66,0,0,0,0-.31s0-.17-.06-.22,0-.06,0,0l0,.15a3.43,3.43,0,0,1,.06.34c0,.07,0,.19,0,.19s0,0,0-.05,0-.13,0-.17a.45.45,0,0,0,0-.08,1.27,1.27,0,0,0,0-.23c0-.08-.06-.21-.06-.23a0,0,0,0,1,0,0s0,0,.06.09a.49.49,0,0,0,0-.16Zm-.21,1a.8.8,0,0,1,0,.11s0,0,0,0,0,0-.06,0a.79.79,0,0,1,0-.12,1.13,1.13,0,0,0,0-.14,2.19,2.19,0,0,0,.11.2ZM15,9.88a.25.25,0,0,0,0-.15l0,0a1.59,1.59,0,0,0,.13.24l.08.12,0,0a0,0,0,0,1-.05,0,.45.45,0,0,1-.07-.09A1.18,1.18,0,0,1,15,9.88Zm.23-.1s0,0,0,0a.33.33,0,0,1,.12.16,1.07,1.07,0,0,1,.06.15.81.81,0,0,0,0-.17h0a2.19,2.19,0,0,1,.11.34s0,0,0,0L15.37,10l-.12-.23Zm.14.06v0a1.36,1.36,0,0,0-.09-.18.29.29,0,0,0,.1,0s0,0,0,0a2.32,2.32,0,0,1,.08.22.71.71,0,0,1,.05.22c0,.07,0,0-.05,0s0,0,0-.11a.45.45,0,0,0-.08-.14Zm.16,0a3.91,3.91,0,0,0-.1-.44.09.09,0,0,0,.08,0l0,.11c0,.06,0,.17,0,.19s.06.19,0,.19,0-.08-.05-.11,0,0,0,0,0,.16.05.22,0,.07,0,0,0-.07,0-.12a1.1,1.1,0,0,0,0-.11Z"/><path class="cls-34" d="M15.32,8.75a.6.6,0,0,1,.08.16,1.26,1.26,0,0,0,.07.16.36.36,0,0,1,.06.11.53.53,0,0,1,0,.22s0,0-.12,0,0,.25,0,.27-.13,0-.17-.09,0,.22,0,.23-.1,0-.23-.11,0,.2,0,.23-.14,0-.17-.06,0,0-.12,0l-.06,0a.54.54,0,0,1,0,.08,1.22,1.22,0,0,1-.35-.4,1.28,1.28,0,0,1-.12-.24c0-.09.08-.08.08-.08a2.56,2.56,0,0,0,.45.55s-.25-.28-.25-.39.06,0,.06,0V9.14a1.83,1.83,0,0,0,.25.36.49.49,0,0,1,0-.15s0,0,0,.06l.09.11s0,0,0,0l-.1-.14a.17.17,0,0,1,0-.08.05.05,0,0,1,0-.05s0,0,0,0a.6.6,0,0,0,.14.13s-.16-.21-.11-.26.22.18.22.18A.48.48,0,0,0,15,9.16s0,0,0,0,0,0,0,0,0,0,0,0,.07.13.08.15,0,0,0,0L15.12,9a.76.76,0,0,1,0-.11s.05,0,.08,0l.11.1s.06.08.09.11,0,0,0,0-.09-.21-.09-.23a.28.28,0,0,1,0-.1s0-.06.05,0Z"/><path class="cls-33" d="M15.44,9l0,.06a.36.36,0,0,1,.06.11.53.53,0,0,1,0,.22s0,0-.12,0,0,.25,0,.27-.13,0-.17-.09,0,.22,0,.23-.1,0-.23-.11,0,.2,0,.23-.14,0-.17-.06l-.11-.12s-.25-.28-.25-.39.06,0,.06,0a2.57,2.57,0,0,0,.17.26c.06.07.08,0,.08,0s0-.05,0,0a.45.45,0,0,0,.1.14s0,0,0-.07l0-.07h0v0l-.1-.14a.17.17,0,0,1,0-.08.05.05,0,0,1,0-.05h0a1.51,1.51,0,0,0,.18.24c.08.09.12.13.14.13s0,0,0-.07A.66.66,0,0,1,15,9.43s0,0,0,0,.07.06.08.05a.64.64,0,0,0-.07-.19A.48.48,0,0,0,15,9.16s0,0,0,0,0,0,0,0h0a.63.63,0,0,0,.07.19,1.62,1.62,0,0,0,.12.16s0,0,0,0l-.07-.14h0l0,0h0a0,0,0,0,1,0,0l.07,0s0,0,0,0l-.06-.13A.35.35,0,0,0,15.18,9l-.07-.08h.05l.11.1.05.05a.36.36,0,0,0,0,.11s0,.07.07.08,0,0,0,0,0-.15,0-.2,0,0,0,0Zm-.63.83s0,0-.12,0l-.06,0h0a2.94,2.94,0,0,1-.35-.33,1.67,1.67,0,0,1-.11-.23c0-.08.05-.08.07-.08a1.46,1.46,0,0,0,.24.4,1,1,0,0,0,.33.27Z"/><path class="cls-32" d="M14.19,9.29l0,.05a2,2,0,0,0,.12.17,2.3,2.3,0,0,0,.2.22s.08.07.11.08l.06,0h0l-.06,0h0a2.94,2.94,0,0,1-.35-.33.85.85,0,0,1-.09-.19Z"/><path class="cls-35" d="M15.41,9.47c0,.07,0,.16,0,.17s-.13,0-.17-.09,0,.22,0,.23-.1,0-.23-.11,0,.2,0,.23-.14,0-.17-.06l-.11-.12a1.78,1.78,0,0,1-.23-.32l.08.08.19.21c0,.05,0,0,0,0s0-.1,0-.06.12.22.14.25.05-.15.05-.15l-.05-.07,0-.07h0v0l-.1-.14a.17.17,0,0,1,0-.08,2.42,2.42,0,0,0,.2.26s.19.17.19.15-.05-.09-.05-.09h0l0-.07A.66.66,0,0,1,15,9.43s0,0,0,0,.07.06.08.05h0l.07,0s0,0,0-.07-.11-.16-.11-.16A.48.48,0,0,0,15,9.16h0a.07.07,0,0,1,.05,0s.11.15.13.19.11.15.13.14,0-.08,0-.1h0s0,0,0,0l-.07-.14h0l0,0h0a0,0,0,0,1,0,0l.07,0h0l0,.06s0,0,0,0,0,0,0,0a.47.47,0,0,0,.06.09l.05,0Zm0-.44,0,0a.36.36,0,0,1,.06.11.53.53,0,0,1,0,.22s0,0-.12,0,0,0,0,0,.06,0,.07,0,0-.15,0-.23a.89.89,0,0,1,0-.11Z"/><path class="cls-34" d="M14.06,8.59a.64.64,0,0,0-.11.28.48.48,0,0,0,.05.2,1.33,1.33,0,0,1,.05.26.35.35,0,0,0,.17-.13s.14.18.19.17.08-.24.09-.29.14.21.2.19.1-.14.1-.18a.37.37,0,0,0,0-.08l.12.09a.07.07,0,0,0,.1,0,.82.82,0,0,0,0-.23s.08.07.12.06,0-.19,0-.19h.06s0-.09,0-.14l-.11-.11s0,0,0,.07a1.31,1.31,0,0,0,.06.27.39.39,0,0,1-.07-.15c0-.09,0-.16-.06-.17s0,.06,0,.11a.53.53,0,0,0,0,.16A.73.73,0,0,1,15,8.59c0-.07,0,0,0,0a.27.27,0,0,0,.05.16l-.06-.05s0,0,0,0a.45.45,0,0,0,.06.12.22.22,0,0,1-.07-.06A.77.77,0,0,0,15,9c0,.08,0,0,0,0a.3.3,0,0,1-.06-.12,1.57,1.57,0,0,1-.05-.25c0-.05,0-.14,0-.14a.17.17,0,0,0-.12.05.68.68,0,0,1-.18.13s-.06,0-.07,0a.45.45,0,0,1,0-.13s0,0-.1,0-.13.12-.16.12-.05-.06-.05-.08,0,0,0,0-.1,0-.12,0Z"/><path class="cls-39" d="M15,9.1l0,0a.82.82,0,0,0,0-.23s.08.07.12.06,0-.06,0-.11a1.57,1.57,0,0,0,0-.16l0-.16h0s0,0,0,0l0,0s0,.15.06.18,0,.17,0,.18-.1-.08-.1-.08a.44.44,0,0,0,0-.09c0-.05,0-.17,0-.17v0h0s0,.07,0,.11v0h0A1.17,1.17,0,0,1,15,9c0,.06,0,.06,0,.06v0Z"/><path class="cls-33" d="M14.06,8.59a.64.64,0,0,0-.11.28.48.48,0,0,0,.05.2,1.33,1.33,0,0,1,.05.26.35.35,0,0,0,.17-.13s.14.18.19.17.08-.24.09-.29.14.21.2.19.1-.14.1-.18a.37.37,0,0,0,0-.08l.12.09a.07.07,0,0,0,.09,0l0,0h0l0,0a.3.3,0,0,1-.06-.12.19.19,0,0,1,0-.07h0a.11.11,0,0,0-.1,0s0-.09,0-.09V8.55l0,0a.68.68,0,0,1-.18.13s-.06,0-.07,0a.45.45,0,0,1,0-.13s0,0-.1,0-.13.12-.16.12-.05-.06-.05-.08,0,0,0,0-.1,0-.12,0Z"/><path class="cls-32" d="M14.06,8.59a.64.64,0,0,0-.11.28.48.48,0,0,0,.05.2,1.33,1.33,0,0,1,.05.26.35.35,0,0,0,.17-.13s.14.18.19.17.08-.24.09-.29.14.21.2.19.1-.14.1-.18a.37.37,0,0,0,0-.08l0-.17a.42.42,0,0,1,0-.22.31.31,0,0,0,0-.09l0,0a.2.2,0,0,1,0,.07.58.58,0,0,0,0,.1.74.74,0,0,0,0,.15s0,.05,0,0,0,0-.05-.05,0,0,0,0a.14.14,0,0,0,0,.11l.07.08s0,0,0,0-.06,0-.06,0,0,.05,0,0a.39.39,0,0,1,0-.11c0-.05,0-.06,0,0s0,.11-.05.07a.3.3,0,0,1,0-.1.28.28,0,0,0,.06-.09.25.25,0,0,0,0-.08l0,0s-.06,0-.07,0h0s-.07,0-.07,0,0,.1,0,.15,0,0,0,.06,0,0,0,0a.16.16,0,0,0-.06.09s0,.08,0,.07l0-.08s0,0,0,0a.2.2,0,0,0,0,.09s0,0,0-.06a.24.24,0,0,1,0-.1l0-.05V8.85s0,0,0,0l-.06.08a.3.3,0,0,1,0-.11l.07-.08s0-.07,0-.08h0a.15.15,0,0,1-.08.05l0,0-.06,0a.25.25,0,0,0,0,.12V9s0,.07,0,.1a.41.41,0,0,1,0,.08s0,0,0,0a1,1,0,0,1,0-.18s0-.05,0,0,0,0,0,0,0-.09,0-.14,0,0,0,0,0,0,0,.06,0,0,0,0a.4.4,0,0,1,.08-.12.19.19,0,0,0,.05-.1.06.06,0,0,1-.07,0Z"/><path class="cls-35" d="M14.22,9.2s.14.18.19.17.08-.24.09-.29.14.21.2.19h0a.35.35,0,0,0,0-.12.3.3,0,0,1,0-.11h0a.39.39,0,0,1,0-.11c0-.05,0-.06,0,0s0,.11-.05.07a.3.3,0,0,1,0-.1.28.28,0,0,0,.06-.09.25.25,0,0,0,0-.08l0,0s-.06,0-.07,0h0a2.54,2.54,0,0,0,0,.26c0,.08,0,.12,0,.18a.91.91,0,0,1-.06.16s0,0,0,0a.44.44,0,0,1-.05-.2.08.08,0,0,1,0-.05s0,0,0,0a.2.2,0,0,0,0,.09s0,0,0-.06a.24.24,0,0,1,0-.1l0-.05V8.85s0,0,0,0l-.06.08a.3.3,0,0,1,0-.11l.07-.08s0-.07,0-.08h0a.15.15,0,0,1-.08.05l0,0-.06,0a.25.25,0,0,0,0,.12V9a.31.31,0,0,1,0,.08l.07.14Zm.52-.29h0s0,0-.05-.05,0,0,0,0v0a.07.07,0,0,0,0,0Zm0,.13,0,0s-.06,0-.06,0h0s.06,0,.08,0Zm-.62.15h0a1,1,0,0,1,0-.18s0-.05,0,0,0,0,0,0,0-.09,0-.14,0,0,0,0,0,0,0,0A.57.57,0,0,0,14,9a.75.75,0,0,0,.06.22s0,.11,0,0ZM14,8.78l.05-.07a.19.19,0,0,0,.05-.1h-.05s0,.07,0,.11,0,0,0,.06Z"/><path class="cls-35" d="M14,7.35Zm0,0Zm0,0Zm0,0Zm0,0a.53.53,0,0,0,.06-.3s0,0,.07.21a.35.35,0,0,0,.1-.19c.14.4-.33.65-.5.54a.62.62,0,0,1,.09-.12c.06,0,.18-.09.18-.14Z"/><path class="cls-30" d="M14,7.54s0,0-.09.09l.12,0s0,0,0,0Z"/><path class="cls-40" d="M14.13,7.26a.17.17,0,0,1-.07.18,1.89,1.89,0,0,1-.22.14.43.43,0,0,0,.22-.53s0,0,.07.21Z"/><path class="cls-30" d="M14.05,7.37a.39.39,0,0,0,0-.32s0,0,0,.07h0a.38.38,0,0,1-.06.25Z"/><path class="cls-30" d="M14.13,7.39a.24.24,0,0,0,.11-.14.12.12,0,0,1-.11.14Z"/><path class="cls-30" d="M14,7.71l.27-.08s0,.09-.23.14l.13-.08-.17,0Z"/><path class="cls-41" d="M14.23,8h0s0-.11-.07-.09a.11.11,0,0,0-.05,0,.17.17,0,0,1,.12,0,.13.13,0,0,1,0,.1.11.11,0,0,0,0-.12h.05a.22.22,0,0,1-.1.12Z"/><path class="cls-32" d="M14.1,7.82c.07-.11.14,0,.16,0s0,0,0,0,0,0,0,0a0,0,0,0,1-.05,0s0-.08-.15,0Z"/><path class="cls-30" d="M14.1,7.82a0,0,0,0,1,0,0l0,0s0,0,.05,0a.08.08,0,0,0-.11,0Z"/><path class="cls-34" d="M14.31,7.25s0,0,.07,0h0a.06.06,0,0,1-.07,0v0Zm-.17.32.06-.05.12,0h.09s0,0,0,0-.05,0,0,0a.41.41,0,0,1,.18.1l-.18-.08s-.05,0-.05,0l0,0s0,0,0,.05h0s0,0-.06,0l-.06,0a.29.29,0,0,0,0-.08s0,0,0,0h-.13Zm.11-.12a.08.08,0,0,0,0,0h0a.64.64,0,0,0,.17,0h0s0,0,0,0a.54.54,0,0,1,.14.08,1,1,0,0,0-.21-.08l-.2,0Zm.05-.12v0a.12.12,0,0,1,.08,0s0,0,.06,0h0s0,0,0,0,0,0-.08,0a.13.13,0,0,0-.09,0Z"/><path class="cls-31" d="M14.8,7.39a.49.49,0,0,1,.21.27.56.56,0,0,0,.13.18c0,.12-.15.06-.15.06s0,.09-.05.1-.14-.1-.14-.1,0,.24-.09.26S14.59,8,14.59,8s-.05.19-.12.2-.09-.17-.09-.17a.2.2,0,0,1-.2.18s0,0,0,0a.61.61,0,0,0,.1-.19h0a.17.17,0,0,0,.08-.07s0,0,0,0a.93.93,0,0,1-.1.15A.61.61,0,0,0,14.38,8s0-.08.07-.09.05.15.05.15a.6.6,0,0,0,0-.25s.06,0,.08,0-.06-.15-.06-.15a.32.32,0,0,0,.15,0,.19.19,0,0,0-.05-.12c.12,0,.14-.08.14-.08Z"/><path class="cls-33" d="M15.14,7.84v0l0,0a.15.15,0,0,1-.13,0V7.85a.25.25,0,0,1,0-.09c0-.07,0-.06,0,0V7.9c0,.06-.07,0-.1,0a.1.1,0,0,1,0-.1.22.22,0,0,0,0-.1l0-.09a.06.06,0,0,0,0,0,.47.47,0,0,1,.14.2.84.84,0,0,0-.1-.23c-.06-.09,0,0,.07,0l.09.15a.66.66,0,0,0-.09-.2c-.06-.07.05,0,.09.07a2.14,2.14,0,0,0,.13.22.11.11,0,0,0,.09,0Z"/><path class="cls-34" d="M15.14,7.84v0l0,0a.15.15,0,0,1-.13,0V7.85a.25.25,0,0,1,0-.09s0,0,0,0h0a.37.37,0,0,0-.1-.16h0l0,0c-.06-.07.05,0,.09.07a2.14,2.14,0,0,0,.13.22.11.11,0,0,0,.09,0Z"/><path class="cls-42" d="M15.14,7.84c0,.12-.15.06-.15.06V7.85c.1.06.15,0,.15,0Z"/><path class="cls-43" d="M15,7.9s0,.09-.05.1-.14-.1-.14-.1a.17.17,0,0,0,0-.05h0s0,.1,0,.17,0,.07,0,0a1.52,1.52,0,0,0,0-.21s0,0,0,0a.11.11,0,0,0,0,.07.07.07,0,0,0,0,0s0,0,0-.07,0-.09,0-.11,0,0,0,0h0a.31.31,0,0,0-.06-.13.32.32,0,0,0,.15,0v0h0s0,0,0,.07l0,.09a.22.22,0,0,1,0,.1.1.1,0,0,0,0,.1s.09,0,.1,0V7.72s0,0,0,0a.25.25,0,0,0,0,.09V7.9Zm-.85.3h0a.61.61,0,0,0,.1-.19h0a.44.44,0,0,1-.1.21Zm.3-.33h0s.05.15.05.15a.6.6,0,0,0,0-.25h0a.31.31,0,0,1,0,.11.55.55,0,0,1-.06.22c0,.06,0,.07,0,0s0-.12,0-.14,0,0,0,0,0,0,0,0a.17.17,0,0,0,0-.12Z"/><path class="cls-33" d="M14.56,7.61h.13a.17.17,0,0,1,0,.16.19.19,0,0,0-.11-.15Z"/><path class="cls-44" d="M14.8,7.39a.49.49,0,0,1,.21.27.56.56,0,0,0,.13.18h0a.11.11,0,0,1-.09,0,2.14,2.14,0,0,1-.13-.22s-.15-.14-.09-.07a.66.66,0,0,1,.09.2l-.09-.15s-.13-.11-.07,0a.84.84,0,0,1,.1.23.47.47,0,0,0-.14-.2s0,0,0,0h0a.26.26,0,0,0-.05-.08c.12,0,.14-.08.14-.08Z"/><path class="cls-33" d="M14.06,8.53H14a1.91,1.91,0,0,1,.18-.29.2.2,0,0,0,.2-.18s0,.17.09.17.12-.11.12-.2.05.16.12.14h0c.09,0,.13-.11.13-.11a.83.83,0,0,1,0,.3,1.47,1.47,0,0,0,.07-.17.6.6,0,0,0,0-.18H15c.06,0,.07.13.07.17s.08.13.09.16,0,.16,0,.16-.1-.1-.11-.13,0,0,0,0-.09.2-.14.2-.11-.13-.11-.13-.17.21-.22.2-.05-.16-.05-.16-.15.14-.21.13,0-.13,0-.13a.11.11,0,0,1-.12,0Z"/><path class="cls-31" d="M14.06,8.53h0a.48.48,0,0,1,.08-.19c0-.07.07-.1.09-.1s-.06.26-.07.28a.1.1,0,0,1-.09,0Z"/><path class="cls-34" d="M14.5,8.21Zm0,0A.22.22,0,0,0,14.59,8s0,.15.12.14h0a.21.21,0,0,1-.11.13.28.28,0,0,1-.09.05c.14-.12.09-.21.09-.21a.1.1,0,0,1-.09.07Zm.32.15a1.47,1.47,0,0,0,.07-.17.6.6,0,0,0,0-.18.49.49,0,0,1-.08.54.47.47,0,0,0,0-.16.14.14,0,0,1-.08.08.74.74,0,0,0,.06-.11ZM15,8h0c.06,0,.07.13.07.17s.08.13.09.16a.2.2,0,0,1,0,.11c-.08,0-.1-.18-.12-.29A.38.38,0,0,0,15,8Z"/><path class="cls-31" d="M14.49,8.21h0a.1.1,0,0,0,.09-.07s.05.09-.09.21a.28.28,0,0,0,.09-.05.78.78,0,0,1-.1.33.48.48,0,0,0,.21-.46h0a1.07,1.07,0,0,1,0,.29c-.09.14-.17.21-.22.2s-.05-.16-.05-.16-.15.14-.21.13,0-.13,0-.13.05-.17.08-.24.12-.13.13-.11,0,0,0,.08,0,.06,0,.08l0,0s.06-.06.07,0,0,.16,0,.16a.38.38,0,0,0,.05-.08s0-.05,0-.05,0,0,0,.07a.2.2,0,0,0,0,.08,1.9,1.9,0,0,0,.05-.27Z"/><path class="cls-32" d="M15,8.28a.86.86,0,0,0,0-.21A.2.2,0,0,1,15,8a.49.49,0,0,1,0,.29Z"/><path class="cls-45" d="M13.61,7.74a.13.13,0,0,0,.15-.21l-.09.07-.06.14Z"/><path class="cls-46" d="M13.62,7.73c.14.07.25-.09.13-.18l-.08.06-.05.12Z"/><path class="cls-30" d="M13.71,7.61a0,0,0,0,1,0,0,0,0,0,0,1,0,0,0,0,0,0,1,0,0,0,0,0,0,1,0,0Z"/><path class="cls-47" d="M13.71,7.65l0,0a0,0,0,0,1,0,0s0,0,0,0,0,0,0,0Z"/><path class="cls-32" d="M13.5,7.76a.05.05,0,0,1,0-.08.62.62,0,0,0,.26-.41s.06,0,0,.19c0,0,.1,0,.09-.31,0,0,.09.06,0,.23a.15.15,0,0,0,.06,0h0c0,.05-.12.09-.18.14a2.47,2.47,0,0,0-.21.29.27.27,0,0,1-.11,0Z"/><path class="cls-48" d="M13.77,7.27s.06,0,0,.19a.11.11,0,0,1,0,0h0a.24.24,0,0,0,0-.19.28.28,0,0,0,0-.05Zm0,.05Z"/><path class="cls-49" d="M13.5,7.76a.05.05,0,0,1,0-.08.66.66,0,0,0,.26-.4h0a.32.32,0,0,1-.09.25,1.17,1.17,0,0,1-.16.16.1.1,0,0,0,0,.08Z"/><path class="cls-31" d="M13.63,7.74s0,0,0,0h0a.17.17,0,0,1,0-.07s.11-.12.15-.18a.4.4,0,0,0,.07-.21.26.26,0,0,1,0,.21l-.13.21Z"/><path class="cls-50" d="M13.53,7.77a.28.28,0,0,1,.15,0,.2.2,0,0,0,.17,0,.23.23,0,0,1,.2,0s.06,0,.07.06,0,0,0,0,0,0,0,0l-.17.09a.73.73,0,0,1-.17.07s0-.14-.08-.14a.24.24,0,0,0-.17,0,.22.22,0,0,0-.06.14.24.24,0,0,0,.07.12s0,0,0,0a.23.23,0,0,1-.14,0,.27.27,0,0,1-.09-.12.12.12,0,0,1,0-.1A.41.41,0,0,1,13.33,8l.07-.07s0,0,.08,0,0,0,0,0,0,0-.05,0,0-.08.08-.08Z"/><path class="cls-51" d="M13.53,7.77a.28.28,0,0,1,.15,0l0,0-.16.09c-.06,0-.21.15-.11.31,0,0-.14,0-.13-.15a.28.28,0,0,1,.14-.2h0s0,0,0,0,0,0-.05,0,0-.08.08-.08Z"/><path class="cls-52" d="M13.53,7.77a.28.28,0,0,1,.15,0,.2.2,0,0,0,.17,0,.23.23,0,0,1,.2,0s.06,0,.07.06,0,0,0,0h0A.14.14,0,0,0,14,7.86a.33.33,0,0,0-.18,0,.36.36,0,0,1-.17,0c-.05,0-.08,0-.12,0a0,0,0,0,0-.05,0v0s0,0,0,0,0-.08.08-.08Z"/><path class="cls-53" d="M13.74,8.07s0-.07,0-.08l.09,0s.14,0,.16,0S14,8,13.89,8l-.15.05Z"/><path class="cls-54" d="M13.73,8V8l.1,0,.09,0,0,0-.14,0Z"/><path class="cls-23" d="M13.71,8s.2.16.2.31a.46.46,0,0,1-.16.31c-.05.06-.32.27-.38.34a.31.31,0,0,0-.08.32c.06.13.14.16.29.14s.38-.05.44.16A1.12,1.12,0,0,1,14,10l-.07.06L13.7,9.9l0-.1s.09,0,.07-.1-.16,0-.22,0a.83.83,0,0,1-.34,0A.48.48,0,0,1,13,9.4,1.22,1.22,0,0,1,13,9a.58.58,0,0,1,.17-.27c.08-.08.17-.12.27-.21a.59.59,0,0,0,.16-.17c0-.06,0-.09,0-.09s0,0-.07,0l0-.06V8.1l0-.07.05,0h.14Z"/><path class="cls-24" d="M14,9.88A.49.49,0,0,1,14,10l-.07.06-.1-.08A.84.84,0,0,0,14,9.88Z"/><path class="cls-24" d="M13,9.4h0A1.22,1.22,0,0,1,13,9a.58.58,0,0,1,.17-.27c.08-.08.17-.12.27-.21a.37.37,0,0,0,.11-.1v.14l-.12,0v.17l-.13,0a.63.63,0,0,0,0,.14l-.13-.05s0,.21,0,.23S13.08,9,13,9,13,9,13,9a.36.36,0,0,0,.1.15.81.81,0,0,1-.12.08.22.22,0,0,0,.09.09A.37.37,0,0,1,13,9.4Z"/><path class="cls-24" d="M13.77,8.59l0,0c-.05.06-.32.27-.38.34a.31.31,0,0,0-.08.32.56.56,0,0,0,.05.08.22.22,0,0,1-.11,0l-.1,0,.09-.12-.08-.05s.09-.06.1-.1l0-.07.14,0,0-.14.14,0V8.72h.16l0-.15Z"/><path class="cls-24" d="M13.8,8.07a.41.41,0,0,1,.11.23.49.49,0,0,1-.13.29l-.1-.07,0-.07h-.09l0-.07a.06.06,0,0,0,0-.07l0-.08v0h0l0,0,.14-.08Z"/><path class="cls-25" d="M13.72,9.83v0h0s.09-.06.1-.1v0s0,0,0,0l-.06.08.05,0,0,0a.22.22,0,0,0-.1-.06Z"/><path class="cls-25" d="M13.62,8.36l0,.07a.38.38,0,0,0,.08-.07h-.12Zm.14.24h-.19a.26.26,0,0,0,0,.14l0,0h-.15s0,.08,0,.12h0l-.14,0s0,.09,0,.13h0l-.13,0a.17.17,0,0,0,0,.06l0,.06-.07.05.05,0a.17.17,0,0,0,0,.07.17.17,0,0,1-.06.06h.06v0l-.09,0L13,9.41h0l.07-.05L13,9.27v0a.69.69,0,0,0,.13-.06s0,0-.08-.1A.26.26,0,0,1,13,9l0,0a.13.13,0,0,0,.14.06,1.23,1.23,0,0,1,0-.22l0,0h0a.22.22,0,0,0,.12.07s0-.1,0-.15h0a.23.23,0,0,0,.11.06s0-.1,0-.15l0,0h0l.08,0V8.44h.08l0-.06a.08.08,0,0,0,0,0h.14s0,0,0,0v0l-.09.06a.22.22,0,0,0,.1.12h0v0Zm-.55.81v0l0,0h.05v0a.15.15,0,0,0,0,.08h.07l0,0h-.12a.53.53,0,0,1,0-.12h-.05l0,.07h0l0-.06-.09,0v0l.11,0,.05-.06Zm0-.63a1.35,1.35,0,0,0,0,.2.41.41,0,0,0,.12,0,.53.53,0,0,1,0-.11.28.28,0,0,1-.12-.06ZM13,9.25l.08.08a.38.38,0,0,0,.08-.11l0,0a.38.38,0,0,1-.11.07ZM13,9a.27.27,0,0,0,.1.17.44.44,0,0,0,.09-.08s0,0,0-.06A.19.19,0,0,1,13,9Zm.27-.29v.12l.12,0s0-.07,0-.1l-.11,0Zm.14-.12a.54.54,0,0,0,0,.14h.12s0-.1,0-.13l-.09,0Zm.12-.11v.1h.15a.27.27,0,0,1-.08-.11Z"/><path class="cls-25" d="M13.61,8.32v0a.54.54,0,0,1,0-.1.43.43,0,0,1-.15,0v0h0a.29.29,0,0,0,.16,0l0,0a.83.83,0,0,0,0,.12Z"/><path class="cls-55" d="M13.34,9a.27.27,0,0,0-.05.28c.06.13.14.16.29.14s.38-.05.44.16a.82.82,0,0,1,0,.31.35.35,0,0,1-.16.14L13.78,10l0-.05a.2.2,0,0,0,0-.19.07.07,0,0,0-.07,0,.34.34,0,0,0-.2,0h-.21a.33.33,0,0,1-.13-.2.5.5,0,0,1,0-.42A.21.21,0,0,1,13.34,9Z"/><path class="cls-56" d="M13.4,9.39a.25.25,0,0,0,.18,0c.15,0,.38-.05.44.16a.75.75,0,0,1,0,.21h-.19a.17.17,0,0,0,0-.07.07.07,0,0,0-.07,0,.25.25,0,0,0-.13,0l-.13-.14-.11-.13Z"/><path class="cls-24" d="M13.29,9.09v0l0,0,0,0v0h0l.07-.05Zm0,.11h0l0,0h0l0,0Zm0,.06h0l0,0-.05,0h0l.05,0,0,0Zm0,0h0l-.05,0,0,0h0l.06,0,0,0Zm0,0h0l-.05.05,0,0h0l0-.05a.16.16,0,0,0,.06,0Zm0,0h0a.35.35,0,0,1-.06.09l-.07,0h0l.06,0a.24.24,0,0,0,.06-.08Zm.06,0h0a.25.25,0,0,1-.14.18h0a.21.21,0,0,0,.14-.17Zm.05,0h0a.34.34,0,0,1,0,.14.25.25,0,0,1-.09.09h0a.26.26,0,0,0,.09-.09.34.34,0,0,0,0-.14Zm.07,0h0a.38.38,0,0,1,0,.1.34.34,0,0,1,0,.12s0,0,0,0h0v0a.42.42,0,0,0,0-.12.38.38,0,0,0,0-.1Zm.06,0h0a.13.13,0,0,1,0,.06s0,.07,0,.09v0h0s0,.06,0,.09h0s0-.06,0-.09h0v0s0-.06,0-.09a.07.07,0,0,0,0-.05Zm.08,0h0v.11l0,.13v0h0v0l0-.13V9.4Zm.08,0h0v.12a.84.84,0,0,1,0,.12l0,0h0l0,0a.76.76,0,0,0,0-.11V9.39Zm.1,0h0a.34.34,0,0,1,0,.1.23.23,0,0,1,0,.09.59.59,0,0,1,0,.08h0l.05-.07a.92.92,0,0,0,0-.09.38.38,0,0,0,0-.1Zm.1,0h0v0l0,.07-.13.13h0l.13-.14,0-.06v0ZM14,9.6h0a.43.43,0,0,0-.19.11h0A.48.48,0,0,1,14,9.6Zm0,.12h-.1l-.08,0h0l.09,0Zm0,.14h0l-.09,0-.1,0h0l.11,0,.08,0ZM14,10h0l0-.05-.06-.05h0a.1.1,0,0,1,.06.05L14,10Z"/><path class="cls-56" d="M13.71,8s.2.16.2.31a.48.48,0,0,1-.15.31.82.82,0,0,0,0-.21.19.19,0,0,0,0-.11,1.53,1.53,0,0,0-.22-.23l0,0,.05,0h.14Z"/><path class="cls-55" d="M13.88,8.42a.57.57,0,0,1-.12.19.82.82,0,0,0,0-.21.11.11,0,0,0,0-.06.29.29,0,0,1,.13.08Z"/><path class="cls-24" d="M13.73,8h0l-.16.11h0L13.73,8Zm0,0h0l-.17.11h0l.17-.11Zm.06.08h0l-.16.11h0l.16-.11Zm0,.07v0l-.15.1h0l.15-.11Zm0,.09h0l-.14.1h0v0l.14-.09Zm0,.07v0l-.13.09v0l.13-.09Zm-.05.13h0Z"/><path class="cls-26" d="M13.71,8s.2.16.2.31a.46.46,0,0,1-.16.31c-.05.06-.32.27-.38.34a.31.31,0,0,0-.08.32c.06.13.14.16.29.14s.38-.05.44.16A1.12,1.12,0,0,1,14,10l-.07.06L13.7,9.9l0-.1s.09,0,.07-.1-.16,0-.22,0a.83.83,0,0,1-.34,0A.48.48,0,0,1,13,9.4,1.22,1.22,0,0,1,13,9a.58.58,0,0,1,.17-.27c.08-.08.17-.12.27-.21a.59.59,0,0,0,.16-.17c0-.06,0-.09,0-.09s0,0-.07,0l0-.06V8.1l0-.07.05,0h.14Z"/><path class="cls-33" d="M13.7,8a.48.48,0,0,0-.13,0,.15.15,0,0,0-.08.18l.08.1s0,0,0,0-.07-.06-.09-.11S13.58,8,13.7,8s0,0,0,0Z"/><path class="cls-20" d="M14.27,10.08,14.16,10s.08-.07,0-.11a.39.39,0,0,0-.11-.16,1,1,0,0,1,0,.15.14.14,0,0,1,0,.07L14,10a.12.12,0,0,1-.08,0l-.1,0a.11.11,0,0,0,0-.09.09.09,0,0,0-.09,0s0,0,0-.07a.11.11,0,0,1,0-.06.19.19,0,0,0-.1,0,.15.15,0,0,0-.11,0,.23.23,0,0,0-.08.11.11.11,0,0,0-.1.1s0,0,0,0,0,.07,0,.08a.07.07,0,0,0,0,.07.18.18,0,0,0,0,.06s0,0,0,0,0,0,0,0,.11,0,.11-.06a.12.12,0,0,0,.11-.06.48.48,0,0,0,.08.11l.09.06h0l.11-.11a.08.08,0,0,0,.07,0s0,0,0,0l.21,0,.12,0-.13-.15Z"/><path class="cls-21" d="M14.06,10l0,0,.05,0h0l-.06,0s0,0,0,0Z"/><path class="cls-21" d="M14,10.15v0l0,0,0,0,0,0a.23.23,0,0,0,.05-.05h0l-.06.06,0,0,0,0,0,0v0Z"/><path class="cls-21" d="M14.07,10.2s.08,0,.08,0,0,0,0,0l0,0h0l0,0s0,0,0,0-.09,0-.09,0Z"/><path class="cls-21" d="M14.16,10.14a.07.07,0,0,0,.06,0h0a.07.07,0,0,1-.06,0Z"/><path class="cls-21" d="M14.05,10h0s0,0,.06.08h0c0-.07,0-.07-.06-.07h0Z"/><path class="cls-21" d="M13.91,10.09h0l0,0s0,0,0,0h0a0,0,0,0,1,0,0l0,0h0Z"/><path class="cls-21" d="M14,10.11l0,0,0,0h0l0,0,0,0Z"/><path class="cls-21" d="M13.89,10.25l0-.06s0,0,0-.06v0l0,0L13.84,10h0a.31.31,0,0,1,.06.06l0,0v0a.2.2,0,0,1,0,.07.08.08,0,0,1,0,.05Z"/><path class="cls-21" d="M13.84,10l-.05.05,0,0,0,0h0l0,0,0,0,0,0a.06.06,0,0,1,0,0s0-.05,0-.05h0s0,0,0,.05v0l0,0s0,0,0,0h.08l0,0,0,0Z"/><path class="cls-21" d="M13.58,10.16l0,0,0,0v0l0,0h0l0,0h0l0,0,0,0,0,0s0,0,0,0,0,0,0,0l0,0Z"/><path class="cls-21" d="M13.47,10.22l0,0a.11.11,0,0,1,0,0,.05.05,0,0,1,0,0l.06,0h0l-.06,0s0,0,0,0,0,0,0,0,0,0,0,0Z"/><path class="cls-21" d="M13.54,10.08h0s0,0,0-.05h0s0,0,0-.08a.1.1,0,0,1,.05,0l.07,0h0l-.07,0-.05,0s0,.05,0,.08h0a.08.08,0,0,0,0,0h0Z"/><path class="cls-21" d="M13.38,10.16h0a.06.06,0,0,1,0,0h0l0,0h0Z"/><path class="cls-21" d="M13.49,10a.08.08,0,0,1,0-.06.07.07,0,0,1,0-.05h0v.05a.12.12,0,0,0,0,.05Z"/><path class="cls-21" d="M13.43,10.14l0-.05a.06.06,0,0,1,0,0l0,0,.06,0h0l-.06,0s0,0,0,0v0l0,0Z"/><path class="cls-21" d="M13.38,10a.06.06,0,0,0,0,0s0,0,0,0h0s0,0,0,0v0Z"/><path class="cls-21" d="M13.34,10.08h0l0,0Z"/><path class="cls-30" d="M13.75,9.87s0,0,0-.07a.11.11,0,0,1,0-.06.19.19,0,0,0-.1,0c-.09.06-.05.21-.05.21a.21.21,0,0,0,.13-.09Z"/><path class="cls-22" d="M13.45,10.25s.08.09.17,0a.25.25,0,0,0,.09,0,.14.14,0,0,0,.07,0h0a.48.48,0,0,1-.08-.11.12.12,0,0,1-.11.06s-.08.05-.11.06,0,0,0,0Z"/><path class="cls-57" d="M13.48,10.21s0,0,.06,0h0l-.07,0Z"/><path class="cls-57" d="M13.6,10.16l0,0,.08,0h0a.15.15,0,0,1-.08,0,.05.05,0,0,1,0,0Z"/><path class="cls-33" d="M14.86,10.23s0,.27-.06.27-.1-.12-.1-.12-.3.13-.39.08,0,0,0-.08a1.22,1.22,0,0,1-.33-.12s0-.07.18,0a0,0,0,0,1,0,0,.18.18,0,0,0,.16,0s-.12-.06-.13-.09a.18.18,0,0,1,.19-.13s-.11-.05-.13-.09-.07-.11,0-.11a.13.13,0,0,1,.09,0l.08.06s-.26-.24-.2-.46a2.35,2.35,0,0,0,.46.53,1.62,1.62,0,0,0,.22.29Z"/><path class="cls-48" d="M14.31,9.6l0,.06h0a.32.32,0,0,0,0,.1.46.46,0,0,0,0,.09.5.5,0,0,1-.08-.25Z"/><path class="cls-30" d="M14.86,10.23s0,.27-.06.27-.1-.12-.1-.12l0-.05h0a.43.43,0,0,1-.15.1.53.53,0,0,1-.21,0c.09,0,.39-.08.39-.08s.06.11.1.1,0-.2,0-.27l0,0Zm-.54.15a1.22,1.22,0,0,1-.33-.12l.18.07.12,0a0,0,0,0,1,0,0Z"/><path class="cls-35" d="M14,10.26s0-.07.18,0a.51.51,0,0,0,.14.09,1,1,0,0,1-.32,0Zm.16-.09a.18.18,0,0,0,.16,0h0a.27.27,0,0,0,.08,0,.28.28,0,0,1-.26-.07Zm0,0v0Zm.12-.18.09,0,.06,0h0a1,1,0,0,1,.08.15c-.06,0-.06,0-.14-.05h-.13s0-.08.1-.12l-.06,0Zm.14,0a.15.15,0,0,0-.05-.06s-.09,0-.12-.07,0,0,0,0a.16.16,0,0,1,.1,0l.06,0h0a.24.24,0,0,0,0,.08v0Zm0-.28.12.12h0v0a.19.19,0,0,0,0,.14c0-.08.06,0,.06,0a.45.45,0,0,0,0,.11.56.56,0,0,0,0,.07s0,0,0,0h0l-.11-.26a1,1,0,0,1,0-.22Z"/><path class="cls-58" d="M14.6,9.91l0,0,.09.14a.67.67,0,0,0,0,.3s0,0-.07-.19a.45.45,0,0,1-.13.05s.09,0,.09,0-.08.05-.08.05.06,0,0,0a1.29,1.29,0,0,0-.22.1s0,0,0-.07v0s.06,0,.06-.06,0,0-.12,0a.17.17,0,0,1-.11-.08.28.28,0,0,0,.26.07.27.27,0,0,1-.08,0h0s-.12-.06-.13-.09a.19.19,0,0,1,.16-.13c-.12,0-.1.12-.1.12h.13c.08,0,.08,0,.14.05a1,1,0,0,0-.08-.15l0-.06a.24.24,0,0,1,0-.08s0-.06,0-.12a.32.32,0,0,1,0-.1h0l0,0a1,1,0,0,0,0,.22l.11.26a.17.17,0,0,0,.09,0h0a1.69,1.69,0,0,1,0-.25Zm-.12.08a.19.19,0,0,1,0-.14s0,.06,0,.08,0,0,0,0,0-.05-.06,0Z"/><path class="cls-59" d="M12.38,8.86s0,0,0-.07a.41.41,0,0,0,0-.09s0-.06-.05-.07-.06.06-.06.06-.08,0-.08.05a.06.06,0,0,0,0,.07s0,.16.11,0Z"/><path class="cls-59" d="M12.48,8.88a.08.08,0,0,0,0-.07.41.41,0,0,0,0-.09s0-.06,0-.07-.06.07-.06.07-.07,0-.08,0a.08.08,0,0,0,.05.07s0,.16.1.05Z"/><path class="cls-59" d="M12.58,8.91a.1.1,0,0,1,0-.08c0-.05.08-.07.08-.07s0-.07-.06-.07-.06.06-.06.06-.07,0-.07.05a0,0,0,0,0,0,.06s0,.09,0,.1.08,0,.07-.05Z"/><path class="cls-60" d="M12.79,11.36c0,.06.05.16.12.21a.16.16,0,0,0,.21,0,.11.11,0,0,0,0-.14c-.09-.07-.24-.1-.28,0Z"/><path class="cls-25" d="M12.91,11.39a.15.15,0,0,1,.14.07s0,.06,0,.07-.08,0-.06,0,0,0,0,0l-.08,0s-.05,0,0,0Z"/><path class="cls-60" d="M13.66,12.25c-.1,0-.16.09-.14.14a.18.18,0,0,0,.19.07c.09,0,.14-.08.13-.13s-.08-.09-.18-.08Z"/><path class="cls-25" d="M13.62,12.32s-.06,0,0,.08.07,0,.09,0,.05,0,.06,0a0,0,0,0,0,0,0,0,0,0,0,0,0-.07s-.07,0-.15,0Z"/><path class="cls-60" d="M16.31,11.81c-.07,0-.09.11-.07.16s.11,0,.16,0l.11-.1s0-.17-.2-.08Z"/><path class="cls-25" d="M16.26,11.92a.12.12,0,0,1,.1-.08c.06,0,.06.06.11,0s0,.06-.06.05-.08-.07-.15,0Z"/><path class="cls-61" d="M16.12,12.14a.11.11,0,0,1,.1.1.1.1,0,0,1-.1.1.09.09,0,0,1-.1-.1A.1.1,0,0,1,16.12,12.14Z"/><path class="cls-61" d="M13.78,11.41a.1.1,0,0,1,.1.1.1.1,0,0,1-.2,0A.1.1,0,0,1,13.78,11.41Z"/><path class="cls-61" d="M13.23,11.87a.1.1,0,0,1,.1.1.11.11,0,0,1-.1.1.1.1,0,0,1-.1-.1A.09.09,0,0,1,13.23,11.87Z"/><path class="cls-62" d="M15,12.81a.47.47,0,0,1,.24,0c.11,0,.11.07.25,0a.47.47,0,0,0,.27-.19.48.48,0,0,1,.55-.08.28.28,0,0,1-.1.09.41.41,0,0,1,.3,0,.66.66,0,0,1-.22.18.54.54,0,0,1,.25.08.61.61,0,0,0-.23.06c-.14.07-.41.21-.53.15a2,2,0,0,1-.31-.22.35.35,0,0,0-.24-.08l-.22,0v0Z"/><path class="cls-63" d="M16.48,12.92l.07,0a.54.54,0,0,0-.26,0c-.12,0-.28.12-.37.14a.45.45,0,0,1-.26,0l-.1-.05a.3.3,0,0,1-.08-.07.35.35,0,0,0-.24-.08l-.22,0h.25a.61.61,0,0,1,.19.06s.11.09.16.11.11.06.27,0,.27-.11.41-.13a.5.5,0,0,1,.18,0Z"/><path class="cls-63" d="M15.45,12.84h.05a.47.47,0,0,0,.27-.19.48.48,0,0,1,.55-.08c-.35-.09-.42.21-.68.28Z"/><path class="cls-62" d="M15,12.87a1.19,1.19,0,0,1,.32.12c.12.08.11.1.12.12s0,.05-.05,0-.06,0-.09-.06a.49.49,0,0,0-.16-.1L15,12.94v-.07Z"/><path class="cls-63" d="M15.46,13.11s0,.05-.05,0-.06,0-.09-.06a.49.49,0,0,0-.16-.1L15,12.94h0l.11,0,.11,0,.09.07h.05a.06.06,0,0,1,.07,0Z"/><path class="cls-62" d="M17.19,11.7c0,.08,0,.12-.13.21a1.07,1.07,0,0,0-.24.23c0,.06,0,.15,0,.2s0,.08-.11.15a.72.72,0,0,0-.15.13.15.15,0,0,0,0,.08h0a.61.61,0,0,1,.16-.14c.09-.07.25-.05.33-.06a.76.76,0,0,0,.4-.1.37.37,0,0,0,.14-.29.12.12,0,0,1,0-.08.27.27,0,0,0-.12,0s0-.16.05-.23-.05,0-.16,0l-.17.1s.07-.19,0-.27Z"/><path class="cls-63" d="M17.56,12.07s0,0,0,0h0a.23.23,0,0,0-.19.14.86.86,0,0,1-.21.17.72.72,0,0,1-.31.11.53.53,0,0,0-.19.06l-.14.12,0,.06h0a.4.4,0,0,1,.15-.14.28.28,0,0,1,.16-.05h0a.81.81,0,0,0,.44-.18,1.69,1.69,0,0,0,.27-.26Z"/><path class="cls-63" d="M17.19,11.7c0,.08,0,.12-.13.21a1.07,1.07,0,0,0-.24.23c0,.06,0,.15,0,.2a.21.21,0,0,1-.08.13h0c.15-.07.1-.16.15-.24s.19-.17.28-.28a.33.33,0,0,0,.06-.25Z"/><path class="cls-62" d="M18,10.78a.78.78,0,0,0-.32.25.36.36,0,0,0,0,.3,2.19,2.19,0,0,1,0,.27v.09l-.08.1-.06,0v0s.06,0,.07,0l.14-.17a.17.17,0,0,1,.12-.05.47.47,0,0,0,.29-.2c.06-.12.11-.27.14-.33l.11-.14a.32.32,0,0,0-.23.12,1.36,1.36,0,0,0,0-.31s-.08,0-.19.16a.27.27,0,0,1,0-.12Z"/><path class="cls-63" d="M17.51,11.87s.06,0,.07,0l.14-.17.06,0h0a1.17,1.17,0,0,0,.17-.14,1.39,1.39,0,0,0,.17-.29c.11-.23.26-.25.26-.25a.32.32,0,0,0-.23.12.42.42,0,0,0-.07.1l-.19.33a1.31,1.31,0,0,1-.13.12.76.76,0,0,0-.09.09l-.09.12a.32.32,0,0,1-.07.06Z"/><path class="cls-63" d="M18,10.78a.78.78,0,0,0-.32.25.36.36,0,0,0,0,.3,2.19,2.19,0,0,1,0,.27v.06a.47.47,0,0,0,0-.19,1.09,1.09,0,0,1,0-.38,1.76,1.76,0,0,1,.24-.31Z"/><path class="cls-62" d="M18.34,9.58a1.25,1.25,0,0,1,.11.31s0-.1.06-.13,0,0,0,.09a.29.29,0,0,1,.06.23.35.35,0,0,1-.16.25,1.8,1.8,0,0,0-.24.2l-.07.21,0,0v0s.05-.05,0-.21,0-.18,0-.23a.25.25,0,0,1-.09-.19,1.34,1.34,0,0,1,0-.26A.44.44,0,0,0,18,9.73s.12,0,.2.28c0,0,0-.34.16-.43Z"/><path class="cls-63" d="M18.45,9.89s0-.1.06-.13h0a1.74,1.74,0,0,1,0,.18.57.57,0,0,1,0,.22,1.14,1.14,0,0,1-.15.17l-.08.11a.59.59,0,0,1,0,.08l-.07.21,0,0,0-.09c0-.06.06-.19.06-.24a.52.52,0,0,0,0-.21.67.67,0,0,1,0-.24h0s0-.34.16-.43a1.56,1.56,0,0,1,0,.29,2.09,2.09,0,0,1-.08.23,1.62,1.62,0,0,0,0,.21v.12l.07-.12a1.27,1.27,0,0,0,.12-.23c0-.06,0-.08,0-.19Z"/><path class="cls-63" d="M18.13,10.49c0-.11,0-.14,0-.18a.25.25,0,0,1-.09-.19,1.34,1.34,0,0,1,0-.26A.44.44,0,0,0,18,9.73a.26.26,0,0,1,.09.18c0,.12,0,.17,0,.25s.06.09.06.16a1.09,1.09,0,0,1,0,.17Z"/><path class="cls-63" d="M16.22,12.65a.41.41,0,0,1,.3,0,.36.36,0,0,0-.29,0,1.54,1.54,0,0,1-.41.2.67.67,0,0,1-.28,0,1.14,1.14,0,0,0,.26-.11,2.22,2.22,0,0,1,.42-.16Z"/><path class="cls-63" d="M17.52,11.83s-.05,0-.16,0l-.17.1a1.51,1.51,0,0,0-.34.44,1.5,1.5,0,0,1,.27-.25l.2-.13a.37.37,0,0,0,.12-.14.21.21,0,0,1,.08-.06Z"/><path class="cls-63" d="M18.13,10.74s-.08,0-.19.16a1.28,1.28,0,0,0-.21.65s0-.06.08-.13.1-.09.17-.34a.92.92,0,0,1,.15-.34Z"/><path class="cls-62" d="M14.73,12.87a1.09,1.09,0,0,0-.32.11c-.12.07-.12.09-.13.1a0,0,0,0,0,.05.05c.05,0,.06,0,.09-.05a.46.46,0,0,1,.17-.1l.14,0v-.07Z"/><path class="cls-63" d="M14.28,13.08a0,0,0,0,0,.05.05c.05,0,.06,0,.09-.05a.46.46,0,0,1,.17-.1l.14,0h0l-.11,0-.12,0-.09.07s0,0-.05,0a.08.08,0,0,0-.07,0Z"/><path class="cls-62" d="M11.69,9.72s-.08.11-.06.13.09,0,.12,0,.05,0,0,.1-.12.07-.14.12,0,.07,0,.05.11,0,.12,0-.05.1-.09.14-.06.06-.06.08,0,0,0,0,0,0,0,.06a.21.21,0,0,0,0,.16.69.69,0,0,1,.05.17,1,1,0,0,1,0,.16l0,0h0v-.15a.76.76,0,0,0-.06-.18.5.5,0,0,0-.11-.12c-.07-.05-.07-.1-.07-.1a.69.69,0,0,1-.17-.13c0-.05,0-.1,0-.12s.08,0,.11.05,0,0,0,0-.11-.13-.08-.21.08-.06.1,0,.06.09.07,0,0-.12,0-.16,0-.07.07,0,0,.08.07,0,.09-.09.11-.06a.11.11,0,0,1,0,.14Z"/><path class="cls-63" d="M11.6,10.72v0a.76.76,0,0,0-.06-.18.5.5,0,0,0-.11-.12c-.07-.05-.07-.1-.07-.1a.69.69,0,0,1-.17-.13c0-.05,0-.1,0-.12s.08,0,.11.05,0,0,0,0-.11-.13-.08-.21.08-.06.1,0,.06.09.07,0,0-.12,0-.16,0-.07.07,0,0,.08.07,0,.09-.09.11-.06h0s0,.05-.05.09a.52.52,0,0,1-.11.1s0,0,0,0,0-.05,0-.06,0,0,0,.06,0,0,0,.06,0,0,0,.06,0,0,0,.06,0,.05,0,.05l.19-.09-.19.14-.15-.14a.47.47,0,0,0,.12.17l0,.11a.24.24,0,0,0,.14,0,.35.35,0,0,1-.14.07.68.68,0,0,1-.19-.08.59.59,0,0,0,.19.13l0,.08a.18.18,0,0,1-.08,0,.07.07,0,0,0,.14,0,.15.15,0,0,1,0,.06l.05.12a.66.66,0,0,1,0,.21Z"/><path class="cls-62" d="M12.38,11.84a.6.6,0,0,1-.14-.11c-.08-.07-.12-.1-.14-.18a1.36,1.36,0,0,1,.06-.33c0-.07,0,0-.07,0s-.05,0,0,0a1.34,1.34,0,0,0,0-.21.14.14,0,0,0-.06-.13c-.05,0-.08,0-.1.08s0,.09,0,.09,0-.07,0-.11,0-.12,0-.13-.06.07-.07.09,0,0,0,0,0-.08-.08-.08,0,0,0,0,0,0,0,0,0,0-.05,0a.25.25,0,0,0,.05.08s0,0,0,0-.09,0-.11,0,0,.09.06.11l.2.07c.05,0,0,0,0,0a.1.1,0,0,1-.07,0s-.1,0-.13,0a.13.13,0,0,0,.05.15.33.33,0,0,0,.2,0s.09,0,.09,0-.1,0-.14,0-.05.06,0,.09a1.62,1.62,0,0,0,.18,0c.05,0,.13.11.17.15a2,2,0,0,0,.29.22s0,0,0,0v0Z"/><path class="cls-48" d="M12.06,11.66l0,0a2,2,0,0,0,.29.22s0,0,0,0l-.32-.21Z"/><path class="cls-63" d="M12.13,11.62s0,0,0-.07a1.36,1.36,0,0,1,.06-.33c0-.07,0,0-.07,0s-.05,0,0,0a1.34,1.34,0,0,0,0-.21.14.14,0,0,0-.06-.13c-.05,0-.08,0-.1.08s0,.09,0,.09,0-.07,0-.11,0-.12,0-.13-.06.07-.07.09,0,0,0,0,0-.08-.08-.08h0a.44.44,0,0,0,.12.21.21.21,0,0,0,.06-.12.14.14,0,0,1,0,.1v.07a.52.52,0,0,1-.19,0l.13,0c.1,0,.08,0,.11.07l.07.07L12,11s0,.28,0,.31a1.79,1.79,0,0,1-.27-.05s0,0,.27.09l.06.08a1.16,1.16,0,0,0,.09-.14.7.7,0,0,1-.06.17h-.19a.62.62,0,0,0,.2,0,.19.19,0,0,0,.09.12Z"/><path class="cls-62" d="M13.29,12.66l-.12-.11c-.05-.05-.11-.05-.14-.13a.67.67,0,0,1,0-.18c0-.05,0,0-.06,0s0,.05,0,0,0-.13,0-.2a.25.25,0,0,0-.1-.15s-.06,0-.07,0,0,.14-.05.13,0-.09,0-.16a.21.21,0,0,0,0-.16c0-.05-.07,0-.07,0s0,.11,0,.1,0,0,0-.07,0,0-.05,0,0,0,0-.06,0,0,0,0v.13s0,0,0,0-.1,0-.1,0,.06.06.11.08.1.06.09.09-.07,0-.11,0-.1-.05-.11,0a.16.16,0,0,0,.06.13.23.23,0,0,0,.17.05c.07,0,.14,0,.15,0s0,0-.11,0-.12,0-.14,0,0,.1.08.14a.15.15,0,0,0,.17,0c.05,0,.08-.07.11,0s0,.06,0,.08,0,0,.07,0a.17.17,0,0,1,.16,0,.48.48,0,0,1,.18.07l.18.16a.2.2,0,0,1,0-.05,0,0,0,0,1,0,0Z"/><path class="cls-63" d="M13.12,12.51a.16.16,0,0,1-.09-.09.67.67,0,0,1,0-.18c0-.05,0,0-.06,0s0,.05,0,0,0-.13,0-.2a.25.25,0,0,0-.1-.15s-.06,0-.07,0,0,.14-.05.13,0-.09,0-.16a.21.21,0,0,0,0-.16c0-.05-.07,0-.07,0s0,.11,0,.1,0,0,0-.07,0,0-.05,0,0,0,0-.06,0,0,0,0a.33.33,0,0,0,0,.14s.07.06,0,.07h-.11a.35.35,0,0,0,.14,0s0,0,0,0l.06.09a.58.58,0,0,0,0-.21.85.85,0,0,1,0,.24l0,0s0,0,0,0a1.25,1.25,0,0,1-.24,0,.47.47,0,0,0,.17,0h.13l.08.09a.45.45,0,0,0,0-.26.5.5,0,0,1,0,.29.43.43,0,0,1-.24.07.44.44,0,0,0,.26,0l.1.08-.1.06a.63.63,0,0,0,.14,0h0a.69.69,0,0,0,0-.13.3.3,0,0,1,0,.14.29.29,0,0,0,.14,0Z"/><path class="cls-62" d="M14.75,12.82s0-.06-.16-.06a.87.87,0,0,0-.27.05c-.08,0-.1,0-.14-.08s-.06,0-.06,0,0,.09,0,0-.06-.11-.12-.15a.2.2,0,0,0-.16,0c-.05,0,0,0,0,.06a.7.7,0,0,1,.06.09s0,.07,0,0l-.16-.16a.15.15,0,0,0-.13,0s0,0,0,.05.07,0,.06.08,0,0-.07,0a.19.19,0,0,0-.14-.08c-.07,0-.1,0-.08.06s0,.05,0,.06a.24.24,0,0,0-.16.11c0,.05,0,0,0,0l0,0s0,0,0,0,0,0,0,0l.12,0c.05,0,.07,0,.08,0s0,0,0,0l-.08.06s0,.05,0,.06a.25.25,0,0,0,.17,0s.06-.06.1-.08.07,0,.07,0-.08.08-.09.11,0,.06,0,.08a.24.24,0,0,0,.15,0,.71.71,0,0,0,.12-.13S14,13,14,13a.88.88,0,0,1-.06.1s0,.07.06,0a.29.29,0,0,0,.14-.11.47.47,0,0,1,.1-.1s.07,0,.12,0a.5.5,0,0,1,.15-.08c.08,0,.13,0,.15,0a.53.53,0,0,0,.1.06s0-.1,0-.1Z"/><path class="cls-48" d="M14.31,13l0,0a.5.5,0,0,1,.15-.08c.08,0,.13,0,.15,0a.53.53,0,0,0,.1.06s0,0,0-.05l-.07,0a.2.2,0,0,0-.13,0,.22.22,0,0,0-.13,0s-.09.08-.12.1Z"/><path class="cls-63" d="M14.32,12.81c-.08,0-.1,0-.14-.08s-.06,0-.06,0,0,.09,0,0-.06-.11-.12-.15a.2.2,0,0,0-.16,0c-.05,0,0,0,0,.06a.7.7,0,0,1,.06.09s0,.07,0,0l-.16-.16a.15.15,0,0,0-.13,0s0,0,0,.05.07,0,.06.08,0,0-.07,0a.19.19,0,0,0-.14-.08c-.07,0-.1,0-.08.06s0,.05,0,.06a.22.22,0,0,0-.15.09.24.24,0,0,1,.14,0h.21a.16.16,0,0,1-.09-.1.82.82,0,0,0,.15.12s.11,0,.1,0a.69.69,0,0,1-.1.12l.14-.11h.07a.68.68,0,0,0-.1-.18.59.59,0,0,1,.14.19h.06s0,0,0,0l-.07.14.12-.15H14a.48.48,0,0,1-.07-.18,1,1,0,0,0,.12.19h.06s0,0,0,0a.69.69,0,0,0-.07.15l.1-.15s.06,0,0-.07a.19.19,0,0,1,0-.09l.05.06s0,0,.06,0l.05,0a0,0,0,0,0,0,0Z"/><path class="cls-25" d="M14.76,12.71H15s0,0,0,0,0,.16,0,.22a.2.2,0,0,1-.09.18,1.7,1.7,0,0,0-.27.27l-.11-.12s-.06,0-.21,0a.7.7,0,0,1,.36-.37v-.25s0,0,0,0Z"/><path class="cls-64" d="M15,12.71H15s0,0,0,0,0,.16,0,.22a.2.2,0,0,1-.09.18,1.7,1.7,0,0,0-.27.27l-.07-.08a.18.18,0,0,1,.05-.07,1.46,1.46,0,0,1,.19-.16A.22.22,0,0,0,15,13a2,2,0,0,1,0-.24Z"/><path class="cls-65" d="M14.76,12.71h.06V13s0,0-.05.05a.94.94,0,0,0-.18.12.28.28,0,0,0-.09.13h0a.26.26,0,0,0-.14,0,.7.7,0,0,1,.36-.37v-.25s0,0,0,0Z"/><path class="cls-25" d="M15.15,13.45a.23.23,0,0,0-.14-.08.21.21,0,0,1-.15-.13l.09-.08A.24.24,0,0,0,15,13h0a.29.29,0,0,0,.14.11.54.54,0,0,1,.27.2h-.19a.61.61,0,0,0-.11.13Z"/><path class="cls-64" d="M15,13.11a.18.18,0,0,0,0-.1h0a.29.29,0,0,0,.14.11.54.54,0,0,1,.27.2H15.3a.24.24,0,0,0-.09-.08c-.1-.05-.12,0-.16-.08s0,0-.05-.05Z"/><path class="cls-65" d="M15.15,13.45a.23.23,0,0,0-.14-.08.21.21,0,0,1-.15-.13l.06-.06.06.07a.34.34,0,0,0,.16.06l.08,0-.07.09Z"/></svg>