<?xml version="1.0" encoding="UTF-8"?>
<svg width="30px" height="20px" viewBox="0 0 30 20" version="1.1" xmlns="http://www.w3.org/2000/svg" xmlns:xlink="http://www.w3.org/1999/xlink">
    <title>87F68D78-4F4C-4839-8151-E69AECFC5622@2x</title>
    <g id="Flags" stroke="none" stroke-width="1" fill="none" fill-rule="evenodd">
        <g transform="translate(-240.000000, -1427.000000)" id="ZA">
            <g transform="translate(240.000000, 1427.000000)" id="Flag-of-South-Africa">
                <polygon id="Fill-1" fill="#000C8A" points="0 20 30 20 30 7.49060865e-05 0 7.49060865e-05"></polygon>
                <polygon id="Fill-2" fill="#E1392D" points="0 10.0000375 30 10.0000375 30 0 0 0"></polygon>
                <polygon id="Fill-3" fill="#FFFFFF" points="0 5.24342605e-05 0 19.9999775 6 19.9999775 15.975 13.3333358 30 13.3333358 30 6.66669413 15.975 6.66669413 6 5.24342605e-05"></polygon>
                <polygon id="Fill-4" fill="#007847" points="0 5.24342605e-05 0 19.9999775 3.6375 19.9999775 15.5625 12.0225542 30 12.0225542 30 7.97762555 15.5625 7.97762555 3.6375 5.24342605e-05"></polygon>
                <polygon id="Fill-5" fill="#FFB915" points="0 17.5655597 11.4 10.0000449 0 2.4344553"></polygon>
                <polygon id="Fill-6" fill="#000000" points="0 15.9925543 9 10.0000674 0 4.0075805"></polygon>
            </g>
        </g>
    </g>
</svg>