<?xml version="1.0" standalone="no"?>
<!DOCTYPE svg PUBLIC "-//W3C//DTD SVG 1.1//EN" "http://www.w3.org/Graphics/SVG/1.1/DTD/svg11.dtd" >
<svg xmlns="http://www.w3.org/2000/svg" xmlns:xlink="http://www.w3.org/1999/xlink" version="1.1">
<metadata>
Created by FontForge 20170924 at Mon Dec 12 12:03:31 2016
 By www-data
Copyright (c) 2016 by Kemie Guaida. All rights reserved.
</metadata>
<defs>
<font id="JollyGoodSansCondensedW05" horiz-adv-x="436" >
  <font-face 
    font-family="JollyGoodSansCondensedW05"
    font-weight="400"
    font-stretch="normal"
    units-per-em="1000"
    panose-1="1 0 0 0 0 0 0 0 0 0"
    ascent="800"
    descent="-200"
    x-height="522"
    cap-height="763"
    bbox="-187 -304 1001 1413"
    underline-thickness="50"
    underline-position="-125"
    unicode-range="U+0020-FB02"
  />
<missing-glyph horiz-adv-x="600" 
 />
    <glyph glyph-name="f_f.liga" unicode="ff" horiz-adv-x="575" 
d="M435 682q-27 0 -44.5 -33t-17.5 -148l118 14h9q42 0 42 -47q0 -17 -11 -29t-30 -16t-47 -6l-81 -6v-9q0 -17 0.5 -28t3 -130.5t2.5 -193.5q0 -27 -12.5 -41t-34.5 -14q-21 0 -34.5 15.5t-13.5 36.5l1 10l2 134l-2 212l-115 -9q0 -27 3 -161t3 -205q0 -26 -12.5 -40
t-34.5 -14q-21 0 -35 16t-14 36l1 10l-1 352q-16 0 -30.5 6t-21 17t-6.5 23q0 21 11 33t45 16v44q0 91 14.5 142.5t48.5 75t103 23.5q24 0 51.5 -9.5t46.5 -24.5q37 39 97 39q36 0 63 -14t47.5 -41.5t20.5 -52.5q0 -18 -14.5 -31.5t-33.5 -13.5q-27 0 -42.5 27t-26 31
t-18.5 4zM169 486l115 8q0 91 13 145l-4 7q-13 30 -55 30q-33 0 -52 -19t-19 -75z" />
    <glyph glyph-name="f_f_i.liga" unicode="ffi" horiz-adv-x="752" 
d="M702 468q0 -9 -3 -17l-3 -201l-1 -73v-80l-1 -32v-13l1 -11q0 -20 -12.5 -30.5t-29.5 -10.5h-6q-26 0 -39.5 16.5t-13.5 38.5l3 35l3 47q3 51 3 104v28l-3 147q-77 -6 -204 -11v-3q0 -17 0.5 -28t3 -130.5t2.5 -193.5q0 -27 -12.5 -41t-34.5 -14q-21 0 -34.5 15.5
t-13.5 36.5l1 10l-2 337v7l-136 -7q0 -27 3 -161t3 -205q0 -26 -12.5 -40t-34.5 -14q-21 0 -35 16t-14 36l1 10l-1 352q-16 0 -30.5 6t-21 17t-6.5 23q0 21 11 33t45 16v44q-2 94 22 151q10 22 31.5 46t57.5 39t75 15q24 0 52 -10t48 -25q37 40 98 40q36 0 63 -14
t47.5 -41.5t20.5 -52.5q0 -18 -14.5 -31.5t-33.5 -13.5q-27 0 -42.5 27t-26 31t-18.5 4q-17 0 -30.5 -13.5t-22.5 -48.5t-9 -133q162 8 222 14q16 14 38 14q12 0 22 -6.5t15 -16.5q9 -10 9 -34zM169 486l138 7q0 95 13 152l-7 11q-13 30 -55 30t-66 -30t-24 -113z" />
    <glyph glyph-name="f_f_l.liga" unicode="ffl" horiz-adv-x="723" 
d="M675 640l-1 -8v-1l-1 -14q0 -17 -0.5 -60t-3 -196.5t-2.5 -238.5v-89q-1 -18 -13 -28.5t-32 -10.5q-23 0 -39 14t-16 39l4 67l5 104l2 132v115q0 71 -3 115l-2 39v5v2q0 22 -20 41t-51 19q-28 0 -54 -14.5t-41 -49t-15 -69.5l1 -50l98 12h9q42 0 42 -47q0 -17 -11 -29
t-30 -16t-47 -6l-60 -5q1 -35 3 -131t2.5 -149.5t0.5 -93.5q0 -26 -12.5 -40t-34.5 -14q-21 0 -35 16t-14 36l1 10l-1 359l-134 -11q0 -27 3 -161t3 -205q0 -26 -12.5 -40t-34.5 -14q-21 0 -35 16t-14 36l1 10l-1 352q-16 0 -30.5 6t-21 17t-6.5 23q0 21 11 33t45 16v44
q0 91 14.5 142.5t48.5 75t103 23.5q30 0 60.5 -12t51.5 -34q29 26 70.5 41t81.5 15q38 0 74.5 -16t64.5 -48t28 -74zM169 486l133 9v42q-2 51 6 90q-10 7 -15 19q-13 30 -55 30q-33 0 -52 -19t-19 -75z" />
    <glyph glyph-name="f_t.liga" unicode="ft" horiz-adv-x="559" 
d="M500 515q42 0 42 -47q0 -17 -11 -29t-30 -16t-47 -6l-24 -2l2 -99q0 -62 6 -214l2 -50q0 -23 -8 -39t-33 -16q-15 0 -29.5 6.5t-22.5 20.5t-8 28l2 188l-2 168l-169 -14q0 -27 3 -161t3 -205q0 -26 -12.5 -40t-34.5 -14q-21 0 -35 16t-14 36l1 10l-1 352q-16 0 -30.5 6
t-21 17t-6.5 23q0 21 11 33t45 16v44q0 91 14.5 142.5t48.5 75t103 23.5q30 0 61.5 -13t50 -32.5t24.5 -36.5q23 -1 34 -15t13 -40q2 -25 2 -119v-5l62 8h9zM169 486l166 12l-8 119q-10 3 -20 11t-14 18q-13 30 -55 30q-33 0 -52 -19t-19 -75z" />
    <glyph glyph-name="uniFB01" unicode="fi" horiz-adv-x="468" 
d="M118 -34q-21 0 -34.5 15.5t-13.5 36.5l1 10l-1 366q-20 2 -34 13.5t-14 32.5q0 43 48 48q0 101 18 164t53.5 92.5t85.5 29.5q4 0 15 -1t37.5 -10.5t52 -36t25.5 -60.5q0 -18 -15 -31.5t-33 -13.5q-9 0 -20 4t-23.5 25t-22 27t-22.5 6q-62 0 -62 -192q110 7 135 10
q53 8 62 8l24 -1q18 0 28 -16.5t10 -35.5l-5 -339l2 -105q0 -19 -12.5 -29.5t-32.5 -10.5q-24 0 -37.5 15.5t-13.5 41.5q0 29 3.5 91.5t3.5 92.5l-3 198l-163 -11q0 -6 3 -156.5t3 -222.5q0 -55 -48 -55z" />
    <glyph glyph-name="uniFB02" unicode="fl" horiz-adv-x="499" 
d="M451 650l-1 -8v-1l-1 -14q0 -17 -0.5 -60t-3 -196.5t-2.5 -238.5v-89q-1 -18 -13 -28.5t-32 -10.5q-23 0 -39 14t-16 39l4 67l5 104l2 132v115q0 71 -3 115l-2 39v5v2q0 22 -20 41t-51 19q-28 0 -54 -14.5t-41 -49t-15 -69.5l1 -57q9 0 36.5 4t50.5 7h9q8 0 16 -5.5
t12 -17t4 -24.5q0 -35 -58 -41q-42 -5 -69 -5q1 -36 3 -132t2.5 -150t0.5 -94q0 -26 -12.5 -40t-34.5 -14q-21 0 -35 16t-14 36l1 10l-1 362q-22 0 -40 9.5t-18 26.5q0 21 11 33t45 16v44q-2 87 22 141q10 24 35.5 47t67 38t81.5 15q38 0 74.5 -16t64.5 -48t28 -74z" />
    <glyph glyph-name="t_t.liga" unicode="tt" horiz-adv-x="670" 
d="M592 530q13 0 29.5 -8t24 -21.5t7.5 -26.5q0 -28 -16.5 -36.5t-60.5 -8.5l-67 -1v-50l2 -139l5 -130l2 -49q0 -26 -12 -39.5t-33 -13.5q-24 0 -40 15t-16 35l3 149q0 118 -5 220l-178 -10l2 -107q2 -84 3.5 -134t1.5 -79l3 -55q0 -17 -3 -26q-4 -12 -16 -18.5t-25 -6.5
q-26 0 -41.5 18t-15.5 38l2 166q0 108 -3 196l-42 -5l-39 -4q-14 0 -26 9q-10 8 -15.5 22.5t-5.5 24.5q0 18 15.5 31t47.5 16l61 3v5q-1 10 -4.5 44t-3.5 49q0 42 22 52q12 5 26 5q47 0 52 -55q2 -25 2 -95l175 8l-3 45l-3 46q0 29 18 48.5t37 19.5q53 0 53 -63l-1 -30
l-1 -55v-6l9 1z" />
    <glyph glyph-name=".notdef" horiz-adv-x="600" 
 />
    <glyph glyph-name="A" unicode="A" horiz-adv-x="550" 
d="M80 -3q-21 0 -35.5 12.5t-14.5 31.5q0 10 5.5 26.5t6.5 18.5q20 72 47 151q-6 16 -6 26q0 13 8 24t20 16l123 384q1 4 8.5 33.5t21 46.5t41.5 17q14 0 25 -9.5t16 -38t6 -30.5q53 -238 111 -448l54 -202q3 -9 3 -17q0 -19 -14.5 -29t-32.5 -10q-35 0 -47 50l-43 185
q-137 -4 -207 -14l-54 -178q-9 -34 -20.5 -40t-21.5 -6zM202 308q45 0 159 15l-69 266q-33 -96 -90 -281z" />
    <glyph glyph-name="Aacute" unicode="&#xc1;" horiz-adv-x="550" 
d="M268 841q-19 0 -33.5 15.5t-14.5 33.5q0 6 2 14.5t8.5 20t16.5 24t23 27t17 18.5q25 31 40 40.5t31 9.5q8 0 18 -7t17 -20.5t7 -22.5q0 -7 -4.5 -16t-26.5 -31q-16 -16 -33 -38q-5 -6 -19 -27t-23.5 -29.5t-17.5 -10.5zM80 -3q-21 0 -35.5 12.5t-14.5 31.5q0 10 5.5 26.5
t6.5 18.5q20 72 47 151q-6 16 -6 26q0 13 8 24t20 16l123 384q1 4 8.5 33.5t21 46.5t41.5 17q14 0 25 -9.5t16 -38t6 -30.5q53 -238 111 -448l54 -202q3 -9 3 -17q0 -19 -14.5 -29t-32.5 -10q-35 0 -47 50l-43 185q-137 -4 -207 -14l-54 -178q-9 -34 -20.5 -40t-21.5 -6z
M202 308q45 0 159 15l-69 266q-33 -96 -90 -281z" />
    <glyph glyph-name="Abreve" unicode="&#x102;" horiz-adv-x="550" 
d="M297 861q-26 0 -58 15.5t-57.5 50t-25.5 69.5q0 20 13 35t34 15q20 0 29 -10.5t16 -28t10 -24.5q15 -32 40 -32q9 0 17 3.5t13.5 10t8 14t12.5 49.5t43 42q20 0 35.5 -15t15.5 -36v-6q-8 -62 -49 -107t-97 -45zM80 -3q-21 0 -35.5 12.5t-14.5 31.5q0 10 5.5 26.5
t6.5 18.5q20 72 47 151q-6 16 -6 26q0 13 8 24t20 16l123 384q1 4 8.5 33.5t21 46.5t41.5 17q14 0 25 -9.5t16 -38t6 -30.5q53 -238 111 -448l54 -202q3 -9 3 -17q0 -19 -14.5 -29t-32.5 -10q-35 0 -47 50l-43 185q-137 -4 -207 -14l-54 -178q-9 -34 -20.5 -40t-21.5 -6z
M202 308q45 0 159 15l-69 266q-33 -96 -90 -281z" />
    <glyph glyph-name="uni1EAE" unicode="&#x1eae;" horiz-adv-x="550" 
d="M290 1127q-19 0 -33.5 15.5t-14.5 33.5q0 6 2 14.5t8.5 20t16.5 24t23 27t17 18.5q25 31 40 40.5t31 9.5q8 0 18 -7t17 -20.5t7 -22.5q0 -7 -4.5 -16t-26.5 -31q-16 -16 -33 -38q-5 -6 -19 -27t-23.5 -29.5t-17.5 -10.5zM319 861q-26 0 -58 15.5t-57.5 50t-25.5 69.5
q0 20 13 35t34 15q20 0 29 -10.5t16 -28t10 -24.5q15 -32 40 -32q9 0 17 3.5t13.5 10t8 14t12.5 49.5t43 42q20 0 35.5 -15t15.5 -36v-6q-8 -62 -49 -107t-97 -45zM80 -3q-21 0 -35.5 12.5t-14.5 31.5q0 10 5.5 26.5t6.5 18.5q20 72 47 151q-6 16 -6 26q0 13 8 24t20 16
l123 384q1 4 8.5 33.5t21 46.5t41.5 17q14 0 25 -9.5t16 -38t6 -30.5q53 -238 111 -448l54 -202q3 -9 3 -17q0 -19 -14.5 -29t-32.5 -10q-35 0 -47 50l-43 185q-137 -4 -207 -14l-54 -178q-9 -34 -20.5 -40t-21.5 -6zM202 308q45 0 159 15l-69 266q-33 -96 -90 -281z" />
    <glyph glyph-name="uni1EB6" unicode="&#x1eb6;" horiz-adv-x="550" 
d="M297 861q-26 0 -58 15.5t-57.5 50t-25.5 69.5q0 20 13 35t34 15q20 0 29 -10.5t16 -28t10 -24.5q15 -32 40 -32q9 0 17 3.5t13.5 10t8 14t12.5 49.5t43 42q20 0 35.5 -15t15.5 -36v-6q-8 -62 -49 -107t-97 -45zM80 -3q-21 0 -35.5 12.5t-14.5 31.5q0 10 5.5 26.5
t6.5 18.5q20 72 47 151q-6 16 -6 26q0 13 8 24t20 16l123 384q1 4 8.5 33.5t21 46.5t41.5 17q14 0 25 -9.5t16 -38t6 -30.5q53 -238 111 -448l54 -202q3 -9 3 -17q0 -19 -14.5 -29t-32.5 -10q-35 0 -47 50l-43 185q-137 -4 -207 -14l-54 -178q-9 -34 -20.5 -40t-21.5 -6z
M202 308q45 0 159 15l-69 266q-33 -96 -90 -281zM264 -186q-22 0 -37.5 18t-15.5 39q0 23 14.5 39.5t36.5 17.5h3q37 0 52 -37q4 -8 4 -16q0 -20 -17.5 -40.5t-39.5 -20.5z" />
    <glyph glyph-name="uni1EB0" unicode="&#x1eb0;" horiz-adv-x="550" 
d="M381 1124q-12 0 -23.5 5.5t-18.5 14.5l-22 30q-4 6 -38 40t-34 59q0 13 6 26t15.5 19t18.5 7q4 0 13 -1.5t16 -7.5t23 -26q20 -25 48 -55q2 -3 15.5 -15.5t21 -22.5t9.5 -17t2 -11q0 -19 -16 -32t-36 -13zM337 861q-26 0 -58 15.5t-57.5 50t-25.5 69.5q0 20 13 35t34 15
q20 0 29 -10.5t16 -28t10 -24.5q15 -32 40 -32q9 0 17 3.5t13.5 10t8 14t12.5 49.5t43 42q20 0 35.5 -15t15.5 -36v-6q-8 -62 -49 -107t-97 -45zM80 -3q-21 0 -35.5 12.5t-14.5 31.5q0 10 5.5 26.5t6.5 18.5q20 72 47 151q-6 16 -6 26q0 13 8 24t20 16l123 384q1 4 8.5 33.5
t21 46.5t41.5 17q14 0 25 -9.5t16 -38t6 -30.5q53 -238 111 -448l54 -202q3 -9 3 -17q0 -19 -14.5 -29t-32.5 -10q-35 0 -47 50l-43 185q-137 -4 -207 -14l-54 -178q-9 -34 -20.5 -40t-21.5 -6zM202 308q45 0 159 15l-69 266q-33 -96 -90 -281z" />
    <glyph glyph-name="uni1EB2" unicode="&#x1eb2;" horiz-adv-x="550" 
d="M311 1139q-18 0 -32.5 14t-14.5 32q0 16 23.5 44t32 44t8.5 34q0 5 -2.5 10t-5.5 5q-7 0 -23 -13t-24 -13q-25 0 -40.5 14t-15.5 31q0 18 14 34.5t41 27t48 10.5q28 0 52 -15q21 -14 33.5 -39.5t12.5 -51.5q0 -38 -21 -80q-24 -50 -44 -69t-42 -19zM319 861
q-26 0 -58 15.5t-57.5 50t-25.5 69.5q0 20 13 35t34 15q20 0 29 -10.5t16 -28t10 -24.5q15 -32 40 -32q9 0 17 3.5t13.5 10t8 14t12.5 49.5t43 42q20 0 35.5 -15t15.5 -36v-6q-8 -62 -49 -107t-97 -45zM80 -3q-21 0 -35.5 12.5t-14.5 31.5q0 10 5.5 26.5t6.5 18.5
q20 72 47 151q-6 16 -6 26q0 13 8 24t20 16l123 384q1 4 8.5 33.5t21 46.5t41.5 17q14 0 25 -9.5t16 -38t6 -30.5q53 -238 111 -448l54 -202q3 -9 3 -17q0 -19 -14.5 -29t-32.5 -10q-35 0 -47 50l-43 185q-137 -4 -207 -14l-54 -178q-9 -34 -20.5 -40t-21.5 -6zM202 308
q45 0 159 15l-69 266q-33 -96 -90 -281z" />
    <glyph glyph-name="uni1EB4" unicode="&#x1eb4;" horiz-adv-x="550" 
d="M386 1131q-37 0 -92 36q-27 18 -37 18q-4 -1 -10 -7.5t-7 -7.5q-19 -15 -49 -15q-41 0 -41 37q0 16 12 36t39 35t49 15q41 0 90 -34q3 -2 13.5 -8.5t16.5 -9t10 -2.5q10 1 12 4q7 18 36 20h11q18 0 31.5 -10t13.5 -30q0 -32 -31.5 -54.5t-66.5 -22.5zM315 861
q-26 0 -58 15.5t-57.5 50t-25.5 69.5q0 20 13 35t34 15q20 0 29 -10.5t16 -28t10 -24.5q15 -32 40 -32q9 0 17 3.5t13.5 10t8 14t12.5 49.5t43 42q20 0 35.5 -15t15.5 -36v-6q-8 -62 -49 -107t-97 -45zM80 -3q-21 0 -35.5 12.5t-14.5 31.5q0 10 5.5 26.5t6.5 18.5
q20 72 47 151q-6 16 -6 26q0 13 8 24t20 16l123 384q1 4 8.5 33.5t21 46.5t41.5 17q14 0 25 -9.5t16 -38t6 -30.5q53 -238 111 -448l54 -202q3 -9 3 -17q0 -19 -14.5 -29t-32.5 -10q-35 0 -47 50l-43 185q-137 -4 -207 -14l-54 -178q-9 -34 -20.5 -40t-21.5 -6zM202 308
q45 0 159 15l-69 266q-33 -96 -90 -281z" />
    <glyph glyph-name="uni01CD" unicode="&#x1cd;" horiz-adv-x="550" 
d="M319 846q-9 0 -13 2h-8q-8 0 -16.5 2.5t-17.5 8.5t-30 26q-2 2 -18 16t-31 30t-21 30.5t-6 24.5t6.5 20.5t20 17t25.5 6.5q11 0 23 -8.5t18 -19.5q9 -20 47 -51l27 36q20 32 30.5 43t23 14t17.5 3q15 0 25 -9q19 -21 19 -37q0 -15 -23 -44l-38 -51q-1 -1 -13.5 -20.5
t-24 -29.5t-22.5 -10zM80 -3q-21 0 -35.5 12.5t-14.5 31.5q0 10 5.5 26.5t6.5 18.5q20 72 47 151q-6 16 -6 26q0 13 8 24t20 16l123 384q1 4 8.5 33.5t21 46.5t41.5 17q14 0 25 -9.5t16 -38t6 -30.5q53 -238 111 -448l54 -202q3 -9 3 -17q0 -19 -14.5 -29t-32.5 -10
q-35 0 -47 50l-43 185q-137 -4 -207 -14l-54 -178q-9 -34 -20.5 -40t-21.5 -6zM202 308q45 0 159 15l-69 266q-33 -96 -90 -281z" />
    <glyph glyph-name="Acircumflex" unicode="&#xc2;" horiz-adv-x="550" 
d="M198 821q-17 0 -32.5 14t-15.5 31q0 9 5.5 20.5t21.5 26.5t19 19l64 73q15 19 34 19q7 0 17 -6t14 -7q17 -7 42 -39q9 -12 32 -34.5t27 -26.5q22 -22 22 -37q0 -12 -13 -32t-31 -21q-29 -1 -47 26q-9 13 -30 34t-27 28q-1 -1 -4 -4.5t-36.5 -43.5t-61.5 -40zM80 -3
q-21 0 -35.5 12.5t-14.5 31.5q0 10 5.5 26.5t6.5 18.5q20 72 47 151q-6 16 -6 26q0 13 8 24t20 16l123 384q1 4 8.5 33.5t21 46.5t41.5 17q14 0 25 -9.5t16 -38t6 -30.5q53 -238 111 -448l54 -202q3 -9 3 -17q0 -19 -14.5 -29t-32.5 -10q-35 0 -47 50l-43 185
q-137 -4 -207 -14l-54 -178q-9 -34 -20.5 -40t-21.5 -6zM202 308q45 0 159 15l-69 266q-33 -96 -90 -281z" />
    <glyph glyph-name="uni1EA4" unicode="&#x1ea4;" horiz-adv-x="550" 
d="M290 1106q-19 0 -33.5 15.5t-14.5 33.5q0 6 2 14.5t8.5 20t16.5 24t23 27t17 18.5q25 31 40 40.5t31 9.5q8 0 18 -7t17 -20.5t7 -22.5q0 -7 -4.5 -16t-26.5 -31q-16 -16 -33 -38q-5 -6 -19 -27t-23.5 -29.5t-17.5 -10.5zM220 821q-17 0 -32.5 14t-15.5 31q0 9 5.5 20.5
t21.5 26.5t19 19l64 73q15 19 34 19q7 0 17 -6t14 -7q17 -7 42 -39q9 -12 32 -34.5t27 -26.5q22 -22 22 -37q0 -12 -13 -32t-31 -21q-29 -1 -47 26q-9 13 -30 34t-27 28q-1 -1 -4 -4.5t-36.5 -43.5t-61.5 -40zM80 -3q-21 0 -35.5 12.5t-14.5 31.5q0 10 5.5 26.5t6.5 18.5
q20 72 47 151q-6 16 -6 26q0 13 8 24t20 16l123 384q1 4 8.5 33.5t21 46.5t41.5 17q14 0 25 -9.5t16 -38t6 -30.5q53 -238 111 -448l54 -202q3 -9 3 -17q0 -19 -14.5 -29t-32.5 -10q-35 0 -47 50l-43 185q-137 -4 -207 -14l-54 -178q-9 -34 -20.5 -40t-21.5 -6zM202 308
q45 0 159 15l-69 266q-33 -96 -90 -281z" />
    <glyph glyph-name="uni1EAC" unicode="&#x1eac;" horiz-adv-x="550" 
d="M198 821q-17 0 -32.5 14t-15.5 31q0 9 5.5 20.5t21.5 26.5t19 19l64 73q15 19 34 19q7 0 17 -6t14 -7q17 -7 42 -39q9 -12 32 -34.5t27 -26.5q22 -22 22 -37q0 -12 -13 -32t-31 -21q-29 -1 -47 26q-9 13 -30 34t-27 28q-1 -1 -4 -4.5t-36.5 -43.5t-61.5 -40zM80 -3
q-21 0 -35.5 12.5t-14.5 31.5q0 10 5.5 26.5t6.5 18.5q20 72 47 151q-6 16 -6 26q0 13 8 24t20 16l123 384q1 4 8.5 33.5t21 46.5t41.5 17q14 0 25 -9.5t16 -38t6 -30.5q53 -238 111 -448l54 -202q3 -9 3 -17q0 -19 -14.5 -29t-32.5 -10q-35 0 -47 50l-43 185
q-137 -4 -207 -14l-54 -178q-9 -34 -20.5 -40t-21.5 -6zM202 308q45 0 159 15l-69 266q-33 -96 -90 -281zM264 -186q-22 0 -37.5 18t-15.5 39q0 23 14.5 39.5t36.5 17.5h3q37 0 52 -37q4 -8 4 -16q0 -20 -17.5 -40.5t-39.5 -20.5z" />
    <glyph glyph-name="uni1EA6" unicode="&#x1ea6;" horiz-adv-x="550" 
d="M376 1103q-12 0 -23.5 5.5t-18.5 14.5l-22 30q-4 6 -38 40t-34 59q0 13 6 26t15.5 19t18.5 7q4 0 13 -1.5t16 -7.5t23 -26q20 -25 48 -55q2 -3 15.5 -15.5t21 -22.5t9.5 -17t2 -11q0 -19 -16 -32t-36 -13zM233 821q-17 0 -32.5 14t-15.5 31q0 9 5.5 20.5t21.5 26.5t19 19
l64 73q15 19 34 19q7 0 17 -6t14 -7q17 -7 42 -39q9 -12 32 -34.5t27 -26.5q22 -22 22 -37q0 -12 -13 -32t-31 -21q-29 -1 -47 26q-9 13 -30 34t-27 28q-1 -1 -4 -4.5t-36.5 -43.5t-61.5 -40zM80 -3q-21 0 -35.5 12.5t-14.5 31.5q0 10 5.5 26.5t6.5 18.5q20 72 47 151
q-6 16 -6 26q0 13 8 24t20 16l123 384q1 4 8.5 33.5t21 46.5t41.5 17q14 0 25 -9.5t16 -38t6 -30.5q53 -238 111 -448l54 -202q3 -9 3 -17q0 -19 -14.5 -29t-32.5 -10q-35 0 -47 50l-43 185q-137 -4 -207 -14l-54 -178q-9 -34 -20.5 -40t-21.5 -6zM202 308q45 0 159 15
l-69 266q-33 -96 -90 -281z" />
    <glyph glyph-name="uni1EA8" unicode="&#x1ea8;" horiz-adv-x="550" 
d="M311 1118q-18 0 -32.5 14t-14.5 32q0 16 23.5 44t32 44t8.5 34q0 5 -2.5 10t-5.5 5q-7 0 -23 -13t-24 -13q-25 0 -40.5 14t-15.5 31q0 18 14 34.5t41 27t48 10.5q28 0 52 -15q21 -14 33.5 -39.5t12.5 -51.5q0 -38 -21 -80q-24 -50 -44 -69t-42 -19zM220 821
q-17 0 -32.5 14t-15.5 31q0 9 5.5 20.5t21.5 26.5t19 19l64 73q15 19 34 19q7 0 17 -6t14 -7q17 -7 42 -39q9 -12 32 -34.5t27 -26.5q22 -22 22 -37q0 -12 -13 -32t-31 -21q-29 -1 -47 26q-9 13 -30 34t-27 28q-1 -1 -4 -4.5t-36.5 -43.5t-61.5 -40zM80 -3q-21 0 -35.5 12.5
t-14.5 31.5q0 10 5.5 26.5t6.5 18.5q20 72 47 151q-6 16 -6 26q0 13 8 24t20 16l123 384q1 4 8.5 33.5t21 46.5t41.5 17q14 0 25 -9.5t16 -38t6 -30.5q53 -238 111 -448l54 -202q3 -9 3 -17q0 -19 -14.5 -29t-32.5 -10q-35 0 -47 50l-43 185q-137 -4 -207 -14l-54 -178
q-9 -34 -20.5 -40t-21.5 -6zM202 308q45 0 159 15l-69 266q-33 -96 -90 -281z" />
    <glyph glyph-name="uni1EAA" unicode="&#x1eaa;" horiz-adv-x="550" 
d="M381 1110q-37 0 -92 36q-27 18 -37 18q-4 -1 -10 -7.5t-7 -7.5q-19 -15 -49 -15q-41 0 -41 37q0 16 12 36t39 35t49 15q41 0 90 -34q3 -2 13.5 -8.5t16.5 -9t10 -2.5q10 1 12 4q7 18 36 20h11q18 0 31.5 -10t13.5 -30q0 -32 -31.5 -54.5t-66.5 -22.5zM211 821
q-17 0 -32.5 14t-15.5 31q0 9 5.5 20.5t21.5 26.5t19 19l64 73q15 19 34 19q7 0 17 -6t14 -7q17 -7 42 -39q9 -12 32 -34.5t27 -26.5q22 -22 22 -37q0 -12 -13 -32t-31 -21q-29 -1 -47 26q-9 13 -30 34t-27 28q-1 -1 -4 -4.5t-36.5 -43.5t-61.5 -40zM80 -3q-21 0 -35.5 12.5
t-14.5 31.5q0 10 5.5 26.5t6.5 18.5q20 72 47 151q-6 16 -6 26q0 13 8 24t20 16l123 384q1 4 8.5 33.5t21 46.5t41.5 17q14 0 25 -9.5t16 -38t6 -30.5q53 -238 111 -448l54 -202q3 -9 3 -17q0 -19 -14.5 -29t-32.5 -10q-35 0 -47 50l-43 185q-137 -4 -207 -14l-54 -178
q-9 -34 -20.5 -40t-21.5 -6zM202 308q45 0 159 15l-69 266q-33 -96 -90 -281z" />
    <glyph glyph-name="Adieresis" unicode="&#xc4;" horiz-adv-x="550" 
d="M396 840q-22 0 -37.5 18t-15.5 39q0 23 14.5 39.5t36.5 17.5h3q37 0 52 -37q4 -8 4 -16q0 -20 -17.5 -40.5t-39.5 -20.5zM196 844q-19 0 -33.5 10t-17.5 29l-1 14q0 21 8.5 33t19.5 17t26 5q17 0 30.5 -10t18.5 -25q4 -9 4 -22q0 -15 -9 -28.5t-23 -18.5q-9 -4 -23 -4z
M80 -3q-21 0 -35.5 12.5t-14.5 31.5q0 10 5.5 26.5t6.5 18.5q20 72 47 151q-6 16 -6 26q0 13 8 24t20 16l123 384q1 4 8.5 33.5t21 46.5t41.5 17q14 0 25 -9.5t16 -38t6 -30.5q53 -238 111 -448l54 -202q3 -9 3 -17q0 -19 -14.5 -29t-32.5 -10q-35 0 -47 50l-43 185
q-137 -4 -207 -14l-54 -178q-9 -34 -20.5 -40t-21.5 -6zM202 308q45 0 159 15l-69 266q-33 -96 -90 -281z" />
    <glyph glyph-name="uni01DE" unicode="&#x1de;" horiz-adv-x="550" 
d="M214 1024q-22 0 -39.5 14.5t-17.5 38.5q0 17 13 29.5t43 12.5l151 3q37 0 51 -10t14 -28q0 -21 -16 -39.5t-37 -18.5l-15 2l-42 3zM396 840q-22 0 -37.5 18t-15.5 39q0 23 14.5 39.5t36.5 17.5h3q37 0 52 -37q4 -8 4 -16q0 -20 -17.5 -40.5t-39.5 -20.5zM196 844
q-19 0 -33.5 10t-17.5 29l-1 14q0 21 8.5 33t19.5 17t26 5q17 0 30.5 -10t18.5 -25q4 -9 4 -22q0 -15 -9 -28.5t-23 -18.5q-9 -4 -23 -4zM80 -3q-21 0 -35.5 12.5t-14.5 31.5q0 10 5.5 26.5t6.5 18.5q20 72 47 151q-6 16 -6 26q0 13 8 24t20 16l123 384q1 4 8.5 33.5
t21 46.5t41.5 17q14 0 25 -9.5t16 -38t6 -30.5q53 -238 111 -448l54 -202q3 -9 3 -17q0 -19 -14.5 -29t-32.5 -10q-35 0 -47 50l-43 185q-137 -4 -207 -14l-54 -178q-9 -34 -20.5 -40t-21.5 -6zM202 308q45 0 159 15l-69 266q-33 -96 -90 -281z" />
    <glyph glyph-name="uni1EA0" unicode="&#x1ea0;" horiz-adv-x="550" 
d="M80 -3q-21 0 -35.5 12.5t-14.5 31.5q0 10 5.5 26.5t6.5 18.5q20 72 47 151q-6 16 -6 26q0 13 8 24t20 16l123 384q1 4 8.5 33.5t21 46.5t41.5 17q14 0 25 -9.5t16 -38t6 -30.5q53 -238 111 -448l54 -202q3 -9 3 -17q0 -19 -14.5 -29t-32.5 -10q-35 0 -47 50l-43 185
q-137 -4 -207 -14l-54 -178q-9 -34 -20.5 -40t-21.5 -6zM202 308q45 0 159 15l-69 266q-33 -96 -90 -281zM264 -186q-22 0 -37.5 18t-15.5 39q0 23 14.5 39.5t36.5 17.5h3q37 0 52 -37q4 -8 4 -16q0 -20 -17.5 -40.5t-39.5 -20.5z" />
    <glyph glyph-name="Agrave" unicode="&#xc0;" horiz-adv-x="550" 
d="M341 838q-12 0 -23.5 5.5t-18.5 14.5l-22 30q-4 6 -38 40t-34 59q0 13 6 26t15.5 19t18.5 7q4 0 13 -1.5t16 -7.5t23 -26q20 -25 48 -55q2 -3 15.5 -15.5t21 -22.5t9.5 -17t2 -11q0 -19 -16 -32t-36 -13zM80 -3q-21 0 -35.5 12.5t-14.5 31.5q0 10 5.5 26.5t6.5 18.5
q20 72 47 151q-6 16 -6 26q0 13 8 24t20 16l123 384q1 4 8.5 33.5t21 46.5t41.5 17q14 0 25 -9.5t16 -38t6 -30.5q53 -238 111 -448l54 -202q3 -9 3 -17q0 -19 -14.5 -29t-32.5 -10q-35 0 -47 50l-43 185q-137 -4 -207 -14l-54 -178q-9 -34 -20.5 -40t-21.5 -6zM202 308
q45 0 159 15l-69 266q-33 -96 -90 -281z" />
    <glyph glyph-name="uni1EA2" unicode="&#x1ea2;" horiz-adv-x="550" 
d="M289 853q-18 0 -32.5 14t-14.5 32q0 16 23.5 44t32 44t8.5 34q0 5 -2.5 10t-5.5 5q-7 0 -23 -13t-24 -13q-25 0 -40.5 14t-15.5 31q0 18 14 34.5t41 27t48 10.5q28 0 52 -15q21 -14 33.5 -39.5t12.5 -51.5q0 -38 -21 -80q-24 -50 -44 -69t-42 -19zM80 -3
q-21 0 -35.5 12.5t-14.5 31.5q0 10 5.5 26.5t6.5 18.5q20 72 47 151q-6 16 -6 26q0 13 8 24t20 16l123 384q1 4 8.5 33.5t21 46.5t41.5 17q14 0 25 -9.5t16 -38t6 -30.5q53 -238 111 -448l54 -202q3 -9 3 -17q0 -19 -14.5 -29t-32.5 -10q-35 0 -47 50l-43 185
q-137 -4 -207 -14l-54 -178q-9 -34 -20.5 -40t-21.5 -6zM202 308q45 0 159 15l-69 266q-33 -96 -90 -281z" />
    <glyph glyph-name="Amacron" unicode="&#x100;" horiz-adv-x="550" 
d="M216 851q-22 0 -39.5 14.5t-17.5 38.5q0 17 13 29.5t43 12.5l151 3q37 0 51 -10t14 -28q0 -21 -16 -39.5t-37 -18.5l-15 2l-42 3zM80 -3q-21 0 -35.5 12.5t-14.5 31.5q0 10 5.5 26.5t6.5 18.5q20 72 47 151q-6 16 -6 26q0 13 8 24t20 16l123 384q1 4 8.5 33.5t21 46.5
t41.5 17q14 0 25 -9.5t16 -38t6 -30.5q53 -238 111 -448l54 -202q3 -9 3 -17q0 -19 -14.5 -29t-32.5 -10q-35 0 -47 50l-43 185q-137 -4 -207 -14l-54 -178q-9 -34 -20.5 -40t-21.5 -6zM202 308q45 0 159 15l-69 266q-33 -96 -90 -281z" />
    <glyph glyph-name="Aogonek" unicode="&#x104;" horiz-adv-x="550" 
d="M475 -110q17 0 31 -15.5t14 -32.5q0 -14 -9 -28t-30 -21.5t-43 -7.5q-44 0 -72 36t-28 81q0 25 10.5 52t27.5 50q30 42 49 50l-42 181q-137 -4 -207 -14l-54 -178q-9 -34 -20.5 -40t-21.5 -6q-21 0 -35.5 12.5t-14.5 31.5q0 10 5.5 26.5t6.5 18.5q20 72 47 151
q-6 16 -6 26q0 13 8 24t20 16l123 384q1 4 8.5 33.5t21 46.5t41.5 17q14 0 25 -9.5t16 -38t6 -30.5q53 -238 111 -448l54 -202q3 -9 3 -17q0 -13 -8.5 -22.5t-19.5 -13.5q-3 -12 -28.5 -39t-30.5 -41.5t-5 -23.5t8 -21q7 0 19.5 6t19.5 6zM202 308q45 0 159 15l-69 266
q-33 -96 -90 -281z" />
    <glyph glyph-name="Aring" unicode="&#xc5;" horiz-adv-x="550" 
d="M301 813q-26 0 -52.5 13.5t-45 45.5t-18.5 70q0 36 17 68t42.5 46t50.5 14t46 -9q17 -7 33.5 -24t26.5 -44.5t12 -57.5q-5 -48 -34 -85t-78 -37zM301 892q10 0 16 13.5t6 28.5v6l2 15q0 41 -29 41q-22 0 -22 -47q0 -57 27 -57zM80 -3q-21 0 -35.5 12.5t-14.5 31.5
q0 10 5.5 26.5t6.5 18.5q20 72 47 151q-6 16 -6 26q0 13 8 24t20 16l123 384q1 4 8.5 33.5t21 46.5t41.5 17q14 0 25 -9.5t16 -38t6 -30.5q53 -238 111 -448l54 -202q3 -9 3 -17q0 -19 -14.5 -29t-32.5 -10q-35 0 -47 50l-43 185q-137 -4 -207 -14l-54 -178
q-9 -34 -20.5 -40t-21.5 -6zM202 308q45 0 159 15l-69 266q-33 -96 -90 -281z" />
    <glyph glyph-name="Aringacute" unicode="&#x1fa;" horiz-adv-x="550" 
d="M268 1127q-19 0 -33.5 15.5t-14.5 33.5q0 6 2 14.5t8.5 20t16.5 24t23 27t17 18.5q25 31 40 40.5t31 9.5q8 0 18 -7t17 -20.5t7 -22.5q0 -7 -4.5 -16t-26.5 -31q-16 -16 -33 -38q-5 -6 -19 -27t-23.5 -29.5t-17.5 -10.5zM301 813q-26 0 -52.5 13.5t-45 45.5t-18.5 70
q0 36 17 68t42.5 46t50.5 14t46 -9q17 -7 33.5 -24t26.5 -44.5t12 -57.5q-5 -48 -34 -85t-78 -37zM301 892q10 0 16 13.5t6 28.5v6l2 15q0 41 -29 41q-22 0 -22 -47q0 -57 27 -57zM80 -3q-21 0 -35.5 12.5t-14.5 31.5q0 10 5.5 26.5t6.5 18.5q20 72 47 151q-6 16 -6 26
q0 13 8 24t20 16l123 384q1 4 8.5 33.5t21 46.5t41.5 17q14 0 25 -9.5t16 -38t6 -30.5q53 -238 111 -448l54 -202q3 -9 3 -17q0 -19 -14.5 -29t-32.5 -10q-35 0 -47 50l-43 185q-137 -4 -207 -14l-54 -178q-9 -34 -20.5 -40t-21.5 -6zM202 308q45 0 159 15l-69 266
q-33 -96 -90 -281z" />
    <glyph glyph-name="Atilde" unicode="&#xc3;" horiz-adv-x="550" 
d="M368 845q-37 0 -92 36q-27 18 -37 18q-4 -1 -10 -7.5t-7 -7.5q-19 -15 -49 -15q-41 0 -41 37q0 16 12 36t39 35t49 15q41 0 90 -34q3 -2 13.5 -8.5t16.5 -9t10 -2.5q10 1 12 4q7 18 36 20h11q18 0 31.5 -10t13.5 -30q0 -32 -31.5 -54.5t-66.5 -22.5zM80 -3
q-21 0 -35.5 12.5t-14.5 31.5q0 10 5.5 26.5t6.5 18.5q20 72 47 151q-6 16 -6 26q0 13 8 24t20 16l123 384q1 4 8.5 33.5t21 46.5t41.5 17q14 0 25 -9.5t16 -38t6 -30.5q53 -238 111 -448l54 -202q3 -9 3 -17q0 -19 -14.5 -29t-32.5 -10q-35 0 -47 50l-43 185
q-137 -4 -207 -14l-54 -178q-9 -34 -20.5 -40t-21.5 -6zM202 308q45 0 159 15l-69 266q-33 -96 -90 -281z" />
    <glyph glyph-name="AE" unicode="&#xc6;" horiz-adv-x="809" 
d="M85 -5q-22 0 -38.5 13.5t-16.5 37.5q0 13 6 23l75 142q-6 6 -10.5 19.5t-4.5 22.5q0 24 14 37t51 16q121 232 184 379q2 4 10 28.5t19 36.5t26 12l14 -1q3 1 22 8t36 7l91 -4q29 0 89.5 7t88.5 7q22 0 33 -10q15 -15 15 -38q0 -22 -15 -39t-37 -17l-14 1l-21 -2
q-86 -6 -211 -8l-8 -153q132 12 165 12q21 0 34.5 -14.5t13.5 -34.5q0 -47 -100 -51t-118 -8l-3 -125q0 -55 5 -123v-3t1.5 -21t5.5 -31t11 -16q20 -12 59 -12q26 0 61.5 6t63.5 16q3 1 17.5 7.5t22.5 6.5q17 0 32.5 -17t15.5 -32q0 -16 -13 -30t-28 -18q-102 -31 -170 -31
q-69 0 -116 31q-20 13 -33 37.5t-16.5 55t-5.5 86.5l-26 1l-23 -1l-45 2q-20 0 -85 -7q-42 -81 -81 -165q-14 -30 -22 -38t-21 -8zM259 307l55 5q58 5 73 5q0 42 8 260z" />
    <glyph glyph-name="AEacute" unicode="&#x1fc;" horiz-adv-x="809" 
d="M377 831q-19 0 -33.5 15.5t-14.5 33.5q0 6 2 14.5t8.5 20t16.5 24t23 27t17 18.5q25 31 40 40.5t31 9.5q8 0 18 -7t17 -20.5t7 -22.5q0 -7 -4.5 -16t-26.5 -31q-16 -16 -33 -38q-5 -6 -19 -27t-23.5 -29.5t-17.5 -10.5zM85 -5q-22 0 -38.5 13.5t-16.5 37.5q0 13 6 23
l75 142q-6 6 -10.5 19.5t-4.5 22.5q0 24 14 37t51 16q121 232 184 379q2 4 10 28.5t19 36.5t26 12l14 -1q3 1 22 8t36 7l91 -4q29 0 89.5 7t88.5 7q22 0 33 -10q15 -15 15 -38q0 -22 -15 -39t-37 -17l-14 1l-21 -2q-86 -6 -211 -8l-8 -153q132 12 165 12q21 0 34.5 -14.5
t13.5 -34.5q0 -47 -100 -51t-118 -8l-3 -125q0 -55 5 -123v-3t1.5 -21t5.5 -31t11 -16q20 -12 59 -12q26 0 61.5 6t63.5 16q3 1 17.5 7.5t22.5 6.5q17 0 32.5 -17t15.5 -32q0 -16 -13 -30t-28 -18q-102 -31 -170 -31q-69 0 -116 31q-20 13 -33 37.5t-16.5 55t-5.5 86.5
l-26 1l-23 -1l-45 2q-20 0 -85 -7q-42 -81 -81 -165q-14 -30 -22 -38t-21 -8zM259 307l55 5q58 5 73 5q0 42 8 260z" />
    <glyph glyph-name="B" unicode="B" horiz-adv-x="542" 
d="M113 -18q-20 0 -35.5 14.5t-15.5 33.5v235q0 225 -9 392q0 6 -2.5 23.5t-2.5 26.5q0 55 44 55q22 0 37 -12h8q78 19 148 19q91 0 135 -43q22 -22 33 -54t11 -67q0 -39 -19.5 -73t-51.5 -56q27 -16 55.5 -45t46 -73t17.5 -90q0 -31 -6.5 -66.5t-27 -74.5t-54.5 -66
t-72 -40q-57 -19 -172 -19l-27 1q-5 -10 -16.5 -15.5t-23.5 -5.5zM147 497q69 10 82 11t22 1q14 0 46.5 13.5t55 34.5t23.5 48q0 31 -12.5 47t-31.5 21t-48 5l-31 -2q-12 -1 -108 -20zM207 96q121 0 169 42t48 126q0 66 -44 112.5t-106 46.5l-20 -2q-51 -10 -107 -18
q0 -133 4 -237v-23l3 -45z" />
    <glyph glyph-name="uni1E04" unicode="&#x1e04;" horiz-adv-x="542" 
d="M113 -18q-20 0 -35.5 14.5t-15.5 33.5v235q0 225 -9 392q0 6 -2.5 23.5t-2.5 26.5q0 55 44 55q22 0 37 -12h8q78 19 148 19q91 0 135 -43q22 -22 33 -54t11 -67q0 -39 -19.5 -73t-51.5 -56q27 -16 55.5 -45t46 -73t17.5 -90q0 -31 -6.5 -66.5t-27 -74.5t-54.5 -66
t-72 -40q-57 -19 -172 -19l-27 1q-5 -10 -16.5 -15.5t-23.5 -5.5zM147 497q69 10 82 11t22 1q14 0 46.5 13.5t55 34.5t23.5 48q0 31 -12.5 47t-31.5 21t-48 5l-31 -2q-12 -1 -108 -20zM207 96q121 0 169 42t48 126q0 66 -44 112.5t-106 46.5l-20 -2q-51 -10 -107 -18
q0 -133 4 -237v-23l3 -45zM233 -199q-22 0 -37.5 18t-15.5 39q0 23 14.5 39.5t36.5 17.5h3q37 0 52 -37q4 -8 4 -16q0 -20 -17.5 -40.5t-39.5 -20.5z" />
    <glyph glyph-name="C" unicode="C" horiz-adv-x="542" 
d="M290 -21q-33 0 -71.5 10.5t-72.5 38.5t-60.5 72t-41 106.5t-14.5 125.5q0 85 22.5 167t65.5 146.5t107 102.5t142 38q30 0 63 -9t53 -24.5t20 -37.5q0 -19 -14 -32t-33 -13q-20 0 -38 11q-21 13 -55 13q-47 0 -92 -22.5t-79 -72t-53.5 -119t-19.5 -147.5q0 -42 9 -89.5
t30 -86.5t54 -62t77 -23q37 0 72.5 15.5t58.5 42.5q3 4 11 16t16.5 17.5t22.5 5.5q10 0 24 -4q12 -3 20 -14.5t8 -25.5q0 -22 -16 -40q-95 -106 -216 -106z" />
    <glyph glyph-name="Cacute" unicode="&#x106;" horiz-adv-x="542" 
d="M306 823q-19 0 -33.5 15.5t-14.5 33.5q0 6 2 14.5t8.5 20t16.5 24t23 27t17 18.5q25 31 40 40.5t31 9.5q8 0 18 -7t17 -20.5t7 -22.5q0 -7 -4.5 -16t-26.5 -31q-16 -16 -33 -38q-5 -6 -19 -27t-23.5 -29.5t-17.5 -10.5zM290 -21q-33 0 -71.5 10.5t-72.5 38.5t-60.5 72
t-41 106.5t-14.5 125.5q0 85 22.5 167t65.5 146.5t107 102.5t142 38q30 0 63 -9t53 -24.5t20 -37.5q0 -19 -14 -32t-33 -13q-20 0 -38 11q-21 13 -55 13q-47 0 -92 -22.5t-79 -72t-53.5 -119t-19.5 -147.5q0 -42 9 -89.5t30 -86.5t54 -62t77 -23q37 0 72.5 15.5t58.5 42.5
q3 4 11 16t16.5 17.5t22.5 5.5q10 0 24 -4q12 -3 20 -14.5t8 -25.5q0 -22 -16 -40q-95 -106 -216 -106z" />
    <glyph glyph-name="Ccaron" unicode="&#x10c;" horiz-adv-x="542" 
d="M357 828q-9 0 -13 2h-8q-8 0 -16.5 2.5t-17.5 8.5t-30 26q-2 2 -18 16t-31 30t-21 30.5t-6 24.5t6.5 20.5t20 17t25.5 6.5q11 0 23 -8.5t18 -19.5q9 -20 47 -51l27 36q20 32 30.5 43t23 14t17.5 3q15 0 25 -9q19 -21 19 -37q0 -15 -23 -44l-38 -51q-1 -1 -13.5 -20.5
t-24 -29.5t-22.5 -10zM290 -21q-33 0 -71.5 10.5t-72.5 38.5t-60.5 72t-41 106.5t-14.5 125.5q0 85 22.5 167t65.5 146.5t107 102.5t142 38q30 0 63 -9t53 -24.5t20 -37.5q0 -19 -14 -32t-33 -13q-20 0 -38 11q-21 13 -55 13q-47 0 -92 -22.5t-79 -72t-53.5 -119
t-19.5 -147.5q0 -42 9 -89.5t30 -86.5t54 -62t77 -23q37 0 72.5 15.5t58.5 42.5q3 4 11 16t16.5 17.5t22.5 5.5q10 0 24 -4q12 -3 20 -14.5t8 -25.5q0 -22 -16 -40q-95 -106 -216 -106z" />
    <glyph glyph-name="Ccedilla" unicode="&#xc7;" horiz-adv-x="542" 
d="M494 165q12 -3 20 -14.5t8 -25.5q0 -22 -16 -40q-80 -89 -176 -103l-1 -11q33 -8 55 -31q13 -14 20 -34t7 -40q0 -38 -23.5 -71t-53.5 -46t-53 -13q-20 0 -36 11.5t-16 30.5q0 16 15 34t30 18h6q14 1 28 10t14 25t-14 16q-4 0 -13 -3t-16 -3q-19 0 -30 12.5t-11 53.5
l1 43q-67 14 -113 62.5t-71 122.5t-25 163q0 85 22.5 167t65.5 146.5t107 102.5t142 38q30 0 63 -9t53 -24.5t20 -37.5q0 -19 -14 -32t-33 -13q-20 0 -38 11q-21 13 -55 13q-47 0 -92 -22.5t-79 -72t-53.5 -119t-19.5 -147.5q0 -42 9 -89.5t30 -86.5t54 -62t77 -23
q37 0 72.5 15.5t58.5 42.5q3 4 11 16t16.5 17.5t22.5 5.5q10 0 24 -4z" />
    <glyph glyph-name="Ccircumflex" unicode="&#x108;" horiz-adv-x="542" 
d="M236 803q-17 0 -32.5 14t-15.5 31q0 9 5.5 20.5t21.5 26.5t19 19l64 73q15 19 34 19q7 0 17 -6t14 -7q17 -7 42 -39q9 -12 32 -34.5t27 -26.5q22 -22 22 -37q0 -12 -13 -32t-31 -21q-29 -1 -47 26q-9 13 -30 34t-27 28q-1 -1 -4 -4.5t-36.5 -43.5t-61.5 -40zM290 -21
q-33 0 -71.5 10.5t-72.5 38.5t-60.5 72t-41 106.5t-14.5 125.5q0 85 22.5 167t65.5 146.5t107 102.5t142 38q30 0 63 -9t53 -24.5t20 -37.5q0 -19 -14 -32t-33 -13q-20 0 -38 11q-21 13 -55 13q-47 0 -92 -22.5t-79 -72t-53.5 -119t-19.5 -147.5q0 -42 9 -89.5t30 -86.5
t54 -62t77 -23q37 0 72.5 15.5t58.5 42.5q3 4 11 16t16.5 17.5t22.5 5.5q10 0 24 -4q12 -3 20 -14.5t8 -25.5q0 -22 -16 -40q-95 -106 -216 -106z" />
    <glyph glyph-name="Cdotaccent" unicode="&#x10a;" horiz-adv-x="542" 
d="M338 867q-19 0 -33.5 10t-17.5 29l-1 14q0 21 8.5 33t19.5 17t26 5q17 0 30.5 -10t18.5 -25q4 -9 4 -22q0 -15 -9 -28.5t-23 -18.5q-9 -4 -23 -4zM290 -21q-33 0 -71.5 10.5t-72.5 38.5t-60.5 72t-41 106.5t-14.5 125.5q0 85 22.5 167t65.5 146.5t107 102.5t142 38
q30 0 63 -9t53 -24.5t20 -37.5q0 -19 -14 -32t-33 -13q-20 0 -38 11q-21 13 -55 13q-47 0 -92 -22.5t-79 -72t-53.5 -119t-19.5 -147.5q0 -42 9 -89.5t30 -86.5t54 -62t77 -23q37 0 72.5 15.5t58.5 42.5q3 4 11 16t16.5 17.5t22.5 5.5q10 0 24 -4q12 -3 20 -14.5t8 -25.5
q0 -22 -16 -40q-95 -106 -216 -106z" />
    <glyph glyph-name="D" unicode="D" horiz-adv-x="556" 
d="M100 0q-20 0 -32.5 10.5t-12.5 27.5l5 235q0 71 -6 223t-6 223q0 31 10.5 42.5t28.5 11.5q10 0 24 -4l18 -10l7 2q27 9 87 9q88 0 155.5 -40.5t102.5 -113.5q42 -86 45 -209q0 -76 -16 -143.5t-50 -120t-87 -84.5q-80 -49 -219 -49l-9 1q-3 0 -19 -5.5t-26 -5.5zM179 105
q68 0 123 23t87 74q24 39 36 89.5t12 101.5q0 95 -26 160t-71.5 95t-105.5 30q-22 0 -45 -3q-6 -1 -22.5 -5t-24.5 -4l-1 -75q0 -119 9 -484z" />
    <glyph glyph-name="uni01F1" unicode="&#x1f1;" horiz-adv-x="1031" 
d="M100 0q-20 0 -32.5 10.5t-12.5 27.5l5 235q0 71 -6 223t-6 223q0 31 10.5 42.5t28.5 11.5q10 0 24 -4l18 -10l7 2q27 9 87 9q88 0 155.5 -40.5t102.5 -113.5q42 -86 45 -209q0 -76 -16 -143.5t-50 -120t-87 -84.5q-80 -49 -219 -49l-9 1q-3 0 -19 -5.5t-26 -5.5zM598 -15
q-22 0 -40.5 13.5t-18.5 35.5q0 3 1 10t3 11.5t18 34.5q87 161 299 581q-39 -1 -127.5 -10t-129.5 -9q-47 0 -47 42q0 25 14 39t51 14h35q73 0 190 13q48 6 71 6q70 0 70 -41q0 -9 -4.5 -22t-17 -34.5t-15.5 -26.5q-145 -258 -289 -558q101 0 213 11q8 1 36.5 4t43.5 3
l13 -1q17 -2 25.5 -16t8.5 -32q0 -19 -15 -33.5t-35 -14.5l-8 1l-210 -11q-12 -1 -52 -4t-61 -3l-8 1zM179 105q68 0 123 23t87 74q24 39 36 89.5t12 101.5q0 95 -26 160t-71.5 95t-105.5 30q-22 0 -45 -3q-6 -1 -22.5 -5t-24.5 -4l-1 -75q0 -119 9 -484z" />
    <glyph glyph-name="uni01C4" unicode="&#x1c4;" horiz-adv-x="1031" 
d="M780 837q-9 0 -13 2h-8q-8 0 -16.5 2.5t-17.5 8.5t-30 26q-2 2 -18 16t-31 30t-21 30.5t-6 24.5t6.5 20.5t20 17t25.5 6.5q11 0 23 -8.5t18 -19.5q9 -20 47 -51l27 36q20 32 30.5 43t23 14t17.5 3q15 0 25 -9q19 -21 19 -37q0 -15 -23 -44l-38 -51q-1 -1 -13.5 -20.5
t-24 -29.5t-22.5 -10zM100 0q-20 0 -32.5 10.5t-12.5 27.5l5 235q0 71 -6 223t-6 223q0 31 10.5 42.5t28.5 11.5q10 0 24 -4l18 -10l7 2q27 9 87 9q88 0 155.5 -40.5t102.5 -113.5q42 -86 45 -209q0 -76 -16 -143.5t-50 -120t-87 -84.5q-80 -49 -219 -49l-9 1q-3 0 -19 -5.5
t-26 -5.5zM598 -15q-22 0 -40.5 13.5t-18.5 35.5q0 3 1 10t3 11.5t18 34.5q87 161 299 581q-39 -1 -127.5 -10t-129.5 -9q-47 0 -47 42q0 25 14 39t51 14h35q73 0 190 13q48 6 71 6q70 0 70 -41q0 -9 -4.5 -22t-17 -34.5t-15.5 -26.5q-145 -258 -289 -558q101 0 213 11
q8 1 36.5 4t43.5 3l13 -1q17 -2 25.5 -16t8.5 -32q0 -19 -15 -33.5t-35 -14.5l-8 1l-210 -11q-12 -1 -52 -4t-61 -3l-8 1zM179 105q68 0 123 23t87 74q24 39 36 89.5t12 101.5q0 95 -26 160t-71.5 95t-105.5 30q-22 0 -45 -3q-6 -1 -22.5 -5t-24.5 -4l-1 -75q0 -119 9 -484z
" />
    <glyph glyph-name="Eth" unicode="&#xd0;" horiz-adv-x="628" 
d="M547 616q42 -86 45 -209q0 -76 -16 -143.5t-50 -120t-87 -84.5q-80 -49 -219 -49l-9 1q-3 0 -19 -5.5t-26 -5.5q-20 0 -32.5 10.5t-12.5 27.5l5 235v28q-36 -8 -58 -8q-50 0 -50 50v8q2 20 17.5 30.5t36.5 12.5l52 4q-9 228 -9.5 260t-0.5 61q0 31 10.5 42.5t28.5 11.5
q10 0 24 -4l18 -10l7 2q27 9 87 9q88 0 155.5 -40.5t102.5 -113.5zM455 202q24 39 36 89.5t12 101.5q0 95 -26 160t-71.5 95t-105.5 30q-22 0 -45 -3q-6 -1 -22.5 -5t-24.5 -4l-1 -75l2 -187l80 9l33 2q22 0 34.5 -12t12.5 -30q0 -22 -15 -41t-36 -19q-60 0 -107 -3l5 -203
l29 -2q68 0 123 23t87 74z" />
    <glyph glyph-name="Dcaron" unicode="&#x10e;" horiz-adv-x="556" 
d="M230 828q-9 0 -13 2h-8q-8 0 -16.5 2.5t-17.5 8.5t-30 26q-2 2 -18 16t-31 30t-21 30.5t-6 24.5t6.5 20.5t20 17t25.5 6.5q11 0 23 -8.5t18 -19.5q9 -20 47 -51l27 36q20 32 30.5 43t23 14t17.5 3q15 0 25 -9q19 -21 19 -37q0 -15 -23 -44l-38 -51q-1 -1 -13.5 -20.5
t-24 -29.5t-22.5 -10zM100 0q-20 0 -32.5 10.5t-12.5 27.5l5 235q0 71 -6 223t-6 223q0 31 10.5 42.5t28.5 11.5q10 0 24 -4l18 -10l7 2q27 9 87 9q88 0 155.5 -40.5t102.5 -113.5q42 -86 45 -209q0 -76 -16 -143.5t-50 -120t-87 -84.5q-80 -49 -219 -49l-9 1q-3 0 -19 -5.5
t-26 -5.5zM179 105q68 0 123 23t87 74q24 39 36 89.5t12 101.5q0 95 -26 160t-71.5 95t-105.5 30q-22 0 -45 -3q-6 -1 -22.5 -5t-24.5 -4l-1 -75q0 -119 9 -484z" />
    <glyph glyph-name="uni1E12" unicode="&#x1e12;" horiz-adv-x="556" 
d="M100 0q-20 0 -32.5 10.5t-12.5 27.5l5 235q0 71 -6 223t-6 223q0 31 10.5 42.5t28.5 11.5q10 0 24 -4l18 -10l7 2q27 9 87 9q88 0 155.5 -40.5t102.5 -113.5q42 -86 45 -209q0 -76 -16 -143.5t-50 -120t-87 -84.5q-80 -49 -219 -49l-9 1q-3 0 -19 -5.5t-26 -5.5zM179 105
q68 0 123 23t87 74q24 39 36 89.5t12 101.5q0 95 -26 160t-71.5 95t-105.5 30q-22 0 -45 -3q-6 -1 -22.5 -5t-24.5 -4l-1 -75q0 -119 9 -484zM157 -247q-17 0 -32.5 14t-15.5 31q0 9 5.5 20.5t21.5 26.5t19 19l64 73q15 19 34 19q7 0 17 -6t14 -7q17 -7 42 -39
q9 -12 32 -34.5t27 -26.5q22 -22 22 -37q0 -12 -13 -32t-31 -21q-29 -1 -47 26q-9 13 -30 34t-27 28q-1 -1 -4 -4.5t-36.5 -43.5t-61.5 -40z" />
    <glyph glyph-name="Dcroat" unicode="&#x110;" horiz-adv-x="628" 
d="M547 616q42 -86 45 -209q0 -76 -16 -143.5t-50 -120t-87 -84.5q-80 -49 -219 -49l-9 1q-3 0 -19 -5.5t-26 -5.5q-20 0 -32.5 10.5t-12.5 27.5l5 235v28q-36 -8 -58 -8q-50 0 -50 50v8q2 20 17.5 30.5t36.5 12.5l52 4q-9 228 -9.5 260t-0.5 61q0 31 10.5 42.5t28.5 11.5
q10 0 24 -4l18 -10l7 2q27 9 87 9q88 0 155.5 -40.5t102.5 -113.5zM455 202q24 39 36 89.5t12 101.5q0 95 -26 160t-71.5 95t-105.5 30q-22 0 -45 -3q-6 -1 -22.5 -5t-24.5 -4l-1 -75l2 -187l80 9l33 2q22 0 34.5 -12t12.5 -30q0 -22 -15 -41t-36 -19q-60 0 -107 -3l5 -203
l29 -2q68 0 123 23t87 74z" />
    <glyph glyph-name="uni1E0C" unicode="&#x1e0c;" horiz-adv-x="556" 
d="M100 0q-20 0 -32.5 10.5t-12.5 27.5l5 235q0 71 -6 223t-6 223q0 31 10.5 42.5t28.5 11.5q10 0 24 -4l18 -10l7 2q27 9 87 9q88 0 155.5 -40.5t102.5 -113.5q42 -86 45 -209q0 -76 -16 -143.5t-50 -120t-87 -84.5q-80 -49 -219 -49l-9 1q-3 0 -19 -5.5t-26 -5.5zM179 105
q68 0 123 23t87 74q24 39 36 89.5t12 101.5q0 95 -26 160t-71.5 95t-105.5 30q-22 0 -45 -3q-6 -1 -22.5 -5t-24.5 -4l-1 -75q0 -119 9 -484zM255 -181q-22 0 -37.5 18t-15.5 39q0 23 14.5 39.5t36.5 17.5h3q37 0 52 -37q4 -8 4 -16q0 -20 -17.5 -40.5t-39.5 -20.5z" />
    <glyph glyph-name="uni1E0E" unicode="&#x1e0e;" horiz-adv-x="556" 
d="M100 0q-20 0 -32.5 10.5t-12.5 27.5l5 235q0 71 -6 223t-6 223q0 31 10.5 42.5t28.5 11.5q10 0 24 -4l18 -10l7 2q27 9 87 9q88 0 155.5 -40.5t102.5 -113.5q42 -86 45 -209q0 -76 -16 -143.5t-50 -120t-87 -84.5q-80 -49 -219 -49l-9 1q-3 0 -19 -5.5t-26 -5.5zM179 105
q68 0 123 23t87 74q24 39 36 89.5t12 101.5q0 95 -26 160t-71.5 95t-105.5 30q-22 0 -45 -3q-6 -1 -22.5 -5t-24.5 -4l-1 -75q0 -119 9 -484zM181 -172q-22 0 -39.5 14.5t-17.5 38.5q0 17 13 29.5t43 12.5l151 3q37 0 51 -10t14 -28q0 -21 -16 -39.5t-37 -18.5l-15 2l-42 3z
" />
    <glyph glyph-name="uni01F2" unicode="&#x1f2;" horiz-adv-x="946" 
d="M100 0q-20 0 -32.5 10.5t-12.5 27.5l5 235q0 71 -6 223t-6 223q0 31 10.5 42.5t28.5 11.5q10 0 24 -4l18 -10l7 2q27 9 87 9q88 0 155.5 -40.5t102.5 -113.5q42 -86 45 -209q0 -76 -16 -143.5t-50 -120t-87 -84.5q-80 -49 -219 -49l-9 1q-3 0 -19 -5.5t-26 -5.5zM179 105
q68 0 123 23t87 74q24 39 36 89.5t12 101.5q0 95 -26 160t-71.5 95t-105.5 30q-22 0 -45 -3q-6 -1 -22.5 -5t-24.5 -4l-1 -75q0 -119 9 -484zM610 -9q-19 0 -36.5 14t-17.5 35q0 19 14 40q74 118 204 342q-23 0 -73 -4.5t-73 -4.5q-22 0 -37.5 16t-15.5 39q0 10 6.5 20
t21 15.5t29.5 5.5h44l37 -2q20 0 65.5 7.5t66.5 7.5q15 0 31.5 -5.5t24.5 -16t8 -21.5q0 -10 -4.5 -23t-18 -32t-16.5 -23q-103 -158 -187 -311l26 -1q16 0 39 1.5t61.5 7t48.5 6.5q11 3 19 3q19 0 29 -14.5t10 -34.5q0 -22 -15.5 -34.5t-58.5 -15.5q-20 -1 -95.5 -7.5
t-112.5 -6.5z" />
    <glyph glyph-name="uni01C5" unicode="&#x1c5;" horiz-adv-x="946" 
d="M770 604q-9 0 -13 2h-8q-8 0 -16.5 2.5t-17.5 8.5t-30 26q-2 2 -18 16t-31 30t-21 30.5t-6 24.5t6.5 20.5t20 17t25.5 6.5q11 0 23 -8.5t18 -19.5q9 -20 47 -51l27 36q20 32 30.5 43t23 14t17.5 3q15 0 25 -9q19 -21 19 -37q0 -15 -23 -44l-38 -51q-1 -1 -13.5 -20.5
t-24 -29.5t-22.5 -10zM100 0q-20 0 -32.5 10.5t-12.5 27.5l5 235q0 71 -6 223t-6 223q0 31 10.5 42.5t28.5 11.5q10 0 24 -4l18 -10l7 2q27 9 87 9q88 0 155.5 -40.5t102.5 -113.5q42 -86 45 -209q0 -76 -16 -143.5t-50 -120t-87 -84.5q-80 -49 -219 -49l-9 1q-3 0 -19 -5.5
t-26 -5.5zM179 105q68 0 123 23t87 74q24 39 36 89.5t12 101.5q0 95 -26 160t-71.5 95t-105.5 30q-22 0 -45 -3q-6 -1 -22.5 -5t-24.5 -4l-1 -75q0 -119 9 -484zM610 -9q-19 0 -36.5 14t-17.5 35q0 19 14 40q74 118 204 342q-23 0 -73 -4.5t-73 -4.5q-22 0 -37.5 16
t-15.5 39q0 10 6.5 20t21 15.5t29.5 5.5h44l37 -2q20 0 65.5 7.5t66.5 7.5q15 0 31.5 -5.5t24.5 -16t8 -21.5q0 -10 -4.5 -23t-18 -32t-16.5 -23q-103 -158 -187 -311l26 -1q16 0 39 1.5t61.5 7t48.5 6.5q11 3 19 3q19 0 29 -14.5t10 -34.5q0 -22 -15.5 -34.5t-58.5 -15.5
q-20 -1 -95.5 -7.5t-112.5 -6.5z" />
    <glyph glyph-name="E" unicode="E" horiz-adv-x="492" 
d="M231 -8q-62 0 -103 19q-23 10 -41.5 30t-25.5 63q-13 80 -13 224l7 343l-1 33q0 30 16 46t44 16l26 -1q91 0 243 19q4 0 19.5 2.5t23.5 2.5q20 0 33 -11.5t13 -34.5q0 -26 -19.5 -41.5t-46.5 -17.5q-115 -13 -258 -20q-3 -33 -5 -150l23 -2q22 0 69.5 8t70.5 8
q20 0 32 -13.5t12 -32.5q0 -20 -13 -33t-46 -17q-52 -6 -152 -12l-2 -83q0 -85 6 -165q3 -63 12 -72q2 -6 21.5 -11t48.5 -5q36 0 77 8t71 23q3 2 14.5 8t18.5 8.5t12 2.5q17 0 32.5 -16t15.5 -31q0 -13 -12 -30.5t-70 -38.5q-32 -12 -74.5 -19t-78.5 -7z" />
    <glyph glyph-name="Eacute" unicode="&#xc9;" horiz-adv-x="492" 
d="M236 840q-19 0 -33.5 15.5t-14.5 33.5q0 6 2 14.5t8.5 20t16.5 24t23 27t17 18.5q25 31 40 40.5t31 9.5q8 0 18 -7t17 -20.5t7 -22.5q0 -7 -4.5 -16t-26.5 -31q-16 -16 -33 -38q-5 -6 -19 -27t-23.5 -29.5t-17.5 -10.5zM231 -8q-62 0 -103 19q-23 10 -41.5 30t-25.5 63
q-13 80 -13 224l7 343l-1 33q0 30 16 46t44 16l26 -1q91 0 243 19q4 0 19.5 2.5t23.5 2.5q20 0 33 -11.5t13 -34.5q0 -26 -19.5 -41.5t-46.5 -17.5q-115 -13 -258 -20q-3 -33 -5 -150l23 -2q22 0 69.5 8t70.5 8q20 0 32 -13.5t12 -32.5q0 -20 -13 -33t-46 -17
q-52 -6 -152 -12l-2 -83q0 -85 6 -165q3 -63 12 -72q2 -6 21.5 -11t48.5 -5q36 0 77 8t71 23q3 2 14.5 8t18.5 8.5t12 2.5q17 0 32.5 -16t15.5 -31q0 -13 -12 -30.5t-70 -38.5q-32 -12 -74.5 -19t-78.5 -7z" />
    <glyph glyph-name="Ebreve" unicode="&#x114;" horiz-adv-x="492" 
d="M265 860q-26 0 -58 15.5t-57.5 50t-25.5 69.5q0 20 13 35t34 15q20 0 29 -10.5t16 -28t10 -24.5q15 -32 40 -32q9 0 17 3.5t13.5 10t8 14t12.5 49.5t43 42q20 0 35.5 -15t15.5 -36v-6q-8 -62 -49 -107t-97 -45zM231 -8q-62 0 -103 19q-23 10 -41.5 30t-25.5 63
q-13 80 -13 224l7 343l-1 33q0 30 16 46t44 16l26 -1q91 0 243 19q4 0 19.5 2.5t23.5 2.5q20 0 33 -11.5t13 -34.5q0 -26 -19.5 -41.5t-46.5 -17.5q-115 -13 -258 -20q-3 -33 -5 -150l23 -2q22 0 69.5 8t70.5 8q20 0 32 -13.5t12 -32.5q0 -20 -13 -33t-46 -17
q-52 -6 -152 -12l-2 -83q0 -85 6 -165q3 -63 12 -72q2 -6 21.5 -11t48.5 -5q36 0 77 8t71 23q3 2 14.5 8t18.5 8.5t12 2.5q17 0 32.5 -16t15.5 -31q0 -13 -12 -30.5t-70 -38.5q-32 -12 -74.5 -19t-78.5 -7z" />
    <glyph glyph-name="Ecaron" unicode="&#x11a;" horiz-adv-x="492" 
d="M287 845q-9 0 -13 2h-8q-8 0 -16.5 2.5t-17.5 8.5t-30 26q-2 2 -18 16t-31 30t-21 30.5t-6 24.5t6.5 20.5t20 17t25.5 6.5q11 0 23 -8.5t18 -19.5q9 -20 47 -51l27 36q20 32 30.5 43t23 14t17.5 3q15 0 25 -9q19 -21 19 -37q0 -15 -23 -44l-38 -51q-1 -1 -13.5 -20.5
t-24 -29.5t-22.5 -10zM231 -8q-62 0 -103 19q-23 10 -41.5 30t-25.5 63q-13 80 -13 224l7 343l-1 33q0 30 16 46t44 16l26 -1q91 0 243 19q4 0 19.5 2.5t23.5 2.5q20 0 33 -11.5t13 -34.5q0 -26 -19.5 -41.5t-46.5 -17.5q-115 -13 -258 -20q-3 -33 -5 -150l23 -2
q22 0 69.5 8t70.5 8q20 0 32 -13.5t12 -32.5q0 -20 -13 -33t-46 -17q-52 -6 -152 -12l-2 -83q0 -85 6 -165q3 -63 12 -72q2 -6 21.5 -11t48.5 -5q36 0 77 8t71 23q3 2 14.5 8t18.5 8.5t12 2.5q17 0 32.5 -16t15.5 -31q0 -13 -12 -30.5t-70 -38.5q-32 -12 -74.5 -19t-78.5 -7
z" />
    <glyph glyph-name="uni0228" unicode="&#x228;" horiz-adv-x="492" 
d="M418 134q17 0 32.5 -16t15.5 -31q0 -13 -12 -30.5t-70 -38.5q-41 -15 -95 -22v-3l-1 -21q33 -8 55 -31q13 -14 20 -34t7 -40q0 -38 -23.5 -71t-53.5 -46t-53 -13q-20 0 -36 11.5t-16 30.5q0 16 15 34t30 18h6q14 1 28 10t14 25t-14 16q-4 0 -13 -3t-16 -3q-19 0 -30 12.5
t-11 53.5l1 51q-37 3 -70 18q-23 10 -41.5 30t-25.5 63q-13 80 -13 224l7 343l-1 33q0 30 16 46t44 16l26 -1q91 0 243 19q4 0 19.5 2.5t23.5 2.5q20 0 33 -11.5t13 -34.5q0 -26 -19.5 -41.5t-46.5 -17.5q-115 -13 -258 -20q-3 -33 -5 -150l23 -2q22 0 69.5 8t70.5 8
q20 0 32 -13.5t12 -32.5q0 -20 -13 -33t-46 -17q-52 -6 -152 -12l-2 -83q0 -85 6 -165q3 -63 12 -72q2 -6 21.5 -11t48.5 -5q36 0 77 8t71 23q3 2 14.5 8t18.5 8.5t12 2.5z" />
    <glyph glyph-name="Ecircumflex" unicode="&#xca;" horiz-adv-x="492" 
d="M166 820q-17 0 -32.5 14t-15.5 31q0 9 5.5 20.5t21.5 26.5t19 19l64 73q15 19 34 19q7 0 17 -6t14 -7q17 -7 42 -39q9 -12 32 -34.5t27 -26.5q22 -22 22 -37q0 -12 -13 -32t-31 -21q-29 -1 -47 26q-9 13 -30 34t-27 28q-1 -1 -4 -4.5t-36.5 -43.5t-61.5 -40zM231 -8
q-62 0 -103 19q-23 10 -41.5 30t-25.5 63q-13 80 -13 224l7 343l-1 33q0 30 16 46t44 16l26 -1q91 0 243 19q4 0 19.5 2.5t23.5 2.5q20 0 33 -11.5t13 -34.5q0 -26 -19.5 -41.5t-46.5 -17.5q-115 -13 -258 -20q-3 -33 -5 -150l23 -2q22 0 69.5 8t70.5 8q20 0 32 -13.5
t12 -32.5q0 -20 -13 -33t-46 -17q-52 -6 -152 -12l-2 -83q0 -85 6 -165q3 -63 12 -72q2 -6 21.5 -11t48.5 -5q36 0 77 8t71 23q3 2 14.5 8t18.5 8.5t12 2.5q17 0 32.5 -16t15.5 -31q0 -13 -12 -30.5t-70 -38.5q-32 -12 -74.5 -19t-78.5 -7z" />
    <glyph glyph-name="uni1EBE" unicode="&#x1ebe;" horiz-adv-x="492" 
d="M258 1105q-19 0 -33.5 15.5t-14.5 33.5q0 6 2 14.5t8.5 20t16.5 24t23 27t17 18.5q25 31 40 40.5t31 9.5q8 0 18 -7t17 -20.5t7 -22.5q0 -7 -4.5 -16t-26.5 -31q-16 -16 -33 -38q-5 -6 -19 -27t-23.5 -29.5t-17.5 -10.5zM188 820q-17 0 -32.5 14t-15.5 31q0 9 5.5 20.5
t21.5 26.5t19 19l64 73q15 19 34 19q7 0 17 -6t14 -7q17 -7 42 -39q9 -12 32 -34.5t27 -26.5q22 -22 22 -37q0 -12 -13 -32t-31 -21q-29 -1 -47 26q-9 13 -30 34t-27 28q-1 -1 -4 -4.5t-36.5 -43.5t-61.5 -40zM231 -8q-62 0 -103 19q-23 10 -41.5 30t-25.5 63
q-13 80 -13 224l7 343l-1 33q0 30 16 46t44 16l26 -1q91 0 243 19q4 0 19.5 2.5t23.5 2.5q20 0 33 -11.5t13 -34.5q0 -26 -19.5 -41.5t-46.5 -17.5q-115 -13 -258 -20q-3 -33 -5 -150l23 -2q22 0 69.5 8t70.5 8q20 0 32 -13.5t12 -32.5q0 -20 -13 -33t-46 -17
q-52 -6 -152 -12l-2 -83q0 -85 6 -165q3 -63 12 -72q2 -6 21.5 -11t48.5 -5q36 0 77 8t71 23q3 2 14.5 8t18.5 8.5t12 2.5q17 0 32.5 -16t15.5 -31q0 -13 -12 -30.5t-70 -38.5q-32 -12 -74.5 -19t-78.5 -7z" />
    <glyph glyph-name="uni1EC6" unicode="&#x1ec6;" horiz-adv-x="492" 
d="M166 820q-17 0 -32.5 14t-15.5 31q0 9 5.5 20.5t21.5 26.5t19 19l64 73q15 19 34 19q7 0 17 -6t14 -7q17 -7 42 -39q9 -12 32 -34.5t27 -26.5q22 -22 22 -37q0 -12 -13 -32t-31 -21q-29 -1 -47 26q-9 13 -30 34t-27 28q-1 -1 -4 -4.5t-36.5 -43.5t-61.5 -40zM231 -8
q-62 0 -103 19q-23 10 -41.5 30t-25.5 63q-13 80 -13 224l7 343l-1 33q0 30 16 46t44 16l26 -1q91 0 243 19q4 0 19.5 2.5t23.5 2.5q20 0 33 -11.5t13 -34.5q0 -26 -19.5 -41.5t-46.5 -17.5q-115 -13 -258 -20q-3 -33 -5 -150l23 -2q22 0 69.5 8t70.5 8q20 0 32 -13.5
t12 -32.5q0 -20 -13 -33t-46 -17q-52 -6 -152 -12l-2 -83q0 -85 6 -165q3 -63 12 -72q2 -6 21.5 -11t48.5 -5q36 0 77 8t71 23q3 2 14.5 8t18.5 8.5t12 2.5q17 0 32.5 -16t15.5 -31q0 -13 -12 -30.5t-70 -38.5q-32 -12 -74.5 -19t-78.5 -7zM240 -200q-22 0 -37.5 18
t-15.5 39q0 23 14.5 39.5t36.5 17.5h3q37 0 52 -37q4 -8 4 -16q0 -20 -17.5 -40.5t-39.5 -20.5z" />
    <glyph glyph-name="uni1EC0" unicode="&#x1ec0;" horiz-adv-x="492" 
d="M344 1102q-12 0 -23.5 5.5t-18.5 14.5l-22 30q-4 6 -38 40t-34 59q0 13 6 26t15.5 19t18.5 7q4 0 13 -1.5t16 -7.5t23 -26q20 -25 48 -55q2 -3 15.5 -15.5t21 -22.5t9.5 -17t2 -11q0 -19 -16 -32t-36 -13zM201 820q-17 0 -32.5 14t-15.5 31q0 9 5.5 20.5t21.5 26.5t19 19
l64 73q15 19 34 19q7 0 17 -6t14 -7q17 -7 42 -39q9 -12 32 -34.5t27 -26.5q22 -22 22 -37q0 -12 -13 -32t-31 -21q-29 -1 -47 26q-9 13 -30 34t-27 28q-1 -1 -4 -4.5t-36.5 -43.5t-61.5 -40zM231 -8q-62 0 -103 19q-23 10 -41.5 30t-25.5 63q-13 80 -13 224l7 343l-1 33
q0 30 16 46t44 16l26 -1q91 0 243 19q4 0 19.5 2.5t23.5 2.5q20 0 33 -11.5t13 -34.5q0 -26 -19.5 -41.5t-46.5 -17.5q-115 -13 -258 -20q-3 -33 -5 -150l23 -2q22 0 69.5 8t70.5 8q20 0 32 -13.5t12 -32.5q0 -20 -13 -33t-46 -17q-52 -6 -152 -12l-2 -83q0 -85 6 -165
q3 -63 12 -72q2 -6 21.5 -11t48.5 -5q36 0 77 8t71 23q3 2 14.5 8t18.5 8.5t12 2.5q17 0 32.5 -16t15.5 -31q0 -13 -12 -30.5t-70 -38.5q-32 -12 -74.5 -19t-78.5 -7z" />
    <glyph glyph-name="uni1EC2" unicode="&#x1ec2;" horiz-adv-x="492" 
d="M279 1117q-18 0 -32.5 14t-14.5 32q0 16 23.5 44t32 44t8.5 34q0 5 -2.5 10t-5.5 5q-7 0 -23 -13t-24 -13q-25 0 -40.5 14t-15.5 31q0 18 14 34.5t41 27t48 10.5q28 0 52 -15q21 -14 33.5 -39.5t12.5 -51.5q0 -38 -21 -80q-24 -50 -44 -69t-42 -19zM188 820
q-17 0 -32.5 14t-15.5 31q0 9 5.5 20.5t21.5 26.5t19 19l64 73q15 19 34 19q7 0 17 -6t14 -7q17 -7 42 -39q9 -12 32 -34.5t27 -26.5q22 -22 22 -37q0 -12 -13 -32t-31 -21q-29 -1 -47 26q-9 13 -30 34t-27 28q-1 -1 -4 -4.5t-36.5 -43.5t-61.5 -40zM231 -8q-62 0 -103 19
q-23 10 -41.5 30t-25.5 63q-13 80 -13 224l7 343l-1 33q0 30 16 46t44 16l26 -1q91 0 243 19q4 0 19.5 2.5t23.5 2.5q20 0 33 -11.5t13 -34.5q0 -26 -19.5 -41.5t-46.5 -17.5q-115 -13 -258 -20q-3 -33 -5 -150l23 -2q22 0 69.5 8t70.5 8q20 0 32 -13.5t12 -32.5
q0 -20 -13 -33t-46 -17q-52 -6 -152 -12l-2 -83q0 -85 6 -165q3 -63 12 -72q2 -6 21.5 -11t48.5 -5q36 0 77 8t71 23q3 2 14.5 8t18.5 8.5t12 2.5q17 0 32.5 -16t15.5 -31q0 -13 -12 -30.5t-70 -38.5q-32 -12 -74.5 -19t-78.5 -7z" />
    <glyph glyph-name="uni1EC4" unicode="&#x1ec4;" horiz-adv-x="492" 
d="M349 1109q-37 0 -92 36q-27 18 -37 18q-4 -1 -10 -7.5t-7 -7.5q-19 -15 -49 -15q-41 0 -41 37q0 16 12 36t39 35t49 15q41 0 90 -34q3 -2 13.5 -8.5t16.5 -9t10 -2.5q10 1 12 4q7 18 36 20h11q18 0 31.5 -10t13.5 -30q0 -32 -31.5 -54.5t-66.5 -22.5zM179 820
q-17 0 -32.5 14t-15.5 31q0 9 5.5 20.5t21.5 26.5t19 19l64 73q15 19 34 19q7 0 17 -6t14 -7q17 -7 42 -39q9 -12 32 -34.5t27 -26.5q22 -22 22 -37q0 -12 -13 -32t-31 -21q-29 -1 -47 26q-9 13 -30 34t-27 28q-1 -1 -4 -4.5t-36.5 -43.5t-61.5 -40zM231 -8q-62 0 -103 19
q-23 10 -41.5 30t-25.5 63q-13 80 -13 224l7 343l-1 33q0 30 16 46t44 16l26 -1q91 0 243 19q4 0 19.5 2.5t23.5 2.5q20 0 33 -11.5t13 -34.5q0 -26 -19.5 -41.5t-46.5 -17.5q-115 -13 -258 -20q-3 -33 -5 -150l23 -2q22 0 69.5 8t70.5 8q20 0 32 -13.5t12 -32.5
q0 -20 -13 -33t-46 -17q-52 -6 -152 -12l-2 -83q0 -85 6 -165q3 -63 12 -72q2 -6 21.5 -11t48.5 -5q36 0 77 8t71 23q3 2 14.5 8t18.5 8.5t12 2.5q17 0 32.5 -16t15.5 -31q0 -13 -12 -30.5t-70 -38.5q-32 -12 -74.5 -19t-78.5 -7z" />
    <glyph glyph-name="Edieresis" unicode="&#xcb;" horiz-adv-x="492" 
d="M364 839q-22 0 -37.5 18t-15.5 39q0 23 14.5 39.5t36.5 17.5h3q37 0 52 -37q4 -8 4 -16q0 -20 -17.5 -40.5t-39.5 -20.5zM164 843q-19 0 -33.5 10t-17.5 29l-1 14q0 21 8.5 33t19.5 17t26 5q17 0 30.5 -10t18.5 -25q4 -9 4 -22q0 -15 -9 -28.5t-23 -18.5q-9 -4 -23 -4z
M231 -8q-62 0 -103 19q-23 10 -41.5 30t-25.5 63q-13 80 -13 224l7 343l-1 33q0 30 16 46t44 16l26 -1q91 0 243 19q4 0 19.5 2.5t23.5 2.5q20 0 33 -11.5t13 -34.5q0 -26 -19.5 -41.5t-46.5 -17.5q-115 -13 -258 -20q-3 -33 -5 -150l23 -2q22 0 69.5 8t70.5 8
q20 0 32 -13.5t12 -32.5q0 -20 -13 -33t-46 -17q-52 -6 -152 -12l-2 -83q0 -85 6 -165q3 -63 12 -72q2 -6 21.5 -11t48.5 -5q36 0 77 8t71 23q3 2 14.5 8t18.5 8.5t12 2.5q17 0 32.5 -16t15.5 -31q0 -13 -12 -30.5t-70 -38.5q-32 -12 -74.5 -19t-78.5 -7z" />
    <glyph glyph-name="Edotaccent" unicode="&#x116;" horiz-adv-x="492" 
d="M268 884q-19 0 -33.5 10t-17.5 29l-1 14q0 21 8.5 33t19.5 17t26 5q17 0 30.5 -10t18.5 -25q4 -9 4 -22q0 -15 -9 -28.5t-23 -18.5q-9 -4 -23 -4zM231 -8q-62 0 -103 19q-23 10 -41.5 30t-25.5 63q-13 80 -13 224l7 343l-1 33q0 30 16 46t44 16l26 -1q91 0 243 19
q4 0 19.5 2.5t23.5 2.5q20 0 33 -11.5t13 -34.5q0 -26 -19.5 -41.5t-46.5 -17.5q-115 -13 -258 -20q-3 -33 -5 -150l23 -2q22 0 69.5 8t70.5 8q20 0 32 -13.5t12 -32.5q0 -20 -13 -33t-46 -17q-52 -6 -152 -12l-2 -83q0 -85 6 -165q3 -63 12 -72q2 -6 21.5 -11t48.5 -5
q36 0 77 8t71 23q3 2 14.5 8t18.5 8.5t12 2.5q17 0 32.5 -16t15.5 -31q0 -13 -12 -30.5t-70 -38.5q-32 -12 -74.5 -19t-78.5 -7z" />
    <glyph glyph-name="uni1EB8" unicode="&#x1eb8;" horiz-adv-x="492" 
d="M231 -8q-62 0 -103 19q-23 10 -41.5 30t-25.5 63q-13 80 -13 224l7 343l-1 33q0 30 16 46t44 16l26 -1q91 0 243 19q4 0 19.5 2.5t23.5 2.5q20 0 33 -11.5t13 -34.5q0 -26 -19.5 -41.5t-46.5 -17.5q-115 -13 -258 -20q-3 -33 -5 -150l23 -2q22 0 69.5 8t70.5 8
q20 0 32 -13.5t12 -32.5q0 -20 -13 -33t-46 -17q-52 -6 -152 -12l-2 -83q0 -85 6 -165q3 -63 12 -72q2 -6 21.5 -11t48.5 -5q36 0 77 8t71 23q3 2 14.5 8t18.5 8.5t12 2.5q17 0 32.5 -16t15.5 -31q0 -13 -12 -30.5t-70 -38.5q-32 -12 -74.5 -19t-78.5 -7zM240 -200
q-22 0 -37.5 18t-15.5 39q0 23 14.5 39.5t36.5 17.5h3q37 0 52 -37q4 -8 4 -16q0 -20 -17.5 -40.5t-39.5 -20.5z" />
    <glyph glyph-name="Egrave" unicode="&#xc8;" horiz-adv-x="492" 
d="M309 837q-12 0 -23.5 5.5t-18.5 14.5l-22 30q-4 6 -38 40t-34 59q0 13 6 26t15.5 19t18.5 7q4 0 13 -1.5t16 -7.5t23 -26q20 -25 48 -55q2 -3 15.5 -15.5t21 -22.5t9.5 -17t2 -11q0 -19 -16 -32t-36 -13zM231 -8q-62 0 -103 19q-23 10 -41.5 30t-25.5 63q-13 80 -13 224
l7 343l-1 33q0 30 16 46t44 16l26 -1q91 0 243 19q4 0 19.5 2.5t23.5 2.5q20 0 33 -11.5t13 -34.5q0 -26 -19.5 -41.5t-46.5 -17.5q-115 -13 -258 -20q-3 -33 -5 -150l23 -2q22 0 69.5 8t70.5 8q20 0 32 -13.5t12 -32.5q0 -20 -13 -33t-46 -17q-52 -6 -152 -12l-2 -83
q0 -85 6 -165q3 -63 12 -72q2 -6 21.5 -11t48.5 -5q36 0 77 8t71 23q3 2 14.5 8t18.5 8.5t12 2.5q17 0 32.5 -16t15.5 -31q0 -13 -12 -30.5t-70 -38.5q-32 -12 -74.5 -19t-78.5 -7z" />
    <glyph glyph-name="uni1EBA" unicode="&#x1eba;" horiz-adv-x="492" 
d="M257 852q-18 0 -32.5 14t-14.5 32q0 16 23.5 44t32 44t8.5 34q0 5 -2.5 10t-5.5 5q-7 0 -23 -13t-24 -13q-25 0 -40.5 14t-15.5 31q0 18 14 34.5t41 27t48 10.5q28 0 52 -15q21 -14 33.5 -39.5t12.5 -51.5q0 -38 -21 -80q-24 -50 -44 -69t-42 -19zM231 -8q-62 0 -103 19
q-23 10 -41.5 30t-25.5 63q-13 80 -13 224l7 343l-1 33q0 30 16 46t44 16l26 -1q91 0 243 19q4 0 19.5 2.5t23.5 2.5q20 0 33 -11.5t13 -34.5q0 -26 -19.5 -41.5t-46.5 -17.5q-115 -13 -258 -20q-3 -33 -5 -150l23 -2q22 0 69.5 8t70.5 8q20 0 32 -13.5t12 -32.5
q0 -20 -13 -33t-46 -17q-52 -6 -152 -12l-2 -83q0 -85 6 -165q3 -63 12 -72q2 -6 21.5 -11t48.5 -5q36 0 77 8t71 23q3 2 14.5 8t18.5 8.5t12 2.5q17 0 32.5 -16t15.5 -31q0 -13 -12 -30.5t-70 -38.5q-32 -12 -74.5 -19t-78.5 -7z" />
    <glyph glyph-name="Emacron" unicode="&#x112;" horiz-adv-x="492" 
d="M184 850q-22 0 -39.5 14.5t-17.5 38.5q0 17 13 29.5t43 12.5l151 3q37 0 51 -10t14 -28q0 -21 -16 -39.5t-37 -18.5l-15 2l-42 3zM231 -8q-62 0 -103 19q-23 10 -41.5 30t-25.5 63q-13 80 -13 224l7 343l-1 33q0 30 16 46t44 16l26 -1q91 0 243 19q4 0 19.5 2.5t23.5 2.5
q20 0 33 -11.5t13 -34.5q0 -26 -19.5 -41.5t-46.5 -17.5q-115 -13 -258 -20q-3 -33 -5 -150l23 -2q22 0 69.5 8t70.5 8q20 0 32 -13.5t12 -32.5q0 -20 -13 -33t-46 -17q-52 -6 -152 -12l-2 -83q0 -85 6 -165q3 -63 12 -72q2 -6 21.5 -11t48.5 -5q36 0 77 8t71 23q3 2 14.5 8
t18.5 8.5t12 2.5q17 0 32.5 -16t15.5 -31q0 -13 -12 -30.5t-70 -38.5q-32 -12 -74.5 -19t-78.5 -7z" />
    <glyph glyph-name="Eogonek" unicode="&#x118;" horiz-adv-x="492" 
d="M442 -51q17 0 31 -15.5t14 -32.5q0 -14 -9 -28t-30 -21.5t-43 -7.5q-44 0 -72 36t-28 81q0 18 5 38q-36 -7 -79 -7q-62 0 -103 19q-23 10 -41.5 30t-25.5 63q-13 80 -13 224l7 343l-1 33q0 30 16 46t44 16l26 -1q91 0 243 19q4 0 19.5 2.5t23.5 2.5q20 0 33 -11.5
t13 -34.5q0 -26 -19.5 -41.5t-46.5 -17.5q-115 -13 -258 -20q-3 -33 -5 -150l23 -2q22 0 69.5 8t70.5 8q20 0 32 -13.5t12 -32.5q0 -20 -13 -33t-46 -17q-52 -6 -152 -12l-2 -83q0 -85 6 -165q3 -63 12 -72q2 -6 21.5 -11t48.5 -5q36 0 77 8t71 23q3 2 14.5 8t18.5 8.5
t12 2.5q17 0 32.5 -16t15.5 -31t-7 -23q-2 -13 -28 -40t-31 -42t-5 -24t8 -21q7 0 19.5 6t19.5 6z" />
    <glyph glyph-name="uni1EBC" unicode="&#x1ebc;" horiz-adv-x="492" 
d="M336 844q-37 0 -92 36q-27 18 -37 18q-4 -1 -10 -7.5t-7 -7.5q-19 -15 -49 -15q-41 0 -41 37q0 16 12 36t39 35t49 15q41 0 90 -34q3 -2 13.5 -8.5t16.5 -9t10 -2.5q10 1 12 4q7 18 36 20h11q18 0 31.5 -10t13.5 -30q0 -32 -31.5 -54.5t-66.5 -22.5zM231 -8
q-62 0 -103 19q-23 10 -41.5 30t-25.5 63q-13 80 -13 224l7 343l-1 33q0 30 16 46t44 16l26 -1q91 0 243 19q4 0 19.5 2.5t23.5 2.5q20 0 33 -11.5t13 -34.5q0 -26 -19.5 -41.5t-46.5 -17.5q-115 -13 -258 -20q-3 -33 -5 -150l23 -2q22 0 69.5 8t70.5 8q20 0 32 -13.5
t12 -32.5q0 -20 -13 -33t-46 -17q-52 -6 -152 -12l-2 -83q0 -85 6 -165q3 -63 12 -72q2 -6 21.5 -11t48.5 -5q36 0 77 8t71 23q3 2 14.5 8t18.5 8.5t12 2.5q17 0 32.5 -16t15.5 -31q0 -13 -12 -30.5t-70 -38.5q-32 -12 -74.5 -19t-78.5 -7z" />
    <glyph glyph-name="F" unicode="F" horiz-adv-x="474" 
d="M106 0q-24 0 -39.5 15.5t-15.5 36.5l2 55q5 177 5 320l-3 36q0 11 3 21l-4 137q0 13 -3 45t-3 49q0 51 49 51q8 0 20 -5.5t20 -5.5q43 0 135.5 10t135.5 10q11 0 21 -3q12 -3 23.5 -14.5t11.5 -35.5q0 -21 -18 -32t-72 -11l-34 -1q-25 -2 -93.5 -8.5t-102.5 -7.5l1 -149
q43 1 103 10q2 0 26.5 5t36.5 5q20 0 31.5 -14t11.5 -33q0 -21 -17.5 -34.5t-39.5 -15.5q-108 -12 -153 -16l2 -372q0 -21 -10.5 -34.5t-29.5 -13.5z" />
    <glyph glyph-name="G" unicode="G" horiz-adv-x="593" 
d="M303 -12q-48 0 -90 18t-74.5 49t-55 70.5t-38 91t-15.5 107.5q0 83 20 166q13 53 39 105t63 94t85 67t103 25q44 0 93.5 -22.5t49.5 -53.5q0 -20 -13.5 -35t-32.5 -15q-15 0 -36.5 12.5t-33.5 16.5t-28 4q-40 0 -79 -21.5t-70 -69.5t-50 -116.5t-20 -145.5
q0 -43 11.5 -88t34 -83.5t57.5 -61.5t78 -23q29 0 54 12t49.5 38t41 79.5t20.5 143.5l-105 -8q-37 -5 -45 -5q-21 0 -36.5 16t-15.5 37q0 12 5.5 22t24.5 15.5t79 5.5q23 0 72 8.5t71 8.5q13 0 22 -5q12 -7 18.5 -26t6.5 -31l-3 -41q-6 -109 -27 -174q-11 -34 -32 -69
t-51 -61.5t-67.5 -41.5t-79.5 -15z" />
    <glyph glyph-name="uni01F4" unicode="&#x1f4;" horiz-adv-x="593" 
d="M320 852q-19 0 -33.5 15.5t-14.5 33.5q0 6 2 14.5t8.5 20t16.5 24t23 27t17 18.5q25 31 40 40.5t31 9.5q8 0 18 -7t17 -20.5t7 -22.5q0 -7 -4.5 -16t-26.5 -31q-16 -16 -33 -38q-5 -6 -19 -27t-23.5 -29.5t-17.5 -10.5zM303 -12q-48 0 -90 18t-74.5 49t-55 70.5t-38 91
t-15.5 107.5q0 83 20 166q13 53 39 105t63 94t85 67t103 25q44 0 93.5 -22.5t49.5 -53.5q0 -20 -13.5 -35t-32.5 -15q-15 0 -36.5 12.5t-33.5 16.5t-28 4q-40 0 -79 -21.5t-70 -69.5t-50 -116.5t-20 -145.5q0 -43 11.5 -88t34 -83.5t57.5 -61.5t78 -23q29 0 54 12t49.5 38
t41 79.5t20.5 143.5l-105 -8q-37 -5 -45 -5q-21 0 -36.5 16t-15.5 37q0 12 5.5 22t24.5 15.5t79 5.5q23 0 72 8.5t71 8.5q13 0 22 -5q12 -7 18.5 -26t6.5 -31l-3 -41q-6 -109 -27 -174q-11 -34 -32 -69t-51 -61.5t-67.5 -41.5t-79.5 -15z" />
    <glyph glyph-name="Gbreve" unicode="&#x11e;" horiz-adv-x="593" 
d="M349 872q-26 0 -58 15.5t-57.5 50t-25.5 69.5q0 20 13 35t34 15q20 0 29 -10.5t16 -28t10 -24.5q15 -32 40 -32q9 0 17 3.5t13.5 10t8 14t12.5 49.5t43 42q20 0 35.5 -15t15.5 -36v-6q-8 -62 -49 -107t-97 -45zM303 -12q-48 0 -90 18t-74.5 49t-55 70.5t-38 91
t-15.5 107.5q0 83 20 166q13 53 39 105t63 94t85 67t103 25q44 0 93.5 -22.5t49.5 -53.5q0 -20 -13.5 -35t-32.5 -15q-15 0 -36.5 12.5t-33.5 16.5t-28 4q-40 0 -79 -21.5t-70 -69.5t-50 -116.5t-20 -145.5q0 -43 11.5 -88t34 -83.5t57.5 -61.5t78 -23q29 0 54 12t49.5 38
t41 79.5t20.5 143.5l-105 -8q-37 -5 -45 -5q-21 0 -36.5 16t-15.5 37q0 12 5.5 22t24.5 15.5t79 5.5q23 0 72 8.5t71 8.5q13 0 22 -5q12 -7 18.5 -26t6.5 -31l-3 -41q-6 -109 -27 -174q-11 -34 -32 -69t-51 -61.5t-67.5 -41.5t-79.5 -15z" />
    <glyph glyph-name="Gcaron" unicode="&#x1e6;" horiz-adv-x="593" 
d="M371 857q-9 0 -13 2h-8q-8 0 -16.5 2.5t-17.5 8.5t-30 26q-2 2 -18 16t-31 30t-21 30.5t-6 24.5t6.5 20.5t20 17t25.5 6.5q11 0 23 -8.5t18 -19.5q9 -20 47 -51l27 36q20 32 30.5 43t23 14t17.5 3q15 0 25 -9q19 -21 19 -37q0 -15 -23 -44l-38 -51q-1 -1 -13.5 -20.5
t-24 -29.5t-22.5 -10zM303 -12q-48 0 -90 18t-74.5 49t-55 70.5t-38 91t-15.5 107.5q0 83 20 166q13 53 39 105t63 94t85 67t103 25q44 0 93.5 -22.5t49.5 -53.5q0 -20 -13.5 -35t-32.5 -15q-15 0 -36.5 12.5t-33.5 16.5t-28 4q-40 0 -79 -21.5t-70 -69.5t-50 -116.5
t-20 -145.5q0 -43 11.5 -88t34 -83.5t57.5 -61.5t78 -23q29 0 54 12t49.5 38t41 79.5t20.5 143.5l-105 -8q-37 -5 -45 -5q-21 0 -36.5 16t-15.5 37q0 12 5.5 22t24.5 15.5t79 5.5q23 0 72 8.5t71 8.5q13 0 22 -5q12 -7 18.5 -26t6.5 -31l-3 -41q-6 -109 -27 -174
q-11 -34 -32 -69t-51 -61.5t-67.5 -41.5t-79.5 -15z" />
    <glyph glyph-name="Gcircumflex" unicode="&#x11c;" horiz-adv-x="593" 
d="M250 832q-17 0 -32.5 14t-15.5 31q0 9 5.5 20.5t21.5 26.5t19 19l64 73q15 19 34 19q7 0 17 -6t14 -7q17 -7 42 -39q9 -12 32 -34.5t27 -26.5q22 -22 22 -37q0 -12 -13 -32t-31 -21q-29 -1 -47 26q-9 13 -30 34t-27 28q-1 -1 -4 -4.5t-36.5 -43.5t-61.5 -40zM303 -12
q-48 0 -90 18t-74.5 49t-55 70.5t-38 91t-15.5 107.5q0 83 20 166q13 53 39 105t63 94t85 67t103 25q44 0 93.5 -22.5t49.5 -53.5q0 -20 -13.5 -35t-32.5 -15q-15 0 -36.5 12.5t-33.5 16.5t-28 4q-40 0 -79 -21.5t-70 -69.5t-50 -116.5t-20 -145.5q0 -43 11.5 -88t34 -83.5
t57.5 -61.5t78 -23q29 0 54 12t49.5 38t41 79.5t20.5 143.5l-105 -8q-37 -5 -45 -5q-21 0 -36.5 16t-15.5 37q0 12 5.5 22t24.5 15.5t79 5.5q23 0 72 8.5t71 8.5q13 0 22 -5q12 -7 18.5 -26t6.5 -31l-3 -41q-6 -109 -27 -174q-11 -34 -32 -69t-51 -61.5t-67.5 -41.5
t-79.5 -15z" />
    <glyph glyph-name="uni0122" unicode="&#x122;" horiz-adv-x="593" 
d="M303 -12q-48 0 -90 18t-74.5 49t-55 70.5t-38 91t-15.5 107.5q0 83 20 166q13 53 39 105t63 94t85 67t103 25q44 0 93.5 -22.5t49.5 -53.5q0 -20 -13.5 -35t-32.5 -15q-15 0 -36.5 12.5t-33.5 16.5t-28 4q-40 0 -79 -21.5t-70 -69.5t-50 -116.5t-20 -145.5
q0 -43 11.5 -88t34 -83.5t57.5 -61.5t78 -23q29 0 54 12t49.5 38t41 79.5t20.5 143.5l-105 -8q-37 -5 -45 -5q-21 0 -36.5 16t-15.5 37q0 12 5.5 22t24.5 15.5t79 5.5q23 0 72 8.5t71 8.5q13 0 22 -5q12 -7 18.5 -26t6.5 -31l-3 -41q-6 -109 -27 -174q-11 -34 -32 -69
t-51 -61.5t-67.5 -41.5t-79.5 -15zM332 -295q-23 0 -40 17.5t-17 38.5q0 11 8.5 30.5t8.5 29.5l-1 7q-1 2 -10 19t-9 39q0 15 6.5 27.5t20.5 16.5l11 2q25 0 44 -22.5t26 -48t7 -41.5q0 -29 -6.5 -58t-19 -42.5t-24.5 -14.5h-5z" />
    <glyph glyph-name="Gdotaccent" unicode="&#x120;" horiz-adv-x="593" 
d="M352 896q-19 0 -33.5 10t-17.5 29l-1 14q0 21 8.5 33t19.5 17t26 5q17 0 30.5 -10t18.5 -25q4 -9 4 -22q0 -15 -9 -28.5t-23 -18.5q-9 -4 -23 -4zM303 -12q-48 0 -90 18t-74.5 49t-55 70.5t-38 91t-15.5 107.5q0 83 20 166q13 53 39 105t63 94t85 67t103 25
q44 0 93.5 -22.5t49.5 -53.5q0 -20 -13.5 -35t-32.5 -15q-15 0 -36.5 12.5t-33.5 16.5t-28 4q-40 0 -79 -21.5t-70 -69.5t-50 -116.5t-20 -145.5q0 -43 11.5 -88t34 -83.5t57.5 -61.5t78 -23q29 0 54 12t49.5 38t41 79.5t20.5 143.5l-105 -8q-37 -5 -45 -5q-21 0 -36.5 16
t-15.5 37q0 12 5.5 22t24.5 15.5t79 5.5q23 0 72 8.5t71 8.5q13 0 22 -5q12 -7 18.5 -26t6.5 -31l-3 -41q-6 -109 -27 -174q-11 -34 -32 -69t-51 -61.5t-67.5 -41.5t-79.5 -15z" />
    <glyph glyph-name="H" unicode="H" horiz-adv-x="528" 
d="M87 -2q-21 0 -34.5 16.5t-13.5 36.5q0 47 3 134.5t3 105.5q2 134 4 161q-8 16 -8 25q0 35 10 46l-7 187q0 50 47 50q49 0 49 -70q0 -114 -2 -171q23 0 62 2.5t189 16.5q-4 96 -8 146l-3 37q0 52 45 52q51 0 51 -69l3 -166q4 -5 6.5 -19t2.5 -25q0 -17 -8 -25l2 -197
q2 -125 9 -208v-10q0 -41 -42 -41q-22 0 -38 15.5t-16 36.5v13l-2 79l2 180l-1 107q-19 -1 -113.5 -7t-144.5 -11q-2 -36 -2 -107l2 -257q0 -25 -3 -37t-13 -19.5t-31 -7.5z" />
    <glyph glyph-name="Hbar" unicode="&#x126;" horiz-adv-x="528" 
d="M519 330q0 -39 -39 -44v-14q2 -125 9 -208v-10q0 -41 -42 -41q-22 0 -38 15.5t-16 36.5v13l-2 79l2 125q-63 -2 -124 -8l-137 -15l2 -197q0 -25 -3 -37t-13 -19.5t-31 -7.5t-34.5 16.5t-13.5 36.5q0 36 5 208q-15 6 -28 19t-13 30q0 38 43 49l3 95q-8 16 -8 25
q0 35 10 46l-7 187q0 50 47 50q49 0 49 -70q0 -114 -2 -171q23 0 62 2.5t189 16.5q-4 96 -8 146l-3 37q0 52 45 52q51 0 51 -69l3 -166q4 -5 6.5 -19t2.5 -25q0 -17 -8 -25l1 -87q40 -10 40 -52zM164 364q39 0 85 2.5t93 7.5t51 5l-1 65q-19 -1 -113.5 -7t-144.5 -11l-2 -62
h32z" />
    <glyph glyph-name="Hcircumflex" unicode="&#x124;" horiz-adv-x="528" 
d="M153 787q-17 0 -32.5 14t-15.5 31q0 9 5.5 20.5t21.5 26.5t19 19l64 73q15 19 34 19q7 0 17 -6t14 -7q17 -7 42 -39q9 -12 32 -34.5t27 -26.5q22 -22 22 -37q0 -12 -13 -32t-31 -21q-29 -1 -47 26q-9 13 -30 34t-27 28q-1 -1 -4 -4.5t-36.5 -43.5t-61.5 -40zM87 -2
q-21 0 -34.5 16.5t-13.5 36.5q0 47 3 134.5t3 105.5q2 134 4 161q-8 16 -8 25q0 35 10 46l-7 187q0 50 47 50q49 0 49 -70q0 -114 -2 -171q23 0 62 2.5t189 16.5q-4 96 -8 146l-3 37q0 52 45 52q51 0 51 -69l3 -166q4 -5 6.5 -19t2.5 -25q0 -17 -8 -25l2 -197q2 -125 9 -208
v-10q0 -41 -42 -41q-22 0 -38 15.5t-16 36.5v13l-2 79l2 180l-1 107q-19 -1 -113.5 -7t-144.5 -11q-2 -36 -2 -107l2 -257q0 -25 -3 -37t-13 -19.5t-31 -7.5z" />
    <glyph glyph-name="uni1E24" unicode="&#x1e24;" horiz-adv-x="528" 
d="M87 -2q-21 0 -34.5 16.5t-13.5 36.5q0 47 3 134.5t3 105.5q2 134 4 161q-8 16 -8 25q0 35 10 46l-7 187q0 50 47 50q49 0 49 -70q0 -114 -2 -171q23 0 62 2.5t189 16.5q-4 96 -8 146l-3 37q0 52 45 52q51 0 51 -69l3 -166q4 -5 6.5 -19t2.5 -25q0 -17 -8 -25l2 -197
q2 -125 9 -208v-10q0 -41 -42 -41q-22 0 -38 15.5t-16 36.5v13l-2 79l2 180l-1 107q-19 -1 -113.5 -7t-144.5 -11q-2 -36 -2 -107l2 -257q0 -25 -3 -37t-13 -19.5t-31 -7.5zM257 -188q-22 0 -37.5 18t-15.5 39q0 23 14.5 39.5t36.5 17.5h3q37 0 52 -37q4 -8 4 -16
q0 -20 -17.5 -40.5t-39.5 -20.5z" />
    <glyph glyph-name="I" unicode="I" horiz-adv-x="349" 
d="M96 0q-24 0 -42.5 15t-18.5 39q0 12 5.5 22t21 15t63.5 7q0 24 3 142t3 181l-1 241l-33 -2q-31 0 -49 12t-18 36q0 18 9 31t47 17q18 -3 35 -3q26 0 143 10q49 0 49 -44q0 -18 -10.5 -30.5t-30 -16.5t-48.5 -6q-8 -182 -8 -478l1 -86l45 1q20 0 29 -4q13 -5 20.5 -19.5
t7.5 -29.5q0 -18 -20 -30.5t-62 -12.5q-11 0 -31 -3.5t-30 -3.5q-6 0 -15.5 3t-13.5 3q-9 1 -26.5 -2.5t-24.5 -3.5z" />
    <glyph glyph-name="I.aalt" horiz-adv-x="197" 
d="M107 0q-23 0 -41 15t-18 37l2 40q6 212 6 422l-1 172v21l-1 21q0 21 14 39t38 18q21 0 32 -14.5t11 -33.5l-2 -89l-5 -536l1 -62q0 -22 -9 -36t-27 -14z" />
    <glyph glyph-name="IJ" unicode="&#x132;" horiz-adv-x="869" 
d="M574 -14q-29 0 -60 12.5t-57 41t-43 71.5t-17 93q0 20 12.5 32t31.5 12q52 0 52 -43q0 -60 22 -95t61 -35q50 0 74 47t24 127q0 274 -10 435q-5 -1 -20 -1.5t-22 -2.5q-25 0 -43 14t-18 39q0 20 14.5 31t33.5 11h18q27 0 84 4t84 4q22 0 33 -10.5t11 -28.5q0 -24 -17 -40
t-40 -16l-23 1q2 -41 2 -123l-1 -298q0 -48 -4 -88t-19 -76q-22 -52 -65.5 -85t-97.5 -33zM96 0q-24 0 -42.5 15t-18.5 39q0 12 5.5 22t21 15t63.5 7q0 24 3 142t3 181l-1 241l-33 -2q-31 0 -49 12t-18 36q0 18 9 31t47 17q18 -3 35 -3q26 0 143 10q49 0 49 -44
q0 -18 -10.5 -30.5t-30 -16.5t-48.5 -6q-8 -182 -8 -478l1 -86l45 1q20 0 29 -4q13 -5 20.5 -19.5t7.5 -29.5q0 -18 -20 -30.5t-62 -12.5q-11 0 -31 -3.5t-30 -3.5q-6 0 -15.5 3t-13.5 3q-9 1 -26.5 -2.5t-24.5 -3.5z" />
    <glyph glyph-name="IJ.aalt" horiz-adv-x="664" 
d="M107 0q-23 0 -41 15t-18 37l2 40q6 212 6 422l-1 172v21l-1 21q0 21 14 39t38 18q21 0 32 -14.5t11 -33.5l-2 -89l-5 -536l1 -62q0 -22 -9 -36t-27 -14zM430 -13q-35 0 -67 15q-46 23 -82 82.5t-36 110.5q0 20 12.5 30t31.5 10t32 -11t22 -43q8 -29 22 -54t32.5 -36.5
t35.5 -11.5q44 0 68 38.5t24 128.5v298l-5 180q0 19 16 35.5t35 16.5q17 0 29 -14.5t15 -46.5l1 -45v-44l-3 -300l1 -92q0 -68 -15 -114q-20 -57 -65 -95t-104 -38z" />
    <glyph glyph-name="Iacute" unicode="&#xcd;" horiz-adv-x="349" 
d="M130 818q-19 0 -33.5 15.5t-14.5 33.5q0 6 2 14.5t8.5 20t16.5 24t23 27t17 18.5q25 31 40 40.5t31 9.5q8 0 18 -7t17 -20.5t7 -22.5q0 -7 -4.5 -16t-26.5 -31q-16 -16 -33 -38q-5 -6 -19 -27t-23.5 -29.5t-17.5 -10.5zM96 0q-24 0 -42.5 15t-18.5 39q0 12 5.5 22t21 15
t63.5 7q0 24 3 142t3 181l-1 241l-33 -2q-31 0 -49 12t-18 36q0 18 9 31t47 17q18 -3 35 -3q26 0 143 10q49 0 49 -44q0 -18 -10.5 -30.5t-30 -16.5t-48.5 -6q-8 -182 -8 -478l1 -86l45 1q20 0 29 -4q13 -5 20.5 -19.5t7.5 -29.5q0 -18 -20 -30.5t-62 -12.5q-11 0 -31 -3.5
t-30 -3.5q-6 0 -15.5 3t-13.5 3q-9 1 -26.5 -2.5t-24.5 -3.5z" />
    <glyph glyph-name="Iacute.aalt" horiz-adv-x="197" 
d="M68 846q-19 0 -33.5 15.5t-14.5 33.5q0 6 2 14.5t8.5 20t16.5 24t23 27t17 18.5q25 31 40 40.5t31 9.5q8 0 18 -7t17 -20.5t7 -22.5q0 -7 -4.5 -16t-26.5 -31q-16 -16 -33 -38q-5 -6 -19 -27t-23.5 -29.5t-17.5 -10.5zM107 0q-23 0 -41 15t-18 37l2 40q6 212 6 422
l-1 172v21l-1 21q0 21 14 39t38 18q21 0 32 -14.5t11 -33.5l-2 -89l-5 -536l1 -62q0 -22 -9 -36t-27 -14z" />
    <glyph glyph-name="Ibreve" unicode="&#x12c;" horiz-adv-x="349" 
d="M159 838q-26 0 -58 15.5t-57.5 50t-25.5 69.5q0 20 13 35t34 15q20 0 29 -10.5t16 -28t10 -24.5q15 -32 40 -32q9 0 17 3.5t13.5 10t8 14t12.5 49.5t43 42q20 0 35.5 -15t15.5 -36v-6q-8 -62 -49 -107t-97 -45zM96 0q-24 0 -42.5 15t-18.5 39q0 12 5.5 22t21 15t63.5 7
q0 24 3 142t3 181l-1 241l-33 -2q-31 0 -49 12t-18 36q0 18 9 31t47 17q18 -3 35 -3q26 0 143 10q49 0 49 -44q0 -18 -10.5 -30.5t-30 -16.5t-48.5 -6q-8 -182 -8 -478l1 -86l45 1q20 0 29 -4q13 -5 20.5 -19.5t7.5 -29.5q0 -18 -20 -30.5t-62 -12.5q-11 0 -31 -3.5
t-30 -3.5q-6 0 -15.5 3t-13.5 3q-9 1 -26.5 -2.5t-24.5 -3.5z" />
    <glyph glyph-name="Ibreve.aalt" horiz-adv-x="197" 
d="M97 866q-26 0 -58 15.5t-57.5 50t-25.5 69.5q0 20 13 35t34 15q20 0 29 -10.5t16 -28t10 -24.5q15 -32 40 -32q9 0 17 3.5t13.5 10t8 14t12.5 49.5t43 42q20 0 35.5 -15t15.5 -36v-6q-8 -62 -49 -107t-97 -45zM107 0q-23 0 -41 15t-18 37l2 40q6 212 6 422l-1 172v21
l-1 21q0 21 14 39t38 18q21 0 32 -14.5t11 -33.5l-2 -89l-5 -536l1 -62q0 -22 -9 -36t-27 -14z" />
    <glyph glyph-name="uni01CF" unicode="&#x1cf;" horiz-adv-x="349" 
d="M181 823q-9 0 -13 2h-8q-8 0 -16.5 2.5t-17.5 8.5t-30 26q-2 2 -18 16t-31 30t-21 30.5t-6 24.5t6.5 20.5t20 17t25.5 6.5q11 0 23 -8.5t18 -19.5q9 -20 47 -51l27 36q20 32 30.5 43t23 14t17.5 3q15 0 25 -9q19 -21 19 -37q0 -15 -23 -44l-38 -51q-1 -1 -13.5 -20.5
t-24 -29.5t-22.5 -10zM96 0q-24 0 -42.5 15t-18.5 39q0 12 5.5 22t21 15t63.5 7q0 24 3 142t3 181l-1 241l-33 -2q-31 0 -49 12t-18 36q0 18 9 31t47 17q18 -3 35 -3q26 0 143 10q49 0 49 -44q0 -18 -10.5 -30.5t-30 -16.5t-48.5 -6q-8 -182 -8 -478l1 -86l45 1q20 0 29 -4
q13 -5 20.5 -19.5t7.5 -29.5q0 -18 -20 -30.5t-62 -12.5q-11 0 -31 -3.5t-30 -3.5q-6 0 -15.5 3t-13.5 3q-9 1 -26.5 -2.5t-24.5 -3.5z" />
    <glyph glyph-name="uni01CF.aalt" horiz-adv-x="197" 
d="M119 851q-9 0 -13 2h-8q-8 0 -16.5 2.5t-17.5 8.5t-30 26q-2 2 -18 16t-31 30t-21 30.5t-6 24.5t6.5 20.5t20 17t25.5 6.5q11 0 23 -8.5t18 -19.5q9 -20 47 -51l27 36q20 32 30.5 43t23 14t17.5 3q15 0 25 -9q19 -21 19 -37q0 -15 -23 -44l-38 -51q-1 -1 -13.5 -20.5
t-24 -29.5t-22.5 -10zM107 0q-23 0 -41 15t-18 37l2 40q6 212 6 422l-1 172v21l-1 21q0 21 14 39t38 18q21 0 32 -14.5t11 -33.5l-2 -89l-5 -536l1 -62q0 -22 -9 -36t-27 -14z" />
    <glyph glyph-name="Icircumflex" unicode="&#xce;" horiz-adv-x="349" 
d="M60 798q-17 0 -32.5 14t-15.5 31q0 9 5.5 20.5t21.5 26.5t19 19l64 73q15 19 34 19q7 0 17 -6t14 -7q17 -7 42 -39q9 -12 32 -34.5t27 -26.5q22 -22 22 -37q0 -12 -13 -32t-31 -21q-29 -1 -47 26q-9 13 -30 34t-27 28q-1 -1 -4 -4.5t-36.5 -43.5t-61.5 -40zM96 0
q-24 0 -42.5 15t-18.5 39q0 12 5.5 22t21 15t63.5 7q0 24 3 142t3 181l-1 241l-33 -2q-31 0 -49 12t-18 36q0 18 9 31t47 17q18 -3 35 -3q26 0 143 10q49 0 49 -44q0 -18 -10.5 -30.5t-30 -16.5t-48.5 -6q-8 -182 -8 -478l1 -86l45 1q20 0 29 -4q13 -5 20.5 -19.5t7.5 -29.5
q0 -18 -20 -30.5t-62 -12.5q-11 0 -31 -3.5t-30 -3.5q-6 0 -15.5 3t-13.5 3q-9 1 -26.5 -2.5t-24.5 -3.5z" />
    <glyph glyph-name="Icircumflex.aalt" horiz-adv-x="197" 
d="M-2 826q-17 0 -32.5 14t-15.5 31q0 9 5.5 20.5t21.5 26.5t19 19l64 73q15 19 34 19q7 0 17 -6t14 -7q17 -7 42 -39q9 -12 32 -34.5t27 -26.5q22 -22 22 -37q0 -12 -13 -32t-31 -21q-29 -1 -47 26q-9 13 -30 34t-27 28q-1 -1 -4 -4.5t-36.5 -43.5t-61.5 -40zM107 0
q-23 0 -41 15t-18 37l2 40q6 212 6 422l-1 172v21l-1 21q0 21 14 39t38 18q21 0 32 -14.5t11 -33.5l-2 -89l-5 -536l1 -62q0 -22 -9 -36t-27 -14z" />
    <glyph glyph-name="Idieresis" unicode="&#xcf;" horiz-adv-x="349" 
d="M258 817q-22 0 -37.5 18t-15.5 39q0 23 14.5 39.5t36.5 17.5h3q37 0 52 -37q4 -8 4 -16q0 -20 -17.5 -40.5t-39.5 -20.5zM58 821q-19 0 -33.5 10t-17.5 29l-1 14q0 21 8.5 33t19.5 17t26 5q17 0 30.5 -10t18.5 -25q4 -9 4 -22q0 -15 -9 -28.5t-23 -18.5q-9 -4 -23 -4z
M96 0q-24 0 -42.5 15t-18.5 39q0 12 5.5 22t21 15t63.5 7q0 24 3 142t3 181l-1 241l-33 -2q-31 0 -49 12t-18 36q0 18 9 31t47 17q18 -3 35 -3q26 0 143 10q49 0 49 -44q0 -18 -10.5 -30.5t-30 -16.5t-48.5 -6q-8 -182 -8 -478l1 -86l45 1q20 0 29 -4q13 -5 20.5 -19.5
t7.5 -29.5q0 -18 -20 -30.5t-62 -12.5q-11 0 -31 -3.5t-30 -3.5q-6 0 -15.5 3t-13.5 3q-9 1 -26.5 -2.5t-24.5 -3.5z" />
    <glyph glyph-name="Idieresis.aalt" horiz-adv-x="197" 
d="M196 845q-22 0 -37.5 18t-15.5 39q0 23 14.5 39.5t36.5 17.5h3q37 0 52 -37q4 -8 4 -16q0 -20 -17.5 -40.5t-39.5 -20.5zM-4 849q-19 0 -33.5 10t-17.5 29l-1 14q0 21 8.5 33t19.5 17t26 5q17 0 30.5 -10t18.5 -25q4 -9 4 -22q0 -15 -9 -28.5t-23 -18.5q-9 -4 -23 -4z
M107 0q-23 0 -41 15t-18 37l2 40q6 212 6 422l-1 172v21l-1 21q0 21 14 39t38 18q21 0 32 -14.5t11 -33.5l-2 -89l-5 -536l1 -62q0 -22 -9 -36t-27 -14z" />
    <glyph glyph-name="uni1E2E" unicode="&#x1e2e;" horiz-adv-x="349" 
d="M128 991q-19 0 -33.5 15.5t-14.5 33.5q0 6 2 14.5t8.5 20t16.5 24t23 27t17 18.5q25 31 40 40.5t31 9.5q8 0 18 -7t17 -20.5t7 -22.5q0 -7 -4.5 -16t-26.5 -31q-16 -16 -33 -38q-5 -6 -19 -27t-23.5 -29.5t-17.5 -10.5zM258 817q-22 0 -37.5 18t-15.5 39q0 23 14.5 39.5
t36.5 17.5h3q37 0 52 -37q4 -8 4 -16q0 -20 -17.5 -40.5t-39.5 -20.5zM58 821q-19 0 -33.5 10t-17.5 29l-1 14q0 21 8.5 33t19.5 17t26 5q17 0 30.5 -10t18.5 -25q4 -9 4 -22q0 -15 -9 -28.5t-23 -18.5q-9 -4 -23 -4zM96 0q-24 0 -42.5 15t-18.5 39q0 12 5.5 22t21 15
t63.5 7q0 24 3 142t3 181l-1 241l-33 -2q-31 0 -49 12t-18 36q0 18 9 31t47 17q18 -3 35 -3q26 0 143 10q49 0 49 -44q0 -18 -10.5 -30.5t-30 -16.5t-48.5 -6q-8 -182 -8 -478l1 -86l45 1q20 0 29 -4q13 -5 20.5 -19.5t7.5 -29.5q0 -18 -20 -30.5t-62 -12.5q-11 0 -31 -3.5
t-30 -3.5q-6 0 -15.5 3t-13.5 3q-9 1 -26.5 -2.5t-24.5 -3.5z" />
    <glyph glyph-name="uni1E2E.aalt" horiz-adv-x="197" 
d="M66 1019q-19 0 -33.5 15.5t-14.5 33.5q0 6 2 14.5t8.5 20t16.5 24t23 27t17 18.5q25 31 40 40.5t31 9.5q8 0 18 -7t17 -20.5t7 -22.5q0 -7 -4.5 -16t-26.5 -31q-16 -16 -33 -38q-5 -6 -19 -27t-23.5 -29.5t-17.5 -10.5zM196 845q-22 0 -37.5 18t-15.5 39q0 23 14.5 39.5
t36.5 17.5h3q37 0 52 -37q4 -8 4 -16q0 -20 -17.5 -40.5t-39.5 -20.5zM-4 849q-19 0 -33.5 10t-17.5 29l-1 14q0 21 8.5 33t19.5 17t26 5q17 0 30.5 -10t18.5 -25q4 -9 4 -22q0 -15 -9 -28.5t-23 -18.5q-9 -4 -23 -4zM107 0q-23 0 -41 15t-18 37l2 40q6 212 6 422l-1 172v21
l-1 21q0 21 14 39t38 18q21 0 32 -14.5t11 -33.5l-2 -89l-5 -536l1 -62q0 -22 -9 -36t-27 -14z" />
    <glyph glyph-name="Idotaccent" unicode="&#x130;" horiz-adv-x="349" 
d="M162 862q-19 0 -33.5 10t-17.5 29l-1 14q0 21 8.5 33t19.5 17t26 5q17 0 30.5 -10t18.5 -25q4 -9 4 -22q0 -15 -9 -28.5t-23 -18.5q-9 -4 -23 -4zM96 0q-24 0 -42.5 15t-18.5 39q0 12 5.5 22t21 15t63.5 7q0 24 3 142t3 181l-1 241l-33 -2q-31 0 -49 12t-18 36q0 18 9 31
t47 17q18 -3 35 -3q26 0 143 10q49 0 49 -44q0 -18 -10.5 -30.5t-30 -16.5t-48.5 -6q-8 -182 -8 -478l1 -86l45 1q20 0 29 -4q13 -5 20.5 -19.5t7.5 -29.5q0 -18 -20 -30.5t-62 -12.5q-11 0 -31 -3.5t-30 -3.5q-6 0 -15.5 3t-13.5 3q-9 1 -26.5 -2.5t-24.5 -3.5z" />
    <glyph glyph-name="Idotaccent.aalt" horiz-adv-x="197" 
d="M100 890q-19 0 -33.5 10t-17.5 29l-1 14q0 21 8.5 33t19.5 17t26 5q17 0 30.5 -10t18.5 -25q4 -9 4 -22q0 -15 -9 -28.5t-23 -18.5q-9 -4 -23 -4zM107 0q-23 0 -41 15t-18 37l2 40q6 212 6 422l-1 172v21l-1 21q0 21 14 39t38 18q21 0 32 -14.5t11 -33.5l-2 -89l-5 -536
l1 -62q0 -22 -9 -36t-27 -14z" />
    <glyph glyph-name="uni1ECA" unicode="&#x1eca;" horiz-adv-x="349" 
d="M96 0q-24 0 -42.5 15t-18.5 39q0 12 5.5 22t21 15t63.5 7q0 24 3 142t3 181l-1 241l-33 -2q-31 0 -49 12t-18 36q0 18 9 31t47 17q18 -3 35 -3q26 0 143 10q49 0 49 -44q0 -18 -10.5 -30.5t-30 -16.5t-48.5 -6q-8 -182 -8 -478l1 -86l45 1q20 0 29 -4q13 -5 20.5 -19.5
t7.5 -29.5q0 -18 -20 -30.5t-62 -12.5q-11 0 -31 -3.5t-30 -3.5q-6 0 -15.5 3t-13.5 3q-9 1 -26.5 -2.5t-24.5 -3.5zM169 -189q-22 0 -37.5 18t-15.5 39q0 23 14.5 39.5t36.5 17.5h3q37 0 52 -37q4 -8 4 -16q0 -20 -17.5 -40.5t-39.5 -20.5z" />
    <glyph glyph-name="uni1ECA.aalt" horiz-adv-x="197" 
d="M107 0q-23 0 -41 15t-18 37l2 40q6 212 6 422l-1 172v21l-1 21q0 21 14 39t38 18q21 0 32 -14.5t11 -33.5l-2 -89l-5 -536l1 -62q0 -22 -9 -36t-27 -14zM98 -190q-22 0 -37.5 18t-15.5 39q0 23 14.5 39.5t36.5 17.5h3q37 0 52 -37q4 -8 4 -16q0 -20 -17.5 -40.5
t-39.5 -20.5z" />
    <glyph glyph-name="Igrave" unicode="&#xcc;" horiz-adv-x="349" 
d="M203 815q-12 0 -23.5 5.5t-18.5 14.5l-22 30q-4 6 -38 40t-34 59q0 13 6 26t15.5 19t18.5 7q4 0 13 -1.5t16 -7.5t23 -26q20 -25 48 -55q2 -3 15.5 -15.5t21 -22.5t9.5 -17t2 -11q0 -19 -16 -32t-36 -13zM96 0q-24 0 -42.5 15t-18.5 39q0 12 5.5 22t21 15t63.5 7
q0 24 3 142t3 181l-1 241l-33 -2q-31 0 -49 12t-18 36q0 18 9 31t47 17q18 -3 35 -3q26 0 143 10q49 0 49 -44q0 -18 -10.5 -30.5t-30 -16.5t-48.5 -6q-8 -182 -8 -478l1 -86l45 1q20 0 29 -4q13 -5 20.5 -19.5t7.5 -29.5q0 -18 -20 -30.5t-62 -12.5q-11 0 -31 -3.5
t-30 -3.5q-6 0 -15.5 3t-13.5 3q-9 1 -26.5 -2.5t-24.5 -3.5z" />
    <glyph glyph-name="Igrave.aalt" horiz-adv-x="197" 
d="M141 843q-12 0 -23.5 5.5t-18.5 14.5l-22 30q-4 6 -38 40t-34 59q0 13 6 26t15.5 19t18.5 7q4 0 13 -1.5t16 -7.5t23 -26q20 -25 48 -55q2 -3 15.5 -15.5t21 -22.5t9.5 -17t2 -11q0 -19 -16 -32t-36 -13zM107 0q-23 0 -41 15t-18 37l2 40q6 212 6 422l-1 172v21l-1 21
q0 21 14 39t38 18q21 0 32 -14.5t11 -33.5l-2 -89l-5 -536l1 -62q0 -22 -9 -36t-27 -14z" />
    <glyph glyph-name="uni1EC8" unicode="&#x1ec8;" horiz-adv-x="349" 
d="M151 830q-18 0 -32.5 14t-14.5 32q0 16 23.5 44t32 44t8.5 34q0 5 -2.5 10t-5.5 5q-7 0 -23 -13t-24 -13q-25 0 -40.5 14t-15.5 31q0 18 14 34.5t41 27t48 10.5q28 0 52 -15q21 -14 33.5 -39.5t12.5 -51.5q0 -38 -21 -80q-24 -50 -44 -69t-42 -19zM96 0q-24 0 -42.5 15
t-18.5 39q0 12 5.5 22t21 15t63.5 7q0 24 3 142t3 181l-1 241l-33 -2q-31 0 -49 12t-18 36q0 18 9 31t47 17q18 -3 35 -3q26 0 143 10q49 0 49 -44q0 -18 -10.5 -30.5t-30 -16.5t-48.5 -6q-8 -182 -8 -478l1 -86l45 1q20 0 29 -4q13 -5 20.5 -19.5t7.5 -29.5
q0 -18 -20 -30.5t-62 -12.5q-11 0 -31 -3.5t-30 -3.5q-6 0 -15.5 3t-13.5 3q-9 1 -26.5 -2.5t-24.5 -3.5z" />
    <glyph glyph-name="uni1EC8.aalt" horiz-adv-x="197" 
d="M89 858q-18 0 -32.5 14t-14.5 32q0 16 23.5 44t32 44t8.5 34q0 5 -2.5 10t-5.5 5q-7 0 -23 -13t-24 -13q-25 0 -40.5 14t-15.5 31q0 18 14 34.5t41 27t48 10.5q28 0 52 -15q21 -14 33.5 -39.5t12.5 -51.5q0 -38 -21 -80q-24 -50 -44 -69t-42 -19zM107 0q-23 0 -41 15
t-18 37l2 40q6 212 6 422l-1 172v21l-1 21q0 21 14 39t38 18q21 0 32 -14.5t11 -33.5l-2 -89l-5 -536l1 -62q0 -22 -9 -36t-27 -14z" />
    <glyph glyph-name="Imacron" unicode="&#x12a;" horiz-adv-x="349" 
d="M78 828q-22 0 -39.5 14.5t-17.5 38.5q0 17 13 29.5t43 12.5l151 3q37 0 51 -10t14 -28q0 -21 -16 -39.5t-37 -18.5l-15 2l-42 3zM96 0q-24 0 -42.5 15t-18.5 39q0 12 5.5 22t21 15t63.5 7q0 24 3 142t3 181l-1 241l-33 -2q-31 0 -49 12t-18 36q0 18 9 31t47 17
q18 -3 35 -3q26 0 143 10q49 0 49 -44q0 -18 -10.5 -30.5t-30 -16.5t-48.5 -6q-8 -182 -8 -478l1 -86l45 1q20 0 29 -4q13 -5 20.5 -19.5t7.5 -29.5q0 -18 -20 -30.5t-62 -12.5q-11 0 -31 -3.5t-30 -3.5q-6 0 -15.5 3t-13.5 3q-9 1 -26.5 -2.5t-24.5 -3.5z" />
    <glyph glyph-name="Imacron.aalt" horiz-adv-x="197" 
d="M16 856q-22 0 -39.5 14.5t-17.5 38.5q0 17 13 29.5t43 12.5l151 3q37 0 51 -10t14 -28q0 -21 -16 -39.5t-37 -18.5l-15 2l-42 3zM107 0q-23 0 -41 15t-18 37l2 40q6 212 6 422l-1 172v21l-1 21q0 21 14 39t38 18q21 0 32 -14.5t11 -33.5l-2 -89l-5 -536l1 -62
q0 -22 -9 -36t-27 -14z" />
    <glyph glyph-name="Iogonek" unicode="&#x12e;" horiz-adv-x="349" 
d="M286 -100q17 0 31 -15.5t14 -32.5q0 -14 -9 -28t-30 -21.5t-43 -7.5q-44 0 -72 36t-28 81q0 41 28 88h-1q-6 0 -15.5 3t-13.5 3q-9 1 -26.5 -2.5t-24.5 -3.5q-24 0 -42.5 15t-18.5 39q0 12 5.5 22t21 15t63.5 7q0 24 3 142t3 181l-1 241l-33 -2q-31 0 -49 12t-18 36
q0 18 9 31t47 17q18 -3 35 -3q26 0 143 10q49 0 49 -44q0 -18 -10.5 -30.5t-30 -16.5t-48.5 -6q-8 -182 -8 -478l1 -86l45 1q20 0 29 -4q13 -5 20.5 -19.5t7.5 -29.5q0 -16 -15 -28v-2q0 -15 -24 -40t-32.5 -39.5t-8.5 -31.5q0 -9 8 -21q7 0 19.5 6t19.5 6z" />
    <glyph glyph-name="Iogonek.aalt" horiz-adv-x="197" 
d="M149 737l-2 -89l-5 -536l1 -62q0 -17 -6.5 -31t-20.5 -18q-5 -10 -25.5 -31t-28.5 -36.5t-8 -30.5q0 -9 8 -21q7 0 19.5 6t19.5 6q17 0 31 -15.5t14 -32.5q0 -14 -9 -28t-30 -21.5t-43 -7.5q-44 0 -72 36t-28 81q0 25 10.5 52t27.5 50q25 38 46 49l2 35q6 212 6 422
l-1 172v21l-1 21q0 21 14 39t38 18q21 0 32 -14.5t11 -33.5z" />
    <glyph glyph-name="uni0197" unicode="&#x197;" horiz-adv-x="349" 
d="M293 368l-76 -1l-1 -179l1 -86l45 1q20 0 29 -4q13 -5 20.5 -19.5t7.5 -29.5q0 -18 -20 -30.5t-62 -12.5q-11 0 -31 -3.5t-30 -3.5q-6 0 -15.5 3t-13.5 3q-9 1 -26.5 -2.5t-24.5 -3.5q-24 0 -42.5 15t-18.5 39q0 12 5.5 22t21 15t63.5 7l6 263q-13 -1 -41.5 -7t-46.5 -6
q-50 0 -50 50v8q2 20 17.5 30.5t36.5 12.5l84 6l-1 207l-33 -2q-31 0 -49 12t-18 36q0 18 9 31t47 17q18 -3 35 -3q26 0 143 10q49 0 49 -44q0 -18 -10.5 -30.5t-30 -16.5t-48.5 -6q-4 -102 -6 -203l46 5l33 2q22 0 34.5 -12t12.5 -30q0 -22 -15 -41t-36 -19z" />
    <glyph glyph-name="uni0197.aalt" horiz-adv-x="197" 
d="M224 470q22 0 34.5 -12t12.5 -30q0 -22 -15 -41t-36 -19l-76 -1l-2 -255l1 -62q0 -22 -9 -36t-27 -14q-23 0 -41 15t-18 37l2 40q3 91 5 269q-9 -1 -37.5 -7t-47.5 -6q-50 0 -50 50v8q2 20 17.5 30.5t36.5 12.5l82 6v59l-1 172v21l-1 21q0 21 14 39t38 18q21 0 32 -14.5
t11 -33.5l-2 -89l-1 -185l45 5z" />
    <glyph glyph-name="Itilde" unicode="&#x128;" horiz-adv-x="349" 
d="M230 822q-37 0 -92 36q-27 18 -37 18q-4 -1 -10 -7.5t-7 -7.5q-19 -15 -49 -15q-41 0 -41 37q0 16 12 36t39 35t49 15q41 0 90 -34q3 -2 13.5 -8.5t16.5 -9t10 -2.5q10 1 12 4q7 18 36 20h11q18 0 31.5 -10t13.5 -30q0 -32 -31.5 -54.5t-66.5 -22.5zM96 0q-24 0 -42.5 15
t-18.5 39q0 12 5.5 22t21 15t63.5 7q0 24 3 142t3 181l-1 241l-33 -2q-31 0 -49 12t-18 36q0 18 9 31t47 17q18 -3 35 -3q26 0 143 10q49 0 49 -44q0 -18 -10.5 -30.5t-30 -16.5t-48.5 -6q-8 -182 -8 -478l1 -86l45 1q20 0 29 -4q13 -5 20.5 -19.5t7.5 -29.5
q0 -18 -20 -30.5t-62 -12.5q-11 0 -31 -3.5t-30 -3.5q-6 0 -15.5 3t-13.5 3q-9 1 -26.5 -2.5t-24.5 -3.5z" />
    <glyph glyph-name="Itilde.aalt" horiz-adv-x="197" 
d="M168 850q-37 0 -92 36q-27 18 -37 18q-4 -1 -10 -7.5t-7 -7.5q-19 -15 -49 -15q-41 0 -41 37q0 16 12 36t39 35t49 15q41 0 90 -34q3 -2 13.5 -8.5t16.5 -9t10 -2.5q10 1 12 4q7 18 36 20h11q18 0 31.5 -10t13.5 -30q0 -32 -31.5 -54.5t-66.5 -22.5zM107 0q-23 0 -41 15
t-18 37l2 40q6 212 6 422l-1 172v21l-1 21q0 21 14 39t38 18q21 0 32 -14.5t11 -33.5l-2 -89l-5 -536l1 -62q0 -22 -9 -36t-27 -14z" />
    <glyph glyph-name="J" unicode="J" horiz-adv-x="520" 
d="M225 -14q-29 0 -60 12.5t-57 41t-43 71.5t-17 93q0 20 12.5 32t31.5 12q52 0 52 -43q0 -60 22 -95t61 -35q50 0 74 47t24 127q0 274 -10 435q-5 -1 -20 -1.5t-22 -2.5q-25 0 -43 14t-18 39q0 20 14.5 31t33.5 11h18q27 0 84 4t84 4q22 0 33 -10.5t11 -28.5q0 -24 -17 -40
t-40 -16l-23 1q2 -41 2 -123l-1 -298q0 -48 -4 -88t-19 -76q-22 -52 -65.5 -85t-97.5 -33z" />
    <glyph glyph-name="J.aalt" horiz-adv-x="467" 
d="M233 -13q-35 0 -67 15q-46 23 -82 82.5t-36 110.5q0 20 12.5 30t31.5 10t32 -11t22 -43q8 -29 22 -54t32.5 -36.5t35.5 -11.5q44 0 68 38.5t24 128.5v298l-5 180q0 19 16 35.5t35 16.5q17 0 29 -14.5t15 -46.5l1 -45v-44l-3 -300l1 -92q0 -68 -15 -114q-20 -57 -65 -95
t-104 -38z" />
    <glyph glyph-name="Jcircumflex" unicode="&#x134;" horiz-adv-x="520" 
d="M252 812q-17 0 -32.5 14t-15.5 31q0 9 5.5 20.5t21.5 26.5t19 19l64 73q15 19 34 19q7 0 17 -6t14 -7q17 -7 42 -39q9 -12 32 -34.5t27 -26.5q22 -22 22 -37q0 -12 -13 -32t-31 -21q-29 -1 -47 26q-9 13 -30 34t-27 28q-1 -1 -4 -4.5t-36.5 -43.5t-61.5 -40zM225 -14
q-29 0 -60 12.5t-57 41t-43 71.5t-17 93q0 20 12.5 32t31.5 12q52 0 52 -43q0 -60 22 -95t61 -35q50 0 74 47t24 127q0 274 -10 435q-5 -1 -20 -1.5t-22 -2.5q-25 0 -43 14t-18 39q0 20 14.5 31t33.5 11h18q27 0 84 4t84 4q22 0 33 -10.5t11 -28.5q0 -24 -17 -40t-40 -16
l-23 1q2 -41 2 -123l-1 -298q0 -48 -4 -88t-19 -76q-22 -52 -65.5 -85t-97.5 -33z" />
    <glyph glyph-name="Jcircumflex.aalt" horiz-adv-x="467" 
d="M267 809q-17 0 -32.5 14t-15.5 31q0 9 5.5 20.5t21.5 26.5t19 19l64 73q15 19 34 19q7 0 17 -6t14 -7q17 -7 42 -39q9 -12 32 -34.5t27 -26.5q22 -22 22 -37q0 -12 -13 -32t-31 -21q-29 -1 -47 26q-9 13 -30 34t-27 28q-1 -1 -4 -4.5t-36.5 -43.5t-61.5 -40zM233 -13
q-35 0 -67 15q-46 23 -82 82.5t-36 110.5q0 20 12.5 30t31.5 10t32 -11t22 -43q8 -29 22 -54t32.5 -36.5t35.5 -11.5q44 0 68 38.5t24 128.5v298l-5 180q0 19 16 35.5t35 16.5q17 0 29 -14.5t15 -46.5l1 -45v-44l-3 -300l1 -92q0 -68 -15 -114q-20 -57 -65 -95t-104 -38z
" />
    <glyph glyph-name="K" unicode="K" horiz-adv-x="515" 
d="M94 0q-20 0 -34 11t-14 28l5 198q0 76 -6 237t-6 237q0 52 38 52q24 0 40.5 -12.5t16.5 -34.5l-2 -87l1 -89q125 103 186 175q24 28 38 38t26 10q17 0 31.5 -17.5t14.5 -33.5q0 -8 -5 -19t-36 -40q-32 -30 -105 -91.5t-108 -95.5l5.5 -5.5t13.5 -17t11 -14.5
q72 -101 163 -207.5t103 -120.5q14 -18 14 -32q0 -18 -16.5 -32t-32.5 -14q-30 0 -55 39q-80 96 -246 311l7 -270q0 -49 -3.5 -69.5t-15.5 -27t-29 -6.5z" />
    <glyph glyph-name="uni01E8" unicode="&#x1e8;" horiz-adv-x="515" 
d="M279 812q-9 0 -13 2h-8q-8 0 -16.5 2.5t-17.5 8.5t-30 26q-2 2 -18 16t-31 30t-21 30.5t-6 24.5t6.5 20.5t20 17t25.5 6.5q11 0 23 -8.5t18 -19.5q9 -20 47 -51l27 36q20 32 30.5 43t23 14t17.5 3q15 0 25 -9q19 -21 19 -37q0 -15 -23 -44l-38 -51q-1 -1 -13.5 -20.5
t-24 -29.5t-22.5 -10zM94 0q-20 0 -34 11t-14 28l5 198q0 76 -6 237t-6 237q0 52 38 52q24 0 40.5 -12.5t16.5 -34.5l-2 -87l1 -89q125 103 186 175q24 28 38 38t26 10q17 0 31.5 -17.5t14.5 -33.5q0 -8 -5 -19t-36 -40q-32 -30 -105 -91.5t-108 -95.5l5.5 -5.5t13.5 -17
t11 -14.5q72 -101 163 -207.5t103 -120.5q14 -18 14 -32q0 -18 -16.5 -32t-32.5 -14q-30 0 -55 39q-80 96 -246 311l7 -270q0 -49 -3.5 -69.5t-15.5 -27t-29 -6.5z" />
    <glyph glyph-name="uni0136" unicode="&#x136;" horiz-adv-x="515" 
d="M94 0q-20 0 -34 11t-14 28l5 198q0 76 -6 237t-6 237q0 52 38 52q24 0 40.5 -12.5t16.5 -34.5l-2 -87l1 -89q125 103 186 175q24 28 38 38t26 10q17 0 31.5 -17.5t14.5 -33.5q0 -8 -5 -19t-36 -40q-32 -30 -105 -91.5t-108 -95.5l5.5 -5.5t13.5 -17t11 -14.5
q72 -101 163 -207.5t103 -120.5q14 -18 14 -32q0 -18 -16.5 -32t-32.5 -14q-30 0 -55 39q-80 96 -246 311l7 -270q0 -49 -3.5 -69.5t-15.5 -27t-29 -6.5zM260 -281q-23 0 -40 17.5t-17 38.5q0 11 8.5 30.5t8.5 29.5l-1 7q-1 2 -10 19t-9 39q0 15 6.5 27.5t20.5 16.5l11 2
q25 0 44 -22.5t26 -48t7 -41.5q0 -29 -6.5 -58t-19 -42.5t-24.5 -14.5h-5z" />
    <glyph glyph-name="L" unicode="L" horiz-adv-x="510" 
d="M106 0q-21 0 -36.5 15.5t-15.5 36.5l4 361q0 174 -10 294q0 34 13 46t34 12q48 0 48 -63q0 -361 6 -601h5l21 2q83 11 150 16q13 1 50 5t56 4q16 0 24 -6q10 -7 17.5 -20.5t7.5 -23.5q0 -22 -20.5 -34.5t-77.5 -12.5q-25 0 -52 -2t-151 -20q-26 -4 -39 -4h-7z" />
    <glyph glyph-name="Lacute" unicode="&#x139;" horiz-adv-x="510" 
d="M241 807q-19 0 -33.5 15.5t-14.5 33.5q0 6 2 14.5t8.5 20t16.5 24t23 27t17 18.5q25 31 40 40.5t31 9.5q8 0 18 -7t17 -20.5t7 -22.5q0 -7 -4.5 -16t-26.5 -31q-16 -16 -33 -38q-5 -6 -19 -27t-23.5 -29.5t-17.5 -10.5zM106 0q-21 0 -36.5 15.5t-15.5 36.5l4 361
q0 174 -10 294q0 34 13 46t34 12q48 0 48 -63q0 -361 6 -601h5l21 2q83 11 150 16q13 1 50 5t56 4q16 0 24 -6q10 -7 17.5 -20.5t7.5 -23.5q0 -22 -20.5 -34.5t-77.5 -12.5q-25 0 -52 -2t-151 -20q-26 -4 -39 -4h-7z" />
    <glyph glyph-name="Lcaron" unicode="&#x13d;" horiz-adv-x="510" 
d="M292 812q-9 0 -13 2h-8q-8 0 -16.5 2.5t-17.5 8.5t-30 26q-2 2 -18 16t-31 30t-21 30.5t-6 24.5t6.5 20.5t20 17t25.5 6.5q11 0 23 -8.5t18 -19.5q9 -20 47 -51l27 36q20 32 30.5 43t23 14t17.5 3q15 0 25 -9q19 -21 19 -37q0 -15 -23 -44l-38 -51q-1 -1 -13.5 -20.5
t-24 -29.5t-22.5 -10zM106 0q-21 0 -36.5 15.5t-15.5 36.5l4 361q0 174 -10 294q0 34 13 46t34 12q48 0 48 -63q0 -361 6 -601h5l21 2q83 11 150 16q13 1 50 5t56 4q16 0 24 -6q10 -7 17.5 -20.5t7.5 -23.5q0 -22 -20.5 -34.5t-77.5 -12.5q-25 0 -52 -2t-151 -20
q-26 -4 -39 -4h-7z" />
    <glyph glyph-name="uni1E3C" unicode="&#x1e3c;" horiz-adv-x="510" 
d="M106 0q-21 0 -36.5 15.5t-15.5 36.5l4 361q0 174 -10 294q0 34 13 46t34 12q48 0 48 -63q0 -361 6 -601h5l21 2q83 11 150 16q13 1 50 5t56 4q16 0 24 -6q10 -7 17.5 -20.5t7.5 -23.5q0 -22 -20.5 -34.5t-77.5 -12.5q-25 0 -52 -2t-151 -20q-26 -4 -39 -4h-7zM171 -256
q-17 0 -32.5 14t-15.5 31q0 9 5.5 20.5t21.5 26.5t19 19l64 73q15 19 34 19q7 0 17 -6t14 -7q17 -7 42 -39q9 -12 32 -34.5t27 -26.5q22 -22 22 -37q0 -12 -13 -32t-31 -21q-29 -1 -47 26q-9 13 -30 34t-27 28q-1 -1 -4 -4.5t-36.5 -43.5t-61.5 -40z" />
    <glyph glyph-name="uni013B" unicode="&#x13b;" horiz-adv-x="510" 
d="M106 0q-21 0 -36.5 15.5t-15.5 36.5l4 361q0 174 -10 294q0 34 13 46t34 12q48 0 48 -63q0 -361 6 -601h5l21 2q83 11 150 16q13 1 50 5t56 4q16 0 24 -6q10 -7 17.5 -20.5t7.5 -23.5q0 -22 -20.5 -34.5t-77.5 -12.5q-25 0 -52 -2t-151 -20q-26 -4 -39 -4h-7zM273 -281
q-23 0 -40 17.5t-17 38.5q0 11 8.5 30.5t8.5 29.5l-1 7q-1 2 -10 19t-9 39q0 15 6.5 27.5t20.5 16.5l11 2q25 0 44 -22.5t26 -48t7 -41.5q0 -29 -6.5 -58t-19 -42.5t-24.5 -14.5h-5z" />
    <glyph glyph-name="Ldot" unicode="&#x13f;" horiz-adv-x="510" 
d="M106 0q-21 0 -36.5 15.5t-15.5 36.5l4 361q0 174 -10 294q0 34 13 46t34 12q48 0 48 -63q0 -361 6 -601h5l21 2q83 11 150 16q13 1 50 5t56 4q16 0 24 -6q10 -7 17.5 -20.5t7.5 -23.5q0 -22 -20.5 -34.5t-77.5 -12.5q-25 0 -52 -2t-151 -20q-26 -4 -39 -4h-7zM296 506
q-19 0 -33.5 10t-17.5 29l-1 14q0 21 8.5 33t19.5 17t26 5q17 0 30.5 -10t18.5 -25q4 -9 4 -22q0 -15 -9 -28.5t-23 -18.5q-9 -4 -23 -4z" />
    <glyph glyph-name="uni1E36" unicode="&#x1e36;" horiz-adv-x="510" 
d="M106 0q-21 0 -36.5 15.5t-15.5 36.5l4 361q0 174 -10 294q0 34 13 46t34 12q48 0 48 -63q0 -361 6 -601h5l21 2q83 11 150 16q13 1 50 5t56 4q16 0 24 -6q10 -7 17.5 -20.5t7.5 -23.5q0 -22 -20.5 -34.5t-77.5 -12.5q-25 0 -52 -2t-151 -20q-26 -4 -39 -4h-7zM269 -190
q-22 0 -37.5 18t-15.5 39q0 23 14.5 39.5t36.5 17.5h3q37 0 52 -37q4 -8 4 -16q0 -20 -17.5 -40.5t-39.5 -20.5z" />
    <glyph glyph-name="Lslash" unicode="&#x141;" horiz-adv-x="589" 
d="M534 122q10 -7 17.5 -20.5t7.5 -23.5q0 -22 -20.5 -34.5t-77.5 -12.5q-25 0 -52 -2t-151 -20q-26 -4 -39 -4h-7l-27 -5q-21 0 -36.5 15.5t-15.5 36.5l2 156l-7 -13l-22 -45q-9 -19 -18.5 -30.5t-25.5 -11.5q-18 0 -34.5 13.5t-17.5 22.5l-2 10l1 9q2 8 7 13q4 8 15.5 29
t55 96t50.5 87v25q0 174 -10 294q0 34 13 46t34 12q48 0 48 -63v-153q17 35 31 74q8 22 19 36t29 13h4q15 -3 30 -17.5t15 -30.5l-1 -2l-1 -10l-6 -16q-18 -33 -49 -95l-70 -123l5 -277h5l21 2q83 11 150 16q13 1 50 5t56 4q16 0 24 -6z" />
    <glyph glyph-name="M" unicode="M" horiz-adv-x="749" 
d="M83 -6q-22 0 -37.5 14t-15.5 35q0 9 4 17q10 41 49.5 192.5t59 241.5t30.5 154q10 61 13 67q-3 8 -3 22q0 20 14 29.5t32 9.5q12 0 23.5 -5t19 -19.5t15.5 -58.5q41 -226 89 -428q38 129 96 408q11 66 17 81t15.5 23t25.5 8q21 0 35.5 -13.5t15.5 -32.5l-1 -7l5 -34
q14 -110 37 -220l95 -423l2 -16q0 -22 -13.5 -31.5t-32.5 -9.5q-18 0 -31.5 9.5t-17.5 27.5q-26 155 -95 462q-17 -70 -55 -204.5t-51 -184.5q-10 -40 -17 -53.5t-18.5 -20t-27.5 -6.5q-19 0 -30.5 13.5t-11.5 31.5l2 21q-2 5 -4.5 13.5t-4.5 24t-3 19.5q-19 106 -73 348
q-39 -140 -102 -431q-1 -3 -4 -18.5t-7 -26.5t-10.5 -17.5t-14 -9t-14.5 -2.5z" />
    <glyph glyph-name="uni1E3E" unicode="&#x1e3e;" horiz-adv-x="749" 
d="M345 832q-19 0 -33.5 15.5t-14.5 33.5q0 6 2 14.5t8.5 20t16.5 24t23 27t17 18.5q25 31 40 40.5t31 9.5q8 0 18 -7t17 -20.5t7 -22.5q0 -7 -4.5 -16t-26.5 -31q-16 -16 -33 -38q-5 -6 -19 -27t-23.5 -29.5t-17.5 -10.5zM83 -6q-22 0 -37.5 14t-15.5 35q0 9 4 17
q10 41 49.5 192.5t59 241.5t30.5 154q10 61 13 67q-3 8 -3 22q0 20 14 29.5t32 9.5q12 0 23.5 -5t19 -19.5t15.5 -58.5q41 -226 89 -428q38 129 96 408q11 66 17 81t15.5 23t25.5 8q21 0 35.5 -13.5t15.5 -32.5l-1 -7l5 -34q14 -110 37 -220l95 -423l2 -16
q0 -22 -13.5 -31.5t-32.5 -9.5q-18 0 -31.5 9.5t-17.5 27.5q-26 155 -95 462q-17 -70 -55 -204.5t-51 -184.5q-10 -40 -17 -53.5t-18.5 -20t-27.5 -6.5q-19 0 -30.5 13.5t-11.5 31.5l2 21q-2 5 -4.5 13.5t-4.5 24t-3 19.5q-19 106 -73 348q-39 -140 -102 -431
q-1 -3 -4 -18.5t-7 -26.5t-10.5 -17.5t-14 -9t-14.5 -2.5z" />
    <glyph glyph-name="N" unicode="N" horiz-adv-x="556" 
d="M81 -6q-19 0 -30.5 16.5t-11.5 34.5v6q8 143 8 321l-2 315q0 23 15.5 40t38.5 17q14 0 27 -8.5t18 -21.5q28 -50 120.5 -224t152.5 -268q9 254 9 342q0 53 -4 157q0 34 12 45.5t32 11.5q21 0 36.5 -14.5t14.5 -52.5q-10 -388 -10 -583l2 -39q0 -72 -50 -72q-37 0 -62 49
q-17 32 -68.5 132.5t-96.5 183.5t-93 160q0 -63 -2.5 -232t-2.5 -255q0 -28 -14.5 -44.5t-38.5 -16.5z" />
    <glyph glyph-name="Nacute" unicode="&#x143;" horiz-adv-x="556" 
d="M273 807q-19 0 -33.5 15.5t-14.5 33.5q0 6 2 14.5t8.5 20t16.5 24t23 27t17 18.5q25 31 40 40.5t31 9.5q8 0 18 -7t17 -20.5t7 -22.5q0 -7 -4.5 -16t-26.5 -31q-16 -16 -33 -38q-5 -6 -19 -27t-23.5 -29.5t-17.5 -10.5zM81 -6q-19 0 -30.5 16.5t-11.5 34.5v6q8 143 8 321
l-2 315q0 23 15.5 40t38.5 17q14 0 27 -8.5t18 -21.5q28 -50 120.5 -224t152.5 -268q9 254 9 342q0 53 -4 157q0 34 12 45.5t32 11.5q21 0 36.5 -14.5t14.5 -52.5q-10 -388 -10 -583l2 -39q0 -72 -50 -72q-37 0 -62 49q-17 32 -68.5 132.5t-96.5 183.5t-93 160
q0 -63 -2.5 -232t-2.5 -255q0 -28 -14.5 -44.5t-38.5 -16.5z" />
    <glyph glyph-name="Ncaron" unicode="&#x147;" horiz-adv-x="556" 
d="M324 812q-9 0 -13 2h-8q-8 0 -16.5 2.5t-17.5 8.5t-30 26q-2 2 -18 16t-31 30t-21 30.5t-6 24.5t6.5 20.5t20 17t25.5 6.5q11 0 23 -8.5t18 -19.5q9 -20 47 -51l27 36q20 32 30.5 43t23 14t17.5 3q15 0 25 -9q19 -21 19 -37q0 -15 -23 -44l-38 -51q-1 -1 -13.5 -20.5
t-24 -29.5t-22.5 -10zM81 -6q-19 0 -30.5 16.5t-11.5 34.5v6q8 143 8 321l-2 315q0 23 15.5 40t38.5 17q14 0 27 -8.5t18 -21.5q28 -50 120.5 -224t152.5 -268q9 254 9 342q0 53 -4 157q0 34 12 45.5t32 11.5q21 0 36.5 -14.5t14.5 -52.5q-10 -388 -10 -583l2 -39
q0 -72 -50 -72q-37 0 -62 49q-17 32 -68.5 132.5t-96.5 183.5t-93 160q0 -63 -2.5 -232t-2.5 -255q0 -28 -14.5 -44.5t-38.5 -16.5z" />
    <glyph glyph-name="uni1E4A" unicode="&#x1e4a;" horiz-adv-x="556" 
d="M81 -6q-19 0 -30.5 16.5t-11.5 34.5v6q8 143 8 321l-2 315q0 23 15.5 40t38.5 17q14 0 27 -8.5t18 -21.5q28 -50 120.5 -224t152.5 -268q9 254 9 342q0 53 -4 157q0 34 12 45.5t32 11.5q21 0 36.5 -14.5t14.5 -52.5q-10 -388 -10 -583l2 -39q0 -72 -50 -72q-37 0 -62 49
q-17 32 -68.5 132.5t-96.5 183.5t-93 160q0 -63 -2.5 -232t-2.5 -255q0 -28 -14.5 -44.5t-38.5 -16.5zM203 -256q-17 0 -32.5 14t-15.5 31q0 9 5.5 20.5t21.5 26.5t19 19l64 73q15 19 34 19q7 0 17 -6t14 -7q17 -7 42 -39q9 -12 32 -34.5t27 -26.5q22 -22 22 -37
q0 -12 -13 -32t-31 -21q-29 -1 -47 26q-9 13 -30 34t-27 28q-1 -1 -4 -4.5t-36.5 -43.5t-61.5 -40z" />
    <glyph glyph-name="uni0145" unicode="&#x145;" horiz-adv-x="556" 
d="M81 -6q-19 0 -30.5 16.5t-11.5 34.5v6q8 143 8 321l-2 315q0 23 15.5 40t38.5 17q14 0 27 -8.5t18 -21.5q28 -50 120.5 -224t152.5 -268q9 254 9 342q0 53 -4 157q0 34 12 45.5t32 11.5q21 0 36.5 -14.5t14.5 -52.5q-10 -388 -10 -583l2 -39q0 -72 -50 -72q-37 0 -62 49
q-17 32 -68.5 132.5t-96.5 183.5t-93 160q0 -63 -2.5 -232t-2.5 -255q0 -28 -14.5 -44.5t-38.5 -16.5zM305 -281q-23 0 -40 17.5t-17 38.5q0 11 8.5 30.5t8.5 29.5l-1 7q-1 2 -10 19t-9 39q0 15 6.5 27.5t20.5 16.5l11 2q25 0 44 -22.5t26 -48t7 -41.5q0 -29 -6.5 -58
t-19 -42.5t-24.5 -14.5h-5z" />
    <glyph glyph-name="uni1E44" unicode="&#x1e44;" horiz-adv-x="556" 
d="M305 851q-19 0 -33.5 10t-17.5 29l-1 14q0 21 8.5 33t19.5 17t26 5q17 0 30.5 -10t18.5 -25q4 -9 4 -22q0 -15 -9 -28.5t-23 -18.5q-9 -4 -23 -4zM81 -6q-19 0 -30.5 16.5t-11.5 34.5v6q8 143 8 321l-2 315q0 23 15.5 40t38.5 17q14 0 27 -8.5t18 -21.5
q28 -50 120.5 -224t152.5 -268q9 254 9 342q0 53 -4 157q0 34 12 45.5t32 11.5q21 0 36.5 -14.5t14.5 -52.5q-10 -388 -10 -583l2 -39q0 -72 -50 -72q-37 0 -62 49q-17 32 -68.5 132.5t-96.5 183.5t-93 160q0 -63 -2.5 -232t-2.5 -255q0 -28 -14.5 -44.5t-38.5 -16.5z" />
    <glyph glyph-name="uni1E46" unicode="&#x1e46;" horiz-adv-x="556" 
d="M81 -6q-19 0 -30.5 16.5t-11.5 34.5v6q8 143 8 321l-2 315q0 23 15.5 40t38.5 17q14 0 27 -8.5t18 -21.5q28 -50 120.5 -224t152.5 -268q9 254 9 342q0 53 -4 157q0 34 12 45.5t32 11.5q21 0 36.5 -14.5t14.5 -52.5q-10 -388 -10 -583l2 -39q0 -72 -50 -72q-37 0 -62 49
q-17 32 -68.5 132.5t-96.5 183.5t-93 160q0 -63 -2.5 -232t-2.5 -255q0 -28 -14.5 -44.5t-38.5 -16.5zM301 -190q-22 0 -37.5 18t-15.5 39q0 23 14.5 39.5t36.5 17.5h3q37 0 52 -37q4 -8 4 -16q0 -20 -17.5 -40.5t-39.5 -20.5z" />
    <glyph glyph-name="Eng" unicode="&#x14a;" horiz-adv-x="556" 
d="M466 778q21 0 36.5 -14.5t14.5 -52.5q-10 -388 -10 -583l2 -39q0 -21 -4 -36v-33q-1 -28 -13.5 -60.5t-35.5 -54.5t-48 -29t-49 -5q-28 3 -54.5 23t-26.5 49q0 20 15 30t33 10q16 0 30 -11t22 -11q12 -1 22.5 17t11.5 39q1 8 -1 27l-14 22q-17 32 -68.5 132.5
t-96.5 183.5t-93 160q0 -63 -2.5 -232t-2.5 -255q0 -28 -14.5 -44.5t-38.5 -16.5q-19 0 -30.5 16.5t-11.5 34.5v6q8 143 8 321l-2 315q0 23 15.5 40t38.5 17q14 0 27 -8.5t18 -21.5q28 -50 120.5 -224t152.5 -268q9 254 9 342q0 53 -4 157q0 34 12 45.5t32 11.5z" />
    <glyph glyph-name="Ntilde" unicode="&#xd1;" horiz-adv-x="556" 
d="M373 811q-37 0 -92 36q-27 18 -37 18q-4 -1 -10 -7.5t-7 -7.5q-19 -15 -49 -15q-41 0 -41 37q0 16 12 36t39 35t49 15q41 0 90 -34q3 -2 13.5 -8.5t16.5 -9t10 -2.5q10 1 12 4q7 18 36 20h11q18 0 31.5 -10t13.5 -30q0 -32 -31.5 -54.5t-66.5 -22.5zM81 -6
q-19 0 -30.5 16.5t-11.5 34.5v6q8 143 8 321l-2 315q0 23 15.5 40t38.5 17q14 0 27 -8.5t18 -21.5q28 -50 120.5 -224t152.5 -268q9 254 9 342q0 53 -4 157q0 34 12 45.5t32 11.5q21 0 36.5 -14.5t14.5 -52.5q-10 -388 -10 -583l2 -39q0 -72 -50 -72q-37 0 -62 49
q-17 32 -68.5 132.5t-96.5 183.5t-93 160q0 -63 -2.5 -232t-2.5 -255q0 -28 -14.5 -44.5t-38.5 -16.5z" />
    <glyph glyph-name="O" unicode="O" horiz-adv-x="644" 
d="M289 -16q-47 0 -94 22t-83.5 70.5t-59 118t-22.5 148.5q0 93 25 178t64.5 142t92.5 88.5t121 31.5q32 0 71.5 -10.5t93.5 -45.5q31 -21 58.5 -60t42 -101t15.5 -125q0 -95 -25.5 -182.5t-61 -139t-68 -77t-74 -42t-96.5 -16.5zM282 74q37 0 76 15.5t73 55t54 88.5
q17 45 26.5 100t9.5 105q0 51 -12 100.5t-39 83.5q-28 35 -66 52t-73 17q-27 0 -58.5 -12t-59.5 -42t-49.5 -76t-33.5 -105.5t-12 -109.5q0 -71 22 -136q18 -54 55.5 -95t86.5 -41z" />
    <glyph glyph-name="Oacute" unicode="&#xd3;" horiz-adv-x="644" 
d="M294 844q-19 0 -33.5 15.5t-14.5 33.5q0 6 2 14.5t8.5 20t16.5 24t23 27t17 18.5q25 31 40 40.5t31 9.5q8 0 18 -7t17 -20.5t7 -22.5q0 -7 -4.5 -16t-26.5 -31q-16 -16 -33 -38q-5 -6 -19 -27t-23.5 -29.5t-17.5 -10.5zM289 -16q-47 0 -94 22t-83.5 70.5t-59 118
t-22.5 148.5q0 93 25 178t64.5 142t92.5 88.5t121 31.5q32 0 71.5 -10.5t93.5 -45.5q31 -21 58.5 -60t42 -101t15.5 -125q0 -95 -25.5 -182.5t-61 -139t-68 -77t-74 -42t-96.5 -16.5zM282 74q37 0 76 15.5t73 55t54 88.5q17 45 26.5 100t9.5 105q0 51 -12 100.5t-39 83.5
q-28 35 -66 52t-73 17q-27 0 -58.5 -12t-59.5 -42t-49.5 -76t-33.5 -105.5t-12 -109.5q0 -71 22 -136q18 -54 55.5 -95t86.5 -41z" />
    <glyph glyph-name="Obreve" unicode="&#x14e;" horiz-adv-x="644" 
d="M323 864q-26 0 -58 15.5t-57.5 50t-25.5 69.5q0 20 13 35t34 15q20 0 29 -10.5t16 -28t10 -24.5q15 -32 40 -32q9 0 17 3.5t13.5 10t8 14t12.5 49.5t43 42q20 0 35.5 -15t15.5 -36v-6q-8 -62 -49 -107t-97 -45zM289 -16q-47 0 -94 22t-83.5 70.5t-59 118t-22.5 148.5
q0 93 25 178t64.5 142t92.5 88.5t121 31.5q32 0 71.5 -10.5t93.5 -45.5q31 -21 58.5 -60t42 -101t15.5 -125q0 -95 -25.5 -182.5t-61 -139t-68 -77t-74 -42t-96.5 -16.5zM282 74q37 0 76 15.5t73 55t54 88.5q17 45 26.5 100t9.5 105q0 51 -12 100.5t-39 83.5q-28 35 -66 52
t-73 17q-27 0 -58.5 -12t-59.5 -42t-49.5 -76t-33.5 -105.5t-12 -109.5q0 -71 22 -136q18 -54 55.5 -95t86.5 -41z" />
    <glyph glyph-name="uni01D1" unicode="&#x1d1;" horiz-adv-x="644" 
d="M345 849q-9 0 -13 2h-8q-8 0 -16.5 2.5t-17.5 8.5t-30 26q-2 2 -18 16t-31 30t-21 30.5t-6 24.5t6.5 20.5t20 17t25.5 6.5q11 0 23 -8.5t18 -19.5q9 -20 47 -51l27 36q20 32 30.5 43t23 14t17.5 3q15 0 25 -9q19 -21 19 -37q0 -15 -23 -44l-38 -51q-1 -1 -13.5 -20.5
t-24 -29.5t-22.5 -10zM289 -16q-47 0 -94 22t-83.5 70.5t-59 118t-22.5 148.5q0 93 25 178t64.5 142t92.5 88.5t121 31.5q32 0 71.5 -10.5t93.5 -45.5q31 -21 58.5 -60t42 -101t15.5 -125q0 -95 -25.5 -182.5t-61 -139t-68 -77t-74 -42t-96.5 -16.5zM282 74q37 0 76 15.5
t73 55t54 88.5q17 45 26.5 100t9.5 105q0 51 -12 100.5t-39 83.5q-28 35 -66 52t-73 17q-27 0 -58.5 -12t-59.5 -42t-49.5 -76t-33.5 -105.5t-12 -109.5q0 -71 22 -136q18 -54 55.5 -95t86.5 -41z" />
    <glyph glyph-name="Ocircumflex" unicode="&#xd4;" horiz-adv-x="644" 
d="M224 824q-17 0 -32.5 14t-15.5 31q0 9 5.5 20.5t21.5 26.5t19 19l64 73q15 19 34 19q7 0 17 -6t14 -7q17 -7 42 -39q9 -12 32 -34.5t27 -26.5q22 -22 22 -37q0 -12 -13 -32t-31 -21q-29 -1 -47 26q-9 13 -30 34t-27 28q-1 -1 -4 -4.5t-36.5 -43.5t-61.5 -40zM289 -16
q-47 0 -94 22t-83.5 70.5t-59 118t-22.5 148.5q0 93 25 178t64.5 142t92.5 88.5t121 31.5q32 0 71.5 -10.5t93.5 -45.5q31 -21 58.5 -60t42 -101t15.5 -125q0 -95 -25.5 -182.5t-61 -139t-68 -77t-74 -42t-96.5 -16.5zM282 74q37 0 76 15.5t73 55t54 88.5q17 45 26.5 100
t9.5 105q0 51 -12 100.5t-39 83.5q-28 35 -66 52t-73 17q-27 0 -58.5 -12t-59.5 -42t-49.5 -76t-33.5 -105.5t-12 -109.5q0 -71 22 -136q18 -54 55.5 -95t86.5 -41z" />
    <glyph glyph-name="uni1ED0" unicode="&#x1ed0;" horiz-adv-x="644" 
d="M316 1109q-19 0 -33.5 15.5t-14.5 33.5q0 6 2 14.5t8.5 20t16.5 24t23 27t17 18.5q25 31 40 40.5t31 9.5q8 0 18 -7t17 -20.5t7 -22.5q0 -7 -4.5 -16t-26.5 -31q-16 -16 -33 -38q-5 -6 -19 -27t-23.5 -29.5t-17.5 -10.5zM246 824q-17 0 -32.5 14t-15.5 31q0 9 5.5 20.5
t21.5 26.5t19 19l64 73q15 19 34 19q7 0 17 -6t14 -7q17 -7 42 -39q9 -12 32 -34.5t27 -26.5q22 -22 22 -37q0 -12 -13 -32t-31 -21q-29 -1 -47 26q-9 13 -30 34t-27 28q-1 -1 -4 -4.5t-36.5 -43.5t-61.5 -40zM289 -16q-47 0 -94 22t-83.5 70.5t-59 118t-22.5 148.5
q0 93 25 178t64.5 142t92.5 88.5t121 31.5q32 0 71.5 -10.5t93.5 -45.5q31 -21 58.5 -60t42 -101t15.5 -125q0 -95 -25.5 -182.5t-61 -139t-68 -77t-74 -42t-96.5 -16.5zM282 74q37 0 76 15.5t73 55t54 88.5q17 45 26.5 100t9.5 105q0 51 -12 100.5t-39 83.5q-28 35 -66 52
t-73 17q-27 0 -58.5 -12t-59.5 -42t-49.5 -76t-33.5 -105.5t-12 -109.5q0 -71 22 -136q18 -54 55.5 -95t86.5 -41z" />
    <glyph glyph-name="uni1ED8" unicode="&#x1ed8;" horiz-adv-x="644" 
d="M224 824q-17 0 -32.5 14t-15.5 31q0 9 5.5 20.5t21.5 26.5t19 19l64 73q15 19 34 19q7 0 17 -6t14 -7q17 -7 42 -39q9 -12 32 -34.5t27 -26.5q22 -22 22 -37q0 -12 -13 -32t-31 -21q-29 -1 -47 26q-9 13 -30 34t-27 28q-1 -1 -4 -4.5t-36.5 -43.5t-61.5 -40zM289 -16
q-47 0 -94 22t-83.5 70.5t-59 118t-22.5 148.5q0 93 25 178t64.5 142t92.5 88.5t121 31.5q32 0 71.5 -10.5t93.5 -45.5q31 -21 58.5 -60t42 -101t15.5 -125q0 -95 -25.5 -182.5t-61 -139t-68 -77t-74 -42t-96.5 -16.5zM282 74q37 0 76 15.5t73 55t54 88.5q17 45 26.5 100
t9.5 105q0 51 -12 100.5t-39 83.5q-28 35 -66 52t-73 17q-27 0 -58.5 -12t-59.5 -42t-49.5 -76t-33.5 -105.5t-12 -109.5q0 -71 22 -136q18 -54 55.5 -95t86.5 -41zM280 -206q-22 0 -37.5 18t-15.5 39q0 23 14.5 39.5t36.5 17.5h3q37 0 52 -37q4 -8 4 -16q0 -20 -17.5 -40.5
t-39.5 -20.5z" />
    <glyph glyph-name="uni1ED2" unicode="&#x1ed2;" horiz-adv-x="644" 
d="M402 1106q-12 0 -23.5 5.5t-18.5 14.5l-22 30q-4 6 -38 40t-34 59q0 13 6 26t15.5 19t18.5 7q4 0 13 -1.5t16 -7.5t23 -26q20 -25 48 -55q2 -3 15.5 -15.5t21 -22.5t9.5 -17t2 -11q0 -19 -16 -32t-36 -13zM259 824q-17 0 -32.5 14t-15.5 31q0 9 5.5 20.5t21.5 26.5t19 19
l64 73q15 19 34 19q7 0 17 -6t14 -7q17 -7 42 -39q9 -12 32 -34.5t27 -26.5q22 -22 22 -37q0 -12 -13 -32t-31 -21q-29 -1 -47 26q-9 13 -30 34t-27 28q-1 -1 -4 -4.5t-36.5 -43.5t-61.5 -40zM289 -16q-47 0 -94 22t-83.5 70.5t-59 118t-22.5 148.5q0 93 25 178t64.5 142
t92.5 88.5t121 31.5q32 0 71.5 -10.5t93.5 -45.5q31 -21 58.5 -60t42 -101t15.5 -125q0 -95 -25.5 -182.5t-61 -139t-68 -77t-74 -42t-96.5 -16.5zM282 74q37 0 76 15.5t73 55t54 88.5q17 45 26.5 100t9.5 105q0 51 -12 100.5t-39 83.5q-28 35 -66 52t-73 17
q-27 0 -58.5 -12t-59.5 -42t-49.5 -76t-33.5 -105.5t-12 -109.5q0 -71 22 -136q18 -54 55.5 -95t86.5 -41z" />
    <glyph glyph-name="uni1ED4" unicode="&#x1ed4;" horiz-adv-x="644" 
d="M337 1121q-18 0 -32.5 14t-14.5 32q0 16 23.5 44t32 44t8.5 34q0 5 -2.5 10t-5.5 5q-7 0 -23 -13t-24 -13q-25 0 -40.5 14t-15.5 31q0 18 14 34.5t41 27t48 10.5q28 0 52 -15q21 -14 33.5 -39.5t12.5 -51.5q0 -38 -21 -80q-24 -50 -44 -69t-42 -19zM246 824
q-17 0 -32.5 14t-15.5 31q0 9 5.5 20.5t21.5 26.5t19 19l64 73q15 19 34 19q7 0 17 -6t14 -7q17 -7 42 -39q9 -12 32 -34.5t27 -26.5q22 -22 22 -37q0 -12 -13 -32t-31 -21q-29 -1 -47 26q-9 13 -30 34t-27 28q-1 -1 -4 -4.5t-36.5 -43.5t-61.5 -40zM289 -16q-47 0 -94 22
t-83.5 70.5t-59 118t-22.5 148.5q0 93 25 178t64.5 142t92.5 88.5t121 31.5q32 0 71.5 -10.5t93.5 -45.5q31 -21 58.5 -60t42 -101t15.5 -125q0 -95 -25.5 -182.5t-61 -139t-68 -77t-74 -42t-96.5 -16.5zM282 74q37 0 76 15.5t73 55t54 88.5q17 45 26.5 100t9.5 105
q0 51 -12 100.5t-39 83.5q-28 35 -66 52t-73 17q-27 0 -58.5 -12t-59.5 -42t-49.5 -76t-33.5 -105.5t-12 -109.5q0 -71 22 -136q18 -54 55.5 -95t86.5 -41z" />
    <glyph glyph-name="uni1ED6" unicode="&#x1ed6;" horiz-adv-x="644" 
d="M407 1113q-37 0 -92 36q-27 18 -37 18q-4 -1 -10 -7.5t-7 -7.5q-19 -15 -49 -15q-41 0 -41 37q0 16 12 36t39 35t49 15q41 0 90 -34q3 -2 13.5 -8.5t16.5 -9t10 -2.5q10 1 12 4q7 18 36 20h11q18 0 31.5 -10t13.5 -30q0 -32 -31.5 -54.5t-66.5 -22.5zM237 824
q-17 0 -32.5 14t-15.5 31q0 9 5.5 20.5t21.5 26.5t19 19l64 73q15 19 34 19q7 0 17 -6t14 -7q17 -7 42 -39q9 -12 32 -34.5t27 -26.5q22 -22 22 -37q0 -12 -13 -32t-31 -21q-29 -1 -47 26q-9 13 -30 34t-27 28q-1 -1 -4 -4.5t-36.5 -43.5t-61.5 -40zM289 -16q-47 0 -94 22
t-83.5 70.5t-59 118t-22.5 148.5q0 93 25 178t64.5 142t92.5 88.5t121 31.5q32 0 71.5 -10.5t93.5 -45.5q31 -21 58.5 -60t42 -101t15.5 -125q0 -95 -25.5 -182.5t-61 -139t-68 -77t-74 -42t-96.5 -16.5zM282 74q37 0 76 15.5t73 55t54 88.5q17 45 26.5 100t9.5 105
q0 51 -12 100.5t-39 83.5q-28 35 -66 52t-73 17q-27 0 -58.5 -12t-59.5 -42t-49.5 -76t-33.5 -105.5t-12 -109.5q0 -71 22 -136q18 -54 55.5 -95t86.5 -41z" />
    <glyph glyph-name="Odieresis" unicode="&#xd6;" horiz-adv-x="644" 
d="M422 843q-22 0 -37.5 18t-15.5 39q0 23 14.5 39.5t36.5 17.5h3q37 0 52 -37q4 -8 4 -16q0 -20 -17.5 -40.5t-39.5 -20.5zM222 847q-19 0 -33.5 10t-17.5 29l-1 14q0 21 8.5 33t19.5 17t26 5q17 0 30.5 -10t18.5 -25q4 -9 4 -22q0 -15 -9 -28.5t-23 -18.5q-9 -4 -23 -4z
M289 -16q-47 0 -94 22t-83.5 70.5t-59 118t-22.5 148.5q0 93 25 178t64.5 142t92.5 88.5t121 31.5q32 0 71.5 -10.5t93.5 -45.5q31 -21 58.5 -60t42 -101t15.5 -125q0 -95 -25.5 -182.5t-61 -139t-68 -77t-74 -42t-96.5 -16.5zM282 74q37 0 76 15.5t73 55t54 88.5
q17 45 26.5 100t9.5 105q0 51 -12 100.5t-39 83.5q-28 35 -66 52t-73 17q-27 0 -58.5 -12t-59.5 -42t-49.5 -76t-33.5 -105.5t-12 -109.5q0 -71 22 -136q18 -54 55.5 -95t86.5 -41z" />
    <glyph glyph-name="uni022A" unicode="&#x22a;" horiz-adv-x="644" 
d="M240 1027q-22 0 -39.5 14.5t-17.5 38.5q0 17 13 29.5t43 12.5l151 3q37 0 51 -10t14 -28q0 -21 -16 -39.5t-37 -18.5l-15 2l-42 3zM422 843q-22 0 -37.5 18t-15.5 39q0 23 14.5 39.5t36.5 17.5h3q37 0 52 -37q4 -8 4 -16q0 -20 -17.5 -40.5t-39.5 -20.5zM222 847
q-19 0 -33.5 10t-17.5 29l-1 14q0 21 8.5 33t19.5 17t26 5q17 0 30.5 -10t18.5 -25q4 -9 4 -22q0 -15 -9 -28.5t-23 -18.5q-9 -4 -23 -4zM289 -16q-47 0 -94 22t-83.5 70.5t-59 118t-22.5 148.5q0 93 25 178t64.5 142t92.5 88.5t121 31.5q32 0 71.5 -10.5t93.5 -45.5
q31 -21 58.5 -60t42 -101t15.5 -125q0 -95 -25.5 -182.5t-61 -139t-68 -77t-74 -42t-96.5 -16.5zM282 74q37 0 76 15.5t73 55t54 88.5q17 45 26.5 100t9.5 105q0 51 -12 100.5t-39 83.5q-28 35 -66 52t-73 17q-27 0 -58.5 -12t-59.5 -42t-49.5 -76t-33.5 -105.5t-12 -109.5
q0 -71 22 -136q18 -54 55.5 -95t86.5 -41z" />
    <glyph glyph-name="uni1ECC" unicode="&#x1ecc;" horiz-adv-x="644" 
d="M289 -16q-47 0 -94 22t-83.5 70.5t-59 118t-22.5 148.5q0 93 25 178t64.5 142t92.5 88.5t121 31.5q32 0 71.5 -10.5t93.5 -45.5q31 -21 58.5 -60t42 -101t15.5 -125q0 -95 -25.5 -182.5t-61 -139t-68 -77t-74 -42t-96.5 -16.5zM282 74q37 0 76 15.5t73 55t54 88.5
q17 45 26.5 100t9.5 105q0 51 -12 100.5t-39 83.5q-28 35 -66 52t-73 17q-27 0 -58.5 -12t-59.5 -42t-49.5 -76t-33.5 -105.5t-12 -109.5q0 -71 22 -136q18 -54 55.5 -95t86.5 -41zM280 -206q-22 0 -37.5 18t-15.5 39q0 23 14.5 39.5t36.5 17.5h3q37 0 52 -37q4 -8 4 -16
q0 -20 -17.5 -40.5t-39.5 -20.5z" />
    <glyph glyph-name="Ograve" unicode="&#xd2;" horiz-adv-x="644" 
d="M367 841q-12 0 -23.5 5.5t-18.5 14.5l-22 30q-4 6 -38 40t-34 59q0 13 6 26t15.5 19t18.5 7q4 0 13 -1.5t16 -7.5t23 -26q20 -25 48 -55q2 -3 15.5 -15.5t21 -22.5t9.5 -17t2 -11q0 -19 -16 -32t-36 -13zM289 -16q-47 0 -94 22t-83.5 70.5t-59 118t-22.5 148.5
q0 93 25 178t64.5 142t92.5 88.5t121 31.5q32 0 71.5 -10.5t93.5 -45.5q31 -21 58.5 -60t42 -101t15.5 -125q0 -95 -25.5 -182.5t-61 -139t-68 -77t-74 -42t-96.5 -16.5zM282 74q37 0 76 15.5t73 55t54 88.5q17 45 26.5 100t9.5 105q0 51 -12 100.5t-39 83.5q-28 35 -66 52
t-73 17q-27 0 -58.5 -12t-59.5 -42t-49.5 -76t-33.5 -105.5t-12 -109.5q0 -71 22 -136q18 -54 55.5 -95t86.5 -41z" />
    <glyph glyph-name="uni1ECE" unicode="&#x1ece;" horiz-adv-x="644" 
d="M315 856q-18 0 -32.5 14t-14.5 32q0 16 23.5 44t32 44t8.5 34q0 5 -2.5 10t-5.5 5q-7 0 -23 -13t-24 -13q-25 0 -40.5 14t-15.5 31q0 18 14 34.5t41 27t48 10.5q28 0 52 -15q21 -14 33.5 -39.5t12.5 -51.5q0 -38 -21 -80q-24 -50 -44 -69t-42 -19zM289 -16q-47 0 -94 22
t-83.5 70.5t-59 118t-22.5 148.5q0 93 25 178t64.5 142t92.5 88.5t121 31.5q32 0 71.5 -10.5t93.5 -45.5q31 -21 58.5 -60t42 -101t15.5 -125q0 -95 -25.5 -182.5t-61 -139t-68 -77t-74 -42t-96.5 -16.5zM282 74q37 0 76 15.5t73 55t54 88.5q17 45 26.5 100t9.5 105
q0 51 -12 100.5t-39 83.5q-28 35 -66 52t-73 17q-27 0 -58.5 -12t-59.5 -42t-49.5 -76t-33.5 -105.5t-12 -109.5q0 -71 22 -136q18 -54 55.5 -95t86.5 -41z" />
    <glyph glyph-name="Ohorn" unicode="&#x1a0;" horiz-adv-x="702" 
d="M722 686q0 -40 -14.5 -74.5t-40 -54.5t-62.5 -21q3 -18 6 -48t3 -47q0 -95 -25.5 -182.5t-61 -139t-68 -77t-74 -42t-96.5 -16.5q-47 0 -94 22t-83.5 70.5t-59 118t-22.5 148.5q0 93 25 178t64.5 142t92.5 88.5t121 31.5q32 0 71.5 -10.5t93.5 -45.5q45 -30 73 -85
q17 -12 22 -13.5t9 -1.5q12 0 20.5 14t8.5 41q0 14 -8.5 42t-8.5 37q0 16 15 29.5t32 13.5q19 0 33 -12.5t22 -48.5q6 -27 6 -57zM485 233q17 45 26.5 100t9.5 105q0 51 -12 100.5t-39 83.5q-28 35 -66 52t-73 17q-27 0 -58.5 -12t-59.5 -42t-49.5 -76t-33.5 -105.5
t-12 -109.5q0 -71 22 -136q18 -54 55.5 -95t86.5 -41q37 0 76 15.5t73 55t54 88.5z" />
    <glyph glyph-name="uni1EDA" unicode="&#x1eda;" horiz-adv-x="702" 
d="M291 832q-19 0 -33.5 15.5t-14.5 33.5q0 6 2 14.5t8.5 20t16.5 24t23 27t17 18.5q25 31 40 40.5t31 9.5q8 0 18 -7t17 -20.5t7 -22.5q0 -7 -4.5 -16t-26.5 -31q-16 -16 -33 -38q-5 -6 -19 -27t-23.5 -29.5t-17.5 -10.5zM722 686q0 -40 -14.5 -74.5t-40 -54.5t-62.5 -21
q3 -18 6 -48t3 -47q0 -95 -25.5 -182.5t-61 -139t-68 -77t-74 -42t-96.5 -16.5q-47 0 -94 22t-83.5 70.5t-59 118t-22.5 148.5q0 93 25 178t64.5 142t92.5 88.5t121 31.5q32 0 71.5 -10.5t93.5 -45.5q45 -30 73 -85q17 -12 22 -13.5t9 -1.5q12 0 20.5 14t8.5 41
q0 14 -8.5 42t-8.5 37q0 16 15 29.5t32 13.5q19 0 33 -12.5t22 -48.5q6 -27 6 -57zM485 233q17 45 26.5 100t9.5 105q0 51 -12 100.5t-39 83.5q-28 35 -66 52t-73 17q-27 0 -58.5 -12t-59.5 -42t-49.5 -76t-33.5 -105.5t-12 -109.5q0 -71 22 -136q18 -54 55.5 -95t86.5 -41
q37 0 76 15.5t73 55t54 88.5z" />
    <glyph glyph-name="uni1EE2" unicode="&#x1ee2;" horiz-adv-x="702" 
d="M722 686q0 -40 -14.5 -74.5t-40 -54.5t-62.5 -21q3 -18 6 -48t3 -47q0 -95 -25.5 -182.5t-61 -139t-68 -77t-74 -42t-96.5 -16.5q-47 0 -94 22t-83.5 70.5t-59 118t-22.5 148.5q0 93 25 178t64.5 142t92.5 88.5t121 31.5q32 0 71.5 -10.5t93.5 -45.5q45 -30 73 -85
q17 -12 22 -13.5t9 -1.5q12 0 20.5 14t8.5 41q0 14 -8.5 42t-8.5 37q0 16 15 29.5t32 13.5q19 0 33 -12.5t22 -48.5q6 -27 6 -57zM485 233q17 45 26.5 100t9.5 105q0 51 -12 100.5t-39 83.5q-28 35 -66 52t-73 17q-27 0 -58.5 -12t-59.5 -42t-49.5 -76t-33.5 -105.5
t-12 -109.5q0 -71 22 -136q18 -54 55.5 -95t86.5 -41q37 0 76 15.5t73 55t54 88.5zM287 -92q37 0 52 -37q4 -8 4 -16q0 -20 -17.5 -40.5t-39.5 -20.5t-37.5 18t-15.5 39q0 23 14.5 39.5t36.5 17.5h3z" />
    <glyph glyph-name="uni1EDC" unicode="&#x1edc;" horiz-adv-x="702" 
d="M300 879q-4 6 -38 40t-34 59q0 13 6 26t15.5 19t18.5 7q4 0 13 -1.5t16 -7.5t23 -26q20 -25 48 -55q2 -3 15.5 -15.5t21 -22.5t9.5 -17t2 -11q0 -19 -16 -32t-36 -13q-12 0 -23.5 5.5t-18.5 14.5zM722 686q0 -40 -14.5 -74.5t-40 -54.5t-62.5 -21q3 -18 6 -48t3 -47
q0 -95 -25.5 -182.5t-61 -139t-68 -77t-74 -42t-96.5 -16.5q-47 0 -94 22t-83.5 70.5t-59 118t-22.5 148.5q0 93 25 178t64.5 142t92.5 88.5t121 31.5q32 0 71.5 -10.5t93.5 -45.5q45 -30 73 -85q17 -12 22 -13.5t9 -1.5q12 0 20.5 14t8.5 41q0 14 -8.5 42t-8.5 37
q0 16 15 29.5t32 13.5q19 0 33 -12.5t22 -48.5q6 -27 6 -57zM485 233q17 45 26.5 100t9.5 105q0 51 -12 100.5t-39 83.5q-28 35 -66 52t-73 17q-27 0 -58.5 -12t-59.5 -42t-49.5 -76t-33.5 -105.5t-12 -109.5q0 -71 22 -136q18 -54 55.5 -95t86.5 -41q37 0 76 15.5t73 55
t54 88.5z" />
    <glyph glyph-name="uni1EDE" unicode="&#x1ede;" horiz-adv-x="702" 
d="M274 1001q-25 0 -40.5 14t-15.5 31q0 18 14 34.5t41 27t48 10.5q28 0 52 -15q21 -14 33.5 -39.5t12.5 -51.5q0 -38 -21 -80q-24 -50 -44 -69t-42 -19q-18 0 -32.5 14t-14.5 32q0 16 23.5 44t32 44t8.5 34q0 5 -2.5 10t-5.5 5q-7 0 -23 -13t-24 -13zM722 686
q0 -40 -14.5 -74.5t-40 -54.5t-62.5 -21q3 -18 6 -48t3 -47q0 -95 -25.5 -182.5t-61 -139t-68 -77t-74 -42t-96.5 -16.5q-47 0 -94 22t-83.5 70.5t-59 118t-22.5 148.5q0 93 25 178t64.5 142t92.5 88.5t121 31.5q32 0 71.5 -10.5t93.5 -45.5q45 -30 73 -85q17 -12 22 -13.5
t9 -1.5q12 0 20.5 14t8.5 41q0 14 -8.5 42t-8.5 37q0 16 15 29.5t32 13.5q19 0 33 -12.5t22 -48.5q6 -27 6 -57zM485 233q17 45 26.5 100t9.5 105q0 51 -12 100.5t-39 83.5q-28 35 -66 52t-73 17q-27 0 -58.5 -12t-59.5 -42t-49.5 -76t-33.5 -105.5t-12 -109.5
q0 -71 22 -136q18 -54 55.5 -95t86.5 -41q37 0 76 15.5t73 55t54 88.5z" />
    <glyph glyph-name="uni1EE0" unicode="&#x1ee0;" horiz-adv-x="702" 
d="M196 860q-41 0 -41 37q0 16 12 36t39 35t49 15q41 0 90 -34q3 -2 13.5 -8.5t16.5 -9t10 -2.5q10 1 12 4q7 18 36 20h11q18 0 31.5 -10t13.5 -30q0 -32 -31.5 -54.5t-66.5 -22.5q-37 0 -92 36q-27 18 -37 18q-4 -1 -10 -7.5t-7 -7.5q-19 -15 -49 -15zM722 686
q0 -40 -14.5 -74.5t-40 -54.5t-62.5 -21q3 -18 6 -48t3 -47q0 -95 -25.5 -182.5t-61 -139t-68 -77t-74 -42t-96.5 -16.5q-47 0 -94 22t-83.5 70.5t-59 118t-22.5 148.5q0 93 25 178t64.5 142t92.5 88.5t121 31.5q32 0 71.5 -10.5t93.5 -45.5q45 -30 73 -85q17 -12 22 -13.5
t9 -1.5q12 0 20.5 14t8.5 41q0 14 -8.5 42t-8.5 37q0 16 15 29.5t32 13.5q19 0 33 -12.5t22 -48.5q6 -27 6 -57zM485 233q17 45 26.5 100t9.5 105q0 51 -12 100.5t-39 83.5q-28 35 -66 52t-73 17q-27 0 -58.5 -12t-59.5 -42t-49.5 -76t-33.5 -105.5t-12 -109.5
q0 -71 22 -136q18 -54 55.5 -95t86.5 -41q37 0 76 15.5t73 55t54 88.5z" />
    <glyph glyph-name="Ohungarumlaut" unicode="&#x150;" horiz-adv-x="644" 
d="M382 819q-15 0 -29.5 11.5t-14.5 26.5q0 12 6 22q15 38 39 89q21 47 35 69q6 9 16.5 14t20.5 5q22 0 34.5 -11.5t12.5 -31.5q0 -13 -5.5 -30.5t-21 -44t-18.5 -32.5q-4 -8 -11 -24.5t-11 -26t-11 -17.5t-16.5 -13.5t-25.5 -5.5zM202 809q-19 0 -33 11.5t-14 30.5
q0 5 2 13.5t15 32.5l33 66q3 6 13 30.5t21.5 41t27.5 16.5q11 0 23 -5q13 -7 21.5 -20t8.5 -28q0 -17 -9 -29q-14 -19 -39 -76q-2 -4 -12.5 -31t-24 -40t-33.5 -13zM289 -16q-47 0 -94 22t-83.5 70.5t-59 118t-22.5 148.5q0 93 25 178t64.5 142t92.5 88.5t121 31.5
q32 0 71.5 -10.5t93.5 -45.5q31 -21 58.5 -60t42 -101t15.5 -125q0 -95 -25.5 -182.5t-61 -139t-68 -77t-74 -42t-96.5 -16.5zM282 74q37 0 76 15.5t73 55t54 88.5q17 45 26.5 100t9.5 105q0 51 -12 100.5t-39 83.5q-28 35 -66 52t-73 17q-27 0 -58.5 -12t-59.5 -42
t-49.5 -76t-33.5 -105.5t-12 -109.5q0 -71 22 -136q18 -54 55.5 -95t86.5 -41z" />
    <glyph glyph-name="Omacron" unicode="&#x14c;" horiz-adv-x="644" 
d="M242 854q-22 0 -39.5 14.5t-17.5 38.5q0 17 13 29.5t43 12.5l151 3q37 0 51 -10t14 -28q0 -21 -16 -39.5t-37 -18.5l-15 2l-42 3zM289 -16q-47 0 -94 22t-83.5 70.5t-59 118t-22.5 148.5q0 93 25 178t64.5 142t92.5 88.5t121 31.5q32 0 71.5 -10.5t93.5 -45.5
q31 -21 58.5 -60t42 -101t15.5 -125q0 -95 -25.5 -182.5t-61 -139t-68 -77t-74 -42t-96.5 -16.5zM282 74q37 0 76 15.5t73 55t54 88.5q17 45 26.5 100t9.5 105q0 51 -12 100.5t-39 83.5q-28 35 -66 52t-73 17q-27 0 -58.5 -12t-59.5 -42t-49.5 -76t-33.5 -105.5t-12 -109.5
q0 -71 22 -136q18 -54 55.5 -95t86.5 -41z" />
    <glyph glyph-name="uni1E52" unicode="&#x1e52;" horiz-adv-x="644" 
d="M294 1009q-19 0 -33.5 15.5t-14.5 33.5q0 6 2 14.5t8.5 20t16.5 24t23 27t17 18.5q25 31 40 40.5t31 9.5q8 0 18 -7t17 -20.5t7 -22.5q0 -7 -4.5 -16t-26.5 -31q-16 -16 -33 -38q-5 -6 -19 -27t-23.5 -29.5t-17.5 -10.5zM242 854q-22 0 -39.5 14.5t-17.5 38.5
q0 17 13 29.5t43 12.5l151 3q37 0 51 -10t14 -28q0 -21 -16 -39.5t-37 -18.5l-15 2l-42 3zM289 -16q-47 0 -94 22t-83.5 70.5t-59 118t-22.5 148.5q0 93 25 178t64.5 142t92.5 88.5t121 31.5q32 0 71.5 -10.5t93.5 -45.5q31 -21 58.5 -60t42 -101t15.5 -125
q0 -95 -25.5 -182.5t-61 -139t-68 -77t-74 -42t-96.5 -16.5zM282 74q37 0 76 15.5t73 55t54 88.5q17 45 26.5 100t9.5 105q0 51 -12 100.5t-39 83.5q-28 35 -66 52t-73 17q-27 0 -58.5 -12t-59.5 -42t-49.5 -76t-33.5 -105.5t-12 -109.5q0 -71 22 -136q18 -54 55.5 -95
t86.5 -41z" />
    <glyph glyph-name="uni1E50" unicode="&#x1e50;" horiz-adv-x="644" 
d="M367 1006q-12 0 -23.5 5.5t-18.5 14.5l-22 30q-4 6 -38 40t-34 59q0 13 6 26t15.5 19t18.5 7q4 0 13 -1.5t16 -7.5t23 -26q20 -25 48 -55q2 -3 15.5 -15.5t21 -22.5t9.5 -17t2 -11q0 -19 -16 -32t-36 -13zM242 854q-22 0 -39.5 14.5t-17.5 38.5q0 17 13 29.5t43 12.5
l151 3q37 0 51 -10t14 -28q0 -21 -16 -39.5t-37 -18.5l-15 2l-42 3zM289 -16q-47 0 -94 22t-83.5 70.5t-59 118t-22.5 148.5q0 93 25 178t64.5 142t92.5 88.5t121 31.5q32 0 71.5 -10.5t93.5 -45.5q31 -21 58.5 -60t42 -101t15.5 -125q0 -95 -25.5 -182.5t-61 -139t-68 -77
t-74 -42t-96.5 -16.5zM282 74q37 0 76 15.5t73 55t54 88.5q17 45 26.5 100t9.5 105q0 51 -12 100.5t-39 83.5q-28 35 -66 52t-73 17q-27 0 -58.5 -12t-59.5 -42t-49.5 -76t-33.5 -105.5t-12 -109.5q0 -71 22 -136q18 -54 55.5 -95t86.5 -41z" />
    <glyph glyph-name="uni01EA" unicode="&#x1ea;" horiz-adv-x="644" 
d="M472 -24q17 0 31 -15.5t14 -32.5q0 -14 -9 -28t-30 -21.5t-43 -7.5q-23 0 -46 13t-38.5 42t-15.5 61q-22 -3 -46 -3q-47 0 -94 22t-83.5 70.5t-59 118t-22.5 148.5q0 93 25 178t64.5 142t92.5 88.5t121 31.5q32 0 71.5 -10.5t93.5 -45.5q31 -21 58.5 -60t42 -101
t15.5 -125q0 -69 -17.5 -152t-58.5 -153t-97 -107q-16 -23 -16 -44q0 -9 8 -21q7 0 19.5 6t19.5 6zM282 74q26 0 52.5 7.5t46.5 19.5q26 37 50 43q33 37 54 89q17 45 26.5 100t9.5 105q0 51 -12 100.5t-39 83.5q-28 35 -66 52t-73 17q-27 0 -58.5 -12t-59.5 -42t-49.5 -76
t-33.5 -105.5t-12 -109.5q0 -71 22 -136q18 -54 55.5 -95t86.5 -41z" />
    <glyph glyph-name="Oslash" unicode="&#xd8;" horiz-adv-x="644" 
d="M498 727q31 -21 58.5 -60t42 -101t15.5 -125q0 -95 -25.5 -182.5t-61 -139t-68 -77t-74 -42t-96.5 -16.5h-7q-6 -24 -11 -34.5t-14 -15.5t-22 -5q-16 0 -32.5 8.5t-20.5 17.5l-4 10l-1 10q0 8 4 16l5 19q-28 16 -56.5 45t-52.5 77.5t-35.5 107t-11.5 103.5q0 93 25 178
t64.5 142t92.5 88.5t121 31.5q20 0 38 -3q9 27 31 31l4 1q19 0 37 -11.5t22 -27.5v-4l1 -10l-1 -12zM140 210q9 -28 27.5 -58.5t42.5 -50.5q34 138 84.5 355t54.5 234l-18 1q-27 0 -58.5 -12t-59.5 -42t-49.5 -76t-33.5 -105.5t-12 -109.5q0 -71 22 -136zM485 233
q17 45 26.5 100t9.5 105q0 51 -12 100.5t-39 83.5q-15 18 -31 31l-15 -60q-39 -151 -122 -518q41 4 74.5 24t61.5 54t47 80z" />
    <glyph glyph-name="Oslashacute" unicode="&#x1fe;" horiz-adv-x="644" 
d="M300 832q-19 0 -33.5 15.5t-14.5 33.5q0 6 2 14.5t8.5 20t16.5 24t23 27t17 18.5q25 31 40 40.5t31 9.5q8 0 18 -7t17 -20.5t7 -22.5q0 -7 -4.5 -16t-26.5 -31q-16 -16 -33 -38q-5 -6 -19 -27t-23.5 -29.5t-17.5 -10.5zM498 727q31 -21 58.5 -60t42 -101t15.5 -125
q0 -95 -25.5 -182.5t-61 -139t-68 -77t-74 -42t-96.5 -16.5h-7q-6 -24 -11 -34.5t-14 -15.5t-22 -5q-16 0 -32.5 8.5t-20.5 17.5l-4 10l-1 10q0 8 4 16l5 19q-28 16 -56.5 45t-52.5 77.5t-35.5 107t-11.5 103.5q0 93 25 178t64.5 142t92.5 88.5t121 31.5q20 0 38 -3
q9 27 31 31l4 1q19 0 37 -11.5t22 -27.5v-4l1 -10l-1 -12zM140 210q9 -28 27.5 -58.5t42.5 -50.5q34 138 84.5 355t54.5 234l-18 1q-27 0 -58.5 -12t-59.5 -42t-49.5 -76t-33.5 -105.5t-12 -109.5q0 -71 22 -136zM485 233q17 45 26.5 100t9.5 105q0 51 -12 100.5t-39 83.5
q-15 18 -31 31l-15 -60q-39 -151 -122 -518q41 4 74.5 24t61.5 54t47 80z" />
    <glyph glyph-name="Otilde" unicode="&#xd5;" horiz-adv-x="644" 
d="M394 848q-37 0 -92 36q-27 18 -37 18q-4 -1 -10 -7.5t-7 -7.5q-19 -15 -49 -15q-41 0 -41 37q0 16 12 36t39 35t49 15q41 0 90 -34q3 -2 13.5 -8.5t16.5 -9t10 -2.5q10 1 12 4q7 18 36 20h11q18 0 31.5 -10t13.5 -30q0 -32 -31.5 -54.5t-66.5 -22.5zM289 -16
q-47 0 -94 22t-83.5 70.5t-59 118t-22.5 148.5q0 93 25 178t64.5 142t92.5 88.5t121 31.5q32 0 71.5 -10.5t93.5 -45.5q31 -21 58.5 -60t42 -101t15.5 -125q0 -95 -25.5 -182.5t-61 -139t-68 -77t-74 -42t-96.5 -16.5zM282 74q37 0 76 15.5t73 55t54 88.5q17 45 26.5 100
t9.5 105q0 51 -12 100.5t-39 83.5q-28 35 -66 52t-73 17q-27 0 -58.5 -12t-59.5 -42t-49.5 -76t-33.5 -105.5t-12 -109.5q0 -71 22 -136q18 -54 55.5 -95t86.5 -41z" />
    <glyph glyph-name="uni1E4C" unicode="&#x1e4c;" horiz-adv-x="644" 
d="M294 1052q-19 0 -33.5 15.5t-14.5 33.5q0 6 2 14.5t8.5 20t16.5 24t23 27t17 18.5q25 31 40 40.5t31 9.5q8 0 18 -7t17 -20.5t7 -22.5q0 -7 -4.5 -16t-26.5 -31q-16 -16 -33 -38q-5 -6 -19 -27t-23.5 -29.5t-17.5 -10.5zM394 848q-37 0 -92 36q-27 18 -37 18
q-4 -1 -10 -7.5t-7 -7.5q-19 -15 -49 -15q-41 0 -41 37q0 16 12 36t39 35t49 15q41 0 90 -34q3 -2 13.5 -8.5t16.5 -9t10 -2.5q10 1 12 4q7 18 36 20h11q18 0 31.5 -10t13.5 -30q0 -32 -31.5 -54.5t-66.5 -22.5zM289 -16q-47 0 -94 22t-83.5 70.5t-59 118t-22.5 148.5
q0 93 25 178t64.5 142t92.5 88.5t121 31.5q32 0 71.5 -10.5t93.5 -45.5q31 -21 58.5 -60t42 -101t15.5 -125q0 -95 -25.5 -182.5t-61 -139t-68 -77t-74 -42t-96.5 -16.5zM282 74q37 0 76 15.5t73 55t54 88.5q17 45 26.5 100t9.5 105q0 51 -12 100.5t-39 83.5q-28 35 -66 52
t-73 17q-27 0 -58.5 -12t-59.5 -42t-49.5 -76t-33.5 -105.5t-12 -109.5q0 -71 22 -136q18 -54 55.5 -95t86.5 -41z" />
    <glyph glyph-name="OE" unicode="&#x152;" horiz-adv-x="923" 
d="M680 -8q-83 0 -130 34q-20 15 -32 40t-16 78q-39 -62 -100 -105.5t-126 -43.5q-31 0 -67.5 11.5t-68.5 41t-57.5 75.5t-39 108t-13.5 120q0 69 17 143t52 137t91 102.5t128 39.5q29 0 62 -9t61 -24q4 -3 14.5 -11.5t13.5 -9.5q19 -13 39 -36q0 51 16 67t40 16
q11 0 21 -4.5t15 -4.5q106 0 220 19q30 5 40 5q18 0 30.5 -9.5t12.5 -31.5q0 -52 -69 -56q-101 -13 -233 -20l-7 -149q15 1 68 4.5t80 3.5q18 0 31.5 -14.5t13.5 -33.5q0 -10 -4.5 -19.5t-15 -15.5t-22 -8.5t-21.5 -3.5t-19.5 -1.5t-10.5 -0.5l-105 -5l-3 -152
q0 -104 12 -157q6 -26 73 -26q63 0 118 18q2 1 20.5 8.5t27.5 7.5q17 0 33.5 -16.5t16.5 -32.5q0 -25 -31 -42.5t-80.5 -27t-95.5 -9.5zM271 84q27 0 57.5 14.5t60 47t48.5 69.5q26 47 39.5 104t13.5 112q0 5 -2 7q-9 9 -9 33q0 14 6 24q0 31 -15 67.5t-37 62.5
q-2 2 -11.5 10.5t-12.5 14.5q-16 5 -43.5 18t-51.5 13q-39 0 -70.5 -19.5t-54.5 -52.5t-37.5 -73t-23.5 -89t-9 -98q0 -71 18 -126q12 -39 32 -71t45.5 -50t56.5 -18z" />
    <glyph glyph-name="P" unicode="P" horiz-adv-x="506" 
d="M95 0q-19 0 -33 15.5t-14 34.5l1 14q0 100 -5 315t-5 317q0 26 14.5 43.5t41.5 17.5q15 0 26 -13q3 1 57.5 14.5t106.5 13.5q90 0 140.5 -43.5t50.5 -120.5q0 -131 -80.5 -206.5t-258.5 -91.5q6 -174 6 -262q0 -25 -14 -36.5t-34 -11.5zM133 406q172 0 238 113
q18 31 18 79q0 49 -24 67.5t-79 18.5q-51 0 -96 -15t-58 -18q-2 -33 -2 -98q0 -73 3 -147z" />
    <glyph glyph-name="Thorn" unicode="&#xde;" horiz-adv-x="531" 
d="M96 0q-20 0 -34 15t-14 36l1 10q0 90 -5 283t-5 283l1 52v19q0 27 14.5 43t38.5 16q20 0 31 -16.5t11 -35.5l-4 -99q102 26 179 26q89 0 138.5 -43t52.5 -121v-9q0 -48 -16.5 -94t-47.5 -82q-41 -48 -105.5 -75.5t-190.5 -37.5l2 -121q0 -46 -47 -49zM139 266
q104 0 166.5 28t90.5 85q18 38 18 79q0 49 -22 67q-24 19 -72 19q-42 0 -103 -13q-4 -1 -37.5 -11t-49.5 -10q1 -43 4.5 -127t4.5 -117z" />
    <glyph glyph-name="Q" unicode="Q" horiz-adv-x="643" 
d="M313 -1q-48 0 -91.5 19t-77 52.5t-57.5 76t-40.5 98t-16.5 115.5q0 66 18.5 139t56.5 136t97 103t133 42q49 0 95 -17t83 -53q24 -27 47.5 -69t37.5 -99t15 -115q0 -167 -66 -279q4 -5 22.5 -29t27.5 -40.5t9 -27.5q0 -18 -18.5 -33t-36.5 -15q-9 0 -18 6t-17.5 17.5
t-17.5 28t-10 18.5q-79 -74 -175 -74zM314 89q67 0 123 63q-18 28 -55 78.5t-43 58.5q-17 22 -26 37.5t-9 29.5q0 9 6.5 19t21 16t26.5 6q11 0 19 -4q12 -6 26 -31q32 -57 83 -130q16 39 25 88t9 95q0 48 -10 96t-31 87.5t-55 61.5q-28 14 -48.5 20.5t-43.5 6.5
q-38 0 -76.5 -22t-68.5 -69.5t-49 -112t-19 -128.5q0 -40 13 -86.5t37.5 -87t62 -66.5t82.5 -26z" />
    <glyph glyph-name="R" unicode="R" horiz-adv-x="529" 
d="M98 0q-21 0 -36 13.5t-15 33.5l2 70q0 93 -5 293t-5 293q0 22 15.5 43t35.5 21q13 0 25 -6.5t18 -16.5q100 28 171 28q33 0 66 -8.5t59.5 -30t43 -56.5t16.5 -84q0 -103 -66.5 -167t-198.5 -77l123 -124q15 -15 63 -58.5t70 -68.5q19 -21 19 -33q0 -19 -17 -33.5
t-36 -14.5q-11 0 -23 6.5t-19 16.5q-36 36 -129.5 133t-140.5 142q0 -35 4.5 -116t4.5 -120q0 -41 -8.5 -59t-36.5 -20zM157 439q90 0 142.5 16t78 51t25.5 85q0 28 -9.5 50.5t-32.5 32t-54 9.5q-21 0 -45 -3t-63.5 -15.5t-59.5 -15.5q-6 -103 -6 -209z" />
    <glyph glyph-name="Racute" unicode="&#x154;" horiz-adv-x="529" 
d="M216 829q-19 0 -33.5 15.5t-14.5 33.5q0 6 2 14.5t8.5 20t16.5 24t23 27t17 18.5q25 31 40 40.5t31 9.5q8 0 18 -7t17 -20.5t7 -22.5q0 -7 -4.5 -16t-26.5 -31q-16 -16 -33 -38q-5 -6 -19 -27t-23.5 -29.5t-17.5 -10.5zM98 0q-21 0 -36 13.5t-15 33.5l2 70q0 93 -5 293
t-5 293q0 22 15.5 43t35.5 21q13 0 25 -6.5t18 -16.5q100 28 171 28q33 0 66 -8.5t59.5 -30t43 -56.5t16.5 -84q0 -103 -66.5 -167t-198.5 -77l123 -124q15 -15 63 -58.5t70 -68.5q19 -21 19 -33q0 -19 -17 -33.5t-36 -14.5q-11 0 -23 6.5t-19 16.5q-36 36 -129.5 133
t-140.5 142q0 -35 4.5 -116t4.5 -120q0 -41 -8.5 -59t-36.5 -20zM157 439q90 0 142.5 16t78 51t25.5 85q0 28 -9.5 50.5t-32.5 32t-54 9.5q-21 0 -45 -3t-63.5 -15.5t-59.5 -15.5q-6 -103 -6 -209z" />
    <glyph glyph-name="Rcaron" unicode="&#x158;" horiz-adv-x="529" 
d="M267 834q-9 0 -13 2h-8q-8 0 -16.5 2.5t-17.5 8.5t-30 26q-2 2 -18 16t-31 30t-21 30.5t-6 24.5t6.5 20.5t20 17t25.5 6.5q11 0 23 -8.5t18 -19.5q9 -20 47 -51l27 36q20 32 30.5 43t23 14t17.5 3q15 0 25 -9q19 -21 19 -37q0 -15 -23 -44l-38 -51q-1 -1 -13.5 -20.5
t-24 -29.5t-22.5 -10zM98 0q-21 0 -36 13.5t-15 33.5l2 70q0 93 -5 293t-5 293q0 22 15.5 43t35.5 21q13 0 25 -6.5t18 -16.5q100 28 171 28q33 0 66 -8.5t59.5 -30t43 -56.5t16.5 -84q0 -103 -66.5 -167t-198.5 -77l123 -124q15 -15 63 -58.5t70 -68.5q19 -21 19 -33
q0 -19 -17 -33.5t-36 -14.5q-11 0 -23 6.5t-19 16.5q-36 36 -129.5 133t-140.5 142q0 -35 4.5 -116t4.5 -120q0 -41 -8.5 -59t-36.5 -20zM157 439q90 0 142.5 16t78 51t25.5 85q0 28 -9.5 50.5t-32.5 32t-54 9.5q-21 0 -45 -3t-63.5 -15.5t-59.5 -15.5q-6 -103 -6 -209z" />
    <glyph glyph-name="uni0156" unicode="&#x156;" horiz-adv-x="529" 
d="M98 0q-21 0 -36 13.5t-15 33.5l2 70q0 93 -5 293t-5 293q0 22 15.5 43t35.5 21q13 0 25 -6.5t18 -16.5q100 28 171 28q33 0 66 -8.5t59.5 -30t43 -56.5t16.5 -84q0 -103 -66.5 -167t-198.5 -77l123 -124q15 -15 63 -58.5t70 -68.5q19 -21 19 -33q0 -19 -17 -33.5
t-36 -14.5q-11 0 -23 6.5t-19 16.5q-36 36 -129.5 133t-140.5 142q0 -35 4.5 -116t4.5 -120q0 -41 -8.5 -59t-36.5 -20zM157 439q90 0 142.5 16t78 51t25.5 85q0 28 -9.5 50.5t-32.5 32t-54 9.5q-21 0 -45 -3t-63.5 -15.5t-59.5 -15.5q-6 -103 -6 -209zM261 -281
q-23 0 -40 17.5t-17 38.5q0 11 8.5 30.5t8.5 29.5l-1 7q-1 2 -10 19t-9 39q0 15 6.5 27.5t20.5 16.5l11 2q25 0 44 -22.5t26 -48t7 -41.5q0 -29 -6.5 -58t-19 -42.5t-24.5 -14.5h-5z" />
    <glyph glyph-name="uni1E5A" unicode="&#x1e5a;" horiz-adv-x="529" 
d="M98 0q-21 0 -36 13.5t-15 33.5l2 70q0 93 -5 293t-5 293q0 22 15.5 43t35.5 21q13 0 25 -6.5t18 -16.5q100 28 171 28q33 0 66 -8.5t59.5 -30t43 -56.5t16.5 -84q0 -103 -66.5 -167t-198.5 -77l123 -124q15 -15 63 -58.5t70 -68.5q19 -21 19 -33q0 -19 -17 -33.5
t-36 -14.5q-11 0 -23 6.5t-19 16.5q-36 36 -129.5 133t-140.5 142q0 -35 4.5 -116t4.5 -120q0 -41 -8.5 -59t-36.5 -20zM157 439q90 0 142.5 16t78 51t25.5 85q0 28 -9.5 50.5t-32.5 32t-54 9.5q-21 0 -45 -3t-63.5 -15.5t-59.5 -15.5q-6 -103 -6 -209zM257 -190
q-22 0 -37.5 18t-15.5 39q0 23 14.5 39.5t36.5 17.5h3q37 0 52 -37q4 -8 4 -16q0 -20 -17.5 -40.5t-39.5 -20.5z" />
    <glyph glyph-name="S" unicode="S" horiz-adv-x="545" 
d="M248 -21q-35 0 -85 16q-34 11 -68 36t-49.5 52t-15.5 51q0 17 13 27.5t33 10.5q33 0 54 -41q15 -29 49 -44t70 -15q79 0 130 53.5t51 128.5q0 51 -22 83t-61 42q-35 9 -92.5 9.5t-89.5 7.5q-62 13 -94 56.5t-32 102.5q0 39 13 71.5t35 56t50.5 39.5t65.5 26.5t78 10.5
q68 0 109.5 -17.5t41.5 -48.5q0 -21 -19.5 -34t-39.5 -13q-1 0 -38 10t-55 10q-43 0 -78 -13t-54.5 -38t-19.5 -64q0 -27 10.5 -43t30.5 -22.5t50.5 -7.5t32.5 -1q61 -2 88.5 -5.5t53 -13t46.5 -24.5q80 -57 80 -184q0 -60 -23.5 -111t-62.5 -86.5t-88 -54.5t-98 -19z" />
    <glyph glyph-name="Sacute" unicode="&#x15a;" horiz-adv-x="545" 
d="M187 833q-19 0 -33.5 15.5t-14.5 33.5q0 6 2 14.5t8.5 20t16.5 24t23 27t17 18.5q25 31 40 40.5t31 9.5q8 0 18 -7t17 -20.5t7 -22.5q0 -7 -4.5 -16t-26.5 -31q-16 -16 -33 -38q-5 -6 -19 -27t-23.5 -29.5t-17.5 -10.5zM248 -21q-35 0 -85 16q-34 11 -68 36t-49.5 52
t-15.5 51q0 17 13 27.5t33 10.5q33 0 54 -41q15 -29 49 -44t70 -15q79 0 130 53.5t51 128.5q0 51 -22 83t-61 42q-35 9 -92.5 9.5t-89.5 7.5q-62 13 -94 56.5t-32 102.5q0 39 13 71.5t35 56t50.5 39.5t65.5 26.5t78 10.5q68 0 109.5 -17.5t41.5 -48.5q0 -21 -19.5 -34
t-39.5 -13q-1 0 -38 10t-55 10q-43 0 -78 -13t-54.5 -38t-19.5 -64q0 -27 10.5 -43t30.5 -22.5t50.5 -7.5t32.5 -1q61 -2 88.5 -5.5t53 -13t46.5 -24.5q80 -57 80 -184q0 -60 -23.5 -111t-62.5 -86.5t-88 -54.5t-98 -19z" />
    <glyph glyph-name="Scaron" unicode="&#x160;" horiz-adv-x="545" 
d="M238 838q-9 0 -13 2h-8q-8 0 -16.5 2.5t-17.5 8.5t-30 26q-2 2 -18 16t-31 30t-21 30.5t-6 24.5t6.5 20.5t20 17t25.5 6.5q11 0 23 -8.5t18 -19.5q9 -20 47 -51l27 36q20 32 30.5 43t23 14t17.5 3q15 0 25 -9q19 -21 19 -37q0 -15 -23 -44l-38 -51q-1 -1 -13.5 -20.5
t-24 -29.5t-22.5 -10zM248 -21q-35 0 -85 16q-34 11 -68 36t-49.5 52t-15.5 51q0 17 13 27.5t33 10.5q33 0 54 -41q15 -29 49 -44t70 -15q79 0 130 53.5t51 128.5q0 51 -22 83t-61 42q-35 9 -92.5 9.5t-89.5 7.5q-62 13 -94 56.5t-32 102.5q0 39 13 71.5t35 56t50.5 39.5
t65.5 26.5t78 10.5q68 0 109.5 -17.5t41.5 -48.5q0 -21 -19.5 -34t-39.5 -13q-1 0 -38 10t-55 10q-43 0 -78 -13t-54.5 -38t-19.5 -64q0 -27 10.5 -43t30.5 -22.5t50.5 -7.5t32.5 -1q61 -2 88.5 -5.5t53 -13t46.5 -24.5q80 -57 80 -184q0 -60 -23.5 -111t-62.5 -86.5
t-88 -54.5t-98 -19z" />
    <glyph glyph-name="Scedilla" unicode="&#x15e;" horiz-adv-x="545" 
d="M520 250q0 -51 -17 -96t-46.5 -79t-68 -56.5t-79.5 -32.5v-6l-1 -21q33 -8 55 -31q13 -14 20 -34t7 -40q0 -38 -23.5 -71t-53.5 -46t-53 -13q-20 0 -36 11.5t-16 30.5q0 16 15 34t30 18h6q14 1 28 10t14 25t-14 16q-4 0 -13 -3t-16 -3q-19 0 -30 12.5t-11 53.5q0 37 2 52
q-20 2 -56 14q-34 11 -68 36t-49.5 52t-15.5 51q0 17 13 27.5t33 10.5q33 0 54 -41q15 -29 49 -44t70 -15q79 0 130 53.5t51 128.5q0 51 -22 83t-61 42q-35 9 -92.5 9.5t-89.5 7.5q-62 13 -94 56.5t-32 102.5q0 39 13 71.5t35 56t50.5 39.5t65.5 26.5t78 10.5
q68 0 109.5 -17.5t41.5 -48.5q0 -21 -19.5 -34t-39.5 -13q-1 0 -38 10t-55 10q-43 0 -78 -13t-54.5 -38t-19.5 -64q0 -27 10.5 -43t30.5 -22.5t50.5 -7.5t32.5 -1q61 -2 88.5 -5.5t53 -13t46.5 -24.5q80 -57 80 -184z" />
    <glyph glyph-name="Scircumflex" unicode="&#x15c;" horiz-adv-x="545" 
d="M117 813q-17 0 -32.5 14t-15.5 31q0 9 5.5 20.5t21.5 26.5t19 19l64 73q15 19 34 19q7 0 17 -6t14 -7q17 -7 42 -39q9 -12 32 -34.5t27 -26.5q22 -22 22 -37q0 -12 -13 -32t-31 -21q-29 -1 -47 26q-9 13 -30 34t-27 28q-1 -1 -4 -4.5t-36.5 -43.5t-61.5 -40zM248 -21
q-35 0 -85 16q-34 11 -68 36t-49.5 52t-15.5 51q0 17 13 27.5t33 10.5q33 0 54 -41q15 -29 49 -44t70 -15q79 0 130 53.5t51 128.5q0 51 -22 83t-61 42q-35 9 -92.5 9.5t-89.5 7.5q-62 13 -94 56.5t-32 102.5q0 39 13 71.5t35 56t50.5 39.5t65.5 26.5t78 10.5
q68 0 109.5 -17.5t41.5 -48.5q0 -21 -19.5 -34t-39.5 -13q-1 0 -38 10t-55 10q-43 0 -78 -13t-54.5 -38t-19.5 -64q0 -27 10.5 -43t30.5 -22.5t50.5 -7.5t32.5 -1q61 -2 88.5 -5.5t53 -13t46.5 -24.5q80 -57 80 -184q0 -60 -23.5 -111t-62.5 -86.5t-88 -54.5t-98 -19z" />
    <glyph glyph-name="uni0218" unicode="&#x218;" horiz-adv-x="545" 
d="M248 -21q-35 0 -85 16q-34 11 -68 36t-49.5 52t-15.5 51q0 17 13 27.5t33 10.5q33 0 54 -41q15 -29 49 -44t70 -15q79 0 130 53.5t51 128.5q0 51 -22 83t-61 42q-35 9 -92.5 9.5t-89.5 7.5q-62 13 -94 56.5t-32 102.5q0 39 13 71.5t35 56t50.5 39.5t65.5 26.5t78 10.5
q68 0 109.5 -17.5t41.5 -48.5q0 -21 -19.5 -34t-39.5 -13q-1 0 -38 10t-55 10q-43 0 -78 -13t-54.5 -38t-19.5 -64q0 -27 10.5 -43t30.5 -22.5t50.5 -7.5t32.5 -1q61 -2 88.5 -5.5t53 -13t46.5 -24.5q80 -57 80 -184q0 -60 -23.5 -111t-62.5 -86.5t-88 -54.5t-98 -19z
M264 -304q-23 0 -40 17.5t-17 38.5q0 11 8.5 30.5t8.5 29.5l-1 7q-1 2 -10 19t-9 39q0 15 6.5 27.5t20.5 16.5l11 2q25 0 44 -22.5t26 -48t7 -41.5q0 -29 -6.5 -58t-19 -42.5t-24.5 -14.5h-5z" />
    <glyph glyph-name="uni1E62" unicode="&#x1e62;" horiz-adv-x="545" 
d="M248 -21q-35 0 -85 16q-34 11 -68 36t-49.5 52t-15.5 51q0 17 13 27.5t33 10.5q33 0 54 -41q15 -29 49 -44t70 -15q79 0 130 53.5t51 128.5q0 51 -22 83t-61 42q-35 9 -92.5 9.5t-89.5 7.5q-62 13 -94 56.5t-32 102.5q0 39 13 71.5t35 56t50.5 39.5t65.5 26.5t78 10.5
q68 0 109.5 -17.5t41.5 -48.5q0 -21 -19.5 -34t-39.5 -13q-1 0 -38 10t-55 10q-43 0 -78 -13t-54.5 -38t-19.5 -64q0 -27 10.5 -43t30.5 -22.5t50.5 -7.5t32.5 -1q61 -2 88.5 -5.5t53 -13t46.5 -24.5q80 -57 80 -184q0 -60 -23.5 -111t-62.5 -86.5t-88 -54.5t-98 -19z
M260 -213q-22 0 -37.5 18t-15.5 39q0 23 14.5 39.5t36.5 17.5h3q37 0 52 -37q4 -8 4 -16q0 -20 -17.5 -40.5t-39.5 -20.5z" />
    <glyph glyph-name="uni1E9E" unicode="&#x1e9e;" horiz-adv-x="585" 
d="M91 -12q-20 0 -30 16.5t-10 37.5l1 36l-4 306l1 63q0 142 35 218t100 105q24 10 57.5 15.5t63.5 5.5q86 0 154 -50q27 -21 34.5 -31.5t7.5 -22.5q0 -10 -3.5 -23.5t-23.5 -40.5q-65 -83 -75.5 -97.5t-17.5 -25.5q96 -30 138 -103q36 -63 36 -165q0 -52 -18 -99.5
t-54 -79.5q-31 -28 -77 -44.5t-89 -16.5q-28 0 -56 8t-50 23q-49 33 -49 62q0 18 16 28t37 10q11 0 20.5 -3.5t21 -13.5t17.5 -13q19 -11 45 -11q19 0 45 7q104 26 104 146q0 83 -38.5 131t-105.5 48q-3 0 -9.5 -3t-10.5 -3q-21 0 -38 15.5t-17 35.5q0 11 4.5 20t25.5 36
q70 89 115 158q-39 29 -94 29q-25 0 -57 -5q-27 -5 -52 -26t-39.5 -71.5t-14.5 -149.5q0 -64 4.5 -201t4.5 -200q0 -26 -15 -43.5t-40 -17.5z" />
    <glyph glyph-name="T" unicode="T" horiz-adv-x="500" 
d="M252 -3q-50 0 -50 63l3 388l-2 239q-16 -1 -62.5 -7.5t-69.5 -6.5q-15 0 -31 8t-23.5 20t-7.5 23q0 13 8 25.5t25.5 19t35.5 6.5h30l87 -1q14 0 30.5 0.5t131.5 9.5q7 1 29 3t34.5 2.5t21.5 0.5q23 0 35 -10q14 -13 14 -36q0 -20 -13 -34.5t-33 -14.5h-6q-117 -5 -141 -5
l-1 -60q-6 -109 -6 -274v-78q0 -110 3 -165l3 -59q0 -29 -11 -43t-34 -14z" />
    <glyph glyph-name="Tbar" unicode="&#x166;" horiz-adv-x="500" 
d="M477 780q14 -13 14 -36q0 -20 -13 -34.5t-33 -14.5h-6q-117 -5 -141 -5l-1 -60q-4 -67 -6 -200l38 4l33 2q22 0 34.5 -12t12.5 -30q0 -22 -15 -41t-36 -19l-67 -1v-55q0 -110 3 -165l3 -59q0 -29 -11 -43t-34 -14q-50 0 -50 63l2 268l-8 -1q-13 -1 -41.5 -7t-46.5 -6
q-50 0 -50 50v8q2 20 17.5 30.5t36.5 12.5l93 7v26l-2 239q-16 -1 -62.5 -7.5t-69.5 -6.5q-15 0 -31 8t-23.5 20t-7.5 23q0 13 8 25.5t25.5 19t35.5 6.5h30l87 -1q14 0 30.5 0.5t131.5 9.5q7 1 29 3t34.5 2.5t21.5 0.5q23 0 35 -10z" />
    <glyph glyph-name="Tcaron" unicode="&#x164;" horiz-adv-x="500" 
d="M260 827q-9 0 -13 2h-8q-8 0 -16.5 2.5t-17.5 8.5t-30 26q-2 2 -18 16t-31 30t-21 30.5t-6 24.5t6.5 20.5t20 17t25.5 6.5q11 0 23 -8.5t18 -19.5q9 -20 47 -51l27 36q20 32 30.5 43t23 14t17.5 3q15 0 25 -9q19 -21 19 -37q0 -15 -23 -44l-38 -51q-1 -1 -13.5 -20.5
t-24 -29.5t-22.5 -10zM252 -3q-50 0 -50 63l3 388l-2 239q-16 -1 -62.5 -7.5t-69.5 -6.5q-15 0 -31 8t-23.5 20t-7.5 23q0 13 8 25.5t25.5 19t35.5 6.5h30l87 -1q14 0 30.5 0.5t131.5 9.5q7 1 29 3t34.5 2.5t21.5 0.5q23 0 35 -10q14 -13 14 -36q0 -20 -13 -34.5t-33 -14.5
h-6q-117 -5 -141 -5l-1 -60q-6 -109 -6 -274v-78q0 -110 3 -165l3 -59q0 -29 -11 -43t-34 -14z" />
    <glyph glyph-name="uni0162" unicode="&#x162;" horiz-adv-x="500" 
d="M477 780q14 -13 14 -36q0 -20 -13 -34.5t-33 -14.5h-6q-117 -5 -141 -5l-1 -60q-6 -109 -6 -274v-78q0 -110 3 -165l3 -59q0 -30 -10 -43v-8l-1 -21q33 -8 55 -31q13 -14 20 -34t7 -40q0 -38 -23.5 -71t-53.5 -46t-53 -13q-20 0 -36 11.5t-16 30.5q0 16 15 34t30 18h6
q14 1 28 10t14 25t-14 16q-4 0 -13 -3t-16 -3q-19 0 -30 12.5t-11 53.5q0 64 9 86l-2 22l3 388l-2 239q-16 -1 -62.5 -7.5t-69.5 -6.5q-15 0 -31 8t-23.5 20t-7.5 23q0 13 8 25.5t25.5 19t35.5 6.5h30l87 -1q14 0 30.5 0.5t131.5 9.5q7 1 29 3t34.5 2.5t21.5 0.5
q23 0 35 -10z" />
    <glyph glyph-name="uni1E70" unicode="&#x1e70;" horiz-adv-x="500" 
d="M252 -3q-50 0 -50 63l3 388l-2 239q-16 -1 -62.5 -7.5t-69.5 -6.5q-15 0 -31 8t-23.5 20t-7.5 23q0 13 8 25.5t25.5 19t35.5 6.5h30l87 -1q14 0 30.5 0.5t131.5 9.5q7 1 29 3t34.5 2.5t21.5 0.5q23 0 35 -10q14 -13 14 -36q0 -20 -13 -34.5t-33 -14.5h-6q-117 -5 -141 -5
l-1 -60q-6 -109 -6 -274v-78q0 -110 3 -165l3 -59q0 -29 -11 -43t-34 -14zM140 -256q-17 0 -32.5 14t-15.5 31q0 9 5.5 20.5t21.5 26.5t19 19l64 73q15 19 34 19q7 0 17 -6t14 -7q17 -7 42 -39q9 -12 32 -34.5t27 -26.5q22 -22 22 -37q0 -12 -13 -32t-31 -21q-29 -1 -47 26
q-9 13 -30 34t-27 28q-1 -1 -4 -4.5t-36.5 -43.5t-61.5 -40z" />
    <glyph glyph-name="uni021A" unicode="&#x21a;" horiz-adv-x="500" 
d="M252 -3q-50 0 -50 63l3 388l-2 239q-16 -1 -62.5 -7.5t-69.5 -6.5q-15 0 -31 8t-23.5 20t-7.5 23q0 13 8 25.5t25.5 19t35.5 6.5h30l87 -1q14 0 30.5 0.5t131.5 9.5q7 1 29 3t34.5 2.5t21.5 0.5q23 0 35 -10q14 -13 14 -36q0 -20 -13 -34.5t-33 -14.5h-6q-117 -5 -141 -5
l-1 -60q-6 -109 -6 -274v-78q0 -110 3 -165l3 -59q0 -29 -11 -43t-34 -14zM242 -281q-23 0 -40 17.5t-17 38.5q0 11 8.5 30.5t8.5 29.5l-1 7q-1 2 -10 19t-9 39q0 15 6.5 27.5t20.5 16.5l11 2q25 0 44 -22.5t26 -48t7 -41.5q0 -29 -6.5 -58t-19 -42.5t-24.5 -14.5h-5z" />
    <glyph glyph-name="uni1E6C" unicode="&#x1e6c;" horiz-adv-x="500" 
d="M252 -3q-50 0 -50 63l3 388l-2 239q-16 -1 -62.5 -7.5t-69.5 -6.5q-15 0 -31 8t-23.5 20t-7.5 23q0 13 8 25.5t25.5 19t35.5 6.5h30l87 -1q14 0 30.5 0.5t131.5 9.5q7 1 29 3t34.5 2.5t21.5 0.5q23 0 35 -10q14 -13 14 -36q0 -20 -13 -34.5t-33 -14.5h-6q-117 -5 -141 -5
l-1 -60q-6 -109 -6 -274v-78q0 -110 3 -165l3 -59q0 -29 -11 -43t-34 -14zM238 -190q-22 0 -37.5 18t-15.5 39q0 23 14.5 39.5t36.5 17.5h3q37 0 52 -37q4 -8 4 -16q0 -20 -17.5 -40.5t-39.5 -20.5z" />
    <glyph glyph-name="uni1E6E" unicode="&#x1e6e;" horiz-adv-x="500" 
d="M252 -3q-50 0 -50 63l3 388l-2 239q-16 -1 -62.5 -7.5t-69.5 -6.5q-15 0 -31 8t-23.5 20t-7.5 23q0 13 8 25.5t25.5 19t35.5 6.5h30l87 -1q14 0 30.5 0.5t131.5 9.5q7 1 29 3t34.5 2.5t21.5 0.5q23 0 35 -10q14 -13 14 -36q0 -20 -13 -34.5t-33 -14.5h-6q-117 -5 -141 -5
l-1 -60q-6 -109 -6 -274v-78q0 -110 3 -165l3 -59q0 -29 -11 -43t-34 -14zM164 -181q-22 0 -39.5 14.5t-17.5 38.5q0 17 13 29.5t43 12.5l151 3q37 0 51 -10t14 -28q0 -21 -16 -39.5t-37 -18.5l-15 2l-42 3z" />
    <glyph glyph-name="U" unicode="U" horiz-adv-x="572" 
d="M291 -19q-36 0 -68 13q-87 33 -135.5 156.5t-48.5 381.5l3 149q0 44 11.5 60.5t31.5 16.5q24 0 38.5 -14t14.5 -38q0 -31 -4.5 -97.5t-4.5 -98.5q0 -189 34 -304q40 -139 127 -139q49 0 84 43t52 130.5t17 216.5q0 66 -7 159q-1 13 -7 55.5t-6 63.5q0 16 7.5 26.5
t35.5 15.5q9 2 22.5 -4t21 -16.5t9.5 -20.5q1 -7 2 -29t3 -32q3 -39 6 -103.5t3 -103.5q1 -62 -5.5 -130t-19.5 -125q-16 -70 -45 -121t-72 -81t-100 -30z" />
    <glyph glyph-name="Uacute" unicode="&#xda;" horiz-adv-x="572" 
d="M250 832q-19 0 -33.5 15.5t-14.5 33.5q0 6 2 14.5t8.5 20t16.5 24t23 27t17 18.5q25 31 40 40.5t31 9.5q8 0 18 -7t17 -20.5t7 -22.5q0 -7 -4.5 -16t-26.5 -31q-16 -16 -33 -38q-5 -6 -19 -27t-23.5 -29.5t-17.5 -10.5zM291 -19q-36 0 -68 13q-87 33 -135.5 156.5
t-48.5 381.5l3 149q0 44 11.5 60.5t31.5 16.5q24 0 38.5 -14t14.5 -38q0 -31 -4.5 -97.5t-4.5 -98.5q0 -189 34 -304q40 -139 127 -139q49 0 84 43t52 130.5t17 216.5q0 66 -7 159q-1 13 -7 55.5t-6 63.5q0 16 7.5 26.5t35.5 15.5q9 2 22.5 -4t21 -16.5t9.5 -20.5
q1 -7 2 -29t3 -32q3 -39 6 -103.5t3 -103.5q1 -62 -5.5 -130t-19.5 -125q-16 -70 -45 -121t-72 -81t-100 -30z" />
    <glyph glyph-name="uni0244" unicode="&#x244;" horiz-adv-x="646" 
d="M550 523q27 0 42 -12t15 -30q0 -22 -18 -41t-44 -19l-12 1q-3 -117 -25 -209q-16 -70 -45 -121t-72 -81t-100 -30q-36 0 -68 13q-169 65 -182 443l-2 15v8l1 4l-1 68l3 149q0 44 11.5 60.5t31.5 16.5q24 0 38.5 -14t14.5 -38q0 -31 -4.5 -97.5t-4.5 -98.5v-6
q34 2 131.5 4t135.5 5l46 3q-2 51 -6 100q-1 13 -7 55.5t-6 63.5q0 16 7.5 26.5t35.5 15.5q9 2 22.5 -4t21 -16.5t9.5 -20.5q1 -7 2 -29t3 -32q7 -85 8 -152h18zM290 67q45 0 78.5 37t52.5 116t22 200q-117 0 -224 -5q-17 -1 -47.5 -5.5t-39.5 -5.5q5 -110 31 -198
q40 -139 127 -139z" />
    <glyph glyph-name="Ubreve" unicode="&#x16c;" horiz-adv-x="572" 
d="M279 852q-26 0 -58 15.5t-57.5 50t-25.5 69.5q0 20 13 35t34 15q20 0 29 -10.5t16 -28t10 -24.5q15 -32 40 -32q9 0 17 3.5t13.5 10t8 14t12.5 49.5t43 42q20 0 35.5 -15t15.5 -36v-6q-8 -62 -49 -107t-97 -45zM291 -19q-36 0 -68 13q-87 33 -135.5 156.5t-48.5 381.5
l3 149q0 44 11.5 60.5t31.5 16.5q24 0 38.5 -14t14.5 -38q0 -31 -4.5 -97.5t-4.5 -98.5q0 -189 34 -304q40 -139 127 -139q49 0 84 43t52 130.5t17 216.5q0 66 -7 159q-1 13 -7 55.5t-6 63.5q0 16 7.5 26.5t35.5 15.5q9 2 22.5 -4t21 -16.5t9.5 -20.5q1 -7 2 -29t3 -32
q3 -39 6 -103.5t3 -103.5q1 -62 -5.5 -130t-19.5 -125q-16 -70 -45 -121t-72 -81t-100 -30z" />
    <glyph glyph-name="uni01D3" unicode="&#x1d3;" horiz-adv-x="572" 
d="M301 837q-9 0 -13 2h-8q-8 0 -16.5 2.5t-17.5 8.5t-30 26q-2 2 -18 16t-31 30t-21 30.5t-6 24.5t6.5 20.5t20 17t25.5 6.5q11 0 23 -8.5t18 -19.5q9 -20 47 -51l27 36q20 32 30.5 43t23 14t17.5 3q15 0 25 -9q19 -21 19 -37q0 -15 -23 -44l-38 -51q-1 -1 -13.5 -20.5
t-24 -29.5t-22.5 -10zM291 -19q-36 0 -68 13q-87 33 -135.5 156.5t-48.5 381.5l3 149q0 44 11.5 60.5t31.5 16.5q24 0 38.5 -14t14.5 -38q0 -31 -4.5 -97.5t-4.5 -98.5q0 -189 34 -304q40 -139 127 -139q49 0 84 43t52 130.5t17 216.5q0 66 -7 159q-1 13 -7 55.5t-6 63.5
q0 16 7.5 26.5t35.5 15.5q9 2 22.5 -4t21 -16.5t9.5 -20.5q1 -7 2 -29t3 -32q3 -39 6 -103.5t3 -103.5q1 -62 -5.5 -130t-19.5 -125q-16 -70 -45 -121t-72 -81t-100 -30z" />
    <glyph glyph-name="Ucircumflex" unicode="&#xdb;" horiz-adv-x="572" 
d="M180 812q-17 0 -32.5 14t-15.5 31q0 9 5.5 20.5t21.5 26.5t19 19l64 73q15 19 34 19q7 0 17 -6t14 -7q17 -7 42 -39q9 -12 32 -34.5t27 -26.5q22 -22 22 -37q0 -12 -13 -32t-31 -21q-29 -1 -47 26q-9 13 -30 34t-27 28q-1 -1 -4 -4.5t-36.5 -43.5t-61.5 -40zM291 -19
q-36 0 -68 13q-87 33 -135.5 156.5t-48.5 381.5l3 149q0 44 11.5 60.5t31.5 16.5q24 0 38.5 -14t14.5 -38q0 -31 -4.5 -97.5t-4.5 -98.5q0 -189 34 -304q40 -139 127 -139q49 0 84 43t52 130.5t17 216.5q0 66 -7 159q-1 13 -7 55.5t-6 63.5q0 16 7.5 26.5t35.5 15.5
q9 2 22.5 -4t21 -16.5t9.5 -20.5q1 -7 2 -29t3 -32q3 -39 6 -103.5t3 -103.5q1 -62 -5.5 -130t-19.5 -125q-16 -70 -45 -121t-72 -81t-100 -30z" />
    <glyph glyph-name="Udieresis" unicode="&#xdc;" horiz-adv-x="572" 
d="M378 831q-22 0 -37.5 18t-15.5 39q0 23 14.5 39.5t36.5 17.5h3q37 0 52 -37q4 -8 4 -16q0 -20 -17.5 -40.5t-39.5 -20.5zM178 835q-19 0 -33.5 10t-17.5 29l-1 14q0 21 8.5 33t19.5 17t26 5q17 0 30.5 -10t18.5 -25q4 -9 4 -22q0 -15 -9 -28.5t-23 -18.5q-9 -4 -23 -4z
M291 -19q-36 0 -68 13q-87 33 -135.5 156.5t-48.5 381.5l3 149q0 44 11.5 60.5t31.5 16.5q24 0 38.5 -14t14.5 -38q0 -31 -4.5 -97.5t-4.5 -98.5q0 -189 34 -304q40 -139 127 -139q49 0 84 43t52 130.5t17 216.5q0 66 -7 159q-1 13 -7 55.5t-6 63.5q0 16 7.5 26.5t35.5 15.5
q9 2 22.5 -4t21 -16.5t9.5 -20.5q1 -7 2 -29t3 -32q3 -39 6 -103.5t3 -103.5q1 -62 -5.5 -130t-19.5 -125q-16 -70 -45 -121t-72 -81t-100 -30z" />
    <glyph glyph-name="uni01D7" unicode="&#x1d7;" horiz-adv-x="572" 
d="M248 1005q-19 0 -33.5 15.5t-14.5 33.5q0 6 2 14.5t8.5 20t16.5 24t23 27t17 18.5q25 31 40 40.5t31 9.5q8 0 18 -7t17 -20.5t7 -22.5q0 -7 -4.5 -16t-26.5 -31q-16 -16 -33 -38q-5 -6 -19 -27t-23.5 -29.5t-17.5 -10.5zM378 831q-22 0 -37.5 18t-15.5 39q0 23 14.5 39.5
t36.5 17.5h3q37 0 52 -37q4 -8 4 -16q0 -20 -17.5 -40.5t-39.5 -20.5zM178 835q-19 0 -33.5 10t-17.5 29l-1 14q0 21 8.5 33t19.5 17t26 5q17 0 30.5 -10t18.5 -25q4 -9 4 -22q0 -15 -9 -28.5t-23 -18.5q-9 -4 -23 -4zM291 -19q-36 0 -68 13q-87 33 -135.5 156.5
t-48.5 381.5l3 149q0 44 11.5 60.5t31.5 16.5q24 0 38.5 -14t14.5 -38q0 -31 -4.5 -97.5t-4.5 -98.5q0 -189 34 -304q40 -139 127 -139q49 0 84 43t52 130.5t17 216.5q0 66 -7 159q-1 13 -7 55.5t-6 63.5q0 16 7.5 26.5t35.5 15.5q9 2 22.5 -4t21 -16.5t9.5 -20.5
q1 -7 2 -29t3 -32q3 -39 6 -103.5t3 -103.5q1 -62 -5.5 -130t-19.5 -125q-16 -70 -45 -121t-72 -81t-100 -30z" />
    <glyph glyph-name="uni01D9" unicode="&#x1d9;" horiz-adv-x="572" 
d="M299 1010q-9 0 -13 2h-8q-8 0 -16.5 2.5t-17.5 8.5t-30 26q-2 2 -18 16t-31 30t-21 30.5t-6 24.5t6.5 20.5t20 17t25.5 6.5q11 0 23 -8.5t18 -19.5q9 -20 47 -51l27 36q20 32 30.5 43t23 14t17.5 3q15 0 25 -9q19 -21 19 -37q0 -15 -23 -44l-38 -51q-1 -1 -13.5 -20.5
t-24 -29.5t-22.5 -10zM378 831q-22 0 -37.5 18t-15.5 39q0 23 14.5 39.5t36.5 17.5h3q37 0 52 -37q4 -8 4 -16q0 -20 -17.5 -40.5t-39.5 -20.5zM178 835q-19 0 -33.5 10t-17.5 29l-1 14q0 21 8.5 33t19.5 17t26 5q17 0 30.5 -10t18.5 -25q4 -9 4 -22q0 -15 -9 -28.5
t-23 -18.5q-9 -4 -23 -4zM291 -19q-36 0 -68 13q-87 33 -135.5 156.5t-48.5 381.5l3 149q0 44 11.5 60.5t31.5 16.5q24 0 38.5 -14t14.5 -38q0 -31 -4.5 -97.5t-4.5 -98.5q0 -189 34 -304q40 -139 127 -139q49 0 84 43t52 130.5t17 216.5q0 66 -7 159q-1 13 -7 55.5t-6 63.5
q0 16 7.5 26.5t35.5 15.5q9 2 22.5 -4t21 -16.5t9.5 -20.5q1 -7 2 -29t3 -32q3 -39 6 -103.5t3 -103.5q1 -62 -5.5 -130t-19.5 -125q-16 -70 -45 -121t-72 -81t-100 -30z" />
    <glyph glyph-name="uni01DB" unicode="&#x1db;" horiz-adv-x="572" 
d="M321 1002q-12 0 -23.5 5.5t-18.5 14.5l-22 30q-4 6 -38 40t-34 59q0 13 6 26t15.5 19t18.5 7q4 0 13 -1.5t16 -7.5t23 -26q20 -25 48 -55q2 -3 15.5 -15.5t21 -22.5t9.5 -17t2 -11q0 -19 -16 -32t-36 -13zM378 831q-22 0 -37.5 18t-15.5 39q0 23 14.5 39.5t36.5 17.5h3
q37 0 52 -37q4 -8 4 -16q0 -20 -17.5 -40.5t-39.5 -20.5zM178 835q-19 0 -33.5 10t-17.5 29l-1 14q0 21 8.5 33t19.5 17t26 5q17 0 30.5 -10t18.5 -25q4 -9 4 -22q0 -15 -9 -28.5t-23 -18.5q-9 -4 -23 -4zM291 -19q-36 0 -68 13q-87 33 -135.5 156.5t-48.5 381.5l3 149
q0 44 11.5 60.5t31.5 16.5q24 0 38.5 -14t14.5 -38q0 -31 -4.5 -97.5t-4.5 -98.5q0 -189 34 -304q40 -139 127 -139q49 0 84 43t52 130.5t17 216.5q0 66 -7 159q-1 13 -7 55.5t-6 63.5q0 16 7.5 26.5t35.5 15.5q9 2 22.5 -4t21 -16.5t9.5 -20.5q1 -7 2 -29t3 -32
q3 -39 6 -103.5t3 -103.5q1 -62 -5.5 -130t-19.5 -125q-16 -70 -45 -121t-72 -81t-100 -30z" />
    <glyph glyph-name="uni01D5" unicode="&#x1d5;" horiz-adv-x="572" 
d="M196 1015q-22 0 -39.5 14.5t-17.5 38.5q0 17 13 29.5t43 12.5l151 3q37 0 51 -10t14 -28q0 -21 -16 -39.5t-37 -18.5l-15 2l-42 3zM378 831q-22 0 -37.5 18t-15.5 39q0 23 14.5 39.5t36.5 17.5h3q37 0 52 -37q4 -8 4 -16q0 -20 -17.5 -40.5t-39.5 -20.5zM178 835
q-19 0 -33.5 10t-17.5 29l-1 14q0 21 8.5 33t19.5 17t26 5q17 0 30.5 -10t18.5 -25q4 -9 4 -22q0 -15 -9 -28.5t-23 -18.5q-9 -4 -23 -4zM291 -19q-36 0 -68 13q-87 33 -135.5 156.5t-48.5 381.5l3 149q0 44 11.5 60.5t31.5 16.5q24 0 38.5 -14t14.5 -38q0 -31 -4.5 -97.5
t-4.5 -98.5q0 -189 34 -304q40 -139 127 -139q49 0 84 43t52 130.5t17 216.5q0 66 -7 159q-1 13 -7 55.5t-6 63.5q0 16 7.5 26.5t35.5 15.5q9 2 22.5 -4t21 -16.5t9.5 -20.5q1 -7 2 -29t3 -32q3 -39 6 -103.5t3 -103.5q1 -62 -5.5 -130t-19.5 -125q-16 -70 -45 -121t-72 -81
t-100 -30z" />
    <glyph glyph-name="uni1EE4" unicode="&#x1ee4;" horiz-adv-x="572" 
d="M291 -19q-36 0 -68 13q-87 33 -135.5 156.5t-48.5 381.5l3 149q0 44 11.5 60.5t31.5 16.5q24 0 38.5 -14t14.5 -38q0 -31 -4.5 -97.5t-4.5 -98.5q0 -189 34 -304q40 -139 127 -139q49 0 84 43t52 130.5t17 216.5q0 66 -7 159q-1 13 -7 55.5t-6 63.5q0 16 7.5 26.5
t35.5 15.5q9 2 22.5 -4t21 -16.5t9.5 -20.5q1 -7 2 -29t3 -32q3 -39 6 -103.5t3 -103.5q1 -62 -5.5 -130t-19.5 -125q-16 -70 -45 -121t-72 -81t-100 -30zM282 -209q-22 0 -37.5 18t-15.5 39q0 23 14.5 39.5t36.5 17.5h3q37 0 52 -37q4 -8 4 -16q0 -20 -17.5 -40.5
t-39.5 -20.5z" />
    <glyph glyph-name="Ugrave" unicode="&#xd9;" horiz-adv-x="572" 
d="M323 829q-12 0 -23.5 5.5t-18.5 14.5l-22 30q-4 6 -38 40t-34 59q0 13 6 26t15.5 19t18.5 7q4 0 13 -1.5t16 -7.5t23 -26q20 -25 48 -55q2 -3 15.5 -15.5t21 -22.5t9.5 -17t2 -11q0 -19 -16 -32t-36 -13zM291 -19q-36 0 -68 13q-87 33 -135.5 156.5t-48.5 381.5l3 149
q0 44 11.5 60.5t31.5 16.5q24 0 38.5 -14t14.5 -38q0 -31 -4.5 -97.5t-4.5 -98.5q0 -189 34 -304q40 -139 127 -139q49 0 84 43t52 130.5t17 216.5q0 66 -7 159q-1 13 -7 55.5t-6 63.5q0 16 7.5 26.5t35.5 15.5q9 2 22.5 -4t21 -16.5t9.5 -20.5q1 -7 2 -29t3 -32
q3 -39 6 -103.5t3 -103.5q1 -62 -5.5 -130t-19.5 -125q-16 -70 -45 -121t-72 -81t-100 -30z" />
    <glyph glyph-name="uni1EE6" unicode="&#x1ee6;" horiz-adv-x="572" 
d="M271 844q-18 0 -32.5 14t-14.5 32q0 16 23.5 44t32 44t8.5 34q0 5 -2.5 10t-5.5 5q-7 0 -23 -13t-24 -13q-25 0 -40.5 14t-15.5 31q0 18 14 34.5t41 27t48 10.5q28 0 52 -15q21 -14 33.5 -39.5t12.5 -51.5q0 -38 -21 -80q-24 -50 -44 -69t-42 -19zM291 -19q-36 0 -68 13
q-87 33 -135.5 156.5t-48.5 381.5l3 149q0 44 11.5 60.5t31.5 16.5q24 0 38.5 -14t14.5 -38q0 -31 -4.5 -97.5t-4.5 -98.5q0 -189 34 -304q40 -139 127 -139q49 0 84 43t52 130.5t17 216.5q0 66 -7 159q-1 13 -7 55.5t-6 63.5q0 16 7.5 26.5t35.5 15.5q9 2 22.5 -4t21 -16.5
t9.5 -20.5q1 -7 2 -29t3 -32q3 -39 6 -103.5t3 -103.5q1 -62 -5.5 -130t-19.5 -125q-16 -70 -45 -121t-72 -81t-100 -30z" />
    <glyph glyph-name="Uhorn" unicode="&#x1af;" horiz-adv-x="634" 
d="M669 787q6 -27 6 -57q0 -41 -15 -76t-41.5 -54.5t-64.5 -19.5l-24 2q3 -57 3 -114q1 -62 -5.5 -130t-19.5 -125q-16 -70 -45 -121t-72 -81t-100 -30q-36 0 -68 13q-87 33 -135.5 156.5t-48.5 381.5l3 149q0 44 11.5 60.5t31.5 16.5q24 0 38.5 -14t14.5 -38
q0 -31 -4.5 -97.5t-4.5 -98.5q0 -189 34 -304q40 -139 127 -139q49 0 84 43t52 130.5t17 216.5q0 66 -7 159q-1 13 -7 55.5t-6 63.5q0 16 7.5 26.5t35.5 15.5q9 2 22.5 -4t21 -16.5t9.5 -20.5l3 -49l10.5 -7t12.5 -7t10 -2q12 0 20.5 14t8.5 41q0 14 -8.5 42t-8.5 37
q0 16 15 29.5t32 13.5q19 0 33 -12.5t22 -48.5z" />
    <glyph glyph-name="uni1EE8" unicode="&#x1ee8;" horiz-adv-x="634" 
d="M256 832q-19 0 -33.5 15.5t-14.5 33.5q0 6 2 14.5t8.5 20t16.5 24t23 27t17 18.5q25 31 40 40.5t31 9.5q8 0 18 -7t17 -20.5t7 -22.5q0 -7 -4.5 -16t-26.5 -31q-16 -16 -33 -38q-5 -6 -19 -27t-23.5 -29.5t-17.5 -10.5zM669 787q6 -27 6 -57q0 -41 -15 -76t-41.5 -54.5
t-64.5 -19.5l-24 2q3 -57 3 -114q1 -62 -5.5 -130t-19.5 -125q-16 -70 -45 -121t-72 -81t-100 -30q-36 0 -68 13q-87 33 -135.5 156.5t-48.5 381.5l3 149q0 44 11.5 60.5t31.5 16.5q24 0 38.5 -14t14.5 -38q0 -31 -4.5 -97.5t-4.5 -98.5q0 -189 34 -304q40 -139 127 -139
q49 0 84 43t52 130.5t17 216.5q0 66 -7 159q-1 13 -7 55.5t-6 63.5q0 16 7.5 26.5t35.5 15.5q9 2 22.5 -4t21 -16.5t9.5 -20.5l3 -49l10.5 -7t12.5 -7t10 -2q12 0 20.5 14t8.5 41q0 14 -8.5 42t-8.5 37q0 16 15 29.5t32 13.5q19 0 33 -12.5t22 -48.5z" />
    <glyph glyph-name="uni1EF0" unicode="&#x1ef0;" horiz-adv-x="634" 
d="M669 787q6 -27 6 -57q0 -41 -15 -76t-41.5 -54.5t-64.5 -19.5l-24 2q3 -57 3 -114q1 -62 -5.5 -130t-19.5 -125q-16 -70 -45 -121t-72 -81t-100 -30q-36 0 -68 13q-87 33 -135.5 156.5t-48.5 381.5l3 149q0 44 11.5 60.5t31.5 16.5q24 0 38.5 -14t14.5 -38
q0 -31 -4.5 -97.5t-4.5 -98.5q0 -189 34 -304q40 -139 127 -139q49 0 84 43t52 130.5t17 216.5q0 66 -7 159q-1 13 -7 55.5t-6 63.5q0 16 7.5 26.5t35.5 15.5q9 2 22.5 -4t21 -16.5t9.5 -20.5l3 -49l10.5 -7t12.5 -7t10 -2q12 0 20.5 14t8.5 41q0 14 -8.5 42t-8.5 37
q0 16 15 29.5t32 13.5q19 0 33 -12.5t22 -48.5zM285 -76q37 0 52 -37q4 -8 4 -16q0 -20 -17.5 -40.5t-39.5 -20.5t-37.5 18t-15.5 39q0 23 14.5 39.5t36.5 17.5h3z" />
    <glyph glyph-name="uni1EEA" unicode="&#x1eea;" horiz-adv-x="634" 
d="M265 879q-4 6 -38 40t-34 59q0 13 6 26t15.5 19t18.5 7q4 0 13 -1.5t16 -7.5t23 -26q20 -25 48 -55q2 -3 15.5 -15.5t21 -22.5t9.5 -17t2 -11q0 -19 -16 -32t-36 -13q-12 0 -23.5 5.5t-18.5 14.5zM669 787q6 -27 6 -57q0 -41 -15 -76t-41.5 -54.5t-64.5 -19.5l-24 2
q3 -57 3 -114q1 -62 -5.5 -130t-19.5 -125q-16 -70 -45 -121t-72 -81t-100 -30q-36 0 -68 13q-87 33 -135.5 156.5t-48.5 381.5l3 149q0 44 11.5 60.5t31.5 16.5q24 0 38.5 -14t14.5 -38q0 -31 -4.5 -97.5t-4.5 -98.5q0 -189 34 -304q40 -139 127 -139q49 0 84 43t52 130.5
t17 216.5q0 66 -7 159q-1 13 -7 55.5t-6 63.5q0 16 7.5 26.5t35.5 15.5q9 2 22.5 -4t21 -16.5t9.5 -20.5l3 -49l10.5 -7t12.5 -7t10 -2q12 0 20.5 14t8.5 41q0 14 -8.5 42t-8.5 37q0 16 15 29.5t32 13.5q19 0 33 -12.5t22 -48.5z" />
    <glyph glyph-name="uni1EEC" unicode="&#x1eec;" horiz-adv-x="634" 
d="M239 1001q-25 0 -40.5 14t-15.5 31q0 18 14 34.5t41 27t48 10.5q28 0 52 -15q21 -14 33.5 -39.5t12.5 -51.5q0 -38 -21 -80q-24 -50 -44 -69t-42 -19q-18 0 -32.5 14t-14.5 32q0 16 23.5 44t32 44t8.5 34q0 5 -2.5 10t-5.5 5q-7 0 -23 -13t-24 -13zM669 787q6 -27 6 -57
q0 -41 -15 -76t-41.5 -54.5t-64.5 -19.5l-24 2q3 -57 3 -114q1 -62 -5.5 -130t-19.5 -125q-16 -70 -45 -121t-72 -81t-100 -30q-36 0 -68 13q-87 33 -135.5 156.5t-48.5 381.5l3 149q0 44 11.5 60.5t31.5 16.5q24 0 38.5 -14t14.5 -38q0 -31 -4.5 -97.5t-4.5 -98.5
q0 -189 34 -304q40 -139 127 -139q49 0 84 43t52 130.5t17 216.5q0 66 -7 159q-1 13 -7 55.5t-6 63.5q0 16 7.5 26.5t35.5 15.5q9 2 22.5 -4t21 -16.5t9.5 -20.5l3 -49l10.5 -7t12.5 -7t10 -2q12 0 20.5 14t8.5 41q0 14 -8.5 42t-8.5 37q0 16 15 29.5t32 13.5q19 0 33 -12.5
t22 -48.5z" />
    <glyph glyph-name="uni1EEE" unicode="&#x1eee;" horiz-adv-x="634" 
d="M161 860q-41 0 -41 37q0 16 12 36t39 35t49 15q41 0 90 -34q3 -2 13.5 -8.5t16.5 -9t10 -2.5q10 1 12 4q7 18 36 20h11q18 0 31.5 -10t13.5 -30q0 -32 -31.5 -54.5t-66.5 -22.5q-37 0 -92 36q-27 18 -37 18q-4 -1 -10 -7.5t-7 -7.5q-19 -15 -49 -15zM669 787q6 -27 6 -57
q0 -41 -15 -76t-41.5 -54.5t-64.5 -19.5l-24 2q3 -57 3 -114q1 -62 -5.5 -130t-19.5 -125q-16 -70 -45 -121t-72 -81t-100 -30q-36 0 -68 13q-87 33 -135.5 156.5t-48.5 381.5l3 149q0 44 11.5 60.5t31.5 16.5q24 0 38.5 -14t14.5 -38q0 -31 -4.5 -97.5t-4.5 -98.5
q0 -189 34 -304q40 -139 127 -139q49 0 84 43t52 130.5t17 216.5q0 66 -7 159q-1 13 -7 55.5t-6 63.5q0 16 7.5 26.5t35.5 15.5q9 2 22.5 -4t21 -16.5t9.5 -20.5l3 -49l10.5 -7t12.5 -7t10 -2q12 0 20.5 14t8.5 41q0 14 -8.5 42t-8.5 37q0 16 15 29.5t32 13.5q19 0 33 -12.5
t22 -48.5z" />
    <glyph glyph-name="Uhungarumlaut" unicode="&#x170;" horiz-adv-x="572" 
d="M338 807q-15 0 -29.5 11.5t-14.5 26.5q0 12 6 22q15 38 39 89q21 47 35 69q6 9 16.5 14t20.5 5q22 0 34.5 -11.5t12.5 -31.5q0 -13 -5.5 -30.5t-21 -44t-18.5 -32.5q-4 -8 -11 -24.5t-11 -26t-11 -17.5t-16.5 -13.5t-25.5 -5.5zM158 797q-19 0 -33 11.5t-14 30.5
q0 5 2 13.5t15 32.5l33 66q3 6 13 30.5t21.5 41t27.5 16.5q11 0 23 -5q13 -7 21.5 -20t8.5 -28q0 -17 -9 -29q-14 -19 -39 -76q-2 -4 -12.5 -31t-24 -40t-33.5 -13zM291 -19q-36 0 -68 13q-87 33 -135.5 156.5t-48.5 381.5l3 149q0 44 11.5 60.5t31.5 16.5q24 0 38.5 -14
t14.5 -38q0 -31 -4.5 -97.5t-4.5 -98.5q0 -189 34 -304q40 -139 127 -139q49 0 84 43t52 130.5t17 216.5q0 66 -7 159q-1 13 -7 55.5t-6 63.5q0 16 7.5 26.5t35.5 15.5q9 2 22.5 -4t21 -16.5t9.5 -20.5q1 -7 2 -29t3 -32q3 -39 6 -103.5t3 -103.5q1 -62 -5.5 -130
t-19.5 -125q-16 -70 -45 -121t-72 -81t-100 -30z" />
    <glyph glyph-name="Umacron" unicode="&#x16a;" horiz-adv-x="572" 
d="M198 842q-22 0 -39.5 14.5t-17.5 38.5q0 17 13 29.5t43 12.5l151 3q37 0 51 -10t14 -28q0 -21 -16 -39.5t-37 -18.5l-15 2l-42 3zM291 -19q-36 0 -68 13q-87 33 -135.5 156.5t-48.5 381.5l3 149q0 44 11.5 60.5t31.5 16.5q24 0 38.5 -14t14.5 -38q0 -31 -4.5 -97.5
t-4.5 -98.5q0 -189 34 -304q40 -139 127 -139q49 0 84 43t52 130.5t17 216.5q0 66 -7 159q-1 13 -7 55.5t-6 63.5q0 16 7.5 26.5t35.5 15.5q9 2 22.5 -4t21 -16.5t9.5 -20.5q1 -7 2 -29t3 -32q3 -39 6 -103.5t3 -103.5q1 -62 -5.5 -130t-19.5 -125q-16 -70 -45 -121t-72 -81
t-100 -30z" />
    <glyph glyph-name="Uogonek" unicode="&#x172;" horiz-adv-x="572" 
d="M508 213q-30 -128 -97 -187q-3 -6 -32 -37.5t-29 -58.5q0 -9 8 -21q7 0 19.5 6t19.5 6q17 0 31 -15.5t14 -32.5q0 -14 -9 -28t-30 -21.5t-43 -7.5q-44 0 -72 36t-28 81q0 10 3 25t6 24q-23 3 -46 12q-87 33 -135.5 156.5t-48.5 381.5l3 149q0 44 11.5 60.5t31.5 16.5
q24 0 38.5 -14t14.5 -38q0 -31 -4.5 -97.5t-4.5 -98.5q0 -189 34 -304q40 -139 127 -139q8 0 21 2.5t20 5.5q9 9 20 12q92 69 92 370q0 66 -7 159q-1 13 -7 55.5t-6 63.5q0 16 7.5 26.5t35.5 15.5q9 2 22.5 -4t21 -16.5t9.5 -20.5q1 -7 2 -29t3 -32q3 -39 6 -103.5t3 -103.5
q1 -62 -5.5 -130t-19.5 -125z" />
    <glyph glyph-name="Uring" unicode="&#x16e;" horiz-adv-x="572" 
d="M283 804q-26 0 -52.5 13.5t-45 45.5t-18.5 70q0 36 17 68t42.5 46t50.5 14t46 -9q17 -7 33.5 -24t26.5 -44.5t12 -57.5q-5 -48 -34 -85t-78 -37zM283 883q10 0 16 13.5t6 28.5v6l2 15q0 41 -29 41q-22 0 -22 -47q0 -57 27 -57zM291 -19q-36 0 -68 13q-87 33 -135.5 156.5
t-48.5 381.5l3 149q0 44 11.5 60.5t31.5 16.5q24 0 38.5 -14t14.5 -38q0 -31 -4.5 -97.5t-4.5 -98.5q0 -189 34 -304q40 -139 127 -139q49 0 84 43t52 130.5t17 216.5q0 66 -7 159q-1 13 -7 55.5t-6 63.5q0 16 7.5 26.5t35.5 15.5q9 2 22.5 -4t21 -16.5t9.5 -20.5
q1 -7 2 -29t3 -32q3 -39 6 -103.5t3 -103.5q1 -62 -5.5 -130t-19.5 -125q-16 -70 -45 -121t-72 -81t-100 -30z" />
    <glyph glyph-name="Utilde" unicode="&#x168;" horiz-adv-x="572" 
d="M350 836q-37 0 -92 36q-27 18 -37 18q-4 -1 -10 -7.5t-7 -7.5q-19 -15 -49 -15q-41 0 -41 37q0 16 12 36t39 35t49 15q41 0 90 -34q3 -2 13.5 -8.5t16.5 -9t10 -2.5q10 1 12 4q7 18 36 20h11q18 0 31.5 -10t13.5 -30q0 -32 -31.5 -54.5t-66.5 -22.5zM291 -19
q-36 0 -68 13q-87 33 -135.5 156.5t-48.5 381.5l3 149q0 44 11.5 60.5t31.5 16.5q24 0 38.5 -14t14.5 -38q0 -31 -4.5 -97.5t-4.5 -98.5q0 -189 34 -304q40 -139 127 -139q49 0 84 43t52 130.5t17 216.5q0 66 -7 159q-1 13 -7 55.5t-6 63.5q0 16 7.5 26.5t35.5 15.5
q9 2 22.5 -4t21 -16.5t9.5 -20.5q1 -7 2 -29t3 -32q3 -39 6 -103.5t3 -103.5q1 -62 -5.5 -130t-19.5 -125q-16 -70 -45 -121t-72 -81t-100 -30z" />
    <glyph glyph-name="V" unicode="V" horiz-adv-x="542" 
d="M301 -4q-14 0 -25 9q-10 4 -16.5 9.5t-10 13t-13.5 39.5q-109 358 -174 533q-2 7 -17 41t-15 54q0 19 16 30t35 11q13 0 26 -11t19 -27q23 -69 81 -247.5t88 -267.5q11 42 25 102t82 372q1 3 8 39.5t13 53.5q5 11 15.5 17t23.5 6q22 0 36 -13.5t14 -35.5q0 -13 -4 -22
q-9 -42 -141 -608q-10 -41 -15 -56t-11 -23.5t-15 -13.5t-25 -5z" />
    <glyph glyph-name="W" unicode="W" horiz-adv-x="734" 
d="M248 -7q-19 0 -33 18t-22 70q-13 50 -59.5 245.5t-86.5 319.5q-1 3 -6 16t-8 24.5t-3 22.5q0 20 15 31.5t36 11.5t34.5 -19.5t22 -60t10.5 -48.5l98 -387q8 41 19 97t23 127.5t25 149.5l17 102q0 1 2 14t6 24t14 17.5t24 6.5q25 0 40.5 -20t22.5 -49q1 -3 40 -172.5
t67 -270.5q33 206 60 409q1 8 3.5 32.5t5 38.5t6.5 23q9 24 40 24q22 0 37.5 -10.5t15.5 -28.5q0 -7 -3 -15q-31 -169 -39 -224l-62 -419q-1 -5 -3.5 -26t-5.5 -32.5t-7 -19t-11 -12t-17 -4.5t-20 2.5t-18.5 9t-15.5 20t-20 76.5q-24 79 -60.5 230.5t-41.5 171.5
q-6 -30 -38.5 -191t-44.5 -243q-6 -44 -12 -56.5t-17.5 -19t-29.5 -6.5z" />
    <glyph glyph-name="Wacute" unicode="&#x1e82;" horiz-adv-x="734" 
d="M339 832q-19 0 -33.5 15.5t-14.5 33.5q0 6 2 14.5t8.5 20t16.5 24t23 27t17 18.5q25 31 40 40.5t31 9.5q8 0 18 -7t17 -20.5t7 -22.5q0 -7 -4.5 -16t-26.5 -31q-16 -16 -33 -38q-5 -6 -19 -27t-23.5 -29.5t-17.5 -10.5zM248 -7q-19 0 -33 18t-22 70q-13 50 -59.5 245.5
t-86.5 319.5q-1 3 -6 16t-8 24.5t-3 22.5q0 20 15 31.5t36 11.5t34.5 -19.5t22 -60t10.5 -48.5l98 -387q8 41 19 97t23 127.5t25 149.5l17 102q0 1 2 14t6 24t14 17.5t24 6.5q25 0 40.5 -20t22.5 -49q1 -3 40 -172.5t67 -270.5q33 206 60 409q1 8 3.5 32.5t5 38.5t6.5 23
q9 24 40 24q22 0 37.5 -10.5t15.5 -28.5q0 -7 -3 -15q-31 -169 -39 -224l-62 -419q-1 -5 -3.5 -26t-5.5 -32.5t-7 -19t-11 -12t-17 -4.5t-20 2.5t-18.5 9t-15.5 20t-20 76.5q-24 79 -60.5 230.5t-41.5 171.5q-6 -30 -38.5 -191t-44.5 -243q-6 -44 -12 -56.5t-17.5 -19
t-29.5 -6.5z" />
    <glyph glyph-name="Wcircumflex" unicode="&#x174;" horiz-adv-x="734" 
d="M269 812q-17 0 -32.5 14t-15.5 31q0 9 5.5 20.5t21.5 26.5t19 19l64 73q15 19 34 19q7 0 17 -6t14 -7q17 -7 42 -39q9 -12 32 -34.5t27 -26.5q22 -22 22 -37q0 -12 -13 -32t-31 -21q-29 -1 -47 26q-9 13 -30 34t-27 28q-1 -1 -4 -4.5t-36.5 -43.5t-61.5 -40zM248 -7
q-19 0 -33 18t-22 70q-13 50 -59.5 245.5t-86.5 319.5q-1 3 -6 16t-8 24.5t-3 22.5q0 20 15 31.5t36 11.5t34.5 -19.5t22 -60t10.5 -48.5l98 -387q8 41 19 97t23 127.5t25 149.5l17 102q0 1 2 14t6 24t14 17.5t24 6.5q25 0 40.5 -20t22.5 -49q1 -3 40 -172.5t67 -270.5
q33 206 60 409q1 8 3.5 32.5t5 38.5t6.5 23q9 24 40 24q22 0 37.5 -10.5t15.5 -28.5q0 -7 -3 -15q-31 -169 -39 -224l-62 -419q-1 -5 -3.5 -26t-5.5 -32.5t-7 -19t-11 -12t-17 -4.5t-20 2.5t-18.5 9t-15.5 20t-20 76.5q-24 79 -60.5 230.5t-41.5 171.5q-6 -30 -38.5 -191
t-44.5 -243q-6 -44 -12 -56.5t-17.5 -19t-29.5 -6.5z" />
    <glyph glyph-name="Wdieresis" unicode="&#x1e84;" horiz-adv-x="734" 
d="M467 831q-22 0 -37.5 18t-15.5 39q0 23 14.5 39.5t36.5 17.5h3q37 0 52 -37q4 -8 4 -16q0 -20 -17.5 -40.5t-39.5 -20.5zM267 835q-19 0 -33.5 10t-17.5 29l-1 14q0 21 8.5 33t19.5 17t26 5q17 0 30.5 -10t18.5 -25q4 -9 4 -22q0 -15 -9 -28.5t-23 -18.5q-9 -4 -23 -4z
M248 -7q-19 0 -33 18t-22 70q-13 50 -59.5 245.5t-86.5 319.5q-1 3 -6 16t-8 24.5t-3 22.5q0 20 15 31.5t36 11.5t34.5 -19.5t22 -60t10.5 -48.5l98 -387q8 41 19 97t23 127.5t25 149.5l17 102q0 1 2 14t6 24t14 17.5t24 6.5q25 0 40.5 -20t22.5 -49q1 -3 40 -172.5
t67 -270.5q33 206 60 409q1 8 3.5 32.5t5 38.5t6.5 23q9 24 40 24q22 0 37.5 -10.5t15.5 -28.5q0 -7 -3 -15q-31 -169 -39 -224l-62 -419q-1 -5 -3.5 -26t-5.5 -32.5t-7 -19t-11 -12t-17 -4.5t-20 2.5t-18.5 9t-15.5 20t-20 76.5q-24 79 -60.5 230.5t-41.5 171.5
q-6 -30 -38.5 -191t-44.5 -243q-6 -44 -12 -56.5t-17.5 -19t-29.5 -6.5z" />
    <glyph glyph-name="Wgrave" unicode="&#x1e80;" horiz-adv-x="734" 
d="M412 829q-12 0 -23.5 5.5t-18.5 14.5l-22 30q-4 6 -38 40t-34 59q0 13 6 26t15.5 19t18.5 7q4 0 13 -1.5t16 -7.5t23 -26q20 -25 48 -55q2 -3 15.5 -15.5t21 -22.5t9.5 -17t2 -11q0 -19 -16 -32t-36 -13zM248 -7q-19 0 -33 18t-22 70q-13 50 -59.5 245.5t-86.5 319.5
q-1 3 -6 16t-8 24.5t-3 22.5q0 20 15 31.5t36 11.5t34.5 -19.5t22 -60t10.5 -48.5l98 -387q8 41 19 97t23 127.5t25 149.5l17 102q0 1 2 14t6 24t14 17.5t24 6.5q25 0 40.5 -20t22.5 -49q1 -3 40 -172.5t67 -270.5q33 206 60 409q1 8 3.5 32.5t5 38.5t6.5 23q9 24 40 24
q22 0 37.5 -10.5t15.5 -28.5q0 -7 -3 -15q-31 -169 -39 -224l-62 -419q-1 -5 -3.5 -26t-5.5 -32.5t-7 -19t-11 -12t-17 -4.5t-20 2.5t-18.5 9t-15.5 20t-20 76.5q-24 79 -60.5 230.5t-41.5 171.5q-6 -30 -38.5 -191t-44.5 -243q-6 -44 -12 -56.5t-17.5 -19t-29.5 -6.5z" />
    <glyph glyph-name="X" unicode="X" horiz-adv-x="512" 
d="M90 -1q-19 0 -37.5 14t-18.5 34q0 19 12 40q31 54 153 297l-4 8l-143 260q-17 28 -19.5 36.5t-2.5 13.5q0 16 14 33.5t31 17.5q30 0 54 -46q55 -109 119 -227l133 263q7 13 20 21.5t28 8.5q18 0 33 -10.5t15 -30.5q0 -7 -2.5 -15t-9 -19t-7.5 -13l-158 -298l174 -305
q8 -16 8 -27q0 -18 -17 -31t-32 -13t-29.5 11t-18.5 26l-135 243q-78 -153 -96 -193t-28 -63q-11 -36 -36 -36z" />
    <glyph glyph-name="Y" unicode="Y" horiz-adv-x="508" 
d="M264 -12q-19 0 -29 14.5t-10 34.5l2 27q6 84 6 213q0 57 -4 173q-10 7 -26 27q-80 89 -132 153q-1 1 -15 17t-22 30t-8 31q0 16 15.5 30t33.5 14q10 0 21 -7t25 -27t17 -24q60 -76 127 -148l32 45q41 62 95 161q13 32 36 32q18 0 35.5 -13.5t18.5 -33.5q0 -21 -13 -41
q-13 -19 -21 -31.5t-118 -190.5q-7 -9 -7 -13v-3l-2 -125v-289q0 -25 -16.5 -40.5t-40.5 -15.5z" />
    <glyph glyph-name="Yacute" unicode="&#xdd;" horiz-adv-x="508" 
d="M216 832q-19 0 -33.5 15.5t-14.5 33.5q0 6 2 14.5t8.5 20t16.5 24t23 27t17 18.5q25 31 40 40.5t31 9.5q8 0 18 -7t17 -20.5t7 -22.5q0 -7 -4.5 -16t-26.5 -31q-16 -16 -33 -38q-5 -6 -19 -27t-23.5 -29.5t-17.5 -10.5zM264 -12q-19 0 -29 14.5t-10 34.5l2 27q6 84 6 213
q0 57 -4 173q-10 7 -26 27q-80 89 -132 153q-1 1 -15 17t-22 30t-8 31q0 16 15.5 30t33.5 14q10 0 21 -7t25 -27t17 -24q60 -76 127 -148l32 45q41 62 95 161q13 32 36 32q18 0 35.5 -13.5t18.5 -33.5q0 -21 -13 -41q-13 -19 -21 -31.5t-118 -190.5q-7 -9 -7 -13v-3l-2 -125
v-289q0 -25 -16.5 -40.5t-40.5 -15.5z" />
    <glyph glyph-name="Ycircumflex" unicode="&#x176;" horiz-adv-x="508" 
d="M146 812q-17 0 -32.5 14t-15.5 31q0 9 5.5 20.5t21.5 26.5t19 19l64 73q15 19 34 19q7 0 17 -6t14 -7q17 -7 42 -39q9 -12 32 -34.5t27 -26.5q22 -22 22 -37q0 -12 -13 -32t-31 -21q-29 -1 -47 26q-9 13 -30 34t-27 28q-1 -1 -4 -4.5t-36.5 -43.5t-61.5 -40zM264 -12
q-19 0 -29 14.5t-10 34.5l2 27q6 84 6 213q0 57 -4 173q-10 7 -26 27q-80 89 -132 153q-1 1 -15 17t-22 30t-8 31q0 16 15.5 30t33.5 14q10 0 21 -7t25 -27t17 -24q60 -76 127 -148l32 45q41 62 95 161q13 32 36 32q18 0 35.5 -13.5t18.5 -33.5q0 -21 -13 -41
q-13 -19 -21 -31.5t-118 -190.5q-7 -9 -7 -13v-3l-2 -125v-289q0 -25 -16.5 -40.5t-40.5 -15.5z" />
    <glyph glyph-name="Ydieresis" unicode="&#x178;" horiz-adv-x="508" 
d="M344 831q-22 0 -37.5 18t-15.5 39q0 23 14.5 39.5t36.5 17.5h3q37 0 52 -37q4 -8 4 -16q0 -20 -17.5 -40.5t-39.5 -20.5zM144 835q-19 0 -33.5 10t-17.5 29l-1 14q0 21 8.5 33t19.5 17t26 5q17 0 30.5 -10t18.5 -25q4 -9 4 -22q0 -15 -9 -28.5t-23 -18.5q-9 -4 -23 -4z
M264 -12q-19 0 -29 14.5t-10 34.5l2 27q6 84 6 213q0 57 -4 173q-10 7 -26 27q-80 89 -132 153q-1 1 -15 17t-22 30t-8 31q0 16 15.5 30t33.5 14q10 0 21 -7t25 -27t17 -24q60 -76 127 -148l32 45q41 62 95 161q13 32 36 32q18 0 35.5 -13.5t18.5 -33.5q0 -21 -13 -41
q-13 -19 -21 -31.5t-118 -190.5q-7 -9 -7 -13v-3l-2 -125v-289q0 -25 -16.5 -40.5t-40.5 -15.5z" />
    <glyph glyph-name="uni1EF4" unicode="&#x1ef4;" horiz-adv-x="508" 
d="M264 -12q-19 0 -29 14.5t-10 34.5l2 27q6 84 6 213q0 57 -4 173q-10 7 -26 27q-80 89 -132 153q-1 1 -15 17t-22 30t-8 31q0 16 15.5 30t33.5 14q10 0 21 -7t25 -27t17 -24q60 -76 127 -148l32 45q41 62 95 161q13 32 36 32q18 0 35.5 -13.5t18.5 -33.5q0 -21 -13 -41
q-13 -19 -21 -31.5t-118 -190.5q-7 -9 -7 -13v-3l-2 -125v-289q0 -25 -16.5 -40.5t-40.5 -15.5zM259 -197q-22 0 -37.5 18t-15.5 39q0 23 14.5 39.5t36.5 17.5h3q37 0 52 -37q4 -8 4 -16q0 -20 -17.5 -40.5t-39.5 -20.5z" />
    <glyph glyph-name="Ygrave" unicode="&#x1ef2;" horiz-adv-x="508" 
d="M289 829q-12 0 -23.5 5.5t-18.5 14.5l-22 30q-4 6 -38 40t-34 59q0 13 6 26t15.5 19t18.5 7q4 0 13 -1.5t16 -7.5t23 -26q20 -25 48 -55q2 -3 15.5 -15.5t21 -22.5t9.5 -17t2 -11q0 -19 -16 -32t-36 -13zM264 -12q-19 0 -29 14.5t-10 34.5l2 27q6 84 6 213q0 57 -4 173
q-10 7 -26 27q-80 89 -132 153q-1 1 -15 17t-22 30t-8 31q0 16 15.5 30t33.5 14q10 0 21 -7t25 -27t17 -24q60 -76 127 -148l32 45q41 62 95 161q13 32 36 32q18 0 35.5 -13.5t18.5 -33.5q0 -21 -13 -41q-13 -19 -21 -31.5t-118 -190.5q-7 -9 -7 -13v-3l-2 -125v-289
q0 -25 -16.5 -40.5t-40.5 -15.5z" />
    <glyph glyph-name="uni1EF6" unicode="&#x1ef6;" horiz-adv-x="508" 
d="M237 844q-18 0 -32.5 14t-14.5 32q0 16 23.5 44t32 44t8.5 34q0 5 -2.5 10t-5.5 5q-7 0 -23 -13t-24 -13q-25 0 -40.5 14t-15.5 31q0 18 14 34.5t41 27t48 10.5q28 0 52 -15q21 -14 33.5 -39.5t12.5 -51.5q0 -38 -21 -80q-24 -50 -44 -69t-42 -19zM264 -12
q-19 0 -29 14.5t-10 34.5l2 27q6 84 6 213q0 57 -4 173q-10 7 -26 27q-80 89 -132 153q-1 1 -15 17t-22 30t-8 31q0 16 15.5 30t33.5 14q10 0 21 -7t25 -27t17 -24q60 -76 127 -148l32 45q41 62 95 161q13 32 36 32q18 0 35.5 -13.5t18.5 -33.5q0 -21 -13 -41
q-13 -19 -21 -31.5t-118 -190.5q-7 -9 -7 -13v-3l-2 -125v-289q0 -25 -16.5 -40.5t-40.5 -15.5z" />
    <glyph glyph-name="uni1EF8" unicode="&#x1ef8;" horiz-adv-x="508" 
d="M316 836q-37 0 -92 36q-27 18 -37 18q-4 -1 -10 -7.5t-7 -7.5q-19 -15 -49 -15q-41 0 -41 37q0 16 12 36t39 35t49 15q41 0 90 -34q3 -2 13.5 -8.5t16.5 -9t10 -2.5q10 1 12 4q7 18 36 20h11q18 0 31.5 -10t13.5 -30q0 -32 -31.5 -54.5t-66.5 -22.5zM264 -12
q-19 0 -29 14.5t-10 34.5l2 27q6 84 6 213q0 57 -4 173q-10 7 -26 27q-80 89 -132 153q-1 1 -15 17t-22 30t-8 31q0 16 15.5 30t33.5 14q10 0 21 -7t25 -27t17 -24q60 -76 127 -148l32 45q41 62 95 161q13 32 36 32q18 0 35.5 -13.5t18.5 -33.5q0 -21 -13 -41
q-13 -19 -21 -31.5t-118 -190.5q-7 -9 -7 -13v-3l-2 -125v-289q0 -25 -16.5 -40.5t-40.5 -15.5z" />
    <glyph glyph-name="Z" unicode="Z" horiz-adv-x="531" 
d="M98 -15q-22 0 -40.5 13.5t-18.5 35.5q0 3 1 10t3 11.5t18 34.5q87 161 299 581q-39 -1 -127.5 -10t-129.5 -9q-47 0 -47 42q0 25 14 39t51 14h35q73 0 190 13q48 6 71 6q70 0 70 -41q0 -9 -4.5 -22t-17 -34.5t-15.5 -26.5q-145 -258 -289 -558q101 0 213 11q8 1 36.5 4
t43.5 3l13 -1q17 -2 25.5 -16t8.5 -32q0 -19 -15 -33.5t-35 -14.5l-8 1l-210 -11q-12 -1 -52 -4t-61 -3l-8 1z" />
    <glyph glyph-name="Zacute" unicode="&#x179;" horiz-adv-x="531" 
d="M225 807q-19 0 -33.5 15.5t-14.5 33.5q0 6 2 14.5t8.5 20t16.5 24t23 27t17 18.5q25 31 40 40.5t31 9.5q8 0 18 -7t17 -20.5t7 -22.5q0 -7 -4.5 -16t-26.5 -31q-16 -16 -33 -38q-5 -6 -19 -27t-23.5 -29.5t-17.5 -10.5zM98 -15q-22 0 -40.5 13.5t-18.5 35.5q0 3 1 10
t3 11.5t18 34.5q87 161 299 581q-39 -1 -127.5 -10t-129.5 -9q-47 0 -47 42q0 25 14 39t51 14h35q73 0 190 13q48 6 71 6q70 0 70 -41q0 -9 -4.5 -22t-17 -34.5t-15.5 -26.5q-145 -258 -289 -558q101 0 213 11q8 1 36.5 4t43.5 3l13 -1q17 -2 25.5 -16t8.5 -32
q0 -19 -15 -33.5t-35 -14.5l-8 1l-210 -11q-12 -1 -52 -4t-61 -3l-8 1z" />
    <glyph glyph-name="Zcaron" unicode="&#x17d;" horiz-adv-x="531" 
d="M276 812q-9 0 -13 2h-8q-8 0 -16.5 2.5t-17.5 8.5t-30 26q-2 2 -18 16t-31 30t-21 30.5t-6 24.5t6.5 20.5t20 17t25.5 6.5q11 0 23 -8.5t18 -19.5q9 -20 47 -51l27 36q20 32 30.5 43t23 14t17.5 3q15 0 25 -9q19 -21 19 -37q0 -15 -23 -44l-38 -51q-1 -1 -13.5 -20.5
t-24 -29.5t-22.5 -10zM98 -15q-22 0 -40.5 13.5t-18.5 35.5q0 3 1 10t3 11.5t18 34.5q87 161 299 581q-39 -1 -127.5 -10t-129.5 -9q-47 0 -47 42q0 25 14 39t51 14h35q73 0 190 13q48 6 71 6q70 0 70 -41q0 -9 -4.5 -22t-17 -34.5t-15.5 -26.5q-145 -258 -289 -558
q101 0 213 11q8 1 36.5 4t43.5 3l13 -1q17 -2 25.5 -16t8.5 -32q0 -19 -15 -33.5t-35 -14.5l-8 1l-210 -11q-12 -1 -52 -4t-61 -3l-8 1z" />
    <glyph glyph-name="Zdotaccent" unicode="&#x17b;" horiz-adv-x="531" 
d="M257 851q-19 0 -33.5 10t-17.5 29l-1 14q0 21 8.5 33t19.5 17t26 5q17 0 30.5 -10t18.5 -25q4 -9 4 -22q0 -15 -9 -28.5t-23 -18.5q-9 -4 -23 -4zM98 -15q-22 0 -40.5 13.5t-18.5 35.5q0 3 1 10t3 11.5t18 34.5q87 161 299 581q-39 -1 -127.5 -10t-129.5 -9q-47 0 -47 42
q0 25 14 39t51 14h35q73 0 190 13q48 6 71 6q70 0 70 -41q0 -9 -4.5 -22t-17 -34.5t-15.5 -26.5q-145 -258 -289 -558q101 0 213 11q8 1 36.5 4t43.5 3l13 -1q17 -2 25.5 -16t8.5 -32q0 -19 -15 -33.5t-35 -14.5l-8 1l-210 -11q-12 -1 -52 -4t-61 -3l-8 1z" />
    <glyph glyph-name="uni1E92" unicode="&#x1e92;" horiz-adv-x="531" 
d="M98 -15q-22 0 -40.5 13.5t-18.5 35.5q0 3 1 10t3 11.5t18 34.5q87 161 299 581q-39 -1 -127.5 -10t-129.5 -9q-47 0 -47 42q0 25 14 39t51 14h35q73 0 190 13q48 6 71 6q70 0 70 -41q0 -9 -4.5 -22t-17 -34.5t-15.5 -26.5q-145 -258 -289 -558q101 0 213 11q8 1 36.5 4
t43.5 3l13 -1q17 -2 25.5 -16t8.5 -32q0 -19 -15 -33.5t-35 -14.5l-8 1l-210 -11q-12 -1 -52 -4t-61 -3l-8 1zM268 -193q-22 0 -37.5 18t-15.5 39q0 23 14.5 39.5t36.5 17.5h3q37 0 52 -37q4 -8 4 -16q0 -20 -17.5 -40.5t-39.5 -20.5z" />
    <glyph glyph-name="a" unicode="a" horiz-adv-x="467" 
d="M232 -11q-38 0 -75 14.5t-65 47t-45 80t-17 102.5q0 46 17 105.5t53 107t77.5 67t81.5 19.5q45 0 86 -22q7 11 21 18t29 7t26 -11.5t11 -35.5q0 -11 -3 -32t-3 -30l2 -18l-4 -24l-3 -197l3 -21l-2 -17q0 -52 11 -74q0 -1 4.5 -8.5t4.5 -13.5q0 -19 -17.5 -35.5
t-32.5 -16.5q-13 0 -25.5 10t-18.5 23q-24 -21 -54.5 -33t-61.5 -12zM232 77q19 0 41.5 14.5t41 43.5t18.5 52v196q0 9 -10 21t-31 22.5t-37 10.5q-26 0 -48.5 -13t-41 -37.5t-33.5 -69.5t-15 -87t15 -77.5t34 -51t35.5 -20t30.5 -4.5z" />
    <glyph glyph-name="a.salt" 
d="M202 -15q-49 0 -87 23t-58.5 59t-20.5 80q0 38 13 76.5t42.5 69.5t75.5 51t103 20q28 0 49 -4q0 93 -67 93q-33 0 -70 -31t-50.5 -36t-22.5 -5q-18 0 -34 12.5t-16 32.5q0 7 4 17t28 29q40 33 79.5 52t82.5 19q79 0 117.5 -51.5t38.5 -146.5l-4 -258l2 -23l4 -23
q0 -17 -14 -35.5t-32 -18.5q-12 0 -24 8t-18 19q-65 -29 -121 -29zM199 74q39 0 105 36l10 5l4 150l-52 6q-27 0 -61.5 -10t-59 -38.5t-24.5 -73.5q0 -47 36 -65q19 -10 42 -10z" />
    <glyph glyph-name="aacute" unicode="&#xe1;" horiz-adv-x="467" 
d="M222 589q-19 0 -33.5 15.5t-14.5 33.5q0 6 2 14.5t8.5 20t16.5 24t23 27t17 18.5q25 31 40 40.5t31 9.5q8 0 18 -7t17 -20.5t7 -22.5q0 -7 -4.5 -16t-26.5 -31q-16 -16 -33 -38q-5 -6 -19 -27t-23.5 -29.5t-17.5 -10.5zM232 -11q-38 0 -75 14.5t-65 47t-45 80t-17 102.5
q0 46 17 105.5t53 107t77.5 67t81.5 19.5q45 0 86 -22q7 11 21 18t29 7t26 -11.5t11 -35.5q0 -11 -3 -32t-3 -30l2 -18l-4 -24l-3 -197l3 -21l-2 -17q0 -52 11 -74q0 -1 4.5 -8.5t4.5 -13.5q0 -19 -17.5 -35.5t-32.5 -16.5q-13 0 -25.5 10t-18.5 23q-24 -21 -54.5 -33
t-61.5 -12zM232 77q19 0 41.5 14.5t41 43.5t18.5 52v196q0 9 -10 21t-31 22.5t-37 10.5q-26 0 -48.5 -13t-41 -37.5t-33.5 -69.5t-15 -87t15 -77.5t34 -51t35.5 -20t30.5 -4.5z" />
    <glyph glyph-name="aacute.aalt" 
d="M216 600q-19 0 -33.5 15.5t-14.5 33.5q0 6 2 14.5t8.5 20t16.5 24t23 27t17 18.5q25 31 40 40.5t31 9.5q8 0 18 -7t17 -20.5t7 -22.5q0 -7 -4.5 -16t-26.5 -31q-16 -16 -33 -38q-5 -6 -19 -27t-23.5 -29.5t-17.5 -10.5zM202 -15q-49 0 -87 23t-58.5 59t-20.5 80
q0 38 13 76.5t42.5 69.5t75.5 51t103 20q28 0 49 -4q0 93 -67 93q-33 0 -70 -31t-50.5 -36t-22.5 -5q-18 0 -34 12.5t-16 32.5q0 7 4 17t28 29q40 33 79.5 52t82.5 19q79 0 117.5 -51.5t38.5 -146.5l-4 -258l2 -23l4 -23q0 -17 -14 -35.5t-32 -18.5q-12 0 -24 8t-18 19
q-65 -29 -121 -29zM199 74q39 0 105 36l10 5l4 150l-52 6q-27 0 -61.5 -10t-59 -38.5t-24.5 -73.5q0 -47 36 -65q19 -10 42 -10z" />
    <glyph glyph-name="abreve" unicode="&#x103;" horiz-adv-x="467" 
d="M251 609q-26 0 -58 15.5t-57.5 50t-25.5 69.5q0 20 13 35t34 15q20 0 29 -10.5t16 -28t10 -24.5q15 -32 40 -32q9 0 17 3.5t13.5 10t8 14t12.5 49.5t43 42q20 0 35.5 -15t15.5 -36v-6q-8 -62 -49 -107t-97 -45zM232 -11q-38 0 -75 14.5t-65 47t-45 80t-17 102.5
q0 46 17 105.5t53 107t77.5 67t81.5 19.5q45 0 86 -22q7 11 21 18t29 7t26 -11.5t11 -35.5q0 -11 -3 -32t-3 -30l2 -18l-4 -24l-3 -197l3 -21l-2 -17q0 -52 11 -74q0 -1 4.5 -8.5t4.5 -13.5q0 -19 -17.5 -35.5t-32.5 -16.5q-13 0 -25.5 10t-18.5 23q-24 -21 -54.5 -33
t-61.5 -12zM232 77q19 0 41.5 14.5t41 43.5t18.5 52v196q0 9 -10 21t-31 22.5t-37 10.5q-26 0 -48.5 -13t-41 -37.5t-33.5 -69.5t-15 -87t15 -77.5t34 -51t35.5 -20t30.5 -4.5z" />
    <glyph glyph-name="abreve.aalt" 
d="M245 620q-26 0 -58 15.5t-57.5 50t-25.5 69.5q0 20 13 35t34 15q20 0 29 -10.5t16 -28t10 -24.5q15 -32 40 -32q9 0 17 3.5t13.5 10t8 14t12.5 49.5t43 42q20 0 35.5 -15t15.5 -36v-6q-8 -62 -49 -107t-97 -45zM202 -15q-49 0 -87 23t-58.5 59t-20.5 80q0 38 13 76.5
t42.5 69.5t75.5 51t103 20q28 0 49 -4q0 93 -67 93q-33 0 -70 -31t-50.5 -36t-22.5 -5q-18 0 -34 12.5t-16 32.5q0 7 4 17t28 29q40 33 79.5 52t82.5 19q79 0 117.5 -51.5t38.5 -146.5l-4 -258l2 -23l4 -23q0 -17 -14 -35.5t-32 -18.5q-12 0 -24 8t-18 19q-65 -29 -121 -29z
M199 74q39 0 105 36l10 5l4 150l-52 6q-27 0 -61.5 -10t-59 -38.5t-24.5 -73.5q0 -47 36 -65q19 -10 42 -10z" />
    <glyph glyph-name="uni1EAF" unicode="&#x1eaf;" horiz-adv-x="467" 
d="M244 875q-19 0 -33.5 15.5t-14.5 33.5q0 6 2 14.5t8.5 20t16.5 24t23 27t17 18.5q25 31 40 40.5t31 9.5q8 0 18 -7t17 -20.5t7 -22.5q0 -7 -4.5 -16t-26.5 -31q-16 -16 -33 -38q-5 -6 -19 -27t-23.5 -29.5t-17.5 -10.5zM273 609q-26 0 -58 15.5t-57.5 50t-25.5 69.5
q0 20 13 35t34 15q20 0 29 -10.5t16 -28t10 -24.5q15 -32 40 -32q9 0 17 3.5t13.5 10t8 14t12.5 49.5t43 42q20 0 35.5 -15t15.5 -36v-6q-8 -62 -49 -107t-97 -45zM232 -11q-38 0 -75 14.5t-65 47t-45 80t-17 102.5q0 46 17 105.5t53 107t77.5 67t81.5 19.5q45 0 86 -22
q7 11 21 18t29 7t26 -11.5t11 -35.5q0 -11 -3 -32t-3 -30l2 -18l-4 -24l-3 -197l3 -21l-2 -17q0 -52 11 -74q0 -1 4.5 -8.5t4.5 -13.5q0 -19 -17.5 -35.5t-32.5 -16.5q-13 0 -25.5 10t-18.5 23q-24 -21 -54.5 -33t-61.5 -12zM232 77q19 0 41.5 14.5t41 43.5t18.5 52v196
q0 9 -10 21t-31 22.5t-37 10.5q-26 0 -48.5 -13t-41 -37.5t-33.5 -69.5t-15 -87t15 -77.5t34 -51t35.5 -20t30.5 -4.5z" />
    <glyph glyph-name="uni1EAF.aalt" 
d="M238 886q-19 0 -33.5 15.5t-14.5 33.5q0 6 2 14.5t8.5 20t16.5 24t23 27t17 18.5q25 31 40 40.5t31 9.5q8 0 18 -7t17 -20.5t7 -22.5q0 -7 -4.5 -16t-26.5 -31q-16 -16 -33 -38q-5 -6 -19 -27t-23.5 -29.5t-17.5 -10.5zM267 620q-26 0 -58 15.5t-57.5 50t-25.5 69.5
q0 20 13 35t34 15q20 0 29 -10.5t16 -28t10 -24.5q15 -32 40 -32q9 0 17 3.5t13.5 10t8 14t12.5 49.5t43 42q20 0 35.5 -15t15.5 -36v-6q-8 -62 -49 -107t-97 -45zM202 -15q-49 0 -87 23t-58.5 59t-20.5 80q0 38 13 76.5t42.5 69.5t75.5 51t103 20q28 0 49 -4q0 93 -67 93
q-33 0 -70 -31t-50.5 -36t-22.5 -5q-18 0 -34 12.5t-16 32.5q0 7 4 17t28 29q40 33 79.5 52t82.5 19q79 0 117.5 -51.5t38.5 -146.5l-4 -258l2 -23l4 -23q0 -17 -14 -35.5t-32 -18.5q-12 0 -24 8t-18 19q-65 -29 -121 -29zM199 74q39 0 105 36l10 5l4 150l-52 6
q-27 0 -61.5 -10t-59 -38.5t-24.5 -73.5q0 -47 36 -65q19 -10 42 -10z" />
    <glyph glyph-name="uni1EB7" unicode="&#x1eb7;" horiz-adv-x="467" 
d="M251 609q-26 0 -58 15.5t-57.5 50t-25.5 69.5q0 20 13 35t34 15q20 0 29 -10.5t16 -28t10 -24.5q15 -32 40 -32q9 0 17 3.5t13.5 10t8 14t12.5 49.5t43 42q20 0 35.5 -15t15.5 -36v-6q-8 -62 -49 -107t-97 -45zM232 -11q-38 0 -75 14.5t-65 47t-45 80t-17 102.5
q0 46 17 105.5t53 107t77.5 67t81.5 19.5q45 0 86 -22q7 11 21 18t29 7t26 -11.5t11 -35.5q0 -11 -3 -32t-3 -30l2 -18l-4 -24l-3 -197l3 -21l-2 -17q0 -52 11 -74q0 -1 4.5 -8.5t4.5 -13.5q0 -19 -17.5 -35.5t-32.5 -16.5q-13 0 -25.5 10t-18.5 23q-24 -21 -54.5 -33
t-61.5 -12zM232 77q19 0 41.5 14.5t41 43.5t18.5 52v196q0 9 -10 21t-31 22.5t-37 10.5q-26 0 -48.5 -13t-41 -37.5t-33.5 -69.5t-15 -87t15 -77.5t34 -51t35.5 -20t30.5 -4.5zM223 -201q-22 0 -37.5 18t-15.5 39q0 23 14.5 39.5t36.5 17.5h3q37 0 52 -37q4 -8 4 -16
q0 -20 -17.5 -40.5t-39.5 -20.5z" />
    <glyph glyph-name="uni1EB7.aalt" 
d="M245 620q-26 0 -58 15.5t-57.5 50t-25.5 69.5q0 20 13 35t34 15q20 0 29 -10.5t16 -28t10 -24.5q15 -32 40 -32q9 0 17 3.5t13.5 10t8 14t12.5 49.5t43 42q20 0 35.5 -15t15.5 -36v-6q-8 -62 -49 -107t-97 -45zM202 -15q-49 0 -87 23t-58.5 59t-20.5 80q0 38 13 76.5
t42.5 69.5t75.5 51t103 20q28 0 49 -4q0 93 -67 93q-33 0 -70 -31t-50.5 -36t-22.5 -5q-18 0 -34 12.5t-16 32.5q0 7 4 17t28 29q40 33 79.5 52t82.5 19q79 0 117.5 -51.5t38.5 -146.5l-4 -258l2 -23l4 -23q0 -17 -14 -35.5t-32 -18.5q-12 0 -24 8t-18 19q-65 -29 -121 -29z
M199 74q39 0 105 36l10 5l4 150l-52 6q-27 0 -61.5 -10t-59 -38.5t-24.5 -73.5q0 -47 36 -65q19 -10 42 -10zM193 -205q-22 0 -37.5 18t-15.5 39q0 23 14.5 39.5t36.5 17.5h3q37 0 52 -37q4 -8 4 -16q0 -20 -17.5 -40.5t-39.5 -20.5z" />
    <glyph glyph-name="uni1EB1" unicode="&#x1eb1;" horiz-adv-x="467" 
d="M335 872q-12 0 -23.5 5.5t-18.5 14.5l-22 30q-4 6 -38 40t-34 59q0 13 6 26t15.5 19t18.5 7q4 0 13 -1.5t16 -7.5t23 -26q20 -25 48 -55q2 -3 15.5 -15.5t21 -22.5t9.5 -17t2 -11q0 -19 -16 -32t-36 -13zM291 609q-26 0 -58 15.5t-57.5 50t-25.5 69.5q0 20 13 35t34 15
q20 0 29 -10.5t16 -28t10 -24.5q15 -32 40 -32q9 0 17 3.5t13.5 10t8 14t12.5 49.5t43 42q20 0 35.5 -15t15.5 -36v-6q-8 -62 -49 -107t-97 -45zM232 -11q-38 0 -75 14.5t-65 47t-45 80t-17 102.5q0 46 17 105.5t53 107t77.5 67t81.5 19.5q45 0 86 -22q7 11 21 18t29 7
t26 -11.5t11 -35.5q0 -11 -3 -32t-3 -30l2 -18l-4 -24l-3 -197l3 -21l-2 -17q0 -52 11 -74q0 -1 4.5 -8.5t4.5 -13.5q0 -19 -17.5 -35.5t-32.5 -16.5q-13 0 -25.5 10t-18.5 23q-24 -21 -54.5 -33t-61.5 -12zM232 77q19 0 41.5 14.5t41 43.5t18.5 52v196q0 9 -10 21t-31 22.5
t-37 10.5q-26 0 -48.5 -13t-41 -37.5t-33.5 -69.5t-15 -87t15 -77.5t34 -51t35.5 -20t30.5 -4.5z" />
    <glyph glyph-name="uni1EB1.aalt" 
d="M329 883q-12 0 -23.5 5.5t-18.5 14.5l-22 30q-4 6 -38 40t-34 59q0 13 6 26t15.5 19t18.5 7q4 0 13 -1.5t16 -7.5t23 -26q20 -25 48 -55q2 -3 15.5 -15.5t21 -22.5t9.5 -17t2 -11q0 -19 -16 -32t-36 -13zM285 620q-26 0 -58 15.5t-57.5 50t-25.5 69.5q0 20 13 35t34 15
q20 0 29 -10.5t16 -28t10 -24.5q15 -32 40 -32q9 0 17 3.5t13.5 10t8 14t12.5 49.5t43 42q20 0 35.5 -15t15.5 -36v-6q-8 -62 -49 -107t-97 -45zM202 -15q-49 0 -87 23t-58.5 59t-20.5 80q0 38 13 76.5t42.5 69.5t75.5 51t103 20q28 0 49 -4q0 93 -67 93q-33 0 -70 -31
t-50.5 -36t-22.5 -5q-18 0 -34 12.5t-16 32.5q0 7 4 17t28 29q40 33 79.5 52t82.5 19q79 0 117.5 -51.5t38.5 -146.5l-4 -258l2 -23l4 -23q0 -17 -14 -35.5t-32 -18.5q-12 0 -24 8t-18 19q-65 -29 -121 -29zM199 74q39 0 105 36l10 5l4 150l-52 6q-27 0 -61.5 -10t-59 -38.5
t-24.5 -73.5q0 -47 36 -65q19 -10 42 -10z" />
    <glyph glyph-name="uni1EB3" unicode="&#x1eb3;" horiz-adv-x="467" 
d="M265 887q-18 0 -32.5 14t-14.5 32q0 16 23.5 44t32 44t8.5 34q0 5 -2.5 10t-5.5 5q-7 0 -23 -13t-24 -13q-25 0 -40.5 14t-15.5 31q0 18 14 34.5t41 27t48 10.5q28 0 52 -15q21 -14 33.5 -39.5t12.5 -51.5q0 -38 -21 -80q-24 -50 -44 -69t-42 -19zM273 609
q-26 0 -58 15.5t-57.5 50t-25.5 69.5q0 20 13 35t34 15q20 0 29 -10.5t16 -28t10 -24.5q15 -32 40 -32q9 0 17 3.5t13.5 10t8 14t12.5 49.5t43 42q20 0 35.5 -15t15.5 -36v-6q-8 -62 -49 -107t-97 -45zM232 -11q-38 0 -75 14.5t-65 47t-45 80t-17 102.5q0 46 17 105.5
t53 107t77.5 67t81.5 19.5q45 0 86 -22q7 11 21 18t29 7t26 -11.5t11 -35.5q0 -11 -3 -32t-3 -30l2 -18l-4 -24l-3 -197l3 -21l-2 -17q0 -52 11 -74q0 -1 4.5 -8.5t4.5 -13.5q0 -19 -17.5 -35.5t-32.5 -16.5q-13 0 -25.5 10t-18.5 23q-24 -21 -54.5 -33t-61.5 -12zM232 77
q19 0 41.5 14.5t41 43.5t18.5 52v196q0 9 -10 21t-31 22.5t-37 10.5q-26 0 -48.5 -13t-41 -37.5t-33.5 -69.5t-15 -87t15 -77.5t34 -51t35.5 -20t30.5 -4.5z" />
    <glyph glyph-name="uni1EB3.aalt" 
d="M259 898q-18 0 -32.5 14t-14.5 32q0 16 23.5 44t32 44t8.5 34q0 5 -2.5 10t-5.5 5q-7 0 -23 -13t-24 -13q-25 0 -40.5 14t-15.5 31q0 18 14 34.5t41 27t48 10.5q28 0 52 -15q21 -14 33.5 -39.5t12.5 -51.5q0 -38 -21 -80q-24 -50 -44 -69t-42 -19zM267 620
q-26 0 -58 15.5t-57.5 50t-25.5 69.5q0 20 13 35t34 15q20 0 29 -10.5t16 -28t10 -24.5q15 -32 40 -32q9 0 17 3.5t13.5 10t8 14t12.5 49.5t43 42q20 0 35.5 -15t15.5 -36v-6q-8 -62 -49 -107t-97 -45zM202 -15q-49 0 -87 23t-58.5 59t-20.5 80q0 38 13 76.5t42.5 69.5
t75.5 51t103 20q28 0 49 -4q0 93 -67 93q-33 0 -70 -31t-50.5 -36t-22.5 -5q-18 0 -34 12.5t-16 32.5q0 7 4 17t28 29q40 33 79.5 52t82.5 19q79 0 117.5 -51.5t38.5 -146.5l-4 -258l2 -23l4 -23q0 -17 -14 -35.5t-32 -18.5q-12 0 -24 8t-18 19q-65 -29 -121 -29zM199 74
q39 0 105 36l10 5l4 150l-52 6q-27 0 -61.5 -10t-59 -38.5t-24.5 -73.5q0 -47 36 -65q19 -10 42 -10z" />
    <glyph glyph-name="uni1EB5" unicode="&#x1eb5;" horiz-adv-x="467" 
d="M340 879q-37 0 -92 36q-27 18 -37 18q-4 -1 -10 -7.5t-7 -7.5q-19 -15 -49 -15q-41 0 -41 37q0 16 12 36t39 35t49 15q41 0 90 -34q3 -2 13.5 -8.5t16.5 -9t10 -2.5q10 1 12 4q7 18 36 20h11q18 0 31.5 -10t13.5 -30q0 -32 -31.5 -54.5t-66.5 -22.5zM269 609
q-26 0 -58 15.5t-57.5 50t-25.5 69.5q0 20 13 35t34 15q20 0 29 -10.5t16 -28t10 -24.5q15 -32 40 -32q9 0 17 3.5t13.5 10t8 14t12.5 49.5t43 42q20 0 35.5 -15t15.5 -36v-6q-8 -62 -49 -107t-97 -45zM232 -11q-38 0 -75 14.5t-65 47t-45 80t-17 102.5q0 46 17 105.5
t53 107t77.5 67t81.5 19.5q45 0 86 -22q7 11 21 18t29 7t26 -11.5t11 -35.5q0 -11 -3 -32t-3 -30l2 -18l-4 -24l-3 -197l3 -21l-2 -17q0 -52 11 -74q0 -1 4.5 -8.5t4.5 -13.5q0 -19 -17.5 -35.5t-32.5 -16.5q-13 0 -25.5 10t-18.5 23q-24 -21 -54.5 -33t-61.5 -12zM232 77
q19 0 41.5 14.5t41 43.5t18.5 52v196q0 9 -10 21t-31 22.5t-37 10.5q-26 0 -48.5 -13t-41 -37.5t-33.5 -69.5t-15 -87t15 -77.5t34 -51t35.5 -20t30.5 -4.5z" />
    <glyph glyph-name="uni1EB5.aalt" 
d="M334 890q-37 0 -92 36q-27 18 -37 18q-4 -1 -10 -7.5t-7 -7.5q-19 -15 -49 -15q-41 0 -41 37q0 16 12 36t39 35t49 15q41 0 90 -34q3 -2 13.5 -8.5t16.5 -9t10 -2.5q10 1 12 4q7 18 36 20h11q18 0 31.5 -10t13.5 -30q0 -32 -31.5 -54.5t-66.5 -22.5zM263 620
q-26 0 -58 15.5t-57.5 50t-25.5 69.5q0 20 13 35t34 15q20 0 29 -10.5t16 -28t10 -24.5q15 -32 40 -32q9 0 17 3.5t13.5 10t8 14t12.5 49.5t43 42q20 0 35.5 -15t15.5 -36v-6q-8 -62 -49 -107t-97 -45zM202 -15q-49 0 -87 23t-58.5 59t-20.5 80q0 38 13 76.5t42.5 69.5
t75.5 51t103 20q28 0 49 -4q0 93 -67 93q-33 0 -70 -31t-50.5 -36t-22.5 -5q-18 0 -34 12.5t-16 32.5q0 7 4 17t28 29q40 33 79.5 52t82.5 19q79 0 117.5 -51.5t38.5 -146.5l-4 -258l2 -23l4 -23q0 -17 -14 -35.5t-32 -18.5q-12 0 -24 8t-18 19q-65 -29 -121 -29zM199 74
q39 0 105 36l10 5l4 150l-52 6q-27 0 -61.5 -10t-59 -38.5t-24.5 -73.5q0 -47 36 -65q19 -10 42 -10z" />
    <glyph glyph-name="uni01CE" unicode="&#x1ce;" horiz-adv-x="467" 
d="M273 594q-9 0 -13 2h-8q-8 0 -16.5 2.5t-17.5 8.5t-30 26q-2 2 -18 16t-31 30t-21 30.5t-6 24.5t6.5 20.5t20 17t25.5 6.5q11 0 23 -8.5t18 -19.5q9 -20 47 -51l27 36q20 32 30.5 43t23 14t17.5 3q15 0 25 -9q19 -21 19 -37q0 -15 -23 -44l-38 -51q-1 -1 -13.5 -20.5
t-24 -29.5t-22.5 -10zM232 -11q-38 0 -75 14.5t-65 47t-45 80t-17 102.5q0 46 17 105.5t53 107t77.5 67t81.5 19.5q45 0 86 -22q7 11 21 18t29 7t26 -11.5t11 -35.5q0 -11 -3 -32t-3 -30l2 -18l-4 -24l-3 -197l3 -21l-2 -17q0 -52 11 -74q0 -1 4.5 -8.5t4.5 -13.5
q0 -19 -17.5 -35.5t-32.5 -16.5q-13 0 -25.5 10t-18.5 23q-24 -21 -54.5 -33t-61.5 -12zM232 77q19 0 41.5 14.5t41 43.5t18.5 52v196q0 9 -10 21t-31 22.5t-37 10.5q-26 0 -48.5 -13t-41 -37.5t-33.5 -69.5t-15 -87t15 -77.5t34 -51t35.5 -20t30.5 -4.5z" />
    <glyph glyph-name="uni01CE.aalt" 
d="M267 605q-9 0 -13 2h-8q-8 0 -16.5 2.5t-17.5 8.5t-30 26q-2 2 -18 16t-31 30t-21 30.5t-6 24.5t6.5 20.5t20 17t25.5 6.5q11 0 23 -8.5t18 -19.5q9 -20 47 -51l27 36q20 32 30.5 43t23 14t17.5 3q15 0 25 -9q19 -21 19 -37q0 -15 -23 -44l-38 -51q-1 -1 -13.5 -20.5
t-24 -29.5t-22.5 -10zM202 -15q-49 0 -87 23t-58.5 59t-20.5 80q0 38 13 76.5t42.5 69.5t75.5 51t103 20q28 0 49 -4q0 93 -67 93q-33 0 -70 -31t-50.5 -36t-22.5 -5q-18 0 -34 12.5t-16 32.5q0 7 4 17t28 29q40 33 79.5 52t82.5 19q79 0 117.5 -51.5t38.5 -146.5l-4 -258
l2 -23l4 -23q0 -17 -14 -35.5t-32 -18.5q-12 0 -24 8t-18 19q-65 -29 -121 -29zM199 74q39 0 105 36l10 5l4 150l-52 6q-27 0 -61.5 -10t-59 -38.5t-24.5 -73.5q0 -47 36 -65q19 -10 42 -10z" />
    <glyph glyph-name="acircumflex" unicode="&#xe2;" horiz-adv-x="467" 
d="M152 569q-17 0 -32.5 14t-15.5 31q0 9 5.5 20.5t21.5 26.5t19 19l64 73q15 19 34 19q7 0 17 -6t14 -7q17 -7 42 -39q9 -12 32 -34.5t27 -26.5q22 -22 22 -37q0 -12 -13 -32t-31 -21q-29 -1 -47 26q-9 13 -30 34t-27 28q-1 -1 -4 -4.5t-36.5 -43.5t-61.5 -40zM232 -11
q-38 0 -75 14.5t-65 47t-45 80t-17 102.5q0 46 17 105.5t53 107t77.5 67t81.5 19.5q45 0 86 -22q7 11 21 18t29 7t26 -11.5t11 -35.5q0 -11 -3 -32t-3 -30l2 -18l-4 -24l-3 -197l3 -21l-2 -17q0 -52 11 -74q0 -1 4.5 -8.5t4.5 -13.5q0 -19 -17.5 -35.5t-32.5 -16.5
q-13 0 -25.5 10t-18.5 23q-24 -21 -54.5 -33t-61.5 -12zM232 77q19 0 41.5 14.5t41 43.5t18.5 52v196q0 9 -10 21t-31 22.5t-37 10.5q-26 0 -48.5 -13t-41 -37.5t-33.5 -69.5t-15 -87t15 -77.5t34 -51t35.5 -20t30.5 -4.5z" />
    <glyph glyph-name="acircumflex.aalt" 
d="M146 580q-17 0 -32.5 14t-15.5 31q0 9 5.5 20.5t21.5 26.5t19 19l64 73q15 19 34 19q7 0 17 -6t14 -7q17 -7 42 -39q9 -12 32 -34.5t27 -26.5q22 -22 22 -37q0 -12 -13 -32t-31 -21q-29 -1 -47 26q-9 13 -30 34t-27 28q-1 -1 -4 -4.5t-36.5 -43.5t-61.5 -40zM202 -15
q-49 0 -87 23t-58.5 59t-20.5 80q0 38 13 76.5t42.5 69.5t75.5 51t103 20q28 0 49 -4q0 93 -67 93q-33 0 -70 -31t-50.5 -36t-22.5 -5q-18 0 -34 12.5t-16 32.5q0 7 4 17t28 29q40 33 79.5 52t82.5 19q79 0 117.5 -51.5t38.5 -146.5l-4 -258l2 -23l4 -23q0 -17 -14 -35.5
t-32 -18.5q-12 0 -24 8t-18 19q-65 -29 -121 -29zM199 74q39 0 105 36l10 5l4 150l-52 6q-27 0 -61.5 -10t-59 -38.5t-24.5 -73.5q0 -47 36 -65q19 -10 42 -10z" />
    <glyph glyph-name="uni1EA5" unicode="&#x1ea5;" horiz-adv-x="467" 
d="M244 854q-19 0 -33.5 15.5t-14.5 33.5q0 6 2 14.5t8.5 20t16.5 24t23 27t17 18.5q25 31 40 40.5t31 9.5q8 0 18 -7t17 -20.5t7 -22.5q0 -7 -4.5 -16t-26.5 -31q-16 -16 -33 -38q-5 -6 -19 -27t-23.5 -29.5t-17.5 -10.5zM174 569q-17 0 -32.5 14t-15.5 31q0 9 5.5 20.5
t21.5 26.5t19 19l64 73q15 19 34 19q7 0 17 -6t14 -7q17 -7 42 -39q9 -12 32 -34.5t27 -26.5q22 -22 22 -37q0 -12 -13 -32t-31 -21q-29 -1 -47 26q-9 13 -30 34t-27 28q-1 -1 -4 -4.5t-36.5 -43.5t-61.5 -40zM232 -11q-38 0 -75 14.5t-65 47t-45 80t-17 102.5
q0 46 17 105.5t53 107t77.5 67t81.5 19.5q45 0 86 -22q7 11 21 18t29 7t26 -11.5t11 -35.5q0 -11 -3 -32t-3 -30l2 -18l-4 -24l-3 -197l3 -21l-2 -17q0 -52 11 -74q0 -1 4.5 -8.5t4.5 -13.5q0 -19 -17.5 -35.5t-32.5 -16.5q-13 0 -25.5 10t-18.5 23q-24 -21 -54.5 -33
t-61.5 -12zM232 77q19 0 41.5 14.5t41 43.5t18.5 52v196q0 9 -10 21t-31 22.5t-37 10.5q-26 0 -48.5 -13t-41 -37.5t-33.5 -69.5t-15 -87t15 -77.5t34 -51t35.5 -20t30.5 -4.5z" />
    <glyph glyph-name="uni1EA5.aalt" 
d="M238 865q-19 0 -33.5 15.5t-14.5 33.5q0 6 2 14.5t8.5 20t16.5 24t23 27t17 18.5q25 31 40 40.5t31 9.5q8 0 18 -7t17 -20.5t7 -22.5q0 -7 -4.5 -16t-26.5 -31q-16 -16 -33 -38q-5 -6 -19 -27t-23.5 -29.5t-17.5 -10.5zM168 580q-17 0 -32.5 14t-15.5 31q0 9 5.5 20.5
t21.5 26.5t19 19l64 73q15 19 34 19q7 0 17 -6t14 -7q17 -7 42 -39q9 -12 32 -34.5t27 -26.5q22 -22 22 -37q0 -12 -13 -32t-31 -21q-29 -1 -47 26q-9 13 -30 34t-27 28q-1 -1 -4 -4.5t-36.5 -43.5t-61.5 -40zM202 -15q-49 0 -87 23t-58.5 59t-20.5 80q0 38 13 76.5
t42.5 69.5t75.5 51t103 20q28 0 49 -4q0 93 -67 93q-33 0 -70 -31t-50.5 -36t-22.5 -5q-18 0 -34 12.5t-16 32.5q0 7 4 17t28 29q40 33 79.5 52t82.5 19q79 0 117.5 -51.5t38.5 -146.5l-4 -258l2 -23l4 -23q0 -17 -14 -35.5t-32 -18.5q-12 0 -24 8t-18 19q-65 -29 -121 -29z
M199 74q39 0 105 36l10 5l4 150l-52 6q-27 0 -61.5 -10t-59 -38.5t-24.5 -73.5q0 -47 36 -65q19 -10 42 -10z" />
    <glyph glyph-name="uni1EAD" unicode="&#x1ead;" horiz-adv-x="467" 
d="M152 569q-17 0 -32.5 14t-15.5 31q0 9 5.5 20.5t21.5 26.5t19 19l64 73q15 19 34 19q7 0 17 -6t14 -7q17 -7 42 -39q9 -12 32 -34.5t27 -26.5q22 -22 22 -37q0 -12 -13 -32t-31 -21q-29 -1 -47 26q-9 13 -30 34t-27 28q-1 -1 -4 -4.5t-36.5 -43.5t-61.5 -40zM232 -11
q-38 0 -75 14.5t-65 47t-45 80t-17 102.5q0 46 17 105.5t53 107t77.5 67t81.5 19.5q45 0 86 -22q7 11 21 18t29 7t26 -11.5t11 -35.5q0 -11 -3 -32t-3 -30l2 -18l-4 -24l-3 -197l3 -21l-2 -17q0 -52 11 -74q0 -1 4.5 -8.5t4.5 -13.5q0 -19 -17.5 -35.5t-32.5 -16.5
q-13 0 -25.5 10t-18.5 23q-24 -21 -54.5 -33t-61.5 -12zM232 77q19 0 41.5 14.5t41 43.5t18.5 52v196q0 9 -10 21t-31 22.5t-37 10.5q-26 0 -48.5 -13t-41 -37.5t-33.5 -69.5t-15 -87t15 -77.5t34 -51t35.5 -20t30.5 -4.5zM223 -201q-22 0 -37.5 18t-15.5 39q0 23 14.5 39.5
t36.5 17.5h3q37 0 52 -37q4 -8 4 -16q0 -20 -17.5 -40.5t-39.5 -20.5z" />
    <glyph glyph-name="uni1EAD.aalt" 
d="M146 580q-17 0 -32.5 14t-15.5 31q0 9 5.5 20.5t21.5 26.5t19 19l64 73q15 19 34 19q7 0 17 -6t14 -7q17 -7 42 -39q9 -12 32 -34.5t27 -26.5q22 -22 22 -37q0 -12 -13 -32t-31 -21q-29 -1 -47 26q-9 13 -30 34t-27 28q-1 -1 -4 -4.5t-36.5 -43.5t-61.5 -40zM202 -15
q-49 0 -87 23t-58.5 59t-20.5 80q0 38 13 76.5t42.5 69.5t75.5 51t103 20q28 0 49 -4q0 93 -67 93q-33 0 -70 -31t-50.5 -36t-22.5 -5q-18 0 -34 12.5t-16 32.5q0 7 4 17t28 29q40 33 79.5 52t82.5 19q79 0 117.5 -51.5t38.5 -146.5l-4 -258l2 -23l4 -23q0 -17 -14 -35.5
t-32 -18.5q-12 0 -24 8t-18 19q-65 -29 -121 -29zM199 74q39 0 105 36l10 5l4 150l-52 6q-27 0 -61.5 -10t-59 -38.5t-24.5 -73.5q0 -47 36 -65q19 -10 42 -10zM193 -205q-22 0 -37.5 18t-15.5 39q0 23 14.5 39.5t36.5 17.5h3q37 0 52 -37q4 -8 4 -16q0 -20 -17.5 -40.5
t-39.5 -20.5z" />
    <glyph glyph-name="uni1EA7" unicode="&#x1ea7;" horiz-adv-x="467" 
d="M330 851q-12 0 -23.5 5.5t-18.5 14.5l-22 30q-4 6 -38 40t-34 59q0 13 6 26t15.5 19t18.5 7q4 0 13 -1.5t16 -7.5t23 -26q20 -25 48 -55q2 -3 15.5 -15.5t21 -22.5t9.5 -17t2 -11q0 -19 -16 -32t-36 -13zM187 569q-17 0 -32.5 14t-15.5 31q0 9 5.5 20.5t21.5 26.5t19 19
l64 73q15 19 34 19q7 0 17 -6t14 -7q17 -7 42 -39q9 -12 32 -34.5t27 -26.5q22 -22 22 -37q0 -12 -13 -32t-31 -21q-29 -1 -47 26q-9 13 -30 34t-27 28q-1 -1 -4 -4.5t-36.5 -43.5t-61.5 -40zM232 -11q-38 0 -75 14.5t-65 47t-45 80t-17 102.5q0 46 17 105.5t53 107t77.5 67
t81.5 19.5q45 0 86 -22q7 11 21 18t29 7t26 -11.5t11 -35.5q0 -11 -3 -32t-3 -30l2 -18l-4 -24l-3 -197l3 -21l-2 -17q0 -52 11 -74q0 -1 4.5 -8.5t4.5 -13.5q0 -19 -17.5 -35.5t-32.5 -16.5q-13 0 -25.5 10t-18.5 23q-24 -21 -54.5 -33t-61.5 -12zM232 77q19 0 41.5 14.5
t41 43.5t18.5 52v196q0 9 -10 21t-31 22.5t-37 10.5q-26 0 -48.5 -13t-41 -37.5t-33.5 -69.5t-15 -87t15 -77.5t34 -51t35.5 -20t30.5 -4.5z" />
    <glyph glyph-name="uni1EA7.aalt" 
d="M324 862q-12 0 -23.5 5.5t-18.5 14.5l-22 30q-4 6 -38 40t-34 59q0 13 6 26t15.5 19t18.5 7q4 0 13 -1.5t16 -7.5t23 -26q20 -25 48 -55q2 -3 15.5 -15.5t21 -22.5t9.5 -17t2 -11q0 -19 -16 -32t-36 -13zM181 580q-17 0 -32.5 14t-15.5 31q0 9 5.5 20.5t21.5 26.5t19 19
l64 73q15 19 34 19q7 0 17 -6t14 -7q17 -7 42 -39q9 -12 32 -34.5t27 -26.5q22 -22 22 -37q0 -12 -13 -32t-31 -21q-29 -1 -47 26q-9 13 -30 34t-27 28q-1 -1 -4 -4.5t-36.5 -43.5t-61.5 -40zM202 -15q-49 0 -87 23t-58.5 59t-20.5 80q0 38 13 76.5t42.5 69.5t75.5 51
t103 20q28 0 49 -4q0 93 -67 93q-33 0 -70 -31t-50.5 -36t-22.5 -5q-18 0 -34 12.5t-16 32.5q0 7 4 17t28 29q40 33 79.5 52t82.5 19q79 0 117.5 -51.5t38.5 -146.5l-4 -258l2 -23l4 -23q0 -17 -14 -35.5t-32 -18.5q-12 0 -24 8t-18 19q-65 -29 -121 -29zM199 74
q39 0 105 36l10 5l4 150l-52 6q-27 0 -61.5 -10t-59 -38.5t-24.5 -73.5q0 -47 36 -65q19 -10 42 -10z" />
    <glyph glyph-name="uni1EA9" unicode="&#x1ea9;" horiz-adv-x="467" 
d="M265 866q-18 0 -32.5 14t-14.5 32q0 16 23.5 44t32 44t8.5 34q0 5 -2.5 10t-5.5 5q-7 0 -23 -13t-24 -13q-25 0 -40.5 14t-15.5 31q0 18 14 34.5t41 27t48 10.5q28 0 52 -15q21 -14 33.5 -39.5t12.5 -51.5q0 -38 -21 -80q-24 -50 -44 -69t-42 -19zM174 569
q-17 0 -32.5 14t-15.5 31q0 9 5.5 20.5t21.5 26.5t19 19l64 73q15 19 34 19q7 0 17 -6t14 -7q17 -7 42 -39q9 -12 32 -34.5t27 -26.5q22 -22 22 -37q0 -12 -13 -32t-31 -21q-29 -1 -47 26q-9 13 -30 34t-27 28q-1 -1 -4 -4.5t-36.5 -43.5t-61.5 -40zM232 -11q-38 0 -75 14.5
t-65 47t-45 80t-17 102.5q0 46 17 105.5t53 107t77.5 67t81.5 19.5q45 0 86 -22q7 11 21 18t29 7t26 -11.5t11 -35.5q0 -11 -3 -32t-3 -30l2 -18l-4 -24l-3 -197l3 -21l-2 -17q0 -52 11 -74q0 -1 4.5 -8.5t4.5 -13.5q0 -19 -17.5 -35.5t-32.5 -16.5q-13 0 -25.5 10t-18.5 23
q-24 -21 -54.5 -33t-61.5 -12zM232 77q19 0 41.5 14.5t41 43.5t18.5 52v196q0 9 -10 21t-31 22.5t-37 10.5q-26 0 -48.5 -13t-41 -37.5t-33.5 -69.5t-15 -87t15 -77.5t34 -51t35.5 -20t30.5 -4.5z" />
    <glyph glyph-name="uni1EA9.aalt" 
d="M259 877q-18 0 -32.5 14t-14.5 32q0 16 23.5 44t32 44t8.5 34q0 5 -2.5 10t-5.5 5q-7 0 -23 -13t-24 -13q-25 0 -40.5 14t-15.5 31q0 18 14 34.5t41 27t48 10.5q28 0 52 -15q21 -14 33.5 -39.5t12.5 -51.5q0 -38 -21 -80q-24 -50 -44 -69t-42 -19zM168 580
q-17 0 -32.5 14t-15.5 31q0 9 5.5 20.5t21.5 26.5t19 19l64 73q15 19 34 19q7 0 17 -6t14 -7q17 -7 42 -39q9 -12 32 -34.5t27 -26.5q22 -22 22 -37q0 -12 -13 -32t-31 -21q-29 -1 -47 26q-9 13 -30 34t-27 28q-1 -1 -4 -4.5t-36.5 -43.5t-61.5 -40zM202 -15q-49 0 -87 23
t-58.5 59t-20.5 80q0 38 13 76.5t42.5 69.5t75.5 51t103 20q28 0 49 -4q0 93 -67 93q-33 0 -70 -31t-50.5 -36t-22.5 -5q-18 0 -34 12.5t-16 32.5q0 7 4 17t28 29q40 33 79.5 52t82.5 19q79 0 117.5 -51.5t38.5 -146.5l-4 -258l2 -23l4 -23q0 -17 -14 -35.5t-32 -18.5
q-12 0 -24 8t-18 19q-65 -29 -121 -29zM199 74q39 0 105 36l10 5l4 150l-52 6q-27 0 -61.5 -10t-59 -38.5t-24.5 -73.5q0 -47 36 -65q19 -10 42 -10z" />
    <glyph glyph-name="uni1EAB" unicode="&#x1eab;" horiz-adv-x="467" 
d="M335 858q-37 0 -92 36q-27 18 -37 18q-4 -1 -10 -7.5t-7 -7.5q-19 -15 -49 -15q-41 0 -41 37q0 16 12 36t39 35t49 15q41 0 90 -34q3 -2 13.5 -8.5t16.5 -9t10 -2.5q10 1 12 4q7 18 36 20h11q18 0 31.5 -10t13.5 -30q0 -32 -31.5 -54.5t-66.5 -22.5zM165 569
q-17 0 -32.5 14t-15.5 31q0 9 5.5 20.5t21.5 26.5t19 19l64 73q15 19 34 19q7 0 17 -6t14 -7q17 -7 42 -39q9 -12 32 -34.5t27 -26.5q22 -22 22 -37q0 -12 -13 -32t-31 -21q-29 -1 -47 26q-9 13 -30 34t-27 28q-1 -1 -4 -4.5t-36.5 -43.5t-61.5 -40zM232 -11q-38 0 -75 14.5
t-65 47t-45 80t-17 102.5q0 46 17 105.5t53 107t77.5 67t81.5 19.5q45 0 86 -22q7 11 21 18t29 7t26 -11.5t11 -35.5q0 -11 -3 -32t-3 -30l2 -18l-4 -24l-3 -197l3 -21l-2 -17q0 -52 11 -74q0 -1 4.5 -8.5t4.5 -13.5q0 -19 -17.5 -35.5t-32.5 -16.5q-13 0 -25.5 10t-18.5 23
q-24 -21 -54.5 -33t-61.5 -12zM232 77q19 0 41.5 14.5t41 43.5t18.5 52v196q0 9 -10 21t-31 22.5t-37 10.5q-26 0 -48.5 -13t-41 -37.5t-33.5 -69.5t-15 -87t15 -77.5t34 -51t35.5 -20t30.5 -4.5z" />
    <glyph glyph-name="uni1EAB.aalt" 
d="M329 869q-37 0 -92 36q-27 18 -37 18q-4 -1 -10 -7.5t-7 -7.5q-19 -15 -49 -15q-41 0 -41 37q0 16 12 36t39 35t49 15q41 0 90 -34q3 -2 13.5 -8.5t16.5 -9t10 -2.5q10 1 12 4q7 18 36 20h11q18 0 31.5 -10t13.5 -30q0 -32 -31.5 -54.5t-66.5 -22.5zM159 580
q-17 0 -32.5 14t-15.5 31q0 9 5.5 20.5t21.5 26.5t19 19l64 73q15 19 34 19q7 0 17 -6t14 -7q17 -7 42 -39q9 -12 32 -34.5t27 -26.5q22 -22 22 -37q0 -12 -13 -32t-31 -21q-29 -1 -47 26q-9 13 -30 34t-27 28q-1 -1 -4 -4.5t-36.5 -43.5t-61.5 -40zM202 -15q-49 0 -87 23
t-58.5 59t-20.5 80q0 38 13 76.5t42.5 69.5t75.5 51t103 20q28 0 49 -4q0 93 -67 93q-33 0 -70 -31t-50.5 -36t-22.5 -5q-18 0 -34 12.5t-16 32.5q0 7 4 17t28 29q40 33 79.5 52t82.5 19q79 0 117.5 -51.5t38.5 -146.5l-4 -258l2 -23l4 -23q0 -17 -14 -35.5t-32 -18.5
q-12 0 -24 8t-18 19q-65 -29 -121 -29zM199 74q39 0 105 36l10 5l4 150l-52 6q-27 0 -61.5 -10t-59 -38.5t-24.5 -73.5q0 -47 36 -65q19 -10 42 -10z" />
    <glyph glyph-name="adieresis" unicode="&#xe4;" horiz-adv-x="467" 
d="M350 588q-22 0 -37.5 18t-15.5 39q0 23 14.5 39.5t36.5 17.5h3q37 0 52 -37q4 -8 4 -16q0 -20 -17.5 -40.5t-39.5 -20.5zM150 592q-19 0 -33.5 10t-17.5 29l-1 14q0 21 8.5 33t19.5 17t26 5q17 0 30.5 -10t18.5 -25q4 -9 4 -22q0 -15 -9 -28.5t-23 -18.5q-9 -4 -23 -4z
M232 -11q-38 0 -75 14.5t-65 47t-45 80t-17 102.5q0 46 17 105.5t53 107t77.5 67t81.5 19.5q45 0 86 -22q7 11 21 18t29 7t26 -11.5t11 -35.5q0 -11 -3 -32t-3 -30l2 -18l-4 -24l-3 -197l3 -21l-2 -17q0 -52 11 -74q0 -1 4.5 -8.5t4.5 -13.5q0 -19 -17.5 -35.5t-32.5 -16.5
q-13 0 -25.5 10t-18.5 23q-24 -21 -54.5 -33t-61.5 -12zM232 77q19 0 41.5 14.5t41 43.5t18.5 52v196q0 9 -10 21t-31 22.5t-37 10.5q-26 0 -48.5 -13t-41 -37.5t-33.5 -69.5t-15 -87t15 -77.5t34 -51t35.5 -20t30.5 -4.5z" />
    <glyph glyph-name="adieresis.aalt" 
d="M344 599q-22 0 -37.5 18t-15.5 39q0 23 14.5 39.5t36.5 17.5h3q37 0 52 -37q4 -8 4 -16q0 -20 -17.5 -40.5t-39.5 -20.5zM144 603q-19 0 -33.5 10t-17.5 29l-1 14q0 21 8.5 33t19.5 17t26 5q17 0 30.5 -10t18.5 -25q4 -9 4 -22q0 -15 -9 -28.5t-23 -18.5q-9 -4 -23 -4z
M202 -15q-49 0 -87 23t-58.5 59t-20.5 80q0 38 13 76.5t42.5 69.5t75.5 51t103 20q28 0 49 -4q0 93 -67 93q-33 0 -70 -31t-50.5 -36t-22.5 -5q-18 0 -34 12.5t-16 32.5q0 7 4 17t28 29q40 33 79.5 52t82.5 19q79 0 117.5 -51.5t38.5 -146.5l-4 -258l2 -23l4 -23
q0 -17 -14 -35.5t-32 -18.5q-12 0 -24 8t-18 19q-65 -29 -121 -29zM199 74q39 0 105 36l10 5l4 150l-52 6q-27 0 -61.5 -10t-59 -38.5t-24.5 -73.5q0 -47 36 -65q19 -10 42 -10z" />
    <glyph glyph-name="uni01DF" unicode="&#x1df;" horiz-adv-x="467" 
d="M168 772q-22 0 -39.5 14.5t-17.5 38.5q0 17 13 29.5t43 12.5l151 3q37 0 51 -10t14 -28q0 -21 -16 -39.5t-37 -18.5l-15 2l-42 3zM350 588q-22 0 -37.5 18t-15.5 39q0 23 14.5 39.5t36.5 17.5h3q37 0 52 -37q4 -8 4 -16q0 -20 -17.5 -40.5t-39.5 -20.5zM150 592
q-19 0 -33.5 10t-17.5 29l-1 14q0 21 8.5 33t19.5 17t26 5q17 0 30.5 -10t18.5 -25q4 -9 4 -22q0 -15 -9 -28.5t-23 -18.5q-9 -4 -23 -4zM232 -11q-38 0 -75 14.5t-65 47t-45 80t-17 102.5q0 46 17 105.5t53 107t77.5 67t81.5 19.5q45 0 86 -22q7 11 21 18t29 7t26 -11.5
t11 -35.5q0 -11 -3 -32t-3 -30l2 -18l-4 -24l-3 -197l3 -21l-2 -17q0 -52 11 -74q0 -1 4.5 -8.5t4.5 -13.5q0 -19 -17.5 -35.5t-32.5 -16.5q-13 0 -25.5 10t-18.5 23q-24 -21 -54.5 -33t-61.5 -12zM232 77q19 0 41.5 14.5t41 43.5t18.5 52v196q0 9 -10 21t-31 22.5t-37 10.5
q-26 0 -48.5 -13t-41 -37.5t-33.5 -69.5t-15 -87t15 -77.5t34 -51t35.5 -20t30.5 -4.5z" />
    <glyph glyph-name="uni01DF.aalt" 
d="M162 783q-22 0 -39.5 14.5t-17.5 38.5q0 17 13 29.5t43 12.5l151 3q37 0 51 -10t14 -28q0 -21 -16 -39.5t-37 -18.5l-15 2l-42 3zM344 599q-22 0 -37.5 18t-15.5 39q0 23 14.5 39.5t36.5 17.5h3q37 0 52 -37q4 -8 4 -16q0 -20 -17.5 -40.5t-39.5 -20.5zM144 603
q-19 0 -33.5 10t-17.5 29l-1 14q0 21 8.5 33t19.5 17t26 5q17 0 30.5 -10t18.5 -25q4 -9 4 -22q0 -15 -9 -28.5t-23 -18.5q-9 -4 -23 -4zM202 -15q-49 0 -87 23t-58.5 59t-20.5 80q0 38 13 76.5t42.5 69.5t75.5 51t103 20q28 0 49 -4q0 93 -67 93q-33 0 -70 -31t-50.5 -36
t-22.5 -5q-18 0 -34 12.5t-16 32.5q0 7 4 17t28 29q40 33 79.5 52t82.5 19q79 0 117.5 -51.5t38.5 -146.5l-4 -258l2 -23l4 -23q0 -17 -14 -35.5t-32 -18.5q-12 0 -24 8t-18 19q-65 -29 -121 -29zM199 74q39 0 105 36l10 5l4 150l-52 6q-27 0 -61.5 -10t-59 -38.5
t-24.5 -73.5q0 -47 36 -65q19 -10 42 -10z" />
    <glyph glyph-name="uni1EA1" unicode="&#x1ea1;" horiz-adv-x="467" 
d="M232 -11q-38 0 -75 14.5t-65 47t-45 80t-17 102.5q0 46 17 105.5t53 107t77.5 67t81.5 19.5q45 0 86 -22q7 11 21 18t29 7t26 -11.5t11 -35.5q0 -11 -3 -32t-3 -30l2 -18l-4 -24l-3 -197l3 -21l-2 -17q0 -52 11 -74q0 -1 4.5 -8.5t4.5 -13.5q0 -19 -17.5 -35.5
t-32.5 -16.5q-13 0 -25.5 10t-18.5 23q-24 -21 -54.5 -33t-61.5 -12zM232 77q19 0 41.5 14.5t41 43.5t18.5 52v196q0 9 -10 21t-31 22.5t-37 10.5q-26 0 -48.5 -13t-41 -37.5t-33.5 -69.5t-15 -87t15 -77.5t34 -51t35.5 -20t30.5 -4.5zM223 -201q-22 0 -37.5 18t-15.5 39
q0 23 14.5 39.5t36.5 17.5h3q37 0 52 -37q4 -8 4 -16q0 -20 -17.5 -40.5t-39.5 -20.5z" />
    <glyph glyph-name="uni1EA1.aalt" 
d="M202 -15q-49 0 -87 23t-58.5 59t-20.5 80q0 38 13 76.5t42.5 69.5t75.5 51t103 20q28 0 49 -4q0 93 -67 93q-33 0 -70 -31t-50.5 -36t-22.5 -5q-18 0 -34 12.5t-16 32.5q0 7 4 17t28 29q40 33 79.5 52t82.5 19q79 0 117.5 -51.5t38.5 -146.5l-4 -258l2 -23l4 -23
q0 -17 -14 -35.5t-32 -18.5q-12 0 -24 8t-18 19q-65 -29 -121 -29zM199 74q39 0 105 36l10 5l4 150l-52 6q-27 0 -61.5 -10t-59 -38.5t-24.5 -73.5q0 -47 36 -65q19 -10 42 -10zM193 -205q-22 0 -37.5 18t-15.5 39q0 23 14.5 39.5t36.5 17.5h3q37 0 52 -37q4 -8 4 -16
q0 -20 -17.5 -40.5t-39.5 -20.5z" />
    <glyph glyph-name="agrave" unicode="&#xe0;" horiz-adv-x="467" 
d="M295 586q-12 0 -23.5 5.5t-18.5 14.5l-22 30q-4 6 -38 40t-34 59q0 13 6 26t15.5 19t18.5 7q4 0 13 -1.5t16 -7.5t23 -26q20 -25 48 -55q2 -3 15.5 -15.5t21 -22.5t9.5 -17t2 -11q0 -19 -16 -32t-36 -13zM232 -11q-38 0 -75 14.5t-65 47t-45 80t-17 102.5q0 46 17 105.5
t53 107t77.5 67t81.5 19.5q45 0 86 -22q7 11 21 18t29 7t26 -11.5t11 -35.5q0 -11 -3 -32t-3 -30l2 -18l-4 -24l-3 -197l3 -21l-2 -17q0 -52 11 -74q0 -1 4.5 -8.5t4.5 -13.5q0 -19 -17.5 -35.5t-32.5 -16.5q-13 0 -25.5 10t-18.5 23q-24 -21 -54.5 -33t-61.5 -12zM232 77
q19 0 41.5 14.5t41 43.5t18.5 52v196q0 9 -10 21t-31 22.5t-37 10.5q-26 0 -48.5 -13t-41 -37.5t-33.5 -69.5t-15 -87t15 -77.5t34 -51t35.5 -20t30.5 -4.5z" />
    <glyph glyph-name="agrave.aalt" 
d="M289 597q-12 0 -23.5 5.5t-18.5 14.5l-22 30q-4 6 -38 40t-34 59q0 13 6 26t15.5 19t18.5 7q4 0 13 -1.5t16 -7.5t23 -26q20 -25 48 -55q2 -3 15.5 -15.5t21 -22.5t9.5 -17t2 -11q0 -19 -16 -32t-36 -13zM202 -15q-49 0 -87 23t-58.5 59t-20.5 80q0 38 13 76.5t42.5 69.5
t75.5 51t103 20q28 0 49 -4q0 93 -67 93q-33 0 -70 -31t-50.5 -36t-22.5 -5q-18 0 -34 12.5t-16 32.5q0 7 4 17t28 29q40 33 79.5 52t82.5 19q79 0 117.5 -51.5t38.5 -146.5l-4 -258l2 -23l4 -23q0 -17 -14 -35.5t-32 -18.5q-12 0 -24 8t-18 19q-65 -29 -121 -29zM199 74
q39 0 105 36l10 5l4 150l-52 6q-27 0 -61.5 -10t-59 -38.5t-24.5 -73.5q0 -47 36 -65q19 -10 42 -10z" />
    <glyph glyph-name="uni1EA3" unicode="&#x1ea3;" horiz-adv-x="467" 
d="M243 601q-18 0 -32.5 14t-14.5 32q0 16 23.5 44t32 44t8.5 34q0 5 -2.5 10t-5.5 5q-7 0 -23 -13t-24 -13q-25 0 -40.5 14t-15.5 31q0 18 14 34.5t41 27t48 10.5q28 0 52 -15q21 -14 33.5 -39.5t12.5 -51.5q0 -38 -21 -80q-24 -50 -44 -69t-42 -19zM232 -11
q-38 0 -75 14.5t-65 47t-45 80t-17 102.5q0 46 17 105.5t53 107t77.5 67t81.5 19.5q45 0 86 -22q7 11 21 18t29 7t26 -11.5t11 -35.5q0 -11 -3 -32t-3 -30l2 -18l-4 -24l-3 -197l3 -21l-2 -17q0 -52 11 -74q0 -1 4.5 -8.5t4.5 -13.5q0 -19 -17.5 -35.5t-32.5 -16.5
q-13 0 -25.5 10t-18.5 23q-24 -21 -54.5 -33t-61.5 -12zM232 77q19 0 41.5 14.5t41 43.5t18.5 52v196q0 9 -10 21t-31 22.5t-37 10.5q-26 0 -48.5 -13t-41 -37.5t-33.5 -69.5t-15 -87t15 -77.5t34 -51t35.5 -20t30.5 -4.5z" />
    <glyph glyph-name="uni1EA3.aalt" 
d="M237 612q-18 0 -32.5 14t-14.5 32q0 16 23.5 44t32 44t8.5 34q0 5 -2.5 10t-5.5 5q-7 0 -23 -13t-24 -13q-25 0 -40.5 14t-15.5 31q0 18 14 34.5t41 27t48 10.5q28 0 52 -15q21 -14 33.5 -39.5t12.5 -51.5q0 -38 -21 -80q-24 -50 -44 -69t-42 -19zM202 -15q-49 0 -87 23
t-58.5 59t-20.5 80q0 38 13 76.5t42.5 69.5t75.5 51t103 20q28 0 49 -4q0 93 -67 93q-33 0 -70 -31t-50.5 -36t-22.5 -5q-18 0 -34 12.5t-16 32.5q0 7 4 17t28 29q40 33 79.5 52t82.5 19q79 0 117.5 -51.5t38.5 -146.5l-4 -258l2 -23l4 -23q0 -17 -14 -35.5t-32 -18.5
q-12 0 -24 8t-18 19q-65 -29 -121 -29zM199 74q39 0 105 36l10 5l4 150l-52 6q-27 0 -61.5 -10t-59 -38.5t-24.5 -73.5q0 -47 36 -65q19 -10 42 -10z" />
    <glyph glyph-name="amacron" unicode="&#x101;" horiz-adv-x="467" 
d="M170 599q-22 0 -39.5 14.5t-17.5 38.5q0 17 13 29.5t43 12.5l151 3q37 0 51 -10t14 -28q0 -21 -16 -39.5t-37 -18.5l-15 2l-42 3zM232 -11q-38 0 -75 14.5t-65 47t-45 80t-17 102.5q0 46 17 105.5t53 107t77.5 67t81.5 19.5q45 0 86 -22q7 11 21 18t29 7t26 -11.5
t11 -35.5q0 -11 -3 -32t-3 -30l2 -18l-4 -24l-3 -197l3 -21l-2 -17q0 -52 11 -74q0 -1 4.5 -8.5t4.5 -13.5q0 -19 -17.5 -35.5t-32.5 -16.5q-13 0 -25.5 10t-18.5 23q-24 -21 -54.5 -33t-61.5 -12zM232 77q19 0 41.5 14.5t41 43.5t18.5 52v196q0 9 -10 21t-31 22.5t-37 10.5
q-26 0 -48.5 -13t-41 -37.5t-33.5 -69.5t-15 -87t15 -77.5t34 -51t35.5 -20t30.5 -4.5z" />
    <glyph glyph-name="amacron.aalt" 
d="M164 610q-22 0 -39.5 14.5t-17.5 38.5q0 17 13 29.5t43 12.5l151 3q37 0 51 -10t14 -28q0 -21 -16 -39.5t-37 -18.5l-15 2l-42 3zM202 -15q-49 0 -87 23t-58.5 59t-20.5 80q0 38 13 76.5t42.5 69.5t75.5 51t103 20q28 0 49 -4q0 93 -67 93q-33 0 -70 -31t-50.5 -36
t-22.5 -5q-18 0 -34 12.5t-16 32.5q0 7 4 17t28 29q40 33 79.5 52t82.5 19q79 0 117.5 -51.5t38.5 -146.5l-4 -258l2 -23l4 -23q0 -17 -14 -35.5t-32 -18.5q-12 0 -24 8t-18 19q-65 -29 -121 -29zM199 74q39 0 105 36l10 5l4 150l-52 6q-27 0 -61.5 -10t-59 -38.5
t-24.5 -73.5q0 -47 36 -65q19 -10 42 -10z" />
    <glyph glyph-name="aogonek" unicode="&#x105;" horiz-adv-x="467" 
d="M390 -109q17 0 31 -15.5t14 -32.5q0 -14 -9 -28t-30 -21.5t-43 -7.5q-44 0 -72 36t-28 81q0 23 9.5 48.5t23.5 46.5q-10 -3 -26.5 -6t-27.5 -3q-38 0 -75 14.5t-65 47t-45 80t-17 102.5q0 46 17 105.5t53 107t77.5 67t81.5 19.5q45 0 86 -22q7 11 21 18t29 7t26 -11.5
t11 -35.5q0 -11 -3 -32t-3 -30l2 -18l-4 -24l-3 -197l3 -21l-2 -17q0 -52 11 -74q0 -1 4.5 -8.5t4.5 -13.5q0 -14 -11 -28t-24 -20q-2 -13 -22.5 -34t-28 -31.5t-10.5 -21t-3 -18.5q0 -9 8 -21q7 0 19.5 6t19.5 6zM117 230q0 -42 15 -77.5t34 -51t35.5 -20t30.5 -4.5
q19 0 41.5 14.5t41 43.5t18.5 52v196q0 9 -10 21t-31 22.5t-37 10.5q-26 0 -48.5 -13t-41 -37.5t-33.5 -69.5t-15 -87z" />
    <glyph glyph-name="aogonek.aalt" 
d="M369 -110q17 0 31 -15.5t14 -32.5q0 -14 -9 -28t-30 -21.5t-43 -7.5q-44 0 -72 36t-28 81q0 44 30 91q-32 -8 -60 -8q-49 0 -87 23t-58.5 59t-20.5 80q0 38 13 76.5t42.5 69.5t75.5 51t103 20q28 0 49 -4q0 93 -67 93q-33 0 -70 -31t-50.5 -36t-22.5 -5q-18 0 -34 12.5
t-16 32.5q0 7 4 17t28 29q40 33 79.5 52t82.5 19q79 0 117.5 -51.5t38.5 -146.5l-4 -258l2 -23l4 -23q0 -12 -9 -27.5t-21 -22.5q-5 -7 -24.5 -27.5t-27 -35.5t-7.5 -29q0 -9 8 -21q7 0 19.5 6t19.5 6zM199 74q39 0 105 36l10 5l4 150l-52 6q-27 0 -61.5 -10t-59 -38.5
t-24.5 -73.5q0 -47 36 -65q19 -10 42 -10z" />
    <glyph glyph-name="aring" unicode="&#xe5;" horiz-adv-x="467" 
d="M255 561q-26 0 -52.5 13.5t-45 45.5t-18.5 70q0 36 17 68t42.5 46t50.5 14t46 -9q17 -7 33.5 -24t26.5 -44.5t12 -57.5q-5 -48 -34 -85t-78 -37zM255 640q10 0 16 13.5t6 28.5v6l2 15q0 41 -29 41q-22 0 -22 -47q0 -57 27 -57zM232 -11q-38 0 -75 14.5t-65 47t-45 80
t-17 102.5q0 46 17 105.5t53 107t77.5 67t81.5 19.5q45 0 86 -22q7 11 21 18t29 7t26 -11.5t11 -35.5q0 -11 -3 -32t-3 -30l2 -18l-4 -24l-3 -197l3 -21l-2 -17q0 -52 11 -74q0 -1 4.5 -8.5t4.5 -13.5q0 -19 -17.5 -35.5t-32.5 -16.5q-13 0 -25.5 10t-18.5 23
q-24 -21 -54.5 -33t-61.5 -12zM232 77q19 0 41.5 14.5t41 43.5t18.5 52v196q0 9 -10 21t-31 22.5t-37 10.5q-26 0 -48.5 -13t-41 -37.5t-33.5 -69.5t-15 -87t15 -77.5t34 -51t35.5 -20t30.5 -4.5z" />
    <glyph glyph-name="aring.aalt" 
d="M249 572q-26 0 -52.5 13.5t-45 45.5t-18.5 70q0 36 17 68t42.5 46t50.5 14t46 -9q17 -7 33.5 -24t26.5 -44.5t12 -57.5q-5 -48 -34 -85t-78 -37zM249 651q10 0 16 13.5t6 28.5v6l2 15q0 41 -29 41q-22 0 -22 -47q0 -57 27 -57zM202 -15q-49 0 -87 23t-58.5 59t-20.5 80
q0 38 13 76.5t42.5 69.5t75.5 51t103 20q28 0 49 -4q0 93 -67 93q-33 0 -70 -31t-50.5 -36t-22.5 -5q-18 0 -34 12.5t-16 32.5q0 7 4 17t28 29q40 33 79.5 52t82.5 19q79 0 117.5 -51.5t38.5 -146.5l-4 -258l2 -23l4 -23q0 -17 -14 -35.5t-32 -18.5q-12 0 -24 8t-18 19
q-65 -29 -121 -29zM199 74q39 0 105 36l10 5l4 150l-52 6q-27 0 -61.5 -10t-59 -38.5t-24.5 -73.5q0 -47 36 -65q19 -10 42 -10z" />
    </font>
</defs>
</svg>
