<?xml version="1.0" encoding="utf-8"?>
<!-- Generator: Adobe Illustrator 17.0.0, SVG Export Plug-In . SVG Version: 6.00 Build 0)  -->
<!DOCTYPE svg PUBLIC "-//W3C//DTD SVG 1.0//EN" "http://www.w3.org/TR/2001/REC-SVG-20010904/DTD/svg10.dtd">
<svg version="1.0" id="Layer_1" xmlns="http://www.w3.org/2000/svg" xmlns:xlink="http://www.w3.org/1999/xlink" x="0px" y="0px"
	 width="1083.024px" height="458.013px" viewBox="0 0 1083.024 458.013" enable-background="new 0 0 1083.024 458.013"
	 xml:space="preserve">
<g>
	<g>
		<path fill="#159BD7" d="M272.494,0.119H0.086v41.863h258.809v0.037c7.492,0,13.474,6.008,13.474,13.467v140.577l-0.033,0.119
			c-0.046,7.426-6.088,13.394-13.5,13.394H55.447c-7.446,0-13.54-6.016-13.54-13.514v-56.791c0-7.459,6.094-13.514,13.54-13.514
			H230.43V83.95H41.827c-23.053,0-41.741,18.654-41.741,41.691v84.053c0,23.053,18.688,41.734,41.741,41.734h230.667
			c23.073,0,41.734-18.681,41.734-41.734V41.866C314.228,18.816,295.567,0.119,272.494,0.119"/>
		<g>
			<path d="M427.605,130.565h28.331l-14.034-42.046h-0.389L427.605,130.565z M468.873,59.466l32.635,97.619
				c3.873,11.91,6.615,14.666,13.416,14.666h6.635v17.185H450.3v-17.185h5.844c5.858,0,10.73-0.778,10.73-2.901
				c0-2.006-0.195-4.151-0.979-7.087l-4.074-14.027h-39.838l-2.381,7.815c-2.131,6.816-2.922,9.71-2.922,12.452
				c0,3.151,6.857,3.748,12.167,3.748h5.615v17.185h-57.405v-17.185h6.649c6.836,0,9.523-2.756,13.486-14.666l32.607-97.619H468.873
				z"/>
			<path d="M565.333,143.204c0,19.954,4.477,31.844,15.401,31.844c10.994,0,15.436-11.89,15.436-31.844
				c0-19.899-4.442-31.802-15.436-31.802C569.81,111.402,565.333,123.305,565.333,143.204 M532.886,83.494
				c0-5.517-1.361-8.412-7.024-8.412h-8.974V59.466h48.445v48.598c7.211-8.204,16.408-13.472,25.152-13.472
				c29.304,0,40.221,22.89,40.221,48.612c0,25.791-10.917,48.626-40.221,48.626c-12.298,0-23.244-4.289-30.053-15.033l-5.642,12.153
				h-21.904V83.494z"/>
			<path d="M674.877,143.204c0,19.954,4.532,31.844,15.442,31.844c10.946,0,15.415-11.89,15.415-31.844
				c0-19.899-4.47-31.802-15.415-31.802C679.409,111.402,674.877,123.305,674.877,143.204 M642.443,83.494
				c0-5.517-1.375-8.412-6.982-8.412h-9.002V59.466h48.418v48.598c7.246-8.204,16.408-13.472,25.194-13.472
				c29.303,0,40.249,22.89,40.249,48.612c0,25.791-10.946,48.626-40.249,48.626c-12.299,0-23.244-4.289-30.067-15.033l-5.684,12.153
				h-21.877V83.494z"/>
			<path d="M784.253,143.211c0,23.036,4.095,33.002,15.818,33.002c11.702,0,15.79-9.966,15.79-33.002
				c0-23.036-4.088-32.989-15.79-32.989C788.348,110.222,784.253,120.175,784.253,143.211 M850.453,143.211
				c0,31.26-21.301,48.619-50.382,48.619c-29.144,0-50.395-17.359-50.395-48.619c0-31.24,21.252-48.619,50.395-48.619
				C829.152,94.592,850.453,111.971,850.453,143.211"/>
			<path d="M989.687,144.793v15.228c0,8.974-1.937,14.284-9.363,14.284c-4.484,0-6.615-3.345-6.615-7.461v-53.692h23.973v-15.63
				H973.71V61.249h-19.37c-1.583,16.179-6.642,36.272-26.166,36.272h-30.455V61.249h-19.316
				c-1.576,16.179-6.663,36.272-26.166,36.272v15.63h13.076v49.007c0,19.926,11.126,29.671,31.205,29.671
				c23.487,0,32.802-10.515,32.802-29.671v-17.366H913.75v15.228c0,8.974-1.971,14.284-9.369,14.284
				c-4.532,0-6.663-3.345-6.663-7.461v-53.692h43.6v49.007c0,19.926,11.077,29.671,31.198,29.671
				c23.424,0,32.822-10.515,32.822-29.671v-17.366H989.687z"/>
		</g>
	</g>
	<path d="M248.94,343.872l-6.046-0.982l-15.744,17.29l-16.73,8.851l-1.128,5.203h12.514L215.062,406
		c-2.109,9.559-3.653,22.775,11.809,22.775c9.692,0,18.695-2.952,28.39-6.885v-5.064c-2.108,0.14-4.078,0.28-6.607,0.28
		c-7.731,0-10.541-1.122-12.091-2.672c-1.544-1.544-1.823-4.074-0.135-11.808l6.043-28.393h19.258l2.108-9.698H244.58
		L248.94,343.872z"/>
	<path d="M300.469,361.021c-21.934,0-38.451,19.539-38.451,41.186c0,17.431,10.835,26.568,25.634,26.568
		c21.94,0,38.457-19.54,38.457-41.187C326.109,370.155,315.269,361.021,300.469,361.021 M290.033,421.466
		c-5.287,0-7.659-4.921-7.659-13.212c0-12.655,5.416-39.925,15.72-39.925c5.284,0,7.662,4.918,7.662,13.214
		C305.756,394.194,300.337,421.466,290.033,421.466"/>
	<path d="M400.157,343.872l-6.04-0.982l-15.75,17.29l-16.725,8.851l-1.125,5.203h12.511L366.279,406
		c-2.108,9.559-3.655,22.775,11.807,22.775c9.704,0,18.698-2.952,28.399-6.885v-5.064c-2.105,0.14-4.078,0.28-6.609,0.28
		c-7.728,0-10.538-1.122-12.086-2.672c-1.547-1.544-1.829-4.074-0.144-11.808l6.046-28.393h19.259l2.105-9.698h-19.253
		L400.157,343.872z"/>
	<path d="M478.157,409.94l5.491-22.917c3.368-13.913,0.135-26.002-13.078-26.002c-7.869,0-14.472,4.074-23.196,11.526l-1.403-0.282
		l10.127-47.653l-2.954-1.825l-30.504,6.326l-0.567,4.218l10.124,6.182l-18.557,87.434h20.665l9.839-46.388
		c5.2-3.234,9.701-4.921,13.075-4.921c6.043,0,7.446,4.218,5.482,12.51l-5.623,23.895c-0.567,2.392-0.849,4.501-0.849,6.47
		c0,6.605,3.521,10.259,12.091,10.259c6.894,0,13.78-2.527,20.521-6.605l-0.702-3.654
		C477.039,417.812,476.475,417.107,478.157,409.94"/>
	<path d="M551.398,376.906c0-8.997-7.875-15.885-21.649-15.885c-21.367,0-40.91,18.275-40.91,42.45
		c0,14.057,9.416,25.304,27.832,25.304c12.514,0,21.931-5.903,28.399-15.885l-2.531-2.672c-5.623,3.237-11.384,5.201-16.728,5.201
		c-11.111,0-17.429-4.779-17.573-16.164c0.992,0.028,1.973,0.045,2.951,0.045C533.576,399.301,551.398,391.587,551.398,376.906
		 M528.061,368.191c3.518,0,5.2,2.387,5.2,5.903c0,8.854-5.626,16.729-24.456,18.693
		C511.193,379.013,521.173,368.191,528.061,368.191"/>
	<path d="M638.434,332.203c5.206,8.155,12.235,11.387,17.297,11.387c6.469,0,10.124-4.641,10.124-10.121
		c0-6.468-5.485-10.685-14.766-10.685c-7.869,0-14.758,2.252-21.646,6.888c-10.541,7.17-17.147,17.711-20.8,32.191l-0.285,1.125
		l-16.023,5.765l-1.268,5.48h15.327l-8.436,49.621c-2.816,16.729-4.921,22.212-7.173,24.462
		c-4.075-7.313-10.541-11.249-16.587-11.249c-5.62,0-9.557,5.061-9.557,9.982c0,6.464,5.767,10.964,14.623,10.964
		c6.606,0,14.475-2.11,21.928-7.728c9.557-7.313,15.597-19.26,18.974-38.661l6.471-37.39h17.705l2.114-9.419h-18.278l0.564-3.228
		C632.256,341.483,634.928,335.295,638.434,332.203"/>
	<path d="M712.677,409.656l10.259-47.234l-2.954-1.826l-29.515,6.327v4.22l8.574,5.902l-6.888,32.19
		c-5.203,3.236-9.695,4.923-13.072,4.923c-6.042,0-7.449-4.078-5.479-12.513l9.137-39.222l-2.951-1.826l-29.239,6.327l-0.564,4.22
		l8.709,5.762l-6.037,25.864c-3.233,13.918-0.144,26.006,13.072,26.006c8.708,0,16.302-5.344,24.597-12.793l1.403,0.282
		c-0.84,6.747,1.266,12.511,10.826,12.511c7.029,0,13.918-2.529,20.668-6.608l-0.702-3.654
		C711.552,417.669,710.994,417.389,712.677,409.656"/>
	<path d="M736.934,329.113l-0.564,4.218l10.121,6.182l-15.321,72.533c-2.393,10.4,0,16.729,11.522,16.729
		c6.891,0,13.783-2.529,20.944-6.608l-0.699-3.654c-11.948-0.841-12.367-1.264-10.688-8.574l18.14-85.328l-2.954-1.828
		L736.934,329.113z"/>
	<path d="M776.987,329.113l-0.558,4.218l10.115,6.182l-15.318,72.533c-2.39,10.4,0,16.729,11.524,16.729
		c6.891,0,13.777-2.529,20.944-6.608l-0.705-3.654c-11.944-0.841-12.364-1.264-10.679-8.574l18.134-85.328l-2.954-1.828
		L776.987,329.113z"/>
	<path d="M869.669,376.906c0-8.997-7.875-15.885-21.646-15.885c-21.37,0-40.91,18.275-40.91,42.45
		c0,14.057,9.416,25.304,27.832,25.304c12.508,0,21.924-5.903,28.399-15.885l-2.531-2.672c-5.623,3.237-11.387,5.201-16.73,5.201
		c-11.108,0-17.429-4.779-17.57-16.164c0.989,0.028,1.973,0.045,2.948,0.045C851.85,399.301,869.669,391.587,869.669,376.906
		 M846.329,368.191c3.524,0,5.203,2.387,5.203,5.903c0,8.854-5.623,16.729-24.456,18.693
		C829.464,379.013,839.444,368.191,846.329,368.191"/>
	<path d="M907.344,361.021c-19.681,0-29.661,11.244-29.661,22.632c0,8.995,5.905,13.355,14.625,17.146l6.037,2.672
		c7.875,3.516,10.124,5.906,10.124,9.985c0,4.918-2.813,8.289-7.728,8.289c-3.374,0-6.193-0.844-10.124-2.951
		c-0.423-10.12-5.908-15.603-11.81-15.603c-4.915,0-9.138,4.357-9.138,9.98c0,9.559,12.091,15.602,28.117,15.602
		c19.817,0,28.39-12.228,28.39-22.772c0-9.134-5.617-13.352-14.895-17.707l-6.046-2.813c-7.314-3.377-9.698-5.483-9.698-9.421
		c0-3.934,2.951-7.731,7.734-7.731c1.964,0,4.072,0.424,5.902,1.264c0.984,8.295,6.18,14.622,12.646,14.622
		c4.783,0,8.577-3.234,8.577-8.997C930.396,367.909,921.687,361.021,907.344,361.021"/>
	<path d="M973.367,343.872l-6.042-0.982l-15.744,17.29l-16.727,8.851l-1.125,5.203h12.508L939.489,406
		c-2.105,9.559-3.653,22.775,11.809,22.775c9.704,0,18.695-2.952,28.396-6.885v-5.064c-2.108,0.14-4.076,0.28-6.607,0.28
		c-7.731,0-10.544-1.122-12.085-2.672c-1.55-1.544-1.829-4.074-0.147-11.808l6.049-28.393h19.253l2.105-9.698h-19.253
		L973.367,343.872z"/>
	<path d="M173.81,427.406c-3.917,0-7.023-3.104-7.023-6.9c0-3.797,3.107-6.908,7.023-6.908c3.796,0,6.903,3.111,6.903,6.908
		C180.713,424.303,177.606,427.406,173.81,427.406"/>
	<path d="M1001.949,427.406c-3.916,0-7.023-3.104-7.023-6.9c0-3.797,3.107-6.908,7.023-6.908c3.797,0,6.903,3.111,6.903,6.908
		C1008.852,424.303,1005.745,427.406,1001.949,427.406"/>
	<path d="M6.246,328.378l-0.339,0.099l-0.177,3.302l12.853,2.936L0.416,417.028c-0.717,3.321-0.258,6.215,1.302,8.146
		c1.286,1.597,3.293,2.441,5.794,2.441c4.783,0,12.343-2.516,17.972-5.978l0.285-0.177l-0.402-2.431l-0.414-0.006
		c-7.527-0.09-11.069-0.358-12.152-1.733c-0.495-0.627-0.543-1.607-0.159-3.28l20.236-91.09l0.051-0.228l-1.337-1.718L6.246,328.378
		z"/>
	<path d="M117.833,327.122c1.352,7.232,5.176,11.372,10.544,11.372c4.6,0,7.944-3.108,7.944-7.391
		c0-4.912-4.465-10.201-14.272-10.201c-6.264,0-11.923,1.964-17.315,6.008c-9.218,6.986-13.884,15.622-16.632,30.813l-0.792,4.468
		l-15.15,3.855l-0.3,0.076l-0.9,4.137h14.787l-10.157,58.034c-1.79,9.895-4.108,16.695-7.077,20.742
		c-3.182-4.522-6.831-6.818-10.847-6.818c-4.687,0-8.088,2.811-8.088,6.684c0,3.95,3.5,7.95,10.193,7.95
		c5.233,0,10.457-2.385,15.111-6.89c8.595-8.32,11.603-15.494,15.324-36.541l7.515-43.161h15.735l1.466-7.467H99.03l1.158-6.441
		C103.523,337.664,109.616,327.575,117.833,327.122"/>
	<path d="M154.863,411.288c-5.206,4.924-10.799,7.311-17.085,7.311c-5.281,0-9.389-1.609-12.214-4.782
		c-3.52-3.951-4.924-10.247-4.072-18.236c1.535,0.061,3.047,0.093,4.513,0.093c23.433,0,36.874-7.857,36.874-21.559
		c0-8.668-7.038-14.275-17.936-14.275c-9.854,0-19.291,5.271-26.558,14.837c-6.484,8.524-10.349,19.353-10.349,28.96
		c0,14.567,9.357,23.977,23.838,23.977c10.703,0,20.176-5.157,26-14.15l0.264-0.408l-2.981-2.045L154.863,411.288z M145.162,386.354
		c-5.107,3.82-13.216,5.347-22.95,4.339c3.227-15.608,11.42-26.053,20.482-26.053c5.086,0,8.643,3.665,8.643,8.917
		C151.336,378.905,149.204,383.329,145.162,386.354"/>
	<path d="M62.591,421.463l-0.414-2.434l-0.414-0.006c-7.506-0.09-11.039-0.364-12.136-1.759c-0.498-0.633-0.552-1.603-0.174-3.252
		l12.091-53.276l0.06-0.268l-1.535-1.532L36.03,366.33l-0.333,0.105l-0.189,3.288l11.737,2.937l-10.01,44.364
		c-0.72,3.228-0.24,6.184,1.313,8.121c1.296,1.617,3.293,2.47,5.779,2.47c4.786,0,12.007-2.404,17.972-5.975L62.591,421.463z"/>
	<path d="M57.52,347.727c4.085,0,7.407-3.321,7.407-7.403c0-4.084-3.323-7.407-7.407-7.407c-4.15,0-7.524,3.323-7.524,7.407
		C49.996,344.406,53.37,347.727,57.52,347.727"/>
	<g>
		<path fill="#231F20" d="M1012.707,352.525h-8.657c-0.667,0-1.146-0.547-1.146-1.16v-6.593c0-0.612,0.479-1.158,1.146-1.158h26.893
			c0.665,0,1.144,0.545,1.144,1.158v6.593c0,0.612-0.479,1.16-1.144,1.16h-8.659v32.34c0,0.599-0.545,1.145-1.159,1.145h-7.258
			c-0.612,0-1.159-0.547-1.159-1.145V352.525z"/>
		<path fill="#231F20" d="M1041.77,343.973c0.053-0.531,0.599-0.959,1.093-0.959h0.959c0.307,0,0.852,0.24,1.04,0.6l14.051,26.159
			h0.12l14.039-26.159c0.187-0.36,0.732-0.6,1.039-0.6h0.972c0.479,0,1.026,0.427,1.079,0.959l6.846,40.705
			c0.12,0.786-0.426,1.332-1.144,1.332h-7.154c-0.546,0-1.091-0.48-1.144-0.972l-2.731-18.714h-0.12l-10.176,19.62
			c-0.174,0.372-0.72,0.665-1.026,0.665h-1.093c-0.36,0-0.852-0.293-1.025-0.665l-10.243-19.62h-0.12l-2.664,18.714
			c-0.054,0.492-0.546,0.972-1.146,0.972h-7.152c-0.719,0-1.265-0.547-1.146-1.332L1041.77,343.973z"/>
	</g>
</g>
</svg>
