<?xml version="1.0" encoding="UTF-8"?>
<svg width="61px" height="61px" viewBox="0 0 61 61" version="1.1" xmlns="http://www.w3.org/2000/svg" xmlns:xlink="http://www.w3.org/1999/xlink">
    <title>86BE2938-1DBD-48F1-A9F6-52238120CC4B</title>
    <g id="Example-Pages" stroke="none" stroke-width="1" fill="none" fill-rule="evenodd" stroke-linecap="round" stroke-linejoin="round">
        <g id="Homepage-Example" transform="translate(-570.000000, -3377.000000)" stroke="#001489" stroke-width="1.5">
            <g id="email-action-check" transform="translate(570.000000, 3377.000000)">
                <circle id="Oval" cx="44.28125" cy="44.28125" r="15.75"></circle>
                <path d="M51.3005,39.70325 L43.674875,49.869875 C43.3316774,50.3257699 42.8079873,50.6108445 42.2388098,50.6516079 C41.6696322,50.6923713 41.1106623,50.4848347 40.706,50.0825 L36.7685,46.145" id="Shape"></path>
                <path d="M20.65625,40.34375 L4.90625,40.34375 C2.7316288,40.34375 0.96875,38.5808712 0.96875,36.40625 L0.96875,4.90625 C0.96875,2.7316288 2.7316288,0.96875 4.90625,0.96875 L52.15625,0.96875 C54.3308712,0.96875 56.09375,2.7316288 56.09375,4.90625 L56.09375,22.625" id="Shape"></path>
                <path d="M55.203875,2.4125 L33.825875,18.8555 C30.7044961,21.2567062 26.3580039,21.2567062 23.236625,18.8555 L1.858625,2.4125" id="Shape"></path>
            </g>
        </g>
    </g>
</svg>
