<?xml version="1.0" encoding="UTF-8"?>
<svg width="50px" height="50px" viewBox="0 0 50 50" version="1.1" xmlns="http://www.w3.org/2000/svg" xmlns:xlink="http://www.w3.org/1999/xlink">
    <title>7687001D-BB20-42F3-A2C1-9F77FFC6F187</title>
    <g id="Storybook-&amp;-Theme-Builder" stroke="none" stroke-width="1" fill="none" fill-rule="evenodd" stroke-linecap="round" stroke-linejoin="round">
        <g id="Theme-Builder:-Modal---Import-Theme" transform="translate(-225.000000, -201.000000)" stroke="#D9D9D6" stroke-width="3">
            <g id="File-Uploader/Default" transform="translate(10.000000, 10.000000)">
                <g id="Drop-Target" transform="translate(24.000000, 168.000000)">
                    <g id="icon-upload" transform="translate(192.496491, 24.517436)">
                        <line x1="23.5019865" y1="46.9608248" x2="23.5019865" y2="28.1782161" id="Path"></line>
                        <polyline id="Path" points="15.6758995 36.004303 23.5019865 28.1782161 31.3280734 36.004303"></polyline>
                        <path d="M34.4585082,31.3086688 L36.8063343,31.3086688 C42.4244212,31.3190857 46.9885952,26.7716074 46.9969545,21.1514335 C47.0052908,15.5312596 42.4598995,10.9712596 36.8418125,10.9608248 C34.7694647,10.9566509 32.7451169,11.5869117 31.0379865,12.7660422 C29.4414647,4.27004218 21.2605952,-1.3230013 12.7645952,0.27143348 C4.26859515,1.86586826 -1.32444833,10.0488248 0.272073413,18.5448248 C1.44911689,24.8056943 6.3012908,29.7309117 12.5454647,30.9956074" id="Path"></path>
                    </g>
                </g>
            </g>
        </g>
    </g>
</svg>