<?xml version="1.0" encoding="UTF-8"?>
<svg width="16px" height="16px" viewBox="0 0 16 16" version="1.1" xmlns="http://www.w3.org/2000/svg" xmlns:xlink="http://www.w3.org/1999/xlink">
    <title>32CFF05D-EC42-443F-A4A8-244125EDF6DA</title>
    <g id="Symbols" stroke="none" stroke-width="1" fill="none" fill-rule="evenodd">
        <g id="Icon/RTL">
            <rect id="Rectangle" x="0" y="0" width="16" height="16"></rect>
            <path d="M5.12527233,10.5299145 L5.12527233,12.3897436 L14.5,12.3897436 L14.5,14.1401709 L5.12527233,14.1401709 L5.12527233,16 L1.5,13.2649573 L5.0998219,10.5299145 L5.12527233,10.5299145 Z M13.6701525,0 L13.6701525,1.75042735 L11.8546841,1.75042735 L11.8546841,11.2410256 L10.0392157,11.2410256 L10.0392157,1.75042735 L8.24923747,1.75042735 L8.24923747,11.2410256 L6.43376906,11.2410256 L6.43376906,6.98803419 C4.43420479,6.98803419 2.80283224,5.43726496 2.80283224,3.50632479 C2.80283224,1.57538462 4.43420479,0 6.43376906,0 L6.43376906,0 L13.6701525,0 Z" id="RTL" fill="#7F7F7F"></path>
        </g>
    </g>
</svg>