<?xml version="1.0" encoding="UTF-8"?>
<svg width="16px" height="16px" viewBox="0 0 16 16" version="1.1" xmlns="http://www.w3.org/2000/svg" xmlns:xlink="http://www.w3.org/1999/xlink">
    <title>Share</title>
    <g id="Storybook-&amp;-Theme-Builder" stroke="none" stroke-width="1" fill="none" fill-rule="evenodd">
        <g id="Storybook" transform="translate(-1384.000000, -104.000000)">
            <g id="Group-4" transform="translate(16.000000, 80.000000)">
                <g id="Group-2" transform="translate(0.000000, 0.000000)">
                    <g id="Icon/Share" transform="translate(1368.000000, 24.000000)">
                        <rect id="Rectangle" x="0" y="0" width="16" height="16"></rect>
                        <path d="M0.810369659,14.6773238 C1.36265002,15.2200561 2.00019203,15.5 2.77599616,15.5 L10.7590975,15.5 C11.5349016,15.5 12.1724436,15.2200561 12.7239558,14.6773238 C13.2585694,14.1174361 13.5343255,13.4694323 13.5343255,12.6818465 L13.5343255,10.1615721 C13.5343255,10.0212102 13.4659626,9.93387399 13.3277004,9.8816282 C13.2071051,9.82938241 13.1034085,9.84653774 13.0004801,9.95180911 C12.8276524,10.1093263 12.6555929,10.231753 12.4827652,10.3190892 C12.3621699,10.3892701 12.3107057,10.4766064 12.3107057,10.5990331 L12.3107057,12.6997817 C12.3107057,13.1193075 12.1555449,13.4873674 11.8621219,13.8024017 C11.5518003,14.0995009 11.1900144,14.2570181 10.7759962,14.2570181 L2.75909746,14.2570181 C2.34507921,14.2570181 1.98329333,14.0995009 1.67297168,13.8024017 C1.37954873,13.4873674 1.2243879,13.1193075 1.2243879,12.6997817 L1.2243879,4.56113537 C1.2243879,4.14082969 1.37954873,3.77276981 1.67297168,3.4577355 C1.98329333,3.16063631 2.34507921,3.00311915 2.75909746,3.00311915 L3.84522324,3.00311915 C3.87978877,3.00311915 3.931253,2.98518403 3.98271723,2.9680287 C4.34527124,2.74033063 4.77618819,2.54772302 5.2762362,2.39020586 C5.43139702,2.35511541 5.51742679,2.25062383 5.51742679,2.07517155 C5.51742679,1.98783531 5.48286126,1.9176544 5.43139702,1.84747349 C5.36226596,1.7952277 5.2931349,1.76013724 5.20710514,1.76013724 L2.75909746,1.76013724 C2.00019203,1.76013724 1.3449832,2.0400811 0.810369659,2.58281347 C0.276524244,3.14270119 0,3.79070493 0,4.5782907 L0,12.6818465 C0,13.4694323 0.276524244,14.1174361 0.810369659,14.6773238 L0.810369659,14.6773238 Z M2.62083533,9.81144729 C2.72453193,10.2489083 2.86279405,10.6169682 2.98338934,10.9320025 C3.12088334,11.2470368 3.27604417,11.5620711 3.46577052,11.9121959 C3.65549688,12.2443855 3.77609217,12.4720836 3.84522324,12.577355 C3.9143543,12.6818465 3.98271723,12.7871179 4.0518483,12.8744541 C4.12097936,12.9617904 4.19011042,12.9968808 4.29380701,12.9968808 C4.32760442,12.9968808 4.36216995,12.9968808 4.4144023,12.9797255 C4.5518963,12.9095446 4.62102736,12.8042732 4.60412866,12.6467561 C4.31070571,10.459451 4.5518963,8.91859014 5.32770043,8.02651279 C6.05204033,7.1687461 7.46615458,6.74844042 9.53470955,6.74844042 L11.0694191,6.74844042 L11.0694191,8.62149095 C11.0694191,8.90143481 11.2069131,9.09404242 11.4481037,9.19931379 C11.5349016,9.23362445 11.6209313,9.25155958 11.6900624,9.25155958 C11.8621219,9.25155958 12.0172828,9.18137867 12.1209794,9.05895197 L15.8279405,5.31363069 C15.9485358,5.1904242 16,5.05084217 16,4.87538989 C16,4.7007174 15.9485358,4.56113537 15.8279405,4.43792888 L12.1209794,0.692607611 C12.0003841,0.570180911 11.8621219,0.5 11.6900624,0.5 C11.6209313,0.5 11.5349016,0.517155334 11.4481037,0.552245789 C11.2069131,0.657517155 11.0694191,0.850124766 11.0694191,1.13006862 L11.0694191,3.00311915 L9.53470955,3.00311915 C8.86260202,3.00311915 8.22429189,3.03820961 7.65511282,3.10761073 C7.06903505,3.17779164 6.55208833,3.28306301 6.10350456,3.40548971 C5.67258761,3.52791641 5.2762362,3.68543356 4.91445031,3.87804117 C4.5518963,4.07064878 4.25924148,4.26325639 4.00038406,4.47301934 C3.75919347,4.7007174 3.53490158,4.92841547 3.34517523,5.20835933 C3.15544887,5.47114785 3.00028805,5.73315658 2.89659145,5.9959451 C2.77599616,6.25873362 2.68996639,6.53867748 2.62083533,6.85371179 C2.5524724,7.1687461 2.51790687,7.46584529 2.48334133,7.72863381 C2.46567451,8.00857767 2.4487758,8.30645664 2.4487758,8.62149095 C2.4487758,8.98877105 2.50024004,9.39114161 2.62083533,9.81144729 L2.62083533,9.81144729 Z" id="Share" fill="#7F7F7F"></path>
                    </g>
                </g>
            </g>
        </g>
    </g>
</svg>