<svg id="Regional_flags" data-name="Regional flags" xmlns="http://www.w3.org/2000/svg" xmlns:xlink="http://www.w3.org/1999/xlink" viewBox="0 0 30 20"><defs><style>.cls-1{fill:none;}.cls-2{fill:#004d71;}.cls-3{fill:#009ade;}.cls-4{clip-path:url(#clip-path);}.cls-5{fill:#fff;}</style><clipPath id="clip-path"><path class="cls-1" d="M26.73,10A11.72,11.72,0,0,0,21.12,0H8.87a11.73,11.73,0,0,0,0,20l12.26,0A11.71,11.71,0,0,0,26.73,10Z"/></clipPath></defs><rect class="cls-2" width="30" height="20"/><path class="cls-3" d="M26.73,10A11.72,11.72,0,0,0,21.12,0H8.87a11.73,11.73,0,0,0,0,20l12.26,0A11.71,11.71,0,0,0,26.73,10Z"/><g class="cls-4"><path class="cls-5" d="M17.06,15.8s0,0,0,0,0,0-.05,0Z"/><path class="cls-5" d="M17.39,14.69s0,0,0,0h0c-.08,0-.17,0-.09.05S17.35,14.71,17.39,14.69Z"/><path class="cls-5" d="M17,15.82h0s0,0,0,0a0,0,0,0,0,0,0l0,0h0s0,0,0,0,0,0,0,0Z"/><path class="cls-5" d="M16.84,15.82h0s0,0,0,0h0l0,0c-.05,0,0,.05-.1.06a.14.14,0,0,0-.15,0,.27.27,0,0,0-.18,0c-.11,0-.22.1-.05.08s.13,0,.21,0,.08,0,.12,0S16.8,15.86,16.84,15.82Z"/><path class="cls-5" d="M18.2,14.88c.12,0,.24.13.19,0s0,0,0,0a.11.11,0,0,0,0-.06c-.07,0-.15-.05-.21,0s0,0-.05,0l-.09,0s-.09,0-.09,0,0,0,0,.06v0h0v0s0,0,0,0h0s0,0,0,0,.12-.08.13,0a.27.27,0,0,0,.13,0Z"/><path class="cls-5" d="M17.7,14.89c-.07,0-.13,0-.22,0a.16.16,0,0,0,.26.06s0,0,0,0S17.71,14.89,17.7,14.89Z"/><path class="cls-5" d="M16.4,16.05s0,0-.07,0-.21,0-.25,0a.12.12,0,0,0,.08,0c.07,0,.13.05.2.07S16.48,16.08,16.4,16.05Z"/><path class="cls-5" d="M16.86,15.36s0,0,0,0,0-.06,0-.06,0-.08,0-.09,0,0,0-.07-.06.08-.05.11l0,.07S16.81,15.35,16.86,15.36Z"/><path class="cls-5" d="M17,14.6s0,0,0,0h0c-.08,0,0,.1,0,.1s.05-.07.06-.06h0v0S17,14.61,17,14.6Z"/><path class="cls-5" d="M17.93,15.54v0S17.91,15.53,17.93,15.54Z"/><path class="cls-5" d="M17.91,14.59c-.05-.05-.09,0-.12,0s.07,0,.11,0S18,14.62,17.91,14.59Z"/><path class="cls-5" d="M17.81,14.2h0Z"/><path class="cls-5" d="M17.8,14.44h0s0,0,0,0,0,0,0,0,0,0,.07,0,0,0,0,0v0s0,0,0,0,0,0,0,0S17.79,14.43,17.8,14.44Z"/><path class="cls-5" d="M17.84,14.11s0,0,0,0,0,0,0,.08,0,0,0,.08,0,.13.06.17-.05-.11,0-.17.12,0,.15,0,0,0,0,0,0-.05,0-.14,0,0,0,0h0l0,0h0s0,0,0,.05-.07.06-.06,0l.05,0A.13.13,0,0,0,18,14s0,0,0-.08-.06,0-.07,0A.42.42,0,0,0,17.84,14.11Z"/><path class="cls-5" d="M17.48,15.69s.15,0,.08-.06-.06,0-.1,0-.05,0-.06,0S17.43,15.67,17.48,15.69Z"/><path class="cls-5" d="M18.48,15.5s0,0-.07,0v.05s0,0,0,0,0,0,0,0,0,0,.07-.05,0,0,0,0S18.48,15.51,18.48,15.5Z"/><path class="cls-5" d="M16.68,15.31h0s0-.05,0,0Z"/><path class="cls-5" d="M17.35,14.18s.1-.12,0-.13-.06,0-.07.09a.2.2,0,0,1-.11.06s-.06,0-.1,0H17c-.08,0-.16,0-.24,0s0,0-.07,0-.09,0-.13.06,0,0-.06,0,0,0,0,0,0,0-.05,0a0,0,0,0,0,0,0,.6.6,0,0,0-.06.11s0,0,0,0v.05s0,.07,0,.07-.08.08-.09.09,0,.14,0,.16-.07.07-.07.12,0,0,0,0,0,.1.09.08,0,0,0,0,0,.2,0,.26.1,0,.18,0,0,0,0,0a.74.74,0,0,0,.05-.33c-.07-.05,0-.11.1-.11s0,.09,0,.12,0,.06.05.08,0,0,0,0-.07.11.09.14,0-.08.12-.07,0,0,0,0l0,0h0l-.07-.06s0,0,0,0,0,0,0,0l0,0s0,0,0,0l0,0s-.07-.11-.11-.14,0,0-.05,0h0c0-.05.18-.11.23-.17l0,0H17s.05,0,.06,0l-.08,0a.1.1,0,0,1-.07,0,.24.24,0,0,0-.16,0s0,0-.06,0-.12.21-.2,0c-.13,0-.14-.19,0-.26a4.87,4.87,0,0,1,.54,0C17.12,14.37,17.25,14.28,17.35,14.18Zm-.73.54h0S16.62,14.72,16.62,14.72Z"/><path class="cls-5" d="M18.27,14.51h0Z"/><path class="cls-5" d="M15.65,15.83h0c-.06,0-.12.07-.11.11h.09s0,0,0,0l.07-.07Z"/><path class="cls-5" d="M16.14,15.87s0,0,0,0H16s-.13,0-.16,0l0,0c.09.05-.05.05-.09,0a.13.13,0,0,0-.12,0s0,0,0,0,.22,0,.29,0,0,0,0,0h.06S16.14,15.88,16.14,15.87Z"/><path class="cls-5" d="M18.32,15.66s0,0,0,0h0Z"/><path class="cls-5" d="M17.82,14.23v0S17.81,14.22,17.82,14.23Z"/><path class="cls-5" d="M17.86,15v0s.09,0,0,0Z"/><path class="cls-5" d="M17.82,14.27v0Z"/><path class="cls-5" d="M17.79,15.71h0s0,0,0,0Z"/><path class="cls-5" d="M16.4,15.51s0-.07,0-.11S16.4,15.48,16.4,15.51Z"/><path class="cls-5" d="M16.79,15.32s.05,0,.05,0l0,0h0v0s0,0,0,0l-.06,0a.22.22,0,0,1,0,.08Z"/><path class="cls-5" d="M16.91,15.8h0s0,0,0,0Z"/><path class="cls-5" d="M16.65,16.13h-.06S16.64,16.15,16.65,16.13Z"/><path class="cls-5" d="M17.77,14.46s0,0,0,0Z"/><path class="cls-5" d="M18.18,14.31l0,0S18.19,14.31,18.18,14.31Z"/><path class="cls-5" d="M18,14.94s0,0,0,0Z"/><path class="cls-5" d="M17.78,14.44c0-.06,0-.06,0,0h0Z"/><path class="cls-5" d="M18.15,15.62a.06.06,0,0,0-.06,0A0,0,0,0,0,18.15,15.62Z"/><path class="cls-5" d="M18,15l0,0S18,15,18,15Z"/><path class="cls-5" d="M17.82,14.55h0Z"/><path class="cls-5" d="M17.51,14.75v0s0-.07,0,0Z"/><path class="cls-5" d="M17,14.68s0,0,0,0Z"/><path class="cls-5" d="M17,15.1s-.05,0-.05,0S17,15.13,17,15.1Z"/><path class="cls-5" d="M16.17,15.88s0,0,0,0l0,0s0,0,0,0Z"/><path class="cls-5" d="M17.15,15.79a.53.53,0,0,0,.12,0s-.15,0-.14,0S17.11,15.8,17.15,15.79Z"/><path class="cls-5" d="M18,13.91s0,0,0,0,.07,0,.07,0,0-.06-.06,0Z"/><path class="cls-5" d="M17.51,14.69h0c.09,0-.13,0-.12,0S17.48,14.69,17.51,14.69Z"/><path class="cls-5" d="M16.83,16.15s0,0,0,0,.11,0,.11,0,0,0-.05,0Z"/><path class="cls-5" d="M18.27,14.66a.06.06,0,0,0,.07,0s0,0,0-.05h0S18.21,14.63,18.27,14.66Z"/><path class="cls-5" d="M17.34,15.75s0,0,0,0S17.33,15.75,17.34,15.75Z"/><path class="cls-5" d="M17.66,15.75a2.53,2.53,0,0,0-.41.06.18.18,0,0,1-.08.07s-.05,0-.05,0-.08,0-.11,0A.07.07,0,0,0,17,16s0,0,0,0,0,0,0,0l0,0s0,0,.08,0a.27.27,0,0,0,.2-.14A1.32,1.32,0,0,0,17.66,15.75Z"/><path class="cls-5" d="M24.58,2.82c0-.08,0-.06,0-.11s0,0,0,0a.12.12,0,0,0,0,.08s0,.06,0,0,0,0,0,0,0,.06,0,.1h0s0,0,0,0A1.15,1.15,0,0,0,24.58,2.82Z"/><path class="cls-5" d="M13.1,14.19h0Z"/><path class="cls-5" d="M17.27,12.48s-.06,0-.06,0,0,0,0,0h0a.23.23,0,0,0,.15,0h0s0,0,0,0A.06.06,0,0,0,17.27,12.48Z"/><path class="cls-5" d="M17.45,12c-.07,0-.11,0-.1.07l0,0,0,0c.07.06,0,0,0,.11s0,.08.08.06,0,0,.05,0a.49.49,0,0,0,0-.12s0-.06,0-.07,0,0,0,0v0Z"/><path class="cls-5" d="M17.34,12.23h0s0,.07,0,0h0c.05,0,0,0,0,0s0,.2,0,.1c0,.05,0,0,0-.06l-.05,0c0-.06,0-.1-.05-.09h0s0,0,0,0Z"/><path class="cls-5" d="M16.45,11.19c-.06,0,0,.2,0,.22s0,.1.07.14v0l.05,0c0-.12.12-.07,0,0s-.07.05-.06.08,0,0,0,0l0,0s0,0,0,0,.13-.1.21,0,.05,0,.08,0h0c0,.05,0,.05,0,0s0,0,0,0,.18.1.16.14.1,0,.12,0,0,0,0,0h0l0,0c.1.05.1-.12,0-.08s0,0-.08-.1l0,0h.05s-.11-.07-.1-.07v0s0,0,0,0-.09-.11-.15-.07,0,.08-.07.07-.05-.1-.05-.15-.1-.1,0-.16,0,0,0-.06,0-.07,0-.07.09,0,.16-.1-.08-.12,0-.36c0,0,0,0,0,0s-.1,0-.09,0-.16-.06-.17-.07h-.05l0,0a1.6,1.6,0,0,0,0,.3.23.23,0,0,0,0,.14s0,.07-.08,0l0-.07Z"/><path class="cls-5" d="M16.09,12.62l-.11.09a.52.52,0,0,0-.11.1s0,0,.09,0a.73.73,0,0,0,.22-.18v-.07l.08,0s0,0,.06-.07.07,0,.07,0,0,0,0,0,0,0,0,0h0a.43.43,0,0,1,0-.05c0-.07,0,0-.05,0v0h0s0,.05,0,0,0,0,0,.06,0,0-.07.09h0s0,0-.07.06l0,0Z"/><path class="cls-5" d="M17.27,12.39v-.08c0-.12,0,0,0,0s-.1.15-.1.21,0,0,0,0S17.26,12.42,17.27,12.39Z"/><path class="cls-5" d="M17.12,12.1s.06-.08.08,0,.05,0,.06,0,0-.08,0-.08-.1-.06-.11,0,0,0,0,.06,0,0,0,.08Z"/><path class="cls-5" d="M16.45,12.11s0,.06,0,.05S16.47,12.13,16.45,12.11Z"/><path class="cls-5" d="M17.4,12.66s0,0,0,0Z"/><path class="cls-5" d="M17,12.46h0s0,0,0,0l0,0a.27.27,0,0,0,.12.1s0,0,0,0,.06,0,0-.1.05-.15.05-.18.06-.08,0-.1S17,12.38,17,12.46Z"/><path class="cls-5" d="M17.62,12.55s-.08,0-.07,0v0h0s-.06,0-.06.07-.09-.05-.1,0,0,.05-.09.13l-.09,0s0-.12-.06-.1-.1.08-.15.1-.12,0-.14.08,0,.05-.07.14.08,0,.1,0l.08-.12L17,13h0s0,0,0,0,0,0,0,0,0,0,0,0,.13,0,.17,0,0,0,0,0,0,.12,0,.17.16.13.21.07,0,0,0,0,.09,0,.12,0l-.06-.12c.09-.22.12-.08.13.06s0-.09,0-.1h0v0h0l0,0a.48.48,0,0,0,0-.12s0-.06,0-.1v-.06h0s0-.12,0-.13v0Z"/><path class="cls-5" d="M17,12s0,.07,0,0Z"/><path class="cls-5" d="M16.87,11.47h-.05s.05.07.06.06v-.07Z"/><path class="cls-5" d="M17,12.4s0-.05,0,0S17,12.4,17,12.4Z"/><path class="cls-5" d="M17.66,12.5s0,0,0,0Z"/><path class="cls-5" d="M17.14,12.65h0s.05,0,0,0Z"/><path class="cls-5" d="M16.81,13.19s0,0,.05,0,.06,0,0,0l0,0S16.81,13.18,16.81,13.19Z"/><path class="cls-5" d="M17.58,13.08a.13.13,0,0,0,0-.06A.07.07,0,0,0,17.58,13.08Z"/><path class="cls-5" d="M16.88,10.23l0,0Z"/><path class="cls-5" d="M17.2,12s0,.05,0,.06Z"/><path class="cls-5" d="M16.89,10.63s0,0,0,0A.08.08,0,0,1,16.89,10.63Z"/><path class="cls-5" d="M16.84,12.13s.06,0,0,0a.22.22,0,0,1,0,.08s-.07.18,0,.16a.38.38,0,0,0,.22-.15v0s0-.06,0-.05a.15.15,0,0,1-.11,0l-.06,0S16.84,12.12,16.84,12.13Z"/><path class="cls-5" d="M17.07,11.87s0,0,0,0Z"/><path class="cls-5" d="M16.79,10.57s0,0,0,0S16.78,10.57,16.79,10.57Z"/><path class="cls-5" d="M17.34,12.15s0,0,0,0S17.37,12.13,17.34,12.15Z"/><path class="cls-5" d="M16.88,11.78s0,0,0,0h0v0a.06.06,0,0,0,.07,0Z"/><path class="cls-5" d="M16.45,12.09h0s.07,0,.07,0-.12-.06-.08,0Z"/><path class="cls-5" d="M17.58,12.48s0-.09,0-.07,0,.05,0,.06Z"/><path class="cls-5" d="M16.78,11.87l-.07,0s-.08,0-.1,0-.07,0,0,.07a.61.61,0,0,1,0,.11c.08.06.1.09.13,0a.08.08,0,0,0,0-.08.1.1,0,0,1,0,0Z"/><path class="cls-5" d="M16.89,12l-.05,0s0,.06.05,0S16.92,11.94,16.89,12Z"/><path class="cls-5" d="M17.3,11.76s.05,0,.07,0,0,0-.06-.06v.06S17.29,11.76,17.3,11.76Z"/><path class="cls-5" d="M16.69,13.28h0s0,0-.06,0v0a.23.23,0,0,0,.12,0Z"/><path class="cls-5" d="M15.4,13.51l-.06,0,0,0,0,0h-.08c-.11.15-.23.33-.48.33-.07,0,0,.13-.11.09a.12.12,0,0,1-.07.14l0,0s0,0,0,0-.09,0-.08,0l0,0s-.11,0-.14,0,0-.07-.1,0l-.05.06s0,.06,0,0-.05,0,0,.06h0l0,0a.22.22,0,0,1,0,.09s0,0,.06,0,0,0,0,0v0s0,0,0,0,0,.11.09.1a.27.27,0,0,1,.12.06v0h0s0,0,0,.06.06.1,0,.13,0,.08.1.08,0,0,.07,0l.07,0a.08.08,0,0,0,.07,0s0,0,0,0v0s0,0,.06,0h.1L15,15s0,0,.07,0,0,0,0,0l.08,0s0,0,.06,0,0,0,0,0,0,0,0,0,0,.12,0,.08.25-.06.29-.17,0-.05,0,0v0h0c0-.05.06-.09.07-.09s0-.07-.05-.09,0,0,0,0l.08-.05s0,0,0,0l.06,0c.05-.09.09-.05.13-.13l0,0s0,0,0,0,0-.2.12-.19v0h0l.15,0c.08-.07,0-.06-.07-.11L16,14.05l0,0s0,0,0,0-.08-.06-.07-.1,0,0,0,0h0s0,0,0,0h0s0,0,0,0h0s0,0,.06,0,.05,0,.05,0-.08-.05-.06-.07,0-.05.06,0,.2,0,.18,0,0,0,0,0-.05-.11,0-.07a.37.37,0,0,0,.11-.05s0,0,0,0a.18.18,0,0,1-.18-.08s-.09.06-.09,0,0,0,0,0,0-.05,0,0-.08,0-.07,0,0,0,0,0,0,0,0,0,0,0,0-.06,0,0,0,0,0-.15-.08,0l0,0h0v0s0,0,0,0l-.14.13c0,.06-.06.09-.08.08l0,0h0s0,0,0,0,0,.07,0,.07S15.4,13.57,15.4,13.51Zm-.76.55h0Z"/><path class="cls-5" d="M12.29,13.22h0S12.32,13.27,12.29,13.22Z"/><path class="cls-5" d="M15.92,13.17h0S15.91,13.19,15.92,13.17Z"/><path class="cls-5" d="M14.65,13.94a.07.07,0,0,0,0,.05C14.66,14.05,14.66,14,14.65,13.94Z"/><path class="cls-5" d="M16.13,13.56h0S16.12,13.57,16.13,13.56Z"/><path class="cls-5" d="M12.39,13.42s0,0,0,0S12.4,13.43,12.39,13.42Z"/><path class="cls-5" d="M5.06,10.06s0,.08,0,.06S5.07,10.07,5.06,10.06Z"/><path class="cls-5" d="M4,8.28H4c0,.08,0,.08,0,0Z"/><path class="cls-5" d="M18.22,7.05h0c0,.06,0,0,0,0Z"/><path class="cls-5" d="M18.1,7.09s0,0,0,0Z"/><path class="cls-5" d="M18.35,7.22s0,0,0,0Z"/><path class="cls-5" d="M18.37,7.16s0,0,0,0,0-.07,0,0Z"/><path class="cls-5" d="M17.81,6.41s0,0,0,0S17.77,6.41,17.81,6.41Z"/><path class="cls-5" d="M17.76,7.14h0s.05,0,0,0Z"/><path class="cls-5" d="M17.78,7.4s.13,0,.1,0Z"/><path class="cls-5" d="M21.22,5.27h0s0,0,0-.06v0s0,0,0-.06a.17.17,0,0,0,0,0s0,0,0,0-.1,0-.15,0h0c-.14,0-.29-.33-.39-.34s0,0,0,0,0,.1,0,.14a.33.33,0,0,1,0,.26s0,.14-.05.11h0c-.09-.07-.1,0,0,0a.1.1,0,0,0,0,.05h0l-.05,0c-.05.06,0,.13.06.16s0,.06,0,.13l0,0,0,0s0,0,.05,0,0,0,0,0,0,0,0,0,0-.06-.06-.06-.06-.15,0-.08,0,0,.07,0,.14,0,.19,0,.11,0,.14.09,0-.07,0-.1a.22.22,0,0,1,.09-.1s.09,0,.13,0,0,0,0,0,.08,0,.07,0Z"/><path class="cls-5" d="M18.6,7.32s-.05,0-.06,0,0,0-.05,0,0,0,0,0,0,0,0,.09v0l0,0c0,.05.07,0,.06,0h0s0,0,0-.08V7.45s.06.06.07.08,0,0,0,0,0,.08-.08.13l0,.07h0c0,.08,0,.06,0,.1l.05,0s0,0,0,0h0v0a.18.18,0,0,1,.05-.07v0h0s0,.13,0,.13,0-.09.1-.08a1.86,1.86,0,0,1,.1-.31s0,0,0-.1h-.07s0,0,0,0,0-.09,0,0h-.05s-.06-.09-.09-.09S18.6,7.3,18.6,7.32Zm-.12.2h0s.05,0,0,0Z"/><path class="cls-5" d="M18.45,7.32s0,0,0,0S18.45,7.31,18.45,7.32Z"/><path class="cls-5" d="M20.62,5.9a.56.56,0,0,1-.07-.16c0-.08,0-.08,0-.1s-.07,0-.08.05.08,0,.1,0a.25.25,0,0,0,0,.07s-.05,0-.07,0,0,0,0-.07-.05,0,0,0-.12.08-.06.15-.05.07,0,.11,0,0,0,0a.38.38,0,0,1,0,.08.67.67,0,0,1-.4.56s-.07.08-.11,0,0-.05,0-.05,0,0,0,0,0,0,0,0,.07,0,0-.07l-.07,0s0,.07,0,.11-.13.15-.13.24a.11.11,0,0,1,0,.07.08.08,0,0,1-.11,0c0-.08-.05,0-.07,0s-.37,0-.44.08-.19.2-.3.19h0s0,0,0,.07h0c0,.07.17,0,.22,0s0,0,.05-.11a.14.14,0,0,0,.21,0c.05,0,.1,0,.12,0s.37,0,.23.05,0,0,0,0h0c0,.07,0,.1.08.13s.12-.06.15-.13l0,0s0,0,0,0h0s0,0,0,0-.05,0,0,0v0s0,0,0,0,0,.07,0,0h0s0,.05,0,.05a.86.86,0,0,0,.21,0s0,0,0,0h0l0,0s0,0,0,0,0,0,0,0,0,.05.07,0,0-.08,0-.07.06,0,.07,0,0,0,0,0V7s0,0,0,0h0s0,0,0,.09v0s0,0,0,0,.11-.1.1-.15.06-.06,0-.09.06-.19.06-.28-.06-.26.06-.27,0,0,0,0,0,0,0-.06l0,0C20.7,6.14,20.66,6,20.62,5.9Z"/><path class="cls-5" d="M19.4,7.3s0-.08,0-.07a.22.22,0,0,1-.13,0c-.09,0,0,.07-.13.12l0,0h0a0,0,0,0,0-.06,0c0,.07-.09.09-.13.13l.09,0c0,.09,0,.14.06.18s0,0,0,0l0-.08s.09-.11.14-.06S19.4,7.32,19.4,7.3Z"/><path class="cls-5" d="M17.62,9.37l0,0S17.58,9.37,17.62,9.37Z"/><path class="cls-5" d="M18.26,7.55s0,0,0,0Z"/><path class="cls-5" d="M18.71,8s0,0,0,0h0S18.71,8,18.71,8Z"/><path class="cls-5" d="M18.32,8.65s0,0,0,0Z"/><path class="cls-5" d="M18.4,8.61l0,0S18.38,8.62,18.4,8.61Z"/><path class="cls-5" d="M18.34,7.5s0,0,0,0Z"/><path class="cls-5" d="M19.14,6.74c-.06,0,0,.07,0,0Z"/><path class="cls-5" d="M19.43,7.24h0s0,0,0,0,0,0-.06,0Z"/><path class="cls-5" d="M18.08,9V9s0,0,0,0,0,0,0,0l0,0,0,0s0,0,0,0-.06,0,0,0,0,0,0,0l0,0Z"/><path class="cls-5" d="M18.27,8.76h0Z"/><path class="cls-5" d="M20.45,4.76s.05,0,0,0Z"/><path class="cls-5" d="M20,6.41s.06-.08,0,0Z"/><path class="cls-5" d="M17.31,9.46s-.06,0,0,0h0Z"/><path class="cls-5" d="M20.2,5.43s0,0,0,0S20.24,5.42,20.2,5.43Z"/><path class="cls-5" d="M18.56,7.64h0c0-.07-.07,0,0,0Z"/><path class="cls-5" d="M17.38,9.43h0s0,0,0,0Z"/><path class="cls-5" d="M18.64,8.13l0,0c-.05,0-.09,0-.05,0Z"/><path class="cls-5" d="M18.39,8.59s0,0,0,0,0-.07,0-.06h0s0,0,0,0Z"/><path class="cls-5" d="M4.71,8.84h0s0,0,0,0h0s0,0,0,0,0,0,0,0S4.72,8.84,4.71,8.84Z"/><path class="cls-5" d="M9.82,10l0,0A.08.08,0,0,0,9.82,10Z"/><path class="cls-5" d="M10.79,11.92a.06.06,0,0,0,0,0S10.79,11.9,10.79,11.92Z"/><path class="cls-5" d="M8.33,12.29s0,0,0,0Z"/><polygon class="cls-5" points="8.33 12.29 8.33 12.29 8.33 12.29 8.33 12.29 8.33 12.29"/><path class="cls-5" d="M10.74,12.33h0c0,.05,0,0,0,0Z"/><path class="cls-5" d="M10.79,12.21s0,0,0,0Z"/><path class="cls-5" d="M10.81,12c0,.06,0,.09,0,.09v0s0,0,0,0,0,.06,0,.07,0,0,0,0a.19.19,0,0,1,0-.15h0v0S10.81,11.92,10.81,12Z"/><path class="cls-5" d="M10.85,11.81s0,0,0,0h0s0,.11,0,.08l0,0,0,0Z"/><path class="cls-5" d="M13.24,14.41v0A0,0,0,0,0,13.24,14.41Z"/><path class="cls-5" d="M13.23,14.56s.06,0,0,0-.08,0,0,0Z"/><path class="cls-5" d="M15.22,15.81c0-.14-.22,0-.3-.07s0-.05,0-.05,0-.08-.1-.06-.19,0-.24-.08-.06.06-.08.09l-.33,0c-.07,0-.06,0-.1-.08a.29.29,0,0,0-.13,0l-.13-.06v0h-.09c-.13,0-.21.1-.08.14l.06,0h0s0,.05,0,.06a.87.87,0,0,1,.28,0,1.28,1.28,0,0,1,.34,0,1.81,1.81,0,0,0,.55.09.44.44,0,0,1,.28,0c.06,0,.08,0,0,0Z"/><path class="cls-5" d="M12.8,14.23s0,0,0,0l0,0S12.78,14.21,12.8,14.23Z"/><path class="cls-5" d="M12.28,14.78l0,0c.06,0,.09,0,.08,0S12.29,14.77,12.28,14.78Z"/><path class="cls-5" d="M15.94,13.68s0,0,0,0Z"/><path class="cls-5" d="M15.05,15.67c.21-.07,0,0-.1-.06a.06.06,0,0,0,0,0s0,0,0,0A.23.23,0,0,0,15.05,15.67Z"/><path class="cls-5" d="M15.3,15.81s-.06,0,0,0,0,.13.15,0S15.38,15.81,15.3,15.81Z"/><path class="cls-5" d="M12,14.11h0S12,14.1,12,14.11Z"/><path class="cls-5" d="M13.71,15s0,0,0,0Z"/><path class="cls-5" d="M13.05,14.5h0S13.06,14.48,13.05,14.5Z"/><path class="cls-5" d="M13.43,14.77c-.08,0,0,.06.05,0s0,0,0,0,.05.05.05.08v0s.13.08.16.05,0,0,0,0v0s0,0,0,0-.06-.27-.13-.17l0,0,0,0h0a0,0,0,0,0,0,0Z"/><path class="cls-5" d="M13.9,14.9v0s0,.06,0,.08l0,0C14,15,14,15.06,14,15S13.94,14.88,13.9,14.9Z"/><path class="cls-5" d="M13,14.24h0S13,14.23,13,14.24Z"/><path class="cls-5" d="M13.1,14.28l0,0A0,0,0,0,0,13.1,14.28Z"/><path class="cls-5" d="M12.45,15c-.06,0,0,.06,0,.05S12.48,15,12.45,15Z"/><path class="cls-5" d="M15.63,15s0,0,0,0S15.63,15,15.63,15Z"/><path class="cls-5" d="M11.88,14.2c-.2-.18,0,.11,0,.09s0,0,0-.06Z"/><path class="cls-5" d="M13.47,15.41s.06.05.06,0,0-.21,0-.31,0,0,0,0,0,0,0-.05,0-.06,0-.12-.13-.07-.19-.07,0,0,0,0h0v0s0,0,0,0,0-.06,0-.07l0,0-.1,0c0-.27-.2-.09-.23-.27v0c.05,0,0,0,0,0s0,0,0,0,0,0,0,0h0c.06,0,0-.08,0-.1s-.28.11-.11,0,0,0,0,0-.15-.1-.23-.17-.09,0-.1-.05-.15-.13-.11,0v0s-.11-.06-.12-.1l-.06,0c0-.14-.23-.19-.33-.28s0,0,0,0,0-.05-.05-.05,0,0,0-.05-.08-.11-.14-.08h0s-.19,0-.19,0a.56.56,0,0,0-.15-.08c-.15.1.37.42.43.51a.17.17,0,0,1,0,.12s.14,0,.17.08l.06,0a2.17,2.17,0,0,0,.07.24s0,0,.07,0a.66.66,0,0,1,.19.22,1.56,1.56,0,0,0,.25.38c.18.17.42.29.6.47,0,0,0,0,0-.08s.12.08.14,0S13.45,15.4,13.47,15.41Z"/><path class="cls-5" d="M14.17,15.78l0,0Z"/><path class="cls-5" d="M12.15,14.59c-.11,0-.05.09,0,.11s.06,0,.08,0Z"/><path class="cls-5" d="M14,13.77s.06,0,.06-.06a.06.06,0,0,0-.08,0s0,0,0,0,.07,0,0,0Z"/><path class="cls-5" d="M13,14.34h0S13,14.31,13,14.34Z"/><path class="cls-5" d="M12.94,14.24h0s0,0,0,0,0,0,0,0v0c.07,0,.11,0,.09,0l0,0s.11.05.08,0Z"/><path class="cls-5" d="M13.12,14.28l0,0A0,0,0,0,0,13.12,14.28Z"/><path class="cls-5" d="M13.19,14.3h0Z"/><path class="cls-5" d="M13.05,14.31l0,0S13,14.33,13.05,14.31Z"/><path class="cls-5" d="M13.3,14.44l0,0Z"/><path class="cls-5" d="M12.67,14.14c.07-.09,0-.13,0,0h0Z"/><path class="cls-5" d="M12.79,14.15c-.1,0,.06.09,0,0Z"/><path class="cls-5" d="M13.15,14.24s0,0,0,0S13.16,14.24,13.15,14.24Z"/><path class="cls-5" d="M13.25,14.22c-.07,0,0,0,0,.08l0,0h0s0,0,0-.06h0Z"/><path class="cls-5" d="M12,14.42l.06.07S12,14.42,12,14.42Z"/><path class="cls-5" d="M13.12,14.26h0S13.13,14.25,13.12,14.26Z"/><path class="cls-5" d="M13.18,14.29s0,0,0,0Z"/><path class="cls-5" d="M12.4,14.88c-.05,0,0,0,0,0h0Z"/><path class="cls-5" d="M12,14.48v0s0,0,0-.06Z"/><path class="cls-5" d="M11.76,14l.05,0S11.79,14,11.76,14Z"/><path class="cls-5" d="M13.31,14.48s-.06,0-.06,0S13.29,14.48,13.31,14.48Z"/><path class="cls-5" d="M11.58,13.92l0,0c-.13-.07-.06,0,0,0s.06,0,.06,0Z"/><path class="cls-5" d="M12.92,12.28v0A0,0,0,0,0,12.92,12.28Z"/><path class="cls-5" d="M11.93,12.5s0,0,0,0Z"/><path class="cls-5" d="M12,12.51h0Z"/><path class="cls-5" d="M11.93,11.91s0,0,0-.05Z"/><path class="cls-5" d="M11.88,12.15v0S11.89,12.15,11.88,12.15Z"/><path class="cls-5" d="M11.77,11.23s0,0,0-.06S11.75,11.22,11.77,11.23Z"/><path class="cls-5" d="M11.88,12.32s.06,0,0,0S11.88,12.33,11.88,12.32Z"/><path class="cls-5" d="M11.94,12V12S12,12,11.94,12Z"/><path class="cls-5" d="M11.94,12.18h0s0,.05,0,0Z"/><path class="cls-5" d="M11,10.7s-.05-.08,0,0h0Z"/><path class="cls-5" d="M12,12.15c0,.07.07,0,0,0Z"/><path class="cls-5" d="M10.83,10.44s0,0,0,0Z"/><path class="cls-5" d="M11.9,12l0,0S11.9,12,11.9,12Z"/><path class="cls-5" d="M10.34,9.79v.12h0V10h0s0,0,0,0S10.36,9.83,10.34,9.79Z"/><path class="cls-5" d="M10.51,9.89s0,0,0-.06S10.51,9.87,10.51,9.89Z"/><path class="cls-5" d="M10.44,9.88s0,.07,0,0v0Z"/><path class="cls-5" d="M4.17,9h0s0,.06,0,0V9a0,0,0,0,0,0,0Z"/><path class="cls-5" d="M4.48,9.34s0,0,0,0Z"/><path class="cls-5" d="M14,10.12h0Z"/><path class="cls-5" d="M13.13,12.43c-.05,0,0,.09,0,.05v-.05Z"/><path class="cls-5" d="M13.57,12.49l.1.08s0,0,0,0,0,0-.05,0,0,0,0,0,0,0,0,0h0s-.1,0-.08,0Z"/><path class="cls-5" d="M13.86,10.2l0,0S13.86,10.22,13.86,10.2Z"/><path class="cls-5" d="M13.7,12.41l0,.05S13.73,12.41,13.7,12.41Z"/><path class="cls-5" d="M13.75,10.27s0,0,0,0S13.75,10.26,13.75,10.27Z"/><path class="cls-5" d="M16.17,9.42s0,0,0,0S16.19,9.46,16.17,9.42Z"/><path class="cls-5" d="M16.43,9.64h0Z"/><path class="cls-5" d="M16.91,8.14l.06,0S16.93,8.14,16.91,8.14Z"/><path class="cls-5" d="M14.46,10.21h0s0,0,0,0h0Z"/><path class="cls-5" d="M16.1,9.42c0,.05,0,0,0,0Z"/><path class="cls-5" d="M16.93,8.22s0,0,0,0Z"/><path class="cls-5" d="M16.46,9.17s0,.05,0,0S16.47,9.19,16.46,9.17Z"/><path class="cls-5" d="M14.5,10.17h0Z"/><path class="cls-5" d="M12,12.93h0a0,0,0,0,0,0,0v0h0Z"/><path class="cls-5" d="M12.77,12.12s0,0,0,0Z"/><path class="cls-5" d="M12.11,13s0,0,0,0S12.13,13,12.11,13Z"/><path class="cls-5" d="M12.24,13.21a.06.06,0,0,0,0,0S12.23,13.19,12.24,13.21Z"/><path class="cls-5" d="M12,12.93v0S12,12.92,12,12.93Z"/><path class="cls-5" d="M12.83,12.21a.08.08,0,0,0,0,0S12.82,12.2,12.83,12.21Z"/><path class="cls-5" d="M8.76,12.87a2.44,2.44,0,0,0-.28-.43l0,0s0,0,0,0,0,0,0,0h0s0,0,0,0,0,0,0,0l0,0s0,0,0,.06a.48.48,0,0,0,0,.12l0,.06s0,0,0,0,0,.37.19.42S8.84,13,8.76,12.87Z"/><path class="cls-5" d="M8.74,12.81a.08.08,0,0,0,0,0S8.75,12.83,8.74,12.81Z"/><path class="cls-5" d="M8.39,12.55s0,0,0,0Z"/><path class="cls-5" d="M23.82.67l.07,0h0a.24.24,0,0,0,.16.09s0-.06,0-.09a.24.24,0,0,0-.23-.1s0,0,0,.08Z"/><path class="cls-5" d="M20.38,3.13c0,.1,0,.18.1.28a2.61,2.61,0,0,1,0,.4c0,.06,0,.12,0,.18a.29.29,0,0,1,.06.17s0,.13,0,.2a.3.3,0,0,0,0,.21s0,0,.06-.05,0-.06,0-.07a0,0,0,0,1,.05,0s.07,0,.09,0,0,0,0,.08,0,0,0,0,0,0,0,0,0-.07,0-.06,0,0,0,0,0,0,0,0,0,0,0,0-.13-.16-.12-.26,0-.24.09-.3,0,0,0,0,0,0,.08,0l.11.11c0,.06,0,0,0,0s-.14-.42-.26-.59a.13.13,0,0,0,0-.06h0l0,0s0-.06-.05-.07a.74.74,0,0,1,0-.12s0-.14,0-.2,0-.05,0,0a.22.22,0,0,0,0,0s0,0,0-.06-.09-.13-.07-.16,0-.06,0-.08,0,0,0,0,0,0,0,.06v0s0,0,0,0h-.05s0,0,0,0l0,0s0-.05-.07,0-.05,0,0,0A.41.41,0,0,1,20.38,3.13Z"/><path class="cls-5" d="M22.33,4.23s0,0,0,0S22.34,4.22,22.33,4.23Z"/><path class="cls-5" d="M21.3,5s0,0-.08.06l0,0v0s0,0,0,0,0,0,0,0l.05-.08S21.31,5,21.3,5Z"/><path class="cls-5" d="M19.67,2.44s0,0,0,0-.06,0-.06,0,0,0-.06.06v0s0,0,0,0h0c.05.09.1,0,.09,0Z"/><path class="cls-5" d="M21.56,4.88s0,0,0,0v0a.15.15,0,0,0-.06,0l-.1.11s0,0,.05,0,0,0,0,0,0-.06.06,0l0,0a.19.19,0,0,1,.14,0S21.62,4.92,21.56,4.88Z"/><path class="cls-5" d="M19.49,2.41h0s.05.07,0,0,0,0,0,0Z"/><path class="cls-5" d="M22.07,4.61s.05-.05.06-.07S22.08,4.58,22.07,4.61Z"/><path class="cls-5" d="M22.22,4.43s0,0,0,0Z"/><path class="cls-5" d="M22.15,4.51s0,0,0,0Z"/><path class="cls-5" d="M22.41,4.06h0s0,.06,0,.06S22.43,4,22.41,4.06Z"/><path class="cls-5" d="M21.87,4.71s-.09.08-.1.12.14-.11.12-.13Z"/><path class="cls-5" d="M21.36,5.19l.05,0S21.36,5.17,21.36,5.19Z"/><path class="cls-5" d="M22.89.39h0l0,0,.1,0s0,0,0-.06S22.9.34,22.87.35A.05.05,0,0,0,22.89.39Z"/><path class="cls-5" d="M22.54,3.85s0,0,0,.06l-.06,0V4h0s0,0,0,0S22.6,3.89,22.54,3.85Z"/><path class="cls-5" d="M23.16,2.36s0,0,0,0,0,.08,0,.08.16,0,.09-.09S23.17,2.36,23.16,2.36Z"/><path class="cls-5" d="M6.25,9.46h0s0,0,0,0h0S6.25,9.47,6.25,9.46Z"/><path class="cls-5" d="M6.2,9.47h0s0,0,0,0Z"/><path class="cls-5" d="M6.28,9.51v0S6.26,9.49,6.28,9.51Z"/><path class="cls-5" d="M3.43,7.49v.06h0c0,.11,0,.06,0,0v0h0V7.49Z"/><path class="cls-5" d="M10.38,9.79l0,.06S10.4,9.81,10.38,9.79Z"/><path class="cls-5" d="M16.89,9.37c0-.1-.08-.11-.15-.07s-.31.42-.12.65c0,0,.06,0,.07,0A2.41,2.41,0,0,0,16.89,9.37Z"/><path class="cls-5" d="M14.1,10.75s.17.1.22.07a.08.08,0,0,1,.07-.05.15.15,0,0,1,.09-.06s0-.12,0-.14.06,0,.06-.1-.05-.08-.06,0-.11,0-.15,0h-.07s0,0,0,0,0,0,0,0h0a.1.1,0,0,1-.05.08s-.09.05-.09.1S14.1,10.72,14.1,10.75Z"/><path class="cls-5" d="M7.14,0l0,0,0,0,0,0,0,0h.08s0,0,0,0h0s0,0,0,0h0s0,0,0,0l0,0L7,.26S7,.32,7,.33l0,0h0s0,0,0,0h0l-.06,0,0,0h0l0,0s0,0,0,0l0,0a0,0,0,0,0,0,0s0,.09-.08.09L6.45.67l0,0L6.34.77l0,0a0,0,0,0,0,0,0h0s0,0,0,0,0,0,0,0,0,0,0,0,0,0,0,0l0,0a.18.18,0,0,1,0,.07s0,0,0,.05,0,0,0,.06-.16.2-.12.23,0,.06,0,.08-.05.12-.06.17a.26.26,0,0,1-.17.1c-.08,0-.16,0-.22.12s0,0,0,0,0,.05-.06.05,0,0,0,0-.09,0-.13.06a.07.07,0,0,1-.06,0s0,0,0,0,0,0,0,0,0,0,0,0,0,0,0,0,0,0-.07,0,0,.06,0,.05v0s.07,0,.1,0,0,0,0,0l0,0v0s0,0,0,0l0,0s0,.07,0,.06,0,0,0,0,0,0,0,.07,0,.14,0,.21,0,0,0,.06,0,0,0,.05l0,0s0,0,0,.06,0,0,0,0H5s0,0,0,0,0,0,0,0v0H5S5,3,5,3,5,3,5,3.05l-.09.11s-.05,0,0,0,0,.07,0,.12,0,.06,0,.1,0,0,0,0,0,0,0,0,0,0,0,0,0,0,0,0,0,0,0,0,0,0-.07,0,0,0,0,0,0,.09,0,.14,0,0,0,0,0,.05,0,.09,0,0,0,0,0,0,0,0,0,.06,0,.07A1.51,1.51,0,0,0,4.52,4s0,0,0,0,0,0,0,0-.09.08-.09.12-.08.06-.08.13v0h0s0,0,0,.06,0,.06,0,0,0,0-.1.07a.27.27,0,0,0,0,.12s0,0,0,.06,0,.08,0,.13,0,0,0,.06,0,0,.06,0a.28.28,0,0,1,0,.11s0,0,0,.07,0,0,0,0a.08.08,0,0,0,0,0h0s0,0,0,0,0,0,0,0L4.36,5s0-.05.06-.06.06,0,.07,0,0,0,0,0,.09.13,0,.25,0,.06.08,0,0,0,0,.05a0,0,0,0,1,0,0l0,0s0,.09-.06.12,0-.08,0-.11l0,0s0-.06,0,0a.44.44,0,0,1-.19,0l0,0h0a0,0,0,0,0,0,0v0s0,0,0,0a.15.15,0,0,1,0,.07h0s0,0,0,0,0,0,0,0,0,0,0,0H4.3s0,0,0,.06.06.1.08.18,0,0,0,0,0,.08.05,0v0a0,0,0,0,1,0,0s0,0,0,.06,0,.1,0,.1a.26.26,0,0,0,0,.15V6s0,0,0-.06l0,0,0-.07a.12.12,0,0,1,.08,0s0,0,0,0,0,.07,0,.09.07,0,0,.09,0,0,0,0h0s0,0,0,0,0,0,0,0,0,0,0,0,0,0,0,0,0,0,0,0,0,.15,0,.13h0v.06s0,0,0,0h0s0,0,0,0,0,0,0,0,.07,0,.06.07a1,1,0,0,0,0,.24s0,.2,0,.16L4.38,7c-.11.09-.16-.08-.24-.11s0-.05,0-.09a.15.15,0,0,0,0-.08s0-.15,0-.15,0,0,0,0h0s0,0,0,0,0-.23.08-.21,0,0,0,0,0,0,0,0,0-.11-.06-.16,0,0-.06,0,0,.1-.07.07a.05.05,0,0,0,0,0c0-.07,0-.06-.06-.07s0,0,0,0,0,0,0,0h0v0s0,0,0,0,0,.07-.05,0,0,0,0-.06,0,0,0,0-.06,0-.09,0,0,0,0,.06,0,0,0,0a.1.1,0,0,1,0,.07v.17c0,.06-.07.18-.09.13s-.05.08-.06,0,0,0,0,0,0,0,0,0,0,0,0,0,0,0,0,0a1,1,0,0,0,0,.23s0,0,0,0,0,.06,0,.06h0s0,0,0,0a0,0,0,0,0,0,0s0,0,0,0a0,0,0,0,0,0,0h0s0,.06,0,.11,0,.09,0,0,0,0,0,0,0,0,0,0v0s0,0,0,0v0h0v0s0,0,0,0h0s0,0,0,0,0,0,0,.06,0,0,0,0h0s0,0,0,0,0,0,0,0l0,0s0,0,0,0v0s0,0,0,0h0s0,0,0,0,0,0,0,0h0s0-.08,0-.1,0,.13,0,.05,0-.1,0-.12a0,0,0,0,0,0,0V7.2a.77.77,0,0,0,0,.1v0h0v.17s0,0,0,0a1.48,1.48,0,0,1,0,.2v0c0,.09,0,.21,0,.31v.28h0v.19s0,.25,0,.33a.68.68,0,0,0,0,.15v.12a1.53,1.53,0,0,1,0,.33,2.64,2.64,0,0,0,0,.29c0,.06,0,.05,0,.06a4.54,4.54,0,0,0,.12.5v.05a.9.9,0,0,1,0,.16v.13s0,0,0,0,0,.17,0,.23a1.25,1.25,0,0,0,0,.19s.06,0,.07,0,0,0,0,0,.07,0,.11,0,0-.07.08,0,0,0,0-.05.17,0,.25-.13l0,0h0v-.06s0-.07.05-.06a.33.33,0,0,1,.17-.07c.1.08,0-.16.12-.13a.09.09,0,0,0,.08,0v0c0-.06,0-.09.07-.09a.08.08,0,0,0,.06,0h0v0s0-.06,0-.07,0-.09,0-.15H5v0s0,0,0-.06.07-.11.09-.18l0-.1c0-.08,0,0-.06-.09s0,0,0-.06S5,9.52,5,9.48a.24.24,0,0,1-.22-.14s0-.06,0-.11V9.16c0-.06,0-.07,0-.13s0,.08,0,.06c0-.17,0-.13,0,0a1.32,1.32,0,0,0-.15.29s0,0,0,0-.08,0-.11,0-.07,0-.09,0v0l0,0s0,0,0,0,0,0,0-.07h0s0-.11,0-.14a.31.31,0,0,1,0-.09s0,0,0,0,0,0,0,0,0,.06,0,.08a.34.34,0,0,0,0,.1s0,0,0,0S4.11,9,4.13,9s0,0,0,0h0v0c0-.05,0,0,0-.05l0,0a.79.79,0,0,0,0-.09s0,0,0,0,0,0,0,0a2.23,2.23,0,0,0,0-.23l0-.08s0,0,0,0H4v0c0-.09,0,0,0,0a0,0,0,0,0,0,0v0s0,0,0,0a.1.1,0,0,0,0,0s0,0,.07.06,0,.1,0,.1a.43.43,0,0,0,.06.24c.05,0,.08.06.12.13s.09.11.15.11.08,0,.11,0,0-.08.1-.07,0,.27.14.28a1.28,1.28,0,0,0,.34.07s.09.08.14,0,0,0,0,0h0s0,0,.06,0l.1,0,.1,0s0,0,.07,0,.1,0,.22,0,.06,0,0,0h0v0c.06.09,0,.09.09.12s0,.19.1.14,0,.09,0,.06l0,0s0,0,0,0h0v0c0,.12.15.22.24.15s0,0,.07,0,0,0,0,.07a.3.3,0,0,1-.22.06c.1.1.2.31.34.33s.25-.07.18-.21h0s0,0,0-.05v0H7s0,0,.1,0h0C7,9.84,7,9.94,7,10h.05C7,10,7,10,7,10a.15.15,0,0,1,0,.06s.05,0,0,.08,0,.16,0,.22,0,0,0,0l0,0h0s0,0,0,0,0,0,0,0h0s0,0,0,0v0s0,0,0,0,0,.06,0,.07,0,0,0,.08a1.77,1.77,0,0,0,.12.41c.07.1,0,0,0,.13s0,.06,0,.05,0,0,0,.05a1.68,1.68,0,0,1,.12.38c.09.17.19.34.27.52s0,.11,0,.1,0,0,0,0,0,.07,0,.08a0,0,0,0,1,0,0l.11.14a.12.12,0,0,0,.1,0c.11-.06,0-.18.2-.18,0,0,.07,0,.06,0s-.08-.07,0-.12,0-.08.07-.08,0-.2,0-.2.17-.33,0-.42c0-.06,0,0,0-.08s-.06-.33,0-.39l.06,0s0,0,0,0h0s0,0,0,0,0-.09.05-.08.17,0,.17-.09,0,0,.1-.1.15-.18.22-.19l.06-.07a.57.57,0,0,1,.11-.14c.07-.06.11-.06.07-.07h0s0,0,0,0,.07,0,.08,0,.08,0,.07,0,.06,0,0-.07l.06,0,0,0,0,0a.21.21,0,0,0,0-.18c0-.1.17-.06.22-.13s0-.06,0-.09h0c.09,0,0,.11.06.15s.05-.06.05,0h0c0-.05,0-.09,0-.13v0s0,0,0,0,0,0,0,.06.09,0,.06,0,0,0,0,0h0c0-.1,0,0,0-.11v0c0,.07,0,0,0,0s0,.05.07.06,0-.11,0-.14l0,0c0,.06,0,.08,0,0s0,0,0,0,0,0,0,0a1,1,0,0,1,0-.12s0,0,0-.09.1,0-.07-.12c.05,0,.05,0,.06,0s0,.05,0,.1.07.06.09.06.13.09.15.13,0,0,0,0a1.4,1.4,0,0,0,.06.28c.09.13,0-.06,0,0s0,.08,0,.06,0,0,.06.05v0s0-.06,0,0,0,.07,0,.09v0s0,0,0,0l.06,0c.06,0,.05,0,.05,0s0,0,0,0,.07,0,0,.07h0s-.05-.05-.07,0,.07.14.1.08v0h0s0,0,0,0,.12.22.11.34-.08.29,0,.28l0,0v0s0,0,0,0,0,.09,0,.07h0s0,0,0,0,0,0,0-.07,0,.08,0,.08v0s0,0,0,0h0s0-.05,0,0,.09-.08.1-.12,0,0,.07,0,0,0,.06,0l0,0s0,0,0,0a.12.12,0,0,0,.11-.13s0,0,.07,0,0,.08,0,.08.11,0,.08.12a2.68,2.68,0,0,1,.05.3c.06.05,0,0,.05.11s0,.21,0,.13v0s0,0,.05.07a.29.29,0,0,1,0,.24s0,0,0,0h0s0,0,0,0,0,0,0,0,0,0,0,0h0s0,0,0,0a.26.26,0,0,0,0,.09s0,.09,0,.09,0,.1,0,.11.05-.07,0,0-.06.14-.06.19v0l0,0a.22.22,0,0,0,0,.08v0l0,0s.06-.06.1,0a.1.1,0,0,1,0,.08c.06,0,.05.06.08.09h0l0,0v.05s.08.06.09.05h0s0,.08,0,.11,0,.11,0,.16.07.13,0,.18,0,0,.06.07.09.09.1.15.29.19.4.28.07,0,.09,0h.08v.05a.17.17,0,0,0,0-.1c-.3-.31,0-.53-.31-.74,0,0,0-.06-.06-.08s-.07,0-.08,0-.11-.16-.18-.11-.1-.08-.12-.07-.06-.07-.09-.08,0,0,0,0,0,.08,0,0-.07-.33-.19-.31-.07,0-.06,0a0,0,0,0,0,0,0s0-.11,0-.11a.15.15,0,0,1,0-.1c0-.14.16-.27.13-.43s-.07-.15.1-.17.1,0,.09.1.17,0,.22.09.08.06.07.08l.11,0s0,.07,0,.07,0,.05.06.07,0,.14,0,.08,0,0,0,.05h0s.11,0,.19,0h0s0,.07.06.07.06,0,0,0-.05.25,0,.23,0,0,0,0,.07,0,.07-.06.22,0,.1-.21l0,0s.08.07.1,0-.13-.14-.13-.14-.14-.07-.08,0h0s0,0,0,0,0,0,0,0h0s-.09-.08-.06-.07,0,0,.09.07.22.06.27.06-.05,0,0-.05,0,0,0,0l0,0h0s0,0,0,0,.54-.24.43-.3,0,0,0,0,0,0,0-.05v0s0,0,0,0,0-.07,0-.07h0s0,0,0-.07a.61.61,0,0,0,0-.13.07.07,0,0,0,0,0,.79.79,0,0,0-.21-.43v0s0,0-.11-.06a2.83,2.83,0,0,1-.25-.24c-.08-.07,0,0,0-.08s-.14-.14-.15-.17,0-.05,0-.11,0-.07,0-.09a.26.26,0,0,1,.11-.12c.07,0,.05-.08.08-.11s0-.07,0-.06.05,0,.1,0,0,0,0,0h0s0,0,0,0,0,0,0,0,0,0,.05-.06l.09-.05s0,0,0,0,0,0,0,0,.05,0,0,0v0l0,0s0,0,0,0l0,.05h0s0,0,0,0,0,0,0,0,.08,0,.1,0,0-.06,0,0l0,0s0,0,0,0,0,0,0,0a.15.15,0,0,0,0,.08c0,.11,0,.26.18.14,0,0-.07-.05,0-.08h0v0s.05-.05.05-.09h0l.2-.07c.07,0,.09,0,.09,0s0,0,0,0,0,0,0,0h0s0,0,0,0S15,10,15,10v0s0,0,0,0l0,0v0s0,0,0,0l0,0s0,0,0,0V9.87s0-.08,0-.09,0,0,0,0h0s0,0,0,0h0s0,0,0,0h0s0,.08,0,.07,0,.06.09,0h0l0,0s0,0,0,0,0,0,0,0l0,0c.06.1,0,0,.09,0s0,0,0,.06h0s0,0,0,0l0,0s0,0,0,0l.05,0s0-.05,0-.06,0,0,.07,0h0s.1,0,.12,0,0-.06,0-.06,0,0,0,0h.06c0-.09,0,0,.09-.06s0-.06,0-.06a.07.07,0,0,0,.08,0l.05,0,0,0s-.08,0,0,0,0,0,.05,0,0,0,.06,0,0,0,.05,0,0,0,0-.05,0,0,0,0,0-.06.09-.05l0,0h0s0-.07,0-.07h0l.05,0s0-.13,0-.13-.12,0,0,0,.06-.08.13-.09,0,0,0,0V9h0s0,0,0,0v0s.05,0,.06,0,.06,0,.05,0,0,0,0,0,0,0,0,0v0c.05,0,0,0,.07-.05v0s0-.06,0-.08,0,0,0-.08.08,0,.1,0,0,0,0,0l0,0c0,.09.07,0,.06,0s0,0-.05,0h0l.06,0c-.07,0,0,0,0,0s-.05,0,0-.06h0s0,0,0,0a.07.07,0,0,0,0-.05h0s0,0,0,0h0s.11-.07,0-.09-.08-.1-.13-.09-.1.07-.12,0-.06,0-.07,0,.05,0,.11,0A.39.39,0,0,1,16.83,8c.18,0-.11-.22-.18-.24s0,0,0,0h0l0,0s-.09,0,0,0,.11,0,.15,0h.1s.07,0,.07,0-.08,0-.1-.06,0-.08-.05-.08-.05,0-.05-.07a1,1,0,0,0-.1-.26.16.16,0,0,0-.13-.14s-.07-.08-.1-.07,0,0,0,0,0,0,0,0,.05-.12.11-.13.06-.06.07-.07,0,0,0,0,0-.06,0,0a0,0,0,0,1,0,0s.05,0,.05,0,0,0,0-.06l0,0s0,0,0,0l.16-.07c.06,0,.11,0,.11,0H17s0,0,0,0v0h0s0-.07,0-.07H17c-.06,0-.05,0-.12,0s-.16-.13-.25-.08-.06,0,0,0-.13.14-.23.08,0-.09,0-.13-.05-.11-.09-.08,0,0,0,0S15.9,6.1,16,6s.06,0,.1,0a.7.7,0,0,0,.14,0l.05,0c0-.18.27-.16.34-.32s.12,0,.18,0h0l0,0h0c0,.05.05,0,0,.08a.34.34,0,0,1-.15.14s0,0,0,0,.12,0,.07.06,0,0,0,0-.05,0-.07,0,.1,0,.2-.08a.57.57,0,0,1,.38-.11s.05-.09,0,0,0,0,0,0,0,.06,0,0h.07l0,0s0,0,0,.06a.39.39,0,0,0,0,.14s.09,0,.07,0-.1,0-.12.09-.05,0,0,.06,0,0,.05,0,0,0,.05,0,0,0,0,0,0,0,0,0,.05,0,.06,0h0s.05,0,.07,0,.08,0,.14,0h0v0s0,0,0,0v0h0s.07.08.05.11,0,0,0,0,0,0,0,0,0,0,0,0,0,0,0,0l0,0s0,0,0,0h0v0h0c0,.06,0,0,0,0s0,.05,0,.06a.11.11,0,0,0,0,.08c0,.06.06.06,0,.09s0,0,0,0,0,0,0,.06v0c.07,0,0,0,0,0V7h0c0,.06,0,0,0,.06h0s0,0,0,0h0s0,0,0,0,0,0,0,0h0s0,0,0,0l0,0s0,0,.06,0,.12-.07.12,0,0,.06,0,0,0,0,0,0,0,0,0,0,0,0,0,0V7s.07,0,.08,0h0s0,0,0,0l0,0h.07s0,0,0,0l0,0,0-.07c0-.18,0-.08,0-.26s-.17-.4-.21-.47A.38.38,0,0,0,18,6s0,0,0,0,0,0,0-.07.12-.07.15-.09a1,1,0,0,0,.28-.21v0s0,0,0,0,0-.22.13-.26,0,0,0,0,0,0,0,0,0,0,0,0h.08s0,0,0,0l.07-.12s0,0,0,0,.07,0,.05.09h0s0,0,0,0a.08.08,0,0,0,.07,0s0,0,.07,0c.18,0,.4-.13.46-.32A1.72,1.72,0,0,0,20,4.29c.09-.14.22-.24.26-.4s0-.06,0-.1a.28.28,0,0,0,0-.08s0,0,0,0v0s0,0,0,0,0-.14,0-.18,0-.1,0-.11,0,0,0,0,0,0,0,0,.11-.07,0-.15v0h0s0-.07,0-.09-.08-.06,0,0l0,0s-.06-.08-.09-.1a.61.61,0,0,1-.2-.19s-.12,0-.13,0-.07,0-.06.07a.12.12,0,0,1,0,.09s0,0,0,0,.06-.06,0-.08-.06,0-.07,0a.12.12,0,0,1-.14,0s.06,0,.06,0,0,0,0,0,0,0,0,0-.1,0-.07,0-.16.12-.06,0a.11.11,0,0,1,0,0h0s0,0,0,0v0c-.07-.07-.25,0-.3-.09s.07-.06.1-.07.22-.12.32-.19l.05-.06A.53.53,0,0,1,20,1.87c0-.13.16-.19.27-.25s.17,0,.24,0a1.18,1.18,0,0,0,.25,0s0,0,0,0,.08.05.09,0,0-.07,0-.07.07.05.08,0,0,0,.07.06h0c.05,0,.1,0,.16,0s0,0,0,0-.07,0,0-.07l0,0c0-.1.19,0,.23.07s0,0,.07,0,.06,0,.08.06,0,0,0,0,.05,0,0,0l-.09,0s0,.07.06.06.07,0,.16.05,0,0,0,0,0,0,0,0l.09.06s0,0,0,0h0s.06,0,.06,0-.06,0-.09-.06,0,0,0,0,0,0,0,0h0c.05,0,0,0,0-.07s0,0,0,0,.09-.09.13-.13a0,0,0,0,0,0,0s.07,0,.06-.06,0-.05,0-.05a.43.43,0,0,1,.22,0s0,0,.06,0,0,0,.07,0,0,0,.05,0v0h0s0,0,0,0a0,0,0,0,0,0,0s0,0,0,0v0c0,.05.06,0,.06.06a0,0,0,0,0,0,0s0,0,0,0h0s0,0,0,0l.1-.06s0-.06.05,0h0s0,0,0,0,0,0,0,0,0,0,0,0l0,0c0-.05,0-.08,0-.13s0,0,0,0,.07,0,.11,0a.19.19,0,0,0,.07.06c.07,0,0,0,0,0s0,0,0,0S23,1.67,23,1.7s0,.06,0,.11,0,0,0,0,0,.06,0,.08,0,0,0,0-.11.05-.16.08-.18.14-.2.29h0c-.06,0-.07.08-.11.07s-.06,0-.06,0-.11,0-.06,0v0a.15.15,0,0,1,0,0,.05.05,0,0,1,0,0c-.17.11,0,.72.17,1,0,0,0,.07,0,.15a.3.3,0,0,0,.05.16c.06,0,.14-.16.18-.22s0-.06,0-.08,0,0,0-.07v0s0,0,0,0,0,0,0,0a.18.18,0,0,1,.1,0s.07.08,0,0h0s0,0,0,0,0,0,0,0,0,0,0-.08A.12.12,0,0,1,23,3.19c0,.06.13,0,.09,0s-.08-.21,0-.25,0,0,0,0,0,0,0,0h0s0,0,0,0,0,0,0,0a0,0,0,0,0,0,0s0,0,.06,0,0-.08,0-.12,0,0-.07-.13.07-.08,0-.12-.06,0-.07,0,0,0,0,0a.11.11,0,0,1,0-.19s0,0,0-.06,0,0,0,0,0,0,0,0,0,0,0-.06V2.17h0s0,0,0,0,0,0,0,0,0,0,0,0,.08.13.09,0a0,0,0,0,0,0,0l.11,0h0s0,0,0,0,0,.12.05,0,.13,0,.21,0,0,0,.05.07,0,0,0,.05,0,0,.07,0h0s0,0,0,0,.06,0,.05,0,0,0,0,0,0,0,0,0v0s.06,0,0-.05.05,0,.06,0,0,0,0,0,0,0,0,0l0,0s0,0,0,0,.05,0,.05,0h.09v0h0s0,0,0,0h0a.14.14,0,0,0,.05.08l.08.12s0,0,0,0a.25.25,0,0,0,0-.07s0,0,0-.1,0,0,0,0h0s0,0,0,0,0,0,0,0,0,0,0,0,0,0,0,0h0l0-.05s0,0,0,0,0,0,0,0l0-.06s0-.11-.06-.1,0,0,0,0h0s0,0,0-.08,0,.05.05.05,0,0,0,0,0-.07,0-.08,0,0,0,0,0,0,0,0,0,0,0,0,.11.09.15.11,0,0,0,0h0v0s0,0,0,0h0s0,0,0,0v0h0s0,0,0,0l0-.06s0-.1,0-.07a0,0,0,0,0,0,0,.08.08,0,0,0,0,0s0,0,0,0,0,0,0,0a0,0,0,0,1,0,0h0a.17.17,0,0,0,0,.05.05.05,0,0,1,0,0s0,0,0,0a.46.46,0,0,1,.13.2s0,0,0,0,0,.09.06.16,0,.17,0,.12v.06s0,0,0,0v0s0,0,0,0v0s0,0,0-.06h0s0,.05,0,0v0s0,0,0,0h0s0,0,0-.06,0,0,0,0,0,0,0,0,.05.16,0,.1,0,0,0-.06h0a.49.49,0,0,0,0,.07h0s0,0,0,0,0,0,0-.08A1.55,1.55,0,0,0,24.5,2l0-.05V2s0-.06,0,0,0,0,0,0,0,0,0,0a.11.11,0,0,0,0,0l0,0h0v0h0v0h0v0s0,0,0,.05,0,0,0,0V2c0-.06,0,0,0,0h0v0l0,0a.45.45,0,0,0,0-.06.22.22,0,0,0,0-.08c0-.05,0,0,0-.06a.94.94,0,0,0-.16-.28s0,0,0,0-.05-.08,0-.05,0,0,0,0a.49.49,0,0,1-.08-.13l0,0v0a1.77,1.77,0,0,1-.18-.22,1.29,1.29,0,0,1-.21-.2,1.1,1.1,0,0,1-.23-.13s0,0,0,0h0a1.08,1.08,0,0,0-.29-.2l0,0a.08.08,0,0,0,0,0s0,0,0,0,.05,0,.09.09a.17.17,0,0,1,0,.06h0s0,0,0,0h0c-.13,0-.06-.06-.16-.12S23,.47,22.9.41s-.06,0-.08,0a3.55,3.55,0,0,0-.54-.21A.87.87,0,0,1,22,0a0,0,0,0,1,0,0s-.05,0,0,0M8.21.06l0,0a.67.67,0,0,0-.12.06L8,.18s0,0,0,0a.05.05,0,0,1,0,0l-.06,0h0a.3.3,0,0,0-.13,0,.56.56,0,0,1-.13,0s-.05,0-.06,0,0,0,0,0l.13,0s0,0,.06,0h0s0,0,0,0,0,0,0,0A.76.76,0,0,0,7.93.1L8,.06H8L8,0l0,0M4.6,5.81h0s0,0,0,0Zm.15,3.41h0Zm-.51,0Zm-.17-1s0,0,0,0Zm6.39,1.43h0v0s0,0,0,0Zm.06.1s0-.05,0-.06l0,0a.1.1,0,0,1,0,0Zm6.22-1.31h0Zm-.18.35s0,0,0,0S16.55,8.79,16.56,8.79Zm-.08-1.13v0s0,0,0,0-.08,0,0-.05S16.46,7.62,16.48,7.66Z"/><path class="cls-5" d="M10.6,10s0,0,0,.06S10.6,10,10.6,10Z"/><path class="cls-5" d="M16,13.65s0,0,0,0Z"/><path class="cls-5" d="M16,13.79l0,0Z"/><path class="cls-5" d="M15.93,13.83a.05.05,0,0,0,0,0A.05.05,0,0,0,15.93,13.83Z"/><path class="cls-5" d="M14.32,14.65s0,0-.05,0h0S14.3,14.68,14.32,14.65Z"/><path class="cls-5" d="M15.86,13.78h0Z"/><path class="cls-5" d="M15.57,15.13s0,0,0,0h0s0-.11,0-.13h0a.12.12,0,0,0,0,.08S15.57,15.12,15.57,15.13Z"/><path class="cls-5" d="M3.65,10.48h0Z"/><path class="cls-5" d="M3.65,10.51v0Z"/><path class="cls-5" d="M3.65,10.51v0S3.66,10.48,3.65,10.51Z"/><path class="cls-5" d="M21.68,18.8s0,0,0,0,0,0-.06,0h.05Z"/><path class="cls-5" d="M23.43,17.79h0c-.12.11-.17.08-.21.06s0-.06,0-.07,0,0,0,0,0,0,0,0,0,0,0,0-.05,0-.07,0h0s0,0,0,0,0,0,0,0v0s0,0,0,0,0-.06,0,0,0,0,0,0,0,0,0,0,0,0,0,0,0,0,0,0,0,0,0,0,0,0,0,0v0h0s0,0,0,0,0,0,0,0,0,.09,0,.05,0,0,0,0,0,0,0,0h0s0,0,0,0a0,0,0,0,0,0,0s0,0,0,0,0,.06,0,0,0,0,0,.05,0,.05-.06.11a.44.44,0,0,1-.1.08s0,0,0,0,.17,0,0,.12l-.06,0s0,0,0,0,0,0,0,0,.2-.13.25-.17.05-.07,0-.08.09-.07.12-.06,0,0,0,0v0s0,0,0-.05,0-.06.06-.1S23.45,17.79,23.43,17.79Z"/><path class="cls-5" d="M22.82,18.27h0l0,0h0s-.09,0-.09,0h0s0,0,0,0l-.05,0c-.06,0-.07.08-.15.11s0,0,0,0-.41.17-.59.24l-.05,0-.05,0h-.12l0,0h0s0,0,0,0h-.06s0,0,0,0,0,0,0,0h0s.09,0,.12,0h.08s.1,0,.15,0l.14,0h0l.12-.07,0,0a.84.84,0,0,1,.19-.07h.1s0,0,0,0,0,0,0,0,.18-.1.26-.16,0,0,0,0v0h0Z"/><path class="cls-5" d="M18.4,14.34h0s0,0,0,0,.13,0,.09-.07a.16.16,0,0,0-.12,0S18.33,14.36,18.4,14.34Zm.07,0s0,0,0,0S18.45,14.34,18.47,14.35Z"/><path class="cls-5" d="M19.75,15.41c0-.05-.1,0-.17,0l0,0,0,0s0,.06,0,.05a.21.21,0,0,0,.18-.06s0,0,0,0h0s0,0,0,0Z"/><path class="cls-5" d="M18.93,15.39l0,0s0-.13,0-.11,0,0,0,.07Z"/><path class="cls-5" d="M18.76,15.22s0,0,0,.06Z"/><path class="cls-5" d="M18.79,15.16s0,0,0,.05Z"/><path class="cls-5" d="M18.53,14.46v0c-.06.06,0,.07.09.06s0,0,0,0,0,.07,0,.06.05,0,.1,0a.19.19,0,0,0,.13,0s.13-.05.1,0,0,0,0,0,0,0,0,0,0,0,0,0,0,0,0,0,0,0,0,0h0s0,0,0,0-.09.07-.14.07,0,0-.06,0,0,0,0,.06.09,0,0,.08l0,0s0,.07.06.06.09-.11.1-.12,0-.06,0,0,0,0,0,0,0,.05,0,0,0,0,0,0h.08s0,0,0,0,.42.12.48.16.07,0,.05.09h0s0,0,0,0,0,0,0,0v.07l0,0s0,0,0,0,0,0,0,0,0,0,0,0h0s0,0,.05.05,0,.06,0,.08,0,0,0,0,.05,0,0,0,0,0,0,0,0,0,.07,0l.06,0s0,0,0,0,0,.05,0,.06l.1.09h0s.22,0,.26,0,.17-.14,0-.15,0,0,0,0,.06,0,.09,0,.05,0,0,0h.05v0s0-.07,0-.06,0,0,.09,0,0,0,0,0,0,0,0,0h.07s.06,0,.06,0,.09,0,.11,0,0,.1.07.12h0s0,.05,0,.05h0s0,.08.08.06.23-.05.29,0,0,0,0,0,0-.06,0-.06,0,0,0,0-.18,0-.1-.05h-.07s0,0,0-.07,0,0-.07,0-.05-.05-.07-.08v0c0-.06-.11-.06-.12-.11s.16,0,.13-.18l0,0a.19.19,0,0,1-.15,0c-.22,0,0,0-.14-.16s-.11,0-.12-.07h0c-.29-.07-.42-.08-.57-.13a1.1,1.1,0,0,1-.44-.11s-.15,0-.15.08v0h0s-.1.06-.13,0a.41.41,0,0,0-.12.14l0,0h0c0,.05-.12.05-.14,0s0-.06,0-.05,0-.06,0-.07,0,0,0,0,0,.06,0,0-.06-.12,0-.19,0-.08,0-.12,0,0-.08,0-.19-.1-.33,0-.08,0-.09,0Zm1.76,1s0,0,0,0S20.3,15.42,20.29,15.44Z"/><path class="cls-5" d="M19.06,15.26s0,0,0-.07,0-.06-.05,0l0,0s-.05,0,0,0,0,0,0,0l0,0s.05,0,.07,0A.15.15,0,0,1,19.06,15.26Z"/><path class="cls-5" d="M18.39,14.38h0Z"/><path class="cls-5" d="M19.08,14.59s0,0,0,0Z"/><path class="cls-5" d="M19.28,14.33l0,0S19.3,14.34,19.28,14.33Z"/><path class="cls-5" d="M18.7,15.25s0,0,0,0S18.69,15.24,18.7,15.25Z"/><path class="cls-5" d="M19.37,14.49c-.13,0,.15.06.14,0Z"/><path class="cls-5" d="M18.88,15l0,0S18.86,15,18.88,15Z"/><path class="cls-5" d="M19.19,14.4c-.05,0,0,0,0,0Z"/><path class="cls-5" d="M19.25,14.48h0Z"/><path class="cls-5" d="M19,14.58l0,0S19,14.57,19,14.58Z"/><path class="cls-5" d="M19.7,15.54h0a0,0,0,0,0-.07,0S19.68,15.55,19.7,15.54Z"/><path class="cls-5" d="M19.36,14.42h.05s0,0,0,0-.07-.09-.08,0Z"/><path class="cls-5" d="M18.42,14.45s0,.05,0,.08S18.51,14.42,18.42,14.45Z"/><path class="cls-5" d="M18.38,14.44s0,0,0,0h0Z"/><path class="cls-5" d="M22.74,14.93s0,0,0,0,0,0-.07,0,0,0-.07,0,0,0,0,0h0A.22.22,0,0,0,22.74,14.93Z"/><path class="cls-5" d="M22.48,14.94s-.06,0-.06.06l0,0s0,0,0,0v0s0,0,0,0S22.49,14.94,22.48,14.94Z"/><path class="cls-5" d="M22.92,15.13h-.07s0,0,0,0,0,0,.06,0,0,0,0,0S22.93,15.12,22.92,15.13Z"/><path class="cls-5" d="M22.41,15v0S22.42,15,22.41,15Z"/><path class="cls-5" d="M22.88,15h0a.51.51,0,0,0,0-.13s0,0,0,0v.06S22.85,15,22.88,15Z"/><path class="cls-5" d="M22.35,15s0,0,0,0Z"/><path class="cls-5" d="M22.44,15.05h0S22.45,15,22.44,15.05Z"/><path class="cls-5" d="M22.44,15h0s0,.05,0,0Z"/><path class="cls-5" d="M22.49,14.84h0s0,0,0,0-.07-.06-.07,0,0,0,0,0l0,0S22.5,14.86,22.49,14.84Z"/><path class="cls-5" d="M22.58,14.84h0Z"/><path class="cls-5" d="M22.8,15.07h0s0,0-.06,0,0,0-.05,0,.05,0,.08,0A0,0,0,0,0,22.8,15.07Z"/><path class="cls-5" d="M22.88,15a.09.09,0,0,0,0,.05A.07.07,0,0,0,22.88,15Z"/><path class="cls-5" d="M22.71,14.92v0S22.72,14.92,22.71,14.92Z"/><path class="cls-5" d="M22.58,14.85h0Z"/><path class="cls-5" d="M22.43,14.94s0,0,0,0a.05.05,0,0,0,.05,0Z"/><path class="cls-5" d="M22.28,14.85v0S22.28,14.85,22.28,14.85Z"/><path class="cls-5" d="M22.76,15s0,0,0,0Z"/><path class="cls-5" d="M22.4,15h0S22.41,15,22.4,15Z"/><path class="cls-5" d="M22.74,15h0S22.75,15,22.74,15Z"/><path class="cls-5" d="M22.51,15s0,0,0,0S22.53,15,22.51,15Z"/><path class="cls-5" d="M22.39,14.92s0,0,0,0Z"/><path class="cls-5" d="M22.68,15.36s0,0,0,0,0,0,0,0Z"/><path class="cls-5" d="M19.23,16.44s0,0,0,0l0,0s0,0,.05-.05h0s0,0,0,0l0,0,0,0S19.2,16.45,19.23,16.44Z"/><path class="cls-5" d="M19.22,16.06l0,0S19.22,16.07,19.22,16.06Z"/><path class="cls-5" d="M20.2,15.74s0,0,0,0Z"/><path class="cls-5" d="M20.54,16.75s0,0,0,0S20.55,16.74,20.54,16.75Z"/><path class="cls-5" d="M19.65,18.69s.05,0,0,0Z"/><path class="cls-5" d="M18.55,16.07s0,0,0,0S18.57,16.07,18.55,16.07Z"/><path class="cls-5" d="M18.53,18.62h-.05s-.12,0-.16,0,0,0,.08,0h.13Z"/><path class="cls-5" d="M21,17.1v0S21,17.11,21,17.1Z"/><path class="cls-5" d="M19.68,18.68h0s0,0-.07,0h.05Z"/><path class="cls-5" d="M19.19,18.74h0Z"/><path class="cls-5" d="M19.55,18.74s.15,0,0,0l-.16,0s0,0,0,0H19.3a1,1,0,0,0-.17,0s0,0,0,0h0s0,0,0,0h.28s0,0,0,0h0l0,0h.09Zm0,0h0A0,0,0,0,1,19.53,18.75Z"/><path class="cls-5" d="M18.19,16.2s.08,0,.14,0,0-.05,0-.07,0,0,0,0l-.12,0s0,0,0,0Z"/><path class="cls-5" d="M21.17,17.41s0,0,0,0l0,0s0-.05,0-.05a.23.23,0,0,0-.08.09S21.16,17.41,21.17,17.41Z"/><path class="cls-5" d="M17,16.82h0S17,16.83,17,16.82Z"/><path class="cls-5" d="M19.11,16.36s0,0,0,0Z"/><path class="cls-5" d="M19.54,16.78s0,0,0,0S19.55,16.77,19.54,16.78Z"/><path class="cls-5" d="M20.19,15.79a0,0,0,0,1,0,0S20.2,15.8,20.19,15.79Z"/><path class="cls-5" d="M21.14,17.59s0,0,0,0,0,0,0,0Z"/><path class="cls-5" d="M20.87,16.9v0S20.87,16.91,20.87,16.9Z"/><path class="cls-5" d="M19.11,16.65l0,0Z"/><path class="cls-5" d="M19.11,16.41s0-.05,0,0Z"/><path class="cls-5" d="M19.19,16.63v0A0,0,0,0,0,19.19,16.63Z"/><path class="cls-5" d="M19.36,18.65h0Z"/><path class="cls-5" d="M20.21,15.74s0,0,0,0Z"/><path class="cls-5" d="M20.92,17.11h0A0,0,0,0,0,20.92,17.11Z"/><path class="cls-5" d="M19.3,18.79h0Z"/><path class="cls-5" d="M19.63,18.69h0Z"/><path class="cls-5" d="M19.16,16.15h0Z"/><path class="cls-5" d="M21,17.26l0,0h0S21,17.25,21,17.26Z"/><path class="cls-5" d="M19.29,16l-.06.07A.2.2,0,0,0,19.29,16Z"/><path class="cls-5" d="M18.12,16.22c.05,0,.08,0,.05,0s0,0,0,0,0,0,0,0,0,0,0,0h0Z"/><path class="cls-5" d="M19.59,16.7c.07,0-.05,0-.06,0s0,0,0,0S19.58,16.68,19.59,16.7Z"/><path class="cls-5" d="M19.14,18.72h0Z"/><path class="cls-5" d="M19.19,18.74h0Z"/><path class="cls-5" d="M19.46,18.77h0Z"/><path class="cls-5" d="M20.48,15.48s-.05,0-.06,0Z"/><path class="cls-5" d="M21.59,15.26s0,0,0,0v0S21.58,15.25,21.59,15.26Z"/><path class="cls-5" d="M21.75,15.5h0Z"/><path class="cls-5" d="M21.44,15.38v0a.05.05,0,0,0,.05,0S21.45,15.35,21.44,15.38Z"/><path class="cls-5" d="M21.83,15.6s0,0,0,0S21.82,15.59,21.83,15.6Z"/><path class="cls-5" d="M21.73,14.34c.06,0,.23.07.22.19s0,.07.06,0v0s0,0,0,0S21.84,14.32,21.73,14.34Z"/><path class="cls-5" d="M21.92,15.56h0S21.91,15.54,21.92,15.56Z"/><path class="cls-5" d="M21.47,15.42h0c.06,0,.07,0,.07,0s-.06,0-.06,0a.07.07,0,0,1,0,.05Z"/><path class="cls-5" d="M21.34,14.9h0s0,0,.06,0a.1.1,0,0,0,.12,0,.46.46,0,0,0,.22-.15s0,0,.08,0,0,0,0-.06,0,0,0,0,.05-.07.05-.06,0,0-.05,0l0,0h0s0,0-.08,0,0,.12-.08.15l-.1.09s0,0,0,0l0,0s0,0,0-.06,0,0,0,0h0s0,0-.05.05a.12.12,0,0,1-.08,0s0,0,0,0h0s0,0,0,.05Z"/><path class="cls-5" d="M22.19,14.6h0v0s0,0,0,0Z"/><path class="cls-5" d="M21.49,15.54v0S21.51,15.54,21.49,15.54Z"/><path class="cls-5" d="M22.3,14.75s0,0,0,0,0,0,0,0,0,0-.06,0v.05l0,.06v0c.05,0,.1,0,.07-.07Z"/><path class="cls-5" d="M21.89,14.3v0S21.9,14.3,21.89,14.3Z"/><path class="cls-5" d="M21.1,14.84h0S21.12,14.83,21.1,14.84Z"/><path class="cls-5" d="M22,14.34s0,0,0,0S22,14.34,22,14.34Z"/><path class="cls-5" d="M21,14.76s0,0,0,0S21,14.77,21,14.76Z"/><path class="cls-5" d="M21.59,14.15v0S21.6,14.15,21.59,14.15Z"/><path class="cls-5" d="M20.44,15.43h0S20.45,15.43,20.44,15.43Z"/><path class="cls-5" d="M21.23,14.91s0-.05,0-.05A.08.08,0,0,0,21.23,14.91Z"/><path class="cls-5" d="M21.83,15.28s0,0,0,0h0C21.75,15.26,21.82,15.28,21.83,15.28Z"/><path class="cls-5" d="M21.19,14.35h0c.06-.06,0,0,0,0h0s0,0,0,0Z"/><path class="cls-5" d="M21.68,14.31c-.07,0-.08,0,0,0Z"/><path class="cls-5" d="M21.58,15.44s0,0,0,0h0s0,0,0,0h0a.09.09,0,0,0,.05,0Z"/><path class="cls-5" d="M21.51,15.56s0,0,0,0Z"/><path class="cls-5" d="M18.82,18.69s0,0,.07,0h.16a.59.59,0,0,0,.21,0l.06,0h0l.07,0h0l0,0h0s.06,0,.08,0h0s0,0,0,0,0,0,0,0h0s.08,0,.15-.05a1.2,1.2,0,0,1,.32-.06l.08,0h0s0,0,0,0l.22-.14,0,0h0l0,0,.08-.05s0,0,0,0l.14-.08.09-.05.05,0c.1-.06.11-.13.2-.2s.15-.16.12-.22a.06.06,0,0,1,0,0h0s0-.08.05-.1,0,0,0,0v0s0,0,0,0,0,0,0-.05-.05,0,0,0,0,0,0,0H21a.05.05,0,0,0-.05,0s0-.05,0-.07,0-.05,0-.05h0s0,0,0,0h0l0,0s0,.05,0,0,0,0,0-.06,0-.09,0-.1-.06,0,0-.06,0,0,0,0,0,0,0,0l-.06,0s0,0,0,0,0,0,0,0h0s-.07,0-.07,0a.06.06,0,0,1,0,0s0-.1,0-.16a0,0,0,0,1,0-.05s0,0,0,0,0-.05,0-.08,0-.06,0-.09,0,0,0,0a0,0,0,0,0,0,0l-.05,0h0s0,0,0,0h0l0,0c-.11.07,0-.12-.06-.16s0,0,0-.07,0,0,0,0,0,0,0,0,0-.08,0-.11,0,0,0-.06-.12.09-.12.11a.38.38,0,0,1-.09.15v0s.05,0,0,0,0,0,0,0a.08.08,0,0,0,0,.07s0,0,0,0a.17.17,0,0,0,0,.07c0,.13-.14.55-.36.57s-.11-.06-.17-.08l-.13,0h0l-.09,0c-.06,0,0,0-.09,0-.15-.13-.28-.05-.06-.29,0,0,0,0,0,0s0,0,0-.06h0c.05,0,0,0,.05,0s0-.05.05-.05,0,0,0,0l0-.06c.06,0,0,0,0-.06s0,0-.06,0v0s0,0,0,0,0,0,0,0l0,0s-.05,0,0,0,0,0,0,0,0,0,0,0l0,0c-.05,0,0,0-.07,0h-.08s-.08,0-.07,0-.05,0-.08,0h0s0,0-.06,0,0,0,0,0-.05,0-.09,0,0,0,0,0h0s0,0,0,0h-.05s0,0,0,0,0,0,0,0,.05,0,.07,0,0,0,0,.05v0s0,0-.05,0h0s0,0-.06,0-.13,0-.13,0,0,0,0,0,0,0,0,0,0,0,0,0v0s0,0,0,0,0,0,0,0h0s-.09.06-.09.07,0,0,0,.05,0,0,0,0a.05.05,0,0,0,0,0v0h0l-.06,0s0,.06,0,.08-.07,0,0,.05,0,0-.06,0,0,0,0,.06v0s0,0,0,0h0s-.07,0-.09,0,0,0,0,0,0,0,0,0l0,0s0,0,0,0,0,0,0,0,0,0,0-.06-.07-.08-.15-.07h0s0,0-.06,0h0v0h0c-.06,0-.07.05-.07,0s0,0,0,0,0,0,0,0h0v0h0s-.06.06-.06,0,0,0,0,0,0,0-.08.06l0,0s0,0,0,0h0s0,0,0,0-.06,0-.06,0,0,0,0,0,0,0,0,0h0s0,0,0,0,0,0,0,0,0,0,0,0h0s0,0,0,0v0s0,0,0,0h.08S17,17,17,17a.06.06,0,0,1-.06,0s0,0-.05,0v0a0,0,0,0,0,0,0s0,0,0,0h0s0,0,0,0a0,0,0,0,1,0,0s0,0,0,0l0,0h0s0,.05,0,0-.05-.06-.06-.09,0,0,0-.05a.07.07,0,0,1-.06.06s-.05.06-.1.09,0,.05,0,.06,0,0,0,0-.11.05-.12.09a.61.61,0,0,1-.47.2s0,0-.06,0-.12,0-.19.05-.12,0-.14,0h0a.11.11,0,0,0-.1,0c-.13.08-.38.1-.42.21s0-.06-.09,0,0,.05,0,.09,0,.08-.07.11.14.15.1.22,0,0-.06,0h0s0,0,0-.05a0,0,0,0,0-.05,0,.34.34,0,0,0,.06.06h0s0,0,0,0,0,0,0,0,0,0,0,0,0,0,0,0h0s0,0,0,0l0,0a.15.15,0,0,1,.1.12c.07.05.13.1.12.16s.17.15.07.18,0,.05-.1.05l0,0h0a1.2,1.2,0,0,0,.2,0h.13a.87.87,0,0,0,.25,0h0s.05,0,0,0a1.54,1.54,0,0,1,.42,0l.16,0s0,0,.05,0l.08,0a1.68,1.68,0,0,1,.35-.1,3.43,3.43,0,0,0,.4-.06,2.7,2.7,0,0,1,.41-.06s0,0,.06,0,.09,0,.17,0,.09,0,.14,0h0s0,0,0,0,.05,0,0,0a0,0,0,0,1,0,0l0,0c.06,0,0,0,.05,0s.05,0,.05,0,0,0,0,0h0s0,0,0,0,0,0,0,0h0s0,0,0,0h0s0,0,0,0a1.22,1.22,0,0,1,.17-.05c.05,0,.08-.05.14-.07s0,0,0,0v0s0,0,0,0a1,1,0,0,0-.14.1l-.08,0s0,0,.07,0,0,0,0,0l.06-.05h.05s0,0,0,0a0,0,0,0,1,0,0,.09.09,0,0,1-.06,0c-.06,0,.11,0,.12,0s0,0,0,0h0s0,0,0,0,.08,0,0,.06.06,0,.05,0Z"/><path class="cls-5" d="M19.4,18.64h0Z"/><path class="cls-5" d="M17.17,16.68h0s0,0,0,0h0Z"/><path class="cls-5" d="M24.22,15.13h0s0,0,0,0Z"/><path class="cls-5" d="M23.32,15v0S23.31,15,23.32,15Z"/><path class="cls-5" d="M23.38,15.1s0,0,0,0Z"/><path class="cls-5" d="M23.35,15.43s0,0,0,0S23.33,15.45,23.35,15.43Z"/><path class="cls-5" d="M23.26,15.63h0S23.27,15.62,23.26,15.63Z"/><path class="cls-5" d="M23.34,15.71s0,0,0,0v0l0,0Z"/><path class="cls-5" d="M23.23,15.61h0s0,0,0,0,0-.09,0-.06,0,0,0,0a0,0,0,0,0,0,0C23.24,15.48,23.24,15.59,23.23,15.61Z"/><path class="cls-5" d="M23.26,15.67s0,0,0,0a0,0,0,0,1,0,0s0,0,0,0,0,0,0,0S23.27,15.65,23.26,15.67Z"/><path class="cls-5" d="M23.37,15.35a0,0,0,0,0,0,0S23.38,15.36,23.37,15.35Z"/><path class="cls-5" d="M23.34,15.58s0,0,0,0S23.33,15.58,23.34,15.58Z"/><path class="cls-5" d="M23.35,16s0,0,0,0h0S23.34,16,23.35,16Z"/><path class="cls-5" d="M23.39,15.49s0,0,0,.06Z"/><path class="cls-5" d="M23.36,15.63a.2.2,0,0,0,0-.07S23.36,15.6,23.36,15.63Z"/><path class="cls-5" d="M23.35,16.1h0S23.35,16.1,23.35,16.1Z"/><path class="cls-5" d="M23.32,16h0s0,0,0,0Z"/><path class="cls-5" d="M23.32,15.67h0s0,0,0,0,0,0,0,0Z"/><path class="cls-5" d="M23.31,15.82c0,.06,0,0,0,0h0Z"/><path class="cls-5" d="M24.11,15.36v0h0s0,0,0,0h0s0,0-.08.09,0,0,.08,0Z"/><path class="cls-5" d="M24.13,15.33v0A0,0,0,0,0,24.13,15.33Z"/><path class="cls-5" d="M24.22,15.12s0,0,0,0,0-.08,0-.06h0s0,0,0,.06l0,0h0s0,0,0,0,0-.05.06-.07Z"/><path class="cls-5" d="M24,15.33h0Z"/><path class="cls-5" d="M24.17,15.25v0Z"/><path class="cls-5" d="M24.15,15.34s0,0,0,0Z"/><path class="cls-5" d="M24.17,15.38h0S24.17,15.37,24.17,15.38Z"/><path class="cls-5" d="M24.06,15.52h0s0,0,0,0,0,.06,0,0Z"/><path class="cls-5" d="M23,16.28h0s0,0,0,0Z"/><path class="cls-5" d="M23,16.51h0S23,16.51,23,16.51Z"/><path class="cls-5" d="M23.12,16.36l0,0S23.11,16.35,23.12,16.36Z"/><path class="cls-5" d="M23.08,16.3s0,0,0,0h0l0,0s0,0,0,0S23.08,16.29,23.08,16.3Z"/><path class="cls-5" d="M23,16.48c0-.05-.1,0-.12-.08s-.05-.06-.08,0,0,0,0,0,0,.13.12.13S23,16.54,23,16.48Z"/></g></svg>