<?xml version="1.0" encoding="UTF-8"?>
<svg width="30px" height="20px" viewBox="0 0 30 20" version="1.1" xmlns="http://www.w3.org/2000/svg" xmlns:xlink="http://www.w3.org/1999/xlink">
    <title>D44E5D63-A037-405D-A0E0-1AEDFEC9D542@2x</title>
    <g id="Flags" stroke="none" stroke-width="1" fill="none" fill-rule="evenodd">
        <g transform="translate(-308.000000, -1427.000000)" id="KR">
            <g transform="translate(308.000000, 1427.000000)" id="Flag-of-South-Korea">
                <polygon id="Fill-1" fill="#FFFFFF" points="0 20 30 20 30 0 0 0"></polygon>
                <path d="M18.4668767,9.30662333 C17.3180433,8.54075667 15.7658767,8.85119 15.00001,9.99999 C14.23411,11.1488233 12.6819433,11.4592567 11.53311,10.69339 C10.38431,9.92749 10.0738767,8.37532333 10.8397433,7.22649 C9.30797667,9.52415667 9.92884333,12.62849 12.22651,14.1602567 C14.5241433,15.6920233 17.6284767,15.0711567 19.1602433,12.77349 C19.9261433,11.62469 19.61571,10.07249 18.4668767,9.30662333" id="Fill-2" fill="#0047A0"></path>
                <path d="M17.7735,5.83974667 C15.4758667,4.30798 12.3715,4.92884667 10.8397333,7.22651333 C10.0738667,8.37531333 10.3843,9.92748 11.5331333,10.69338 C12.6819333,11.4592467 14.2341333,11.1488133 15,10.0000133 C15.7658667,8.85118 17.3180667,8.54074667 18.4668667,9.30661333 C19.6157,10.0725133 19.9261333,11.62468 19.1602667,12.7735133 C20.692,10.4758467 20.0711333,7.37151333 17.7735,5.83974667" id="Fill-4" fill="#CD2E3A"></path>
                <path d="M24.1294333,4.16408 L23.4360667,4.62634667 L24.7072667,6.53311333 L25.4006333,6.07088 L24.1294333,4.16408 Z M20.8937,3.06624667 L23.6672,7.22651333 L24.3605667,6.76424667 L21.5870667,2.60401333 L20.8937,3.06624667 Z M23.8983,3.81741333 L22.6271333,1.91061333 L21.9337667,2.37288 L23.2049333,4.27964667 L23.8983,3.81741333 Z M21.3559333,6.01308 L22.6271333,7.91988 L23.3205,7.45761333 L22.0493,5.55084667 L21.3559333,6.01308 Z M21.1248,5.66641333 L19.8536333,3.75961333 L20.547,3.29738 L21.8182,5.20414667 L21.1248,5.66641333 Z M7.37286667,12.0801133 L6.6795,12.54238 L9.453,16.7026133 L10.1463667,16.24038 L7.37286667,12.0801133 Z M7.14173333,15.4892133 L8.41293333,17.3960133 L9.1063,16.9337467 L7.83513333,15.0269467 L7.14173333,15.4892133 Z M4.59936667,13.9291133 L7.37286667,18.08938 L8.06623333,17.6271133 L5.29273333,13.46688 L4.59936667,13.9291133 Z M6.91063333,15.1425467 L5.63943333,13.2357467 L6.3328,12.7735133 L7.604,14.68028 L6.91063333,15.1425467 Z M22.1648667,15.02698 L20.8937,16.9337467 L21.5870667,17.3960133 L22.8582667,15.4892133 L22.1648667,15.02698 Z M23.2049333,15.7203467 L21.9337667,17.6271133 L22.6271333,18.08938 L23.8983333,16.18258 L23.2049333,15.7203467 Z M21.1248,14.3336133 L19.8536333,16.24038 L20.547,16.7026133 L21.8182,14.7958467 L21.1248,14.3336133 Z M23.0893667,15.1425467 L24.3605667,13.2357467 L23.6672,12.7735133 L22.396,14.68028 L23.0893667,15.1425467 Z M22.0493,14.44918 L23.3205,12.54238 L22.6271333,12.0801133 L21.3559333,13.9869133 L22.0493,14.44918 Z M23.4360667,15.3736467 L24.7072667,13.46688 L25.4006333,13.9291133 L24.1294333,15.8359133 L23.4360667,15.3736467 Z M6.6795,7.45761333 L9.453,3.29738 L10.1463667,3.75961333 L7.37286667,7.91988 L6.6795,7.45761333 Z M5.63943333,6.76424667 L8.41293333,2.60401333 L9.1063,3.06624667 L6.3328,7.22651333 L5.63943333,6.76424667 Z M4.59936667,6.07088 L7.37286667,1.91061333 L8.06623333,2.37288 L5.29273333,6.53311333 L4.59936667,6.07088 Z" id="Fill-6" fill="#000000"></path>
            </g>
        </g>
    </g>
</svg>