<?xml version="1.0" encoding="UTF-8"?>
<svg width="30px" height="20px" viewBox="0 0 30 20" version="1.1" xmlns="http://www.w3.org/2000/svg" xmlns:xlink="http://www.w3.org/1999/xlink">
    <title>5309647F-2112-4096-9106-F6F10783750E@2x</title>
    <g id="Flags" stroke="none" stroke-width="1" fill="none" fill-rule="evenodd">
        <g transform="translate(-512.000000, -1195.000000)" fill-rule="nonzero" id="PH">
            <g transform="translate(512.000000, 1195.000000)" id="Flag-of-Philippines">
                <polygon id="Path" fill="#0038A8" points="0 0 30 0 30 10 0 10"></polygon>
                <polygon id="Path" fill="#CE1126" points="0 10 30 10 30 20 0 20"></polygon>
                <polygon id="Path" fill="#FFFFFF" points="17 10 0 20 0 0"></polygon>
                <path d="M1.5170625,16.1708333 L1.8433125,16.8875 L2.61815625,16.8208333 L2.05129688,17.3625 L2.35307813,18.0916667 L1.67610938,17.7125 L1.08885938,18.2291667 L1.23567188,17.45 L0.5709375,17.0416667 L1.34170313,16.9416667 L1.5170625,16.1708333 Z M6.17428125,5.79583333 L6.427125,6.05416667 L6.30478125,8.0125 L6.43120312,8.025 L6.66365625,6.24166667 L6.8675625,6.45 L6.557625,8.04583333 C6.81046875,8.09583333 7.05107812,8.2 7.2590625,8.34166667 L7.2590625,8.34166667 L8.14401562,6.99166667 L8.43764062,6.99166667 L7.36101562,8.42083333 C7.39589749,8.44744509 7.42990077,8.47523832 7.46296875,8.50416667 L7.46296875,8.50416667 L8.7271875,7.025 L9.0860625,7.025 L9.0860625,7.39583333 L7.64240625,8.6875 C7.67064854,8.7199203 7.69785044,8.75327129 7.72396875,8.7875 L7.72396875,8.7875 L9.12276562,7.69166667 L9.12276562,7.9875 L7.797375,8.89166667 C7.93919181,9.10871523 8.03759527,9.35227675 8.08692187,9.60833333 L8.08692187,9.60833333 L9.65292187,9.29583333 L9.85682812,9.50416667 L8.1073125,9.74166667 L8.11954687,9.86666667 L10.0362656,9.74166667 L10.2891094,10 L10.0362656,10.2541667 L8.11954687,10.1291667 C8.11954687,10.175 8.11546875,10.2166667 8.1073125,10.2583333 L8.1073125,10.2583333 L9.85682812,10.4958333 L9.64884375,10.7041667 L8.08692187,10.3875 C8.03798437,10.6458333 7.93603125,10.8916667 7.797375,11.1041667 L7.797375,11.1041667 L9.12276562,12.0083333 L9.12276562,12.3083333 L7.72396875,11.2125 L7.64240625,11.3125 L9.0860625,12.6041667 L9.0860625,12.9708333 L8.7271875,12.9708333 L7.45889062,11.4958333 C7.42715926,11.5246888 7.39451697,11.5524813 7.36101562,11.5791667 L7.36101562,11.5791667 L8.43764062,13.0083333 L8.14401562,13.0083333 L7.2590625,11.6541667 C7.04662622,11.7990625 6.80824038,11.8996024 6.557625,11.95 L6.557625,11.95 L6.8675625,13.55 L6.65957812,13.7625 L6.427125,11.9708333 L6.30478125,11.9833333 L6.43120312,13.9416667 L6.17428125,14.2 L5.92551562,13.9416667 L6.04785937,11.9833333 C6.003,11.9833333 5.96221875,11.9791667 5.9214375,11.9708333 L5.9214375,11.9708333 L5.68898437,13.7583333 L5.48507812,13.55 L5.79501562,11.95 C5.54217187,11.9 5.3015625,11.7958333 5.09357812,11.6541667 L5.09357812,11.6541667 L4.208625,13.0083333 L3.915,13.0083333 L4.99570312,11.5791667 L4.89375,11.4958333 L3.62953125,12.9708333 L3.26657812,12.9708333 L3.26657812,12.6041667 L4.71023437,11.3125 C4.68199209,11.2800797 4.65479019,11.2467287 4.62867187,11.2125 L4.62867187,11.2125 L3.229875,12.3083333 L3.229875,12.0083333 L4.55526562,11.1041667 C4.41344881,10.8871181 4.31504536,10.6435566 4.26571875,10.3875 L4.26571875,10.3875 L2.69971875,10.7041667 L2.4958125,10.4958333 L4.24532812,10.2583333 L4.23309375,10.1291667 L2.316375,10.2583333 L2.06353125,10 L2.316375,9.74166667 L4.23309375,9.86666667 C4.23309375,9.825 4.23717187,9.77916667 4.24532812,9.7375 L4.24532812,9.7375 L2.4958125,9.5 L2.70379687,9.29166667 L4.26571875,9.60833333 C4.31465625,9.35 4.41660937,9.10833333 4.55526562,8.89166667 L4.55526562,8.89166667 L3.229875,7.9875 L3.229875,7.69166667 L4.62867187,8.7875 L4.71023437,8.68333333 L3.26657812,7.39166667 L3.26657812,7.025 L3.62545312,7.025 L4.89375,8.50416667 C4.92548137,8.4753112 4.95812365,8.44751871 4.991625,8.42083333 L4.991625,8.42083333 L3.915,6.99166667 L4.208625,6.99166667 L5.09357812,8.34166667 C5.30601441,8.19677082 5.54440025,8.09623089 5.79501562,8.04583333 L5.79501562,8.04583333 L5.48507812,6.44583333 L5.6930625,6.2375 L5.92551562,8.025 L6.04785937,8.0125 L5.9214375,6.05416667 L6.17428125,5.79583333 Z M14.2938281,8.94583333 L14.3101406,9.7375 L15.0442031,10 L14.3101406,10.2583333 L14.2938281,11.05 L13.8248438,10.4208333 L13.082625,10.65 L13.5230625,10 L13.082625,9.35 L13.8248438,9.57916667 L14.2938281,8.94583333 Z M1.08885938,1.76666667 L1.67203125,2.29166667 L2.349,1.90833333 L2.04721875,2.6375 L2.61815625,3.17916667 L1.8433125,3.1125 L1.51298438,3.82916667 L1.337625,3.05833333 L0.5709375,2.95833333 L1.23567188,2.54166667 L1.08885938,1.76666667 Z" id="Path-2" fill="#FCD116"></path>
            </g>
        </g>
    </g>
</svg>