<?xml version="1.0" encoding="UTF-8"?>
<svg width="30px" height="20px" viewBox="0 0 30 20" version="1.1" xmlns="http://www.w3.org/2000/svg" xmlns:xlink="http://www.w3.org/1999/xlink">
    <title>7FCF9E70-BCDC-4F06-969D-80489DF993E3@2x</title>
    <g id="Flags" stroke="none" stroke-width="1" fill="none" fill-rule="evenodd">
        <g transform="translate(-444.000000, -1339.000000)" id="SA">
            <g transform="translate(444.000000, 1339.000000)" id="Flag-of-Saudi-Arabia">
                <polygon id="Fill-1" fill="#006C35" points="0 20 30 20 30 0 0 0"></polygon>
                <path d="M19.7077533,14.7627333 L20.1446867,14.7627333 C20.12152,14.6990667 20.12152,14.6325333 20.1446867,14.5457333 L18.87152,14.5457333 L18.87152,14.6585667 C18.9033533,14.6817 18.9467533,14.7309 18.96992,14.7627333 L19.3865867,14.7627333 C19.42302,14.7036 19.5244533,14.6753667 19.61312,14.6996667 C19.6560533,14.7114 19.69012,14.7341333 19.7077533,14.7627333 L19.7077533,14.7627333 Z M19.3865867,14.8669 L18.96992,14.8669 C18.92362,14.9276667 18.8512867,15 18.8107533,15 C18.7615867,15 18.6284867,14.864 18.6284867,14.8148 C18.6284867,14.7772 18.69212,14.7048667 18.7499867,14.6585667 L18.7499867,14.5457333 L11.19792,14.5457333 C10.2025533,14.5457333 9.70775333,14.5370333 9.37498667,14.2043 L18.7499867,14.2043 L18.7499867,14.0914333 C18.69502,14.0480333 18.6284867,13.9728 18.6284867,13.9352 C18.6284867,13.886 18.7615867,13.75 18.8107533,13.75 C18.8599533,13.75 18.9930533,13.886 18.9930533,13.9352 C18.9930533,13.9728 18.92652,14.0480333 18.87152,14.0914333 L18.87152,14.2043 L20.1446867,14.2043 C20.48612,14.2043 20.6249867,14.2332333 20.6249867,14.5457333 C20.6249867,14.8784667 20.5352867,14.9392333 20.39352,14.9392333 C20.34432,14.9392333 20.26332,14.9363333 20.2025533,14.8669 L19.7077533,14.8669 C19.67132,14.9260333 19.5698867,14.9542667 19.4811867,14.9299667 C19.4382867,14.9182333 19.4041867,14.8955 19.3865867,14.8669 L19.3865867,14.8669 Z M19.76562,8.11053333 C19.80902,8.125 19.8668867,8.10186667 19.8842533,8.0758 C19.90452,8.0411 19.8639867,7.96296667 19.81772,7.93983333 C19.80902,8.00926667 19.7945533,8.06423333 19.76562,8.11053333 L19.76562,8.11053333 Z M19.6064867,7.8993 C19.5659867,7.9427 19.6006867,8.02083333 19.6672533,8.06423333 C19.7019533,8.01793333 19.71932,7.96586667 19.7077533,7.91956667 C19.6990867,7.88193333 19.63542,7.86746667 19.6064867,7.8993 L19.6064867,7.8993 Z M19.49652,7.91376667 C19.50232,7.853 19.58622,7.78066667 19.6585533,7.78646667 C19.7366867,7.79223333 19.81482,7.83853333 19.8205867,7.91376667 C19.90162,7.93113333 19.9710533,7.9948 19.9623867,8.06713333 C19.9536867,8.14236667 19.9160867,8.2176 19.72222,8.19156667 C19.5601867,8.44616667 19.05672,8.6227 18.9525533,8.5706 C18.9756867,8.49246667 19.0306867,8.4809 19.09432,8.46353333 C19.3055533,8.40566667 19.49362,8.27546667 19.6064867,8.13946667 C19.53702,8.0874 19.4907533,7.9919 19.49652,7.91376667 L19.49652,7.91376667 Z M18.1741867,6.31656667 C18.1799867,6.2963 18.2262867,6.26156667 18.2812533,6.26736667 C18.2291533,6.40336667 18.3680533,6.45253333 18.3593867,6.59433333 C18.3535867,6.71296667 18.2725533,6.75926667 18.1944533,6.76216667 C18.11342,6.76216667 18.0497533,6.6985 18.02372,6.67823333 C17.9687533,6.72453333 17.9108867,6.7853 17.8298533,6.76793333 C17.7054533,6.7448 17.6446867,6.60013333 17.66492,6.4815 C17.6793867,6.40046667 17.7401533,6.35996667 17.79802,6.31366667 C17.7864533,6.3918 17.7488533,6.4699 17.76332,6.55093333 C17.7748867,6.6059 17.89062,6.66376667 17.9137867,6.57116667 C17.9253533,6.51043333 17.9195533,6.42073333 17.9282533,6.37443333 C17.94272,6.2992 18.0121533,6.31076667 18.0468867,6.28473333 C18.0497533,6.35996667 18.0352867,6.46413333 18.0786867,6.54223333 C18.1249867,6.62326667 18.2204867,6.603 18.2146867,6.53646667 C18.20602,6.44966667 18.15392,6.37733333 18.1741867,6.31656667 L18.1741867,6.31656667 Z M14.1724533,5.74363333 C14.1782533,5.72336667 14.22452,5.68866667 14.27952,5.69443333 C14.22742,5.83043333 14.36342,5.87963333 14.3576533,6.0214 C14.3518533,6.14003333 14.27082,6.18633333 14.19272,6.18923333 C14.1116867,6.18923333 14.0451533,6.12556667 14.0190867,6.10533333 C13.96412,6.15163333 13.9091533,6.2124 13.82522,6.19503333 C13.7036867,6.17186667 13.6429533,6.0272 13.6631867,5.90856667 C13.6776533,5.82753333 13.73552,5.78703333 13.7933867,5.74073333 C13.78182,5.81886667 13.74422,5.897 13.7615867,5.978 C13.7731533,6.033 13.8888867,6.09376667 13.9091533,5.99826667 C13.92362,5.9375 13.91782,5.8478 13.92652,5.8015 C13.9409867,5.72626667 14.00752,5.73783333 14.0422533,5.7118 C14.0451533,5.78703333 14.0335533,5.8912 14.0769533,5.96933333 C14.1232533,6.05033333 14.2158533,6.0301 14.2100533,5.96353333 C14.2042867,5.87673333 14.1521867,5.8044 14.1724533,5.74363333 L14.1724533,5.74363333 Z M17.7314867,8.7963 C17.9050867,8.81656667 18.11632,8.77026667 18.2609867,8.67186667 C18.4201533,8.5677 18.24942,8.37383333 18.11632,8.2639 C17.9658533,8.42013333 17.7806533,8.58506667 17.7314867,8.7963 L17.7314867,8.7963 Z M19.1058867,7.42766667 C19.0827533,7.82696667 19.1521867,8.36516667 18.9409867,8.478 C18.88022,8.2089 18.87442,7.9861 18.83682,7.65336667 L18.3477867,8.06713333 C18.4374867,8.1655 18.5271867,8.28703333 18.55902,8.42303333 C18.60822,8.6111 18.5503533,8.82523333 18.3969867,8.95253333 C18.20892,9.1088 17.9513867,9.13483333 17.71702,9.16376667 C17.75172,9.31713333 17.7835533,9.47916667 17.8761533,9.61226667 C17.93402,9.6904 18.02662,9.76273333 18.1278867,9.7338 C18.2349533,9.70486667 18.3014867,9.6007 18.33912,9.5052 C18.4172533,9.31133333 18.5011533,9.12036667 18.6168867,8.94386667 C18.7094867,8.7963 18.8599533,8.67476667 19.0364533,8.67186667 C19.09432,8.67476667 19.1724533,8.6574 19.2071867,8.72106667 C19.2852867,8.84836667 19.31422,8.99883333 19.40682,9.12326667 C19.4849533,9.23033333 19.6180533,9.30266667 19.7887867,9.2853 C19.95082,9.27083333 20.20832,9.21586667 20.16492,8.9294 L19.9334533,6.73033333 L19.1058867,7.42766667 Z M19.6932867,6.0214 L19.8697867,6.18633333 L19.84952,6.01273333 L19.6932867,6.0214 Z M20.1996533,6.50173333 L20.9895867,7.25116667 L20.88542,5.92303333 L20.1996533,6.50173333 Z M21.2297533,5.353 C21.4004533,5.2315 21.55962,5.0955 21.7476867,5 C21.69272,5.217 21.5306867,5.38193333 21.3657533,5.52083333 C21.28182,5.5874 21.3194533,5.7089 21.3078533,5.8015 L21.1718867,5.7639 L21.3165533,7.5463 C21.5827533,7.79803333 21.8894533,8.02663333 22.0717533,8.3478 C22.1440867,8.46066667 22.17882,8.56483333 22.21932,8.69503333 C22.26562,8.4809 22.2598533,8.261 22.2366867,8.044 C22.1440867,7.20776667 22.0601867,6.36573333 21.9878533,5.52373333 C21.9791533,5.42246667 21.9646867,5.3154 21.9762867,5.21413333 C21.9820533,5.11863333 22.0804533,5.03763333 22.17592,5.0434 C22.2337867,5.0926 22.26562,5.15913333 22.2945533,5.2228 C22.3726867,5.3964 22.44212,5.5845 22.4218867,5.77836667 L22.2800867,5.72626667 C22.3871533,6.63483333 22.4999867,7.60126667 22.4999867,8.15973333 C22.4999867,8.31596667 22.48842,8.44906667 22.4594867,8.59376667 C22.3871533,8.94676667 22.2135533,9.30266667 21.90682,9.5052 C21.64642,9.67593333 21.3454867,9.7714 21.0445533,9.83216667 C20.9201533,9.85823333 20.79282,9.8698 20.6741867,9.83506667 C20.80152,9.76563333 20.9432867,9.71933333 21.0792867,9.65566667 C21.4554533,9.47916667 21.86632,9.2853 22.1064867,8.9815 C21.90972,8.41723333 21.6174867,8.17996667 21.3512867,7.9514 C21.3628533,8.3536 21.3657533,8.7471 21.3049867,9.1464 C21.2933867,9.2419 21.2499867,9.3258 21.1834533,9.39236667 C21.1429533,9.22163333 21.1342533,9.04803333 21.1197867,8.87443333 L21.02432,7.66203333 L20.2430533,6.91263333 L20.3616867,8.24943333 C20.3790533,8.46643333 20.39932,9.022 20.3182867,9.22743333 C20.2372533,9.4213 20.0578533,9.58333333 19.8408533,9.6007 C19.6006867,9.61806667 19.3576533,9.61516667 19.23032,9.3692 C19.1666533,9.2448 19.1290533,9.1059 19.0769533,8.9757 C18.9756867,8.99883333 18.87152,9.022 18.7991867,9.09723333 C18.6429533,9.2448 18.5966533,9.4705 18.52432,9.66146667 C18.4490867,9.85243333 18.3709533,10 18.1683867,10 C17.89352,10 17.6880867,9.7396 17.62152,9.48206667 C17.57812,9.31713333 17.6446867,9.18983333 17.5578533,9.0567 C17.49712,8.93806667 17.53182,8.7934 17.5636533,8.669 C17.62732,8.4433 17.7661867,8.25233333 17.93402,8.09316667 L17.27142,7.5029 C17.2887867,8.0295 17.3350533,8.5764 17.26562,9.103 C17.2540533,9.20716667 17.21642,9.30846667 17.13832,9.38366667 C17.1151533,9.2853 17.1006867,9.18403333 17.09202,9.07986667 L16.95312,7.21933333 C16.95312,7.21933333 16.4438533,6.71586667 16.24132,6.4757 C16.1255867,6.32813333 16.0069533,6.17766667 15.9461867,6.00116667 C15.92302,5.92883333 15.9027867,5.82753333 15.97222,5.77256667 C16.0532533,5.77836667 16.1255867,5.81596667 16.19502,5.8507 C16.32232,5.92593333 16.4438533,6.0214 16.54802,6.13136667 C16.59432,6.17766667 16.6174867,6.24133333 16.63772,6.30496667 L16.4438533,6.2992 C16.5740867,6.48726667 16.7476867,6.67533333 16.9241867,6.82003333 L16.81422,5.32696667 C16.7997533,5.11863333 16.8865867,5.09836667 17.0254533,5.0434 C17.13542,5.20253333 17.2106533,5.37906667 17.2569533,5.56423333 C17.2771867,5.63946667 17.27432,5.7147 17.26852,5.79283333 L17.13542,5.75233333 L17.2395867,7.092 L18.1394533,7.8993 L18.8049867,7.34376667 C18.7210533,6.5596 18.6226867,5.92593333 18.6197867,5.28646667 C18.6168867,5.1823 18.69792,5.08103333 18.8020867,5.07813333 C18.8483867,5.07233333 18.86862,5.12443333 18.8917867,5.15336667 C18.96702,5.28936667 19.0248867,5.43693333 19.05962,5.59026667 C19.0798533,5.6655 19.0711867,5.74073333 19.05672,5.81886667 L18.92652,5.761 L19.0711867,7.11516667 L19.81192,6.49596667 L19.3460533,6.05903333 C19.2534867,5.96353333 19.14062,5.87096667 19.10302,5.73496667 C19.0711867,5.63946667 19.09142,5.5353 19.1116867,5.4456 C19.2852867,5.47453333 19.4357533,5.5758 19.5746533,5.67996667 C19.6701533,5.75233333 19.7569533,5.83623333 19.8408533,5.92303333 C19.8321867,5.73206667 19.80902,5.5411 19.7945533,5.35013333 C19.7945533,5.2749 19.7858867,5.19386667 19.8379533,5.136 C19.8784867,5.0868 19.94502,5.06943333 19.9999867,5.0434 C20.1099533,5.19096667 20.1793867,5.36746667 20.2256867,5.544 C20.2488533,5.625 20.2488533,5.70603333 20.2459533,5.78703333 C20.1996533,5.77546667 20.16782,5.7639 20.12152,5.75233333 L20.16782,6.19503333 L20.8622533,5.61343333 C20.8622533,5.61343333 20.83622,5.33276667 20.8506867,5.2228 C20.8622533,5.12733333 20.9548533,5.0521 21.0532533,5.05786667 C21.14582,5.14756667 21.1805533,5.25753333 21.2297533,5.353 L21.2297533,5.353 Z M10.56712,5.0405 C10.61342,5.01156667 10.65682,5.06366667 10.6857533,5.0955 C10.7812533,5.20833333 10.87962,5.32406667 10.93462,5.46296667 C10.88832,5.46876667 10.83912,5.47743333 10.79282,5.4861 C10.8043867,5.70603333 10.9895867,5.8565 11.0416533,6.06483333 C11.0821867,6.19213333 11.0850533,6.3339 11.05902,6.46123333 C11.01852,6.63773333 10.8738533,6.7911 10.6915533,6.82003333 C10.47742,6.85763333 10.2401533,6.80556667 10.08102,6.6493 C9.97685333,6.54513333 9.93922,6.40046667 9.89295333,6.26736667 C9.79745333,6.58566667 9.66145333,6.82003333 9.37498667,6.95313333 C9.40105333,7.44503333 9.45312,7.93693333 9.40972,8.42593333 C9.39525333,8.56483333 9.38658667,8.72973333 9.25925333,8.82233333 C9.21295333,8.62846667 9.20428667,8.42593333 9.18112,8.22336667 C9.13772,7.8154 9.10878667,7.4103 9.06538667,7.00233333 C8.46642,6.91263333 8.45485333,6.37153333 8.61688667,5.8478 C8.55902,5.90566667 8.51272,5.978 8.48668667,6.05323333 C8.40568667,6.2992 8.35068667,6.5567 8.24075333,6.7911 C8.19735333,6.88366667 8.11632,6.9618 8.01505333,6.98206667 C7.89352,7.0081 7.74595333,7.00233333 7.64755333,6.90683333 C7.54338667,6.80266667 7.49998667,6.60013333 7.49998667,6.34836667 C7.49998667,6.23263333 7.52025333,6.13716667 7.55208667,6.0793 C7.59548667,5.99536667 7.67072,5.95486667 7.74015333,5.91436667 C7.69385333,5.99246667 7.64178667,6.0677 7.63022,6.1574 C7.61285333,6.28183333 7.64178667,6.40913333 7.65915333,6.53066667 C7.67938667,6.66666667 7.73438667,6.77373333 7.86748667,6.7853 C8.01215333,6.79976667 8.09895333,6.76503333 8.16552,6.55093333 C8.24075333,6.31366667 8.30438667,6.0735 8.40278667,5.8449 C8.48668667,5.65393333 8.63715333,5.46586667 8.85415333,5.42533333 C8.83102,5.68576667 8.70948667,5.92883333 8.70372,6.19213333 C8.69792,6.31076667 8.70948667,6.43806667 8.78762,6.53066667 C8.84548667,6.6088 8.94098667,6.63483333 9.03068667,6.66086667 L8.94965333,5.5874 C8.94098667,5.4543 8.91782,5.3183 8.94098667,5.18806667 C8.96122,5.0955 9.06248667,5.06366667 9.13772,5.03183333 C9.28528667,5.24883333 9.39525333,5.50636667 9.38945333,5.77256667 C9.34028667,5.761 9.29398667,5.74943333 9.24188667,5.73783333 C9.27372,6.04166667 9.30555333,6.35126667 9.34028667,6.6551 C9.46758667,6.6146 9.58332,6.53936667 9.65568667,6.4236 C9.80612,6.2095 9.82928667,5.92593333 9.75695333,5.6771 C9.72512,5.57003333 9.67592,5.46876667 9.65278667,5.3588 C9.62962,5.25753333 9.70195333,5.15046667 9.79455333,5.11863333 C9.83795333,5.09836667 9.85822,5.15046667 9.87558667,5.1794 C9.93345333,5.30383333 9.95372,5.4456 9.97975333,5.5816 C10.0144533,5.761 9.98552,5.9433 10.0462867,6.1198 C10.1562533,6.4352 10.4629533,6.603 10.70602,6.53356667 C10.9143533,6.4728 10.83912,6.2066 10.7725533,6.06483333 C10.65972,5.82176667 10.5121533,5.59026667 10.4600533,5.32696667 C10.43982,5.2315 10.4658533,5.09836667 10.56712,5.0405 L10.56712,5.0405 Z M15.8680533,5.32406667 C15.9403867,5.19966667 16.05612,5.10416667 16.18922,5.0405 C16.15452,5.1331 16.09952,5.20833333 16.0503533,5.28936667 C16.0098533,5.35013333 16.0098533,5.42246667 16.0069533,5.489 C16.0966533,5.4861 16.1834533,5.46876667 16.2702533,5.4485 C16.24712,5.51793333 16.2239533,5.59026667 16.15742,5.63656667 C16.0850533,5.68576667 15.97512,5.7205 15.8998867,5.65683333 C15.8188533,5.57293333 15.8072867,5.42533333 15.8680533,5.32406667 L15.8680533,5.32406667 Z M10.6018533,7.908 C10.6510533,8.2552 10.4629533,8.53876667 10.2227867,8.71526667 C9.76852,9.05093333 9.34605333,9.2419 8.83682,9.48496667 C9.33448667,9.49073333 9.96238667,9.43286667 10.5902867,9.09433333 C11.0358867,8.85416667 11.3888867,8.54456667 11.3860044,7.98323333 C11.0850533,7.9861 10.97802,7.92823333 10.8622533,7.70253333 C10.7812533,7.78066667 10.6915533,7.85013333 10.6018533,7.908 L10.6018533,7.908 Z M9.75985333,7.67073333 C9.74248667,7.71123333 9.78878667,7.73436667 9.81772,7.75173333 C9.93345333,7.79223333 10.0607533,7.7662 10.1822867,7.74306667 C10.11862,7.6765 10.0462867,7.60416667 9.94502,7.60126667 C9.88135333,7.5955 9.78878667,7.60126667 9.75985333,7.67073333 L9.75985333,7.67073333 Z M11.0821867,5.16203333 C11.1197867,5.10416667 11.19212,5.08103333 11.2499867,5.05496667 C11.37152,5.20833333 11.4438533,5.3964 11.4901533,5.5845 C11.51042,5.65683333 11.50172,5.73206667 11.4930533,5.8044 C11.4525533,5.78993333 11.4062533,5.77546667 11.3628533,5.761 C11.41202,6.1169 11.4756867,6.4699 11.5161867,6.8258 C11.7216533,6.72453333 11.90972,6.6059 12.1238533,6.5162 C12.1874867,6.48726667 12.2598533,6.4728 12.3321867,6.46413333 C12.30612,6.5249 12.27432,6.58276667 12.2106533,6.6088 C11.9878533,6.72163333 11.7592533,6.82003333 11.5393533,6.94733333 C11.55962,7.12383333 11.5798533,7.30323333 11.60302,7.47973333 C11.7013867,7.34953333 11.7910867,7.1875 11.9646867,7.147 C11.9733867,7.24246667 11.9415533,7.35823333 12.0109867,7.43346667 C12.1180533,7.52026667 12.26562,7.46816667 12.3668867,7.39003333 C12.35822,7.25116667 12.39872,7.11516667 12.4247533,6.97916667 C12.4681867,6.99653333 12.5202533,7.0052 12.53762,7.0573 C12.58392,7.1846 12.5723533,7.3293 12.53762,7.4566 C12.5028867,7.60416667 12.3813533,7.71413333 12.2511533,7.78066667 C12.1701533,7.82116667 12.0688533,7.84143333 11.9791533,7.8067 C11.8865867,7.7691 11.8286867,7.6794 11.7679533,7.60416667 C11.7129533,7.73436667 11.6261533,7.8559 11.6203533,8.00636667 C11.6058867,8.32466667 11.4872533,8.62846667 11.2933867,8.87443333 C10.5902867,9.76563333 8.84838667,10.1475667 8.39118667,9.58913333 C8.08738667,9.6036 7.82118667,9.62096667 7.57522,9.58043333 C7.80672,9.50233333 8.04398667,9.44443333 8.26968667,9.35763333 C8.19155333,8.8802 8.32465333,8.27546667 8.70948667,7.9022 C8.64582,8.0324 8.56772,8.16263333 8.53008667,8.3073 C8.45195333,8.6169 8.45195333,8.94676667 8.54455333,9.2477 C9.05962,9.0567 9.58045333,8.83103333 10.0231533,8.5301 C10.2314867,8.3883 10.4224533,8.22336667 10.3790533,8.02083333 C10.21122,8.05556667 10.0491867,8.13366667 9.87558667,8.1279 C9.76852,8.1221 9.65278667,8.09896667 9.57465333,8.01503333 C9.49942,7.93113333 9.49362,7.8096 9.51098667,7.70253333 C9.53415333,7.56366667 9.59492,7.42476667 9.70775333,7.33216667 C9.83505333,7.22513333 10.0231533,7.228 10.17072,7.29456667 C10.3124867,7.3611 10.39352,7.5 10.4629533,7.6331 C10.6799867,7.5521 10.8275533,7.3611 11.0387867,7.26853333 C11.0474533,7.37846667 11.0358867,7.50866667 11.1197867,7.5955 C11.1689867,7.65913333 11.2557867,7.65626667 11.32522,7.66203333 C11.3136533,7.48553333 11.28472,7.31483333 11.2615867,7.1412 C11.18922,6.5654 11.1168867,5.9838 11.0532533,5.4051 C11.0503533,5.3183 11.0387867,5.2315 11.0821867,5.16203333 L11.0821867,5.16203333 Z M13.74132,5.15046667 C13.78472,5.10416667 13.8599533,5.10996667 13.91202,5.1418 C14.0219867,5.217 14.0885533,5.353 14.0798533,5.4861 C14.0769533,5.54686667 14.05092,5.60186667 14.0306867,5.65683333 C14.0161867,5.57293333 14.0190867,5.4861 13.9814867,5.408 C13.92362,5.32696667 13.8136533,5.3125 13.74422,5.24596667 C13.7181867,5.2228 13.7065867,5.1736 13.74132,5.15046667 L13.74132,5.15046667 Z M15.3240867,5.19386667 C15.3327533,5.1418 15.3819533,5.0868 15.43692,5.11863333 C15.5873867,5.19096667 15.6944533,5.32986667 15.7638867,5.48033333 L15.6047533,5.47453333 C15.6336867,5.5758 15.65972,5.6771 15.70312,5.77546667 C15.7609867,5.91436667 15.84202,6.04746667 15.8651533,6.2008 C15.8911867,6.36863333 15.8593867,6.5596 15.7407533,6.68983333 C15.5179533,6.93866667 15.0694533,6.89526667 14.8755867,6.62616667 C14.8032533,6.53066667 14.76272,6.42073333 14.72512,6.30786667 C14.6643533,6.55093333 14.5312533,6.7853 14.3113533,6.90973333 C14.0885533,7.04573333 13.79052,7.02836667 13.5792867,6.88366667 C13.4461867,6.79976667 13.3593867,6.6522 13.3593867,6.49883333 C13.34202,6.27026667 13.43172,6.05903333 13.4635533,5.83623333 C13.4085533,5.8912 13.3593867,5.95486667 13.33622,6.033 C13.24362,6.27893333 13.20312,6.54223333 13.07292,6.77373333 C13.0121533,6.88366667 12.9079867,6.98206667 12.7748867,6.99363333 C12.6475533,7.00233333 12.5086867,6.95313333 12.4363533,6.84316667 C12.3697867,6.7419 12.35532,6.6146 12.35532,6.49596667 C12.35822,6.31076667 12.40162,6.1227 12.48552,5.96353333 C12.48552,6.19213333 12.4160867,6.44676667 12.53182,6.66376667 C12.5896867,6.7853 12.7459533,6.85473333 12.8645867,6.7882 C12.9716533,6.72163333 13.02372,6.59723333 13.0613533,6.48436667 C13.1423533,6.24133333 13.2262867,5.99536667 13.3477867,5.7668 C13.3969867,5.6771 13.4519533,5.5816 13.5358867,5.51503333 C13.5792867,5.47743333 13.6400533,5.47743333 13.69502,5.46586667 C13.7065867,5.6713 13.5908533,5.8507 13.5503533,6.05033333 C13.51272,6.22396667 13.5011533,6.4294 13.6255867,6.57116667 C13.7644533,6.72163333 13.9959533,6.75926667 14.18982,6.70716667 C14.45602,6.62326667 14.6469867,6.35416667 14.6585533,6.0764 C14.6672533,5.91146667 14.67592,5.73206667 14.58622,5.5845 C14.54862,5.50636667 14.4733867,5.42533333 14.50522,5.32986667 C14.5254533,5.23436667 14.59492,5.16203333 14.67592,5.11863333 C14.7337867,5.20833333 14.7829867,5.3096 14.7945533,5.41956667 C14.8263867,5.6713 14.8292867,5.9317 14.9189867,6.17476667 C14.9710533,6.31366667 15.0578533,6.44966667 15.1967533,6.5249 C15.39642,6.63193333 15.7580867,6.603 15.6973533,6.31366667 C15.6423533,6.05033333 15.4658533,5.842 15.3790533,5.5874 C15.3356533,5.46006667 15.29802,5.32696667 15.3240867,5.19386667 L15.3240867,5.19386667 Z M17.9166533,5.1389 C17.9976867,5.10416667 18.11632,5.1331 18.15392,5.217 C18.1683867,5.25753333 18.1423533,5.29513333 18.11052,5.3154 C18.0526533,5.30383333 18.0034867,5.2749 17.9513867,5.25463333 C17.88772,5.37906667 17.85302,5.51793333 17.8124867,5.65683333 C17.7864533,5.59026667 17.76332,5.52083333 17.71992,5.46296667 C17.66782,5.39063333 17.58102,5.353 17.5202533,5.28646667 C17.4999867,5.2286 17.5694533,5.16203333 17.62732,5.1794 C17.71412,5.20543333 17.76332,5.28356667 17.8124867,5.353 C17.8356533,5.2749 17.84722,5.1823 17.9166533,5.1389 L17.9166533,5.1389 Z M7.53182,5.4485 C7.59838667,5.3096 7.72568667,5.20543333 7.86458667,5.1389 C7.82985333,5.2315 7.77198667,5.3096 7.72568667,5.39353333 C7.68808667,5.4514 7.69098667,5.52373333 7.68808667,5.59026667 C7.77488667,5.5845 7.86458667,5.56423333 7.95428667,5.5353 C7.92825333,5.60473333 7.89932,5.68286667 7.83275333,5.73206667 C7.76332,5.78126667 7.65915333,5.8102 7.58682,5.761 C7.50288667,5.68576667 7.48552,5.54976667 7.53182,5.4485 L7.53182,5.4485 Z M12.58392,5.24883333 C12.6103856,5.29127661 12.6456957,5.32761169 12.68392,5.34883333 C12.6692131,5.30035166 12.6309888,5.26398168 12.58392,5.24883333 L12.58392,5.24883333 Z M12.4710533,5.26043333 C12.49422,5.1389 12.67652,5.1418 12.7343867,5.23436667 C12.7719867,5.30093333 12.7922533,5.37036667 12.8298533,5.43693333 C12.8645867,5.50346667 12.9079867,5.57293333 12.8848533,5.65103333 C12.85012,5.77256667 12.76042,5.86806667 12.7488533,5.99536667 C12.7922533,5.978 12.8327533,5.95486667 12.8761533,5.9317 C12.8645867,5.99826667 12.8761533,6.08796667 12.80672,6.1227 C12.7227867,6.1632 12.61862,6.08216667 12.62442,5.99246667 C12.6359867,5.82753333 12.79802,5.69733333 12.7488533,5.52083333 C12.58682,5.73783333 12.36402,5.9317 12.08912,5.97223333 C12.2077533,5.87673333 12.3437533,5.8102 12.45082,5.70023333 C12.5202533,5.63656667 12.5665533,5.54976667 12.6128533,5.46876667 C12.5549867,5.41086667 12.4565867,5.3559 12.4710533,5.26043333 L12.4710533,5.26043333 Z M11.6145867,5.33853333 C11.6724533,5.32406667 11.7418867,5.30093333 11.7881867,5.353 C11.9270867,5.48033333 11.9907533,5.68576667 11.9444533,5.87096667 C11.91552,5.8015 11.8923533,5.72626667 11.8576533,5.65973333 C11.7997533,5.5353 11.6724533,5.46296667 11.6145867,5.33853333 L11.6145867,5.33853333 Z M10.35302,5.41956667 C10.3703533,5.408 10.4918867,5.5411 10.4484867,5.61343333 C10.4195533,5.65973333 10.34142,5.66263333 10.26332,5.66263333 C10.21412,5.70313333 10.1533533,5.7118 10.12152,5.70603333 C10.0983867,5.70023333 10.0549867,5.67996667 10.0491867,5.6279 C10.04052,5.57293333 10.07522,5.46296667 10.0925867,5.46296667 C10.1157533,5.46586667 10.08682,5.5816 10.1099533,5.61053333 C10.1359867,5.64816667 10.21412,5.64526667 10.21122,5.5845 L10.2025533,5.4977 C10.1996533,5.4456 10.26042,5.4514 10.26622,5.489 C10.2719867,5.52373333 10.2690867,5.56713333 10.2864533,5.59026667 C10.30962,5.6192 10.3645867,5.60186667 10.3761533,5.55266667 C10.3848533,5.51216667 10.3356533,5.43403333 10.35302,5.41956667 L10.35302,5.41956667 Z M18.21182,5.5353 C18.2841533,5.51503333 18.3651533,5.50636667 18.4432867,5.50636667 C18.4056533,5.54976667 18.3622533,5.59026667 18.3072867,5.61343333 C18.0410867,5.7205 17.7661867,5.79573333 17.5115867,5.9317 L17.58102,6.0735 C17.5202533,6.06193333 17.44792,6.06193333 17.40162,6.00983333 C17.35822,5.96933333 17.35532,5.8912 17.40452,5.8565 C17.44792,5.82176667 17.49422,5.8044 17.5433867,5.78126667 C17.76332,5.70023333 17.98322,5.61053333 18.21182,5.5353 L18.21182,5.5353 Z M10.1822867,5.88253333 C10.21122,5.83333333 10.29802,5.8565 10.34432,5.90276667 C10.47452,6.033 10.5381867,6.23263333 10.48612,6.41493333 C10.43982,6.2934 10.4050867,6.1603 10.30382,6.0677 C10.2430533,6.01273333 10.1504533,5.9433 10.1822867,5.88253333 L10.1822867,5.88253333 Z M21.36862,6.46123333 C21.3454867,6.40336667 21.3917867,6.3426 21.4554533,6.3426 C21.55092,6.3426 21.6232533,6.4236 21.6695533,6.50173333 C21.7505867,6.66086667 21.7910867,6.85186667 21.72452,7.01966667 C21.68982,6.8692 21.69272,6.67823333 21.55382,6.57986667 C21.4930533,6.54223333 21.42072,6.5191 21.36862,6.46123333 L21.36862,6.46123333 Z M16.0387867,6.7911 C16.0792867,6.7448 16.14872,6.73033333 16.2123867,6.7448 C16.28762,6.81713333 16.2731533,6.95023333 16.2123867,7.02836667 C16.09952,7.17303333 15.9143533,7.24246667 15.7320533,7.24246667 C15.84492,7.17883333 15.97222,7.1412 16.0734867,7.0573 C16.1197867,7.02256667 16.11112,6.9618 16.1197867,6.90973333 L15.9606533,6.93576667 C15.9837867,6.88656667 16.0040533,6.8374 16.0387867,6.7911 L16.0387867,6.7911 Z M18.5011533,6.95023333 C18.8136533,6.80556667 18.7731533,6.95603333 18.5358867,7.06886667 C18.2262867,7.21066667 18.06422,7.29746667 17.7661867,7.4595 C17.7025533,7.4942 17.6764867,7.4074 17.7227867,7.37846667 C18.07292,7.17593333 18.24942,7.06596667 18.5011533,6.95023333 L18.5011533,6.95023333 Z M15.61342,7.70543333 C15.7175867,7.7315 15.8246533,7.67073333 15.9027867,7.60416667 C15.8072867,7.52893333 15.6278867,7.44213333 15.5352867,7.47973333 C15.35012,7.55496667 15.5439867,7.68806667 15.61342,7.70543333 L15.61342,7.70543333 Z M13.47802,6.98783333 C13.68922,7.21933333 13.87152,7.48553333 13.96992,7.79223333 C14.0624867,8.0816 14.0856533,8.38543333 14.14352,8.68346667 C14.1724533,8.8339 14.2013867,8.99306667 14.2997533,9.1117 C14.36632,9.1985 14.46182,9.2477 14.5543867,9.29976667 C14.5746533,9.2043 14.5977867,9.103 14.6874867,9.04803333 C14.9565867,8.86573333 15.2690867,8.7558 15.5786867,8.6574 C15.1012867,8.63716667 14.49362,8.68346667 14.2129533,8.63136667 C14.2187533,8.55613333 14.2187533,8.47513333 14.2650533,8.40276667 C14.3576533,8.24943333 14.5196867,8.16263333 14.67592,8.0816 C14.9102867,7.96006667 15.1504533,7.853 15.4050867,7.78356667 C15.3385533,7.71413333 15.2343867,7.6331 15.2661867,7.52316667 C15.30672,7.38716667 15.4282533,7.26273333 15.57582,7.26273333 C15.7378533,7.26563333 15.8940867,7.3293 16.0329867,7.4103 C16.1197867,7.46526667 16.2239533,7.52316667 16.2528867,7.62443333 C16.2499867,7.69966667 16.2123867,7.7662 16.1689867,7.82406667 C16.0792867,7.93403333 15.92302,7.92533333 15.78992,7.9427 C15.7841533,8.0295 15.7725533,8.13656667 15.6828533,8.1771 C15.65682,8.10763333 15.6278867,8.0411 15.5989533,7.97163333 C15.2777867,8.0295 14.99132,8.19443333 14.7395867,8.3941 C15.4513867,8.397 16.15742,8.37963333 16.86922,8.38253333 C16.91552,8.38543333 16.96182,8.3883 17.0080867,8.397 C16.9762867,8.58506667 16.7881867,8.67476667 16.6203533,8.71526667 C16.28472,8.7905 15.9490867,8.85706667 15.61342,8.92073333 C15.3616867,8.9728 15.1070533,9.03356667 14.8784867,9.1464 C14.7945533,9.18693333 14.72512,9.25636667 14.6672533,9.3345 C14.8321867,9.39526667 15.0057867,9.43286667 15.1822867,9.4647 C15.2401533,9.47916667 15.3211867,9.49073333 15.3356533,9.5602 C15.3587867,9.65276667 15.3616867,9.7801 15.2748867,9.84086667 C15.16202,9.8669 15.0462867,9.83796667 14.9334533,9.8206 C14.6238533,9.7714 14.3286867,9.61226667 14.14932,9.34896667 C14.0161867,9.158 13.9756867,8.91783333 13.9409867,8.68923333 C13.6255867,9.18403333 13.07002,9.48783333 12.6070533,9.69616667 C12.4739533,9.75693333 12.30902,9.7743 12.17592,9.6933 C12.08332,9.6383 12.04862,9.52546667 12.0109867,9.42996667 C11.3512867,9.7772 10.83912,9.92766667 10.1851867,9.92766667 C10.83622,9.6499 11.3541533,9.45603333 11.9675867,9.07696667 C12.0080867,8.9699 12.0109867,8.85706667 12.0688533,8.7529 C12.12672,8.62846667 12.2308867,8.533 12.3437533,8.46066667 C12.27142,8.6198 12.1932867,8.78473333 12.1701533,8.96123333 C12.4160867,8.81076667 12.6533533,8.64293333 12.8616867,8.4375 C12.9137867,8.37963333 12.9918867,8.3044 12.9600533,8.2176 C12.9224533,8.09316667 12.8558867,7.98323333 12.80962,7.8617 C12.7401533,7.6852 12.6562533,7.5 12.67652,7.30613333 C12.6793867,7.24246667 12.7256867,7.19616667 12.75752,7.147 C12.9253533,7.25983333 13.0352867,7.43923333 13.1307867,7.60996667 L13.02372,7.6331 C13.0873867,7.8125 13.1973533,7.97453333 13.2262867,8.1655 C13.24942,8.31306667 13.2146867,8.47513333 13.11052,8.58506667 C12.85012,8.86573333 12.5260533,9.07986667 12.21932,9.31133333 C12.35822,9.4242 12.5607533,9.3692 12.6996533,9.31133333 C13.1278867,9.13193333 13.5358867,8.78183333 13.8946867,8.49246667 C13.8078533,8.14816667 13.6400533,7.82986667 13.4808867,7.50866667 C13.38832,7.3206 13.3535867,7.147 13.47802,6.98783333 L13.47802,6.98783333 Z M8.34492,7.35823333 C8.38832,7.3727 8.44618667,7.34953333 8.46355333,7.3235 C8.48378667,7.28876667 8.44328667,7.21066667 8.39698667,7.1875 C8.38832,7.25693333 8.37385333,7.31193333 8.34492,7.35823333 L8.34492,7.35823333 Z M8.18575333,7.147 C8.14525333,7.1904 8.17998667,7.26853333 8.24652,7.31193333 C8.28125333,7.26563333 8.29862,7.21353333 8.28702,7.16723333 C8.27835333,7.12963333 8.21468667,7.11516667 8.18575333,7.147 L8.18575333,7.147 Z M8.07582,7.16146667 C8.08158667,7.1007 8.16552,7.03126667 8.23785333,7.03413333 C8.31308667,7.03993333 8.39408667,7.08623333 8.39988667,7.16146667 C8.48088667,7.17883333 8.55035333,7.24246667 8.54165333,7.31483333 C8.53298667,7.39003333 8.49535333,7.46526667 8.30152,7.44213333 C8.13945333,7.69386667 7.63598667,7.87036667 7.53182,7.8183 C7.55498667,7.74016667 7.60995333,7.7286 7.67362,7.71123333 C7.88485333,7.65336667 8.07292,7.52316667 8.18575333,7.38716667 C8.11632,7.33506667 8.07002,7.2396 8.07582,7.16146667 L8.07582,7.16146667 Z M14.6527867,7.1441 C14.6585533,7.12096667 14.7077533,7.08913333 14.7598533,7.0949 C14.7077533,7.2309 14.8466533,7.2801 14.8408533,7.42186667 C14.8350533,7.5405 14.7540533,7.5868 14.67302,7.5868 C14.59202,7.5897 14.5283533,7.52603333 14.50232,7.5058 C14.4473533,7.5521 14.3894533,7.61283333 14.3084533,7.5955 C14.18402,7.57233333 14.1232533,7.42766667 14.14352,7.30903333 C14.1579867,7.228 14.2187533,7.1875 14.27662,7.1412 C14.2650533,7.21933333 14.22742,7.29746667 14.2418867,7.37556667 C14.2534867,7.43346667 14.36922,7.49133333 14.3923533,7.39873333 C14.40682,7.33796667 14.4010533,7.24826667 14.40972,7.20196667 C14.4212867,7.12673333 14.4907533,7.1383 14.5254533,7.11226667 C14.5283533,7.1875 14.5138867,7.28876667 14.5572867,7.3698 C14.6035867,7.4508 14.6990867,7.43056667 14.6932867,7.364 C14.68462,7.2772 14.63542,7.20486667 14.6527867,7.1441 L14.6527867,7.1441 Z M8.61688667,7.56366667 C8.77605333,7.4971 8.82522,7.6736 8.68922,7.73436667 C8.35938667,7.88193333 8.12212,7.98323333 7.83855333,8.13366667 C7.78935333,8.15683333 7.71992,8.19156667 7.69965333,8.14236667 C7.67072,8.0816 7.74595333,8.0324 7.80672,7.9977 C8.13078667,7.8067 8.34202,7.6794 8.61688667,7.56366667 L8.61688667,7.56366667 Z M16.60012,7.73436667 C16.6174867,7.66203333 16.7013867,7.65046667 16.7650533,7.6302 C16.77952,7.73436667 16.7910867,7.84723333 16.8576533,7.93403333 C16.82292,7.93693333 16.7881867,7.9427 16.7563533,7.9456 C16.7100533,8.01503333 16.6608867,8.09316667 16.5827533,8.1279 C16.4554533,8.19156667 16.3107533,8.19156667 16.1718867,8.18286667 C16.3194533,8.14236667 16.50172,8.13366667 16.59722,8.00056667 C16.6637867,7.92246667 16.59432,7.82406667 16.60012,7.73436667 L16.60012,7.73436667 Z M12.2106533,7.95716667 C12.2858867,7.88773333 12.4160867,7.92246667 12.4623867,8.00636667 C12.48552,8.05556667 12.4363533,8.09316667 12.4160867,8.1279 C12.3784867,8.10763333 12.3408533,8.0787 12.2974533,8.06713333 C12.2598533,8.05556667 12.2482533,8.09896667 12.2337867,8.125 C12.1874867,8.23496667 12.1643533,8.3536 12.12962,8.46643333 C12.1035867,8.397 12.08332,8.32753333 12.04282,8.2639 C11.99652,8.19733333 11.9183867,8.16263333 11.86052,8.10763333 C11.8055533,8.06133333 11.86342,7.96586667 11.9270867,7.97743333 C12.0138867,7.989 12.0688533,8.07003333 12.12962,8.1279 C12.1527867,8.07003333 12.1701533,8.00346667 12.2106533,7.95716667 L12.2106533,7.95716667 Z M7.57235333,8.59376667 C7.64468667,8.46933333 7.76042,8.37383333 7.89352,8.31306667 C7.85588667,8.40276667 7.80382,8.4838 7.75172,8.56483333 C7.71412,8.62556667 7.71412,8.69503333 7.71122,8.76156667 C7.79802,8.7558 7.88772,8.74133333 7.97742,8.72396667 C7.95428667,8.7934 7.92825333,8.87153333 7.86168667,8.91203333 C7.78645333,8.95833333 7.68228667,8.99596667 7.60705333,8.9323 C7.52025333,8.8426 7.51445333,8.69793333 7.57235333,8.59376667 L7.57235333,8.59376667 Z M13.77892,9.13193333 C13.8570533,9.103 13.92072,9.1464 13.95832,9.18403333 C13.9959533,9.22163333 14.01332,9.294 13.9554533,9.3374 C13.88022,9.39236667 13.74422,9.3345 13.7036867,9.43286667 C13.6834533,9.48496667 13.7181867,9.50233333 13.7673533,9.58043333 C13.8107533,9.65856667 13.7933867,9.7743 13.7152867,9.84953333 C13.7181867,9.71353333 13.6602867,9.57466667 13.6197867,9.52546667 C13.56772,9.4589 13.5792867,9.38366667 13.60532,9.3316 C13.6371533,9.27373333 13.73842,9.2477 13.7702533,9.22743333 C13.69502,9.2043 13.7239533,9.1551 13.77892,9.13193333 L13.77892,9.13193333 Z M16.6955867,9.27373333 C16.73322,9.1985 16.7852867,9.16086667 16.8807867,9.12906667 C16.8084533,9.21586667 16.77082,9.25346667 16.77952,9.32293333 C16.7852867,9.3808 16.86052,9.375 16.8923533,9.44443333 C16.9357533,9.53703333 16.7563533,9.57753333 16.7042867,9.5168 C16.64932,9.45023333 16.6579867,9.34896667 16.6955867,9.27373333 L16.6955867,9.27373333 Z M15.9808867,9.16666667 C16.0879533,9.13483333 16.2702533,9.18403333 16.27892,9.22453333 C16.2962867,9.31423333 16.0879533,9.40103333 15.9924867,9.4589 C15.9461867,9.48783333 15.93172,9.53703333 16.0069533,9.5544 C16.0763867,9.56886667 16.1718867,9.54283333 16.24712,9.49943333 C16.3396867,9.44733333 16.3975533,9.4213 16.50752,9.39816667 C16.42362,9.47336667 16.3425867,9.54573333 16.2586867,9.61516667 C16.15742,9.69616667 16.01852,9.69906667 15.8998867,9.66436667 C15.84202,9.647 15.7638867,9.5949 15.78702,9.51966667 C15.8159867,9.42996667 15.9143533,9.3779 15.9866867,9.32293333 L15.83622,9.32003333 C15.8651533,9.2448 15.9056867,9.18693333 15.9808867,9.16666667 L15.9808867,9.16666667 Z M18.77892,9.42996667 C18.74132,9.38366667 18.7760533,9.31133333 18.82812,9.30266667 C18.9322867,9.2853 19.0219867,9.3692 19.0682867,9.45313333 C19.13772,9.57176667 19.1348533,9.71933333 19.0769533,9.84086667 C19.05672,9.75693333 19.05672,9.66723333 19.01332,9.58913333 C18.9554533,9.5139 18.8483867,9.49943333 18.77892,9.42996667 L18.77892,9.42996667 Z M20.52662,9.48496667 C20.6712867,9.42996667 20.8130867,9.36633333 20.96642,9.3808 C20.93172,9.43576667 20.8911867,9.48496667 20.8246533,9.5081 C20.4195533,9.6441 20.0086867,9.8293 19.8755867,9.85533333 L19.84952,9.78876667 C20.0636533,9.66436667 20.2951533,9.57176667 20.52662,9.48496667 L20.52662,9.48496667 Z" id="Fill-2" fill="#FFFFFF"></path>
            </g>
        </g>
    </g>
</svg>