<?xml version="1.0" encoding="UTF-8"?>
<svg width="426px" height="327px" viewBox="0 0 426 327" version="1.1" xmlns="http://www.w3.org/2000/svg" xmlns:xlink="http://www.w3.org/1999/xlink">
    <title>FDDE0E7A-7DEC-4343-81CC-D3F782E7522F</title>
    <defs>
        <polygon id="path-1" points="5.34691261 1.54473016 425.346913 1.54473016 425.346913 326.54473 5.34691261 326.54473"></polygon>
    </defs>
    <g id="Page-1" stroke="none" stroke-width="1" fill="none" fill-rule="evenodd">
        <g id="Country-Flags" transform="translate(-966.000000, -83.000000)">
            <g id="tw" transform="translate(966.653087, 83.455270)">
                <mask id="mask-2" fill="white">
                    <use xlink:href="#path-1"></use>
                </mask>
                <g id="Path"></g>
                <g id="Group" mask="url(#mask-2)">
                    <g transform="translate(5.346913, 1.544730)">
                        <polygon id="Path" fill="#FF0000" fill-rule="nonzero" points="0 0 470 0 470 325 0 325"></polygon>
                        <polygon id="Path" fill="#000095" fill-rule="nonzero" points="0 0 235 0 235 162.5 0 162.5"></polygon>
                        <g id="Group" stroke-width="1" fill="none" fill-rule="evenodd" transform="translate(58.750000, 20.312500)">
                            <path d="M41.7777778,65.609375 L40.1458333,72.109375 L46.2819444,73.8697917 L45.1069444,69.0625 L41.7777778,65.609375 Z M72.3930556,69.0625 L71.2180556,73.8697917 L77.3541667,72.109375 L75.7222222,65.609375 L72.3930556,69.0625 Z M45.1069444,52.8125 L41.7777778,56.265625 L43.0180556,60.9375 L45.1069444,52.8125 Z" id="Shape" fill="#FFFFFF" fill-rule="nonzero"></path>
                            <polygon id="Path" fill="#FFFFFF" fill-rule="nonzero" points="43.0180556 60.9375 41.7777778 65.609375 45.1069444 69.0625"></polygon>
                            <path d="M41.7777778,56.265625 L37.2736111,60.9375 L41.7777778,65.609375 L43.0180556,60.9375 L41.7777778,56.265625 Z M50.9166667,75.0885417 L54.2458333,78.5416667 L58.75,77.2552083 L50.9166667,75.0885417 Z M63.2541667,78.5416667 L69.5208333,80.234375 L71.2180556,73.8697917 L66.5833333,75.0885417 L63.2541667,78.5416667 Z" id="Shape" fill="#FFFFFF" fill-rule="nonzero"></path>
                            <path d="M66.5833333,75.0885417 L71.2180556,73.8697917 L72.3930556,69.0625 L66.5833333,75.0885417 Z M46.2819444,73.8697917 L47.9791667,80.234375 L54.2458333,78.5416667 L50.9166667,75.0885417 L46.2819444,73.8697917 Z M58.75,77.2552083 L63.2541667,78.5416667 L66.5833333,75.0885417 L58.75,77.2552083 Z" id="Shape" fill="#FFFFFF" fill-rule="nonzero"></path>
                            <path d="M54.2458333,78.5416667 L58.75,83.2135417 L63.2541667,78.5416667 L58.75,77.2552083 L54.2458333,78.5416667 Z M46.2819444,48.0052083 L40.1458333,49.765625 L41.7777778,56.265625 L45.1069444,52.8125 L46.2819444,48.0052083 Z M45.1069444,69.0625 L46.2819444,73.8697917 L50.9166667,75.0885417 L45.1069444,69.0625 Z M74.4819444,60.9375 L75.7222222,56.265625 L72.3930556,52.8125 L74.4819444,60.9375 Z" id="Shape" fill="#FFFFFF" fill-rule="nonzero"></path>
                            <path d="M50.9166667,46.7864583 L46.2819444,48.0052083 L45.1069444,52.8125 L50.9166667,46.7864583 Z M72.3930556,52.8125 L71.2180556,48.0052083 L66.5833333,46.7864583 L72.3930556,52.8125 Z M75.7222222,65.609375 L80.2263889,60.9375 L75.7222222,56.265625 L74.4819444,60.9375 L75.7222222,65.609375 Z" id="Shape" fill="#FFFFFF" fill-rule="nonzero"></path>
                            <polygon id="Path" fill="#FFFFFF" fill-rule="nonzero" points="72.3930556 52.8125 66.5833333 46.7864583 58.75 44.6197917 50.9166667 46.7864583 45.1069444 52.8125 43.0180556 60.9375 45.1069444 69.0625 50.9166667 75.0885417 58.75 77.2552083 66.5833333 75.0885417 72.3930556 69.0625 74.4819444 60.9375"></polygon>
                            <path d="M72.3930556,69.0625 L75.7222222,65.609375 L74.4819444,60.9375 L72.3930556,69.0625 Z M75.7222222,56.265625 L77.3541667,49.765625 L71.2180556,48.0052083 L72.3930556,52.8125 L75.7222222,56.265625 Z M71.2180556,48.0052083 L69.5208333,41.640625 L63.2541667,43.3333333 L66.5833333,46.7864583 L71.2180556,48.0052083 Z M54.2458333,43.3333333 L47.9791667,41.640625 L46.2819444,48.0052083 L50.9166667,46.7864583 L54.2458333,43.3333333 Z M58.75,44.6197917 L54.2458333,43.3333333 L50.9166667,46.7864583 L58.75,44.6197917 Z" id="Shape" fill="#FFFFFF" fill-rule="nonzero"></path>
                            <polygon id="Path" fill="#FFFFFF" fill-rule="nonzero" points="63.2541667 43.3333333 58.75 38.6614583 54.2458333 43.3333333 58.75 44.6197917"></polygon>
                            <path d="M66.5833333,46.7864583 L63.2541667,43.3333333 L58.75,44.6197917 L66.5833333,46.7864583 Z M54.2458333,78.5416667 L47.9791667,80.234375 L50.9166667,91.4739583 L58.75,83.2135417 L54.2458333,78.5416667 Z M50.9166667,91.4739583 L58.75,121.875 L66.5833333,91.4739583 L58.75,83.2135417 L50.9166667,91.4739583 Z M46.2819444,73.8697917 L40.1458333,72.109375 L37.2736111,83.2135417 L47.9791667,80.234375 L46.2819444,73.8697917 Z" id="Shape" fill="#FFFFFF" fill-rule="nonzero"></path>
                            <path d="M37.2736111,83.2135417 L29.4402778,113.75 L50.9166667,91.4739583 L47.9791667,80.234375 L37.2736111,83.2135417 Z M29.4402778,69.0625 L7.83333333,91.4739583 L37.2736111,83.2135417 L40.1458333,72.109375 L29.4402778,69.0625 Z" id="Shape" fill="#FFFFFF" fill-rule="nonzero"></path>
                            <path d="M41.7777778,65.609375 L37.2736111,60.9375 L29.4402778,69.0625 L40.1458333,72.109375 L41.7777778,65.609375 Z M41.7777778,56.265625 L40.1458333,49.765625 L29.4402778,52.8125 L37.2736111,60.9375 L41.7777778,56.265625 Z" id="Shape" fill="#FFFFFF" fill-rule="nonzero"></path>
                            <path d="M29.4402778,52.8125 L0,60.9375 L29.4402778,69.0625 L37.2736111,60.9375 L29.4402778,52.8125 Z M88.1902778,69.0625 L77.3541667,72.109375 L80.2263889,83.2135417 L109.666667,91.4739583 L88.1902778,69.0625 Z" id="Shape" fill="#FFFFFF" fill-rule="nonzero"></path>
                            <path d="M71.2180556,73.8697917 L69.5208333,80.234375 L80.2263889,83.2135417 L77.3541667,72.109375 L71.2180556,73.8697917 Z M63.2541667,78.5416667 L58.75,83.2135417 L66.5833333,91.4739583 L69.5208333,80.234375 L63.2541667,78.5416667 Z M75.7222222,65.609375 L77.3541667,72.109375 L88.1902778,69.0625 L80.2263889,60.9375 L75.7222222,65.609375 Z" id="Shape" fill="#FFFFFF" fill-rule="nonzero"></path>
                            <path d="M66.5833333,91.4739583 L88.1902778,113.75 L80.2263889,83.2135417 L69.5208333,80.234375 L66.5833333,91.4739583 Z M71.2180556,48.0052083 L77.3541667,49.765625 L80.2263889,38.6614583 L69.5208333,41.640625 L71.2180556,48.0052083 Z" id="Shape" fill="#FFFFFF" fill-rule="nonzero"></path>
                            <path d="M88.1902778,52.8125 L109.666667,30.5364583 L80.2263889,38.6614583 L77.3541667,49.765625 L88.1902778,52.8125 Z M80.2263889,38.6614583 L88.1902778,8.125 L66.5833333,30.5364583 L69.5208333,41.640625 L80.2263889,38.6614583 Z M88.1902778,69.0625 L117.5,60.9375 L88.1902778,52.8125 L80.2263889,60.9375 L88.1902778,69.0625 Z" id="Shape" fill="#FFFFFF" fill-rule="nonzero"></path>
                            <path d="M75.7222222,56.265625 L80.2263889,60.9375 L88.1902778,52.8125 L77.3541667,49.765625 L75.7222222,56.265625 Z M50.9166667,30.5364583 L29.4402778,8.125 L37.2736111,38.6614583 L47.9791667,41.640625 L50.9166667,30.5364583 Z" id="Shape" fill="#FFFFFF" fill-rule="nonzero"></path>
                            <polygon id="Path" fill="#FFFFFF" fill-rule="nonzero" points="46.2819444 48.0052083 47.9791667 41.640625 37.2736111 38.6614583 40.1458333 49.765625"></polygon>
                            <path d="M37.2736111,38.6614583 L7.83333333,30.5364583 L29.4402778,52.8125 L40.1458333,49.765625 L37.2736111,38.6614583 Z M63.2541667,43.3333333 L69.5208333,41.640625 L66.5833333,30.5364583 L58.75,38.6614583 L63.2541667,43.3333333 Z" id="Shape" fill="#FFFFFF" fill-rule="nonzero"></path>
                            <polygon id="Path" fill="#FFFFFF" fill-rule="nonzero" points="66.5833333 30.5364583 58.75 0 50.9166667 30.5364583 58.75 38.6614583"></polygon>
                            <polygon id="Path" fill="#FFFFFF" fill-rule="nonzero" points="54.2458333 43.3333333 58.75 38.6614583 50.9166667 30.5364583 47.9791667 41.640625"></polygon>
                        </g>
                        <ellipse id="Oval" fill="#000095" fill-rule="nonzero" cx="117.5" cy="81.25" rx="33.3569444" ry="34.5989583"></ellipse>
                        <ellipse id="Oval" fill="#FFFFFF" fill-rule="nonzero" cx="117.5" cy="81.25" rx="29.4402778" ry="30.5364583"></ellipse>
                    </g>
                </g>
            </g>
        </g>
    </g>
</svg>