<?xml version="1.0" encoding="UTF-8"?>
<svg width="30px" height="20px" viewBox="0 0 30 20" version="1.1" xmlns="http://www.w3.org/2000/svg" xmlns:xlink="http://www.w3.org/1999/xlink">
    <title>EDC4F0DE-5AE1-4F95-ACEC-C3345C649662@2x</title>
    <g id="Flags" stroke="none" stroke-width="1" fill="none" fill-rule="evenodd">
        <g transform="translate(-240.000000, -1545.000000)" id="GB">
            <g transform="translate(240.000000, 1545.000000)">
                <g id="Flag-of-the-United-Kingdom" transform="translate(0.000000, 2.500000)">
                    <polygon id="Fill-1" fill="#012169" points="3.74999375e-05 15 29.9999875 15 29.9999875 0 3.74999375e-05 0"></polygon>
                    <polygon id="Fill-2" fill="#FFFFFF" points="26.6459056 3.75e-05 17.5000708 4.5729375 17.5000708 3.75e-05 12.4998792 3.75e-05 12.4998792 4.5729375 3.35406941 3.75e-05 0 3.75e-05 0 1.6770625 6.64571392 4.9999125 0 4.9999125 0 10.0001125 6.64571392 10.0001125 0 13.3230125 0 14.9999875 3.35401941 14.9999875 12.4998792 10.4270875 12.4998792 14.9999875 17.5000708 14.9999875 17.5000708 10.4270875 26.6459306 14.9999875 30 14.9999875 30 13.3230125 23.3542611 10.0001125 30 10.0001125 30 4.9999125 23.3542611 4.9999125 30 1.6770625 30 3.75e-05"></polygon>
                    <path d="M27.7638187,3.75e-05 L17.7640354,4.9999125 L20.0002067,4.9999125 L29.999965,3.75e-05 L27.7638187,3.75e-05 Z M13.500015,3.75e-05 L13.500015,6.0000375 L1.49999751e-05,6.0000375 L1.49999751e-05,9.0000375 L13.500015,9.0000375 L13.500015,14.9999875 L16.4999625,14.9999875 L16.4999625,9.0000375 L29.999965,9.0000375 L29.999965,6.0000375 L16.4999625,6.0000375 L16.4999625,3.75e-05 L13.500015,3.75e-05 Z M1.49999751e-05,1.1181625 L7.76365206,4.9999125 L9.99977333,4.9999125 L1.49999751e-05,3.75e-05 L1.49999751e-05,1.1181625 Z M20.0002067,10.0001125 L29.999965,14.9999875 L29.999965,13.8819625 L22.2363279,10.0001125 L20.0002067,10.0001125 Z M9.99977333,10.0001125 L1.49999751e-05,14.9999875 L2.23618627,14.9999875 L12.2359196,10.0001125 L9.99977333,10.0001125 Z" id="Fill-3" fill="#C8102E"></path>
                </g>
            </g>
        </g>
    </g>
</svg>