<?xml version="1.0" encoding="UTF-8"?>
<svg width="18px" height="10px" viewBox="0 0 18 10" version="1.1" xmlns="http://www.w3.org/2000/svg" xmlns:xlink="http://www.w3.org/1999/xlink">
    <title>18683DCB-FA84-4638-94EF-3C1D5B1D2500</title>
    <g id="Page-1" stroke="none" stroke-width="1" fill="none" fill-rule="evenodd">
        <g id="01-Register---Access-Code" transform="translate(-1452.000000, -356.000000)" fill="#888B8D" fill-rule="nonzero">
            <g id="Group-7" transform="translate(1135.000000, 142.000000)">
                <g id="Group-5" transform="translate(30.000000, 171.000000)">
                    <g id="Group-4" transform="translate(0.000000, 24.000000)">
                        <path d="M295.75,19 C292.406439,19 289.374322,20.7536033 287.136929,23.6019218 C286.954357,23.835278 286.954357,24.1612903 287.136929,24.3946465 C289.374322,27.2463967 292.406439,29 295.75,29 C299.093561,29 302.125678,27.2463967 304.363071,24.3980782 C304.545643,24.164722 304.545643,23.8387097 304.363071,23.6053535 C302.125678,20.7536033 299.093561,19 295.75,19 Z M295.989849,27.5209334 C293.770354,27.6547701 291.937481,25.9011668 292.077094,23.7700755 C292.191649,22.0130405 293.677278,20.5888813 295.510151,20.4790666 C297.729646,20.3452299 299.562519,22.0988332 299.422906,24.2299245 C299.304771,25.9835278 297.819142,27.407687 295.989849,27.5209334 Z M295.878874,25.8943034 C294.683211,25.9663693 293.695177,25.0226493 293.773934,23.8764585 C293.834791,22.9293068 294.636673,22.1640357 295.624706,22.1022649 C296.820369,22.030199 297.808402,22.973919 297.729646,24.1201098 C297.665209,25.0706932 296.863327,25.8359643 295.878874,25.8943034 Z" id="Shape" transform="translate(295.750000, 24.000000) scale(1, -1) translate(-295.750000, -24.000000) "></path>
                    </g>
                </g>
            </g>
        </g>
    </g>
</svg>