<?xml version="1.0" encoding="UTF-8"?>
<svg width="24px" height="24px" viewBox="0 0 24 24" version="1.1" xmlns="http://www.w3.org/2000/svg" xmlns:xlink="http://www.w3.org/1999/xlink">
    <!-- Generator: sketchtool 58 (101010) - https://sketch.com -->
    <title>4C3669AB-1345-4DB6-953F-02FE0EB0068A</title>
    <desc>Created with sketchtool.</desc>
    <g id="Atoms" stroke="none" stroke-width="1" fill="none" fill-rule="evenodd">
        <g id="Icons" transform="translate(-342.000000, -1844.000000)">
            <g id="Social-Media" transform="translate(120.000000, 1772.000000)">
                <g id="Icons-/-Social-/-White-/-Facebook" transform="translate(218.000000, 68.000000)">
                    <g id="Icons-/-Social-/-Facebook">
                        <rect id="Rectangle" x="0" y="0" width="32" height="32"></rect>
                    </g>
                    <circle id="Oval" fill="#FFFFFF" cx="16" cy="16" r="12"></circle>
                    <g id="streamline-icon-social-media-facebook@16x16" transform="translate(12.000000, 8.000000)" stroke="#000000" stroke-linecap="round" stroke-linejoin="round">
                        <path d="M8.17333333,4.67333333 L5.33333333,4.67333333 L5.33333333,3.4 C5.29666667,3.03333333 5.56333333,2.70666667 5.93,2.67 C5.95333333,2.66733333 5.97666667,2.66666667 6,2.66666667 L8,2.66666667 L8,0 L5.11333333,0 C2.49333333,0 2,2 2,3.24 L2,4.67333333 L0,4.67333333 L0,7.34 L2,7.34 L2,15.0066667 L5.33333333,15.0066667 L5.33333333,7.34 L7.9,7.34 L8.17333333,4.67333333 Z" id="Path"></path>
                    </g>
                </g>
            </g>
        </g>
    </g>
</svg>
