<?xml version="1.0" encoding="UTF-8"?>
<svg width="24px" height="24px" viewBox="0 0 24 24" version="1.1" xmlns="http://www.w3.org/2000/svg" xmlns:xlink="http://www.w3.org/1999/xlink">
    <!-- Generator: sketchtool 58 (101010) - https://sketch.com -->
    <title>2DDB74D1-CD7D-4E5F-9F52-D14823461E87</title>
    <desc>Created with sketchtool.</desc>
    <g id="Atoms" stroke="none" stroke-width="1" fill="none" fill-rule="evenodd">
        <g id="Icons" transform="translate(-232.000000, -1844.000000)">
            <g id="Social-Media" transform="translate(120.000000, 1772.000000)">
                <g id="Icons-/-Social-/-Black-/-Instagram" transform="translate(108.000000, 68.000000)">
                    <g id="Icons-/-Social-/-Instagram">
                        <g>
                            <rect id="Rectangle" x="0" y="0" width="32" height="32"></rect>
                            <circle id="Oval" fill="#000000" cx="16" cy="16" r="12"></circle>
                            <g id="streamline-icon-social-instagram@16x16" transform="translate(8.000000, 8.000000)" stroke="#FFFFFF" stroke-linecap="round" stroke-linejoin="round">
                                <path d="M4.49333333,0.5 L11.4933333,0.5 C13.7026667,0.5 15.4933333,2.29066667 15.4933333,4.5 L15.4933333,11.5 C15.4933333,13.7093333 13.7026667,15.5 11.4933333,15.5 L4.49333333,15.5 C2.284,15.5 0.493333333,13.7093333 0.493333333,11.5 L0.493333333,4.5 C0.493333333,2.29066667 2.284,0.5 4.49333333,0.5 Z" id="Path"></path>
                                <path d="M7.99333333,4.66666667 C9.834,4.66666667 11.3266667,6.15933333 11.3266667,8 C11.3266667,9.84066667 9.834,11.3333333 7.99333333,11.3333333 C6.15266667,11.3333333 4.66,9.84066667 4.66,8 C4.66,6.15933333 6.15266667,4.66666667 7.99333333,4.66666667 Z" id="Path"></path>
                                <path d="M12.8933333,3.43333333 C12.8933333,3.61733333 12.744,3.76666667 12.56,3.76666667 C12.376,3.76666667 12.2266667,3.61733333 12.2266667,3.43333333" id="Path"></path>
                                <path d="M12.2266667,3.43333333 C12.2266667,3.24933333 12.376,3.1 12.56,3.1 C12.744,3.1 12.8933333,3.24933333 12.8933333,3.43333333" id="Path"></path>
                            </g>
                        </g>
                    </g>
                </g>
            </g>
        </g>
    </g>
</svg>