<?xml version="1.0" encoding="UTF-8"?>
<svg width="30px" height="20px" viewBox="0 0 30 20" version="1.1" xmlns="http://www.w3.org/2000/svg" xmlns:xlink="http://www.w3.org/1999/xlink">
    <title>7246B72A-CBCA-422B-9BA8-79396417797C@2x</title>
    <g id="Flags" stroke="none" stroke-width="1" fill="none" fill-rule="evenodd">
        <g transform="translate(-104.000000, -789.000000)" fill-rule="nonzero" id="IN">
            <g transform="translate(104.000000, 789.000000)" id="Flag-of-India">
                <polygon id="Path" fill="#FF9933" points="0 0 30 0 30 6.66666667 0 6.66666667"></polygon>
                <polygon id="Path" fill="#FFFFFF" points="0 6.66666667 30 6.66666667 30 13.3333333 0 13.3333333"></polygon>
                <polygon id="Path" fill="#128807" points="0 13.3333333 30 13.3333333 30 20 0 20"></polygon>
                <ellipse id="Oval" fill="#000088" cx="15.0011425" cy="10" rx="2.7" ry="2.66666667"></ellipse>
                <ellipse id="Oval" fill="#FFFFFF" cx="15.0011425" cy="10" rx="2.3625" ry="2.33333333"></ellipse>
                <ellipse id="Oval" fill="#000088" cx="15.0011425" cy="10" rx="1" ry="1"></ellipse>
                <g id="d" transform="translate(10.705744, 8.131002)" fill="#000088">
                    <g id="c" transform="translate(2.236351, 1.653347)">
                        <g id="b" transform="translate(1.369347, 0.359921)">
                            <g id="a" transform="translate(0.608700, 0.026525)">
                                <circle id="Oval" transform="translate(2.423245, 0.134637) rotate(7.500000) translate(-2.423245, -0.134637) " cx="2.42324479" cy="0.134636526" r="1"></circle>
                                <polygon id="Path" points="0.081 2.16253766 0.162 0.76253766 0.081 0.0958709933 0 0.76253766"></polygon>
                            </g>
                            <g id="a" transform="translate(1.519526, 1.371568) rotate(15.000000) translate(-1.519526, -1.371568) translate(0.239744, 0.290299)">
                                <circle id="Oval" transform="translate(2.423245, 0.134637) rotate(7.500000) translate(-2.423245, -0.134637) " cx="2.42324479" cy="0.134636526" r="1"></circle>
                                <polygon id="Path" points="0.081 2.16253766 0.162 0.76253766 0.081 0.0958709933 0 0.76253766"></polygon>
                            </g>
                        </g>
                        <g id="b-link" transform="translate(2.066255, 1.970100) rotate(30.000000) translate(-2.066255, -1.970100) translate(0.482123, 0.598532)">
                            <g id="b" transform="translate(0.000000, -0.000000)">
                                <g id="a" transform="translate(0.608700, 0.026525)">
                                    <circle id="Oval" transform="translate(2.423245, 0.134637) rotate(7.500000) translate(-2.423245, -0.134637) " cx="2.42324479" cy="0.134636526" r="1"></circle>
                                    <polygon id="Path" points="0.081 2.16253766 0.162 0.76253766 0.081 0.0958709933 0 0.76253766"></polygon>
                                </g>
                                <g id="a-link" transform="translate(1.519526, 1.371568) rotate(15.000000) translate(-1.519526, -1.371568) translate(0.239744, 0.290299)">
                                    <g id="a" transform="translate(0.000000, -0.000000)">
                                        <circle id="Oval" transform="translate(2.423245, 0.134637) rotate(7.500000) translate(-2.423245, -0.134637) " cx="2.42324479" cy="0.134636526" r="1"></circle>
                                        <polygon id="Path" points="0.081 2.16253766 0.162 0.76253766 0.081 0.0958709933 -1.84172677e-12 0.76253766"></polygon>
                                    </g>
                                </g>
                            </g>
                        </g>
                    </g>
                    <g id="c-link" transform="translate(2.861887, 2.925636) rotate(60.000000) translate(-2.861887, -2.925636) translate(0.593081, 0.955536)">
                        <g id="c" transform="translate(0.000000, 0.000000)">
                            <g id="b" transform="translate(1.369347, 0.359921)">
                                <g id="a" transform="translate(0.608700, 0.026525)">
                                    <circle id="Oval" transform="translate(2.423245, 0.134637) rotate(7.500000) translate(-2.423245, -0.134637) " cx="2.42324479" cy="0.134636526" r="1"></circle>
                                    <polygon id="Path" points="0.081 2.16253766 0.162 0.76253766 0.081 0.0958709933 0 0.76253766"></polygon>
                                </g>
                                <g id="a-link" transform="translate(1.519526, 1.371568) rotate(15.000000) translate(-1.519526, -1.371568) translate(0.239744, 0.290299)">
                                    <g id="a" transform="translate(-0.000000, 0.000000)">
                                        <circle id="Oval" transform="translate(2.423245, 0.134637) rotate(7.500000) translate(-2.423245, -0.134637) " cx="2.42324479" cy="0.134636526" r="1"></circle>
                                        <polygon id="Path" points="0.081 2.16253766 0.162 0.76253766 0.081 0.0958709933 0 0.76253766"></polygon>
                                    </g>
                                </g>
                            </g>
                            <g id="b-link" transform="translate(2.066255, 1.970100) rotate(30.000000) translate(-2.066255, -1.970100) translate(0.482123, 0.598532)">
                                <g id="b" transform="translate(0.000000, -0.000000)">
                                    <g id="a" transform="translate(0.608700, 0.026525)">
                                        <circle id="Oval" transform="translate(2.423245, 0.134637) rotate(7.500000) translate(-2.423245, -0.134637) " cx="2.42324479" cy="0.134636526" r="1"></circle>
                                        <polygon id="Path" points="0.081 2.16253766 0.162 0.76253766 0.081 0.0958709933 0 0.76253766"></polygon>
                                    </g>
                                    <g id="a-link" transform="translate(1.519526, 1.371568) rotate(15.000000) translate(-1.519526, -1.371568) translate(0.239744, 0.290299)">
                                        <g id="a" transform="translate(0.000000, 0.000000)">
                                            <circle id="Oval" transform="translate(2.423245, 0.134637) rotate(7.500000) translate(-2.423245, -0.134637) " cx="2.42324479" cy="0.134636526" r="1"></circle>
                                            <polygon id="Path" points="0.081 2.16253766 0.162 0.76253766 0.081 0.0958709933 0 0.76253766"></polygon>
                                        </g>
                                    </g>
                                </g>
                            </g>
                        </g>
                    </g>
                </g>
                <g id="d" transform="translate(14.528837, 8.694681) rotate(120.000000) translate(-14.528837, -8.694681) translate(11.141856, 5.769045)" fill="#000088">
                    <g id="c" transform="translate(2.236351, 1.653347)">
                        <g id="b" transform="translate(1.369347, 0.359921)">
                            <g id="a" transform="translate(0.608700, 0.026525)">
                                <circle id="Oval" transform="translate(2.423245, 0.134637) rotate(7.500000) translate(-2.423245, -0.134637) " cx="2.42324479" cy="0.134636526" r="1"></circle>
                                <polygon id="Path" points="0.081 2.16253766 0.162 0.76253766 0.081 0.0958709933 0 0.76253766"></polygon>
                            </g>
                            <g id="a" transform="translate(1.519526, 1.371568) rotate(15.000000) translate(-1.519526, -1.371568) translate(0.239744, 0.290299)">
                                <circle id="Oval" transform="translate(2.423245, 0.134637) rotate(7.500000) translate(-2.423245, -0.134637) " cx="2.42324479" cy="0.134636526" r="1"></circle>
                                <polygon id="Path" points="0.081 2.16253766 0.162 0.76253766 0.081 0.0958709933 1.84172677e-12 0.76253766"></polygon>
                            </g>
                        </g>
                        <g id="b-link" transform="translate(2.066255, 1.970100) rotate(30.000000) translate(-2.066255, -1.970100) translate(0.482123, 0.598532)">
                            <g id="b" transform="translate(0.000000, -0.000000)">
                                <g id="a" transform="translate(0.608700, 0.026525)">
                                    <circle id="Oval" transform="translate(2.423245, 0.134637) rotate(7.500000) translate(-2.423245, -0.134637) " cx="2.42324479" cy="0.134636526" r="1"></circle>
                                    <polygon id="Path" points="0.081 2.16253766 0.162 0.76253766 0.081 0.0958709933 -9.20863386e-13 0.76253766"></polygon>
                                </g>
                                <g id="a-link" transform="translate(1.519526, 1.371568) rotate(15.000000) translate(-1.519526, -1.371568) translate(0.239744, 0.290299)">
                                    <g id="a" transform="translate(0.000000, 0.000000)">
                                        <circle id="Oval" transform="translate(2.423245, 0.134637) rotate(7.500000) translate(-2.423245, -0.134637) " cx="2.42324479" cy="0.134636526" r="1"></circle>
                                        <polygon id="Path" points="0.081 2.16253766 0.162 0.76253766 0.081 0.0958709933 -4.60431693e-13 0.76253766"></polygon>
                                    </g>
                                </g>
                            </g>
                        </g>
                    </g>
                    <g id="c-link" transform="translate(2.861887, 2.925636) rotate(60.000000) translate(-2.861887, -2.925636) translate(0.593081, 0.955536)">
                        <g id="c" transform="translate(-0.000000, 0.000000)">
                            <g id="b" transform="translate(1.369347, 0.359921)">
                                <g id="a" transform="translate(0.608700, 0.026525)">
                                    <circle id="Oval" transform="translate(2.423245, 0.134637) rotate(7.500000) translate(-2.423245, -0.134637) " cx="2.42324479" cy="0.134636526" r="1"></circle>
                                    <polygon id="Path" points="0.081 2.16253766 0.162 0.76253766 0.081 0.0958709933 0 0.76253766"></polygon>
                                </g>
                                <g id="a-link" transform="translate(1.519526, 1.371568) rotate(15.000000) translate(-1.519526, -1.371568) translate(0.239744, 0.290299)">
                                    <g id="a" transform="translate(0.000000, -0.000000)">
                                        <circle id="Oval" transform="translate(2.423245, 0.134637) rotate(7.500000) translate(-2.423245, -0.134637) " cx="2.42324479" cy="0.134636526" r="1"></circle>
                                        <polygon id="Path" points="0.081 2.16253766 0.162 0.76253766 0.081 0.0958709933 0 0.76253766"></polygon>
                                    </g>
                                </g>
                            </g>
                            <g id="b-link" transform="translate(2.066255, 1.970100) rotate(30.000000) translate(-2.066255, -1.970100) translate(0.482123, 0.598532)">
                                <g id="b" transform="translate(-0.000000, 0.000000)">
                                    <g id="a" transform="translate(0.608700, 0.026525)">
                                        <circle id="Oval" transform="translate(2.423245, 0.134637) rotate(7.500000) translate(-2.423245, -0.134637) " cx="2.42324479" cy="0.134636526" r="1"></circle>
                                        <polygon id="Path" points="0.081 2.16253766 0.162 0.76253766 0.081 0.0958709933 9.20863386e-13 0.76253766"></polygon>
                                    </g>
                                    <g id="a-link" transform="translate(1.519526, 1.371568) rotate(15.000000) translate(-1.519526, -1.371568) translate(0.239744, 0.290299)">
                                        <g id="a" transform="translate(0.000000, 0.000000)">
                                            <circle id="Oval" transform="translate(2.423245, 0.134637) rotate(7.500000) translate(-2.423245, -0.134637) " cx="2.42324479" cy="0.134636526" r="1"></circle>
                                            <polygon id="Path" points="0.081 2.16253766 0.162 0.76253766 0.081 0.0958709933 -1.84172677e-12 0.76253766"></polygon>
                                        </g>
                                    </g>
                                </g>
                            </g>
                        </g>
                    </g>
                </g>
                <g id="d-link" transform="translate(16.381865, 10.248680) rotate(-120.000000) translate(-16.381865, -10.248680) translate(12.994884, 7.323044)" fill="#000088">
                    <g id="d" transform="translate(0.000000, 0.000000)">
                        <g id="c" transform="translate(2.236351, 1.653347)">
                            <g id="b" transform="translate(1.369347, 0.359921)">
                                <g id="a" transform="translate(0.608700, 0.026525)">
                                    <circle id="Oval" transform="translate(2.423245, 0.134637) rotate(7.500000) translate(-2.423245, -0.134637) " cx="2.42324479" cy="0.134636526" r="1"></circle>
                                    <polygon id="Path" points="0.081 2.16253766 0.162 0.76253766 0.081 0.0958709933 0 0.76253766"></polygon>
                                </g>
                                <g id="a-link" transform="translate(1.519526, 1.371568) rotate(15.000000) translate(-1.519526, -1.371568) translate(0.239744, 0.290299)">
                                    <g id="a" transform="translate(0.000000, -0.000000)">
                                        <circle id="Oval" transform="translate(2.423245, 0.134637) rotate(7.500000) translate(-2.423245, -0.134637) " cx="2.42324479" cy="0.134636526" r="1"></circle>
                                        <polygon id="Path" points="0.081 2.16253766 0.162 0.76253766 0.081 0.0958709933 0 0.76253766"></polygon>
                                    </g>
                                </g>
                            </g>
                            <g id="b-link" transform="translate(2.066255, 1.970100) rotate(30.000000) translate(-2.066255, -1.970100) translate(0.482123, 0.598532)">
                                <g id="b" transform="translate(0.000000, -0.000000)">
                                    <g id="a" transform="translate(0.608700, 0.026525)">
                                        <circle id="Oval" transform="translate(2.423245, 0.134637) rotate(7.500000) translate(-2.423245, -0.134637) " cx="2.42324479" cy="0.134636526" r="1"></circle>
                                        <polygon id="Path" points="0.081 2.16253766 0.162 0.76253766 0.081 0.0958709933 0 0.76253766"></polygon>
                                    </g>
                                    <g id="a-link" transform="translate(1.519526, 1.371568) rotate(15.000000) translate(-1.519526, -1.371568) translate(0.239744, 0.290299)">
                                        <g id="a" transform="translate(-0.000000, -0.000000)">
                                            <circle id="Oval" transform="translate(2.423245, 0.134637) rotate(7.500000) translate(-2.423245, -0.134637) " cx="2.42324479" cy="0.134636526" r="1"></circle>
                                            <polygon id="Path" points="0.081 2.16253766 0.162 0.76253766 0.081 0.0958709933 -1.84172677e-12 0.76253766"></polygon>
                                        </g>
                                    </g>
                                </g>
                            </g>
                        </g>
                        <g id="c-link" transform="translate(2.861887, 2.925636) rotate(60.000000) translate(-2.861887, -2.925636) translate(0.593081, 0.955536)">
                            <g id="c" transform="translate(0.000000, 0.000000)">
                                <g id="b" transform="translate(1.369347, 0.359921)">
                                    <g id="a" transform="translate(0.608700, 0.026525)">
                                        <circle id="Oval" transform="translate(2.423245, 0.134637) rotate(7.500000) translate(-2.423245, -0.134637) " cx="2.42324479" cy="0.134636526" r="1"></circle>
                                        <polygon id="Path" points="0.081 2.16253766 0.162 0.76253766 0.081 0.0958709933 0 0.76253766"></polygon>
                                    </g>
                                    <g id="a-link" transform="translate(1.519526, 1.371568) rotate(15.000000) translate(-1.519526, -1.371568) translate(0.239744, 0.290299)">
                                        <g id="a" transform="translate(-0.000000, -0.000000)">
                                            <circle id="Oval" transform="translate(2.423245, 0.134637) rotate(7.500000) translate(-2.423245, -0.134637) " cx="2.42324479" cy="0.134636526" r="1"></circle>
                                            <polygon id="Path" points="0.081 2.16253766 0.162 0.76253766 0.081 0.0958709933 0 0.76253766"></polygon>
                                        </g>
                                    </g>
                                </g>
                                <g id="b-link" transform="translate(2.066255, 1.970100) rotate(30.000000) translate(-2.066255, -1.970100) translate(0.482123, 0.598532)">
                                    <g id="b" transform="translate(-0.000000, 0.000000)">
                                        <g id="a" transform="translate(0.608700, 0.026525)">
                                            <circle id="Oval" transform="translate(2.423245, 0.134637) rotate(7.500000) translate(-2.423245, -0.134637) " cx="2.42324479" cy="0.134636526" r="1"></circle>
                                            <polygon id="Path" points="0.081 2.16253766 0.162 0.76253766 0.081 0.0958709933 -9.20863386e-13 0.76253766"></polygon>
                                        </g>
                                        <g id="a-link" transform="translate(1.519526, 1.371568) rotate(15.000000) translate(-1.519526, -1.371568) translate(0.239744, 0.290299)">
                                            <g id="a" transform="translate(0.000000, -0.000000)">
                                                <circle id="Oval" transform="translate(2.423245, 0.134637) rotate(7.500000) translate(-2.423245, -0.134637) " cx="2.42324479" cy="0.134636526" r="1"></circle>
                                                <polygon id="Path" points="0.081 2.16253766 0.162 0.76253766 0.081 0.0958709933 4.60431693e-13 0.76253766"></polygon>
                                            </g>
                                        </g>
                                    </g>
                                </g>
                            </g>
                        </g>
                    </g>
                </g>
            </g>
        </g>
    </g>
</svg>