<?xml version="1.0" encoding="UTF-8"?>
<svg width="14px" height="20px" viewBox="0 0 14 20" version="1.1" xmlns="http://www.w3.org/2000/svg" xmlns:xlink="http://www.w3.org/1999/xlink">
    <title>Path</title>
    <g id="Symbols" stroke="none" stroke-width="1" fill="none" fill-rule="evenodd">
        <g id="Icon-/-Favorite" transform="translate(-5.000000, -2.000000)" fill="#77002E">
            <path d="M17,2 C17.5107143,2 17.9352041,2.3880102 17.9932398,2.88380102 L18,3 L17.9932398,3.11619898 C17.9396684,3.57385204 17.573852,3.93966837 17.116199,3.9932398 L17,4 L16,4 L16,9 C16,10.6007143 17.2459949,11.9038776 18.8234138,11.9949189 L19,12 L19,14 L12.97,14 L12.97,21 L11.97,22 L10.97,21 L10.97,14 L5,14 L5,12 L5.17658619,11.9949189 C6.69558218,11.9072495 7.90724945,10.6955822 7.99491891,9.17658619 L8,9 L8,4 L7,4 C6.48928571,4 6.06479592,3.6119898 6.0067602,3.11619898 L6,3 L6.0067602,2.88380102 C6.06033163,2.42614796 6.42614796,2.06033163 6.88380102,2.0067602 L7,2 L17,2 Z M15.257,12.125 L15.2131572,12.0728893 C14.5849094,11.2992398 14.1893165,10.3287513 14.1321735,9.26721868 L14.125,9 L14.125,3.875 L9.875,3.875 L9.875,9 C9.875,10.0925417 9.51604847,11.1031771 8.90356915,11.9178283 L8.738,12.125 L15.257,12.125 Z" id="Path"></path>
        </g>
    </g>
</svg>