<?xml version="1.0" encoding="UTF-8"?>
<svg width="16px" height="10px" viewBox="0 0 16 10" version="1.1" xmlns="http://www.w3.org/2000/svg" xmlns:xlink="http://www.w3.org/1999/xlink">
    <title>Icon / Right Copy</title>
    <g id="Symbols" stroke="none" stroke-width="1" fill="none" fill-rule="evenodd">
        <g id="Icon-/-Right-Copy" transform="translate(0.000000, -3.000000)">
            <rect id="Target" fill-rule="nonzero" x="0" y="0" width="16" height="16"></rect>
            <path d="M7.99971764,3 C11.4676173,3 14.4769703,5.02617064 16,8 C14.4769703,10.9738294 11.4676173,13 7.99971764,13 C4.53181802,13 1.52246497,10.9738294 0,8 C1.52246497,5.02617064 4.53181802,3 7.99971764,3 Z M7.99971764,4.28799437 C6.02661208,4.28799437 4.4273462,5.94977115 4.4273462,8 C4.4273462,10.0502288 6.02661208,11.7120056 7.99971764,11.7120056 C9.97282321,11.7120056 11.5720891,10.0502288 11.5720891,8 C11.5720891,5.94977115 9.97282321,4.28799437 7.99971764,4.28799437 Z M7.99949176,6.18847553 C8.96289133,6.18847553 9.74332404,6.99941321 9.74332404,7.99988264 C9.74332404,9.00093886 8.96289133,9.81187654 7.99949176,9.81187654 C7.0366569,9.81187654 6.25622419,9.00093886 6.25622419,7.99988264 C6.25622419,6.99941321 7.0366569,6.18847553 7.99949176,6.18847553 Z" id="Icon-Color" fill="#005694"></path>
        </g>
    </g>
</svg>