<?xml version="1.0" encoding="UTF-8"?>
<svg width="16px" height="16px" viewBox="0 0 16 16" version="1.1" xmlns="http://www.w3.org/2000/svg" xmlns:xlink="http://www.w3.org/1999/xlink">
    <title>60DBE011-C263-4DA9-AD0F-9C0D0024C1A3</title>
    <g id="Page-1" stroke="none" stroke-width="1" fill="none" fill-rule="evenodd">
        <g id="T&amp;C-Header-Banner_Post-Login-Yellow" transform="translate(-1619.000000, -34.000000)">
            <g id="alert" transform="translate(235.000000, 0.000000)">
                <g id="Close-Icon" transform="translate(1384.000000, 33.999333)">
                    <rect id="Target" x="0" y="0.000666666667" width="16" height="16"></rect>
                    <path d="M0.784305503,0.0885911588 L0.853553391,0.146446609 L8,7.293 L15.1464466,0.146446609 C15.3417088,-0.0488155365 15.6582912,-0.0488155365 15.8535534,0.146446609 C16.0271197,0.320012961 16.0464049,0.589437362 15.9114088,0.784305503 L15.8535534,0.853553391 L8.707,8 L15.8535534,15.1464466 C16.0488155,15.3417088 16.0488155,15.6582912 15.8535534,15.8535534 C15.679987,16.0271197 15.4105626,16.0464049 15.2156945,15.9114088 L15.1464466,15.8535534 L8,8.707 L0.853553391,15.8535534 C0.658291245,16.0488155 0.341708755,16.0488155 0.146446609,15.8535534 C-0.0271197425,15.679987 -0.0464048927,15.4105626 0.0885911588,15.2156945 L0.146446609,15.1464466 L7.293,8 L0.146446609,0.853553391 C-0.0488155365,0.658291245 -0.0488155365,0.341708755 0.146446609,0.146446609 C0.320012961,-0.0271197425 0.589437362,-0.0464048927 0.784305503,0.0885911588 Z" id="Icon-Color" fill="#222731"></path>
                </g>
            </g>
        </g>
    </g>
</svg>