<svg version="1.0" xmlns="http://www.w3.org/2000/svg" width="20" height="20" viewBox="0 0 512.000000 512.000000" preserveAspectRatio="xMidYMid meet">
  <g transform="translate(0.000000,512.000000) scale(0.100000,-0.100000)" stroke="none" fill="#63666a">
    <path d="M113 4386 c-63 -28 -63 -32 -63 -481 0 -432 2 -449 49 -474 15 -8 468 -14 819 -11 45 0 58 4 83 29 l29 29 0 426 0 426 -29 32 -29 33 -414 2 c-337 2 -419 0 -445 -11z" />
    <path d="M1473 4393 c-12 -2 -34 -18 -48 -34 l-25 -31 0 -425 0 -425 29 -29 29 -29 334 0 c2628 -1 3211 1 3228 10 48 26 50 42 50 475 0 452 0 454 -65 481 -29 12 -291 14 -1772 13 -956 -1 -1748 -4 -1760 -6z" />
    <path d="M88 3021 l-33 -29 0 -432 0 -432 33 -29 32 -29 416 0 c432 0 442 1 476 44 16 19 18 58 18 446 0 388 -2 427 -18 446 -34 43 -44 44 -476 44 l-416 0 -32 -29z" />
    <path d="M1448 3034 c-15 -8 -32 -23 -38 -34 -14 -26 -14 -854 0 -881 28 -52 -70 -49 1829 -49 l1761 0 32 29 33 29 0 432 0 432 -33 29 -32 29 -1763 0 c-1535 -1 -1766 -3 -1789 -16z" />
    <path d="M275 1703 c-77 -2 -150 -5 -163 -8 -12 -3 -31 -20 -42 -38 -19 -30 -20 -52 -20 -442 0 -389 1 -412 20 -442 32 -52 53 -55 498 -51 l404 3 29 33 29 32 0 426 0 426 -29 29 -29 29 -259 0 c-142 0 -267 2 -278 3 -11 2 -83 2 -160 0z" />
    <path d="M1572 1700 c-120 -5 -124 -6 -148 -33 l-24 -28 0 -424 0 -425 29 -32 29 -33 1749 -3 c1250 -2 1759 0 1786 8 25 7 45 22 57 43 19 30 20 53 20 442 0 390 -1 412 -20 442 -11 18 -30 35 -42 38 -29 7 -3270 12 -3436 5z" />
  </g>
</svg>
