<?xml version="1.0" encoding="UTF-8"?>
<svg width="30px" height="20px" viewBox="0 0 30 20" version="1.1" xmlns="http://www.w3.org/2000/svg" xmlns:xlink="http://www.w3.org/1999/xlink">
    <title>C9F94CC2-4220-4C63-A0D8-0960DC0AF4AA@2x</title>
    <g id="Flags" stroke="none" stroke-width="1" fill="none" fill-rule="evenodd">
        <g transform="translate(-36.000000, -1195.000000)" fill-rule="nonzero" id="PK">
            <g transform="translate(36.000000, 1195.000000)" id="Flag-of-Pakistan">
                <polygon id="Path" fill="#0C590B" points="0 0 30 0 30 20 0 20"></polygon>
                <polygon id="Path" fill="#FFFFFF" points="0 0 8.31 0 8.31 20 0 20"></polygon>
                <path d="M15.1470036,5.4296875 C14.9799148,5.56361478 14.8200953,5.70572975 14.668179,5.85546875 C13.022605,7.60981471 13.1168579,10.303831 14.881319,11.9476205 C16.588862,13.5383845 19.2663491,13.5919791 21.0392616,12.1067748 L21.206,11.9586875 L21.0943643,12.1787901 C20.5299668,13.2153812 19.5846257,14.0169808 18.4379763,14.4234694 C17.2094233,14.8589928 15.8511854,14.8049952 14.6641212,14.2734375 C12.1810094,13.1667055 11.1000423,10.331764 12.2497089,7.94140625 C12.8041388,6.74819333 13.8563962,5.83597185 15.1470036,5.4296875 Z M18.474429,6.3515625 L19.3428059,7.2734375 L20.5317518,6.7890625 L19.8865559,7.8671875 L20.7387014,8.8046875 L20.7346436,8.8046875 L19.4685988,8.546875 L18.8031137,9.61328125 L18.6651473,8.37890625 L17.4072182,8.09765625 L18.5839906,7.58984375 L18.474429,6.3515625 Z" id="Path-2" fill="#FFFFFF"></path>
            </g>
        </g>
    </g>
</svg>