<svg id="Layer_1" data-name="Layer 1" xmlns="http://www.w3.org/2000/svg" viewBox="0 0 30 20"><defs><style>.cls-1{fill:#f4f4f4;}.cls-1,.cls-2,.cls-3{fill-rule:evenodd;}.cls-2{fill:#ff1612;}.cls-3{fill:#0437a0;}</style></defs><path class="cls-1" d="M30,1.54V3.08H15.2V1.54Zm0,3.08V6.15H15.2V4.62Zm0,3.07V9.23H15.2V7.69Zm0,3.08v1.54H0V10.77Zm0,3.08v1.53H0V13.85Zm0,3.07v1.54H0V16.92Z"/><path class="cls-2" d="M0,0H30V1.54H0V0ZM0,18.46H30V20H0V18.46Zm0-3.08H30v1.54H0V15.38Zm0-3.07H30v1.54H0V12.31ZM0,9.23H30v1.54H0V9.23ZM0,6.15H30V7.69H0V6.15ZM0,3.08H30V4.62H0V3.08Z"/><polygon class="cls-3" points="0 0 15.2 0 15.2 10.77 0 10.77 0 0 0 0"/><path class="cls-1" d="M13.93.53l.14.43h.45l-.36.26.14.43-.37-.27-.36.27.14-.43L13.35,1h.45l.13-.43ZM1.27,4.83l.13.42h.45l-.36.27.14.42-.36-.26L.9,5.94,1,5.52.68,5.25h.45l.14-.42ZM2.53,5.9l.14.43h.45l-.36.26L2.89,7l-.36-.27L2.17,7l.14-.43L2,6.33h.44l.14-.43Zm10.14,0,.13.43h.45l-.36.26L13,7l-.36-.27L12.3,7l.14-.43-.36-.26h.45l.14-.43Zm-2.54,0,.14.43h.45l-.36.26L10.5,7l-.37-.27L9.77,7l.14-.43-.36-.26H10l.13-.43ZM7.6,5.9l.14.43h.45l-.37.26L8,7,7.6,6.75,7.24,7l.14-.43L7,6.33h.45L7.6,5.9Zm-2.53,0,.13.43h.45l-.36.26L5.43,7l-.36-.27L4.7,7l.14-.43-.36-.26h.45l.14-.43ZM3.8,4.83l.14.42h.45L4,5.52l.14.42L3.8,5.68l-.36.26.14-.42-.37-.27h.45l.14-.42Zm7.6,0,.14.42H12l-.37.27.14.42-.36-.26L11,5.94l.14-.42-.37-.27h.45l.14-.42Zm2.53,0,.14.42h.45l-.36.27.14.42-.37-.26-.36.26.14-.42-.36-.27h.45l.13-.42Zm0,2.14.14.43h.45l-.36.26.14.43-.37-.27-.36.27.14-.43-.36-.26h.45L13.93,7ZM11.4,7l.14.43H12l-.37.26.14.43-.36-.27L11,8.09l.14-.43-.37-.26h.45L11.4,7ZM3.8,7l.14.43h.45L4,7.66l.14.43L3.8,7.82l-.36.27.14-.43L3.21,7.4h.45L3.8,7ZM2.53,8.05l.14.42h.45l-.36.27.13.42L2.53,8.9l-.36.26.14-.42L2,8.47h.44l.14-.42Zm10.14,0,.13.42h.45l-.36.27.14.42-.36-.26-.37.26.14-.42-.36-.27h.45l.14-.42Zm-2.54,0,.14.42h.45l-.36.27.14.42-.37-.26-.36.26.14-.42-.36-.27H10l.13-.42Zm-2.53,0,.14.42h.45l-.37.27L8,9.16,7.6,8.9l-.36.26.14-.42L7,8.47h.45l.14-.42Zm-2.53,0,.13.42h.45l-.36.27.14.42L5.07,8.9l-.37.26.14-.42-.36-.27h.45l.14-.42ZM1.27,7l.13.43h.45l-.36.26.14.43-.36-.27L.9,8.09,1,7.66.68,7.4h.45L1.27,7Zm0,2.15.13.43h.45l-.36.26.14.43L1.27,10l-.37.27L1,9.81.68,9.55h.45l.14-.43Zm2.53,0,.14.43h.45L4,9.81l.14.43L3.8,10l-.36.27.14-.43-.37-.26h.45l.14-.43Zm7.6,0,.14.43H12l-.37.26.14.43L11.4,10l-.36.27.14-.43-.37-.26h.45l.14-.43Zm2.53,0,.14.43h.45l-.36.26.14.43L13.93,10l-.36.27.14-.43-.36-.26h.45l.13-.43ZM2.53,3.75l.14.43h.45l-.36.26.13.43L2.53,4.6l-.36.27.14-.43L2,4.18h.44l.14-.43Zm0-2.14L2.67,2h.45l-.36.27.13.42-.36-.26-.36.26.14-.42L2,2h.44l.14-.42Zm10.14,0L12.8,2h.45l-.36.27.14.42-.36-.26-.37.26.14-.42L12.08,2h.45l.14-.42Zm-2.54,0,.14.42h.45l-.36.27.14.42-.37-.26-.36.26.14-.42L9.55,2H10l.13-.42Zm-2.53,0L7.74,2h.45l-.37.27L8,2.72,7.6,2.46l-.36.26.14-.42L7,2h.45l.14-.42Zm-2.53,0L5.2,2h.45l-.36.27.14.42-.36-.26-.37.26.14-.42L4.48,2h.45l.14-.42ZM1.27,2.68l.13.43h.45l-.36.26.14.42-.36-.26L.9,3.79,1,3.37.68,3.11h.45l.14-.43Zm11.4,1.07.13.43h.45l-.36.26.14.43-.36-.27-.37.27.14-.43-.36-.26h.45l.14-.43Zm-2.54,0,.14.43h.45l-.36.26.14.43-.37-.27-.36.27.14-.43-.36-.26H10l.13-.43Zm-2.53,0,.14.43h.45l-.37.26L8,4.87,7.6,4.6l-.36.27.14-.43L7,4.18h.45l.14-.43Zm-2.53,0,.13.43h.45l-.36.26.14.43L5.07,4.6l-.37.27.14-.43-.36-.26h.45l.14-.43ZM3.8,2.68l.14.43h.45L4,3.37l.14.42L3.8,3.53l-.36.26.14-.42-.37-.26h.45l.14-.43ZM3.8.53,3.94,1h.45L4,1.22l.14.43L3.8,1.38l-.36.27.14-.43L3.21,1h.45L3.8.53ZM1.27.53,1.4,1h.45l-.36.26.14.43-.36-.27L.9,1.65,1,1.22.68,1h.45L1.27.53ZM6.33,9.12l.14.43h.45l-.36.26.14.43L6.33,10,6,10.24l.14-.43-.36-.26H6.2l.13-.43ZM6.33,7l.14.43h.45l-.36.26.14.43-.37-.27L6,8.09l.14-.43L5.75,7.4H6.2L6.33,7Zm0-2.14.14.42h.45l-.36.27.14.42-.37-.26L6,5.94l.14-.42-.36-.27H6.2l.13-.42Zm0-2.15.14.43h.45l-.36.26.14.42-.37-.26L6,3.79l.14-.42-.36-.26H6.2l.13-.43Zm0-2.15L6.47,1h.45l-.36.26.14.43-.37-.27L6,1.65l.14-.43L5.75,1H6.2L6.33.53ZM8.87,9.12,9,9.55h.45l-.36.26.14.43L8.87,10l-.36.27.13-.43-.36-.26h.45l.14-.43ZM8.87,7,9,7.4h.45l-.36.26.14.43-.36-.27-.36.27.13-.43L8.28,7.4h.45L8.87,7Zm0-2.14L9,5.25h.45l-.36.27.14.42-.36-.26-.36.26.13-.42-.36-.27h.45l.14-.42Zm0-2.15L9,3.11h.45l-.36.26.14.42-.36-.26-.36.26.13-.42-.36-.26h.45l.14-.43Zm0-2.15L9,1h.45l-.36.26.14.43-.36-.27-.36.27.13-.43L8.28,1h.45L8.87.53ZM11.4,2.68l.14.43H12l-.37.26.14.42-.36-.26L11,3.79l.14-.42-.37-.26h.45l.14-.43Zm0-2.15.14.43H12l-.37.26.14.43-.36-.27L11,1.65l.14-.43L10.81,1h.45L11.4.53Zm2.53,2.15.14.43h.45l-.36.26.14.42-.37-.26-.36.26.14-.42-.36-.26h.45l.13-.43Z"/></svg>