<?xml version="1.0" encoding="UTF-8"?>
<svg width="21px" height="21px" viewBox="0 0 21 21" version="1.1" xmlns="http://www.w3.org/2000/svg" xmlns:xlink="http://www.w3.org/1999/xlink">
    <!-- Generator: sketchtool 55.2 (78181) - https://sketchapp.com -->
    <title>48A016DA-21C6-4824-AB96-1292F6658978</title>
    <desc>Created with sketchtool.</desc>
    <g id="Design-System" stroke="none" stroke-width="1" fill="none" fill-rule="evenodd">
        <g id="Icons" transform="translate(-316.000000, -1242.000000)">
            <g id="Icon/Alarm_blue" transform="translate(313.000000, 1239.000000)">
                <g id="noun_Alarm_577241" transform="translate(3.000000, 3.000000)">
                    <path d="M2.50282759,5.87296552 L2.50282759,5.87296552 C2.21710345,5.87296552 1.98558621,5.64124138 1.98558621,5.35572414 C1.98558621,3.4977931 3.49758621,1.9857931 5.35551724,1.98558621 C5.64124138,1.98558621 5.87275862,2.21710345 5.87275862,2.50282759 C5.87275862,2.78855172 5.64124138,3.02006897 5.35551724,3.02006897 C4.0677931,3.02027586 3.02006897,4.068 3.02006897,5.35572414 C3.02006897,5.64144828 2.78855172,5.87296552 2.50282759,5.87296552 Z" id="Path" fill="#001489" fill-rule="nonzero"></path>
                    <path d="M0.517241379,5.81048276 C0.231517241,5.81048276 0,5.57896552 0,5.29324138 C0,2.37475862 2.37455172,0 5.29324138,0 C5.57896552,0 5.81048276,0.231517241 5.81048276,0.517241379 C5.81048276,0.802965517 5.57896552,1.03448276 5.29324138,1.03448276 C2.94496552,1.03448276 1.03448276,2.94496552 1.03448276,5.29324138 C1.03448276,5.57896552 0.802965517,5.81048276 0.517241379,5.81048276 Z" id="Path" fill="#001489" fill-rule="nonzero"></path>
                    <path d="M18.4969655,15.1270345 L18.4969655,15.1270345 C18.7826897,15.1270345 19.0142069,15.3587586 19.0142069,15.6442759 C19.0142069,17.5022069 17.5024138,19.014 15.6444828,19.0144138 C15.3587586,19.0144138 15.1272414,18.7828966 15.1272414,18.4971724 C15.1272414,18.2114483 15.3587586,17.9797241 15.6444828,17.9797241 C16.932,17.9797241 17.9797241,16.932 17.9797241,15.6442759 C17.9797241,15.3585517 18.2114483,15.1270345 18.4969655,15.1270345 Z" id="Path" fill="#001489" fill-rule="nonzero"></path>
                    <path d="M20.4827586,15.1895172 C20.7684828,15.1895172 21,15.4210345 21,15.7067586 C21,18.6252414 18.6254483,20.9997931 15.7067586,21 C15.4210345,21 15.1895172,20.7684828 15.1895172,20.4827586 C15.1895172,20.1970345 15.4210345,19.9655172 15.7067586,19.9655172 C18.0550345,19.9653103 19.9655172,18.0550345 19.9655172,15.7067586 C19.9655172,15.4210345 20.1970345,15.1895172 20.4827586,15.1895172 Z" id="Path" fill="#001489" fill-rule="nonzero"></path>
                    <path d="M13.2722079,15.6892871 C13.0690693,15.4863564 13.0690693,15.1572178 13.2722079,14.9542871 L18.2433861,9.98310891 C20.2560594,7.97022772 20.2560594,4.69526733 18.2433861,2.68280198 L18.1094851,2.54869307 C16.096604,0.535811881 12.8216436,0.535811881 10.8089703,2.54869307 L5.838,7.51987129 C5.63486139,7.7230099 5.30593069,7.7230099 5.10279208,7.51987129 C4.89965347,7.31673267 4.89965347,6.98759406 5.10279208,6.78466337 L10.0739703,1.81369307 C12.4920891,-0.604425743 16.4265743,-0.604425743 18.8446931,1.81369307 L18.978802,1.94780198 C21.3967129,4.36571287 21.3967129,8.30019802 18.9785941,10.7185248 L14.0072079,15.6892871 C13.8042772,15.8924257 13.4753465,15.8924257 13.2722079,15.6892871 Z" id="Path" fill="#001489" fill-rule="nonzero"></path>
                    <path d="M12.0720891,20.6398812 L0.15219802,8.7199901 C-0.0118514851,8.55614851 -0.0471980198,8.30352475 0.0650792079,8.10059406 C0.177356436,7.89787129 0.410643564,7.79391089 0.636445545,7.84609901 C3.04416832,8.40062376 4.47112871,7.41611881 5.10757426,6.77967327 C5.31050495,6.57653465 5.63964356,6.57653465 5.84278218,6.77967327 C6.04571287,6.98281188 6.04571287,7.31174257 5.84278218,7.51467327 C5.20633663,8.15111881 3.94051485,9.07033663 1.95341584,9.051 L11.7369208,18.834505 C11.7163366,16.8559307 12.6382574,15.5884455 13.277198,14.949297 C13.4803366,14.7461584 13.8094752,14.7461584 14.012198,14.949297 C14.2153366,15.1524356 14.2153366,15.4815743 14.012198,15.684297 C13.3720099,16.3244851 12.382099,17.7564356 12.9455644,20.1533465 C12.9987921,20.3793564 12.8954554,20.6132673 12.6923168,20.7263762 C12.4893861,20.8394851 12.2363465,20.8041386 12.0720891,20.6398812 Z" id="Path" fill="#001489" fill-rule="nonzero"></path>
                    <path d="M4.73435644,16.0577228 C3.78519802,15.1085644 3.78540594,13.5639208 4.73435644,12.6147624 C4.93749505,12.4116238 5.26642574,12.4116238 5.46956436,12.6147624 C5.67249505,12.817901 5.67249505,13.1468317 5.46956436,13.3497624 C4.92564356,13.8936832 4.92564356,14.7785941 5.46956436,15.3223069 C6.01348515,15.8662277 6.89839604,15.8662277 7.44231683,15.3223069 C7.64545545,15.1193762 7.97438614,15.1193762 8.17752475,15.3223069 C8.38066337,15.5254455 8.38066337,15.8545842 8.17752475,16.0575149 C7.22815842,17.0070891 5.68351485,17.0070891 4.73435644,16.0577228 Z" id="Path" fill="#001489" fill-rule="nonzero"></path>
                    <g id="Group" transform="translate(4.000000, 12.000000)"></g>
                </g>
            </g>
        </g>
    </g>
</svg>