<?xml version="1.0" encoding="UTF-8"?>
<svg width="26px" height="23px" viewBox="0 0 26 23" version="1.1" xmlns="http://www.w3.org/2000/svg" xmlns:xlink="http://www.w3.org/1999/xlink">
    <title>Icons/Alert-Triangle-Filled-Exclamation</title>
    <g id="Page-1" stroke="none" stroke-width="1" fill="none" fill-rule="evenodd">
        <g id="Change-Address" transform="translate(-1138.000000, -664.000000)">
            <g id="Teaser" transform="translate(1120.000000, 641.000000)">
                <g id="Icons/Alert-Triangle-Filled-Exclamation" transform="translate(18.819754, 21.606557)">
                    <rect id="Target" fill-rule="nonzero" x="0" y="0" width="25" height="25"></rect>
                    <path d="M12.5,1.5625 L25,23.4375 L0,23.4375 L12.5,1.5625 Z M12.5,20.8333333 C13.2191208,20.8333333 13.8020833,20.2503708 13.8020833,19.53125 C13.8020833,18.8121292 13.2191208,18.2291667 12.5,18.2291667 C11.7808792,18.2291667 11.1979167,18.8121292 11.1979167,19.53125 C11.1979167,20.2503708 11.7808792,20.8333333 12.5,20.8333333 Z M11.4583333,10.9375 L11.4583333,15.1041667 C11.4583333,15.6794633 11.9247034,16.1458333 12.5,16.1458333 C13.0752966,16.1458333 13.5416667,15.6794633 13.5416667,15.1041667 L13.5416667,10.9375 C13.5416667,10.3622034 13.0752966,9.89583333 12.5,9.89583333 C11.9247034,9.89583333 11.4583333,10.3622034 11.4583333,10.9375 Z" id="Icon-Color" fill="#FFD100"></path>
                </g>
            </g>
        </g>
    </g>
</svg>