<?xml version="1.0" encoding="UTF-8"?>
<svg width="79px" height="63px" viewBox="0 0 79 63" version="1.1" xmlns="http://www.w3.org/2000/svg" xmlns:xlink="http://www.w3.org/1999/xlink">
    <!-- Generator: sketchtool 55.2 (78181) - https://sketchapp.com -->
    <title>DC738E94-DE9C-42CF-9C84-34A141201CB4</title>
    <desc>Created with sketchtool.</desc>
    <g id="Design-System" stroke="none" stroke-width="1" fill="none" fill-rule="evenodd">
        <g id="Icons" transform="translate(-995.000000, -1395.000000)">
            <g id="Icon/groß/benutzerkonto_white" transform="translate(983.000000, 1376.000000)">
                <path d="M85.0154824,66.5677173 C85.5345702,66.7973714 86.2614252,67.195009 86.9994641,67.7527225 C88.3509488,68.7739983 89.2160066,69.9609107 89.25,71.4191534 L89.25,75.283483 C89.25,78.0070101 87.163615,80.25 84.5429687,80.25 L32.4570312,80.25 C29.836385,80.25 27.75,78.0070101 27.75,75.283483 L27.75,71.4191534 C27.75,70.028174 28.6048398,68.854146 29.9617338,67.8002042 C30.6922636,67.232779 31.411806,66.816995 31.9118181,66.5778064 L48.983882,58.3028557 C45.1418552,54.0783037 42.4896271,47.0170702 42.4896271,42.2085578 L42.4896271,35.2997266 C42.4896271,28.1879364 50.455231,20.75 58.5,20.75 C66.5420226,20.75 74.5172833,28.1983407 74.5172833,35.3034385 L74.5172833,42.2085578 C74.5172833,47.2676193 71.906401,54.1813923 68.0360711,58.3486487 L85.0154824,66.5677173 Z" id="Shape" stroke="#FFFFFF" stroke-width="2.5"></path>
                <g id="Group" transform="translate(23.500000, 49.500000) rotate(-315.000000) translate(-23.500000, -49.500000) translate(15.000000, 41.000000)" fill="#FFFFFF">
                    <path d="M8.42227834,-2.00862216 L8.79840866,-2.01378558 C9.35064138,-2.02136648 9.80445999,-1.57983895 9.8120409,-1.02760624 C9.81216339,-1.0186834 9.81216643,-1.00975933 9.81205004,-1.00083642 L9.56391015,18.0217597 C9.55684248,18.5635726 9.11952953,19.0011844 8.57772166,19.0086222 L8.20159134,19.0137856 C7.64935862,19.0213665 7.19554001,18.579839 7.1879591,18.0276062 C7.18783661,18.0186834 7.18783357,18.0097593 7.18794996,18.0008364 L7.43608985,-1.02175974 C7.44315752,-1.56357257 7.88047047,-2.00118436 8.42227834,-2.00862216 Z" id="Rectangle" transform="translate(8.500000, 8.500000) rotate(-45.000000) translate(-8.500000, -8.500000) "></path>
                    <path d="M8.20159108,-2.01378531 L8.57772196,-2.00862188 C9.11952983,-2.00118409 9.55684278,-1.56357229 9.56391044,-1.02175947 L9.8120503,18.0008362 C9.81925396,18.5530739 9.37741651,19.0065908 8.82517874,19.0137945 C8.81625583,19.0139108 8.80733175,19.0139078 8.79840892,19.0137853 L8.42227804,19.0086219 C7.88047017,19.0011841 7.44315722,18.5635723 7.43608956,18.0217595 L7.1879497,-1.00083615 C7.18074604,-1.55307392 7.62258349,-2.0065908 8.17482126,-2.01379446 C8.18374417,-2.01391085 8.19266825,-2.0139078 8.20159108,-2.01378531 Z" id="Rectangle" transform="translate(8.500000, 8.500000) rotate(45.000000) translate(-8.500000, -8.500000) "></path>
                </g>
            </g>
        </g>
    </g>
</svg>