<?xml version="1.0" encoding="UTF-8"?>
<svg width="16px" height="18px" viewBox="0 0 16 18" version="1.1" xmlns="http://www.w3.org/2000/svg" xmlns:xlink="http://www.w3.org/1999/xlink">
    <!-- Generator: Sketch 54.1 (76490) - https://sketchapp.com -->
    <title>Icon/Box_Blue</title>
    <desc>Created with Sketch.</desc>
    <g id="Design-System" stroke="none" stroke-width="1" fill="none" fill-rule="evenodd">
        <g id="Icons" transform="translate(-318.000000, -1132.000000)" fill="#001489" fill-rule="nonzero">
            <g id="Icon/Box_Blue" transform="translate(313.000000, 1128.000000)">
                <path d="M14.4,15.701989 L17.6,14.0872429 C17.8209139,13.9757679 18,13.8853996 18,14.3853996 C18,14.8853996 17.8209139,14.9757679 17.6,15.0872429 L14.4,16.701989 C14.1790861,16.813464 14,16.6799746 14,16.4038323 C14,16.1276899 14.1790861,15.813464 14.4,15.701989 Z M14.375,17.7146042 L16.625,16.5792359 C16.8321068,16.4747281 17,16.3900078 17,16.8900078 C17,17.3900078 16.8321068,17.4747281 16.625,17.5792359 L14.375,18.7146042 C14.1678932,18.819112 14,18.6799746 14,18.4038323 C14,18.1276899 14.1678932,17.819112 14.375,17.7146042 Z M20.9926639,8.11496988 C20.9926639,8.04865881 20.9779917,7.98234775 20.9486474,7.91972063 C20.8899587,7.7944664 20.7762494,7.7097356 20.651536,7.68394796 L13.1797341,4.04420738 C13.0586887,3.98526421 12.915635,3.98526421 12.7945896,4.04420738 L5.24942687,7.7171035 C5.10270518,7.78709851 5.00733608,7.93445643 5,8.10023408 L5,8.10391803 C5,8.10760198 5,8.11128593 5,8.11865382 L5,17.3358916 C5,17.5053532 5.0953691,17.6600791 5.24942687,17.733758 L12.7945896,21.4066541 C12.7982577,21.4066541 12.7982577,21.4066541 12.8019257,21.4103381 C12.8129298,21.414022 12.823934,21.417706 12.8349381,21.4250739 C12.8386061,21.4250739 12.8422742,21.4287578 12.8496103,21.4287578 C12.8606144,21.4324418 12.8716185,21.4361257 12.8826227,21.4398097 C12.8862907,21.4398097 12.8899587,21.4434936 12.8936268,21.4434936 C12.9046309,21.4471776 12.9193031,21.4471776 12.9303072,21.4508615 C12.9339752,21.4508615 12.9376433,21.4508615 12.9413113,21.4508615 C12.9559835,21.4508615 12.9743237,21.4545455 12.9889959,21.4545455 C13.003668,21.4545455 13.0220083,21.4545455 13.0366804,21.4508615 C13.0403485,21.4508615 13.0440165,21.4508615 13.0476845,21.4508615 C13.0586887,21.4508615 13.0733608,21.4471776 13.084365,21.4434936 C13.088033,21.4434936 13.0917011,21.4398097 13.0953691,21.4398097 C13.1063732,21.4361257 13.1173773,21.4324418 13.1283815,21.4287578 C13.1320495,21.4287578 13.1357176,21.4250739 13.1430536,21.4250739 C13.1540578,21.4213899 13.1650619,21.417706 13.176066,21.4103381 C13.1797341,21.4103381 13.1797341,21.4103381 13.1834021,21.4066541 L20.7505731,17.7227062 C20.9009629,17.6490272 21,17.4943014 21,17.3248398 L21,8.12602172 C20.9926639,8.12233777 20.9926639,8.11865382 20.9926639,8.11496988 Z M12.9853278,4.93203883 L19.5291151,8.11865382 L17.1192114,9.29383322 L10.5754241,6.10721824 L12.9853278,4.93203883 Z M12.9853278,11.3052688 L6.44154058,8.11865382 L9.56671252,6.59718331 L16.1104998,9.7837983 L12.9853278,11.3052688 Z M5.88033012,8.82965578 L12.5451628,12.0752139 L12.5451628,20.3014697 L5.88033012,17.0559116 L5.88033012,8.82965578 Z M13.4254929,20.3014697 L13.4254929,12.0752139 L16.5543329,10.5500595 L16.5543329,11.7014851 C16.5543329,11.9446257 16.7524072,12.1435588 16.9944979,12.1435588 C17.2365887,12.1435588 17.434663,11.9446257 17.434663,11.7014851 L17.434663,10.1190376 L20.1123338,8.81491999 L20.1123338,17.0411758 L13.4254929,20.3014697 Z" id="Shape"></path>
            </g>
        </g>
    </g>
</svg>