<?xml version="1.0" encoding="UTF-8"?>
<svg width="20px" height="20px" viewBox="0 0 20 20" version="1.1" xmlns="http://www.w3.org/2000/svg" xmlns:xlink="http://www.w3.org/1999/xlink">
    <!-- Generator: sketchtool 55.2 (78181) - https://sketchapp.com -->
    <title>13CEBD88-171B-4ECE-80EA-3C1F1B82C3CA</title>
    <desc>Created with sketchtool.</desc>
    <defs>
        <path d="M3.75919926,1.00032284 C3.42119926,1.00232284 3.09119926,1.10232284 2.81419926,1.28532284 L2.81419926,1.28532284 C2.78419926,1.30532284 -0.0388007374,3.24532284 0.000199262597,4.34832284 L0.000199262597,4.34832284 C0.103199263,7.44932284 3.28219926,11.0953228 5.92819926,13.6043228 L5.92819926,13.6043228 C8.57419926,16.1123228 12.4101993,19.1303228 15.6951993,19.2443228 L15.6951993,19.2443228 L15.7221993,19.2443228 C16.8711993,19.2443228 18.8941993,16.6013228 18.9121993,16.5733228 L18.9121993,16.5733228 C19.4421993,15.8303228 19.2471993,15.0513228 18.7641993,14.7303228 L18.7641993,14.7303228 C18.4641993,14.5333228 15.2581993,12.5083228 14.8641993,12.2813228 L14.8641993,12.2813228 C14.6831993,12.1813228 14.4751993,12.1303228 14.2641993,12.1333228 L14.2641993,12.1333228 C13.9361993,12.1393228 13.6151993,12.2213228 13.3281993,12.3723228 L13.3281993,12.3723228 C13.0281993,12.5263228 12.0831993,13.0313228 11.6241993,13.2793228 L11.6241993,13.2793228 C10.6071993,12.5643228 9.65519926,11.7703228 8.77819926,10.9053228 L8.77819926,10.9053228 C7.86619926,10.0713228 7.02819926,9.16932284 6.27319926,8.20532284 L6.27319926,8.20532284 C6.53419926,7.77032284 7.06819926,6.88332284 7.23019926,6.58932284 L7.23019926,6.58932284 C7.53019926,6.03832284 7.57219926,5.48832284 7.32319926,5.11632284 L7.32319926,5.11632284 C7.07419926,4.74332284 4.95919926,1.70332284 4.74019926,1.41932284 L4.74019926,1.41932284 C4.51119926,1.15232284 4.16819926,0.999322839 3.80819926,0.999322839 L3.80819926,0.999322839 C3.79219926,0.999322839 3.77519926,0.999322839 3.75919926,1.00032284" id="path-1"></path>
    </defs>
    <g id="Design-System" stroke="none" stroke-width="1" fill="none" fill-rule="evenodd">
        <g id="Icons" transform="translate(-316.000000, -1638.000000)">
            <g id="Icon/callback-service" transform="translate(313.000000, 1635.000000)">
                <g id="Group" transform="translate(3.035801, 3.665677)">
                    <mask id="mask-2" fill="white">
                        <use xlink:href="#path-1"></use>
                    </mask>
                    <g id="Clip-2"></g>
                    <path d="M3.80989926,1.99982284 L3.79889926,1.99982284 C3.62189926,2.00082284 3.48089926,2.04282284 3.36689926,2.11882284 C2.24889926,2.88182284 1.09289926,3.97882284 0.995899263,4.37282284 C1.07089926,6.47082284 3.06489926,9.51182284 6.61589926,12.8778228 C10.2338993,16.3078228 13.3858993,18.1638228 15.7298993,18.2448228 C16.1378993,18.1718228 17.3888993,16.9388228 18.1048993,15.9808228 C18.2638993,15.7588228 18.2358993,15.5968228 18.2058993,15.5598228 C17.8578993,15.3338228 14.7288993,13.3578228 14.3638993,13.1458228 C14.3528993,13.1418228 14.3318993,13.1388228 14.2808993,13.1328228 C14.1128993,13.1368228 13.9418993,13.1798228 13.7918993,13.2578228 C13.4868993,13.4148228 12.5538993,13.9148228 12.0998993,14.1598228 L11.5558993,14.4528228 L11.0498993,14.0978228 C9.99089926,13.3538228 8.98989926,12.5188228 8.07589926,11.6168228 C7.15289926,10.7748228 6.27289926,9.82582284 5.48589926,8.82282284 L5.06089926,8.28082284 L5.41489926,7.69082284 C5.71689926,7.18882284 6.20289926,6.38082284 6.35489926,6.10482284 C6.49489926,5.84782284 6.49089926,5.68282284 6.48189926,5.65282284 C6.20289926,5.23982284 4.13189926,2.26882284 3.94789926,2.02882284 C3.94189926,2.02482284 3.87789926,1.99982284 3.80989926,1.99982284 M15.7228993,20.2438228 C12.7808993,20.1438228 9.27389926,18.1538228 5.23989926,14.3298228 C1.19089926,10.4908228 -0.908100737,7.14382284 -0.999100737,4.38082284 C-1.05710074,2.73282284 1.70789926,0.817822839 2.26289926,0.451822839 C2.70389926,0.158822839 3.21989926,0.00282283907 3.75489926,0.000822839068 C4.40489926,-0.0171771609 5.06289926,0.260822839 5.49789926,0.767822839 C5.77989926,1.13082284 7.92289926,4.21482284 8.15489926,4.56082284 C8.60889926,5.24182284 8.59189926,6.17882284 8.10789926,7.06782284 C7.99889926,7.26382284 7.73589926,7.70882284 7.48989926,8.11982284 C8.09589926,8.84082284 8.75289926,9.52782284 9.45189926,10.1668228 C10.1668993,10.8708228 10.9168993,11.5148228 11.7038993,12.1018228 C12.1548993,11.8598228 12.6658993,11.5878228 12.8728993,11.4818228 C13.2868993,11.2658228 13.7638993,11.1438228 14.2438993,11.1328228 C14.6288993,11.1348228 15.0118993,11.2218228 15.3458993,11.4048228 C15.7978993,11.6658228 19.0448993,13.7188228 19.3108993,13.8928228 L19.3188993,13.8978228 C19.7708993,14.1988228 20.0898993,14.6928228 20.1918993,15.2508228 C20.3098993,15.8938228 20.1428993,16.5688228 19.7248993,17.1548228 C19.7258993,17.1548228 17.5048993,20.2438228 15.7228993,20.2438228" id="Fill-1" fill="#000000" mask="url(#mask-2)"></path>
                </g>
                <path d="M17.8451571,3.22325556 C14.9943447,3.22325556 12.6645569,5.51343333 12.6645569,8.33436667 C12.6623336,8.49465005 12.7465447,8.6437381 12.8849886,8.72454164 C13.0234324,8.80534518 13.1946596,8.80534518 13.3331034,8.72454164 C13.4715473,8.6437381 13.5557584,8.49465005 13.5534904,8.33436667 C13.5534904,6.00066 15.4679962,4.11214444 17.8451571,4.11214444 C19.2794291,4.11214444 20.5227038,4.75854889 21.296546,5.7927 L20.0743238,5.66075556 C19.9102466,5.63159542 19.743643,5.69666362 19.642759,5.82930617 C19.541875,5.96194872 19.5236617,6.13987826 19.5955799,6.29020922 C19.6674981,6.44054018 19.8174637,6.5380131 19.984046,6.5427 L22.1437682,6.77186667 C22.2762812,6.7849835 22.4076945,6.7379993 22.5018532,6.64384057 C22.596012,6.54968184 22.6429962,6.41826851 22.6298793,6.28575556 L22.4076571,4.00797778 C22.3971771,3.88856288 22.3389087,3.77844336 22.2460732,3.70260591 C22.1532377,3.62676846 22.0337064,3.59164312 21.9146016,3.6052 C21.7964401,3.61742122 21.6880871,3.67643207 21.6137195,3.76906543 C21.5393519,3.8616988 21.5051582,3.98024601 21.5187682,4.09825556 L21.5812682,4.75797778 C20.6382836,3.79633556 19.3104469,3.22325556 17.8451571,3.22325556 L17.8451571,3.22325556 Z" id="Path" fill="#000000" fill-rule="nonzero"></path>
                <path d="M22.3937682,7.88297778 C22.1647922,7.90814005 21.9929806,8.10406552 21.9979349,8.33436667 C21.9979349,10.6714933 20.1128202,12.5565822 17.7757127,12.5565822 C16.3548382,12.5565822 15.1211664,11.9102156 14.359046,10.8621444 L15.671546,11.0010333 C15.8356232,11.0301935 16.0022268,10.9651253 16.1031108,10.8324827 C16.2039948,10.6998402 16.2222081,10.5219106 16.1502898,10.3715797 C16.0783716,10.2212487 15.9284061,10.1237758 15.7618238,10.1190889 L13.6021016,9.88992222 C13.572087,9.88685833 13.5418384,9.88685833 13.5118238,9.88992222 C13.3937476,9.90048063 13.2847814,9.95776885 13.2091461,10.0490528 C13.1335108,10.1403367 13.097474,10.2580522 13.109046,10.3760333 L13.3382127,12.6538044 C13.3428947,12.8203887 13.4403652,12.9703585 13.5906965,13.0422802 C13.7410278,13.114202 13.9189598,13.0959907 14.0516045,12.9951065 C14.1842492,12.8942222 14.2493184,12.7276166 14.2201571,12.5635378 L14.1646016,11.9871444 C15.090052,12.9020711 16.3685682,13.4454711 17.7757127,13.4454711 C20.593214,13.4454711 22.8868238,11.15188 22.8868238,8.33436667 C22.889581,8.20636837 22.8370124,8.08339707 22.7425809,7.99694565 C22.6481493,7.91049423 22.5210264,7.86895924 22.3937682,7.88297778 L22.3937682,7.88297778 Z" id="Path" fill="#000000" fill-rule="nonzero"></path>
            </g>
        </g>
    </g>
</svg>