<?xml version="1.0" encoding="UTF-8"?>
<svg width="26px" height="26px" viewBox="0 0 26 26" version="1.1" xmlns="http://www.w3.org/2000/svg" xmlns:xlink="http://www.w3.org/1999/xlink">
    <!-- Generator: Sketch 53.2 (72643) - https://sketchapp.com -->
    <title>Icon/CapsLock</title>
    <desc>Created with Sketch.</desc>
    <g id="Icon/CapsLock" stroke="none" stroke-width="1" fill="none" fill-rule="evenodd">
        <rect id="Rectangle-4" fill="#CF4520" transform="translate(13.190301, 13.190301) rotate(1.000000) translate(-13.190301, -13.190301) " x="2.19030112" y="2.19030112" width="22" height="22" rx="11"></rect>
        <path d="M16,11.9830804 L16,14.5 C16,14.7761424 15.7761424,15 15.5,15 L10.5,15 C10.2238576,15 10,14.7761424 10,14.5 L10,11.9830804 L7.3032539,11.9830804 C7.02711152,11.9830804 6.8032539,11.7592228 6.8032539,11.4830804 C6.8032539,11.3413126 6.86343539,11.206209 6.96882396,11.1113862 L12.3331261,6.28488358 C12.7133992,5.94273491 13.2905728,5.94273491 13.6708459,6.28488358 L19.035148,11.1113862 C19.2404291,11.2960867 19.2571129,11.6122293 19.0724124,11.8175104 C18.9775895,11.9228989 18.8424859,11.9830804 18.7007181,11.9830804 L16,11.9830804 Z M15.5,20 L10.5,20 C10.2238576,20 10,19.7761424 10,19.5 L10,17.5 C10,17.2238576 10.2238576,17 10.5,17 L15.5,17 C15.7761424,17 16,17.2238576 16,17.5 L16,19.5 C16,19.7761424 15.7761424,20 15.5,20 Z" id="Triangle-2" fill="#FFFFFF"></path>
    </g>
</svg>