<?xml version="1.0" encoding="UTF-8"?>
<svg width="26px" height="26px" viewBox="0 0 26 26" version="1.1" xmlns="http://www.w3.org/2000/svg" xmlns:xlink="http://www.w3.org/1999/xlink">
    <!-- Generator: Sketch 53.2 (72643) - https://sketchapp.com -->
    <title>Icon/Shopping Cart</title>
    <desc>Created with Sketch.</desc>
    <g id="Icon/Shopping-Cart" stroke="none" stroke-width="1" fill="none" fill-rule="evenodd">
        <g id="Group" transform="translate(4.500000, 6.000000)">
            <path d="M7.49999893,12.00207 C6.94771477,12.00207 6.5,12.4493219 6.5,13.001035 C6.5,13.5527481 6.94771477,14 7.49999893,14 C8.05228308,14 8.49999785,13.5527481 8.49999785,13.001035 C8.50055244,12.7336567 8.39378595,12.4772159 8.20358747,12.2890916 C8.01338898,12.1009673 7.75563527,11.9968629 7.48799894,12.0000721 L7.49999893,12.00207 Z" id="Path" fill="#001489"></path>
            <path d="M12.4999989,12.00207 C11.9477148,12.00207 11.5,12.4493219 11.5,13.001035 C11.5,13.5527481 11.9477148,14 12.4999989,14 C13.0522831,14 13.4999979,13.5527481 13.4999979,13.001035 C13.5005524,12.7336567 13.3937859,12.4772159 13.2035875,12.2890916 C13.013389,12.1009673 12.7556353,11.9968629 12.4879989,12.0000721 L12.4999989,12.00207 Z" id="Path-Copy" fill="#001489"></path>
            <path d="M1.97175609e-13,-1.04805054e-13 L2.25957277,-1.04583009e-13 C2.69889386,-1.04273515e-13 3.08676442,0.286727966 3.21560313,0.706732257 L6.24519624,10.5829735 C6.28384785,10.7089748 6.40020902,10.7949932 6.53200535,10.7949932 L13.218217,10.7949932 C13.3290565,10.7949932 13.4308649,10.7338786 13.482983,10.6360569 L16.6881239,4.62024906 C16.7660312,4.47402284 16.7106479,4.29232669 16.5644217,4.21441935 C16.5210009,4.19128536 16.4725569,4.17918533 16.4233579,4.17918533 L4.49880899,4.17918533" id="Line" stroke="#001489" stroke-linecap="round"></path>
        </g>
    </g>
</svg>