<?xml version="1.0" encoding="UTF-8"?>
<svg width="26px" height="26px" viewBox="0 0 26 26" version="1.1" xmlns="http://www.w3.org/2000/svg" xmlns:xlink="http://www.w3.org/1999/xlink">
    <!-- Generator: Sketch 53.2 (72643) - https://sketchapp.com -->
    <title>Icon/Checkbox_activ</title>
    <desc>Created with Sketch.</desc>
    <g id="Icon/Checkbox_activ" stroke="none" stroke-width="1" fill="none" fill-rule="evenodd">
        <g id="Icons/Checkbox/Tick" transform="translate(9.000000, 4.500000)" stroke="#001489" stroke-linecap="round" stroke-width="2">
            <polyline id="Ω" transform="translate(6.363961, 6.363961) rotate(45.000000) translate(-6.363961, -6.363961) " points="9.36396103 0.363961031 9.36396103 12.363961 3.36396103 12.363961"></polyline>
        </g>
        <path d="M20.5,6.12024531 C20.2008137,5.54920138 20.0224152,5.5 19,5.5 L7,5.5 C6.17157288,5.5 5.5,6.17157288 5.5,7 L5.5,19 C5.5,19.8284271 6.17157288,20.5 7,20.5 L19,20.5 C19.8284271,20.5 20.5,19.8284271 20.5,19 L20.5,6.12024531 Z" id="Path-Copy" stroke="#001489"></path>
        <polygon id="Rectangle" fill="#001489" points="20 6 21 6 21 6.07894556 20 7.02748108"></polygon>
        <polygon id="Rectangle-Copy" fill="#001489" transform="translate(20.500000, 13.500000) rotate(-180.000000) translate(-20.500000, -13.500000) " points="20 13 21 13 21 13.0514645 20 14"></polygon>
    </g>
</svg>