<?xml version="1.0" encoding="UTF-8"?>
<svg width="26px" height="26px" viewBox="0 0 26 26" version="1.1" xmlns="http://www.w3.org/2000/svg" xmlns:xlink="http://www.w3.org/1999/xlink">
    <!-- Generator: Sketch 53.2 (72643) - https://sketchapp.com -->
    <title>Icon/clock_calender</title>
    <desc>Created with Sketch.</desc>
    <g id="Icon/clock_calender" stroke="none" stroke-width="1" fill="none" fill-rule="evenodd">
        <path d="M3.02325581,18.5 L22.9767442,18.5 C23.2647453,18.5 23.5,18.2626756 23.5,17.9677419 L23.5,4.03225806 C23.5,3.73732442 23.2647453,3.5 22.9767442,3.5 L3.02325581,3.5 C2.73525473,3.5 2.5,3.73732442 2.5,4.03225806 L2.5,17.9677419 C2.5,18.2626756 2.73525473,18.5 3.02325581,18.5 Z" id="Path" stroke="#001489"></path>
        <circle id="Oval" stroke="#001489" cx="13" cy="18" r="6"></circle>
        <path d="M2.25581395,7.5 L23.500069,7.5" id="Line-5" stroke="#001489"></path>
        <path d="M12.7499453,2.25 L12.7499453,4.75" id="Line-6" stroke="#001489" stroke-linecap="round"></path>
        <path d="M7.74994534,2.25 L7.74994534,4.75" id="Line-6-Copy" stroke="#001489" stroke-linecap="round"></path>
        <path d="M17.7499453,2.25 L17.7499453,4.75" id="Line-6-Copy-2" stroke="#001489" stroke-linecap="round"></path>
        <path d="M12.7499453,15.2857143 L12.7499453,19" id="Line-6-Copy-3" stroke="#001489" stroke-linecap="round"></path>
        <path d="M12.7478665,18.9924443 L14.4979212,20.6174443" id="Line-6-Copy-4" stroke="#001489" stroke-linecap="round"></path>
    </g>
</svg>