<?xml version="1.0" encoding="UTF-8"?>
<svg width="18px" height="18px" viewBox="0 0 18 18" version="1.1" xmlns="http://www.w3.org/2000/svg" xmlns:xlink="http://www.w3.org/1999/xlink">
    <!-- Generator: Sketch 54.1 (76490) - https://sketchapp.com -->
    <title>Icon/Clock_white</title>
    <desc>Created with Sketch.</desc>
    <defs>
        <path d="M0,9 C0,13.971 4.029,18 9,18 L9,18 C13.971,18 18,13.971 18,9 L18,9 C18,4.029 13.971,0 9,0 L9,0 C4.029,0 0,4.029 0,9" id="path-1"></path>
    </defs>
    <g id="Design-System" stroke="none" stroke-width="1" fill="none" fill-rule="evenodd">
        <g id="Icons" transform="translate(-317.000000, -1315.000000)">
            <g id="Icon/Clock_white" transform="translate(313.000000, 1311.000000)">
                <g id="Group-6" transform="translate(4.000000, 4.000000)">
                    <g id="Group-3">
                        <mask id="mask-2" fill="white">
                            <use xlink:href="#path-1"></use>
                        </mask>
                        <g id="Clip-2"></g>
                        <path d="M9,1 C4.589,1 1,4.589 1,9 C1,13.411 4.589,17 9,17 C13.411,17 17,13.411 17,9 C17,4.589 13.411,1 9,1 M9,19 C3.486,19 -1,14.514 -1,9 C-1,3.486 3.486,-1 9,-1 C14.514,-1 19,3.486 19,9 C19,14.514 14.514,19 9,19" id="Fill-1" fill="#FFFFFF" mask="url(#mask-2)"></path>
                    </g>
                    <path d="M12.4766,11.4697 C12.3846,11.4697 12.2916,11.4447 12.2086,11.3917 L8.7316,9.1857 C8.5876,9.0937 8.4996,8.9347 8.4996,8.7627 L8.4996,3.9997 C8.4996,3.7237 8.7236,3.4997 8.9996,3.4997 C9.2766,3.4997 9.4996,3.7237 9.4996,3.9997 L9.4996,8.4887 L12.7456,10.5477 C12.9776,10.6957 13.0476,11.0047 12.8996,11.2377 C12.8046,11.3877 12.6426,11.4697 12.4766,11.4697" id="Fill-4" fill="#FFFFFF"></path>
                </g>
            </g>
        </g>
    </g>
</svg>