<?xml version="1.0" encoding="UTF-8"?>
<svg width="26px" height="26px" viewBox="0 0 26 26" version="1.1" xmlns="http://www.w3.org/2000/svg" xmlns:xlink="http://www.w3.org/1999/xlink">
    <!-- Generator: Sketch 53.2 (72643) - https://sketchapp.com -->
    <title>Icon/Close</title>
    <desc>Created with Sketch.</desc>
    <g id="Icon/Close" stroke="none" stroke-width="1" fill="none" fill-rule="evenodd">
        <g id="Group" transform="translate(7.000000, 6.000000)" fill="#001489">
            <path d="M6.47957624,-0.9129818 L6.47957624,-0.9129818 C6.97426942,-0.912043037 7.37515847,-0.511427849 7.37643529,-0.0167354246 L7.41266508,14.0201305 C7.41393453,14.5119685 7.01625022,14.911711 6.52441229,14.9129804 C6.52308278,14.9129839 6.52175327,14.9129843 6.52042376,14.9129818 L6.52042376,14.9129818 C6.02573058,14.912043 5.62484153,14.5114278 5.62356471,14.0167354 L5.58733492,-0.0201305428 C5.58606547,-0.511968467 5.98374978,-0.911710981 6.47558771,-0.912980437 C6.47691722,-0.912983869 6.47824673,-0.912984323 6.47957624,-0.9129818 Z" id="Rectangle" transform="translate(6.500000, 7.000000) rotate(-45.000000) translate(-6.500000, -7.000000) "></path>
            <path d="M6.52042377,-0.912981596 L6.52042377,-0.912981596 C7.01226257,-0.913914943 7.41173331,-0.515957449 7.41266666,-0.0241186563 C7.41266918,-0.0227891478 7.41266873,-0.0214596352 7.4126653,-0.0201301287 L7.37643549,14.016735 C7.37515867,14.5114276 6.97426952,14.9120428 6.47957623,14.9129816 L6.47957623,14.9129816 C5.98773743,14.9139149 5.58826669,14.5159574 5.58733334,14.0241187 C5.58733082,14.0227891 5.58733127,14.0214596 5.5873347,14.0201301 L5.62356451,-0.0167350117 C5.62484133,-0.511427552 6.02573048,-0.912042833 6.52042377,-0.912981596 Z" id="Rectangle" transform="translate(6.500000, 7.000000) rotate(45.000000) translate(-6.500000, -7.000000) "></path>
        </g>
    </g>
</svg>