<?xml version="1.0" encoding="UTF-8"?>
<svg width="26px" height="26px" viewBox="0 0 26 26" version="1.1" xmlns="http://www.w3.org/2000/svg" xmlns:xlink="http://www.w3.org/1999/xlink">
    <!-- Generator: Sketch 53.2 (72643) - https://sketchapp.com -->
    <title>Icon/cloud_black</title>
    <desc>Created with Sketch.</desc>
    <g id="Icon/cloud_black" stroke="none" stroke-width="1" fill="none" fill-rule="evenodd">
        <g id="Cloud" transform="translate(3.048000, 4.960000)" stroke="#000000">
            <path d="M17.9167511,5.74643364 C17.9179787,5.697801 17.9204427,5.64947076 17.9204427,5.6005402 C17.9205637,3.01909951 16.1559806,0.772073143 13.6481169,0.160145245 C11.1402533,-0.451782652 8.53903508,0.729972284 7.35016938,3.02135492 C6.35765675,2.64192646 5.24398171,2.75595086 4.34895196,3.32863668 C3.45392222,3.9013225 2.88372372,4.86472654 2.81233706,5.9248922 C0.82003609,6.72372684 -0.325371846,8.82375747 0.0817287217,10.9312842 C0.488829289,13.038811 2.33395727,14.5611745 4.48044266,14.5605402 L16.8004427,14.5605402 C19.0567209,14.5618417 20.9614659,12.8840933 21.2449594,10.6456956 C21.528453,8.40729783 20.1021139,6.30766693 17.9167511,5.74643364 Z" id="Shape"></path>
            <polyline id="Shape" stroke-linecap="round" stroke-linejoin="round" points="18.8 10.24 15.44 10.24 13.2 8 9.84 11.36 7.6 9.12 6.48 10.24 2 10.24"></polyline>
        </g>
    </g>
</svg>