<svg width="40" height="41" viewBox="0 0 40 41" fill="none" xmlns="http://www.w3.org/2000/svg">
<g clip-path="url(#clip0_1352_483)">
<path d="M13.5 28.625H14.75V30.5H13.5C12.1211 30.5 11 29.3789 11 28V13C11 11.6211 12.1211 10.5 13.5 10.5H19.9648C20.6289 10.5 21.2656 10.7617 21.7344 11.2305L25.2695 14.7656C25.7383 15.2344 26 15.8711 26 16.5352V21.75H24.125V16.75H21C20.3086 16.75 19.75 16.1914 19.75 15.5V12.375H13.5C13.1562 12.375 12.875 12.6562 12.875 13V28C12.875 28.3438 13.1562 28.625 13.5 28.625ZM17.25 24.25H18.1875C19.3945 24.25 20.375 25.2305 20.375 26.4375C20.375 27.6445 19.3945 28.625 18.1875 28.625H17.875V29.875C17.875 30.2188 17.5938 30.5 17.25 30.5C16.9062 30.5 16.625 30.2188 16.625 29.875V28V24.875C16.625 24.5312 16.9062 24.25 17.25 24.25ZM18.1875 27.375C18.707 27.375 19.125 26.957 19.125 26.4375C19.125 25.918 18.707 25.5 18.1875 25.5H17.875V27.375H18.1875ZM21 24.875C21 24.5312 21.2812 24.25 21.625 24.25H22.5625C23.5977 24.25 24.4375 25.0898 24.4375 26.125V28.625C24.4375 29.6602 23.5977 30.5 22.5625 30.5H21.625C21.2812 30.5 21 30.2188 21 29.875V24.875ZM22.25 29.25H22.5625C22.9062 29.25 23.1875 28.9688 23.1875 28.625V26.125C23.1875 25.7812 22.9062 25.5 22.5625 25.5H22.25V29.25ZM26 24.25H27.875C28.2188 24.25 28.5 24.5312 28.5 24.875C28.5 25.2188 28.2188 25.5 27.875 25.5H26.625V26.75H27.875C28.2188 26.75 28.5 27.0312 28.5 27.375C28.5 27.7188 28.2188 28 27.875 28H26.625V29.875C26.625 30.2188 26.3438 30.5 26 30.5C25.6562 30.5 25.375 30.2188 25.375 29.875V27.375V24.875C25.375 24.5312 25.6562 24.25 26 24.25Z" fill="#001489"/>
</g>
<defs>
<clipPath id="clip0_1352_483">
<rect width="20" height="20" fill="white" transform="translate(10 10.5)"/>
</clipPath>
</defs>
</svg>
