<?xml version="1.0" encoding="UTF-8"?>
<svg width="26px" height="26px" viewBox="0 0 26 26" version="1.1" xmlns="http://www.w3.org/2000/svg" xmlns:xlink="http://www.w3.org/1999/xlink">
    <!-- Generator: Sketch 53.2 (72643) - https://sketchapp.com -->
    <title>Icon/Error</title>
    <desc>Created with Sketch.</desc>
    <g id="Icon/Error" stroke="none" stroke-width="1" fill="none" fill-rule="evenodd">
        <circle id="Oval" fill="#CF4520" cx="13" cy="13" r="13"></circle>
        <path d="M13.4795762,5.0870182 L13.4795762,5.0870182 C13.9742694,5.08795696 14.3751585,5.48857215 14.3764353,5.98326458 L14.4126651,20.0201305 C14.4139345,20.5119685 14.0162502,20.911711 13.5244123,20.9129804 C13.5230828,20.9129839 13.5217533,20.9129843 13.5204238,20.9129818 L13.5204238,20.9129818 C13.0257306,20.912043 12.6248415,20.5114278 12.6235647,20.0167354 L12.5873349,5.97986946 C12.5860655,5.48803153 12.9837498,5.08828902 13.4755877,5.08701956 C13.4769172,5.08701613 13.4782467,5.08701568 13.4795762,5.0870182 Z" id="Rectangle" fill="#FFFFFF" transform="translate(13.500000, 13.000000) rotate(-45.000000) translate(-13.500000, -13.000000) "></path>
        <path d="M13.5204238,5.0870184 L13.5204238,5.0870184 C14.0122626,5.08608506 14.4117333,5.48404255 14.4126667,5.97588134 C14.4126692,5.97721085 14.4126687,5.97854036 14.4126653,5.97986987 L14.3764355,20.016735 C14.3751587,20.5114276 13.9742695,20.9120428 13.4795762,20.9129816 L13.4795762,20.9129816 C12.9877374,20.9139149 12.5882667,20.5159574 12.5873333,20.0241187 C12.5873308,20.0227891 12.5873313,20.0214596 12.5873347,20.0201301 L12.6235645,5.98326499 C12.6248413,5.48857245 13.0257305,5.08795717 13.5204238,5.0870184 Z" id="Rectangle" fill="#FFFFFF" transform="translate(13.500000, 13.000000) rotate(45.000000) translate(-13.500000, -13.000000) "></path>
    </g>
</svg>