<?xml version="1.0" encoding="UTF-8"?>
<svg width="18px" height="11px" viewBox="0 0 18 11" version="1.1" xmlns="http://www.w3.org/2000/svg" xmlns:xlink="http://www.w3.org/1999/xlink">
    <!-- Generator: Sketch 55.2 (78181) - https://sketchapp.com -->
    <title>Icon/eye_grey</title>
    <desc>Created with Sketch.</desc>
    <defs>
        <polygon id="path-1" points="6.20689639e-05 0.561834586 17.586 0.561834586 17.586 10.556391 6.20689639e-05 10.556391"></polygon>
    </defs>
    <g id="Design-System" stroke="none" stroke-width="1" fill="none" fill-rule="evenodd">
        <g id="Icons" transform="translate(-576.000000, -742.000000)">
            <g id="Icon/eye_grey" transform="translate(572.000000, 734.000000)">
                <g id="Group-6-Copy" transform="translate(4.000000, 8.000000)">
                    <g id="Group-3" transform="translate(0.000000, 0.024573)">
                        <mask id="mask-2" fill="white">
                            <use xlink:href="#path-1"></use>
                        </mask>
                        <g id="Clip-2"></g>
                        <path d="M8.79275172,9.26909774 C6.62406207,9.26909774 4.86626897,7.60822556 4.86626897,5.55911278 C4.86626897,3.51 6.62406207,1.84912782 8.79275172,1.84912782 C10.9614414,1.84912782 12.7192345,3.51 12.7192345,5.55911278 C12.7192345,7.60822556 10.9614414,9.26909774 8.79275172,9.26909774 M8.79275172,0.561834586 C4.98109655,0.561834586 1.67344138,2.58690226 6.20689639e-05,5.55911278 C1.67344138,8.53132331 4.98109655,10.556391 8.79275172,10.556391 C12.6044069,10.556391 15.9120621,8.53132331 17.5860621,5.55911278 C15.9120621,2.58690226 12.6044069,0.561834586 8.79275172,0.561834586" id="Fill-1" fill="#B5B5B5" mask="url(#mask-2)"></path>
                    </g>
                    <path d="M8.79250345,3.77314737 C9.8514,3.77314737 10.7091931,4.58364361 10.7091931,5.58356842 C10.7091931,6.5840797 9.8514,7.39457594 8.79250345,7.39457594 C7.73422759,7.39457594 6.87643448,6.5840797 6.87643448,5.58356842 C6.87643448,4.58364361 7.73422759,3.77314737 8.79250345,3.77314737 Z" id="Fill-4" fill="#B5B5B5"></path>
                </g>
            </g>
        </g>
    </g>
</svg>