<?xml version="1.0" encoding="UTF-8"?>
<svg width="26px" height="26px" viewBox="0 0 26 26" version="1.1" xmlns="http://www.w3.org/2000/svg" xmlns:xlink="http://www.w3.org/1999/xlink">
    <!-- Generator: Sketch 53.2 (72643) - https://sketchapp.com -->
    <title>Icon/eye-blue</title>
    <desc>Created with Sketch.</desc>
    <defs>
        <polygon id="path-1" points="6.20689663e-05 0.605052632 17.586 0.605052632 17.586 11.3684211 6.20689663e-05 11.3684211"></polygon>
    </defs>
    <g id="Icon/eye-blue" stroke="none" stroke-width="1" fill="none" fill-rule="evenodd">
        <g id="Group-6" transform="translate(4.000000, 8.000000)">
            <g id="Group-3" transform="translate(0.000000, 0.026463)">
                <mask id="mask-2" fill="white">
                    <use xlink:href="#path-1"></use>
                </mask>
                <g id="Clip-2"></g>
                <path d="M8.79275172,9.98210526 C6.62406207,9.98210526 4.86626897,8.19347368 4.86626897,5.98673684 C4.86626897,3.78 6.62406207,1.99136842 8.79275172,1.99136842 C10.9614414,1.99136842 12.7192345,3.78 12.7192345,5.98673684 C12.7192345,8.19347368 10.9614414,9.98210526 8.79275172,9.98210526 M8.79275172,0.605052632 C4.98109655,0.605052632 1.67344138,2.78589474 6.20689663e-05,5.98673684 C1.67344138,9.18757895 4.98109655,11.3684211 8.79275172,11.3684211 C12.6044069,11.3684211 15.9120621,9.18757895 17.5860621,5.98673684 C15.9120621,2.78589474 12.6044069,0.605052632 8.79275172,0.605052632" id="Fill-1" fill="#001489" mask="url(#mask-2)"></path>
            </g>
            <path d="M8.79250345,4.06338947 C9.8514,4.06338947 10.7091931,4.93623158 10.7091931,6.01307368 C10.7091931,7.09054737 9.8514,7.96338947 8.79250345,7.96338947 C7.73422759,7.96338947 6.87643448,7.09054737 6.87643448,6.01307368 C6.87643448,4.93623158 7.73422759,4.06338947 8.79250345,4.06338947 Z" id="Fill-4" fill="#001489"></path>
        </g>
    </g>
</svg>