<?xml version="1.0" encoding="UTF-8"?>
<svg width="24px" height="11px" viewBox="0 0 24 11" version="1.1" xmlns="http://www.w3.org/2000/svg" xmlns:xlink="http://www.w3.org/1999/xlink">
    <!-- Generator: Sketch 54.1 (76490) - https://sketchapp.com -->
    <title>Icon/Feather_white</title>
    <desc>Created with Sketch.</desc>
    <defs>
        <polygon id="path-1" points="0 0 24 0 24 11 0 11"></polygon>
    </defs>
    <g id="Design-System" stroke="none" stroke-width="1" fill="none" fill-rule="evenodd">
        <g id="Icons" transform="translate(-314.000000, -1354.000000)">
            <g id="Icon/Feather_white" transform="translate(313.000000, 1347.000000)">
                <g id="feather" transform="translate(1.000000, 7.000000)">
                    <mask id="mask-2" fill="white">
                        <use xlink:href="#path-1"></use>
                    </mask>
                    <g id="Clip-2"></g>
                    <path d="M14.2955454,9.2963805 C10.8547113,10.2797381 8.00241325,10.2177155 5.77963862,9.13732266 C8.19263652,8.64614405 10.3880863,7.87986541 12.3313063,6.82948345 C12.583536,6.69343398 12.6718164,6.38832303 12.5278353,6.14823572 C12.3849051,5.90814842 12.0643631,5.82211713 11.8121334,5.96016733 C9.8731172,7.0075482 7.67031075,7.7668243 5.228937,8.23199345 C5.63881034,6.77346308 6.88524567,5.2709167 8.95668246,3.75536559 C11.1206035,2.17178974 13.075384,1.2644598 14.7789858,1.04938159 L13.9529333,3.1861586 C13.8720096,3.39523463 13.9466276,3.63032012 14.1368509,3.76236813 C14.3249722,3.89341579 14.5824568,3.8904147 14.7695271,3.75336486 L18.4804573,1.00336486 C19.2234841,1.0353765 20.6454293,1.25145507 22.7210699,1.64759913 C21.8960684,3.25618407 19.1404585,7.91187705 14.2955454,9.2963805 M23.9380784,1.04538014 C23.8634604,0.915332848 23.7331417,0.822299018 23.579702,0.792288105 C20.8566717,0.259094216 19.1309998,0 18.3059984,0 C18.1893421,0 18.0758387,0.0370134594 17.9833545,0.105038196 L15.5745604,1.88968716 L16.0453893,0.672244453 C16.1042429,0.519188796 16.0811218,0.348126591 15.9823318,0.213077483 C15.8845928,0.0800291015 15.7237964,0 15.5514394,0 C13.4379643,0 11.0028963,0.996362314 8.31664948,2.96207712 C5.86161328,4.75873045 4.45858532,6.58939614 4.11702421,8.41405966 C2.95992025,8.58812295 1.75867608,8.70616588 0.503833094,8.75418334 C0.214819843,8.76518734 -0.0111359707,8.9982721 0.00042455935,9.2743725 C0.0119850894,9.54347035 0.244246647,9.75454711 0.52485224,9.75454711 C0.532208941,9.75454711 0.539565641,9.75454711 0.545871385,9.75354674 C1.82173352,9.70452892 3.04609874,9.58548563 4.22737472,9.41042197 C4.23788429,9.41842488 4.24208812,9.43142961 4.25364865,9.43943252 C5.79540297,10.4788105 7.64193491,11 9.77642913,11 C11.2488203,11 12.8588868,10.7519098 14.5971702,10.254729 C20.9365444,8.44307021 23.8413903,1.75363769 23.9611995,1.46953438 C24.0200531,1.33248454 24.0116454,1.17642779 23.9380784,1.04538014" id="Fill-1" fill="#FFFFFF" mask="url(#mask-2)"></path>
                </g>
            </g>
        </g>
    </g>
</svg>