<svg width="20" height="20" viewBox="0 0 20 20" fill="none" xmlns="http://www.w3.org/2000/svg">
<g clip-path="url(#clip0_1498_873)">
<path d="M0 2.62891C0 1.7293 0.729297 1 1.62891 1H18.3711C19.2695 1 20 1.7293 20 2.62891C20 3.00391 19.8711 3.36719 19.6328 3.65625L13.125 11.6445V17.2383C13.125 17.9336 12.5586 18.5 11.8633 18.5C11.5781 18.5 11.3008 18.4023 11.0781 18.1914L7.46484 15.3594C7.09375 15.0625 6.875 14.6133 6.875 14.1367V11.6445L0.366133 3.65625C0.129336 3.36719 0 3.00391 0 2.62891ZM2.14687 2.875L8.53906 10.7188C8.67578 10.8867 8.75 11.0977 8.75 11.3125V13.9844L11.25 15.9688V11.3125C11.25 11.0977 11.3242 10.8867 11.4609 10.7188L17.8516 2.875H2.14687Z" fill="#001489"/>
</g>
<defs>
<clipPath id="clip0_1498_873">
<rect width="20" height="20" fill="white"/>
</clipPath>
</defs>
</svg>
