<?xml version="1.0" encoding="UTF-8"?>
<svg width="26px" height="26px" viewBox="0 0 26 26" version="1.1" xmlns="http://www.w3.org/2000/svg" xmlns:xlink="http://www.w3.org/1999/xlink">
    <!-- Generator: Sketch 53.2 (72643) - https://sketchapp.com -->
    <title>Icon/Gear black</title>
    <desc>Created with Sketch.</desc>
    <g id="Icon/Gear-black" stroke="none" stroke-width="1" fill="none" fill-rule="evenodd">
        <g id="Gear" transform="translate(4.000000, 4.000000)" fill-rule="nonzero">
            <path d="M17.9025882,9.99952941 L16.1237647,10.296 C15.8992941,10.3341176 15.7214118,10.4992941 15.6663529,10.7152941 C15.5054118,11.3378824 15.2597647,11.9350588 14.9294118,12.4898824 C14.8150588,12.6847059 14.8235294,12.9261176 14.9548235,13.1124706 L16.0009412,14.5863529 C16.0305882,14.6287059 16.0263529,14.6922353 15.9882353,14.7303529 L14.7261176,15.9924706 C14.6964706,16.0221176 14.6668235,16.0263529 14.6456471,16.0263529 C14.6202353,16.0263529 14.5990588,16.0178824 14.5821176,16.0051765 L13.1124706,14.9590588 C12.9303529,14.8277647 12.6847059,14.8192941 12.4898824,14.9336471 C11.9350588,15.264 11.3378824,15.5096471 10.7152941,15.6705882 C10.4950588,15.7256471 10.3298824,15.9077647 10.296,16.128 L9.99529412,17.9068235 C9.98682353,17.9618824 9.94023529,18 9.88517647,18 L8.10211765,18 C8.04705882,18 8.00047059,17.9618824 7.992,17.9068235 L7.69552941,16.128 C7.65741176,15.9035294 7.49223529,15.7256471 7.27623529,15.6705882 C6.67058824,15.5138824 6.08611765,15.2724706 5.53976471,14.9590588 C5.45082353,14.9082353 5.34917647,14.8828235 5.25176471,14.8828235 C5.13741176,14.8828235 5.01882353,14.9167059 4.92141176,14.9887059 L3.43905882,16.0432941 C3.41788235,16.056 3.39670588,16.0644706 3.37552941,16.0644706 C3.35858824,16.0644706 3.32470588,16.0602353 3.29505882,16.0305882 L2.03294118,14.7684706 C1.99482353,14.7303529 1.99058824,14.6710588 2.02023529,14.6244706 L3.06211765,13.1632941 C3.19341176,12.9769412 3.20188235,12.7312941 3.08752941,12.5364706 C2.75717647,11.9858824 2.50305882,11.3887059 2.34211765,10.7661176 C2.28282353,10.5501176 2.10494118,10.3849412 1.88470588,10.3468235 L0.0931764706,10.0418824 C0.0381176471,10.0334118 0,9.98682353 0,9.93176471 L0,8.14870588 C0,8.09364706 0.0381176471,8.04705882 0.0931764706,8.03858824 L1.85929412,7.74211765 C2.08376471,7.704 2.26588235,7.53882353 2.32094118,7.31858824 C2.47764706,6.696 2.71905882,6.09458824 3.04517647,5.53976471 C3.15952941,5.34494118 3.14682353,5.10352941 3.01552941,4.92141176 L1.96094118,3.43905882 C1.93129412,3.39670588 1.93552941,3.33317647 1.97364706,3.29505882 L3.23576471,2.03294118 C3.26541176,2.00329412 3.29505882,1.99905882 3.31623529,1.99905882 C3.34164706,1.99905882 3.36282353,2.00752941 3.37976471,2.02023529 L4.84094118,3.06211765 C5.02729412,3.19341176 5.27294118,3.20188235 5.46776471,3.08752941 C6.01835294,2.75717647 6.61552941,2.50305882 7.23811765,2.34211765 C7.45411765,2.28282353 7.61929412,2.10494118 7.65741176,1.88470588 L7.96235294,0.0931764706 C7.97082353,0.0381176471 8.01741176,0 8.07247059,0 L9.85552941,0 C9.91058824,0 9.95717647,0.0381176471 9.96564706,0.0931764706 L10.2621176,1.85929412 C10.3002353,2.08376471 10.4654118,2.26588235 10.6856471,2.32094118 C11.3251765,2.48188235 11.9350588,2.73176471 12.5025882,3.06635294 C12.6974118,3.18070588 12.9388235,3.17223529 13.1251765,3.04094118 L14.5863529,1.99058824 C14.6075294,1.97788235 14.6287059,1.96941176 14.6498824,1.96941176 C14.6668235,1.96941176 14.7007059,1.97364706 14.7303529,2.00329412 L15.9924706,3.26541176 C16.0305882,3.30352941 16.0348235,3.36282353 16.0051765,3.40941176 L14.9590588,4.87905882 C14.8277647,5.06117647 14.8192941,5.30682353 14.9336471,5.50164706 C15.264,6.05647059 15.5096471,6.65364706 15.6705882,7.27623529 C15.7256471,7.49647059 15.9077647,7.66164706 16.128,7.69552941 L17.9068235,7.99623529 C17.9618824,8.00470588 18,8.05129412 18,8.10635294 L18,9.88941176 C17.9957647,9.94447059 17.9576471,9.99105882 17.9025882,9.99952941 Z" id="Path-Copy-2" stroke="#000000" stroke-width="1.5" fill="#000000" stroke-linejoin="round"></path>
            <path d="M9,6 C7.3446273,6 6,7.3446273 6,9 C6,10.6553727 7.3446273,12 9,12 C10.6553727,12 12,10.6553727 12,9 C12,7.3446273 10.6553727,6 9,6 Z" id="Path" fill="#FFFFFF"></path>
        </g>
    </g>
</svg>