<?xml version="1.0" encoding="UTF-8"?>
<svg width="19px" height="19px" viewBox="0 0 19 19" version="1.1" xmlns="http://www.w3.org/2000/svg" xmlns:xlink="http://www.w3.org/1999/xlink">
    <!-- Generator: Sketch 54.1 (76490) - https://sketchapp.com -->
    <title>Icon/Graph_white</title>
    <desc>Created with Sketch.</desc>
    <g id="Design-System" stroke="none" stroke-width="1" fill="none" fill-rule="evenodd">
        <g id="Icons" transform="translate(-317.000000, -1387.000000)" fill="#FFFFFF">
            <g id="Icon/Graph_white" transform="translate(313.000000, 1383.000000)">
                <path d="M21.75,22.2168 L4,22.2168 L4,4.4998 C4,4.2238 4.224,3.9998 4.5,3.9998 C4.776,3.9998 5,4.2238 5,4.4998 L5,21.2168 L21.75,21.2168 C22.026,21.2168 22.25,21.4408 22.25,21.7168 C22.25,21.9928 22.026,22.2168 21.75,22.2168" id="Fill-1"></path>
                <path d="M7.5,16.7241 C7.375,16.7241 7.249,16.6771 7.152,16.5831 C6.954,16.3911 6.948,16.0751 7.141,15.8761 L11.625,11.2471 L15.389,14.6191 L21.266,11.4991 C21.508,11.3691 21.812,11.4611 21.941,11.7061 C22.071,11.9501 21.979,12.2521 21.734,12.3821 L15.24,15.8291 L11.674,12.6341 L7.859,16.5721 C7.761,16.6731 7.631,16.7241 7.5,16.7241" id="Fill-3"></path>
            </g>
        </g>
    </g>
</svg>