<?xml version="1.0" encoding="UTF-8"?>
<svg width="82px" height="90px" viewBox="0 0 82 90" version="1.1" xmlns="http://www.w3.org/2000/svg" xmlns:xlink="http://www.w3.org/1999/xlink">
    <!-- Generator: Sketch 54.1 (76490) - https://sketchapp.com -->
    <title>Icon/groß/Help white</title>
    <desc>Created with Sketch.</desc>
    <g id="Design-System" stroke="none" stroke-width="1" fill="none" fill-rule="evenodd">
        <g id="Icons" transform="translate(-1133.000000, -237.000000)">
            <g id="Big" transform="translate(981.000000, 230.000000)">
                <g id="Icon/groß/Help-white" transform="translate(141.000000, 0.000000)">
                    <polyline id="Ω" stroke="#FFFFFF" stroke-width="2" stroke-linecap="round" transform="translate(63.003540, 61.000000) rotate(45.000000) translate(-63.003540, -61.000000) " points="67.2486839 49.6837883 67.2486839 72.3112053 58.7583962 72.3162117"></polyline>
                    <path d="M68,40 L84,40 C88.418278,40 92,43.581722 92,48 L92,76 C92,80.418278 88.418278,84 84,84 L76,84 L76,96 L64.0063477,84 L40,84 C35.581722,84 32,80.418278 32,76 L32,59.99646" id="Rectangle" stroke="#FFFFFF" stroke-width="2" stroke-linecap="round" stroke-linejoin="round"></path>
                    <path d="M27.4838755,57.2641909 L20,66 L20,52.1962216 C15.0512519,47.5067981 12,41.084276 12,34 C12,19.6405965 24.536027,8 40,8 C55.463973,8 68,19.6405965 68,34 C68,48.3594035 55.463973,60 40,60 C35.501312,60 31.250419,59.0148444 27.4838755,57.2641909 Z" id="Oval-2" stroke="#FFFFFF" stroke-width="2" stroke-linejoin="round"></path>
                    <g id="?" stroke-width="1" fill-rule="evenodd" transform="translate(32.000000, 20.000000)" fill="#FFFFFF">
                        <path d="M8,26.5264893 C7.447,26.5264893 7,26.9734893 7,27.5264893 L7,28.5620117 C7,29.1150117 7.447,29.5620117 8,29.5620117 C8.553,29.5620117 9,29.1150117 9,28.5620117 L9,27.5264893 C9,26.9734893 8.553,26.5264893 8,26.5264893 Z" id="Path" fill-rule="nonzero"></path>
                        <path d="M8.113,0.001 C8.075,0.001 8.037,0 7.998,0 C5.882,0 3.892,0.815 2.383,2.304 C0.847,3.819 0,5.842 0,8 C0,8.553 0.447,9 1,9 C1.553,9 2,8.553 2,8 C2,6.382 2.635,4.864 3.787,3.728 C4.94,2.591 6.475,1.963 8.086,2.001 C11.247,2.045 13.955,4.753 13.999,7.914 C14.028,9.998 13,11.916 11.248,13.046 C8.588,14.762 7,17.794 7,21.158 L7,23 C7,23.553 7.447,24 8,24 C8.553,24 9,23.553 9,23 L9,21.158 C9,18.516 10.276,16.053 12.332,14.726 C14.667,13.22 16.038,10.663 15.999,7.886 C15.939,3.599 12.401,0.061 8.113,0.001 Z" id="Path" fill-rule="nonzero"></path>
                    </g>
                </g>
            </g>
        </g>
    </g>
</svg>