<?xml version="1.0" encoding="UTF-8"?>
<svg width="26px" height="26px" viewBox="0 0 26 26" version="1.1" xmlns="http://www.w3.org/2000/svg" xmlns:xlink="http://www.w3.org/1999/xlink">
    <!-- Generator: Sketch 53.2 (72643) - https://sketchapp.com -->
    <title>Icon/Help blue</title>
    <desc>Created with Sketch.</desc>
    <g id="Icon/Help-blue" stroke="none" stroke-width="1" fill="none" fill-rule="evenodd">
        <polyline id="Ω" stroke="#001489" stroke-linecap="round" transform="translate(15.750885, 15.250000) rotate(45.000000) translate(-15.750885, -15.250000) " points="16.812171 12.4209471 16.812171 18.0778013 14.689599 18.0790529"></polyline>
        <path d="M17,10 L21,10 C22.1045695,10 23,10.8954305 23,12 L23,19 C23,20.1045695 22.1045695,21 21,21 L19,21 L19,24 L16.0015869,21 L10,21 C8.8954305,21 8,20.1045695 8,19 L8,14.999115" id="Rectangle" stroke="#001489" stroke-linecap="round" stroke-linejoin="round"></path>
        <path d="M6.87096888,14.3160477 L5,16.5 L5,13.0490554 C3.76281298,11.8766995 3,10.271069 3,8.5 C3,4.91014913 6.13400675,2 10,2 C13.8659932,2 17,4.91014913 17,8.5 C17,12.0898509 13.8659932,15 10,15 C8.87532799,15 7.81260475,14.7537111 6.87096888,14.3160477 Z" id="Oval-2" stroke="#001489" stroke-linejoin="round"></path>
        <path d="M9.52247191,9.98849497 C9.52247191,9.66456511 9.60674073,9.3946276 9.7752809,9.17867436 C9.94382107,8.96272112 10.1928822,8.72517611 10.5224719,8.46603222 C10.8370802,8.22128521 11.0749056,7.99633729 11.2359551,7.79118171 C11.3970046,7.58602613 11.4775281,7.33588404 11.4775281,7.04074794 C11.4775281,6.74561184 11.3801508,6.47027559 11.1853933,6.21473092 C10.9906357,5.95918625 10.6310888,5.83141583 10.1067416,5.83141583 C9.48501562,5.83141583 9.06554416,5.98078125 8.84831461,6.27951657 C8.63108506,6.57825189 8.52247191,6.91477398 8.52247191,7.28909293 C8.52247191,7.36827579 8.52434455,7.43306079 8.52808989,7.48344988 C8.53183522,7.53383897 8.53370787,7.56623147 8.53370787,7.58062835 C8.50509175,7.78578291 8.33468119,7.88836019 8.0224762,7.88836019 C7.7102712,7.88836019 7.54734842,7.78578291 7.53370787,7.58062835 C7.52621719,7.55183459 7.51872663,7.50144625 7.51123596,7.42946184 C7.50374528,7.35747742 7.5,7.28189492 7.5,7.20271207 C7.5,6.78520246 7.59924994,6.41088912 7.79775281,6.07976082 C7.99625567,5.74863251 8.29775079,5.48589334 8.70224719,5.29153542 C9.1067436,5.0971775 9.60112067,5 10.1853933,5 C10.8670446,5 11.4232188,5.17455959 11.8539326,5.523684 C12.2846463,5.87280841 12.5,6.3389005 12.5,6.92197425 C12.5,7.30349165 12.4419481,7.62561707 12.3258427,7.88836019 C12.2097372,8.1511033 12.0711619,8.36345413 11.9101124,8.52541907 C11.7490629,8.687384 11.5411998,8.86194359 11.2865169,9.04910306 C11.0168526,9.25785787 10.8183527,9.43601662 10.6910112,9.58358467 C10.5636698,9.73115272 10.5,9.92010897 10.5,10.1504591 L10.5,10.593161 C10.5018339,10.864387 10.3435748,11 10.0252228,11 C9.70687072,11 9.5392871,10.864387 9.52247191,10.593161 L9.52247191,9.98849497 Z M10,12.5 C9.72385763,12.5 9.5,12.2761424 9.5,12 C9.5,11.7238576 9.72385763,11.5 10,11.5 C10.2761424,11.5 10.5,11.7238576 10.5,12 C10.5,12.2761424 10.2761424,12.5 10,12.5 Z" id="?" fill="#001489" fill-rule="nonzero"></path>
    </g>
</svg>