<?xml version="1.0" encoding="UTF-8"?>
<svg width="21px" height="20px" viewBox="0 0 21 20" version="1.1" xmlns="http://www.w3.org/2000/svg" xmlns:xlink="http://www.w3.org/1999/xlink">
    <!-- Generator: sketchtool 55.2 (78181) - https://sketchapp.com -->
    <title>32B12035-6733-4942-8EFE-C68AF69AC458</title>
    <desc>Created with sketchtool.</desc>
    <defs>
        <path d="M16.2997001,11.0546667 C16.0183818,11.0546667 15.8777248,10.9240013 15.8777248,10.6626667 C15.8777248,10.3577763 15.9346574,10.1042232 16.0485243,9.902 C16.1623912,9.69977677 16.2913268,9.54577831 16.435335,9.44 C16.5793432,9.33422169 16.7585134,9.22533389 16.9728512,9.11333333 C17.1603967,9.01377728 17.2960303,8.9328892 17.379756,8.87066667 C17.4634817,8.80844413 17.5304612,8.72755605 17.5806966,8.628 C17.630932,8.52844395 17.6560493,8.39466751 17.6560493,8.22666667 C17.6560493,7.97777653 17.6259086,7.78644511 17.5656261,7.65266667 C17.5053436,7.51888822 17.4031998,7.42400028 17.2591916,7.368 C17.1151834,7.31199972 16.9092213,7.284 16.6412992,7.284 L16.8587008,7.284 C16.5907787,7.284 16.3848166,7.31199972 16.2408084,7.368 C16.0968002,7.42400028 15.9946564,7.51888822 15.9343739,7.65266667 C15.8740914,7.78644511 15.8439507,7.97777653 15.8439507,8.22666667 C15.8439507,8.48800131 15.7032936,8.61866667 15.4219753,8.61866667 C15.140657,8.61866667 15,8.48800131 15,8.22666667 C15,7.0755498 15.6195608,6.5 16.8587008,6.5 L16.6412992,6.5 C17.2709163,6.5 17.7380986,6.64155414 18.0428601,6.92466667 C18.3476215,7.20777919 18.5,7.64177485 18.5,8.22666667 C18.5,8.53155708 18.4430674,8.7851101 18.3292005,8.98733333 C18.2153335,9.18955657 18.0863979,9.34355503 17.9423897,9.44933333 C17.7983816,9.55511164 17.6192113,9.66399944 17.4048736,9.776 C17.217328,9.87555605 17.0816945,9.95644413 16.9979688,10.0186667 C16.9142431,10.0808892 16.8472636,10.1617773 16.7970281,10.2613333 C16.7467927,10.3608894 16.7216754,10.4946658 16.7216754,10.6626667 C16.7216754,10.9240013 16.5810184,11.0546667 16.2997001,11.0546667 Z M16.3,12.7 C16.6313708,12.7 16.9,12.4313708 16.9,12.1 C16.9,11.7686292 16.6313708,11.5 16.3,11.5 C15.9686292,11.5 15.7,11.7686292 15.7,12.1 C15.7,12.4313708 15.9686292,12.7 16.3,12.7 Z" id="path-1"></path>
    </defs>
    <g id="Design-System" stroke="none" stroke-width="1" fill="none" fill-rule="evenodd">
        <g id="Icons" transform="translate(-351.000000, -702.000000)">
            <g id="Icon/Hotline" transform="translate(349.000000, 698.000000)">
                <path d="M20.5248903,19.8130879 C20.0991136,19.5347444 16.9711504,17.5655914 16.6595721,17.3850447 C16.553863,17.3269459 16.4321872,17.2969517 16.3108706,17.2988566 C16.0600139,17.3040985 15.8146197,17.3667379 15.5923243,17.4829404 C15.3428027,17.6106903 14.5353194,18.0416015 13.8978059,18.3852985 L13.6258926,18.5318928 L13.3731175,18.3543217 C12.333059,17.623695 11.3593993,16.8114519 10.4764172,15.9394222 C9.54427669,15.0879038 8.68764559,14.1648391 7.9152514,13.1795884 L7.70304622,12.9089037 L7.87995224,12.6139368 C8.07017138,12.2970352 8.18894889,12.0989755 8.30867982,11.8984953 C8.31364076,11.8901883 8.31364076,11.8901883 8.31860096,11.881881 C8.5743513,11.4535347 8.75047084,11.1541119 8.82643185,11.016768 C9.0486858,10.607969 9.07233759,10.2536621 8.94298565,10.060098 C8.64269244,9.61073503 6.56379962,6.62903481 6.39657742,6.41066854 C6.25793804,6.24932193 6.0418377,6.15721684 5.79698507,6.16670519 C5.55593478,6.16773579 5.3216452,6.23825395 5.12637254,6.36773036 C4.04767124,7.08363936 2.51611918,8.44298343 2.53572817,8.99790933 C2.61707799,11.4705599 4.83856391,14.6173909 8.30777417,17.9065827 C11.7929498,21.2109114 15.1042704,23.3182152 17.7313673,23.4095023 L17.7583662,23.4095023 C18.3750055,23.4095023 20.0855339,21.6654242 20.5405619,20.9478988 C20.8733514,20.4826392 20.8118977,20.0057212 20.5248753,19.8130823 Z M20.5248753,19.8130823 C20.5243331,19.8127184 20.5237901,19.8123555 20.5232463,19.8119937 L20.5265167,19.8141515 C20.525979,19.8137998 20.5254369,19.8134452 20.5248903,19.8130879 Z" id="Path" stroke="#001489"></path>
                <path d="M16.6255656,4.5 C13.6349725,4.5 11.2181109,6.82725382 11.2181109,9.68842922 C11.2181109,12.5496046 13.6349725,14.8768584 16.6255656,14.8768584 C19.6161586,14.8768584 22.0330203,12.5496046 22.0330203,9.68842922 C22.0330203,6.82725382 19.6161586,4.5 16.6255656,4.5 Z" id="Path" stroke="#001489"></path>
                <g id="?">
                    <use fill="#FFFFFF" xlink:href="#path-1"></use>
                    <use fill="#001489" xlink:href="#path-1"></use>
                </g>
            </g>
        </g>
    </g>
</svg>