<?xml version="1.0" encoding="UTF-8"?>
<svg width="60px" height="60px" viewBox="0 0 60 60" version="1.1" xmlns="http://www.w3.org/2000/svg" xmlns:xlink="http://www.w3.org/1999/xlink">
    <title>Icon/yellow/videoFAQ</title>
    <g id="Icon/yellow/videoFAQ" stroke="none" stroke-width="1" fill="none" fill-rule="evenodd">
        <circle id="Oval-2-Copy-3" fill="#FFD100" cx="30" cy="30" r="30"></circle>
        <g id="Group" transform="translate(6.000000, 13.000000)">
            <rect id="Rectangle" fill="#000000" x="11.7" y="17.1" width="1.8" height="1.8" rx="0.9"></rect>
            <path d="M12.6508933,4.50045 C12.6337931,4.50045 12.6166929,4.5 12.5991427,4.5 C11.6469314,4.5 10.7514208,4.86675 10.0723627,5.5368 C9.38115452,6.21855 9,7.1289 9,8.1 C9,8.34885 9.20115239,8.55 9.45000534,8.55 C9.69885829,8.55 9.90001067,8.34885 9.90001067,8.1 C9.90001067,7.3719 10.1857641,6.6888 10.7041702,6.1776 C11.2230264,5.66595 11.9137846,5.38335 12.6387432,5.40045 C14.06121,5.42025 15.2798245,6.63885 15.2996247,8.0613 C15.3126749,8.9991 14.8500694,9.8622 14.06166,10.3707 C12.8646458,11.1429 12.1500374,12.5073 12.1500374,14.0211 L12.1500374,14.85 C12.1500374,15.09885 12.3511897,15.3 12.6000427,15.3 C12.8488957,15.3 13.050048,15.09885 13.050048,14.85 L13.050048,14.0211 C13.050048,12.8322 13.6242548,11.72385 14.5494658,11.1267 C15.6002283,10.449 16.2171856,9.29835 16.1996354,8.0487 C16.1726351,6.11955 14.5805162,4.52745 12.6508933,4.50045 Z" id="Path" stroke="#000000" stroke-width="0.9" fill="#000000" fill-rule="nonzero"></path>
            <path d="M12.6,0 C19.5587878,0 25.2,5.23826843 25.2,11.7 C25.2,18.1617316 19.5587878,23.4 12.6,23.4 C10.5758659,23.4 8.66320921,22.9568006 6.96843599,22.1692075 L3.6,26.1 L3.59991386,19.8882181 C1.37302796,17.7779846 0,14.8878831 0,11.7 C0,5.23826843 5.64121215,0 12.6,0 Z" id="Oval-2-Copy-2" stroke="#000000" stroke-width="2" stroke-linejoin="round"></path>
            <path d="M40.1296281,12.6008081 C41.8253477,12.6008081 43.2,13.9834535 43.2,15.689033 L43.2,31.1117751 C43.2,32.8173546 41.8253477,34.2 40.1296281,34.2 L16.5718346,34.2 C14.876115,34.2 13.5014627,32.8173546 13.5014627,31.1117751 L13.5013893,23.3920538 C13.8086848,23.3823244 14.1133054,23.3626989 14.4148925,23.3335076 L14.4152639,31.1117751 C14.4152639,32.2764648 15.327898,33.226758 16.473119,33.2786534 L16.5718346,33.2808855 L40.1296281,33.2808855 C41.2875848,33.2808855 42.2323843,32.3629448 42.2839797,31.2110647 L42.2861989,31.1117751 L42.2861989,15.689033 C42.2861989,14.5243433 41.3735648,13.5740501 40.2283437,13.5221548 L40.1296281,13.5199227 L25.8726102,13.5204808 C25.9340487,13.2177618 25.9834321,12.9110505 26.0202764,12.6007931 L40.1296281,12.6008081 Z M26.2227593,17.6559382 C26.3607867,17.6559382 26.5124163,17.7026326 26.6658689,17.7826726 L26.6658689,17.7826726 L32.233287,21.1569316 L32.286435,21.1945729 C32.5185039,21.3851481 32.6354215,21.6251802 32.6853134,21.9324647 L32.6853134,21.9324647 L32.6912868,22.0065329 C32.6912868,22.3287809 32.56822,22.5940702 32.3534379,22.8145443 L32.3534379,22.8145443 L32.3127256,22.8563355 L26.6954828,26.2607919 L26.6041553,26.3031459 L26.5040715,26.3388142 L26.4749753,26.3483927 C26.3924677,26.3738009 26.3122411,26.3875264 26.2227593,26.3875264 C25.7610172,26.3875264 25.3808776,25.9973127 25.3808776,25.5327856 L25.3808776,25.5327856 L25.3808776,18.5106789 C25.3808776,18.0461518 25.7610172,17.6559382 26.2227593,17.6559382 Z M26.2946788,18.62974 L26.2946788,25.4302686 L31.7327094,22.1343238 L31.7524334,22.1063354 C31.7644265,22.085687 31.7715631,22.0652307 31.7749883,22.0425424 L31.7749883,22.0425424 C31.7628678,21.9786732 31.7486124,21.9475356 31.7265815,21.9234977 L31.7265815,21.9234977 L26.2946788,18.62974 Z" id="Combined-Shape-Copy" stroke="#000000" stroke-width="0.9" fill="#000000" fill-rule="nonzero"></path>
            <circle id="Oval-4-Copy-6" fill="#000000" cx="17" cy="30" r="1"></circle>
            <circle id="Oval-4-Copy-7" fill="#000000" cx="38" cy="30" r="1"></circle>
            <line x1="20" y1="30" x2="35" y2="30" id="Line-Copy-3" stroke="#000000" stroke-width="2" stroke-linecap="round"></line>
        </g>
    </g>
</svg>