<?xml version="1.0" encoding="UTF-8"?>
<svg width="66px" height="82px" viewBox="0 0 66 82" version="1.1" xmlns="http://www.w3.org/2000/svg" xmlns:xlink="http://www.w3.org/1999/xlink">
    <!-- Generator: Sketch 54.1 (76490) - https://sketchapp.com -->
    <title>Icon/groß/instruction_white</title>
    <desc>Created with Sketch.</desc>
    <g id="Design-System" stroke="none" stroke-width="1" fill="none" fill-rule="evenodd">
        <g id="Icons" transform="translate(-1141.000000, -681.000000)" stroke="#FFFFFF">
            <g id="Big" transform="translate(981.000000, 230.000000)">
                <g id="Icon/groß/instruction_white" transform="translate(141.000000, 440.000000)">
                    <g id="Icon-Anleitung" transform="translate(20.000000, 12.000000)">
                        <path d="M2,6.82121026e-13 L62,6.82121026e-13 C63.1045695,6.8191812e-13 64,0.8954305 64,2 L64,63.171555 C64,63.7019986 63.7892779,64.2107156 63.414192,64.5857901 L48.5852947,79.4142351 C48.2102237,79.7892947 47.7015252,80 47.1711027,80 L2,80 C0.8954305,80 1.00943521e-13,79.1045695 1.00808251e-13,78 L0,2 C-1.3527075e-16,0.8954305 0.8954305,6.82323932e-13 2,6.82121026e-13 Z" id="Rectangle" stroke-width="2" transform="translate(32.000000, 40.000000) scale(1, -1) translate(-32.000000, -40.000000) "></path>
                        <path d="M49,15 L49,6 C49,3.23857625 51.2385763,1 54,1 L63,1" id="Path" stroke-width="2" stroke-linecap="round" transform="translate(56.000000, 8.000000) scale(1, -1) translate(-56.000000, -8.000000) "></path>
                        <g id="Group-2" transform="translate(12.000000, 16.000000)" stroke-width="2">
                            <circle id="Oval" cx="4" cy="4" r="3"></circle>
                            <path d="M13,1 L28.999756,1" id="Path-2" stroke-linecap="round"></path>
                            <path d="M13,7 L36.999756,7" id="Path-2-Copy-2" stroke-linecap="round"></path>
                        </g>
                        <g id="Group-2-Copy" transform="translate(12.000000, 36.000000)" stroke-width="2">
                            <circle id="Oval" cx="4" cy="4" r="3"></circle>
                            <path d="M13,1 L36.999756,1" id="Path-2" stroke-linecap="round"></path>
                            <path d="M13,7 L36.999756,7" id="Path-2-Copy-2" stroke-linecap="round"></path>
                        </g>
                        <g id="Group-2-Copy-2" transform="translate(12.000000, 56.000000)" stroke-width="2">
                            <circle id="Oval" cx="4" cy="4" r="3"></circle>
                            <path d="M13,1 L36.999756,1" id="Path-2" stroke-linecap="round"></path>
                            <path d="M13,7 L36.999756,7" id="Path-2-Copy-2" stroke-linecap="round"></path>
                        </g>
                    </g>
                </g>
            </g>
        </g>
    </g>
</svg>