<?xml version="1.0" encoding="UTF-8"?>
<svg width="26px" height="26px" viewBox="0 0 26 26" version="1.1" xmlns="http://www.w3.org/2000/svg" xmlns:xlink="http://www.w3.org/1999/xlink">
    <!-- Generator: Sketch 53.2 (72643) - https://sketchapp.com -->
    <title>Icon/Large Danger blue</title>
    <desc>Created with Sketch.</desc>
    <g id="Icon/Large-Danger-blue" stroke="none" stroke-width="1" fill="none" fill-rule="evenodd">
        <g id="Group-2" transform="translate(13.000000, 13.000000) scale(1, -1) translate(-13.000000, -13.000000) translate(1.000000, 2.000000)" stroke="#001489">
            <path d="M12.2633687,0.482842536 L23.758006,21.5563444 C23.8373448,21.7017989 23.7837475,21.8840299 23.638293,21.9633687 C23.5942264,21.987405 23.5448331,22 23.4946374,22 L0.505362627,22 C0.339677212,22 0.205362645,21.8656854 0.205362645,21.7 C0.205362645,21.6498043 0.217957656,21.600411 0.241993971,21.5563444 L11.7366313,0.482842536 C11.8159702,0.337388044 11.9982011,0.283790697 12.1436556,0.363129511 C12.1942256,0.390713121 12.235785,0.432272584 12.2633687,0.482842536 Z" id="Triangle-2" fill-rule="nonzero" transform="translate(12.000000, 11.000000) rotate(-180.000000) translate(-12.000000, -11.000000) "></path>
            <path d="M12,6.64892123 L12,13.5" id="Path-3" stroke-linecap="round" stroke-linejoin="bevel"></path>
            <circle id="Oval-3" fill="#001489" cx="12" cy="4" r="1"></circle>
        </g>
    </g>
</svg>