<?xml version="1.0" encoding="UTF-8"?>
<svg width="78px" height="78px" viewBox="0 0 78 78" version="1.1" xmlns="http://www.w3.org/2000/svg" xmlns:xlink="http://www.w3.org/1999/xlink">
    <title>Icon/Large Email Large Desktop</title>
    <g id="100-SignIn_SignUp-Redesign---Desktop" stroke="none" stroke-width="1" fill="none" fill-rule="evenodd">
        <g id="100-050-SignIn_SignUp---D" transform="translate(-681.000000, -300.000000)" stroke="#001489">
            <g id="Content" transform="translate(278.000000, 220.000000)">
                <g id="Icon/Large-Email-Large-Desktop" transform="translate(403.000000, 80.000000)">
                    <circle id="Oval-4" stroke-width="2.4" cx="39" cy="39" r="37.8"></circle>
                    <g id="Icon/Mail-blue" transform="translate(18.000000, 9.000000)" stroke-width="2.19230769">
                        <rect id="Rectangle" x="9.86538462" y="18.6346154" width="37.2692308" height="21.9230769" rx="2.19230769"></rect>
                        <path d="M41.6215784,5.44850147 L41.6215784,27.3715784 C41.6215784,29.7931346 39.6585192,31.7561938 37.236963,31.7561938 L15.3138861,31.7561938" id="Rectangle" transform="translate(28.467732, 18.602348) scale(1, -1) rotate(-135.000000) translate(-28.467732, -18.602348) "></path>
                        <line x1="20.8269231" y1="38.94589" x2="10.9615385" y2="28.7902527" id="Line-4" stroke-linecap="square" transform="translate(16.442308, 34.271022) scale(1, -1) translate(-16.442308, -34.271022) "></line>
                        <line x1="36.1730769" y1="39.5379131" x2="46.4077105" y2="29.0862642" id="Line-4-Copy" stroke-linecap="square" transform="translate(41.653846, 34.567033) scale(1, -1) translate(-41.653846, -34.567033) "></line>
                    </g>
                    <line x1="19.5" y1="31.5" x2="22.5" y2="31.5" id="Line" stroke-width="2.4" stroke-linecap="round" stroke-linejoin="round"></line>
                    <line x1="13.5" y1="37.5" x2="22.5" y2="37.5" id="Line-Copy" stroke-width="2.4" stroke-linecap="round" stroke-linejoin="round"></line>
                    <line x1="7.5" y1="43.5" x2="22.5" y2="43.5" id="Line-Copy-2" stroke-width="2.4" stroke-linecap="round" stroke-linejoin="round"></line>
                </g>
            </g>
        </g>
    </g>
</svg>