<?xml version="1.0" encoding="UTF-8"?>
<svg width="26px" height="26px" viewBox="0 0 26 26" version="1.1" xmlns="http://www.w3.org/2000/svg" xmlns:xlink="http://www.w3.org/1999/xlink">
    <!-- Generator: Sketch 53.2 (72643) - https://sketchapp.com -->
    <title>Icon/lightbulb_black</title>
    <desc>Created with Sketch.</desc>
    <g id="Icon/lightbulb_black" stroke="none" stroke-width="1" fill="none" fill-rule="evenodd">
        <g id="Bulb" transform="translate(6.000000, 4.000000)" stroke="#000000">
            <path d="M4.5,18.5 L4.5,20 C4.5,20.2761424 4.72385763,20.5 5,20.5 L9,20.5 C9.27614237,20.5 9.5,20.2761424 9.5,20 L9.5,18.5 L4.5,18.5 Z" id="Rectangle-Copy"></path>
            <path d="M9.49766709,16.5 C9.55465254,14.6237904 10.340387,12.8887569 11.8374915,11.3127773 C12.8334285,10.2643693 13.5,8.71047343 13.5,7.28571429 C13.5,3.53369164 10.5852767,0.5 7,0.5 C3.41472334,0.5 0.5,3.53369164 0.5,7.28571429 C0.5,8.72333996 1.1599368,10.2625509 2.16190571,11.3118369 C3.65478829,12.8752194 4.44002066,14.610762 4.50098151,16.5 L9.49766709,16.5 Z" id="Oval"></path>
        </g>
        <path d="M17.5,11 C17.5,8.51471863 15.4852814,6.5 13,6.5" id="Oval" stroke="#000000" stroke-linecap="round"></path>
        <path d="M13,-1 L13,2" id="Line-7" stroke="#000000" stroke-linecap="round"></path>
        <path d="M18.75,0.540708106 L18.75,3.54070811" id="Line-7" stroke="#000000" stroke-linecap="round" transform="translate(18.750000, 2.040708) rotate(-330.000000) translate(-18.750000, -2.040708) "></path>
        <path d="M3.04070786,4.7499997 L3.04070786,7.7499997" id="Line-7" stroke="#000000" stroke-linecap="round" transform="translate(3.040708, 6.250000) rotate(-60.000000) translate(-3.040708, -6.250000) "></path>
        <path d="M7.25037441,0.538989242 L7.25018167,3.54043524" id="Line-7" stroke="#000000" stroke-linecap="round" transform="translate(7.250278, 2.039712) rotate(-30.000000) translate(-7.250278, -2.039712) "></path>
        <path d="M22.9592921,4.7499997 L22.9592921,7.7499997" id="Line-7" stroke="#000000" stroke-linecap="round" transform="translate(22.959292, 6.250000) rotate(-300.000000) translate(-22.959292, -6.250000) "></path>
    </g>
</svg>