<?xml version="1.0" encoding="UTF-8"?>
<svg width="20px" height="23px" viewBox="0 0 20 23" version="1.1" xmlns="http://www.w3.org/2000/svg" xmlns:xlink="http://www.w3.org/1999/xlink">
    <!-- Generator: Sketch 55.2 (78181) - https://sketchapp.com -->
    <title>Icon/lock_white</title>
    <desc>Created with Sketch.</desc>
    <g id="Design-System" stroke="none" stroke-width="1" fill="none" fill-rule="evenodd">
        <g id="Icons" transform="translate(-388.000000, -1672.000000)" fill="#FFFFFF">
            <g id="Icon/lock_white" transform="translate(385.000000, 1671.000000)">
                <path d="M6,9 L6,8 C6,4.13400675 9.13400675,1 13,1 C16.8659932,1 20,4.13400675 20,8 L20,9 C21.6568542,9 23,10.3431458 23,12 L23,21 C23,22.6568542 21.6568542,24 20,24 L6,24 C4.34314575,24 3,22.6568542 3,21 L3,12 C3,10.3431458 4.34314575,9 6,9 Z M20,11 L6,11 C5.44771525,11 5,11.4477153 5,12 L5,21 C5,21.5522847 5.44771525,22 6,22 L20,22 C20.5522847,22 21,21.5522847 21,21 L21,12 C21,11.4477153 20.5522847,11 20,11 Z M18,9 L18,8 C18,5.23857625 15.7614237,3 13,3 C10.2385763,3 8,5.23857625 8,8 L8,9 L18,9 Z" id="Oval" fill-rule="nonzero"></path>
                <path d="M14,16.7324356 L14,20 L12,20 L12,16.7324356 C11.4021986,16.3866262 11,15.7402824 11,15 C11,13.8954305 11.8954305,13 13,13 C14.1045695,13 15,13.8954305 15,15 C15,15.7402824 14.5978014,16.3866262 14,16.7324356 Z" id="Rectangle-2" fill-rule="evenodd"></path>
            </g>
        </g>
    </g>
</svg>