<?xml version="1.0" encoding="UTF-8"?>
<svg width="65px" height="64px" viewBox="0 0 65 64" version="1.1" xmlns="http://www.w3.org/2000/svg" xmlns:xlink="http://www.w3.org/1999/xlink">
    <title>IconMagic</title>
    <g id="000-Home-Desktop" stroke="none" stroke-width="1" fill="none" fill-rule="evenodd">
        <g id="FSL-V3-UI-000-Home-Desktop" transform="translate(-356.000000, -7770.000000)" fill="#001489">
            <g id="Sicher-bestellen" transform="translate(0.000000, 7518.000000)">
                <g id="Product/Plus-Service-sicher-und-zuverlässig">
                    <g id="Einfach-und-sicher-Copy">
                        <g id="Einfach" transform="translate(356.500000, 244.000000)">
                            <g id="IconMagic" transform="translate(0.000000, 8.000000)">
                                <path d="M62.8363636,27.3033846 L56.6109091,17.8412308 L59.7042424,6.84307692 C59.9114705,6.1443287 59.7211547,5.38651005 59.209697,4.87384615 C58.7027415,4.35801842 57.9566812,4.1686339 57.270303,4.38153846 L46.4484848,7.58153846 L37.1006061,1.19138462 C36.5143802,0.788625824 35.7586182,0.742136139 35.1287951,1.07009132 C34.4989721,1.39804649 34.0951282,2.04835465 34.0751515,2.76676923 L33.7357576,14.208 L24.8630303,21.2578462 C24.3056371,21.7000225 24.0295366,22.4152612 24.1425484,23.1242553 C24.2555603,23.8332494 24.7397589,24.4235407 25.4060606,24.6646154 L33.7357576,27.6972308 L33.5612121,27.8350769 L1.39636364,60.4947692 C0.638562016,61.2642293 0.638562016,62.5117707 1.39636364,63.2812308 C2.15416526,64.0506909 3.38280444,64.0506909 4.14060606,63.2812308 L36.3054545,30.6215385 C36.4256471,30.4939082 36.529869,30.3517054 36.6157576,30.1981538 L39.8739394,39.2763077 C40.1160179,39.9494165 40.6990906,40.4358722 41.3963636,40.5464615 C41.4963381,40.5561585 41.5969952,40.5561585 41.6969697,40.5464615 C42.2972056,40.5449966 42.8629477,40.2614094 43.2290909,39.7784615 L50.1236364,30.72 L61.2751515,30.3163077 C61.97876,30.290701 62.6134377,29.8799163 62.9333333,29.2430769 C63.239108,28.6241679 63.2022889,27.8876726 62.8363636,27.3033846 Z M49.1054545,26.88 C48.5291964,26.9022247 47.9925675,27.1836884 47.6412121,27.648 L42.3466667,34.5993846 L39.3793939,26.3384615 C39.181368,25.7866643 38.7511219,25.3534095 38.2060606,25.1569231 L30.0509091,22.2030769 L36.8387879,16.7778462 C37.2924204,16.419141 37.565919,15.8745483 37.5854545,15.2910769 L37.8375758,6.48861538 L45.0230303,11.4116923 C45.5015437,11.7387789 46.0986188,11.832605 46.6521212,11.6676923 L54.9721212,9.19630769 L52.5866667,17.6541538 C52.42707,18.2176204 52.5230461,18.8239925 52.8484848,19.3083077 L57.6969697,26.5747692 L49.1054545,26.88 Z" id="Shape"></path>
                            </g>
                        </g>
                    </g>
                </g>
            </g>
        </g>
    </g>
</svg>