<?xml version="1.0" encoding="UTF-8"?>
<svg width="26px" height="26px" viewBox="0 0 26 26" version="1.1" xmlns="http://www.w3.org/2000/svg" xmlns:xlink="http://www.w3.org/1999/xlink">
    <!-- Generator: Sketch 53.2 (72643) - https://sketchapp.com -->
    <title>Icon/misc_black</title>
    <desc>Created with Sketch.</desc>
    <g id="Icon/misc_black" stroke="none" stroke-width="1" fill="none" fill-rule="evenodd">
        <g id="Sonstiges" transform="translate(4.000000, 4.000000)">
            <path d="M16.912,0.112 L2.352,0.112 C1.11488216,0.112 0.112,1.11488216 0.112,2.352 L0.112,12.432 C0.112,13.6691178 1.11488216,14.672 2.352,14.672 L4.592,14.672 L4.592,18.032 L7.952,14.672 L16.912,14.672 C18.1491178,14.672 19.152,13.6691178 19.152,12.432 L19.152,2.352 C19.152,1.11488216 18.1491178,0.112 16.912,0.112 Z" id="Shape" stroke="#000000" stroke-linecap="round" stroke-linejoin="round"></path>
            <path d="M5.376,9.632 L5.37458432,9.63205376 L5.376,9.632 L5.376,9.632 Z M5.376,8.512 C4.75744108,8.512 4.256,9.01344108 4.256,9.632 C4.256,10.2505589 4.75744108,10.752 5.376,10.752 C5.99455892,10.752 6.496,10.2505589 6.496,9.632 C6.496,9.01344108 5.99455892,8.512 5.376,8.512 Z" id="Shape" fill="#000000" fill-rule="nonzero"></path>
            <path d="M9.632,9.632 L9.63058432,9.63205376 L9.632,9.632 L9.632,9.632 Z M9.632,8.512 C9.01344108,8.512 8.512,9.01344108 8.512,9.632 C8.512,10.2505589 9.01344108,10.752 9.632,10.752 C10.2505589,10.752 10.752,10.2505589 10.752,9.632 C10.752,9.01344108 10.2505589,8.512 9.632,8.512 Z" id="Shape" fill="#000000" fill-rule="nonzero"></path>
            <path d="M14.112,9.632 L14.1105843,9.63205376 L14.112,9.632 L14.112,9.632 Z M14.112,8.512 C13.4934411,8.512 12.992,9.01344108 12.992,9.632 C12.992,10.2505589 13.4934411,10.752 14.112,10.752 C14.7305589,10.752 15.232,10.2505589 15.232,9.632 C15.232,9.01344108 14.7305589,8.512 14.112,8.512 Z" id="Shape" fill="#000000" fill-rule="nonzero"></path>
        </g>
    </g>
</svg>