<?xml version="1.0" encoding="UTF-8"?>
<svg width="26px" height="26px" viewBox="0 0 26 26" version="1.1" xmlns="http://www.w3.org/2000/svg" xmlns:xlink="http://www.w3.org/1999/xlink">
    <!-- Generator: Sketch 53.2 (72643) - https://sketchapp.com -->
    <title>Icon/My Orders Blue</title>
    <desc>Created with Sketch.</desc>
    <g id="Icon/My-Orders-Blue" stroke="none" stroke-width="1" fill="none" fill-rule="evenodd">
        <g id="Paket-blue" transform="translate(3.000000, 6.000000)" stroke="#001489">
            <path d="M1.94126101,4.16206611 L2.03380956,7.47185656 C2.0410497,7.73078373 2.24483792,7.94131036 2.5033927,7.95696682 L8.98018764,8.34916095 C8.99963298,8.35033844 9.01913051,8.35037848 9.03858053,8.34928087 C9.31428425,8.33372225 9.52517351,8.09760747 9.50961489,7.82190375 L9.32021124,4.46561139 L1.94126101,4.16206611 Z" id="Rectangle-7" transform="translate(5.718459, 6.245271) rotate(26.000000) translate(-5.718459, -6.245271) "></path>
            <path d="M11.4342535,4.84533082 L11.2771379,8.11663834 C11.2765168,8.13354992 11.2765168,8.13354992 11.2766592,8.15047231 C11.2820977,8.42656113 11.5103208,8.64596649 11.7864096,8.64052791 L17.5213502,8.52755718 C17.7766589,8.52252794 17.9871534,8.32592302 18.0095721,8.07155078 L18.2555165,5.28096293 L11.4342535,4.84533082 Z" id="Rectangle-7-Copy" transform="translate(14.783256, 6.727301) rotate(-23.000000) translate(-14.783256, -6.727301) "></path>
            <path d="M3.2363338,7.13940299 L3.2363338,11.2364652 C3.2363338,11.6211705 3.45701995,11.9717666 3.80389454,12.1381283 L9.59826195,14.9171175 C9.85397082,15.0397559 10.1497261,15.0480532 10.4119085,14.939944 L16.3812073,12.4785426 C16.755666,12.324137 17,11.9590967 17,11.554053 L17,7.58961549" id="Path-5"></path>
            <path d="M10.423067,14.7900246 L10.3355315,6" id="Line-3"></path>
            <path d="M3.17362681,2.49341565 C4.85474364,1.8977642 6.95159537,1.13959774 9.464182,0.218916283 L9.46417893,0.218907894 C10.009744,0.0189976979 10.615278,0.0662256522 11.1232509,0.34830538 L17.4721936,3.87390338" id="Path-6"></path>
        </g>
    </g>
</svg>