<?xml version="1.0" encoding="UTF-8"?>
<svg width="26px" height="26px" viewBox="0 0 26 26" version="1.1" xmlns="http://www.w3.org/2000/svg" xmlns:xlink="http://www.w3.org/1999/xlink">
    <!-- Generator: Sketch 53.2 (72643) - https://sketchapp.com -->
    <title>Icon/MyData Black</title>
    <desc>Created with Sketch.</desc>
    <g id="Icon/MyData-Black" stroke="none" stroke-width="1" fill="none" fill-rule="evenodd">
        <g id="Software" transform="translate(3.000000, 4.000000)">
            <rect id="Rectangle-path" stroke="#000000" stroke-linecap="round" stroke-linejoin="round" x="0.112" y="0.112" width="8.96" height="16.8" rx="1.12"></rect>
            <rect id="Rectangle-path" stroke="#000000" stroke-linecap="round" stroke-linejoin="round" x="0.112" y="2.352" width="8.96" height="11.2"></rect>
            <path d="M4.032,15.232 L5.152,15.232" id="Shape" stroke="#000000" stroke-linecap="round" stroke-linejoin="round"></path>
            <polyline id="Shape" stroke="#000000" stroke-linecap="round" stroke-linejoin="round" points="9.072 2.352 19.152 2.352 19.152 15.792 9.072 15.792"></polyline>
            <polyline id="Shape" stroke="#000000" stroke-linecap="round" stroke-linejoin="round" points="9.072 9.072 11.312 11.312 14.672 7.952 16.912 10.192 19.152 10.192"></polyline>
            <path d="M19.152,4.592 L9.072,4.592" id="Shape" stroke="#000000" stroke-linecap="round" stroke-linejoin="round"></path>
            <g id="Icon/Gear-black" transform="translate(1.500000, 4.500000)">
                <g id="Gear" transform="translate(0.923077, 0.923077)">
                    <path d="M4.13136652,2.30758371 L3.72086878,2.376 C3.66906787,2.38479638 3.6280181,2.42291403 3.61531222,2.47276018 C3.57817195,2.61643439 3.52148416,2.75424434 3.44524887,2.88228054 C3.41885973,2.92723982 3.42081448,2.98295023 3.45111312,3.02595475 L3.69252489,3.36608145 C3.69936652,3.3758552 3.69838914,3.39051584 3.68959276,3.39931222 L3.39833484,3.69057014 C3.39149321,3.69741176 3.38465158,3.69838914 3.37976471,3.69838914 C3.37390045,3.69838914 3.36901357,3.69643439 3.36510407,3.69350226 L3.02595475,3.4520905 C2.9839276,3.42179186 2.92723982,3.4198371 2.88228054,3.44622624 C2.75424434,3.52246154 2.61643439,3.57914932 2.47276018,3.61628959 C2.42193665,3.62899548 2.383819,3.67102262 2.376,3.72184615 L2.30660633,4.13234389 C2.30465158,4.14504977 2.29390045,4.15384615 2.28119457,4.15384615 L1.86971946,4.15384615 C1.85701357,4.15384615 1.84626244,4.14504977 1.84430769,4.13234389 L1.7758914,3.72184615 C1.76709502,3.67004525 1.72897738,3.62899548 1.67913122,3.61628959 C1.53936652,3.5801267 1.40448869,3.52441629 1.27840724,3.4520905 C1.25788235,3.44036199 1.23442534,3.43449774 1.2119457,3.43449774 C1.18555656,3.43449774 1.15819005,3.44231674 1.13571041,3.45893213 L0.793628959,3.70229864 C0.788742081,3.70523077 0.783855204,3.70718552 0.778968326,3.70718552 C0.775058824,3.70718552 0.767239819,3.70620814 0.76039819,3.69936652 L0.469140271,3.4081086 C0.460343891,3.39931222 0.459366516,3.38562896 0.466208145,3.37487783 L0.706642534,3.03768326 C0.736941176,2.99467873 0.738895928,2.93799095 0.712506787,2.89303167 C0.636271493,2.76597285 0.577628959,2.6281629 0.540488688,2.48448869 C0.52680543,2.43464253 0.485755656,2.39652489 0.434932127,2.38772851 L0.0215022624,2.31735747 C0.00879638009,2.31540271 0,2.30465158 0,2.2919457 L0,1.88047059 C0,1.86776471 0.00879638009,1.85701357 0.0215022624,1.85505882 L0.429067873,1.78664253 C0.480868778,1.77784615 0.522895928,1.73972851 0.53560181,1.68890498 C0.571764706,1.54523077 0.627475113,1.40644344 0.702733032,1.27840724 C0.729122172,1.23344796 0.726190045,1.17773756 0.695891403,1.13571041 L0.452524887,0.793628959 C0.445683258,0.783855204 0.446660633,0.76919457 0.455457014,0.76039819 L0.746714932,0.469140271 C0.753556561,0.462298643 0.76039819,0.461321267 0.765285068,0.461321267 C0.771149321,0.461321267 0.776036199,0.463276018 0.779945701,0.466208145 L1.11714027,0.706642534 C1.1601448,0.736941176 1.21683258,0.738895928 1.26179186,0.712506787 C1.38885068,0.636271493 1.52666063,0.577628959 1.67033484,0.540488688 C1.720181,0.52680543 1.75829864,0.485755656 1.76709502,0.434932127 L1.83746606,0.0215022624 C1.83942081,0.00879638009 1.85017195,0 1.86287783,0 L2.27435294,0 C2.28705882,0 2.29780995,0.00879638009 2.29976471,0.0215022624 L2.368181,0.429067873 C2.37697738,0.480868778 2.41509502,0.522895928 2.46591855,0.53560181 C2.61350226,0.572742081 2.75424434,0.63040724 2.88521267,0.70761991 C2.93017195,0.73400905 2.98588235,0.732054299 3.02888688,0.701755656 L3.36608145,0.459366516 C3.37096833,0.456434389 3.3758552,0.454479638 3.38074208,0.454479638 C3.38465158,0.454479638 3.39247059,0.455457014 3.39931222,0.462298643 L3.69057014,0.753556561 C3.69936652,0.762352941 3.70034389,0.776036199 3.69350226,0.78678733 L3.4520905,1.12593665 C3.42179186,1.1679638 3.4198371,1.22465158 3.44622624,1.26961086 C3.52246154,1.39764706 3.57914932,1.53545701 3.61628959,1.67913122 C3.62899548,1.72995475 3.67102262,1.7680724 3.72184615,1.7758914 L4.13234389,1.84528507 C4.14504977,1.84723982 4.15384615,1.85799095 4.15384615,1.87069683 L4.15384615,2.28217195 C4.15286878,2.29487783 4.1440724,2.30562896 4.13136652,2.30758371 Z" id="Path-Copy-2" stroke="#000000" stroke-width="1.5" fill="#000000" fill-rule="nonzero" stroke-linejoin="round"></path>
                    <path d="M2.07692308,1.38461538 C1.69491399,1.38461538 1.38461538,1.69491399 1.38461538,2.07692308 C1.38461538,2.45893216 1.69491399,2.76923077 2.07692308,2.76923077 C2.45893216,2.76923077 2.76923077,2.45893216 2.76923077,2.07692308 C2.76923077,1.69491399 2.45893216,1.38461538 2.07692308,1.38461538 Z" id="Path" fill="#FFFFFF" fill-rule="nonzero"></path>
                </g>
            </g>
        </g>
    </g>
</svg>