<?xml version="1.0" encoding="UTF-8"?>
<svg width="26px" height="26px" viewBox="0 0 26 26" version="1.1" xmlns="http://www.w3.org/2000/svg" xmlns:xlink="http://www.w3.org/1999/xlink">
    <!-- Generator: Sketch 53.2 (72643) - https://sketchapp.com -->
    <title>Icon/MyDataWhite</title>
    <desc>Created with Sketch.</desc>
    <g id="Icon/MyDataWhite" stroke="none" stroke-width="1" fill="none" fill-rule="evenodd" stroke-linejoin="round">
        <g id="Software" transform="translate(3.000000, 4.000000)" stroke="#FFFFFF">
            <rect id="Rectangle-path" stroke-linecap="round" x="0.112" y="0.112" width="8.96" height="16.8" rx="1.12"></rect>
            <rect id="Rectangle-path" stroke-linecap="round" x="0.112" y="2.352" width="8.96" height="11.2"></rect>
            <path d="M4.032,15.232 L5.152,15.232" id="Shape" stroke-linecap="round"></path>
            <polyline id="Shape" stroke-linecap="round" points="9.072 2.352 19.152 2.352 19.152 15.792 9.072 15.792"></polyline>
            <polyline id="Shape" stroke-linecap="round" points="9.072 9.072 11.312 11.312 14.672 7.952 16.912 10.192 19.152 10.192"></polyline>
            <path d="M19.152,4.592 L9.072,4.592" id="Shape" stroke-linecap="round"></path>
            <path d="M7.46752941,7.83317647 L6.87458824,7.932 C6.79976471,7.94470588 6.74047059,7.99976471 6.72211765,8.07176471 C6.66847059,8.27929412 6.58658824,8.47835294 6.47647059,8.66329412 C6.43835294,8.72823529 6.44117647,8.80870588 6.48494118,8.87082353 L6.83364706,9.36211765 C6.84352941,9.37623529 6.84211765,9.39741176 6.82941176,9.41011765 L6.40870588,9.83082353 C6.39882353,9.84070588 6.38894118,9.84211765 6.38188235,9.84211765 C6.37341176,9.84211765 6.36635294,9.83929412 6.36070588,9.83505882 L5.87082353,9.48635294 C5.81011765,9.44258824 5.72823529,9.43976471 5.66329412,9.47788235 C5.47835294,9.588 5.27929412,9.66988235 5.07176471,9.72352941 C4.99835294,9.74188235 4.94329412,9.80258824 4.932,9.876 L4.83176471,10.4689412 C4.82894118,10.4872941 4.81341176,10.5 4.79505882,10.5 L4.20070588,10.5 C4.18235294,10.5 4.16682353,10.4872941 4.164,10.4689412 L4.06517647,9.876 C4.05247059,9.80117647 3.99741176,9.74188235 3.92541176,9.72352941 C3.72352941,9.67129412 3.52870588,9.59082353 3.34658824,9.48635294 C3.31694118,9.46941176 3.28305882,9.46094118 3.25058824,9.46094118 C3.21247059,9.46094118 3.17294118,9.47223529 3.14047059,9.49623529 L2.64635294,9.84776471 C2.63929412,9.852 2.63223529,9.85482353 2.62517647,9.85482353 C2.61952941,9.85482353 2.60823529,9.85341176 2.59835294,9.84352941 L2.17764706,9.42282353 C2.16494118,9.41011765 2.16352941,9.39035294 2.17341176,9.37482353 L2.52070588,8.88776471 C2.56447059,8.82564706 2.56729412,8.74376471 2.52917647,8.67882353 C2.41905882,8.49529412 2.33435294,8.29623529 2.28070588,8.08870588 C2.26094118,8.01670588 2.20164706,7.96164706 2.12823529,7.94894118 L1.53105882,7.84729412 C1.51270588,7.84447059 1.5,7.82894118 1.5,7.81058824 L1.5,7.21623529 C1.5,7.19788235 1.51270588,7.18235294 1.53105882,7.17952941 L2.11976471,7.08070588 C2.19458824,7.068 2.25529412,7.01294118 2.27364706,6.93952941 C2.32588235,6.732 2.40635294,6.53152941 2.51505882,6.34658824 C2.55317647,6.28164706 2.54894118,6.20117647 2.50517647,6.14047059 L2.15364706,5.64635294 C2.14376471,5.63223529 2.14517647,5.61105882 2.15788235,5.59835294 L2.57858824,5.17764706 C2.58847059,5.16776471 2.59835294,5.16635294 2.60541176,5.16635294 C2.61388235,5.16635294 2.62094118,5.16917647 2.62658824,5.17341176 L3.11364706,5.52070588 C3.17576471,5.56447059 3.25764706,5.56729412 3.32258824,5.52917647 C3.50611765,5.41905882 3.70517647,5.33435294 3.91270588,5.28070588 C3.98470588,5.26094118 4.03976471,5.20164706 4.05247059,5.12823529 L4.15411765,4.53105882 C4.15694118,4.51270588 4.17247059,4.5 4.19082353,4.5 L4.78517647,4.5 C4.80352941,4.5 4.81905882,4.51270588 4.82188235,4.53105882 L4.92070588,5.11976471 C4.93341176,5.19458824 4.98847059,5.25529412 5.06188235,5.27364706 C5.27505882,5.32729412 5.47835294,5.41058824 5.66752941,5.52211765 C5.73247059,5.56023529 5.81294118,5.55741176 5.87505882,5.51364706 L6.36211765,5.16352941 C6.36917647,5.15929412 6.37623529,5.15647059 6.38329412,5.15647059 C6.38894118,5.15647059 6.40023529,5.15788235 6.41011765,5.16776471 L6.83082353,5.58847059 C6.84352941,5.60117647 6.84494118,5.62094118 6.83505882,5.63647059 L6.48635294,6.12635294 C6.44258824,6.18705882 6.43976471,6.26894118 6.47788235,6.33388235 C6.588,6.51882353 6.66988235,6.71788235 6.72352941,6.92541176 C6.74188235,6.99882353 6.80258824,7.05388235 6.876,7.06517647 L7.46894118,7.16541176 C7.48729412,7.16823529 7.5,7.18376471 7.5,7.20211765 L7.5,7.79647059 L7.49858824,7.79647059 C7.49858824,7.81482353 7.48588235,7.83035294 7.46752941,7.83317647 Z M4.5,6 C3.67231365,6 3,6.67231365 3,7.5 C3,8.32768635 3.67231365,9 4.5,9 C5.32768635,9 6,8.32768635 6,7.5 C6,6.67231365 5.32768635,6 4.5,6 Z" id="Combined-Shape" stroke-width="0.5" fill="#FFFFFF" fill-rule="nonzero"></path>
        </g>
    </g>
</svg>