<?xml version="1.0" encoding="UTF-8"?>
<svg width="26px" height="26px" viewBox="0 0 26 26" version="1.1" xmlns="http://www.w3.org/2000/svg" xmlns:xlink="http://www.w3.org/1999/xlink">
    <!-- Generator: Sketch 53.2 (72643) - https://sketchapp.com -->
    <title>Icon/Onlinehelp white</title>
    <desc>Created with Sketch.</desc>
    <g id="Icon/Onlinehelp-white" stroke="none" stroke-width="1" fill="none" fill-rule="evenodd">
        <path d="M10.5,14.5 C10.5,15.4346405 10.5,16.8366013 10.5,18.7058824 C10.5,19.6805025 11.2900857,20.4705882 12.2647059,20.4705882 L15.3529412,20.4705882 L15.3529412,23.1176471 L18,20.4705882 L23.7352941,20.4705882 C24.7099143,20.4705882 25.5,19.6805025 25.5,18.7058824 L25.5,10.7647059 C25.5,9.79008574 24.7099143,9 23.7352941,9 L14.1394043,9" id="Path" stroke="#FFFFFF" stroke-linecap="round" stroke-linejoin="round"></path>
        <path d="M8.02956277,2.02135833 L7.46875,2 L6.61021199,2.03129842 C3.20021374,2.15561156 0.5,4.95605659 0.5,8.36832005 L0.5,8.97147553 C0.5,12.0151805 2.96741042,14.4825909 6.01111541,14.4825909 L6.01111541,14.4825909 L8.20521495,17.136303 L8.70720593,14.4825909 L8.70720593,14.4825909 C11.7073262,14.4825909 14.1394043,12.0505129 14.1394043,9.05039257 L14.1394043,8.36832005 C14.1394043,4.95450167 11.4409081,2.15127803 8.02956277,2.02135833 Z" id="Shape-Copy" stroke="#FFFFFF" stroke-linecap="round" stroke-linejoin="round"></path>
        <polyline id="Ω" stroke="#FFFFFF" stroke-linecap="round" transform="translate(18.242641, 13.242641) rotate(45.000000) translate(-18.242641, -13.242641) " points="20.2426407 9.24264069 20.2426407 17.2426407 16.2426407 17.2426407"></polyline>
        <path d="M6.8567144,10.75 C6.45483112,10.75 6.2538925,10.5706985 6.2538925,10.2120902 C6.2538925,9.79371376 6.3352248,9.44578349 6.49789184,9.16828893 C6.66055888,8.89079438 6.84475262,8.67947477 7.05047858,8.53432377 C7.25620454,8.38917277 7.51216207,8.23975487 7.81835885,8.08606557 C8.08628103,7.94945287 8.28004328,7.83845671 8.39965139,7.75307377 C8.51925951,7.66769083 8.61494457,7.55669467 8.68670944,7.42008197 C8.75847431,7.28346926 8.79435621,7.09989869 8.79435621,6.86936475 C8.79435621,6.52783299 8.75129793,6.26528439 8.66518009,6.08171107 C8.57906224,5.89813774 8.43314253,5.76793071 8.22741657,5.69108607 C8.02169061,5.61424142 7.72745905,5.57581967 7.34471308,5.57581967 L7.65528692,5.57581967 C7.27254095,5.57581967 6.97830939,5.61424142 6.77258343,5.69108607 C6.56685747,5.76793071 6.42093776,5.89813774 6.33481991,6.08171107 C6.24870207,6.26528439 6.20564379,6.52783299 6.20564379,6.86936475 C6.20564379,7.2279731 6.00470517,7.40727459 5.6028219,7.40727459 C5.20093862,7.40727459 5,7.2279731 5,6.86936475 C5,5.28978035 5.88508679,4.5 7.65528692,4.5 L7.34471308,4.5 C8.24416612,4.5 8.9115694,4.69424328 9.34694295,5.08273566 C9.78231649,5.47122804 10,6.06676511 10,6.86936475 C10,7.28774116 9.9186677,7.63567143 9.75600066,7.91316598 C9.59333362,8.19066054 9.40913988,8.40198015 9.20341392,8.54713115 C8.99768796,8.69228215 8.74173043,8.84170005 8.43553365,8.99538934 C8.16761147,9.13200205 7.97384922,9.24299821 7.85424111,9.32838115 C7.73463299,9.41376409 7.63894793,9.52476025 7.56718306,9.66137295 C7.49541819,9.79798566 7.45953629,9.98155622 7.45953629,10.2120902 C7.45953629,10.5706985 7.25859767,10.75 6.8567144,10.75 Z M6.96875,13.125 C7.36570466,13.125 7.6875,12.8032047 7.6875,12.40625 C7.6875,12.0092953 7.36570466,11.6875 6.96875,11.6875 C6.57179534,11.6875 6.25,12.0092953 6.25,12.40625 C6.25,12.8032047 6.57179534,13.125 6.96875,13.125 Z" id="?" fill="#FFFFFF"></path>
    </g>
</svg>