<?xml version="1.0" encoding="UTF-8"?>
<svg width="26px" height="26px" viewBox="0 0 26 26" version="1.1" xmlns="http://www.w3.org/2000/svg" xmlns:xlink="http://www.w3.org/1999/xlink">
    <!-- Generator: Sketch 53.2 (72643) - https://sketchapp.com -->
    <title>Icon/Payment Blue</title>
    <desc>Created with Sketch.</desc>
    <g id="Icon/Payment-Blue" stroke="none" stroke-width="1" fill="none" fill-rule="evenodd">
        <path d="M7.90036237,15 L5,15 C4.44771525,15 4,14.5522847 4,14 L4,7 C4,6.44771525 4.44771525,6 5,6 L17,6 C17.5522847,6 18,6.44771525 18,7 L18,11.0003373" id="Path" stroke="#001489"></path>
        <path d="M3.5,11.1890101 L8.30732433,11.1890101" id="Line" stroke="#001489"></path>
        <path d="M3.5,8.60498266 L17.7808031,8.60498266" id="Line-Copy" stroke="#001489"></path>
        <rect id="Rectangle" stroke="#001489" x="8" y="10.5" width="14" height="9" rx="1"></rect>
        <path d="M14.9442842,13.6165063 C14.5802393,13.2365671 14.0677462,13 13.5,13 C12.3954305,13 11.5,13.8954305 11.5,15 C11.5,16.1045695 12.3954305,17 13.5,17 C14.0960291,17 14.6311629,16.7392762 14.9975733,16.3256565" id="Path" stroke="#001489"></path>
        <circle id="Oval-Copy" stroke="#001489" cx="16.5" cy="15" r="2"></circle>
    </g>
</svg>