<?xml version="1.0" encoding="UTF-8"?>
<svg width="26px" height="26px" viewBox="0 0 26 26" version="1.1" xmlns="http://www.w3.org/2000/svg" xmlns:xlink="http://www.w3.org/1999/xlink">
    <!-- Generator: Sketch 53.2 (72643) - https://sketchapp.com -->
    <title>Icon/PDF_blue</title>
    <desc>Created with Sketch.</desc>
    <g id="Icon/PDF_blue" stroke="none" stroke-width="1" fill="none" fill-rule="evenodd">
        <g id="PDF-Download" transform="translate(3.000000, 2.000000)">
            <path d="M5.5,20.503929 L3.502,20.503929 C2.94971525,20.503929 2.502,20.0562137 2.502,19.503929 L2.502,1.5044 C2.502,0.95211525 2.94971525,0.5044 3.502,0.5044 L13.163142,0.5044 C13.4283585,0.5044 13.6827126,0.609756622 13.870249,0.797293 L18.3503964,5.2774414 C18.4441646,5.37120958 18.496843,5.49838652 18.496843,5.63099475 L18.496843,19.503929 C18.496843,20.0562137 18.0491277,20.503929 17.496843,20.503929 L15.5,20.503929" id="Path" stroke="#001489" stroke-linecap="round"></path>
            <path d="M13.5,0.706805861 L13.5,4.5 C13.5,5.05228475 13.9477153,5.5 14.5,5.5 L18.5802504,5.5" id="Path-4" stroke="#001489"></path>
            <rect id="Rectangle" fill="#001489" x="0" y="3" width="12" height="6" rx="1"></rect>
            <path d="M13.0039757,16.6051913 L13.0039757,22.1051913 C13.0039757,22.3813336 12.7801181,22.6051913 12.5039757,22.6051913 L8.50397568,22.6051913 C8.2278333,22.6051913 8.00397568,22.3813336 8.00397568,22.1051913 L8.00397568,16.6051913 L6.30325357,16.6051913 C6.0271112,16.6051913 5.80325357,16.3813336 5.80325357,16.1051913 C5.80325357,15.9634234 5.86343506,15.8283198 5.96882363,15.733497 L9.83312579,12.2566115 C10.2133988,11.9144628 10.7905725,11.9144628 11.1708456,12.2566115 L15.0351477,15.733497 C15.2404288,15.9181976 15.2571126,16.2343401 15.072412,16.4396212 C14.9775892,16.5450098 14.8424856,16.6051913 14.7007178,16.6051913 L13.0039757,16.6051913 Z" id="Triangle-2" fill="#001489" transform="translate(10.501988, 17.302596) rotate(180.000000) translate(-10.501988, -17.302596) "></path>
            <path d="M2.38346001,7.69680002 L2.38346001,4.67531996 L3.33518003,4.67531996 C4.00508004,4.67531996 4.50404005,4.90631996 4.50404005,5.60855998 C4.50404005,6.27845999 4.00508004,6.588 3.35366003,6.588 L2.91938002,6.588 L2.91938002,7.69680002 L2.38346001,7.69680002 Z M2.91938002,6.15833999 L3.31208003,6.15833999 C3.76022004,6.15833999 3.97736004,5.97815998 3.97736004,5.60855998 C3.97736004,5.22971997 3.74174004,5.10497997 3.29360003,5.10497997 L2.91938002,5.10497997 L2.91938002,6.15833999 Z M5.07230007,7.69680002 L5.07230007,4.67531996 L5.88080008,4.67531996 C6.8048001,4.67531996 7.34996012,5.17427997 7.34996012,6.17219999 C7.34996012,7.17474001 6.8048001,7.69680002 5.90852008,7.69680002 L5.07230007,7.69680002 Z M5.60822008,7.26252001 L5.84384008,7.26252001 C6.4536801,7.26252001 6.8001801,6.91602001 6.8001801,6.17219999 C6.8001801,5.43299997 6.4536801,5.10959997 5.84384008,5.10959997 L5.60822008,5.10959997 L5.60822008,7.26252001 Z M7.95980013,7.69680002 L7.95980013,4.67531996 L9.78470017,4.67531996 L9.78470017,5.12807997 L8.49572014,5.12807997 L8.49572014,5.98277998 L9.59528016,5.98277998 L9.59528016,6.43553999 L8.49572014,6.43553999 L8.49572014,7.69680002 L7.95980013,7.69680002 Z" id="PDF" fill="#FFFFFF"></path>
        </g>
    </g>
</svg>