<?xml version="1.0" encoding="UTF-8"?>
<svg width="24px" height="24px" viewBox="0 0 24 24" version="1.1" xmlns="http://www.w3.org/2000/svg" xmlns:xlink="http://www.w3.org/1999/xlink">
    <title>phone-sms</title>
    <g id="phone-sms" stroke="none" stroke-width="1" fill="none" fill-rule="evenodd" stroke-linecap="round" stroke-linejoin="round">
        <g id="Group" transform="translate(0.750000, 0.750000)" stroke="#000000" stroke-width="1.5">
            <g id="phone-type">
                <path d="M12,13.5 L12,19.768 C12,21.2768419 10.7768419,22.5 9.268,22.5 L2.733,22.5 C1.22399622,22.5 0.000552141889,21.2770037 0,19.768 L0,4.233 C0.00055189823,2.72383444 1.22383444,1.5005519 2.733,1.5 L5.25,1.5" id="Shape"></path>
                <line x1="0" y1="18" x2="12" y2="18" id="Shape"></line>
                <path d="M19.5,0 L11.25,0 C9.59314575,0 8.25,1.34314575 8.25,3 L8.25,7.5 C8.25,9.15685425 9.59314575,10.5 11.25,10.5 L15,10.5 L15,14.25 L18.75,10.5 L19.5,10.5 C21.1568542,10.5 22.5,9.15685425 22.5,7.5 L22.5,3 C22.5,1.34314575 21.1568542,0 19.5,0 Z" id="Shape"></path>
                <path d="M11.625,4.875 C11.4178932,4.875 11.25,5.04289322 11.25,5.25 C11.25,5.45710678 11.4178932,5.625 11.625,5.625 C11.8321068,5.625 12,5.45710678 12,5.25 C12,5.04289322 11.8321068,4.875 11.625,4.875" id="Shape"></path>
                <path d="M15.375,4.875 C15.1678932,4.875 15,5.04289322 15,5.25 C15,5.45710678 15.1678932,5.625 15.375,5.625 C15.5821068,5.625 15.75,5.45710678 15.75,5.25 C15.75,5.04289322 15.5821068,4.875 15.375,4.875" id="Shape"></path>
                <path d="M19.125,4.875 C18.9178932,4.875 18.75,5.04289322 18.75,5.25 C18.75,5.45710678 18.9178932,5.625 19.125,5.625 C19.3321068,5.625 19.5,5.45710678 19.5,5.25 C19.5,5.04289322 19.3321068,4.875 19.125,4.875" id="Shape"></path>
            </g>
        </g>
    </g>
</svg>