<?xml version="1.0" encoding="UTF-8"?>
<svg width="24px" height="24px" viewBox="0 0 24 24" version="1.1" xmlns="http://www.w3.org/2000/svg" xmlns:xlink="http://www.w3.org/1999/xlink">
    <title>phone-call</title>
    <g id="phone-call" stroke="none" stroke-width="1" fill="none" fill-rule="evenodd" stroke-linecap="round" stroke-linejoin="round">
        <g id="Group" transform="translate(0.750187, 0.760138)" stroke="#000000" stroke-width="1.5">
            <g id="phone">
                <path d="M14.2898133,21.6298623 L14.3018133,21.6368623 C16.489793,23.0298583 19.3517652,22.7159726 21.1858133,20.8818623 L21.9598133,20.1078623 C22.6796297,19.3871422 22.6796297,18.2195823 21.9598133,17.4988623 L18.6988133,14.2398623 C17.9780932,13.5200459 16.8105333,13.5200459 16.0898133,14.2398623 L16.0898133,14.2398623 C15.7441187,14.5859828 15.2750005,14.7804672 14.7858133,14.7804672 C14.296626,14.7804672 13.8275078,14.5859828 13.4818133,14.2398623 L8.26381328,9.02086228 C7.54399691,8.30014222 7.54399691,7.13258233 8.26381328,6.41186228 L8.26381328,6.41186228 C8.60993383,6.06616772 8.80441818,5.59704953 8.80441818,5.10786228 C8.80441818,4.61867503 8.60993383,4.14955684 8.26381328,3.80386228 L5.00381328,0.539862278 C4.28309323,-0.179954093 3.11553334,-0.179954093 2.39481328,0.539862278 L1.62081328,1.31386228 C-0.212901983,3.14800577 -0.527148209,6.00947538 0.864813282,8.19786228 L0.872813282,8.20986228 C4.44622591,13.4996872 9.00078738,18.0552671 14.2898133,21.6298623 L14.2898133,21.6298623 Z" id="Shape"></path>
            </g>
        </g>
    </g>
</svg>