<svg width="24" height="24" viewBox="0 0 24 24" fill="none" xmlns="http://www.w3.org/2000/svg">
<path fill-rule="evenodd" clip-rule="evenodd" d="M19.4416 5.59544H10.8488C11.531 6.39226 11.943 7.42722 11.943 8.5584V17.8348C11.943 18.073 11.9065 18.3027 11.8387 18.5185H21.7208C22.0984 18.5185 22.4046 18.2124 22.4046 17.8348V8.5584C22.4046 6.92201 21.078 5.59544 19.4416 5.59544ZM4.5584 5.59544H7.38462C9.02101 5.59544 10.3476 6.92201 10.3476 8.5584V17.8348C10.3476 18.2124 10.0414 18.5185 9.66382 18.5185H2.2792C1.90157 18.5185 1.59544 18.2124 1.59544 17.8348V8.5584C1.59544 6.92201 2.92201 5.59544 4.5584 5.59544ZM19.4416 4H7.38462H4.5584C2.04087 4 0 6.04087 0 8.5584V17.8348C0 19.0935 1.02043 20.114 2.2792 20.114H9.66382H21.7208C22.9796 20.114 24 19.0935 24 17.8348V8.5584C24 6.04087 21.9591 4 19.4416 4ZM18.9174 12.3875V10.245H19.6695V12.3875H18.9174ZM17.322 13.4131V10.245H13.9373C13.4967 10.245 13.1396 9.88787 13.1396 9.4473C13.1396 9.00673 13.4967 8.64958 13.9373 8.64958H17.8918H20.4444H20.6952C21.0099 8.64958 21.265 8.90468 21.265 9.21938V13.4131C21.265 13.7278 21.0099 13.9829 20.6952 13.9829H17.8918C17.5771 13.9829 17.322 13.7278 17.322 13.4131ZM4.74073 8.64958C4.30016 8.64958 3.94301 9.00673 3.94301 9.4473C3.94301 9.88787 4.30016 10.245 4.74073 10.245H7.17947C7.62004 10.245 7.9772 9.88787 7.9772 9.4473C7.9772 9.00673 7.62004 8.64958 7.17947 8.64958H4.74073Z" fill="black"/>
</svg>
