<?xml version="1.0" encoding="UTF-8"?>
<svg width="73px" height="75px" viewBox="0 0 73 75" version="1.1" xmlns="http://www.w3.org/2000/svg" xmlns:xlink="http://www.w3.org/1999/xlink">
    <!-- Generator: Sketch 54.1 (76490) - https://sketchapp.com -->
    <title>Icon/groß/post_white</title>
    <desc>Created with Sketch.</desc>
    <g id="Design-System" stroke="none" stroke-width="1" fill="none" fill-rule="evenodd">
        <g id="Icons" transform="translate(-1006.000000, -1388.000000)" stroke="#FFFFFF">
            <g id="Icon/groß/post_white" transform="translate(991.000000, 1376.000000)">
                <g id="Icon/post_white" transform="translate(15.000000, 12.000000)">
                    <path d="M23.379296,12.3227027 L50.7424735,13.0165998 L38.4543637,1.82958036 C37.2911308,0.770580324 35.5074446,0.789944808 34.3674772,1.87394941 L23.379296,12.3227027 Z M60.2559908,21.4129905 L13.7713826,21.4245307 C9.72024082,25.1723794 9.57000378,25.3113659 2.92151726,31.4619813 C2.33203072,32.022529 1.99544514,32.7984287 1.98893281,33.6035125 L1.99999749,70.6389554 C1.99999749,72.2958096 3.34314324,73.6389554 4.99999749,73.6389554 L69,73.6389554 C70.6568542,73.6389554 72,72.2958096 72,70.6389554 L72,33.695152 C72,32.8506618 71.6440674,32.0452819 71.0098346,31.4677609 C64.4163332,25.3028822 64.2653384,25.1617031 60.2559908,21.4129905 Z" id="Shape" stroke-width="2"></path>
                    <path d="M59.9411255,52.3553391 L15.3553391,96.9411255 L52.9411255,96.9411255 C56.8071187,96.9411255 59.9411255,93.8071187 59.9411255,89.9411255 L59.9411255,52.3553391 Z" id="Rectangle" stroke-width="2" transform="translate(36.941125, 73.941125) rotate(-135.000000) translate(-36.941125, -73.941125) "></path>
                    <path d="M24,53 L3,32" id="Line-4" stroke-width="2" stroke-linecap="square"></path>
                    <path d="M50,53 L71,32" id="Line-4-Copy" stroke-width="2" stroke-linecap="square"></path>
                    <path d="M14,42 L60,42 L60,16 C60,14.3431458 58.6568542,13 57,13 L17,13 C15.3431458,13 14,14.3431458 14,16 L14,42 Z" id="Path" stroke-width="2"></path>
                </g>
            </g>
        </g>
    </g>
</svg>