<?xml version="1.0" encoding="UTF-8"?>
<svg width="26px" height="26px" viewBox="0 0 26 26" version="1.1" xmlns="http://www.w3.org/2000/svg" xmlns:xlink="http://www.w3.org/1999/xlink">
    <!-- Generator: Sketch 53.2 (72643) - https://sketchapp.com -->
    <title>Icon/post_black</title>
    <desc>Created with Sketch.</desc>
    <g id="Icon/post_black" stroke="none" stroke-width="1" fill="none" fill-rule="evenodd">
        <path d="M9.20435458,5.84605225 L14.7710517,5.98721696 L12.1952909,3.64226017 C12.0014187,3.46576017 11.7041377,3.46898758 11.5141431,3.64965501 L9.20435458,5.84605225 Z M17.6070475,8.50200529 L6.55285561,8.36738478 L3.72983942,11.0518145 C3.63159166,11.1452391 3.57549406,11.2745557 3.5744033,11.4101253 L3.49999937,20.6597388 C3.49999937,20.9358812 3.723857,21.1597388 3.99999937,21.1597388 L20,21.1597388 C20.2761424,21.1597388 20.5,20.9358812 20.5,20.6597388 L20.5,11.423788 C20.5,11.2830396 20.4406779,11.1488097 20.3317172,11.0495528 L17.6070475,8.50200529 Z" id="Shape" stroke="#000000"></path>
        <path d="M17.4852814,16.6923882 L7.19238816,26.9852814 L15.9852814,26.9852814 C16.8137085,26.9852814 17.4852814,26.3137085 17.4852814,25.4852814 L17.4852814,16.6923882 Z" id="Rectangle" stroke="#000000" transform="translate(11.985281, 21.485281) rotate(-135.000000) translate(-11.985281, -21.485281) "></path>
        <path d="M9,16.5 L3.81926002,11.3374877" id="Line-4" stroke="#000000" stroke-linecap="square"></path>
        <path d="M15.0025575,16.640445 L20.1709869,11.8730262" id="Line-4-Copy" stroke="#000000" stroke-linecap="square"></path>
        <path d="M6.5,13.5597683 L17.5,13.7941817 L17.5,7 C17.5,6.72385763 17.2761424,6.5 17,6.5 L7,6.5 C6.72385763,6.5 6.5,6.72385763 6.5,7 L6.5,13.5597683 Z" id="Path" stroke="#000000"></path>
    </g>
</svg>