<?xml version="1.0" encoding="UTF-8"?>
<svg width="26px" height="26px" viewBox="0 0 26 26" version="1.1" xmlns="http://www.w3.org/2000/svg" xmlns:xlink="http://www.w3.org/1999/xlink">
    <!-- Generator: Sketch 53.2 (72643) - https://sketchapp.com -->
    <title>Icon/Questionmark_blue</title>
    <desc>Created with Sketch.</desc>
    <defs>
        <circle id="path-1" cx="11" cy="11" r="11"></circle>
        <path d="M11.970743,16.5 C11.3277298,16.5 11.006228,16.2131176 11.006228,15.6393443 C11.006228,14.969942 11.1363597,14.4132536 11.3966269,13.9692623 C11.6568942,13.525271 11.9516042,13.1871596 12.2807657,12.954918 C12.6099273,12.7226764 13.0194593,12.4836078 13.5093742,12.2377049 C13.9380497,12.0191246 14.2480692,11.8415307 14.4394422,11.704918 C14.6308152,11.5683053 14.7839113,11.3907115 14.8987351,11.1721311 C15.0135589,10.9535508 15.0709699,10.6598379 15.0709699,10.2909836 C15.0709699,9.74453279 15.0020767,9.32445502 14.8642881,9.0307377 C14.7264996,8.73702039 14.493028,8.52868914 14.1638665,8.4057377 C13.834705,8.28278627 13.3639345,8.22131148 12.7515409,8.22131148 L13.2484591,8.22131148 C12.6360655,8.22131148 12.165295,8.28278627 11.8361335,8.4057377 C11.506972,8.52868914 11.2735004,8.73702039 11.1357119,9.0307377 C10.9979233,9.32445502 10.9290301,9.74453279 10.9290301,10.2909836 C10.9290301,10.864757 10.6075283,11.1516393 9.96451503,11.1516393 C9.3215018,11.1516393 9,10.864757 9,10.2909836 C9,7.76364857 10.4161389,6.5 13.2484591,6.5 L12.7515409,6.5 C14.1906658,6.5 15.258511,6.81078924 15.9551087,7.43237705 C16.6517064,8.05396486 17,9.00682418 17,10.2909836 C17,10.9603859 16.8698683,11.5170743 16.6096011,11.9610656 C16.3493338,12.4050569 16.0546238,12.7431682 15.7254623,12.9754098 C15.3963007,13.2076514 14.9867687,13.4467201 14.4968538,13.692623 C14.0681783,13.9112033 13.7581588,14.0887971 13.5667858,14.2254098 C13.3754128,14.3620225 13.2223167,14.5396164 13.1074929,14.7581967 C12.9926691,14.976777 12.9352581,15.27049 12.9352581,15.6393443 C12.9352581,16.2131176 12.6137563,16.5 11.970743,16.5 Z M12.15,20.3 C12.7851275,20.3 13.3,19.7851275 13.3,19.15 C13.3,18.5148725 12.7851275,18 12.15,18 C11.5148725,18 11,18.5148725 11,19.15 C11,19.7851275 11.5148725,20.3 12.15,20.3 Z" id="path-3"></path>
    </defs>
    <g id="Icon/Questionmark_blue" stroke="none" stroke-width="1" fill="none" fill-rule="evenodd">
        <g id="Icon" transform="translate(2.000000, 2.000000)">
            <mask id="mask-2" fill="white">
                <use xlink:href="#path-1"></use>
            </mask>
            <use id="Oval" fill="#FFFFFF" xlink:href="#path-1"></use>
            <g id="Color/blue" mask="url(#mask-2)" fill="#001489">
                <g transform="translate(-2.000000, -2.000000)" id="Rectangle">
                    <rect x="0" y="0" width="26" height="26"></rect>
                </g>
            </g>
        </g>
        <g id="?" fill="#FFFFFF">
            <use xlink:href="#path-3"></use>
            <use xlink:href="#path-3"></use>
        </g>
    </g>
</svg>