<?xml version="1.0" encoding="UTF-8"?>
<svg width="26px" height="26px" viewBox="0 0 26 26" version="1.1" xmlns="http://www.w3.org/2000/svg" xmlns:xlink="http://www.w3.org/1999/xlink">
    <!-- Generator: Sketch 53.2 (72643) - https://sketchapp.com -->
    <title>Icon/Reimbursement Black</title>
    <desc>Created with Sketch.</desc>
    <g id="Icon/Reimbursement-Black" stroke="none" stroke-width="1" fill="none" fill-rule="evenodd">
        <path d="M4.49655172,17.5 C6.5649907,15.5673737 9.19947346,15.2759084 12.4,16.625604 C14.5,17.371733 14.8393273,17.5 15.5,17.8965544 C17,18.5878782 15.7588258,20.132963 15.0025575,20 C14.0675192,19.7887435 12.9727036,19.4752543 11.7181109,19.0595324" id="Line-9" stroke="#000000" stroke-linecap="round"></path>
        <path d="M16.2639555,18.7939423 C16.5674748,18.7939423 16.8203793,18.746807 17.0226688,18.6525363 C17.3261032,18.5111302 19.2423555,16.0892935 19.7475621,15.4263289 C20.2527686,14.7633643 21.8843669,15.4893693 21.1413086,16.6234671 C20.4480188,17.6816054 18.6537085,19.7448438 17.8994949,20.2959036 C17.1452814,20.8469633 14.4040921,22.4676386 13.6,22.8362472 C12.7959079,23.2048559 8,20.474432 7.20386463,20.474432 C6.40772927,20.474432 5.01445105,20.474432 4.80769731,20.474432" id="Line-8" stroke="#000000" stroke-linecap="round"></path>
        <path d="M19.7234173,15.3609154 C19.1768938,14.726772 18.6730307,14.627145 18.211828,15.0620342 C17.5200239,15.7143681 16.7192345,16.5804774 15.7588258,17.5171087" id="Line" stroke="#000000" stroke-linecap="square"></path>
        <path d="M7.23609679,8.67518005 C7.23609679,5.63761393 9.69853067,3.17518005 12.7360968,3.17518005 C15.7736629,3.17518005 18.2360968,5.63761393 18.2360968,8.67518005 C18.2360968,11.7127462 15.7736629,14.1751801 12.7360968,14.1751801" id="Path" stroke="#000000" stroke-linecap="round" transform="translate(12.736097, 8.675180) rotate(-15.000000) translate(-12.736097, -8.675180) "></path>
        <polyline id="Line" stroke="#000000" stroke-linecap="round" transform="translate(14.907107, 13.730297) rotate(-345.000000) translate(-14.907107, -13.730297) " points="13.9071068 12.7302973 13.9071068 14.7302973 15.9071068 14.7302973"></polyline>
        <path d="M11,7.5 L13,7.5" id="Shape" stroke="#000000" stroke-width="0.8" stroke-linecap="round" stroke-linejoin="round"></path>
        <path d="M11,8.5 L13,8.5" id="Shape" stroke="#000000" stroke-width="0.8" stroke-linecap="round" stroke-linejoin="round"></path>
        <path d="M14.5,6.40917163 C14.2495105,5.78307621 13.5242671,5.40744005 12.7828318,5.51977304 C12.0413964,5.63210604 11.4995944,6.19970905 11.5000002,6.86369402 L11.5000002,9.13630598 C11.4995944,9.80029095 12.0413964,10.367894 12.7828318,10.480227 C13.5242671,10.59256 14.2495105,10.2169238 14.5,9.59082837" id="Shape" stroke="#000000" stroke-width="0.8" stroke-linecap="round" stroke-linejoin="round"></path>
    </g>
</svg>