<?xml version="1.0" encoding="UTF-8"?>
<svg width="60px" height="70px" viewBox="0 0 60 70" version="1.1" xmlns="http://www.w3.org/2000/svg" xmlns:xlink="http://www.w3.org/1999/xlink">
    <title>IconReliable</title>
    <g id="000-Home-Desktop" stroke="none" stroke-width="1" fill="none" fill-rule="evenodd">
        <g id="FSL-V3-UI-000-Home-Desktop" transform="translate(-358.000000, -7888.000000)" stroke="#001489" stroke-width="3.25">
            <g id="Sicher-bestellen" transform="translate(0.000000, 7518.000000)">
                <g id="Product/Plus-Service-sicher-und-zuverlässig">
                    <g id="Einfach-und-sicher-Copy">
                        <g id="Qualität" transform="translate(360.500000, 367.000000)">
                            <g id="IconReliable" transform="translate(0.000000, 5.000000)">
                                <circle id="Oval" cx="27.664" cy="27.6637816" r="16.38"></circle>
                                <polyline id="Shape" stroke-linecap="round" stroke-linejoin="round" points="20.384 27.664 25.844 33.124 34.944 24.024"></polyline>
                                <path d="M27.664,54.9635705 C26.2805619,54.9872454 24.9157368,54.6423909 23.7095914,53.9643978 L20.9667203,52.3159728 C19.07535,51.2476105 17.0610698,50.4132324 14.9682406,49.8312142 L11.8629857,49.057241 C9.17588641,48.254302 7.07362718,46.1524258 6.27019848,43.465473 L5.496218,40.3598905 C4.91429701,38.2670277 4.07991415,36.252736 3.01145936,34.3614107 L1.36338384,31.6188891 C0.0309893663,29.1507504 0.0308607511,26.177627 1.36304168,23.709373 L3.0118088,20.9665019 C4.07980147,19.0749939 4.91404911,17.0607454 5.496218,14.9680222 L6.27019848,11.86276 C7.07320285,9.17546225 9.17538866,7.07314507 11.8626362,6.2699728 L14.9682406,5.4959996 C17.0610266,4.91385603 19.0752919,4.0794841 20.9667203,3.01124096 L23.7095914,1.36316544 L23.7095914,1.362816 C26.1776716,0.0310497231 29.1503284,0.0310497231 31.6184086,1.362816 L34.3612797,3.0115904 C36.2527889,4.07958235 38.2670371,4.91383228 40.3597594,5.49600688 L43.4650143,6.26998008 C46.1523121,7.07298445 48.2546292,9.17517026 49.0578015,11.8624178 L49.831782,14.9680222 C50.4139192,17.0608104 51.2482915,19.0750765 52.3165406,20.9665019 L53.9646162,23.709373 C55.2970106,26.1772664 55.2971393,29.1501888 53.9649583,31.6181975 L52.3161912,34.3614107 C51.247993,36.2528186 50.4137347,38.2670928 49.831782,40.3598905 L49.0578015,43.4648105 C48.2546269,46.1520567 46.1523107,48.2542415 43.4650143,49.0572482 L40.3597594,49.8312214 C38.267011,50.4131754 36.2528295,51.2475547 34.3616,52.3159728 L31.6183868,53.9643978 C30.4122478,54.6423871 29.0474307,54.9872416 27.664,54.9635705 Z" id="Shape"></path>
                                <polyline id="Shape" stroke-linecap="round" stroke-linejoin="round" points="14.924 51.324 14.924 65.884 27.664 62.244 40.404 65.884 40.404 51.324"></polyline>
                            </g>
                        </g>
                    </g>
                </g>
            </g>
        </g>
    </g>
</svg>