<?xml version="1.0" encoding="UTF-8"?>
<svg width="71px" height="58px" viewBox="0 0 71 58" version="1.1" xmlns="http://www.w3.org/2000/svg" xmlns:xlink="http://www.w3.org/1999/xlink">
    <!-- Generator: Sketch 54.1 (76490) - https://sketchapp.com -->
    <title>Icon/groß/Rezept_gray</title>
    <desc>Created with Sketch.</desc>
    <defs>
        <polygon id="path-1" points="0.000236666667 0.236 71 0.236 71 57.82 0.000236666667 57.82"></polygon>
    </defs>
    <g id="Design-System" stroke="none" stroke-width="1" fill="none" fill-rule="evenodd">
        <g id="Icons" transform="translate(-1112.000000, -1191.000000)">
            <g id="Icon/groß/Rezept_gray" transform="translate(1095.000000, 1168.000000)">
                <g id="Group-12" transform="translate(17.000000, 23.000000)">
                    <g id="Group-3">
                        <mask id="mask-2" fill="white">
                            <use xlink:href="#path-1"></use>
                        </mask>
                        <g id="Clip-2"></g>
                        <path d="M45.5988033,16.88108 L49.8351367,16.88108 C50.5049033,16.88108 50.9486533,16.43622 50.9486533,15.76952 L50.9486533,11.54512 L54.07147,11.54512 L54.07147,15.76952 C54.07147,16.43622 54.5164033,16.88108 55.18617,16.88108 L59.4225033,16.88108 L59.4225033,19.99392 L55.18617,19.99392 C54.5164033,19.99392 54.07147,20.43878 54.07147,21.10548 L54.07147,25.32988 L50.9486533,25.32988 L50.9486533,21.10548 C50.9486533,20.43878 50.5049033,19.99392 49.8351367,19.99392 L45.5988033,19.99392 L45.5988033,16.88108 Z M44.4841033,22.21704 L48.7204367,22.21704 L48.7204367,26.44144 C48.7204367,27.10814 49.1665533,27.553 49.8351367,27.553 L55.18617,27.553 C55.8547533,27.553 56.30087,27.10814 56.30087,26.44144 L56.30087,22.21704 L60.5372033,22.21704 C61.2057867,22.21704 61.65072,21.77218 61.65072,21.10548 L61.65072,15.76952 C61.65072,15.10282 61.2057867,14.65796 60.5372033,14.65796 L56.30087,14.65796 L56.30087,10.43356 C56.30087,9.76686 55.8547533,9.322 55.18617,9.322 L49.8351367,9.322 C49.1665533,9.322 48.7204367,9.76686 48.7204367,10.43356 L48.7204367,14.65796 L44.4841033,14.65796 C43.8143367,14.65796 43.3694033,15.10282 43.3694033,15.76952 L43.3694033,21.10548 C43.3694033,21.77218 43.8143367,22.21704 44.4841033,22.21704 L44.4841033,22.21704 Z M2.36690333,55.46 L68.63357,55.46 L68.63357,2.596 L2.36690333,2.596 L2.36690333,55.46 Z M69.8169033,0.236 L1.18357,0.236 C0.47357,0.236 0.000236666667,0.708 0.000236666667,1.416 L0.000236666667,56.64 C0.000236666667,57.348 0.47357,57.82 1.18357,57.82 L69.8169033,57.82 C70.52572,57.82 71.0002367,57.348 71.0002367,56.64 L71.0002367,1.416 C71.0002367,0.708 70.52572,0.236 69.8169033,0.236 L69.8169033,0.236 Z" id="Fill-1" fill="#B5B5B5" mask="url(#mask-2)"></path>
                    </g>
                    <path d="M12,12.5 L34,12.5" id="Stroke-4" stroke="#B5B5B5" stroke-width="2" stroke-linecap="round"></path>
                    <path d="M12,23.5 L34,23.5" id="Stroke-6" stroke="#B5B5B5" stroke-width="2" stroke-linecap="round"></path>
                    <path d="M12,34.5 L59,34.5" id="Stroke-8" stroke="#B5B5B5" stroke-width="2" stroke-linecap="round"></path>
                    <path d="M12,45.5 L59,45.5" id="Stroke-10" stroke="#B5B5B5" stroke-width="2" stroke-linecap="round"></path>
                </g>
            </g>
        </g>
    </g>
</svg>