<?xml version="1.0" encoding="utf-8"?>
<!-- Generator: Adobe Illustrator 25.0.0, SVG Export Plug-In . SVG Version: 6.00 Build 0)  -->
<svg version="1.1" id="Ebene_1" xmlns="http://www.w3.org/2000/svg" xmlns:xlink="http://www.w3.org/1999/xlink" x="0px" y="0px"
	 viewBox="0 0 27.9 24.2" style="enable-background:new 0 0 27.9 24.2;" xml:space="preserve">
<style type="text/css">
	.st0{fill:none;stroke:#FFFFFF;stroke-linecap:round;stroke-linejoin:round;}
	.st1{fill:none;stroke:#FFFFFF;stroke-linecap:round;}
</style>
<desc>Created with sketchtool.</desc>
<g id="Design-System">
	<g id="Icons" transform="translate(-351.000000, -341.000000)">
		<g id="Icon_x2F_MyData-Blue" transform="translate(349.000000, 338.000000)">
			<g id="Software" transform="translate(3.000000, 4.000000)">
				<path id="Rectangle-path" class="st0" d="M7.7,5.6h6.7c0.6,0,1.1,0.5,1.1,1.1v14.6c0,0.6-0.5,1.1-1.1,1.1H7.7
					c-0.6,0-1.1-0.5-1.1-1.1V6.7C6.6,6.1,7.1,5.6,7.7,5.6z"/>
				<rect id="Rectangle-path_1_" x="6.6" y="7.8" class="st0" width="9" height="11.2"/>
				<path id="Shape" class="st0" d="M10.5,20.7h1.1"/>
				<polyline id="Shape_1_" class="st0" points="15.6,7.8 25.7,7.8 25.7,21.2 15.6,21.2 				"/>
				<polyline id="Shape_2_" class="st0" points="15.6,14.5 17.8,16.8 21.2,13.4 23.4,15.6 25.7,15.6 				"/>
				<path id="Shape_3_" class="st0" d="M25.7,10H15.6"/>
			</g>
		</g>
	</g>
</g>
<g id="Design-System_1_">
	<g id="Icons_1_" transform="translate(-1292.000000, -250.000000)">
		<g id="Icon_x2F_groß_x2F_Connection_x5F_blue" transform="translate(1261.000000, 234.000000)">
			<path id="Path-15" class="st1" d="M38.3,17.3c-1.4-0.1-2.6,0.4-3.7,1.3s-1.7,2.1-1.8,3.6"/>
			<path id="Path-16" class="st1" d="M38.3,19.1c-1,0.1-1.8,0.4-2.4,0.9c-0.6,0.5-1,1.3-1.2,2.3"/>
			<path id="Path-17" class="st1" d="M38.2,21.1c-0.4,0.1-0.8,0.2-1.1,0.5s-0.5,0.6-0.6,1"/>
		</g>
	</g>
</g>
</svg>
