<?xml version="1.0" encoding="UTF-8"?>
<svg width="26px" height="26px" viewBox="0 0 26 26" version="1.1" xmlns="http://www.w3.org/2000/svg" xmlns:xlink="http://www.w3.org/1999/xlink">
    <!-- Generator: Sketch 53.2 (72643) - https://sketchapp.com -->
    <title>Icon/Software Black</title>
    <desc>Created with Sketch.</desc>
    <g id="Icon/Software-Black" stroke="none" stroke-width="1" fill="none" fill-rule="evenodd">
        <path d="M15.5572033,11.5160692 L16.6958781,11.5160692 C16.86384,11.5160692 17,11.6524279 17,11.8206348 C17,11.9131707 16.9579914,12.0006878 16.8858309,12.0584852 L13.3799112,14.8665695 C13.1577922,15.0444768 12.8422191,15.0444768 12.6201001,14.8665695 L9.11418036,12.0584852 C8.9830106,11.9534241 8.96172126,11.761766 9.06662928,11.6304049 C9.12434245,11.5581391 9.21173208,11.5160692 9.30413314,11.5160692 L10.5570724,11.5160692 L10.5570724,6.4 C10.5570724,6.1790861 10.7361585,6 10.9570724,6 L15.1572033,6 C15.3781172,6 15.5572033,6.1790861 15.5572033,6.4 L15.5572033,11.5160692 Z" id="Combined-Shape" fill="#000000"></path>
        <path d="M18.6848966,14 L20.2727273,14 C20.6743889,14 21,14.3134007 21,14.7 L21,20.3 C21,20.6865993 20.6743889,21 20.2727273,21 L5.72727273,21 C5.32561109,21 5,20.6865993 5,20.3 L5,14.7 C5,14.3134007 5.32561109,14 5.72727273,14 L5.72727273,14 L7.43871089,14" id="Path" stroke="#000000" stroke-linecap="round"></path>
    </g>
</svg>