<?xml version="1.0" encoding="UTF-8"?>
<svg width="26px" height="26px" viewBox="0 0 26 26" version="1.1" xmlns="http://www.w3.org/2000/svg" xmlns:xlink="http://www.w3.org/1999/xlink">
    <!-- Generator: Sketch 53.2 (72643) - https://sketchapp.com -->
    <title>Icon/Start Button</title>
    <desc>Created with Sketch.</desc>
    <g id="Icon/Start-Button" stroke="none" stroke-width="1" fill="none" fill-rule="evenodd" opacity="0.697846">
        <g fill="#FFFFFF" id="Combined-Shape">
            <path d="M13,26 C5.82029825,26 0,20.1797017 0,13 C0,5.82029825 5.82029825,0 13,0 C20.1797017,0 26,5.82029825 26,13 C26,20.1797017 20.1797017,26 13,26 Z M10.4197531,7.41980112 C10.3333333,7.37656723 10.2037037,7.33333333 10.117284,7.33333333 C9.81481481,7.33333333 9.55555556,7.59273671 9.55555556,7.89537397 L9.55555556,9.23562473 L9.55555556,9.66796368 L9.55555556,9.75443147 L9.55555556,16.0233463 L9.55555556,16.1098141 L9.55555556,16.9312581 L9.55555556,17.8824038 C9.55555556,18.1850411 9.81481481,18.4444444 10.117284,18.4444444 C10.2469136,18.4444444 10.3333333,18.4012105 10.462963,18.3579767 L18.5864198,13.5590143 C18.7592593,13.3860787 18.8888889,13.1699092 18.8888889,12.8672719 C18.845679,12.6078686 18.7592593,12.3916991 18.5432099,12.2187635 L10.4197531,7.41980112 Z"></path>
        </g>
    </g>
</svg>