<?xml version="1.0" encoding="UTF-8"?>
<svg width="26px" height="26px" viewBox="0 0 26 26" version="1.1" xmlns="http://www.w3.org/2000/svg" xmlns:xlink="http://www.w3.org/1999/xlink">
    <!-- Generator: Sketch 53.2 (72643) - https://sketchapp.com -->
    <title>Icon/Stethoskop</title>
    <desc>Created with Sketch.</desc>
    <g id="Icon/Stethoskop" stroke="none" stroke-width="1" fill="none" fill-rule="evenodd">
        <g transform="translate(6.000000, 6.000000)" stroke="#001489">
            <path d="M5.4536412,0.0160579584 L6.1890888,0 C6.69250635,0 7.10438373,0.397963711 7.10438373,0.884375277 L7.10438373,4.29630418 C7.10438373,6.03998677 5.62785077,7.46666667 3.82320531,7.46666667 L3.27091823,7.46666667 C1.47191053,7.46666667 0,6.04447887 0,4.3062436 L0,0.884375277 C0,0.397963711 0.411877375,0 0.915268211,0 L1.60606793,0" id="Stroke-1" stroke-linecap="round"></path>
            <path d="M13.4738312,6.50322581 L13.4738312,10.0766218 C13.4738312,12.7478208 11.3353988,14.9333333 8.72175922,14.9333333 L7.9219165,14.9333333 C5.31645145,14.9333333 3.18472374,12.7546593 3.18472374,10.0918298 L3.18472374,7.6259643" id="Stroke-3"></path>
            <path d="M14.9437037,4.93763441 C14.9437037,5.66928036 14.3404503,6.26236559 13.5963206,6.26236559 C12.852164,6.26236559 12.2489375,5.66928036 12.2489375,4.93763441 C12.2489375,4.20601485 12.852164,3.61290323 13.5963206,3.61290323 C14.3404503,3.61290323 14.9437037,4.20601485 14.9437037,4.93763441 Z" id="Stroke-5"></path>
        </g>
    </g>
</svg>