<svg width="33" height="35" viewBox="0 0 33 35" fill="none" xmlns="http://www.w3.org/2000/svg">
<path d="M21.6844 15.9557C21.9404 15.9557 22.1864 16.0546 22.3712 16.2318L25.6945 19.4188C25.8773 19.5941 25.9857 19.8322 25.9987 20.0838L26 20.1188C26 20.1211 26 20.1233 25.9999 20.1255C26 20.1284 26 20.1317 26 20.135V33.385C26 33.9331 25.5557 34.3774 25.0077 34.3774H11.488C10.94 34.3774 10.4957 33.9331 10.4957 33.385V16.948C10.4957 16.4 10.94 15.9557 11.488 15.9557H21.6844ZM21.1437 16.7825L11.488 16.7826C11.3967 16.7826 11.3226 16.8567 11.3226 16.948V33.385C11.3226 33.4764 11.3967 33.5504 11.488 33.5504H25.0077C25.099 33.5504 25.173 33.4764 25.173 33.385L25.173 20.5319L23.0046 20.5323L22.917 20.5303C21.9301 20.4846 21.144 19.6699 21.144 18.6717L21.1437 16.7825ZM23.5719 28.3585C23.8003 28.3585 23.9854 28.5436 23.9854 28.772C23.9854 28.984 23.8258 29.1588 23.6201 29.1827L23.5719 29.1855H16.665C16.4366 29.1855 16.2515 29.0004 16.2515 28.772C16.2515 28.5599 16.4111 28.3852 16.6168 28.3613L16.665 28.3585H23.5719ZM14.0749 26.7529C14.7106 26.7529 15.226 27.2695 15.226 27.9067C15.226 28.5439 14.7106 29.0604 14.0749 29.0604C13.4391 29.0604 12.9237 28.5439 12.9237 27.9067C12.9237 27.2695 13.4391 26.7529 14.0749 26.7529ZM14.0749 27.5799C13.8962 27.5799 13.7506 27.7258 13.7506 27.9067C13.7506 28.0876 13.8962 28.2335 14.0749 28.2335C14.2535 28.2335 14.3991 28.0876 14.3991 27.9067C14.3991 27.7258 14.2535 27.5799 14.0749 27.5799ZM23.5719 26.6279C23.8003 26.6279 23.9854 26.813 23.9854 27.0414C23.9854 27.2534 23.8258 27.4282 23.6201 27.4521L23.5719 27.4548H16.665C16.4366 27.4548 16.2515 27.2697 16.2515 27.0414C16.2515 26.8293 16.4111 26.6546 16.6168 26.6307L16.665 26.6279H23.5719ZM23.5719 22.5897C23.8003 22.5897 23.9854 22.7749 23.9854 23.0032C23.9854 23.2153 23.8258 23.39 23.6201 23.4139L23.5719 23.4167H16.665C16.4366 23.4167 16.2515 23.2316 16.2515 23.0032C16.2515 22.7912 16.4111 22.6164 16.6168 22.5925L16.665 22.5897H23.5719ZM14.0749 20.9842C14.7106 20.9842 15.226 21.5007 15.226 22.1379C15.226 22.7751 14.7106 23.2917 14.0749 23.2917C13.4391 23.2917 12.9237 22.7751 12.9237 22.1379C12.9237 21.5007 13.4391 20.9842 14.0749 20.9842ZM8.52458 7.96735L8.79142 8.54009L8.9409 8.55802C9.00644 8.56686 9.07184 8.57669 9.13708 8.58752L9.28056 8.61331L9.63019 8.2096C10.1684 7.58584 11.064 7.42395 11.7832 7.80875L11.8623 7.85376L12.6457 8.32546C13.3522 8.74888 13.6665 9.60375 13.4131 10.3788L13.3826 10.4646L13.1904 10.9653L13.2811 11.0809C13.3213 11.1335 13.3606 11.1868 13.3992 11.2406L13.4825 11.3608L13.9989 11.3247C14.546 11.2612 15.0024 11.7283 15.2192 12.6904L15.2415 12.7954L15.2494 12.8641L15.2499 12.8621L15.2768 13.0163L15.3821 13.6855L15.387 13.7435L15.3871 13.7525C15.3887 13.9808 15.2048 14.1672 14.9764 14.1687C14.7481 14.1702 14.5617 13.9863 14.5602 13.758L14.5594 13.7578L14.4294 12.9503L14.41 12.8606C14.3395 12.5481 14.2509 12.3409 14.1594 12.2243L14.1319 12.1921L14.0979 12.1583C14.0902 12.1517 14.0854 12.1491 14.0814 12.1482L14.0757 12.1479L13.2995 12.2028C13.1472 12.2135 13.0014 12.1395 12.9202 12.0102C12.7663 11.7651 12.5941 11.5321 12.4049 11.3132C12.3177 11.2123 12.2853 11.0766 12.3151 10.9489L12.3318 10.8948L12.6107 10.1679C12.7641 9.76917 12.6257 9.32021 12.2825 9.07537L12.2199 9.03434L11.4355 8.56205C11.0703 8.34179 10.6061 8.40026 10.3068 8.69586L10.2557 8.75048L9.74651 9.33817C9.64638 9.45373 9.49065 9.5046 9.34161 9.47042C9.06001 9.40586 8.77394 9.36285 8.48587 9.34178C8.3529 9.33205 8.23387 9.25899 8.16465 9.14735L8.1411 9.10372L7.80671 8.38422C7.6333 7.98826 7.21269 7.76684 6.79249 7.84195L6.72618 7.85629L5.83797 8.07774C5.42206 8.1812 5.13415 8.55546 5.13465 8.98009L5.13715 9.04752L5.19262 9.82504C5.20348 9.97727 5.1296 10.1231 5.00043 10.2044C4.75597 10.3583 4.52357 10.5305 4.30523 10.7197C4.20456 10.807 4.06906 10.8396 3.94143 10.8102L3.88734 10.7937L3.16074 10.5171C2.76314 10.3633 2.31603 10.5012 2.07222 10.8443L2.03135 10.907L1.56024 11.6927C1.3399 12.0585 1.39828 12.5246 1.69355 12.8253L1.74811 12.8766L2.33529 13.3872C2.45029 13.4872 2.50096 13.6423 2.46716 13.7909C2.40298 14.0731 2.36027 14.3597 2.3394 14.6484C2.32962 14.7837 2.25425 14.9045 2.13965 14.9732L2.09488 14.9964L1.38198 15.3131C0.988215 15.4859 0.76745 15.9056 0.841297 16.3254L0.855422 16.3916L1.07754 17.2825C1.18073 17.702 1.55675 17.9922 1.98319 17.9908L2.05091 17.9881L2.82712 17.9333C2.97942 17.9225 3.12527 17.9965 3.20646 18.1258C3.36033 18.3709 3.53258 18.6039 3.72172 18.8228C3.80891 18.9237 3.84133 19.0595 3.8115 19.1872L3.79488 19.2413L3.51598 19.9681C3.36251 20.3669 3.50094 20.8158 3.84411 21.0607L3.90677 21.1017L4.69161 21.5743C5.05659 21.795 5.52091 21.7371 5.82033 21.4421L5.8714 21.3876L6.38064 20.7999C6.48075 20.6843 6.63645 20.6335 6.78547 20.6676C7.06711 20.7321 7.35323 20.7752 7.64133 20.7963C7.77661 20.8062 7.89726 20.8816 7.96586 20.9962L7.98907 21.041L8.2971 21.7365C8.32143 21.7853 8.37926 21.8061 8.42834 21.7843C8.637 21.6915 8.88137 21.7854 8.97415 21.9941C9.06693 22.2027 8.97299 22.4471 8.76433 22.5399C8.33047 22.7328 7.82507 22.5661 7.58084 22.1475L7.54918 22.0888L7.33126 21.5971L7.18624 21.58L6.99008 21.5505L6.84734 21.5243L6.49665 21.9288C5.95769 22.552 5.06175 22.7129 4.34339 22.3274L4.26433 22.2823L3.48092 21.8106C2.77448 21.3872 2.46012 20.5323 2.71355 19.7572L2.74405 19.6715L2.93657 19.1703L2.84553 19.0551C2.80537 19.0025 2.76602 18.9493 2.72747 18.8954L2.6445 18.7748L2.11118 18.8129C1.28464 18.8753 0.53144 18.3505 0.297198 17.5636L0.274828 17.4813L0.0531802 16.5923C-0.1486 15.7885 0.238109 14.9573 0.970959 14.5927L1.048 14.5566L1.53837 14.3384L1.55522 14.1936C1.56398 14.128 1.57374 14.0625 1.58448 13.9972L1.61068 13.8525L1.2058 13.5009C0.583627 12.961 0.422461 12.0645 0.806512 11.3458L0.851432 11.2667L1.32169 10.4824C1.74407 9.77479 2.59829 9.4603 3.37147 9.71444L3.45702 9.74502L3.95608 9.93488L4.07134 9.84415C4.12386 9.80397 4.17699 9.76458 4.23071 9.72601L4.35068 9.6426L4.31234 9.10701C4.25226 8.28303 4.7732 7.53297 5.55621 7.29777L5.63812 7.27523L6.52424 7.05429C7.32863 6.84983 8.16193 7.23775 8.52458 7.96735ZM14.0749 21.8111C13.8962 21.8111 13.7506 21.957 13.7506 22.1379C13.7506 22.3188 13.8962 22.4647 14.0749 22.4647C14.2535 22.4647 14.3991 22.3188 14.3991 22.1379C14.3991 21.957 14.2535 21.8111 14.0749 21.8111ZM21.2696 20.8591C21.4979 20.8591 21.6831 21.0442 21.6831 21.2726C21.6831 21.4846 21.5234 21.6594 21.3178 21.6833L21.2696 21.6861H16.665C16.4366 21.6861 16.2515 21.501 16.2515 21.2726C16.2515 21.0605 16.4111 20.8858 16.6168 20.8619L16.665 20.8591H21.2696ZM21.9706 16.9934L21.9709 18.6717L21.9731 18.7396C22.0081 19.2788 22.4566 19.7054 23.0046 19.7054L24.798 19.705L21.9706 16.9934ZM11.3321 14.2963C11.387 14.518 11.2517 14.7422 11.0301 14.797C10.8084 14.8519 10.5842 14.7166 10.5294 14.495C10.2025 13.1739 8.86378 12.3683 7.53891 12.6961C6.21403 13.0239 5.40541 14.3608 5.73221 15.6819C6.05908 17.0029 7.39779 17.8085 8.72267 17.4807C8.94434 17.4259 9.16851 17.5611 9.22335 17.7828C9.2782 18.0045 9.14296 18.2286 8.92129 18.2835C7.15347 18.7209 5.36613 17.6453 4.92945 15.8805C4.49288 14.1157 5.57247 12.3308 7.34029 11.8933C9.10812 11.456 10.8954 12.5316 11.3321 14.2963Z" fill="black"/>
<circle cx="26" cy="7" r="7" fill="#FF0000"/>
<path d="M24.0189 10H28.1289V8.75H26.9489V3.65H25.8089C25.3589 3.94 24.8989 4.11 24.2089 4.24V5.2H25.3989V8.75H24.0189V10Z" fill="white"/>
</svg>
