<svg width="26" height="28" viewBox="0 0 26 28" fill="none" xmlns="http://www.w3.org/2000/svg">
<path d="M21.6844 8.95566C21.9404 8.95566 22.1864 9.05459 22.3712 9.23178L25.6945 12.4188C25.8773 12.5941 25.9857 12.8322 25.9987 13.0838L26 13.1188C26 13.1211 26 13.1233 25.9999 13.1255C26 13.1284 26 13.1317 26 13.135V26.385C26 26.9331 25.5557 27.3774 25.0077 27.3774H11.488C10.94 27.3774 10.4957 26.9331 10.4957 26.385V9.94801C10.4957 9.39995 10.94 8.95566 11.488 8.95566H21.6844ZM21.1437 9.7825L11.488 9.78262C11.3967 9.78262 11.3226 9.85667 11.3226 9.94801V26.385C11.3226 26.4764 11.3967 26.5504 11.488 26.5504H25.0077C25.099 26.5504 25.173 26.4764 25.173 26.385L25.173 13.5319L23.0046 13.5323L22.917 13.5303C21.9301 13.4846 21.144 12.6699 21.144 11.6717L21.1437 9.7825ZM23.5719 21.3585C23.8003 21.3585 23.9854 21.5436 23.9854 21.772C23.9854 21.984 23.8258 22.1588 23.6201 22.1827L23.5719 22.1855H16.665C16.4366 22.1855 16.2515 22.0004 16.2515 21.772C16.2515 21.5599 16.4111 21.3852 16.6168 21.3613L16.665 21.3585H23.5719ZM14.0749 19.7529C14.7106 19.7529 15.226 20.2695 15.226 20.9067C15.226 21.5439 14.7106 22.0604 14.0749 22.0604C13.4391 22.0604 12.9237 21.5439 12.9237 20.9067C12.9237 20.2695 13.4391 19.7529 14.0749 19.7529ZM14.0749 20.5799C13.8962 20.5799 13.7506 20.7258 13.7506 20.9067C13.7506 21.0876 13.8962 21.2335 14.0749 21.2335C14.2535 21.2335 14.3991 21.0876 14.3991 20.9067C14.3991 20.7258 14.2535 20.5799 14.0749 20.5799ZM23.5719 19.6279C23.8003 19.6279 23.9854 19.813 23.9854 20.0414C23.9854 20.2534 23.8258 20.4282 23.6201 20.4521L23.5719 20.4548H16.665C16.4366 20.4548 16.2515 20.2697 16.2515 20.0414C16.2515 19.8293 16.4111 19.6546 16.6168 19.6307L16.665 19.6279H23.5719ZM23.5719 15.5897C23.8003 15.5897 23.9854 15.7749 23.9854 16.0032C23.9854 16.2153 23.8258 16.39 23.6201 16.4139L23.5719 16.4167H16.665C16.4366 16.4167 16.2515 16.2316 16.2515 16.0032C16.2515 15.7912 16.4111 15.6164 16.6168 15.5925L16.665 15.5897H23.5719ZM14.0749 13.9842C14.7106 13.9842 15.226 14.5007 15.226 15.1379C15.226 15.7751 14.7106 16.2917 14.0749 16.2917C13.4391 16.2917 12.9237 15.7751 12.9237 15.1379C12.9237 14.5007 13.4391 13.9842 14.0749 13.9842ZM8.52458 0.967349L8.79142 1.54009L8.9409 1.55802C9.00644 1.56686 9.07184 1.57669 9.13708 1.58752L9.28056 1.61331L9.63019 1.2096C10.1684 0.585835 11.064 0.423954 11.7832 0.808751L11.8623 0.85376L12.6457 1.32546C13.3522 1.74888 13.6665 2.60375 13.4131 3.3788L13.3826 3.46456L13.1904 3.96532L13.2811 4.0809C13.3213 4.13353 13.3606 4.18677 13.3992 4.24059L13.4825 4.36082L13.9989 4.32473C14.546 4.26117 15.0024 4.7283 15.2192 5.6904L15.2415 5.79537L15.2494 5.86409L15.2499 5.86207L15.2768 6.01628L15.3821 6.68547L15.387 6.74346L15.3871 6.75245C15.3887 6.98081 15.2048 7.16716 14.9764 7.16869C14.7481 7.17022 14.5617 6.98634 14.5602 6.75799L14.5594 6.75784L14.4294 5.95031L14.41 5.86063C14.3395 5.54814 14.2509 5.34089 14.1594 5.22434L14.1319 5.19208L14.0979 5.15826C14.0902 5.1517 14.0854 5.14911 14.0814 5.14822L14.0757 5.1479L13.2995 5.20278C13.1472 5.21355 13.0014 5.13951 12.9202 5.01019C12.7663 4.76513 12.5941 4.53213 12.4049 4.31323C12.3177 4.21231 12.2853 4.07657 12.3151 3.94888L12.3318 3.89477L12.6107 3.16793C12.7641 2.76917 12.6257 2.32021 12.2825 2.07537L12.2199 2.03434L11.4355 1.56205C11.0703 1.34179 10.6061 1.40026 10.3068 1.69586L10.2557 1.75048L9.74651 2.33817C9.64638 2.45373 9.49065 2.5046 9.34161 2.47042C9.06001 2.40586 8.77394 2.36285 8.48587 2.34178C8.3529 2.33205 8.23387 2.25899 8.16465 2.14735L8.1411 2.10372L7.80671 1.38422C7.6333 0.988264 7.21269 0.766841 6.79249 0.841948L6.72618 0.856289L5.83797 1.07774C5.42206 1.1812 5.13415 1.55546 5.13465 1.98009L5.13715 2.04752L5.19262 2.82504C5.20348 2.97727 5.1296 3.1231 5.00043 3.2044C4.75597 3.35825 4.52357 3.53053 4.30523 3.71974C4.20456 3.80699 4.06905 3.83964 3.94143 3.81016L3.88734 3.79369L3.16074 3.51708C2.76314 3.36327 2.31603 3.50122 2.07222 3.84433L2.03135 3.90699L1.56024 4.69269C1.3399 5.05849 1.39828 5.52464 1.69355 5.82532L1.74811 5.87661L2.33529 6.38718C2.45029 6.48717 2.50096 6.64232 2.46716 6.79091C2.40298 7.07306 2.36027 7.3597 2.3394 7.64836C2.32962 7.7837 2.25425 7.90447 2.13965 7.97316L2.09488 7.99641L1.38198 8.31314C0.988215 8.48588 0.76745 8.90563 0.841297 9.32538L0.855422 9.39162L1.07754 10.2825C1.18073 10.702 1.55675 10.9922 1.98319 10.9908L2.05091 10.9881L2.82712 10.9333C2.97942 10.9225 3.12527 10.9965 3.20646 11.1258C3.36033 11.3709 3.53258 11.6039 3.72172 11.8228C3.80891 11.9237 3.84133 12.0595 3.8115 12.1872L3.79488 12.2413L3.51598 12.9681C3.36251 13.3669 3.50094 13.8158 3.84411 14.0607L3.90677 14.1017L4.69161 14.5743C5.05659 14.795 5.52091 14.7371 5.82033 14.4421L5.8714 14.3876L6.38064 13.7999C6.48075 13.6843 6.63645 13.6335 6.78547 13.6676C7.06711 13.7321 7.35323 13.7752 7.64133 13.7963C7.77661 13.8062 7.89726 13.8816 7.96586 13.9962L7.98907 14.041L8.2971 14.7365C8.32143 14.7853 8.37926 14.8061 8.42834 14.7843C8.637 14.6915 8.88137 14.7854 8.97415 14.9941C9.06693 15.2027 8.97299 15.4471 8.76433 15.5399C8.33047 15.7328 7.82507 15.5661 7.58084 15.1475L7.54918 15.0888L7.33126 14.5971L7.18624 14.58L6.99008 14.5505L6.84734 14.5243L6.49665 14.9288C5.95769 15.552 5.06175 15.7129 4.34339 15.3274L4.26433 15.2823L3.48092 14.8106C2.77448 14.3872 2.46012 13.5323 2.71355 12.7572L2.74405 12.6715L2.93657 12.1703L2.84553 12.0551C2.80537 12.0025 2.76602 11.9493 2.72747 11.8954L2.6445 11.7748L2.11118 11.8129C1.28464 11.8753 0.53144 11.3505 0.297198 10.5636L0.274828 10.4813L0.0531802 9.59233C-0.1486 8.78846 0.238109 7.95726 0.970959 7.59267L1.048 7.55663L1.53837 7.3384L1.55522 7.19362C1.56398 7.12801 1.57374 7.06255 1.58448 6.99724L1.61068 6.85247L1.2058 6.50092C0.583627 5.96101 0.422461 5.06454 0.806512 4.34581L0.851432 4.26671L1.32169 3.48244C1.74407 2.77479 2.59829 2.4603 3.37147 2.71444L3.45702 2.74502L3.95608 2.93488L4.07134 2.84415C4.12386 2.80397 4.17699 2.76458 4.23071 2.72601L4.35068 2.6426L4.31234 2.10701C4.25226 1.28303 4.7732 0.532971 5.55621 0.297771L5.63812 0.275226L6.52424 0.0542918C7.32863 -0.150168 8.16193 0.237751 8.52458 0.967349ZM14.0749 14.8111C13.8962 14.8111 13.7506 14.957 13.7506 15.1379C13.7506 15.3188 13.8962 15.4647 14.0749 15.4647C14.2535 15.4647 14.3991 15.3188 14.3991 15.1379C14.3991 14.957 14.2535 14.8111 14.0749 14.8111ZM21.2696 13.8591C21.4979 13.8591 21.6831 14.0442 21.6831 14.2726C21.6831 14.4846 21.5234 14.6594 21.3178 14.6833L21.2696 14.6861H16.665C16.4366 14.6861 16.2515 14.501 16.2515 14.2726C16.2515 14.0605 16.4111 13.8858 16.6168 13.8619L16.665 13.8591H21.2696ZM21.9706 9.99337L21.9709 11.6717L21.9731 11.7396C22.0081 12.2788 22.4566 12.7054 23.0046 12.7054L24.798 12.705L21.9706 9.99337ZM11.3321 7.29632C11.387 7.518 11.2517 7.74217 11.0301 7.79702C10.8084 7.85187 10.5842 7.71663 10.5294 7.49496C10.2025 6.17394 8.86378 5.36832 7.53891 5.69608C6.21403 6.02392 5.40541 7.36085 5.73221 8.68187C6.05908 10.0029 7.39779 10.8085 8.72267 10.4807C8.94434 10.4259 9.16851 10.5611 9.22335 10.7828C9.2782 11.0045 9.14296 11.2286 8.92129 11.2835C7.15347 11.7209 5.36613 10.6453 4.92945 8.88048C4.49288 7.11571 5.57247 5.33078 7.34029 4.89333C9.10812 4.45598 10.8954 5.53157 11.3321 7.29632Z" fill="#001489"/>
</svg>
