<?xml version="1.0" encoding="UTF-8"?>
<svg width="19px" height="19px" viewBox="0 0 19 19" version="1.1" xmlns="http://www.w3.org/2000/svg" xmlns:xlink="http://www.w3.org/1999/xlink">
    <!-- Generator: Sketch 55.2 (78181) - https://sketchapp.com -->
    <title>check circle</title>
    <desc>Created with Sketch.</desc>
    <defs>
        <path d="M10.5821596,17.2723005 L19.1455399,8.70892019 L17.8075117,7.32629108 L10.5821596,14.5516432 L7.19248826,11.1619718 L5.85446009,12.5 L10.5821596,17.2723005 Z M5.76525822,5.80985915 C7.63850702,3.93661035 9.8833985,3 12.5,3 C15.1166015,3 17.3540596,3.92917694 19.2124413,5.78755869 C21.0708231,7.64594043 22,9.8833985 22,12.5 C22,15.1166015 21.0708231,17.3540596 19.2124413,19.2124413 C17.3540596,21.0708231 15.1166015,22 12.5,22 C9.8833985,22 7.64594043,21.0708231 5.78755869,19.2124413 C3.92917694,17.3540596 3,15.1166015 3,12.5 C3,9.8833985 3.92174352,7.65337385 5.76525822,5.80985915 Z" id="path-1"></path>
    </defs>
    <g id="📷-Icons" stroke="none" stroke-width="1" fill="none" fill-rule="evenodd">
        <g id="Icons---Base" transform="translate(-125.000000, -1025.000000)">
            <g id="icon/base/check-circle" transform="translate(122.000000, 1022.000000)">
                <mask id="mask-2" fill="white">
                    <use xlink:href="#path-1"></use>
                </mask>
                <use id="Fill" fill="#001489" fill-rule="nonzero" xlink:href="#path-1"></use>
            </g>
        </g>
    </g>
</svg>