<svg width="20" height="20" viewBox="0 0 20 20" fill="none" xmlns="http://www.w3.org/2000/svg">
<g clip-path="url(#clip0_236_517)">
<path d="M16 4H14C14 1.79 12.21 0 10 0C7.79 0 6 1.79 6 4H4C2.9 4 2 4.9 2 6V18C2 19.1 2.9 20 4 20H16C17.1 20 18 19.1 18 18V6C18 4.9 17.1 4 16 4ZM10 2C11.1 2 12 2.9 12 4H8C8 2.9 8.9 2 10 2ZM16 18H4V6H6V7.99999C6 8.54999 6.45 8.99999 7 8.99999C7.55 8.99999 8 8.54999 8 7.99999V6H12V7.99999C12 8.54999 12.45 8.99999 13 8.99999C13.55 8.99999 14 8.54999 14 7.99999V6H16V18Z" fill="#001489"/>
</g>
<defs>
<clipPath id="clip0_236_517">
<rect width="20" height="20" fill="white"/>
</clipPath>
</defs>
</svg>
