<?xml version="1.0" encoding="UTF-8"?>
<svg width="26px" height="26px" viewBox="0 0 26 26" version="1.1" xmlns="http://www.w3.org/2000/svg" xmlns:xlink="http://www.w3.org/1999/xlink">
    <!-- Generator: Sketch 53.2 (72643) - https://sketchapp.com -->
    <title>Icon/Upload Arrow white</title>
    <desc>Created with Sketch.</desc>
    <g id="Icon/Upload-Arrow-white" stroke="none" stroke-width="1" fill="none" fill-rule="evenodd">
        <path d="M16,11.9830804 L16,20.5 C16,20.7761424 15.7761424,21 15.5,21 L10.5,21 C10.2238576,21 10,20.7761424 10,20.5 L10,11.9830804 L7.3032539,11.9830804 C7.02711152,11.9830804 6.8032539,11.7592228 6.8032539,11.4830804 C6.8032539,11.3413126 6.86343539,11.206209 6.96882396,11.1113862 L12.3331261,6.28488358 C12.7133992,5.94273491 13.2905728,5.94273491 13.6708459,6.28488358 L19.035148,11.1113862 C19.2404291,11.2960867 19.2571129,11.6122293 19.0724124,11.8175104 C18.9775895,11.9228989 18.8424859,11.9830804 18.7007181,11.9830804 L16,11.9830804 Z" id="Triangle-2" fill="#FFFFFF"></path>
    </g>
</svg>