<?xml version="1.0" encoding="UTF-8"?>
<svg width="26px" height="26px" viewBox="0 0 26 26" version="1.1" xmlns="http://www.w3.org/2000/svg" xmlns:xlink="http://www.w3.org/1999/xlink">
    <!-- Generator: Sketch 53.2 (72643) - https://sketchapp.com -->
    <title>Icon/User Active blue</title>
    <desc>Created with Sketch.</desc>
    <g id="Icon/User-Active-blue" stroke="none" stroke-width="1" fill="none" fill-rule="evenodd">
        <path d="M20.2531437,16.5676445 C20.4037345,16.6324991 20.6095047,16.7419485 20.8199212,16.8962065 C21.2248138,17.1930366 21.4890564,17.5447692 21.5,18.001679 L21.5,19.018345 C21.5,19.8299033 20.8612242,20.496123 20.0625,20.496123 L5.9375,20.496123 C5.13877581,20.496123 4.5,19.8299033 4.5,19.018345 L4.5,18.001679 C4.5,17.564255 4.76092683,17.2165999 5.16784582,16.9099697 C5.37652477,16.7527216 5.58060846,16.6383137 5.7247321,16.5714302 L10.1455212,14.4926176 C9.15971474,13.3361022 8.497187,11.5597053 8.497187,10.316667 L8.497187,8.49902344 C8.497187,6.5270653 10.7348662,4.5 13,4.5 C15.2643944,4.5 17.504687,6.52981079 17.504687,8.5 L17.504687,10.316667 C17.504687,11.6217215 16.8529041,13.3652331 15.8622149,14.5056261 L20.2531437,16.5676445 Z" id="Shape" stroke="#001489" fill="#001489"></path>
    </g>
</svg>