<?xml version="1.0" encoding="UTF-8"?>
<svg width="22px" height="16px" viewBox="0 0 22 16" version="1.1" xmlns="http://www.w3.org/2000/svg" xmlns:xlink="http://www.w3.org/1999/xlink">
    <!-- Generator: Sketch 54.1 (76490) - https://sketchapp.com -->
    <title>Icon/video_black</title>
    <desc>Created with Sketch.</desc>
    <g id="Design-System" stroke="none" stroke-width="1" fill="none" fill-rule="evenodd">
        <g id="Icons" transform="translate(-315.000000, -775.000000)">
            <g id="Icon/video_black" transform="translate(313.000000, 770.000000)">
                <rect id="Rectangle-3" stroke="#000000" stroke-width="1" x="2.5" y="5.5" width="20.504" height="14.68" rx="2.24"></rect>
                <path d="M11.4453533,9.04459918 C11.400818,9.02229959 11.334015,9 11.2894797,9 C11.133606,9 11,9.13379753 11,9.28989465 L11,9.98118188 L11,10.2041778 L11,10.2487769 L11,13.4822172 L11,13.5268164 L11,13.9505086 L11,14.4410995 C11,14.5971966 11.133606,14.7309942 11.2894797,14.7309942 C11.3562827,14.7309942 11.400818,14.7086946 11.467621,14.686395 L15.6539423,12.2111407 C15.743013,12.1219423 15.809816,12.0104444 15.809816,11.8543473 C15.7875483,11.7205498 15.743013,11.6090518 15.6316746,11.5198535 L11.4453533,9.04459918 Z" id="Video" stroke="#000000" stroke-width="1"></path>
                <circle id="Oval-4" fill="#000000" fill-rule="evenodd" cx="4.5" cy="17.5" r="1"></circle>
                <circle id="Oval-4-Copy" fill="#000000" fill-rule="evenodd" cx="20.5" cy="17.5" r="1"></circle>
                <path d="M7,17.5 L18,17.5" id="Line" stroke="#000000" stroke-width="1" stroke-linecap="round"></path>
            </g>
        </g>
    </g>
</svg>