<?xml version="1.0" encoding="UTF-8"?>
<svg width="26px" height="26px" viewBox="0 0 26 26" version="1.1" xmlns="http://www.w3.org/2000/svg" xmlns:xlink="http://www.w3.org/1999/xlink">
    <!-- Generator: Sketch 53.2 (72643) - https://sketchapp.com -->
    <title>Icon/Weltkugel_white</title>
    <desc>Created with Sketch.</desc>
    <g id="Icon/Weltkugel_white" stroke="none" stroke-width="1" fill="none" fill-rule="evenodd">
        <rect fill="#4A4A4A" x="0" y="0" width="26" height="26"></rect>
        <path d="M22,13.5159375 C21.9980803,9.00866824 18.4876414,5.28297209 13.9910993,5.0159375 C13.8981886,5.0159375 13.805278,5 13.7256402,5 L13.6433479,5 L13.4946908,5 C8.80320262,5 5,8.80557963 5,13.5 C5,18.1944204 8.80320262,22 13.4946908,22 L13.7256402,22 C13.8143495,21.9994948 13.9029661,21.9941745 13.9910993,21.9840625 C18.4766012,21.7203608 21.9839021,18.0119539 22,13.5159375 Z M20.4072455,16.2545312 C19.6459119,16.0500848 18.8690223,15.9088246 18.0844785,15.8321875 C18.2847193,14.4550083 18.305243,13.0576288 18.145534,11.6751562 C18.962463,11.6024806 19.7699967,11.4476363 20.5559026,11.2129687 L20.3594628,10.6551562 C21.1071522,12.4434233 21.1243075,14.453749 20.4072455,16.2545312 L20.4072455,16.2545312 Z M9.7437539,13.5159375 C9.74398891,12.936858 9.78122916,12.3583861 9.85524672,11.7840625 C10.7153342,11.8504688 11.7453154,11.9009375 12.9558089,11.9142188 L12.9558089,15.6010938 C11.7771705,15.6010938 10.7710806,15.6595313 9.92426608,15.7232813 C9.80357208,14.9937144 9.74319685,14.2554324 9.7437539,13.5159375 Z M13.9910993,6.13953125 C15.2918488,6.51671875 16.406777,8.325625 16.9111493,10.7215625 C16.114772,10.7853125 15.1431918,10.833125 13.9910993,10.84375 L13.9910993,6.13953125 Z M12.929263,6.13953125 L12.929263,10.8304687 C11.7957527,10.8304687 10.8241724,10.7720312 10.009213,10.7109375 C10.5401312,8.3575 11.6550593,6.561875 12.9425359,6.1528125 L12.929263,6.13953125 Z M12.929263,16.634375 L12.929263,20.8471875 C11.7267333,20.4646875 10.6702061,18.8789063 10.1180512,16.7459375 C10.9250468,16.7034375 11.8674266,16.6582813 12.9425359,16.6476563 L12.929263,16.634375 Z M13.9910993,20.8604688 L13.9910993,16.6476562 C15.0847908,16.6476562 16.0165522,16.7007813 16.7996565,16.761875 C16.2687383,18.9214063 15.2175203,20.5204688 13.9910993,20.87375 L13.9910993,20.8604688 Z M13.9910993,15.5745313 L13.9910993,11.9035937 C15.2069019,11.9035937 16.231574,11.8398437 17.0810431,11.7707812 C17.151926,12.3462348 17.1873874,12.9255044 17.1872267,13.5053125 C17.1882809,14.2454937 17.12969,14.9845549 17.0120237,15.7153125 C16.186446,15.6409375 15.1856652,15.6010938 13.9910993,15.5878125 L13.9910993,15.5745313 Z M20.1603685,10.2035937 C19.4486709,10.4001703 18.7212211,10.5343749 17.9862586,10.6046875 C17.7585316,9.19622163 17.2317047,7.85296979 16.4412867,6.66546875 C18.0644013,7.3717641 19.3855453,8.6297523 20.1709869,10.216875 L20.1603685,10.2035937 Z M10.9356652,6.48484375 C9.95930753,7.67839477 9.28703652,9.09122856 8.97657714,10.6020312 C8.2329153,10.5299731 7.49441577,10.4119878 6.76530294,10.24875 C7.62187487,8.50757906 9.12100141,7.16752234 10.9462836,6.51140625 L10.9356652,6.48484375 Z M6.36976889,11.2421875 C7.16405653,11.4362087 7.9714217,11.5720374 8.7854466,11.6485937 C8.59347531,13.0216786 8.61855806,14.416434 8.85977514,15.7817187 C8.0748525,15.8571021 7.29549469,15.9821967 6.52638976,16.15625 C5.91624141,14.5839139 5.86098551,12.8502308 6.36976889,11.2421875 L6.36976889,11.2421875 Z M6.99094316,17.1390625 C7.68595315,16.9981385 8.38766962,16.8926379 9.09337914,16.8229687 C9.42730918,18.1627601 10.0568028,19.4107353 10.9356652,20.4753125 C9.27526668,19.8708409 7.88182957,18.6985685 7.00156152,17.165625 L6.99094316,17.1390625 Z M16.4412867,20.3053125 C17.1461288,19.2605569 17.6386204,18.087225 17.8906933,16.8521875 C18.578868,16.9236313 19.2616594,17.0398671 19.9347283,17.2001562 C19.1384752,18.5899832 17.917753,19.687644 16.4519051,20.331875 L16.4412867,20.3053125 Z" id="Shape" fill="#FFFFFF"></path>
    </g>
</svg>