<svg id="Layer_1" data-name="Layer 1" xmlns="http://www.w3.org/2000/svg" viewBox="0 0 30 20"><defs><style>.cls-1{fill:#47b71d;}.cls-2{fill:#fff200;}.cls-3{fill:#fff;}.cls-4{fill:#0f33af;}.cls-5{fill:#26b516;}</style></defs><path class="cls-1" d="M0,0V20H30V0ZM27.44,10,15,17.94,2.56,10,15,2.06,27.44,10Z"/><path class="cls-2" d="M27.44,10,15,17.94,2.56,10,15,2.06,27.44,10ZM10,8.71A5.43,5.43,0,0,0,9.81,10,5.19,5.19,0,0,0,20,11.55h0a5.45,5.45,0,0,0,.18-.8,6.3,6.3,0,0,0,.05-.75,5.19,5.19,0,0,0-9.94-2.09,4.46,4.46,0,0,0-.28.8Z"/><polygon class="cls-3" points="9.66 8.78 9.66 8.78 9.66 8.78 9.66 8.78"/><path class="cls-4" d="M10,8.71A5,5,0,0,0,9.81,10,5.19,5.19,0,0,0,20,11.55a11.93,11.93,0,0,0-4.78-2.61A12.07,12.07,0,0,0,10,8.71Zm5.4-.47a11.93,11.93,0,0,1,4.77,2.51,6.3,6.3,0,0,0,.05-.75,5.19,5.19,0,0,0-9.94-2.09,12.22,12.22,0,0,1,5.12.33Z"/><path class="cls-3" d="M15.37,8.24a12.22,12.22,0,0,0-5.12-.33,4.46,4.46,0,0,0-.28.8,12.07,12.07,0,0,1,5.21.23A11.93,11.93,0,0,1,20,11.55a5.45,5.45,0,0,0,.18-.8,11.93,11.93,0,0,0-4.77-2.51Z"/><path class="cls-5" d="M10.54,8h.1l.08,0,.06.09,0,.11a.34.34,0,0,1,0,.1l0,.08-.08.05a.14.14,0,0,1-.09,0h-.1l-.08,0-.06-.06,0-.1a.49.49,0,0,1,0-.12.18.18,0,0,1,0-.09A.16.16,0,0,1,10.44,8l.1,0Zm9.36,2.7a.27.27,0,0,0-.07-.08.18.18,0,0,0-.09,0h-.09l-.1,0a.29.29,0,0,0-.07.08.19.19,0,0,0-.05.1.17.17,0,0,0,0,.1.29.29,0,0,0,0,.09.27.27,0,0,0,.07.08.18.18,0,0,0,.09,0h.09l.09,0a.2.2,0,0,0,.08-.08.21.21,0,0,0,.06-.1.34.34,0,0,0,0-.1.29.29,0,0,0,0-.1Zm-.07.17h0l0,.07-.06.06-.06,0h-.06l-.05,0,0-.05a.19.19,0,0,1,0-.12.15.15,0,0,1,0-.07l.06-.06.06,0h0l.06,0a.1.1,0,0,1,0,.05s0,0,0,0,0,.05,0,.07Zm-.48-.6-.06-.06a.15.15,0,0,0-.07,0h-.06l-.06,0s0,0-.05.05,0,0,0,0v.05l0,.06.05.06,0,.05s0,0,0,0a0,0,0,0,1,0,0v0l0,0h-.07l0,0,0,0a.05.05,0,0,1,0,0s0,0,0,0a.09.09,0,0,1,0-.05l-.07-.05a.11.11,0,0,0,0,.07.22.22,0,0,0,0,.08.25.25,0,0,0,0,.07.16.16,0,0,0,.07.07l.07,0s0,0,.06,0l.07,0,.05,0,0-.05v-.05a.09.09,0,0,0,0,0l0,0,0,0,0,0,0,0,0,0v0a.05.05,0,0,1,.05,0l.07,0a.1.1,0,0,1,0,.14l.08.06,0-.08v-.07a.16.16,0,0,0,0-.07Zm-.52-.36-.06-.05-.07,0h-.07l-.06,0a.08.08,0,0,0,0,0s0,0,0,.05,0,0,0,.05l0,.06.05.06.05.05,0,0v.06l0,0h-.07l0,0,0,0a.05.05,0,0,1,0,0,.06.06,0,0,1,0,0s0,0,0,0L18.42,10a.13.13,0,0,0,0,.08.09.09,0,0,0,0,.07.16.16,0,0,0,0,.07.16.16,0,0,0,.07.07l.07,0h.07l.06,0,.05,0s0,0,0,0v-.05a.05.05,0,0,0,0,0s0,0,0-.05l0,0,0,0,0,0,0,0s0,0,0,0v0s0,0,0,0a.11.11,0,0,1,.07,0,.08.08,0,0,1,0,.13l.08,0a.09.09,0,0,0,0-.07.17.17,0,0,0,0-.07.11.11,0,0,0,0-.07Zm-.51-.2a.59.59,0,0,1,0-.08L18,9.43l-.25.44.34.2a.59.59,0,0,0,0-.08l-.25-.15L18,9.73l.23.13,0-.08L18,9.65l0-.1.26.14Zm-.56-.37,0,0s0,0,0,0l0,0,0,0-.21-.1c-.09.18-.13.26-.23.44l.09,0,.09-.17.09,0,0,0v0a0,0,0,0,1,0,0v0c0,.06,0,.08,0,.14l.09,0c0-.06,0-.1,0-.16a.17.17,0,0,0,0-.09s.06,0,.08,0a.17.17,0,0,0,.06-.06V9.32Zm-.1.08h0l0,0,0,0h-.08l-.11-.06.06-.12.12.06s.05,0,.06,0a.11.11,0,0,1,0,.05ZM17.12,9l-.07-.05-.1,0h-.1L16.77,9a.35.35,0,0,0-.06.09.44.44,0,0,0,0,.1.31.31,0,0,0,0,.1.18.18,0,0,0,.05.07.16.16,0,0,0,.08.06l.08,0H17v0s0,0,.06,0,.07-.14.12-.24L17,9.15l0,.08.12,0,0,.05H17a.12.12,0,0,1-.08,0,.09.09,0,0,1-.05,0,.05.05,0,0,1,0,0,.13.13,0,0,1,0-.06s0,0,0-.07a.43.43,0,0,1,0-.07l.05,0L17,9,17,9l0,0a.05.05,0,0,1,0,0l0,0s0,0,0,.05l.09,0a.25.25,0,0,0,0-.08.14.14,0,0,0,0-.07A.1.1,0,0,0,17.12,9Zm-.6-.24a.26.26,0,0,0-.09-.05.17.17,0,0,0-.1,0,.15.15,0,0,0-.09,0,.16.16,0,0,0-.08.06.19.19,0,0,0-.05.09.43.43,0,0,0,0,.11.29.29,0,0,0,0,.09.18.18,0,0,0,.05.07l.09.05a.16.16,0,0,0,.1,0l.09,0,.07-.06L16.57,9a.43.43,0,0,0,0-.11.15.15,0,0,0,0-.09.35.35,0,0,0-.05-.08Zm0,.24h0a.16.16,0,0,1,0,.07.1.1,0,0,1-.05,0h-.11a.1.1,0,0,1-.05,0s0,0,0,0a.13.13,0,0,1,0-.06.22.22,0,0,1,0-.08.21.21,0,0,1,0-.06l0,0,.06,0h.06l.05,0a.1.1,0,0,1,0,0s0,0,0,.06a.17.17,0,0,1,0,.07Zm-.54-.42,0,0,0,0h0l0,0-.23-.06c-.05.19-.08.28-.14.48l.09,0c0-.08,0-.11.06-.19l.1,0h0l0,0,0,0v0a.71.71,0,0,0,0,.14l.09,0V8.86l0-.09.07,0a.12.12,0,0,0,0-.07V8.56Zm-.08.09h0l0,0h-.09l-.13,0,0-.13.13,0a.09.09,0,0,1,.06,0,.07.07,0,0,1,0,.05Zm-.54-.29,0,0,0,0-.05,0-.21,0c-.05.19-.08.29-.12.48l.09,0L15,8.57l.11,0a.22.22,0,0,0,.16,0,.12.12,0,0,0,.08-.1.11.11,0,0,0,0-.05.09.09,0,0,0,0,0s0,0,0,0Zm-.07.11h0v0h-.11l-.11,0,0-.14.11,0h0l0,0v0s0,0,0,0Zm-1,.14-.35-.06c0-.18.05-.26.07-.44l.36.06s0,.05,0,.08l-.26-.05s0,.06,0,.1l.25,0s0,.05,0,.08L14,8.37l0,.12.27,0,0,.08Zm-.92-.14h-.09c0-.12,0-.18,0-.31l-.14.3h-.07c0-.13-.05-.2-.09-.33,0,.13,0,.19,0,.32h-.09c0-.19,0-.29,0-.5H13c0,.15.05.23.09.37A3.45,3.45,0,0,1,13.26,8h.12c0,.2,0,.3,0,.49Zm-.68,0-.38,0c0-.18,0-.28,0-.5l.38,0a.28.28,0,0,0,0,.09h-.28v.11h.26v.09h-.26a.57.57,0,0,0,0,.13h.29v.08Zm-.61-.26c0,.17-.08.24-.25.24h-.17c0-.18,0-.28,0-.51h.17a.23.23,0,0,1,.26.26Zm-.09,0h0s0-.05,0-.07l0,0a.1.1,0,0,0-.05,0h-.15v.33h.15l.05,0,0,0s0-.05,0-.07Zm-.53.25h-.1l-.05-.12,0,0,0,0h-.16a1.15,1.15,0,0,1,0,.18H11c0-.17,0-.27,0-.5l.23,0h.11l0,0,0,0,0,0s0,0,0,0v0a.11.11,0,0,1,0,.08s-.06.06-.06.06a.23.23,0,0,1,.06.07c0,.06,0,.08.06.13Zm-.35-.25h.17l0,0a0,0,0,0,0,0,0v0s0,0,0-.05l-.06,0h-.14a.61.61,0,0,0,0,.14Zm-.5.26h0l.06,0,0,0,0-.06V8.25a.19.19,0,0,0,0-.08l0-.05-.05,0h-.06l-.06,0-.05,0a.14.14,0,0,0,0,.07s0,0,0,.07a.14.14,0,0,0,0,.07l0,.05,0,0Z"/><path class="cls-3" d="M11.22,11l0,.15h.16l-.13.1,0,.15-.13-.09-.13.09.05-.15-.13-.1h.16l.05-.15ZM15,14l0,0h.05l0,0,0,.06-.05,0,0,0v-.06l0,0H15l0,0Zm1.14-1.22,0,.1h.1l-.09.06,0,.1L16.14,13l-.08.07,0-.1L16,12.87h.1l0-.1Zm.86.13,0,.1h.1l-.08.06,0,.1L17,13.1l-.09.06,0-.1L16.86,13H17l0-.1Zm.57-.18,0,.1h.1l-.08.06,0,.1-.09-.06-.08.06,0-.1-.08-.06h.1l0-.1Zm1.79-1,0,.1h.1l-.08.06,0,.1-.08-.07-.09.07,0-.1-.08-.06h.1l0-.1Zm-1.77,2,0,.09h.1l-.08.06,0,.1L17.59,14,17.5,14l0-.1-.09-.06h.11l0-.09Zm.52-.94,0,.1h.1l-.08.06,0,.1L18.11,13l-.08.06,0-.1L18,12.92h.1l0-.1ZM16.41,9.6l0,.1h.11l-.09.06,0,.1-.08-.06-.08.06,0-.1-.08-.06h.1l0-.1Zm-1.93,1.56,0,.1h.1l-.08.06,0,.1-.08-.06-.09.06,0-.1-.09-.06h.1l0-.1Zm-3.89.41,0,.1h.11l-.09.06,0,.1-.08-.06-.08.06,0-.1-.09-.06h.11l0-.1Zm8.26.53,0,.13H19l-.11.08.05.12-.11-.08-.11.08,0-.12-.11-.08h.14l0-.13Zm-.32.42,0,.13h.13l-.11.08.05.12-.11-.08-.11.08,0-.12-.11-.08h.14l0-.13Zm-2,.79,0,.13h.14l-.11.08,0,.12-.11-.07-.11.07,0-.12-.11-.08h.13l0-.13Zm1.05-.12,0,.13h.13l-.1.08,0,.12-.11-.08-.11.08.05-.12-.11-.08h.13l0-.13ZM12.14,12.1l0,.13h.14l-.11.08,0,.12-.11-.07-.1.07,0-.12L12,12.23h.13l0-.13Zm3.46-1,0,.13h.13l-.11.07.05.13-.11-.08-.11.08,0-.13-.11-.07h.14l0-.13Zm-.6-.46,0,.12h.13l-.1.08,0,.13L15,10.91l-.11.08,0-.13-.1-.08H15l0-.12ZM13,10l0,.13h.14l-.11.08,0,.13L13,10.28l-.1.08,0-.13-.11-.08H13L13,10Zm-.72,1.57,0,.13h.13l-.1.07,0,.13-.11-.08-.11.08,0-.13-.1-.07h.13l0-.13Zm2.44,0,0,.07h.07l-.06,0,0,.07-.06,0-.06,0,0-.07-.06,0h.08l0-.07Zm-3-.73,0,.07h.07l-.06,0,0,.06,0,0-.06,0,0-.06-.06,0h.07l0-.07Zm4.88-2.66.05.15h.16l-.13.1.05.15-.13-.09-.14.09.06-.15-.14-.1h.17l.05-.15Zm2,3.43.05.15h.16l-.13.1.05.15-.13-.09L18.5,12l.05-.15-.13-.1h.17l.05-.15ZM10.76,8.85l.05.15H11l-.14.1.05.15-.13-.09-.13.09,0-.15L10.55,9h.16l0-.15ZM15,12.11l.05.15h.16l-.13.1.05.15L15,12.42l-.13.09.05-.15-.13-.1H15l.05-.15Zm-2.09.42.06.16h.16l-.13.09.05.16-.14-.1-.13.1.05-.16-.13-.09h.16l.05-.16Z"/></svg>