<svg id="Layer_1" data-name="Layer 1" xmlns="http://www.w3.org/2000/svg" viewBox="0 0 30 20"><defs><style>.cls-1,.cls-14{fill:#c20b18;}.cls-1,.cls-10,.cls-11,.cls-15,.cls-18,.cls-19,.cls-2,.cls-20,.cls-21,.cls-22,.cls-23,.cls-4,.cls-5,.cls-8,.cls-9{fill-rule:evenodd;}.cls-2{fill:#ffc703;}.cls-3,.cls-9{fill:#231f20;}.cls-4,.cls-7{fill:#c8b100;}.cls-5,.cls-6{fill:#c0aa12;}.cls-8{fill:#fff;}.cls-10,.cls-16{fill:#005bbf;}.cls-11,.cls-12{fill:#c4ae14;}.cls-13,.cls-18{fill:#058e6e;}.cls-15{fill:#ccc;}.cls-17{fill:#009071;}.cls-19{fill:#db4446;}.cls-20{fill:#ed72aa;}.cls-21{fill:#0039f0;}.cls-22{fill:#ffd691;}.cls-23{fill:#ad1519;}</style></defs><path class="cls-1" d="M0,0H30V5H0V0ZM30,15v5H0V15Z"/><polygon class="cls-2" points="0 5 30 5 30 15 0 15 0 5 0 5"/><path class="cls-1" d="M9.05,8.52l-.19-.09a.92.92,0,0,1-.21-.17.9.9,0,0,1-.14-.19L8.42,8a.22.22,0,0,1,0-.09,1.08,1.08,0,0,1,0-.17,1.24,1.24,0,0,1,.83-.21l.13,0a1.31,1.31,0,0,0,.36-.09,2.43,2.43,0,0,1,.58-.1h.22a3.1,3.1,0,0,1,.43.06,1.66,1.66,0,0,0,.45.12l.37,0a1.29,1.29,0,0,1,.61.23l0,.17,0,.1-.13.22-.19.15-.21.09-.11.12,0,.09,0,.05v.11l-.1.06L11.05,9l-.53,0h-.44L9.57,9l-.39-.08,0-.05,0-.1,0-.05L9.1,8.6l0-.08Z"/><path class="cls-3" d="M9,8.53l-.18-.09a.51.51,0,0,1-.16-.12l-.06-.05a1.82,1.82,0,0,1-.14-.19L8.41,8h0a.3.3,0,0,1,0-.09,1.39,1.39,0,0,1,0-.17h0a1.22,1.22,0,0,1,.83-.22l.13,0,.16,0,.2,0A1.15,1.15,0,0,1,10,7.33l.3,0h.22a2.21,2.21,0,0,1,.43.07l.11,0a1.21,1.21,0,0,0,.34.08h.38a2.19,2.19,0,0,1,.34.09.82.82,0,0,1,.26.14h0l.05.17h0L12.4,8h0l-.12.22h0l-.19.15h0l-.21.08-.1.12,0,.08h0l0,.06v.1h0l-.11.06h0L11.05,9l-.53,0h-.44L9.57,9h0l-.39-.08h0l0-.06a.54.54,0,0,1,0-.1v0h0L9.09,8.6,9,8.53Zm-.18-.1.19.09h0l.06.08h0l.05.08v0h0l0,.1,0,.05L9.57,9l.51.05h.44l.53,0,.56-.09.1-.05v-.1h0l0-.06,0-.08h0l.1-.13h0l.21-.08.18-.15L12.39,8h0l0-.1,0-.17a.92.92,0,0,0-.26-.14,1.74,1.74,0,0,0-.34-.09h-.15l-.22,0a1.28,1.28,0,0,1-.35-.08l-.1,0a2.21,2.21,0,0,0-.43-.07h-.22l-.3,0-.28.07-.19.06-.17,0-.13,0h0a1.22,1.22,0,0,0-.83.22,1.57,1.57,0,0,0,0,.16.64.64,0,0,0,0,.09l.09.09h0a1.5,1.5,0,0,0,.14.19l.06.05a.64.64,0,0,0,.15.12Z"/><path class="cls-4" d="M8.67,8.25a.45.45,0,0,1,.1.07.31.31,0,0,0,.17.09c.07,0,.1,0,.12-.06a.67.67,0,0,0,0-.1.28.28,0,0,0,.15.1.26.26,0,0,0,.19,0,.12.12,0,0,0,.05-.13c0-.08,0-.1,0-.1h.07s0,.14.1.18a.23.23,0,0,0,.19,0,.17.17,0,0,0,.12-.08l0-.09a.27.27,0,0,0,.18.15.22.22,0,0,0,.2-.07A.26.26,0,0,0,10.39,8h.08s0,.16,0,.22a.25.25,0,0,0,.22.05c.09,0,.15-.14.15-.14h0s0,.13.11.16a.22.22,0,0,0,.28-.06A.27.27,0,0,0,11.34,8l.06,0h0s0,.19.05.24a.29.29,0,0,0,.23,0s.09-.09.09-.09h0s0,.18.11.16a.54.54,0,0,0,.28-.17l0,0a.86.86,0,0,1-.19.17c-.07,0-.17,0-.21,0a.35.35,0,0,1-.06-.08.41.41,0,0,1-.23,0,.35.35,0,0,1-.18-.14.43.43,0,0,1-.24.09.31.31,0,0,1-.21-.1.43.43,0,0,1-.22.07.33.33,0,0,1-.23-.12.44.44,0,0,1-.22.12A.31.31,0,0,1,10,8.26a.44.44,0,0,1-.22.1c-.09,0-.2,0-.23-.09a.34.34,0,0,1-.21.15.4.4,0,0,1-.21,0s0,.11-.13.11a.37.37,0,0,1-.25-.09l-.09-.12,0,0Z"/><path class="cls-5" d="M12.46,7.92s.4-.43-.27-.74l.15.11.12.16v.21l-.07.13.08.13Z"/><path class="cls-3" d="M12.47,7.92s.4-.43-.28-.75l0,0,0,0,.15.1.11.17v.19l-.07.14h0l.09.12h0Zm-.22-.7c.53.28.26.64.21.69l-.07-.12.07-.13h0V7.45h0l-.12-.16h0l-.1-.07Z"/><path class="cls-6" d="M12.49,7.93a.75.75,0,0,0-.08-.14.35.35,0,0,0,.09-.22.32.32,0,0,0-.08-.25.73.73,0,0,0-.27-.17,1.19,1.19,0,0,0-.63,0v.06a1.18,1.18,0,0,1,.6,0,.57.57,0,0,1,.23.15.27.27,0,0,1,.08.2.41.41,0,0,1-.1.21v0l.09.14.06,0Z"/><path class="cls-3" d="M12.5,7.93l0-.06,0-.08a.24.24,0,0,0,.06-.11.23.23,0,0,0,0-.11.27.27,0,0,0,0-.13.33.33,0,0,0-.07-.13l-.11-.09-.15-.07a1,1,0,0,0-.31-.06,1.25,1.25,0,0,0-.33,0h0l0,.06h0a1.77,1.77,0,0,1,.32,0,1.27,1.27,0,0,1,.28.06l.13.06.1.08a.21.21,0,0,1,.06.1.17.17,0,0,1,0,.1.17.17,0,0,1,0,.1.3.3,0,0,1-.06.11v0h0v0h0l.08.14h0l.06,0Zm-.05-.06a.09.09,0,0,1,0,0l-.05,0-.08-.13h0v0h0l.07-.11a.43.43,0,0,0,0-.11.17.17,0,0,0,0-.1.21.21,0,0,0-.06-.1.43.43,0,0,0-.1-.09.59.59,0,0,0-.14-.06,1.15,1.15,0,0,0-.28-.06,1.62,1.62,0,0,0-.31,0v0a1.17,1.17,0,0,1,.32,0,1.33,1.33,0,0,1,.3.06.52.52,0,0,1,.15.07l.11.09a.37.37,0,0,1,.07.12.27.27,0,0,1,0,.13.26.26,0,0,1,0,.11.6.6,0,0,1-.06.11h0l0,.07Z"/><path class="cls-3" d="M8.68,8.24l.09.07h0s.1.09.16.08H9l0,0a.67.67,0,0,0,0-.1v0l0,0a.25.25,0,0,0,.15.09h.09l.08,0a.1.1,0,0,0,0-.05.11.11,0,0,0,0-.08v-.1h.08s0,.13.09.17a.17.17,0,0,0,.11,0h.08l.06,0a.23.23,0,0,0,.05-.05.08.08,0,0,0,0,0,.06.06,0,0,0,0,0h0v0a.24.24,0,0,0,.17.13.19.19,0,0,0,.11,0,.18.18,0,0,0,.09-.06h0a.26.26,0,0,0,0-.2h.09s0,.16.06.21a.21.21,0,0,0,.1.06h.11c.09,0,.14-.14.14-.14h0a.2.2,0,0,0,.11.16.43.43,0,0,0,.16,0,.17.17,0,0,0,.1-.07A.34.34,0,0,0,11.34,8h0l.05,0h0s0,.18.05.24a.19.19,0,0,0,.1,0,.21.21,0,0,0,.12,0s.08-.08.08-.08h0s0,.18.11.15a.6.6,0,0,0,.28-.17h0l0,.06h0a1,1,0,0,1-.2.18l-.13,0a.14.14,0,0,1-.09,0,.18.18,0,0,1-.05-.07.39.39,0,0,1-.23,0,.24.24,0,0,1-.11-.06.23.23,0,0,1-.07-.08.42.42,0,0,1-.24.08.5.5,0,0,1-.13,0,.18.18,0,0,1-.08-.06.45.45,0,0,1-.22.06.28.28,0,0,1-.13,0,.31.31,0,0,1-.1-.08.49.49,0,0,1-.22.12l-.13,0a.3.3,0,0,1-.1-.05s-.13.1-.22.1l-.15,0a.16.16,0,0,1-.08-.06.37.37,0,0,1-.2.14.39.39,0,0,1-.22,0A.19.19,0,0,1,9,8.5a.32.32,0,0,1-.14,0,.23.23,0,0,1-.11-.07l-.09-.12h0l0,0h0Zm.09.08-.09-.07,0,0a1.09,1.09,0,0,0,.09.11.26.26,0,0,0,.1.07.24.24,0,0,0,.14,0c.09,0,.12-.1.12-.1h0a.31.31,0,0,0,.21,0,.35.35,0,0,0,.2-.14h0l.09.06a.34.34,0,0,0,.14,0,.44.44,0,0,0,.21-.1h0a.24.24,0,0,0,.1.06.28.28,0,0,0,.13,0,.34.34,0,0,0,.21-.11h0a.38.38,0,0,0,.11.08.21.21,0,0,0,.12,0,.31.31,0,0,0,.21-.07h0l.09.06.12,0a.4.4,0,0,0,.23-.08h0l.08.08a.21.21,0,0,0,.1.06.37.37,0,0,0,.23,0h0l.06.07a.11.11,0,0,0,.08,0l.12,0a.92.92,0,0,0,.2-.17l0,0a.6.6,0,0,1-.27.17c-.14,0-.13-.14-.13-.17h0a.26.26,0,0,1-.09.09h-.12l-.11,0c-.08-.06-.06-.22-.05-.25h0l0,0a.37.37,0,0,1-.06.17.19.19,0,0,1-.11.07.33.33,0,0,1-.17,0,.2.2,0,0,1-.11-.16h0a.29.29,0,0,1-.15.14h-.12l-.1-.06c-.07,0-.06-.18-.06-.21h-.07a.28.28,0,0,1,0,.2h0a.18.18,0,0,1-.09.06.23.23,0,0,1-.12,0A.24.24,0,0,1,10,8.12v0s0,0,0,0a.13.13,0,0,1,0,.06l-.06,0h-.1l-.11,0a.24.24,0,0,1-.09-.18H9.46a.58.58,0,0,0,0,.1.11.11,0,0,1,0,.08.13.13,0,0,1,0,.06l-.09,0h-.1a.24.24,0,0,1-.14-.08s0,0,0,.08A.07.07,0,0,1,9,8.4l-.08,0a.35.35,0,0,1-.17-.09Z"/><path class="cls-4" d="M11.42,7.68A.38.38,0,0,0,11.3,7l0,.07.12.14,0,.15a.66.66,0,0,1-.07.15.53.53,0,0,1-.07.1l.07.09Z"/><path class="cls-3" d="M11.42,7.68s.52-.42-.12-.71h0l0,0,.06.07h0l.12.14s0,.14,0,.15a.45.45,0,0,0,0,.08l0,.07-.08.09h0l.07.09h0ZM11.32,7a.37.37,0,0,1,.1.68l-.07-.08.08-.1,0-.06a.29.29,0,0,0,0-.09V7.19h0L11.35,7l0,0Z"/><path class="cls-7" d="M10.56,7.06A.77.77,0,0,1,11.2,7a.56.56,0,0,1,.17.11.27.27,0,0,1,.09.15.33.33,0,0,1-.13.3l0,0v0l.07.15.06,0-.06-.13a.41.41,0,0,0,.14-.34.34.34,0,0,0-.11-.18.45.45,0,0,0-.2-.12.78.78,0,0,0-.69.07l0,0Z"/><path class="cls-3" d="M10.57,7.06a.67.67,0,0,1,.3-.1.72.72,0,0,1,.33,0l.09,0a.16.16,0,0,1,.08.06l.06.07a.19.19,0,0,1,0,.07.2.2,0,0,1,0,.15.44.44,0,0,1-.11.15h0v0l.08.17h0l.06,0h0l-.06-.14a.55.55,0,0,0,.11-.17.26.26,0,0,0,0-.17.29.29,0,0,0,0-.1l-.07-.09L11.34,7l-.12-.05a.71.71,0,0,0-.36,0,.76.76,0,0,0-.34.11h0l0,0h0Zm.3-.11a.67.67,0,0,0-.3.1l0,0a.65.65,0,0,1,.33-.11.69.69,0,0,1,.35,0l.11,0,.09.07a.47.47,0,0,1,.06.09.36.36,0,0,1,0,.09.35.35,0,0,1,0,.17.53.53,0,0,1-.12.17h0l.07.14,0,0-.08-.17h0v0a.48.48,0,0,0,.11-.15.27.27,0,0,0,0-.15l0-.08-.06-.07A.16.16,0,0,0,11.3,7a.31.31,0,0,0-.1,0,.72.72,0,0,0-.33,0Z"/><path class="cls-4" d="M8.3,8.08a.24.24,0,0,1,.26.15l0,0S8.67,8,8.55,8V8a.12.12,0,0,0-.13,0,.12.12,0,0,0-.11.11Z"/><path class="cls-3" d="M8.31,8.07a.24.24,0,0,1,.25.15h0S8.65,8,8.55,8V8a.13.13,0,0,0-.13,0,.1.1,0,0,0-.08,0s0,0,0,.05Zm.24.16a.23.23,0,0,0-.24-.15h0a.14.14,0,0,1,0-.07.15.15,0,0,1,.09,0,.14.14,0,0,1,.13,0V8h0c.12,0,.07.25.07.25H8.55Z"/><path class="cls-4" d="M8.67,8.26h.25a.07.07,0,0,0-.05-.05A.32.32,0,0,0,9,8.11a.32.32,0,0,0-.15,0V8s-.17.05-.21.18l.06,0Z"/><path class="cls-3" d="M8.68,8.25a1,1,0,0,0,.23,0s0,0-.05,0h0A.25.25,0,0,0,9,8.11a.28.28,0,0,0-.14,0h0V8a.36.36,0,0,0-.2.17l.07,0Zm.24,0a1.16,1.16,0,0,1-.25,0h0l-.07,0h0A.33.33,0,0,1,8.82,8h0v.05A.3.3,0,0,1,9,8.1H9a.73.73,0,0,1-.1.09.11.11,0,0,1,0,.05h0Z"/><path class="cls-1" d="M8.66,8.21a.07.07,0,0,1,0,.09.09.09,0,0,1-.11,0s-.05-.07,0-.09a.08.08,0,0,1,.11,0Z"/><path class="cls-3" d="M8.66,8.21l0,0a.07.07,0,0,1,0,.05l0,0s-.05,0-.06,0h0l0,0a.07.07,0,0,1,0,0s0,0,0,0a.07.07,0,0,1,.06,0Zm0,0,0,0-.05,0,0,0a.06.06,0,0,0,0,0l0,.05h.06s0,0,0,0a0,0,0,0,0,0,0Z"/><path class="cls-4" d="M12.55,8.08a.24.24,0,0,0-.26.15l0,0s-.05-.2.07-.25V8a.13.13,0,0,1,.13,0,.12.12,0,0,1,.11.11Z"/><path class="cls-3" d="M12.54,8.07a.25.25,0,0,0-.25.15h0s0-.19.06-.24V8a.11.11,0,0,1,.12,0,.09.09,0,0,1,.08,0,.08.08,0,0,1,0,.05Zm-.24.16a.24.24,0,0,1,.25-.15h0s0-.05,0-.07a.13.13,0,0,0-.09,0,.14.14,0,0,0-.12,0V8h0c-.12,0-.07.25-.07.25h.07Z"/><path class="cls-4" d="M12.18,8.26h-.25A.1.1,0,0,1,12,8.2a.45.45,0,0,1-.11-.09.32.32,0,0,1,.15,0V8a.37.37,0,0,1,.22.18l-.07,0Z"/><path class="cls-3" d="M12.18,8.25a1.05,1.05,0,0,1-.24,0,.11.11,0,0,1,.05,0h0a.34.34,0,0,1-.1-.08.28.28,0,0,1,.14,0h0V8a.33.33,0,0,1,.2.17l-.06,0Zm-.25,0a1.16,1.16,0,0,0,.25,0h0l.07,0h0A.32.32,0,0,0,12,8h0v.05a.32.32,0,0,0-.15,0h0s.07.07.09.09,0,.05,0,.05h0Z"/><path class="cls-1" d="M12.2,8.21a.07.07,0,0,0,0,.09.08.08,0,0,0,.1,0s.05-.07,0-.09a.07.07,0,0,0-.1,0Z"/><path class="cls-3" d="M12.2,8.21l0,0a0,0,0,0,0,0,.05l.06,0a.07.07,0,0,0,.06,0h0l0,0a0,0,0,0,0,0,0s0,0-.05,0,0,0-.05,0Zm0,0s0,0,0,0l.05,0,.05,0a0,0,0,0,1,0,0,.05.05,0,0,1,0,.05h0s0,0-.05,0a0,0,0,0,1,0,0Z"/><path class="cls-8" d="M11.82,8.17s0,0,0,.07,0,0-.06,0a0,0,0,0,1,0-.07s0-.05.06,0Z"/><path class="cls-3" d="M11.82,8.16l0,0v.05l0,0h0a0,0,0,0,1,0,0v0l0,0Zm0,0,0,0h0s0,0,0,0a0,0,0,0,0,0,0l0,0h0l0,0a0,0,0,0,0,0-.05Z"/><path class="cls-8" d="M10.92,8s0,0,0,.06,0,.06-.06,0,0,0,0-.06,0-.06.06-.05Z"/><path class="cls-3" d="M10.92,8l0,0a0,0,0,0,1,0,.05l0,0h0l0,0a.06.06,0,0,1,0,0l0-.05Zm0,0,0,0h0l0,0a.06.06,0,0,0,0,0l0,0h0l0,0a.06.06,0,0,0,0,0Z"/><path class="cls-5" d="M8.38,7.92s-.4-.43.27-.74l-.15.11-.12.16v.21l.07.13-.08.13Z"/><path class="cls-3" d="M8.38,7.92s-.41-.43.27-.75l.06,0-.05,0-.16.1-.11.17v.19l.07.14h0l-.08.12h0Zm.21-.7c-.53.28-.25.64-.21.69l.07-.12-.06-.13h0V7.45h0l.11-.16h0l.09-.07Z"/><path class="cls-6" d="M8.35,7.93l.08-.14a.35.35,0,0,1-.09-.22.29.29,0,0,1,.09-.25.62.62,0,0,1,.26-.17,1.19,1.19,0,0,1,.63,0v.06a1.19,1.19,0,0,0-.6,0,.57.57,0,0,0-.23.15.27.27,0,0,0-.08.2.41.41,0,0,0,.1.21v0L8.41,8l-.06,0Z"/><path class="cls-3" d="M8.34,7.93l0-.06,0-.08a.24.24,0,0,1-.06-.11.23.23,0,0,1,0-.11.27.27,0,0,1,0-.13.33.33,0,0,1,.07-.13l.12-.09a.52.52,0,0,1,.15-.07A.94.94,0,0,1,9,7.09a1.22,1.22,0,0,1,.33,0h0v.06h0a1.72,1.72,0,0,0-.31,0,1.24,1.24,0,0,0-.29.06l-.13.06-.1.08a.33.33,0,0,0-.06.1.34.34,0,0,0,0,.1.17.17,0,0,0,0,.1.3.3,0,0,0,.06.11l0,0h0l0,0h0L8.42,8h0l-.06,0Zm.05-.06,0,0,.05,0,.08-.13h0v0h0a.41.41,0,0,1-.06-.11.23.23,0,0,1,0-.11.17.17,0,0,1,0-.1.21.21,0,0,1,.06-.1.43.43,0,0,1,.1-.09.59.59,0,0,1,.14-.06A1.14,1.14,0,0,1,9,7.15a1.56,1.56,0,0,1,.3,0v0A1.17,1.17,0,0,0,9,7.1a1.33,1.33,0,0,0-.3.06l-.15.07-.11.09a.37.37,0,0,0-.07.12.27.27,0,0,0,0,.13l0,.11.06.11h0l0,.07Z"/><path class="cls-8" d="M9.94,8s0,0,0,.06,0,.06.06,0,0,0,0-.06S10,8,9.94,8Z"/><path class="cls-3" d="M9.94,8l0,0a0,0,0,0,0,0,.05l0,0h0a0,0,0,0,0,0,0,.06.06,0,0,0,0,0L10,8Zm0,0,0,0h0l0,0a.06.06,0,0,1,0,0l0,0h0a.05.05,0,0,1,0,0,0,0,0,0,1,0,0Z"/><path class="cls-4" d="M9.41,7.68s-.51-.42.13-.7l-.06.07-.12.14a.71.71,0,0,0,0,.15l.06.15.08.1-.08.09Z"/><path class="cls-3" d="M9.41,7.68s-.52-.42.12-.71h0l0,0,0,.07h0l-.13.14s0,.14,0,.15a.45.45,0,0,1,0,.08l0,.07.07.09h0l-.07.09h0ZM9.52,7c-.56.27-.16.64-.11.68l.07-.08a.86.86,0,0,1-.07-.1l0-.06,0-.09V7.19h0L9.48,7l0,0Z"/><path class="cls-7" d="M10.27,7.06A.77.77,0,0,0,9.63,7a.56.56,0,0,0-.17.11.27.27,0,0,0-.09.15.35.35,0,0,0,.14.3v0l-.06.13-.06,0,0-.12a.4.4,0,0,1-.13-.34.32.32,0,0,1,.1-.18.45.45,0,0,1,.2-.12A.78.78,0,0,1,10.3,7l0,0Z"/><path class="cls-3" d="M10.27,7.06A.75.75,0,0,0,10,7a.67.67,0,0,0-.32,0,.31.31,0,0,0-.1,0,.16.16,0,0,0-.08.06.18.18,0,0,0-.05.07.11.11,0,0,0,0,.07.26.26,0,0,0,0,.15.63.63,0,0,0,.11.15h0v0l-.07.13h0l-.06,0h0l.06-.11a.44.44,0,0,1-.12-.17.35.35,0,0,1,0-.17.3.3,0,0,1,0-.1.28.28,0,0,1,.07-.09A.35.35,0,0,1,9.5,7l.11-.05a.72.72,0,0,1,.36,0,.76.76,0,0,1,.34.11h0l0,0h0ZM10,7a.75.75,0,0,1,.31.1l0,0a.83.83,0,0,0-.69-.07L9.5,7l-.09.07-.06.09a.36.36,0,0,0,0,.09.35.35,0,0,0,0,.17.53.53,0,0,0,.12.17h0l0,.11,0,0,.06-.13h0l0,0a.48.48,0,0,1-.11-.15.2.2,0,0,1,0-.15.13.13,0,0,1,0-.08.18.18,0,0,1,0-.07A.21.21,0,0,1,9.53,7l.1,0A.72.72,0,0,1,10,7Z"/><path class="cls-8" d="M9,8.17s0,0,0,.07,0,0,.06,0a0,0,0,0,0,0-.07s0-.05-.06,0Z"/><path class="cls-3" d="M9,8.16l0,0v.05l0,0h0a0,0,0,0,0,0,0,0,0,0,0,0,0,0l0,0Zm0,0,0,0h0s0,0,0,0a0,0,0,0,1,0,0l0,0h0l0,0V8.19Z"/><path class="cls-4" d="M10.42,7.72l-.22-.19a1.61,1.61,0,0,0,.05-.28,2.33,2.33,0,0,1,0-.29.17.17,0,0,1,.31,0,2.33,2.33,0,0,1,0,.29,1.61,1.61,0,0,0,.05.28l-.23.19Z"/><path class="cls-3" d="M10.42,7.72l-.22-.18h0a1.12,1.12,0,0,0,0-.28.81.81,0,0,1,0-.15c0-.06,0-.11,0-.14a.16.16,0,0,1,.08-.1h.17a.16.16,0,0,1,.08.1s0,.08,0,.14a.75.75,0,0,1,0,.15,1.61,1.61,0,0,0,.05.28h0l-.22.18h0Zm-.21-.19.21.18.22-.18a1.43,1.43,0,0,1-.05-.28V7.1c0-.06,0-.11,0-.14a.1.1,0,0,0-.07-.08.11.11,0,0,0-.08,0,.1.1,0,0,0-.07,0,.08.08,0,0,0-.07.08.46.46,0,0,0,0,.14v.15a1.43,1.43,0,0,1,0,.28Z"/><path class="cls-3" d="M10.42,7.65l-.14-.13h0s0-.14,0-.24V7.17a.76.76,0,0,1,0-.17.08.08,0,0,1,.05-.08h.08a.1.1,0,0,1,.06.08v.28a1.09,1.09,0,0,0,0,.24h0l-.13.13Zm-.13-.14.13.12.13-.12s0-.14,0-.23V7.17a.76.76,0,0,0,0-.17.07.07,0,0,0,0-.07h-.08a.07.07,0,0,0,0,.07s0,.1,0,.17v.11a.8.8,0,0,1,0,.23Z"/><path class="cls-8" d="M10.42,7s0,0,0,0a0,0,0,0,1,0,0,0,0,0,0,1,0,0,0,0,0,0,1,0,0Z"/><path class="cls-3" d="M10.42,7h0a0,0,0,0,1,0,0V7h0l0,0,0,0h0s0,0,0,0Zm0,0h0V7h0s0,0,0,0h0s0,0,0,0Z"/><path class="cls-8" d="M10.42,7.09a0,0,0,0,1,0,0s0,0,0,0,0,0,0,0a0,0,0,0,1,0,0Z"/><path class="cls-3" d="M10.42,7.08s0,0,0,0,0,0,0,0l0,0h-.06a0,0,0,0,1,0,0s0,0,0,0h0l0,0Zm0,0h0a0,0,0,0,0,0,0v0h0s0,0,0,0,0,0,0,0Z"/><path class="cls-8" d="M10.42,7.21a.06.06,0,0,1,.06,0,.06.06,0,0,1-.06.06.06.06,0,0,1-.05-.06,0,0,0,0,1,.05,0Z"/><path class="cls-3" d="M10.42,7.21h.05a.06.06,0,0,1,0,0s0,0,0,0h0l-.05,0,0,0a.05.05,0,0,1,0,0,.08.08,0,0,1,0,0h0Zm0,0h-.07a0,0,0,0,0,0,0s0,0,0,0h.07s0,0,0,0a0,0,0,0,0,0,0Z"/><path class="cls-8" d="M10.42,7.35a.07.07,0,0,1,.07.07.07.07,0,0,1-.14,0,.07.07,0,0,1,.07-.07Z"/><path class="cls-3" d="M10.42,7.34l.06,0a.14.14,0,0,1,0,.06.08.08,0,0,1,0,0l-.06,0-.05,0s0,0,0,0a.07.07,0,0,1,0-.06l.05,0Zm.05,0-.05,0,0,0a.06.06,0,0,0,0,.09l0,0,.05,0a.06.06,0,0,0,0-.09Z"/><path class="cls-8" d="M10.42,7.49a.07.07,0,1,1-.07.07.07.07,0,0,1,.07-.07Z"/><path class="cls-3" d="M10.42,7.49l.06,0a.07.07,0,0,1,0,.1l-.06,0a.05.05,0,0,1-.05,0s0,0,0-.05,0,0,0,0l.05,0Zm.05,0-.05,0,0,0a.05.05,0,0,0,0,0s0,0,0,.05h.09s0,0,0-.05a.05.05,0,0,0,0,0Z"/><path class="cls-4" d="M10.15,8.06l.15,0,.07,0V7.9a.52.52,0,0,0-.24-.1.1.1,0,0,0,0,.06s-.06,0-.15.07a.31.31,0,0,0,.15.07.22.22,0,0,0,0,.06Z"/><path class="cls-3" d="M10.15,8.05a.35.35,0,0,0,.14,0l.08,0V7.9a.45.45,0,0,0-.22-.09.06.06,0,0,0,0,.05h0s-.05,0-.14.06a.31.31,0,0,0,.14.06h0l0,.05Zm.15,0-.15,0h0s0,0,0-.06A.19.19,0,0,1,10,7.93h0a.24.24,0,0,1,.14-.06.07.07,0,0,1,0-.06h0a.46.46,0,0,1,.24.11h0V8h0A.21.21,0,0,1,10.3,8Z"/><path class="cls-4" d="M10.72,8.08l-.15,0-.08,0V7.92a.4.4,0,0,1,.23-.1s0,0,0,.06a.21.21,0,0,1,.15.06.23.23,0,0,1-.15.07.35.35,0,0,1,0,.07Z"/><path class="cls-3" d="M10.72,8.08a.64.64,0,0,1-.15,0A.21.21,0,0,1,10.49,8h0V7.92h0a.43.43,0,0,1,.23-.1h0a.13.13,0,0,1,0,0,.24.24,0,0,1,.14.07h0a.3.3,0,0,1-.14.07.35.35,0,0,1,0,.06h0ZM10.57,8l.14,0a.12.12,0,0,0,0-.05h0a.22.22,0,0,0,.14-.07.29.29,0,0,0-.14-.06h0v0a.08.08,0,0,0,0,0,.52.52,0,0,0-.22.1V8a.21.21,0,0,0,.07,0Z"/><path class="cls-4" d="M10.27,7.66a.4.4,0,0,0,.14.27h.06s.08,0,.12-.25a.12.12,0,0,0-.07,0s0-.07-.09-.16a.25.25,0,0,0-.07.17s0,0-.09,0Z"/><path class="cls-3" d="M10.28,7.67a1,1,0,0,0,0,.14.34.34,0,0,0,.09.12h.06a.36.36,0,0,0,.11-.24l-.06,0h0v0s0-.06-.08-.15a.22.22,0,0,0-.06.16h0s0,0-.07,0Zm0,.14a.83.83,0,0,1,0-.15h0a.15.15,0,0,1,.08,0,.34.34,0,0,1,.08-.16h0a.25.25,0,0,1,.08.16.14.14,0,0,1,.07,0h0c0,.2-.12.25-.12.25h-.07a.26.26,0,0,1-.1-.13Z"/><path class="cls-1" d="M10.45,7.85a.1.1,0,0,1,.08.11.1.1,0,0,1-.11.07.1.1,0,0,1-.08-.11.09.09,0,0,1,.11-.07Z"/><path class="cls-3" d="M10.45,7.84l.07,0a.11.11,0,0,1,0,.08.08.08,0,0,1,0,.06.11.11,0,0,1-.08,0s0,0-.06,0a.08.08,0,0,1,0-.07.07.07,0,0,1,0-.06.1.1,0,0,1,.07,0Zm.06,0a.09.09,0,0,0-.06,0,.06.06,0,0,0-.06,0,.07.07,0,0,0,0,0,.08.08,0,0,0,0,.07s0,0,.06,0a.07.07,0,0,0,.06,0,.07.07,0,0,0,0-.06.13.13,0,0,0,0-.06Z"/><path class="cls-8" d="M8.29,7.9a0,0,0,0,1,0,0,0,0,0,0,1-.08,0,0,0,0,0,1,0,0Z"/><path class="cls-3" d="M8.29,7.9h0a.05.05,0,0,1,0,0l0,0H8.25s0,0,0,0,0,0,0,0h0Zm0,0H8.26V8h.06v0Z"/><path class="cls-8" d="M8.23,7.8a0,0,0,0,1,0,.08,0,0,0,1,1,0-.08Z"/><path class="cls-3" d="M8.23,7.79l0,0h0s0,0,0,0a0,0,0,0,1,0,0l0,0,0,0h0a0,0,0,0,1,0,0s0,0,0,0h0l0,0Zm0,0H8.2a0,0,0,0,0,0,0s0,0,0,0h.05s0,0,0,0a0,0,0,0,0,0,0Z"/><path class="cls-8" d="M8.19,7.68a0,0,0,0,1,0,0,0,0,0,0,1,0,0s0,0,0,0a0,0,0,0,1,0,0Z"/><path class="cls-3" d="M8.19,7.68h0a0,0,0,0,1,0,0s0,0,0,0H8.15s0,0,0,0a0,0,0,0,1,0,0h0Zm0,0H8.16s0,0,0,0a0,0,0,0,0,0,0h.05a0,0,0,0,0,0,0s0,0,0,0Z"/><path class="cls-8" d="M8.18,7.54a0,0,0,0,1,0,0,0,0,0,1,1-.08,0,0,0,0,0,1,0,0Z"/><path class="cls-3" d="M8.18,7.54h0l0,0a.05.05,0,0,1,0,0H8.14s0,0,0,0v0h0Zm0,0H8.15v0s0,0,0,0h.06s0,0,0,0v0Z"/><path class="cls-8" d="M8.22,7.41a0,0,0,0,1,0,0,0,0,0,0,1,0,0,0,0,0,0,1-.05,0,0,0,0,0,1,.05,0Z"/><path class="cls-3" d="M8.22,7.41h0s0,0,0,0a0,0,0,0,1,0,0H8.18a0,0,0,0,1,0,0s0,0,0,0h0Zm0,0H8.19a0,0,0,0,0,0,0v0h.05v0a0,0,0,0,0,0,0Z"/><path class="cls-8" d="M8.28,7.3a0,0,0,1,1,0,.08,0,0,0,1,1,0-.08Z"/><path class="cls-3" d="M8.28,7.29a.05.05,0,0,1,0,0h0a0,0,0,0,1,0,0s0,0,0,0a.05.05,0,0,1,0,0l0,0h0s0,0,0,0a0,0,0,0,1,0,0h0l0,0Zm0,0H8.26s0,0,0,0a0,0,0,0,0,0,0h.05a0,0,0,0,0,0,0s0,0,0,0Z"/><path class="cls-8" d="M8.38,7.2a0,0,0,1,1,0,.08,0,0,0,1,1,0-.08Z"/><path class="cls-3" d="M8.38,7.19l0,0h0l0,0s0,0,0,0l0,0a.05.05,0,0,1,0,0h0s0,0,0,0a0,0,0,0,1,0,0h0a.05.05,0,0,1,0,0Zm0,0H8.35s0,0,0,0a0,0,0,0,0,0,0H8.4a0,0,0,0,0,0,0s0,0,0,0Z"/><path class="cls-8" d="M8.49,7.12a0,0,0,1,1,0,.08,0,0,0,1,1,0-.08Z"/><path class="cls-3" d="M8.49,7.11l0,0h0l0,0s0,0,0,0l0,0,0,0h0s0,0,0,0a0,0,0,0,1,0,0h0l0,0Zm0,0h0s0,0,0,0a0,0,0,0,0,0,0h0a0,0,0,0,0,0,0s0,0,0,0Z"/><path class="cls-8" d="M8.61,7.05a0,0,0,0,1,.05,0,0,0,0,0,1-.05,0,0,0,0,0,1,0,0,0,0,0,0,1,0,0Z"/><path class="cls-3" d="M8.61,7.05h0s0,0,0,0a0,0,0,0,1,0,0H8.58s0,0,0,0a.05.05,0,0,1,0,0h0Zm0,0H8.59a0,0,0,0,0,0,0,0,0,0,0,0,0,0h.05a0,0,0,0,0,0,0,0,0,0,0,0,0,0Z"/><path class="cls-8" d="M8.75,7s0,0,0,0a0,0,0,0,1,0,0,0,0,0,0,1,0,0,0,0,0,0,1,0,0Z"/><path class="cls-3" d="M8.75,7h0s0,0,0,0a0,0,0,0,1,0,0H8.72l0,0a.05.05,0,0,1,0,0h0Zm0,0h0l0,0,0,0h0s0,0,0,0,0,0,0,0Z"/><path class="cls-8" d="M8.9,7S9,7,9,7a0,0,0,0,1,0,0,0,0,0,0,1,0,0,0,0,0,0,1,0,0Z"/><path class="cls-3" d="M8.9,7h0S9,7,9,7a0,0,0,0,1,0,0H8.87a0,0,0,0,1,0,0s0,0,0,0h0Zm0,0h0a0,0,0,0,0,0,0s0,0,0,0h0s0,0,0,0a0,0,0,0,0,0,0Z"/><path class="cls-8" d="M9.05,7a0,0,0,0,1,0,0A0,0,0,1,1,9,7a0,0,0,0,1,0,0Z"/><path class="cls-3" d="M9.05,7h0a.05.05,0,0,1,0,0l0,0H9L9,7A.05.05,0,0,1,9,7h0Zm0,0H9V7S9,7,9,7h.06s0,0,0,0V7Z"/><path class="cls-8" d="M9.18,7a0,0,0,0,1,.05,0s0,0-.05,0a0,0,0,0,1,0,0,0,0,0,0,1,0,0Z"/><path class="cls-3" d="M9.18,7h0a0,0,0,0,1,0,0s0,0,0,0H9.15s0,0,0,0a0,0,0,0,1,0,0h0Zm0,0H9.16s0,0,0,0a0,0,0,0,0,0,0h.05a0,0,0,0,0,0,0s0,0,0,0Z"/><path class="cls-8" d="M9.33,7a0,0,0,0,1,0,0,0,0,0,1,1-.08,0,0,0,0,0,1,0,0Z"/><path class="cls-3" d="M9.33,7s0,0,0,0h0a.05.05,0,0,1,0,0s0,0,0,0H9.3s0,0,0,0a.05.05,0,0,1,0,0h0s0,0,0,0Zm0,0H9.3V7s0,0,0,0h.06s0,0,0,0V7Z"/><path class="cls-8" d="M9.43,6.89a0,0,0,0,1,.05,0A0,0,0,0,1,9.43,7a0,0,0,0,1,0-.05,0,0,0,0,1,0,0Z"/><path class="cls-3" d="M9.43,6.89h0a0,0,0,0,1,0,0s0,0,0,0H9.4a.05.05,0,0,1,0,0l0,0h0Zm0,0H9.41v0a0,0,0,0,0,0,0h.05a0,0,0,0,0,0,0v0Z"/><path class="cls-8" d="M9.56,6.83a0,0,0,0,1,0,.08,0,0,0,0,1,0-.08,0,0,0,0,1,0,0Z"/><path class="cls-3" d="M9.56,6.82l0,0h0s0,0,0,0l0,0,0,0,0,0h0s0,0,0,0v0h0l0,0Zm0,0H9.53v0h.06v0Z"/><path class="cls-8" d="M9.69,6.78a0,0,0,0,1,.05,0,0,0,0,0,1-.05,0,0,0,0,0,1,0,0,0,0,0,0,1,0,0Z"/><path class="cls-3" d="M9.69,6.78h0s0,0,0,0a0,0,0,0,1,0,0H9.66l0,0a.05.05,0,0,1,0,0h0Zm0,0H9.67a0,0,0,0,0,0,0v0h0s0,0,0,0h0v0a0,0,0,0,0,0,0Z"/><path class="cls-8" d="M9.84,6.76a0,0,0,0,1,0,0,0,0,0,0,1,0,0,0,0,0,0,1-.05,0,0,0,0,0,1,.05,0Z"/><path class="cls-3" d="M9.84,6.76h0l0,0a.05.05,0,0,1,0,0H9.8s0,0,0,0a0,0,0,0,1,0,0h0Zm0,0s0,0,0,0h0v0h0l0,0,0,0Z"/><path class="cls-8" d="M10,6.77a0,0,0,0,1,0,0,0,0,0,1,1-.08,0,0,0,0,0,1,0,0Z"/><path class="cls-3" d="M10,6.76h0a.05.05,0,0,1,0,0s0,0,0,0H10s0,0,0,0a.05.05,0,0,1,0,0h0Zm0,0H10v0a0,0,0,0,0,0,0H10a0,0,0,0,0,0,0v0Z"/><path class="cls-8" d="M10.12,6.79a0,0,0,1,1,0,.08,0,0,0,0,1,0-.08,0,0,0,0,1,0,0Z"/><path class="cls-3" d="M10.12,6.78l0,0h0v0s0,0,0,0l0,0,0,0h0l0,0s0,0,0,0h0l0,0Zm0,0h-.06v0h.06v0Z"/><path class="cls-8" d="M10.24,6.83a0,0,0,0,1,0,0,0,0,0,0,1,0,0,0,0,0,0,1,0,0,0,0,0,0,1,0,0Z"/><path class="cls-3" d="M10.24,6.83h0a0,0,0,0,1,0,0s0,0,0,0h-.07a.05.05,0,0,1,0,0l0,0h0Zm0,0h0v0a0,0,0,0,0,0,0h0s0,0,0,0,0,0,0,0Z"/><path class="cls-8" d="M9.35,7.57a0,0,0,0,1,0,0,0,0,0,0,1-.08,0,0,0,0,0,1,0,0Z"/><path class="cls-3" d="M9.35,7.57h0s0,0,0,0,0,0,0,0H9.32a.05.05,0,0,1,0,0s0,0,0,0h0Zm0,0H9.32a0,0,0,0,0,0,0v0h.06v0a0,0,0,0,0,0,0Z"/><path class="cls-8" d="M9.27,7.46a0,0,0,0,1,0,0,0,0,0,0,1,0,0,0,0,0,0,1,0,0,0,0,0,0,1,0,0Z"/><path class="cls-3" d="M9.27,7.46h0a.05.05,0,0,1,0,0l0,0H9.23a0,0,0,0,1,0,0s0,0,0,0h0Zm0,0s0,0,0,0h0a0,0,0,0,0,0,0v0h0v0a0,0,0,0,0,0,0Z"/><path class="cls-8" d="M9.23,7.35a0,0,0,0,1,0,.08,0,0,0,1,1,0-.08Z"/><path class="cls-3" d="M9.23,7.34l0,0h0s0,0,0,0,0,0,0,0l0,0,0,0h0a0,0,0,0,1,0,0s0,0,0,0h0l0,0Zm0,0H9.2a0,0,0,0,0,0,0s0,0,0,0h.05s0,0,0,0a0,0,0,0,0,0,0Z"/><path class="cls-8" d="M9.23,7.22a0,0,0,0,1,0,.08,0,0,0,0,1,0-.08Z"/><path class="cls-3" d="M9.23,7.21a.05.05,0,0,1,0,0h0V7.3H9.2a.08.08,0,0,1,0,0l0,0h0l0,0Zm0,0h0a0,0,0,0,0,0,0l0,0h0v0Z"/><path class="cls-8" d="M9.26,7.09a0,0,0,1,1,0,.08,0,0,0,1,1,0-.08Z"/><path class="cls-3" d="M9.26,7.08l0,0h0s0,0,0,0v0H9.23l0,0,0,0h0l0,0Zm0,0h0s0,0,0,0h0l0,0,0,0h0v0Z"/><path class="cls-8" d="M10.6,6.83a0,0,0,0,1,.05,0s0,0-.05,0a0,0,0,0,1,0,0,0,0,0,0,1,0,0Z"/><path class="cls-3" d="M10.6,6.83h0a0,0,0,0,1,0,0s0,0,0,0h-.07a.05.05,0,0,1,0,0l0,0h0Zm0,0h-.05s0,0,0,0a0,0,0,0,0,0,0h.05a0,0,0,0,0,0,0s0,0,0,0Z"/><path class="cls-8" d="M10.72,6.79a0,0,0,0,1,0,.08,0,0,0,0,1,0-.08,0,0,0,0,1,0,0Z"/><path class="cls-3" d="M10.72,6.78l0,0h0s0,0,0,0a0,0,0,0,1,0,0l0,0,0,0h0l0,0s0,0,0,0h0l0,0Zm0,0H10.7l0,0,0,0h0s0,0,0,0h0v0Z"/><path class="cls-8" d="M10.87,6.77a0,0,0,1,1,0,.08,0,0,0,1,1,0-.08Z"/><path class="cls-3" d="M10.87,6.76l0,0h0s0,0,0,0,0,0,0,0l0,0a.05.05,0,0,1,0,0h0a0,0,0,0,1,0,0s0,0,0,0h0l0,0Zm0,0h-.05a0,0,0,0,0,0,0s0,0,0,0h.05s0,0,0,0a0,0,0,0,0,0,0Z"/><path class="cls-8" d="M11,6.77s.05,0,.05,0a0,0,0,0,1-.05,0,0,0,0,0,1,0,0,0,0,0,0,1,0,0Z"/><path class="cls-3" d="M11,6.76h0s0,0,0,0a0,0,0,0,1,0,0H11s0,0,0,0a.05.05,0,0,1,0,0h0Zm0,0h0a0,0,0,0,0,0,0s0,0,0,0h0s0,0,0,0a0,0,0,0,0,0,0Z"/><path class="cls-8" d="M11.14,6.79a0,0,0,1,1,0,.08,0,0,0,0,1,0-.08Z"/><path class="cls-3" d="M11.14,6.78l0,0h0a0,0,0,0,1,0,0s0,0,0,0l0,0,0,0h0s0,0,0,0l0,0h0l0,0Zm0,0h-.05s0,0,0,0a0,0,0,0,0,0,0h.05s0,0,0,0v0Z"/><path class="cls-8" d="M11.28,6.82a0,0,0,0,1,.05,0,0,0,0,0,1-.05,0,0,0,0,0,1,0,0,0,0,0,0,1,0,0Z"/><path class="cls-3" d="M11.28,6.82h0s0,0,0,0a0,0,0,0,1,0,0h-.07l0,0a.05.05,0,0,1,0,0h0Zm0,0h-.05a0,0,0,0,0,0,0s0,0,0,0h0s0,0,0,0h0s0,0,0,0a0,0,0,0,0,0,0Z"/><path class="cls-8" d="M11.42,6.89a0,0,0,0,1,0,0,0,0,0,0,1,0,.05,0,0,0,0,1-.05-.05,0,0,0,0,1,.05,0Z"/><path class="cls-3" d="M11.42,6.89h0l0,0a.05.05,0,0,1,0,0h-.07s0,0,0,0a0,0,0,0,1,0,0h0Zm0,0h0v0a0,0,0,0,0,0,0h0a0,0,0,0,0,0,0v0Z"/><path class="cls-8" d="M11.53,7a0,0,0,1,1,0,.08,0,0,0,1,1,0-.08Z"/><path class="cls-3" d="M11.53,7l0,0h0a0,0,0,0,1,0,0s0,0,0,0l0,0,0,0h0s0,0,0,0a0,0,0,0,1,0,0h0a.05.05,0,0,1,0,0Zm0,0H11.5s0,0,0,0a0,0,0,0,0,0,0h.05a0,0,0,0,0,0,0s0,0,0,0Z"/><path class="cls-8" d="M11.6,7.09a0,0,0,1,1,0,.08,0,0,0,1,1,0-.08Z"/><path class="cls-3" d="M11.6,7.08l0,0h0a0,0,0,0,1,0,0s0,0,0,0l0,0,0,0h0s0,0,0,0l0,0h0l0,0Zm0,0,0,0a0,0,0,0,0,0,0h0s0,0,0,0a0,0,0,0,0,0,0h.05v0Z"/><path class="cls-8" d="M11.62,7.22a0,0,0,0,1,.05,0,0,0,0,0,1-.05,0,0,0,0,0,1,0,0,0,0,0,0,1,0,0Z"/><path class="cls-3" d="M11.62,7.22h0a0,0,0,0,1,0,0s0,0,0,0h-.07a.05.05,0,0,1,0,0l0,0h0Zm0,0H11.6v0a0,0,0,0,0,0,0h.05a0,0,0,0,0,0,0v0Z"/><path class="cls-8" d="M11.63,7.35a0,0,0,0,1,0,.08,0,0,0,1,1,0-.08Z"/><path class="cls-3" d="M11.63,7.35h0l0,0a.05.05,0,0,1,0,0h-.07s0,0,0,0a0,0,0,0,1,0,0h0Zm0,0H11.6s0,0,0,0a0,0,0,0,0,0,0h.05a0,0,0,0,0,0,0s0,0,0,0Z"/><path class="cls-8" d="M11.57,7.46a0,0,0,0,1,0,0,0,0,0,0,1,0,0,0,0,0,0,1,0,0,0,0,0,0,1,0,0Z"/><path class="cls-3" d="M11.57,7.46h0s0,0,0,0a0,0,0,0,1,0,0h-.07a0,0,0,0,1,0,0s0,0,0,0h0Zm0,0h0s0,0,0,0h0a0,0,0,0,0,0,0v0h0v0a0,0,0,0,0,0,0Z"/><path class="cls-8" d="M11.5,7.57a0,0,0,0,1,0,.08,0,0,0,1,1,0-.08Z"/><path class="cls-3" d="M11.5,7.56a.05.05,0,0,1,0,0h0a0,0,0,0,1,0,0s0,0,0,0l0,0,0,0h0s0,0,0,0,0,0,0,0h0l0,0Zm0,0h0a0,0,0,0,0,0,0l0,0h0v0a0,0,0,0,0,0,0Z"/><path class="cls-8" d="M11.65,7a0,0,0,1,1,0,.08,0,0,0,0,1,0-.08Z"/><path class="cls-3" d="M11.65,7a.05.05,0,0,1,0,0h0s0,0,0,0a0,0,0,0,1,0,0l0,0,0,0h0s0,0,0,0,0,0,0,0h0l0,0Zm0,0h0a0,0,0,0,0,0,0s0,0,0,0h0s0,0,0,0a0,0,0,0,0,0,0Z"/><path class="cls-8" d="M11.8,7a0,0,0,0,1,0,0,0,0,0,0,1,0,0,0,0,0,0,1-.05,0s0,0,.05,0Z"/><path class="cls-3" d="M11.8,7h0s0,0,0,0a0,0,0,0,1,0,0h-.07a0,0,0,0,1,0,0s0,0,0,0h0Zm0,0h-.05a0,0,0,0,0,0,0s0,0,0,0h.05s0,0,0,0a0,0,0,0,0,0,0Z"/><path class="cls-8" d="M11.94,7a0,0,0,0,1,0,0,0,0,0,0,1-.08,0,0,0,0,0,1,0,0Z"/><path class="cls-3" d="M11.94,7s0,0,0,0h0a.05.05,0,0,1,0,0s0,0,0,0H11.9s0,0,0,0,0,0,0,0h0Zm0,0h-.06V7s0,0,0,0H12s0,0,0,0V7Z"/><path class="cls-8" d="M12.09,7a0,0,0,0,1,.05,0,0,0,0,0,1-.05,0,0,0,0,0,1,0,0,0,0,0,0,1,0,0Z"/><path class="cls-3" d="M12.09,7h0s0,0,0,0a0,0,0,0,1,0,0h-.07l0,0a.05.05,0,0,1,0,0h0Zm0,0h0a0,0,0,0,0,0,0v0h0v0a0,0,0,0,0,0,0Z"/><path class="cls-8" d="M12.23,7.05a0,0,0,0,1,0,0,0,0,0,1,1-.08,0,0,0,0,0,1,0,0Z"/><path class="cls-3" d="M12.23,7.05h0l0,0a.05.05,0,0,1,0,0H12.2a.05.05,0,0,1,0,0l0,0h0Zm0,0H12.2v0h.06v0Z"/><path class="cls-8" d="M12.35,7.12s.05,0,.05,0a0,0,0,0,1-.05,0,0,0,0,0,1,0,0,0,0,0,0,1,0,0Z"/><path class="cls-3" d="M12.35,7.11h0s0,0,0,0a0,0,0,0,1,0,0h-.07l0,0a.05.05,0,0,1,0,0h0Zm0,0h-.05a0,0,0,0,0,0,0s0,0,0,0h0s0,0,0,0h0s0,0,0,0a0,0,0,0,0,0,0Z"/><path class="cls-8" d="M12.47,7.2a0,0,0,1,1,0,.08,0,0,0,0,1,0-.08Z"/><path class="cls-3" d="M12.47,7.19l0,0h0a0,0,0,0,1,0,0s0,0,0,0a.05.05,0,0,1,0,0l0,0h0s0,0,0,0a0,0,0,0,1,0,0h0l0,0Zm0,0h-.05s0,0,0,0a0,0,0,0,0,0,0h.05a0,0,0,0,0,0,0s0,0,0,0Z"/><path class="cls-8" d="M12.56,7.3a0,0,0,0,1,0,0,0,0,0,1,1-.08,0,0,0,0,0,1,0,0Z"/><path class="cls-3" d="M12.56,7.29h0s0,0,0,0a0,0,0,0,1,0,0h-.07l0,0a.05.05,0,0,1,0,0h0Zm0,0h-.06s0,0,0,0v0h.06v0s0,0,0,0Z"/><path class="cls-8" d="M12.63,7.42s0,0,0,0a0,0,0,0,1,0,0,0,0,0,0,1,0,0,0,0,0,0,1,0,0Z"/><path class="cls-3" d="M12.63,7.41h0s0,0,0,0a0,0,0,0,1,0,0H12.6l0,0a.05.05,0,0,1,0,0h0Zm0,0h-.05a0,0,0,0,0,0,0s0,0,0,0h.05s0,0,0,0a0,0,0,0,0,0,0Z"/><path class="cls-8" d="M12.67,7.54a0,0,0,0,1,0,0,0,0,0,0,1,0,0,0,0,0,0,1-.05,0,0,0,0,0,1,.05,0Z"/><path class="cls-3" d="M12.67,7.54h0a.05.05,0,0,1,0,0l0,0h-.07a0,0,0,0,1,0,0s0,0,0,0h0Zm0,0h0a0,0,0,0,0,0,0v0h0v0a0,0,0,0,0,0,0Z"/><path class="cls-8" d="M12.66,7.68a0,0,0,0,1,0,.08,0,0,0,0,1,0-.08Z"/><path class="cls-3" d="M12.66,7.67h0s0,0,0,0,0,0,0,0l0,0,0,0h0s0,0,0,0a.08.08,0,0,1,0,0h0Zm0,0h0l0,0a0,0,0,0,0,0,0h0a0,0,0,0,0,0,0v0Z"/><path class="cls-8" d="M12.62,7.8a0,0,0,0,1,0,0,0,0,0,0,1,0,0s0,0,0,0a0,0,0,0,1,0,0Z"/><path class="cls-3" d="M12.62,7.8h0l0,0a.05.05,0,0,1,0,0h-.07s0,0,0,0,0,0,0,0h0Zm0,0s0,0,0,0h0v0h.05l0,0,0,0Z"/><path class="cls-9" d="M9.3,8.81H9.21v.08H9.3V8.81Zm1.46-.11h0V9h0V8.7Zm-.12,0h0V9h0V8.7Zm-.1,0h0V9h0V8.7Zm-.07,0h0V9h0V8.7Zm-.08,0h0V9h0V8.7Zm-.07,0h0V9h0V8.7Zm-.06,0h0V9h0V8.7Zm-.07,0h0V9h0V8.7Zm-.06,0h0V9h0V8.71Zm-.06,0h0V9h0V8.71Zm-.05,0h0V9h0V8.72Zm0,0h0V9h0V8.72Zm-.05,0h0V9h0V8.72Zm-.05,0h0V9h0V8.72Zm0,0h0V9h0V8.72Zm-.05,0h0V9h0V8.73Zm0,0h0V9h0V8.73Zm-.05,0h0V9h0V8.74Zm-.05,0h0V9h0V8.75Zm0,0h0V9h0V8.75Zm-.05,0h0v.18h0V8.76Zm0,0h0v.16h0V8.77Zm-.06,0h0v.12h0V8.79Zm-.05,0h0v.08h0V8.81Z"/><path class="cls-8" d="M12.56,7.91s0,0,0,0a0,0,0,0,1,0,0,0,0,0,0,1,0,0,0,0,0,0,1,0,0Z"/><path class="cls-3" d="M12.56,7.9h0s0,0,0,0a0,0,0,0,1,0,0h-.07l0,0a.05.05,0,0,1,0,0h0Zm0,0h-.05a0,0,0,0,0,0,0s0,0,0,0h0s0,0,0,0h0v0Z"/><path class="cls-10" d="M10.42,6.52a.18.18,0,0,1,.18.17.17.17,0,0,1-.18.16.17.17,0,0,1-.17-.16.18.18,0,0,1,.17-.17Z"/><path class="cls-3" d="M10.42,6.51a.16.16,0,0,1,.13.06.17.17,0,0,1,0,.12.18.18,0,0,1,0,.12.19.19,0,0,1-.13.05.18.18,0,0,1-.12-.05.16.16,0,0,1-.06-.12.14.14,0,0,1,.06-.12.16.16,0,0,1,.12-.06Zm.12.06a.16.16,0,0,0-.12,0,.15.15,0,0,0-.11,0,.17.17,0,0,0-.05.12.17.17,0,0,0,.16.16.17.17,0,0,0,.12,0,.16.16,0,0,0,.05-.11.17.17,0,0,0-.05-.12Z"/><path class="cls-11" d="M10.38,6.22h.1v.09h.09V6.4h-.09v.27h.12v0a.14.14,0,0,1,0,.06h-.31a.14.14,0,0,1,0-.06v0h.13V6.4h-.1V6.31h.1V6.22Z"/><path class="cls-11" d="M9.13,8.83A.23.23,0,0,0,9,8.55l.27-.07.36-.06.4,0h.76l.5.05.36.06.22.07a.27.27,0,0,0-.13.28l-.17,0-.43-.07-.54,0h-.53l-.4,0-.42.07-.11,0Z"/><path class="cls-3" d="M9.13,8.83A.23.23,0,0,0,9,8.56H9l.27-.07h0l.36-.06h0l.4-.05h.76l.5,0,.17,0,.19,0,.22.08h0a.26.26,0,0,0-.12.27h0l-.17,0h0l-.43-.08-.54,0h-.53l-.23,0-.17,0-.42.06-.1,0h0ZM9,8.56a.22.22,0,0,1,.13.26l.1,0h0l.42-.06.17,0,.23,0h.53l.55,0h0l.42.07h0l.17,0a.26.26,0,0,1,.12-.27l-.22-.07-.18,0-.17,0-.5,0H10l-.4,0-.36.06L9,8.56Z"/><path class="cls-3" d="M10.38,6.22h.1v.09h.1V6.4h-.1v.26h.12v0s0,0,0,0h-.33s0,0,0,0v0h.13V6.41h-.09V6.31h.09V6.22h0Zm.09,0h-.09v.08h-.09V6.4h.09v.27h-.12v0s0,0,0,0h.31s0,0,0,0v0h-.12V6.4h.09V6.32h-.09V6.23Z"/><path class="cls-12" d="M9,8.51a.08.08,0,0,0,0,0s0,0,0,0a5.68,5.68,0,0,1,1.5-.17,4.45,4.45,0,0,1,1.37.17s0,0,0,0,0,0,0,0a4.54,4.54,0,0,0-1.39-.17A5.79,5.79,0,0,0,9,8.51Z"/><path class="cls-3" d="M9,8.52H9v0H9a4.28,4.28,0,0,1,.66-.13,7.51,7.51,0,0,1,.84,0,6.74,6.74,0,0,1,.79,0,2.77,2.77,0,0,1,.58.13h0l0,0v0h0a2.73,2.73,0,0,0-.59-.13,6.87,6.87,0,0,0-.8-.05,7.62,7.62,0,0,0-.85.05A3.2,3.2,0,0,0,9,8.52Zm0,0,0,0a3.46,3.46,0,0,1,.67-.13,7.62,7.62,0,0,1,.85-.05,6.73,6.73,0,0,1,.8.05,2.73,2.73,0,0,1,.59.13s0,0,0,0v0l0,0h0a2.73,2.73,0,0,0-.59-.13,6.46,6.46,0,0,0-.78,0,7.51,7.51,0,0,0-.84,0A4.13,4.13,0,0,0,9,8.58H9l0,0a0,0,0,0,1,0,0Z"/><path class="cls-4" d="M9.24,8.18l.13-.06.06-.06V8a.42.42,0,0,0-.23-.06.15.15,0,0,0,0,.06.17.17,0,0,0-.12.08.24.24,0,0,0,.14,0v.06Z"/><path class="cls-3" d="M9.25,8.17l.12-.06.05,0V8A.42.42,0,0,0,9.2,8l0,0h0s-.05,0-.11.08a.17.17,0,0,0,.13,0h0a.07.07,0,0,0,0,.05Zm.12-.05a.36.36,0,0,1-.13.06h0a.06.06,0,0,1,0-.06.21.21,0,0,1-.15,0h0A.26.26,0,0,1,9.21,8a.06.06,0,0,1,0,0h0a.38.38,0,0,1,.23,0h0v.06h0a.15.15,0,0,1-.06.06Z"/><path class="cls-4" d="M9.76,8.1H9.62a.17.17,0,0,1-.08,0l0-.06a.48.48,0,0,1,.2-.13.18.18,0,0,1,0,.06.18.18,0,0,1,.14,0A.21.21,0,0,1,9.73,8l0,.06Z"/><path class="cls-3" d="M9.76,8.1H9.62l-.09,0h0V8h0a.38.38,0,0,1,.19-.13h0a.08.08,0,0,1,0,0,.26.26,0,0,1,.14,0h0A.22.22,0,0,1,9.74,8a.08.08,0,0,1,0,.05Zm-.14,0h.13l0,0h0A.38.38,0,0,0,9.85,8a.18.18,0,0,0-.14,0h0a.11.11,0,0,0,0,0A.51.51,0,0,0,9.53,8v.06l.08,0Z"/><path class="cls-4" d="M9.28,7.8A.46.46,0,0,0,9.45,8l.06,0a.35.35,0,0,0,.06-.24.15.15,0,0,0-.06,0s0-.06-.11-.13a.26.26,0,0,0,0,.16.14.14,0,0,0-.09,0Z"/><path class="cls-3" d="M9.29,7.8l.06.12A.24.24,0,0,0,9.46,8h0a.46.46,0,0,0,.05-.23l-.05,0h0v0s0,0-.09-.12a.3.3,0,0,0,0,.15v0h0a.15.15,0,0,0-.07,0Zm.05.13L9.28,7.8h0l.08,0a.21.21,0,0,1,0-.15h0c.07,0,.1.1.1.12a.15.15,0,0,1,.06,0h0c0,.19-.07.25-.07.25h0l0,0h0a.31.31,0,0,1-.11-.09Z"/><path class="cls-1" d="M9.48,7.94a.08.08,0,1,1,0,.16.08.08,0,1,1,0-.16Z"/><path class="cls-3" d="M9.48,7.93a.09.09,0,0,1,0,.18.09.09,0,0,1-.07,0,.08.08,0,0,1,0-.12.09.09,0,0,1,.07,0Zm0,0a.05.05,0,0,0,0,0L9.42,8a.07.07,0,0,0,0,.1l.06,0a.07.07,0,0,0,0-.13Z"/><path class="cls-4" d="M11.62,8.18l-.13-.06-.06-.06V8a.42.42,0,0,1,.23-.06.15.15,0,0,1,0,.06.17.17,0,0,1,.12.08.24.24,0,0,1-.14,0,.11.11,0,0,1,0,.06Z"/><path class="cls-3" d="M11.62,8.17l-.12-.06-.06,0V8a.42.42,0,0,1,.21,0l0,0h0s0,0,.12.08a.22.22,0,0,1-.14,0h0a.12.12,0,0,1,0,.05Zm-.13-.05a.61.61,0,0,0,.13.06h0V8.12a.18.18,0,0,0,.14,0h0A.25.25,0,0,0,11.66,8l0,0h0a.38.38,0,0,0-.23,0h0v.06h0a.15.15,0,0,0,.06.06Z"/><path class="cls-4" d="M11.11,8.1h.14a.17.17,0,0,0,.07,0l0-.06a.48.48,0,0,0-.19-.13.11.11,0,0,0,0,.06A.18.18,0,0,0,11,8a.21.21,0,0,0,.12.09.13.13,0,0,0,0,.06Z"/><path class="cls-3" d="M11.11,8.1h.14l.08,0h0V8h0a.38.38,0,0,0-.19-.13h0a.08.08,0,0,0,0,0A.26.26,0,0,0,11,8h0a.22.22,0,0,0,.12.08.08.08,0,0,0,0,.05h0Zm.13,0h-.13l0,0h0A.29.29,0,0,1,11,8a.15.15,0,0,1,.13,0h0a.11.11,0,0,1,0,0,.51.51,0,0,1,.18.12v.06l-.08,0Z"/><path class="cls-4" d="M11.58,7.8a.46.46,0,0,1-.17.22l-.06,0a.35.35,0,0,1-.06-.24.15.15,0,0,1,.06,0s0-.06.11-.13a.26.26,0,0,1,0,.16s.06,0,.09,0Z"/><path class="cls-3" d="M11.57,7.8l-.06.12a.28.28,0,0,1-.1.09h-.05a.33.33,0,0,1-.06-.23.07.07,0,0,1,0,0h0v0s0,0,.1-.12a.24.24,0,0,1,0,.15v0h0a.15.15,0,0,1,.07,0Zm-.05.13a.38.38,0,0,0,.06-.13h0l-.08,0a.21.21,0,0,0,0-.15h0a.26.26,0,0,0-.11.12.15.15,0,0,0-.06,0h0c0,.19.06.25.06.25h0l.06,0h0a.24.24,0,0,0,.11-.09Z"/><path class="cls-1" d="M11.38,7.94a.08.08,0,1,0,0,.16.08.08,0,1,0,0-.16Z"/><path class="cls-3" d="M11.38,7.93a.09.09,0,0,0-.06,0,.08.08,0,0,0,0,.12l.06,0a.09.09,0,0,0,.07,0,.07.07,0,0,0,0-.12.09.09,0,0,0-.07,0Zm-.05,0a.05.05,0,0,1,.05,0,.06.06,0,0,1,.06,0s0,0,0,0,0,0,0,.05a.06.06,0,0,1-.06,0,.05.05,0,0,1-.05,0s0,0,0-.05,0,0,0,0Z"/><path class="cls-12" d="M9.1,8.82s0,0,0,0l0,0a4.85,4.85,0,0,0,1.38.17,3.89,3.89,0,0,0,1.28-.17s0,0,0,0,0,0,0,0a4.17,4.17,0,0,0-1.28-.17,4.81,4.81,0,0,0-1.38.18Zm.11,0a5.18,5.18,0,0,1,1.27-.14,4.06,4.06,0,0,1,1.18.14A4.44,4.44,0,0,1,10.48,9a5.18,5.18,0,0,1-1.27-.14Z"/><path class="cls-3" d="M9.1,8.82h0v0h0A3.56,3.56,0,0,0,9.71,9a6.4,6.4,0,0,0,.77,0,5.64,5.64,0,0,0,.73,0,2.25,2.25,0,0,0,.54-.13h0v0h0a2.25,2.25,0,0,0-.54-.13,5.64,5.64,0,0,0-.73,0,6.36,6.36,0,0,0-.77,0,3.65,3.65,0,0,0-.61.12Zm0,0h0a3.56,3.56,0,0,1,.61-.13c.24,0,.51,0,.77,0a5.54,5.54,0,0,1,.73,0,2.47,2.47,0,0,1,.55.13h0v0h0a2.47,2.47,0,0,1-.55.13,5.54,5.54,0,0,1-.73,0,6.4,6.4,0,0,1-.77,0,2.81,2.81,0,0,1-.61-.13s0,0,0,0v0Zm.13,0a3.85,3.85,0,0,1,.58-.1,5.22,5.22,0,0,1,.69,0,4.83,4.83,0,0,1,.67,0,2.3,2.3,0,0,1,.51.1h0a3,3,0,0,1-.51.11c-.21,0-.44,0-.67,0S10,9,9.79,9a3.76,3.76,0,0,1-.58-.11h0Zm.58-.09a3.41,3.41,0,0,0-.55.1,3.5,3.5,0,0,0,.55.09,5.22,5.22,0,0,0,.69,0,4.59,4.59,0,0,0,.66,0,3,3,0,0,0,.5-.09,2.21,2.21,0,0,0-.5-.1,4.59,4.59,0,0,0-.66,0c-.23,0-.47,0-.69,0Z"/><path class="cls-9" d="M9.17,8.85h0s0,0,0,0Z"/><path class="cls-9" d="M11.7,8.85h0s0,0,0,0Z"/><path class="cls-8" d="M9.39,8.57a0,0,0,0,1,0,.08,0,0,0,1,1,0-.08Z"/><path class="cls-3" d="M9.39,8.56l0,0h0s0,0,0,0,0,0,0,0h0l0,0,0,0h0s0,0,0,0,0,0,0,0h0l0,0Zm0,0H9.36a0,0,0,0,0,0,.06h.05a.05.05,0,0,0,0-.06Z"/><path class="cls-8" d="M10.07,8.49a0,0,0,1,1,0,.08,0,0,0,0,1,0-.08Z"/><path class="cls-3" d="M10.07,8.48l0,0h0s0,0,0,0,0,0,0,0h0l0,0,0,0h0s0,0,0,0,0,0,0,0h0l0,0Zm0,0h0a0,0,0,0,0,0,.06h0a.05.05,0,0,0,0-.06Z"/><path class="cls-8" d="M10.78,8.49a0,0,0,1,1,0,.08,0,0,0,0,1,0-.08Z"/><path class="cls-3" d="M10.78,8.48l0,0h0s0,0,0,0,0,0,0,0h0l0,0,0,0h0s0,0,0,0,0,0,0,0h0l0,0Zm0,0h-.05l0,0,0,0h.05a.05.05,0,0,0,0-.06Z"/><path class="cls-8" d="M11.48,8.57a0,0,0,0,1,0,0,0,0,0,0,1,0,0s-.05,0-.05,0a0,0,0,0,1,.05,0Z"/><path class="cls-3" d="M11.48,8.56l0,0h0l0,0a.05.05,0,0,1,0,0h-.07s0,0,0,0a0,0,0,0,1,0,0h0l0,0Zm0,0,0,0,0,0s0,0,0,0a0,0,0,0,0,0,0h.05a0,0,0,0,0,0,0s0,0,0,0Z"/><path class="cls-13" d="M9.63,8.54a0,0,0,0,0,0,0s0,0,0,0l.21,0,0,0s0,0,0,0l-.21,0Z"/><path class="cls-3" d="M9.63,8.55h0s0,0,0,0h0l.21,0h0v0a0,0,0,0,0,0,0h0l-.21,0Zm0,0,0,0,.21,0h0v0s0,0,0,0l0,0-.21,0h0l0,0v0Z"/><path class="cls-13" d="M11.23,8.54s0,0,0,0,0,0,0,0l-.21,0a0,0,0,0,1,0,0s0,0,0,0l.2,0Z"/><path class="cls-3" d="M11.23,8.53s0,0,0,0a0,0,0,0,1,0,0v0h0l-.21,0,0,0a0,0,0,0,1,0,0l0,0h0l.2,0Zm0,0h0l-.2,0h0s0,0,0,0,0,0,0,0h0l.21,0h0v0Z"/><path class="cls-14" d="M10.28,8.49a0,0,0,0,0,0,0s0,0,0,0h.3s0,0,0,0a0,0,0,0,0,0,0Z"/><path class="cls-3" d="M10.28,8.5h0v0h.32s0,0,0,0v0h-.33Zm0,0h.36s0,0,0,0a0,0,0,0,1,0,0h-.36s0,0,0,0v0Z"/><polygon class="cls-1" points="9.09 8.63 9.23 8.64 9.13 8.72 9.04 8.69 9.09 8.63 9.09 8.63"/><path class="cls-3" d="M9.09,8.62h.15l-.1.08h0L9,8.69H9l.05-.06Zm.13,0H9.1l0,0,.08,0,.09-.07Z"/><polygon class="cls-1" points="11.78 8.63 11.64 8.64 11.74 8.72 11.83 8.69 11.78 8.63 11.78 8.63"/><path class="cls-3" d="M11.77,8.63h-.12l.09.07.08,0-.05,0Zm-.13,0h.14l.05.06h0l-.09,0h0l-.1-.08h0Z"/><path class="cls-1" d="M13,11.14,13,11s.06-.11.32-.11l0,.39L13,11.14Z"/><path class="cls-3" d="M13,11.14,13,11s.07-.1.3-.1l0,.36L13,11.14ZM12.94,11l.05.14h0l.25.13h0v-.39h0c-.27,0-.33.12-.33.12h0Z"/><path class="cls-1" d="M13.85,10.84a1,1,0,0,0,.26,0l.13.1,0,.11s0,.13-.35.13l0-.3Z"/><path class="cls-3" d="M13.85,10.85a1.09,1.09,0,0,0,.25,0l.13.09,0,.11h0s0,.12-.33.12l0-.28Zm.25,0a1.38,1.38,0,0,1-.26,0h0l0,.3h0c.34,0,.36-.12.36-.13h0l0-.11h0l-.14-.09h0Z"/><path class="cls-15" d="M14.19,13.23H14.1l-.13,0-.07,0h-.11l-.08,0-.08,0h-.08l-.11,0-.07,0-.1,0h0l-.09,0-.09,0-.07,0h-.05v.48H13l.08,0,.12,0h.09l.07,0,.11,0h.11l.1,0,.05,0,.08,0H14l0,0,.08,0h.08v-.48Z"/><path class="cls-16" d="M14.19,13.62a.58.58,0,0,1-.14,0,.42.42,0,0,0-.16,0h-.11l-.09,0-.13,0-.13,0a.42.42,0,0,0-.38,0h0l-.12,0v.09a.25.25,0,0,0,.15,0h0l.16,0,.15,0a.51.51,0,0,0,.17,0,.35.35,0,0,0,.17,0l.08,0h.07a.35.35,0,0,1,.14,0,.43.43,0,0,0,.17,0v-.09Z"/><path class="cls-3" d="M14.2,13.61a.34.34,0,0,1-.16,0l-.15,0h-.1l-.08,0a.21.21,0,0,1-.15,0l-.15,0a.41.41,0,0,0-.17,0l-.18,0h0a.35.35,0,0,1-.14,0h0a.22.22,0,0,0,.14,0h0a.45.45,0,0,1,.17,0l.17,0,.15,0,.15,0,.09,0a.13.13,0,0,1,.09,0,.35.35,0,0,1,.14,0,.43.43,0,0,0,.17,0Z"/><path class="cls-16" d="M14.19,13.43a.58.58,0,0,1-.14,0,.42.42,0,0,0-.16,0h-.11l-.09,0-.13,0a.31.31,0,0,1-.13,0,.42.42,0,0,0-.38,0h0l-.12,0v.1a.37.37,0,0,0,.15,0h0l.16,0,.15.05a.51.51,0,0,0,.17,0,.35.35,0,0,0,.17,0l.08,0h.07a.35.35,0,0,1,.14,0,.43.43,0,0,0,.17,0v-.1Z"/><path class="cls-3" d="M14.2,13.42a.34.34,0,0,1-.16,0l-.15,0h-.1l-.08,0a.21.21,0,0,1-.15,0l-.15,0a.41.41,0,0,0-.17,0l-.18,0h0a.35.35,0,0,1-.14,0h0a.32.32,0,0,0,.14,0h0a.45.45,0,0,1,.17,0l.17.05.15,0,.15,0,.09,0a.13.13,0,0,1,.09,0,.35.35,0,0,1,.14,0,.43.43,0,0,0,.17,0Z"/><path class="cls-3" d="M14.2,13.52a.34.34,0,0,1-.16,0l-.15,0h-.1l-.08,0-.15,0-.15,0a.41.41,0,0,0-.17,0,.45.45,0,0,0-.18,0h0a.7.7,0,0,1-.14,0h0a.32.32,0,0,0,.14,0h0a.45.45,0,0,1,.17,0,.51.51,0,0,1,.17,0l.15,0,.15,0,.09,0h.09a.37.37,0,0,1,.14,0,.74.74,0,0,0,.17,0Z"/><path class="cls-16" d="M14.19,13.23a.32.32,0,0,1-.14,0l-.16,0-.11,0-.09,0-.13,0a.31.31,0,0,1-.13,0,.42.42,0,0,0-.38,0h0l-.13,0v.1a.38.38,0,0,0,.16,0h0l.16,0a.37.37,0,0,1,.15,0l.17,0a.53.53,0,0,0,.17,0l.08,0h.07a.7.7,0,0,1,.14,0,.43.43,0,0,0,.17,0v-.1Z"/><path class="cls-3" d="M14.2,13.32a.57.57,0,0,1-.16,0,.42.42,0,0,0-.15,0h-.1l-.08,0a.28.28,0,0,1-.15,0l-.15,0a.45.45,0,0,0-.17-.05.49.49,0,0,0-.18,0h0a.35.35,0,0,1-.14,0v0a.58.58,0,0,0,.14,0h0a.4.4,0,0,1,.17,0,.45.45,0,0,1,.17,0l.15,0,.15,0a.32.32,0,0,1,.09,0h.09a.35.35,0,0,1,.14,0,.43.43,0,0,0,.17,0v0Z"/><path class="cls-9" d="M14.18,13.24v.47l-.14,0-.15,0h-.1l-.08,0-.15,0-.15,0a.41.41,0,0,0-.17,0,.45.45,0,0,0-.18,0h0l-.12,0v-.47l.12,0h0l.17,0a.45.45,0,0,1,.17,0l.15,0a.21.21,0,0,0,.15,0l.09,0h.09a.7.7,0,0,1,.14,0,.37.37,0,0,0,.15,0Zm0,.48h0v-.49a.57.57,0,0,1-.16,0,.42.42,0,0,0-.15,0h-.1l-.08,0a.39.39,0,0,1-.3,0,.45.45,0,0,0-.17,0,.49.49,0,0,0-.18,0h0a.28.28,0,0,1-.13,0h0v.47h0a.28.28,0,0,0,.13,0h0a.45.45,0,0,1,.17,0,.51.51,0,0,1,.17,0,.39.39,0,0,0,.3,0l.09,0h.09a.37.37,0,0,1,.14,0,.76.76,0,0,0,.16,0Z"/><path class="cls-3" d="M13.83,9l0-.1h0l0,0h0L14,8.84h0l0-.05h0s0-.09,0-.13a.3.3,0,0,0-.13-.05h-.06a.28.28,0,0,0-.22,0h-.07a.35.35,0,0,0-.22,0h-.06s-.18,0-.14.17h0l.08.07h0l.06.05,0,.07V9h0l.15,0h.33l.08,0Zm0-.1,0,.1h-.41l-.14,0h0l0-.07h0l-.07-.05-.07-.07c0-.13.12-.17.13-.17h.06a.41.41,0,0,1,.22,0h.07a.35.35,0,0,1,.22,0h.06a.34.34,0,0,1,.12.05s0,.11,0,.12l0,0-.06.05,0,0h0Z"/><path class="cls-1" d="M13.83,9l0-.1h0l0,0L14,8.84l0-.05a.11.11,0,0,0,0-.13.22.22,0,0,0-.12,0l-.06,0a.32.32,0,0,0-.22,0h-.07a.36.36,0,0,0-.22,0h-.06s-.17,0-.13.17l.07.07.07.06,0,.07,0,0,.15,0h.33l.08,0Z"/><path class="cls-11" d="M13.55,8.53s-.05,0-.05.1,0,.1.05.1.06,0,.06-.1,0-.1-.06-.1Z"/><path class="cls-3" d="M13.55,8.53l0,0s0,0,0,.07,0,.06,0,.08l0,0s0,0,0,0a.19.19,0,0,0,0-.08.14.14,0,0,0,0-.07s0,0,0,0Zm0,0s0,0,0,0,0,0,0,0a.25.25,0,0,1,0,.14s0,0,0,0,0,0,0,0a.13.13,0,0,1,0-.14Z"/><path class="cls-11" d="M13.55,8.53s0,0,0,.1,0,.1,0,.1,0,0,0-.1,0-.1,0-.1Z"/><path class="cls-3" d="M13.55,8.53a0,0,0,0,0,0,0,.15.15,0,0,0,0,.07s0,.06,0,.07a.1.1,0,0,0,0,0s0,0,0,0,0,0,0-.07a.15.15,0,0,0,0-.07s0,0,0,0Zm0,0a0,0,0,0,1,0,0s0,0,0,0,0,0,0,.07a.56.56,0,0,1,0,.07s0,0,0,0a0,0,0,0,1,0,0,.56.56,0,0,1,0-.07s0-.05,0-.07Z"/><path class="cls-3" d="M13.85,8.94l0,0h0l0,0h0l0,0,0,0,0-.11a.81.81,0,0,1,.09-.1h0s0-.08-.1,0l-.08.06a.43.43,0,0,0-.07.07l-.05,0H13.5s-.13-.14-.18-.17l-.08,0s0,0,0,0h0a.06.06,0,0,1,.06,0l.06.07,0,.08v0l0,0h-.07l0,0h0l0,0h.6Zm0,0,0,0h-.59l0,0,0,0h0l.05,0h0l0,0h0v0h0l0-.08h0l-.07-.07a.05.05,0,0,0,0,0l0,0,.07,0a1,1,0,0,1,.18.17h.13l.05,0,.06-.07.08-.06c.06,0,.08,0,.08,0h0a.73.73,0,0,0-.09.11h0l0,.1h0v0h.08l0,0Z"/><path class="cls-11" d="M13.86,8.92l0,0-.05,0h0l0,0v0l0-.11s.06-.1.09-.1h0s0-.07-.09,0a.52.52,0,0,0-.15.13l0,0H13.5a1,1,0,0,0-.18-.17c-.06,0-.1,0-.12,0a.06.06,0,0,1,.06,0l.06.07,0,.08v.06h-.08l0,0,0,0Z"/><path class="cls-11" d="M13.88,8.91a.19.19,0,0,0,0,.1l-.09,0h-.48s0,0,0-.1h.52l.09,0Z"/><path class="cls-3" d="M13.87,8.91a.41.41,0,0,0,0,.1l-.08,0h-.37l-.07,0h-.05a.12.12,0,0,0,0-.09l.06,0h.46l.09,0h0Zm0,.1a.37.37,0,0,1,0-.1h-.65a.16.16,0,0,1,0,.09h0l.05,0h.43l.09,0Z"/><path class="cls-12" d="M13.88,8.91h0a1.76,1.76,0,0,0-.34,0l-.31,0h0a1,1,0,0,1,.31,0,1.22,1.22,0,0,1,.34,0Z"/><path class="cls-3" d="M13.88,8.91h0l-.17,0h-.33l-.15,0h0l.15,0h.34l.16,0Zm0,0h0a.9.9,0,0,0-.16,0h-.34l-.15,0h0l.15,0h.33l.16,0h0Z"/><path class="cls-12" d="M13.85,9s0,0,0,0a1.46,1.46,0,0,1-.31,0,1.17,1.17,0,0,1-.27,0s0,0,0,0a.8.8,0,0,1,.27,0,1,1,0,0,1,.31,0Zm0,0a1.36,1.36,0,0,0-.29,0,1,1,0,0,0-.25,0,1,1,0,0,0,.25,0,1.36,1.36,0,0,0,.29,0Z"/><path class="cls-3" d="M13.85,9h0l-.15,0h-.3l-.13,0h0l.13,0h.3l.15,0Zm0,0h0L13.7,9h-.3a.28.28,0,0,0-.13,0h0l.13,0h.3l.15,0h0Zm0,0-.14,0h-.28l-.12,0h0l.12,0h.28l.14,0Zm-.14,0,.13,0-.13,0h-.28L13.3,9l.11,0h.28Z"/><polygon class="cls-14" points="13.6 8.92 13.6 8.93 13.6 8.93 13.51 8.93 13.5 8.93 13.51 8.92 13.6 8.92 13.6 8.92"/><polygon class="cls-17" points="13.79 8.94 13.79 8.95 13.79 8.95 13.73 8.94 13.72 8.93 13.73 8.93 13.79 8.94 13.79 8.94"/><path class="cls-3" d="M13.79,8.94Zm0,0h0Z"/><polygon class="cls-17" points="13.32 8.94 13.32 8.95 13.32 8.95 13.38 8.94 13.39 8.93 13.38 8.93 13.32 8.94 13.32 8.94"/><path class="cls-3" d="M13.32,8.94Zm0,0Z"/><path class="cls-8" d="M13.66,8.92h0Z"/><path class="cls-3" d="M13.66,8.92h0Zm0,0Z"/><path class="cls-8" d="M13.45,8.92h0Z"/><path class="cls-3" d="M13.45,8.92h0Zm0,0Z"/><polygon class="cls-1" points="13.86 8.95 13.83 8.95 13.85 8.98 13.87 8.97 13.86 8.95 13.86 8.95"/><path class="cls-3" d="M13.86,9h0V9h0V9Zm0,0h0V9h0l0,0Z"/><polygon class="cls-1" points="13.25 8.95 13.28 8.95 13.26 8.98 13.24 8.97 13.25 8.95 13.25 8.95"/><path class="cls-3" d="M13.25,9h0l0,0h0V9Zm0,0h0V9h0l0,0Z"/><path class="cls-3" d="M13.6,8.92Zm0,0Z"/><path class="cls-3" d="M14,8.84h0s-.06.05-.09,0h0a0,0,0,0,0,0,0h0a0,0,0,0,1,0,0s0,0,0,0h0l0,0H13.6l0,0v0h0l0,0,0,0h-.15v0h0v0l0,0h-.06l0,0-.08,0h0s.07.05.08,0a0,0,0,0,0,0,0h0s.06,0,.07,0a.1.1,0,0,0,0,0h0s.05,0,.07,0l0,0h0l0,0h0s0,0,0,0h0a.05.05,0,0,0,0,0l0,0h0s.05,0,.07,0l0,0h0s0,.06.05.06h0l0,0h0l.05,0Zm-.42-.06h0v0s0,0,0,0l0,0h0s.05,0,.06,0l0,0h0s0,0,0,0h.1l.05,0h0s-.06.06-.09.05l0,0H13.8a0,0,0,0,1,0,0h0l0,0h0l0,0H13.6s0,0,0,0h0v0H13.4a0,0,0,0,1,0,0h0s0,0,0,0h-.07s0,0,0,0l-.06,0,0,0h0l0,0,0,0s0,0,0,0h0s.06,0,.06,0a0,0,0,0,0,0,0h0s0,0,.06,0l0,0h.08l0,0s0,0,0,0Z"/><path class="cls-12" d="M14,8.84h0s-.06.06-.09,0,0,0,0,0-.08,0-.09,0-.06.06-.11,0a.06.06,0,0,1-.1,0,.06.06,0,0,1-.1,0,.06.06,0,0,1-.1,0s0,.06-.09,0,0,.05-.08,0l0,0h0l0,0a0,0,0,0,0,.06,0h0c.08,0,.07,0,.07,0h0c.05.09.1,0,.11,0h0s.07,0,.08,0a0,0,0,0,0,0,0h0v0a.06.06,0,0,0,.09,0h0c.05.06.09,0,.1,0h0c0,.09.07,0,.08,0h0l0,0s.08,0,.08,0Z"/><path class="cls-3" d="M14,8.84l0,0h0s0,0,0,0,0,0,0,0h0v0h0Zm0,0,0,0h0v0h0l0,0Z"/><path class="cls-4" d="M14,8.84l0,0s0,0,0,0l0,0v0Z"/><path class="cls-3" d="M14,8.84h0l0,0h0Zm0,0h0l0,0h0v0h0Z"/><path class="cls-4" d="M14,8.84h-.05s0,0,0,0a0,0,0,0,1,0,0l0,0h0Z"/><path class="cls-3" d="M13.76,8.77v0h0s0,0,0,0h0l0,0Zm0,0v0h0l0,0h0v0h-.05v0Z"/><path class="cls-4" d="M13.76,8.78v0s0,0,0,0l0,0,0,0Z"/><path class="cls-3" d="M13.77,8.8l0,0h0v0s0,0-.07,0h0v0Zm0,0s0,0,0,0h0s0,0,.05,0h0Z"/><path class="cls-4" d="M13.78,8.8h0s0,0,0,0,0,0-.06,0v0Z"/><path class="cls-3" d="M13.76,8.79H13.7s0,0,.05,0h0Zm0,0h0s0,0-.06,0h0v0h0Z"/><path class="cls-4" d="M13.76,8.79h0s-.05,0,0,0,.05,0,.06,0Z"/><path class="cls-3" d="M13.77,8.77h0v0h0a0,0,0,0,0,0,0v0Zm0,0Z"/><path class="cls-4" d="M13.77,8.77l0,0a0,0,0,0,0,0,0s0,0,0,0,0,0,0,0Z"/><path class="cls-3" d="M14,8.83h0Zm0,0Z"/><path class="cls-4" d="M14,8.83h0v0h0s0,0,0,0Z"/><path class="cls-3" d="M13.13,8.83l-.05,0s0,0,0,0l0,0h0v0Zm-.05,0,0,0h0v0h0s0,0,0,0,0,0,0,0h0Z"/><path class="cls-4" d="M13.13,8.84l-.05,0s0,0,0,0l0,0v0Z"/><path class="cls-3" d="M13.35,8.78s0,0,0,0h0v0h0s0,0,0,0h0Zm0,0v0h0l0,0h0Z"/><path class="cls-4" d="M13.34,8.78v0s0,0,0,0,0,0,0,0l0,0Z"/><path class="cls-3" d="M13.32,8.79a0,0,0,0,1,0,0h0s0,0,.06,0Zm0,0,0,0h0s-.05,0-.06,0,0,0,0,0h0Z"/><path class="cls-4" d="M13.33,8.8h0s-.05,0,0,0,.05,0,.07,0Z"/><path class="cls-3" d="M13.34,8.8h.07v0h0s-.05,0-.07,0h0v0Zm0,0h0s0,0,.05,0h0Z"/><path class="cls-4" d="M13.34,8.79h0s0,0,0,0,0,0-.06,0Z"/><path class="cls-3" d="M13.34,8.78h0Zm0,0h0v0h0s0,0,0,0Z"/><path class="cls-4" d="M13.34,8.77s0,0,0,0,0,0,0,0a0,0,0,0,1,0,0l0,0Z"/><path class="cls-3" d="M13.57,8.76s0,0,0-.06h-.05v0s0,0,0,0h0Zm0,0s0,0,0,0h0a0,0,0,0,1,0,0s0,0,0,0h0Z"/><path class="cls-4" d="M13.56,8.76s0,0,0-.06h-.05s0,.05,0,.06Z"/><path class="cls-3" d="M13.56,8.78s0,0,.06,0l0,0h-.08s0,0,0,0Zm.06,0s0,0-.06,0h.06Z"/><path class="cls-4" d="M13.56,8.77s0,0,.06,0,0,0,0,0h-.06Z"/><path class="cls-3" d="M13.54,8.76s0,0,0,0h0v0h.07Zm0,0h0Z"/><path class="cls-4" d="M13.54,8.76s0,0,0,0,0,0,0,0,0,0,.07,0Z"/><path class="cls-3" d="M13.55,8.75h0v0h.05v0Zm0,0Z"/><path class="cls-4" d="M13.55,8.75s0,0,0,0h0l0,0Z"/><path class="cls-3" d="M13.15,8.84h0l0,0h0Zm0,0h0l0,0h0s0,0,0,0h0v0h0Z"/><path class="cls-4" d="M13.15,8.84h0s0,0,0,0a0,0,0,0,0,0,0l0,0h0Z"/><path class="cls-3" d="M13.13,8.83Zm0,0h0s0,0,0,0h0Z"/><path class="cls-4" d="M13.12,8.83h0v0h0s0,0,0,0Z"/><path class="cls-3" d="M13.9,8.62a.06.06,0,0,0-.07,0s-.05,0-.08.06l-.05.07h0a.19.19,0,0,1,.06-.07l.07-.07a.06.06,0,0,1,.07,0Z"/><path class="cls-3" d="M13.2,8.62s0,0,.08,0l.07.06.05.06h0l-.06-.06-.07-.06a.06.06,0,0,0-.07,0Z"/><path class="cls-3" d="M13.55,8.48h0v0s0,0,0,0h.06a.05.05,0,0,0,0-.06h0Zm0,0h.05v0h-.05s0,0,0,0,0,0,0,0Z"/><path class="cls-11" d="M13.55,8.49a0,0,0,0,0,0,0s0,0,0,0a0,0,0,0,0,0,0s0,0,0,0Z"/><path class="cls-3" d="M13.61,8.53v0h0v0h0v0h0v0h0v0h0v0h0v0h0v0h.11Zm0,0h0V8.45h0v.06h0Z"/><polygon class="cls-11" points="13.61 8.53 13.61 8.51 13.56 8.51 13.56 8.45 13.59 8.45 13.59 8.43 13.56 8.43 13.56 8.41 13.54 8.41 13.54 8.43 13.52 8.43 13.52 8.45 13.54 8.45 13.54 8.51 13.5 8.51 13.5 8.53 13.54 8.53 13.56 8.53 13.61 8.53 13.61 8.53"/><path class="cls-11" d="M13.9,9.45h-.69a.09.09,0,0,0,0-.12h.69a.09.09,0,0,0,0,.12Z"/><path class="cls-3" d="M13.89,9.45h-.68a.07.07,0,0,0,0-.06s0,0,0-.05h.68a.08.08,0,0,0,0,.05.14.14,0,0,0,0,.06Zm-.28,0h.3a.07.07,0,0,1,0-.12H13.2s0,0,0,.06a.07.07,0,0,1,0,.06h.41Z"/><polygon class="cls-11" points="14.01 9.06 13.09 9.06 13.09 9.29 14.01 9.29 14.01 9.06 14.01 9.06"/><path class="cls-3" d="M14,9.06h-.93v.23H14V9.06h0Zm-.92,0H14v.23h-.92V9.06Z"/><path class="cls-11" d="M13.91,9.29H13.2a0,0,0,0,0,0,0h0a0,0,0,0,0,0,0h.71a0,0,0,0,0,0,0h0a0,0,0,0,0,0,0Z"/><path class="cls-3" d="M13.91,9.29h-.74v0h.76s0,0,0,0,0,0,0,0,0,0,0,0Zm-.71,0h.73v0h-.75v0h0Z"/><path class="cls-11" d="M13.91,9.44H13.2a0,0,0,0,0,0,0h0a0,0,0,0,0,0,0h.71a0,0,0,0,0,0,0h0a0,0,0,0,0,0,0Z"/><path class="cls-3" d="M13.91,9.44h-.74v0h.76s0,0,0,0,0,0,0,0Zm-.71,0h.73s0,0,0,0v0h-.75v0h0Z"/><polygon class="cls-15" points="13.89 9.55 13.21 9.55 13.21 12.72 13.89 12.72 13.89 9.55 13.89 9.55"/><polygon class="cls-15" points="13.89 9.55 13.33 9.55 13.33 12.72 13.89 12.72 13.89 9.55 13.89 9.55"/><polygon class="cls-15" points="13.89 9.55 13.4 9.55 13.4 12.72 13.89 12.72 13.89 9.55 13.89 9.55"/><path class="cls-3" d="M13.89,9.54H13.2v3.17h.7V9.55h0Zm-.68,0h.68v3.17h-.68V9.55Z"/><path class="cls-3" d="M13.89,9.54h-.56v3.17h.57V9.55h0Zm-.55,0h.55v3.17h-.55V9.55Z"/><path class="cls-3" d="M13.89,9.54H13.4v3.17h.5V9.55h0Zm-.48,0h.48v3.17h-.48V9.55Z"/><path class="cls-11" d="M14,13h-.91a.13.13,0,0,0,.1-.13h.72A.11.11,0,0,0,14,13Z"/><path class="cls-3" d="M14,13h-.86a.1.1,0,0,0,.05,0,.08.08,0,0,0,0-.08h.71a.19.19,0,0,0,0,.08L14,13Zm-.89,0H14s-.06,0-.07,0a.11.11,0,0,1,0-.08h-.72a.19.19,0,0,1,0,.08l-.08,0h0Z"/><polygon class="cls-11" points="14.03 13.19 13.06 13.19 13.06 12.96 14.03 12.96 14.03 13.19 14.03 13.19"/><path class="cls-3" d="M14,13.18h-1V13h1v.22Zm-1,0h1V13h-1v.23Z"/><path class="cls-12" d="M13.19,12.77h.75a0,0,0,0,1,0,0h0v0h-.77v0h0a0,0,0,0,1,0,0Z"/><path class="cls-3" d="M13.19,12.77h0Zm.73,0h0Z"/><path class="cls-1" d="M14.25,12.06a.27.27,0,0,1-.08.09.17.17,0,0,0-.08.15.2.2,0,0,1-.08-.2.35.35,0,0,1,.11-.17l.12.07v.06Z"/><path class="cls-3" d="M14.24,12.06l-.08.09a.28.28,0,0,0-.07.09v0A.2.2,0,0,1,14,12.1a.28.28,0,0,1,.1-.16l.11.06v.06Zm-.07.1c.08-.07.09-.1.09-.1h0l0-.06h0l-.12-.07h0a.35.35,0,0,0-.11.18.23.23,0,0,0,.09.21h0v0a.18.18,0,0,1,0-.06l.06-.08Z"/><path class="cls-1" d="M12.91,11.33a1.58,1.58,0,0,0,.6.38c.17.07.37.12.53.2a.54.54,0,0,1,.21.15l.06-.33a.33.33,0,0,0-.14-.1,8,8,0,0,1-1-.47A.59.59,0,0,1,13,11l0,.33Z"/><path class="cls-3" d="M12.9,11.34a1.18,1.18,0,0,0,.28.22l.33.16.24.09a1.45,1.45,0,0,1,.29.11l.12.07.08.07v0l.06-.33h0l-.06-.06-.09-.05-.4-.17a2.79,2.79,0,0,1-.63-.3L13,11.07,13,11h0l0,.33Zm.29.2a1.15,1.15,0,0,1-.27-.21l0-.3,0,.05.12.09a2.66,2.66,0,0,0,.64.3,3.42,3.42,0,0,1,.4.17l.08,0,.06,0-.07.31L14.17,12a.62.62,0,0,0-.12-.08l-.3-.11-.24-.09a3.18,3.18,0,0,1-.32-.16Z"/><path class="cls-1" d="M12.49,10.36a2.54,2.54,0,0,1,1.61.05.52.52,0,0,1,.28.24l-.16.36c0-.24-.61-.36-.86-.37a2.24,2.24,0,0,0-.87.11v-.39Z"/><path class="cls-3" d="M12.5,10.36a1.77,1.77,0,0,1,.74-.1,2.47,2.47,0,0,1,.85.16.77.77,0,0,1,.18.1.27.27,0,0,1,.1.13l-.14.33c0-.11-.16-.19-.32-.24a2.09,2.09,0,0,0-.53-.11h0a3.38,3.38,0,0,0-.45,0,2.46,2.46,0,0,0-.41.1v-.38Zm.74-.11a1.89,1.89,0,0,0-.76.1h0v.39h0a1.84,1.84,0,0,1,.42-.1,2.26,2.26,0,0,1,.45,0h0a2.56,2.56,0,0,1,.52.11c.18.06.32.15.31.26h0v.05l0-.05.16-.35h0a.4.4,0,0,0-.11-.14.77.77,0,0,0-.18-.1,2.49,2.49,0,0,0-.86-.16Z"/><path class="cls-1" d="M7.88,11.14l0-.14s0-.11-.31-.11v.39l.26-.14Z"/><path class="cls-3" d="M7.87,11.14s0-.12,0-.14-.07-.1-.29-.1v.36l.24-.12ZM7.93,11a1.21,1.21,0,0,1,0,.14h0l-.26.13h0v-.39h0c.26,0,.32.12.32.12h0Z"/><path class="cls-1" d="M7,10.84a1,1,0,0,1-.26,0l-.14.1,0,.11s0,.13.36.13l0-.3Z"/><path class="cls-3" d="M7,10.85a1.09,1.09,0,0,1-.25,0l-.13.09,0,.11h0s0,.12.34.12l0-.28Zm-.25,0a1.48,1.48,0,0,0,.26,0H7l0,.3H7c-.35,0-.37-.12-.37-.13h0V10.9h0l.13-.09h0Z"/><path class="cls-15" d="M6.69,13.23h.08l.13,0,.07,0h.11l.08,0,.08,0h.08l.11,0,.07,0,.1,0h.06l.08,0,.1,0,.06,0H8v.48h-.1l-.08,0-.12,0H7.57l-.06,0-.12,0H7.28l-.09,0-.06,0-.08,0H6.89l0,0-.08,0H6.69v-.48Z"/><path class="cls-16" d="M6.68,13.62a.49.49,0,0,0,.14,0,.43.43,0,0,1,.17,0h.1l.1,0,.12,0a.7.7,0,0,0,.14,0,.49.49,0,0,1,.18,0,.5.5,0,0,1,.19,0h0a.23.23,0,0,0,.11,0v.09a.24.24,0,0,1-.15,0h0a.41.41,0,0,0-.16,0l-.15,0a.47.47,0,0,1-.17,0,.38.38,0,0,1-.17,0l-.07,0H7a.28.28,0,0,0-.13,0,.48.48,0,0,1-.18,0v-.09Z"/><path class="cls-3" d="M6.68,13.61a.42.42,0,0,0,.16,0,.66.66,0,0,1,.15,0h.09l.09,0a.19.19,0,0,0,.14,0l.15,0a.45.45,0,0,1,.17,0l.18,0h0a.28.28,0,0,0,.13,0H8a.24.24,0,0,1-.14,0h0a.41.41,0,0,0-.17,0l-.16,0a.41.41,0,0,1-.16,0l-.15,0a.13.13,0,0,0-.08,0,.14.14,0,0,0-.09,0,.37.37,0,0,0-.15,0,.41.41,0,0,1-.16,0Z"/><path class="cls-16" d="M6.68,13.43a.49.49,0,0,0,.14,0,.43.43,0,0,1,.17,0h.1l.1,0,.12,0a.35.35,0,0,0,.14,0,.49.49,0,0,1,.18-.05.5.5,0,0,1,.19,0h0a.24.24,0,0,0,.12,0v.1a.33.33,0,0,1-.15,0h0a.41.41,0,0,0-.16,0l-.15.05a.47.47,0,0,1-.17,0,.38.38,0,0,1-.17,0l-.07,0H7a.28.28,0,0,0-.13,0,.48.48,0,0,1-.18,0v-.1Z"/><path class="cls-3" d="M6.68,13.42a.42.42,0,0,0,.16,0,.66.66,0,0,1,.15,0h.09l.09,0a.19.19,0,0,0,.14,0l.15,0a.45.45,0,0,1,.17,0l.18,0h0a.28.28,0,0,0,.13,0H8a.35.35,0,0,1-.14,0h0a.41.41,0,0,0-.17,0l-.16.05a.41.41,0,0,1-.16,0l-.15,0a.13.13,0,0,0-.08,0,.14.14,0,0,0-.09,0,.37.37,0,0,0-.15,0,.41.41,0,0,1-.16,0Z"/><path class="cls-3" d="M6.68,13.52a.42.42,0,0,0,.16,0,.37.37,0,0,1,.15,0h.09l.09,0,.14,0,.15,0a.45.45,0,0,1,.35,0h0a.5.5,0,0,0,.13,0H8a.35.35,0,0,1-.14,0h0a.41.41,0,0,0-.17,0,.47.47,0,0,0-.16,0,.41.41,0,0,1-.16,0l-.15,0-.08,0H7a.37.37,0,0,0-.15,0,.76.76,0,0,1-.16,0Z"/><path class="cls-16" d="M6.68,13.23a.29.29,0,0,0,.14,0l.17,0,.1,0,.1,0,.12,0a.35.35,0,0,0,.14,0,.49.49,0,0,1,.18-.05.5.5,0,0,1,.19,0h0l.12,0v.1a.37.37,0,0,1-.15,0h0l-.16,0a.37.37,0,0,0-.15,0l-.17,0a.59.59,0,0,1-.17,0l-.07,0H7a.5.5,0,0,0-.13,0,.48.48,0,0,1-.18,0v-.1Z"/><path class="cls-3" d="M6.68,13.32a.76.76,0,0,0,.16,0,.37.37,0,0,1,.15,0h.09l.09,0a.27.27,0,0,0,.14,0l.15,0a.51.51,0,0,1,.17-.05.49.49,0,0,1,.18,0h0a.28.28,0,0,0,.13,0v0a.7.7,0,0,1-.14,0h0a.38.38,0,0,0-.17,0,.41.41,0,0,0-.16,0,.41.41,0,0,1-.16,0l-.15,0s0,0-.08,0H7a.37.37,0,0,0-.15,0,.42.42,0,0,1-.16,0v0Z"/><path class="cls-9" d="M6.7,13.24v.47l.14,0a.37.37,0,0,1,.15,0h.09l.09,0,.14,0,.15,0a.45.45,0,0,1,.35,0h0l.12,0v-.47a.5.5,0,0,1-.13,0h0l-.17,0a.41.41,0,0,0-.16,0,.41.41,0,0,1-.16,0,.21.21,0,0,1-.15,0l-.08,0H7a.66.66,0,0,0-.15,0,.33.33,0,0,1-.14,0Zm0,.48h0v-.49a.76.76,0,0,0,.16,0,.37.37,0,0,1,.15,0h.09l.09,0,.14,0a.4.4,0,0,0,.15,0,.51.51,0,0,1,.17,0,.49.49,0,0,1,.18,0h0a.27.27,0,0,0,.12,0H8v.47H8a.31.31,0,0,1-.13,0h0a.41.41,0,0,0-.17,0,.47.47,0,0,0-.16,0,.41.41,0,0,1-.16,0,.4.4,0,0,1-.15,0l-.08,0H7a.37.37,0,0,0-.15,0l-.15,0Z"/><path class="cls-3" d="M7,9l0-.1H7l0,0H7L6.9,8.84h0l0-.05h0s0-.09,0-.13A.28.28,0,0,1,7,8.61h.06a.29.29,0,0,1,.22,0h.07a.38.38,0,0,1,.23,0h.06s.17,0,.13.17h0l-.08.07h0l-.06.05,0,.07V9h0l-.15,0H7.12L7,9Zm0-.1,0,.1h.4l.14,0h0l0-.07h0l.07-.05.07-.07c0-.13-.12-.17-.13-.17H7.57a.4.4,0,0,0-.22,0H7.28a.31.31,0,0,0-.21,0H7a.34.34,0,0,0-.12.05s0,.11,0,.12l0,0L7,8.88l0,0H7Z"/><path class="cls-1" d="M7,9l0-.1H7l0,0L6.9,8.84l0-.05a.11.11,0,0,1,0-.13.24.24,0,0,1,.12,0l.06,0a.32.32,0,0,1,.22,0h.07a.39.39,0,0,1,.23,0h.06s.17,0,.13.17l-.08.07-.07.06,0,.07,0,0-.15,0H7.12L7,9Z"/><path class="cls-11" d="M7.32,8.53s0,0,0,.1,0,.1,0,.1-.05,0-.05-.1,0-.1.05-.1Z"/><path class="cls-3" d="M7.32,8.53s0,0,0,0a.15.15,0,0,1,0,.07.19.19,0,0,1,0,.08s0,0,0,0,0,0,0,0a.19.19,0,0,1,0-.08.14.14,0,0,1,0-.07s0,0,0,0Zm0,0a0,0,0,0,0,0,0,.05.05,0,0,0,0,0s0,0,0,.07,0,0,0,.07a.05.05,0,0,0,0,0,0,0,0,0,0,0,0,.13.13,0,0,0,0-.14Z"/><path class="cls-11" d="M7.32,8.53s0,0,0,.1,0,.1,0,.1,0,0,0-.1,0-.1,0-.1Z"/><path class="cls-3" d="M7.32,8.53s0,0,0,0,0,0,0,.07a.56.56,0,0,1,0,.07s0,0,0,0,0,0,0,0a.56.56,0,0,1,0-.07s0-.05,0-.07,0,0,0,0Zm0,0s0,0,0,0,0,0,0,0V8.7s0,0,0,0,0,0,0,0V8.56Z"/><path class="cls-3" d="M7,8.94l0,0H7l0,0h.05l0,0v0l0-.11A.35.35,0,0,0,7,8.62H7s0-.08.1,0l.08.06.06.07,0,0h.12a1,1,0,0,1,.18-.17l.07,0s0,0,0,0h0s0,0,0,0l-.07.07,0,.08v0l0,0h.07l0,0h0l0,0H7Zm0,0,0,0h.59l0,0,0,0h0l0,0h0l0,0h0v0h0l0-.08h0l.06-.07a.05.05,0,0,1,0,0,0,0,0,0,0,0,0l-.07,0a1,1,0,0,0-.18.17H7.25l0,0-.07-.07L7.06,8.6c-.06,0-.08,0-.08,0H7a.73.73,0,0,1,.09.11h0l0,.1h0v0H7l0,0Z"/><path class="cls-11" d="M7,8.92l0,0,0,0h.05l0,0v0l0-.11S7,8.62,7,8.62H7s0-.07.09,0a.41.41,0,0,1,.15.13l0,0h.12s.12-.15.18-.17.09,0,.11,0,0,0-.06,0l-.06.07,0,.08v0l0,0h.07l0,0,0,0Z"/><path class="cls-11" d="M7,8.91A.23.23,0,0,1,7,9l.09,0h.49a.14.14,0,0,1,0-.1H7.12L7,8.91Z"/><path class="cls-3" d="M7,8.91A.2.2,0,0,1,7,9l.09,0h.36l.07,0h0a.12.12,0,0,1,0-.09l-.06,0H7.12L7,8.91H7ZM7,9a.23.23,0,0,0,0-.1h.64a.11.11,0,0,0,0,.09h0l0,0H7.12L7,9Z"/><path class="cls-12" d="M7,8.91H7a1.66,1.66,0,0,1,.33,0l.31,0h0a1.12,1.12,0,0,0-.32,0,1.15,1.15,0,0,0-.33,0Z"/><path class="cls-3" d="M7,8.91H7l.16,0H7.5l.14,0h0l-.14,0H7.16L7,8.91Zm0,0H7a.76.76,0,0,1,.16,0H7.5l.15,0h0l-.14,0H7.16L7,8.92H7Z"/><path class="cls-12" d="M7,9S7,9,7,9a1.36,1.36,0,0,0,.3,0,1.26,1.26,0,0,0,.28,0s0,0,0,0a.86.86,0,0,0-.28,0A1,1,0,0,0,7,9Zm0,0a1.2,1.2,0,0,1,.28,0,1,1,0,0,1,.25,0,1,1,0,0,1-.25,0,1.2,1.2,0,0,1-.28,0Z"/><path class="cls-3" d="M7,9H7l.14,0h.31l.13,0h0L7.48,9H7.17L7,9ZM7,9H7l.14,0h.31a.31.31,0,0,1,.13,0h0l-.13,0H7.17L7,9H7Zm0,0,.13,0h.28l.13,0h0L7.46,9H7.18L7.05,9h0Zm.14,0L7.06,9l.13,0h.27l.12,0L7.46,9H7.19Z"/><polygon class="cls-14" points="7.28 8.92 7.27 8.93 7.28 8.93 7.37 8.93 7.37 8.93 7.37 8.92 7.28 8.92 7.28 8.92"/><polygon class="cls-17" points="7.08 8.94 7.08 8.95 7.09 8.95 7.15 8.94 7.15 8.93 7.14 8.93 7.08 8.94 7.08 8.94"/><path class="cls-3" d="M7.08,8.94Zm0,0Z"/><polygon class="cls-17" points="7.55 8.94 7.56 8.95 7.55 8.95 7.49 8.94 7.49 8.93 7.49 8.93 7.55 8.94 7.55 8.94"/><path class="cls-3" d="M7.55,8.94h0Zm0,0Z"/><path class="cls-8" d="M7.22,8.92h0Z"/><path class="cls-3" d="M7.22,8.92h0Zm0,0Z"/><path class="cls-8" d="M7.42,8.92h0Z"/><path class="cls-3" d="M7.42,8.92h0Zm0,0Z"/><polygon class="cls-1" points="7.02 8.95 7.05 8.95 7.03 8.98 7.01 8.97 7.02 8.95 7.02 8.95"/><path class="cls-3" d="M7,9h0L7,9H7V9ZM7,9H7V9H7V9Z"/><polygon class="cls-1" points="7.62 8.95 7.59 8.95 7.61 8.98 7.63 8.97 7.62 8.95 7.62 8.95"/><path class="cls-3" d="M7.62,9h0l0,0h0V9Zm0,0h0V9h0V9Z"/><path class="cls-3" d="M7.28,8.92Zm0,0h0Z"/><path class="cls-3" d="M6.91,8.84h0s.06.05.08,0H7s0,0,0,0a0,0,0,0,0,0,0h0l0,0h.14l0,0v0h0v0l0,0h.14v0h0v0h.07s0,0,0,0l.09,0h0s-.07.05-.08,0l0,0h0s-.07,0-.08,0a0,0,0,0,1,0,0h0s0,0-.07,0l0,0h0l0,0h0l0,0h0a.07.07,0,0,1-.06,0l0,0h0a.07.07,0,0,1-.08,0s0,0,0,0h0s0,.06,0,.06H7s0,0,0,0H7l0,0Zm.42-.06h0v0a0,0,0,0,1,0,0l0,0h0s0,0-.06,0l0,0h0s0,0,0,0H7a0,0,0,0,1,0,0H7s0,0,0,0h0s.07.06.1.05l0,0h.05a.05.05,0,0,0,0,0h0l0,0h0l0,0h.06a.05.05,0,0,0,0,0h0l0,0h.13a.06.06,0,0,0,0,0h0l0,0s0,0,0,0h0l0,0a.07.07,0,0,0,.06,0l0,0h0l0,0a.06.06,0,0,1-.05,0v0h0s-.05,0-.06,0,0,0,0,0h0a.08.08,0,0,1-.07,0l0,0H7.35V8.78Z"/><path class="cls-12" d="M6.91,8.84h0s.06.06.09,0a0,0,0,0,0,0,0,.06.06,0,0,0,.1,0,.06.06,0,0,0,.1,0s.07,0,.1,0,0,.07.1,0,.07.05.11,0,0,.06.08,0a.06.06,0,0,0,.09,0s0,0,0,0h0l0,0c-.05,0-.06,0-.07,0h0c-.09,0-.08,0-.08,0h0c0,.09-.1,0-.1,0h0s-.07,0-.09,0v0h0s0,0,0,0-.08,0-.09,0h0c0,.06-.09,0-.09,0h0c0,.09-.08,0-.09,0H7l0,0s-.07,0-.08,0Z"/><path class="cls-3" d="M6.89,8.84l0,0h0s0,0,0,0,0,0,0,0h0v0h0Zm0,0,.05,0h0v0h0l0,0s0,0,0,0Z"/><path class="cls-4" d="M6.89,8.84s0,0,0,0a0,0,0,0,1,0,0l0,0v0Z"/><path class="cls-3" d="M6.91,8.84h0l0,0h0Zm0,0h0s0,0,0,0H7a0,0,0,0,0,0,0H7v0h0Z"/><path class="cls-4" d="M6.91,8.84H7s0,0,0,0l0,0,0,0Z"/><path class="cls-3" d="M7.11,8.77v0h0l0,0Zm0,0s0,0,0,0h0l0,0h0v0h0v0Z"/><path class="cls-4" d="M7.11,8.78v0s0,0,0,0,0,0,0,0l0,0Z"/><path class="cls-3" d="M7.1,8.8l0,0H7s0,0,0,0,0,0,.06,0h0v0Zm0,0s0,0,0,0h0s0,0-.06,0h0Z"/><path class="cls-4" d="M7.1,8.8h0s-.05,0,0,0,0,0,.07,0v0Z"/><path class="cls-3" d="M7.12,8.79h0s0,0,0,0h0Zm0,0h0s0,0,.06,0h0v0h0Z"/><path class="cls-4" d="M7.12,8.79h0s0,0,0,0,0,0-.07,0Z"/><path class="cls-3" d="M7.11,8.77h0v0a0,0,0,0,1,0,0h0v0Zm0,0Z"/><path class="cls-4" d="M7.11,8.77s0,0,0,0,0,0,0,0a0,0,0,0,1,0,0l0,0Z"/><path class="cls-3" d="M6.89,8.83h0Zm0,0h0Z"/><path class="cls-4" d="M6.89,8.83h0s0,0,0,0h0s0,0,0,0Z"/><path class="cls-3" d="M7.74,8.83l0,0s0,0,0,0l0,0h0v0Zm.06,0,0,0h0v0h0s0,0,0,0,0,0,0,0Z"/><path class="cls-4" d="M7.75,8.84s0,0,0,0a0,0,0,0,0,0,0l0,0v0Z"/><path class="cls-3" d="M7.53,8.78v0h.06v0h0s0,0,0,0h0Zm0,0v0h0l0,0h0Z"/><path class="cls-4" d="M7.53,8.78v0s0,0,0,0l0,0,0,0Z"/><path class="cls-3" d="M7.55,8.79l0,0h0s0,0-.05,0Zm0,0,0,0h0s.06,0,.07,0v0h0Z"/><path class="cls-4" d="M7.55,8.8h0s0,0,0,0,0,0-.06,0Z"/><path class="cls-3" d="M7.53,8.8h0s0,0,0,0h0v0h0s0,0,.06,0h0v0Zm0,0h0s0,0,0,0h0Z"/><path class="cls-4" d="M7.53,8.79h0s0,0,0,0,0,0,.06,0Z"/><path class="cls-3" d="M7.54,8.78h0Zm0,0h0s0,0,0,0h0v0Z"/><path class="cls-4" d="M7.54,8.77l0,0a0,0,0,0,0,0,0s0,0,0,0,0,0,0,0Z"/><path class="cls-3" d="M7.31,8.76s0,0,0-.06h.06a0,0,0,0,1,0,0s0,0,0,0h0Zm0,0s0,0,0,0h0a0,0,0,0,1,0,0v0h0Z"/><path class="cls-4" d="M7.31,8.76s0,0,0-.06h0s0,.05,0,.06Z"/><path class="cls-3" d="M7.31,8.78s0,0-.06,0v0h.07a0,0,0,0,1,0,0h0Zm-.06,0a.06.06,0,0,0,.06,0H7.25Z"/><path class="cls-4" d="M7.31,8.77s0,0-.06,0,0,0,0,0h.06s0,0,0,0Z"/><path class="cls-3" d="M7.33,8.76s0,0,.06,0h0v0H7.33Zm0,0h0Z"/><path class="cls-4" d="M7.33,8.76s0,0,.06,0a0,0,0,0,1,0,0s-.06,0-.07,0Z"/><path class="cls-3" d="M7.32,8.75h0v0h0v0Zm0,0Z"/><path class="cls-4" d="M7.32,8.75l0,0h0l0,0Z"/><path class="cls-3" d="M7.73,8.84h0l0,0h0Zm0,0h0l0,0h0v0h0Z"/><path class="cls-4" d="M7.73,8.84H7.67s0,0,0,0l0,0,0,0Z"/><path class="cls-3" d="M7.75,8.83h0Zm0,0h0Z"/><path class="cls-4" d="M7.75,8.83h0v0h0s0,0,0,0Z"/><path class="cls-3" d="M7,8.62a.08.08,0,0,1,.08,0l.07.06.06.07h0s0,0,0-.07l-.07-.07a.08.08,0,0,0-.08,0Z"/><path class="cls-3" d="M7.67,8.62s0,0-.07,0a.19.19,0,0,0-.07.06l-.06.06h0l0-.06.07-.06a.06.06,0,0,1,.07,0Z"/><path class="cls-3" d="M7.32,8.48h0a0,0,0,0,1,0,.06H7.29a.05.05,0,0,1,0-.06h0Zm0,0h0s0,0,0,0,0,0,0,0h0s0,0,0,0,0,0,0,0,0,0,0,0,0,0,0,0Z"/><path class="cls-11" d="M7.32,8.49s0,0,0,0a0,0,0,0,1-.08,0s0,0,0,0Z"/><path class="cls-3" d="M7.26,8.53v0h0v0h0v0h0v0h0v0h0v0h0v0h0v0H7.26Zm0,0h.06V8.45h0v.06h0Z"/><polygon class="cls-11" points="7.27 8.53 7.27 8.51 7.31 8.51 7.31 8.45 7.28 8.45 7.28 8.43 7.31 8.43 7.31 8.41 7.33 8.41 7.33 8.43 7.36 8.43 7.36 8.45 7.33 8.45 7.33 8.51 7.37 8.51 7.37 8.53 7.33 8.53 7.31 8.53 7.27 8.53 7.27 8.53"/><path class="cls-11" d="M7,9.45h.7a.09.09,0,0,1,0-.12H7a.08.08,0,0,1,0,.12Z"/><path class="cls-3" d="M7,9.45h.68a.14.14,0,0,1,0-.06.08.08,0,0,1,0-.05H7a.08.08,0,0,1,0,.05.14.14,0,0,1,0,.06Zm.28,0H7a.1.1,0,0,0,0-.12h.7a.1.1,0,0,0,0,.12H7.26Z"/><polygon class="cls-11" points="6.86 9.06 7.79 9.06 7.79 9.29 6.86 9.29 6.86 9.06 6.86 9.06"/><path class="cls-3" d="M6.86,9.06h.93v.23H6.86V9.06Zm.92,0H6.86v.23h.92V9.06Z"/><path class="cls-11" d="M7,9.29h.72a0,0,0,0,1,0,0h0l0,0H7l0,0h0a0,0,0,0,1,0,0Z"/><path class="cls-3" d="M7,9.29H7.7s0,0,0,0,0,0,0,0H6.94s0,0,0,0,0,0,0,0Zm.72,0H7v0h.74v0h0Z"/><path class="cls-11" d="M7,9.44h.72a0,0,0,0,1,0,0h0a0,0,0,0,1,0,0H7a0,0,0,0,1,0,0h0a0,0,0,0,1,0,0Z"/><path class="cls-3" d="M7,9.44H7.7s0,0,0,0,0,0,0,0H6.94s0,0,0,0,0,0,0,0Zm.72,0H7v0h.74v0h0Z"/><polygon class="cls-15" points="6.98 9.55 7.66 9.55 7.66 12.72 6.98 12.72 6.98 9.55 6.98 9.55"/><polygon class="cls-15" points="6.98 9.55 7.54 9.55 7.54 12.72 6.98 12.72 6.98 9.55 6.98 9.55"/><polygon class="cls-15" points="6.98 9.55 7.47 9.55 7.47 12.72 6.98 12.72 6.98 9.55 6.98 9.55"/><path class="cls-3" d="M7,9.54h.69v3.17H7V9.55Zm.68,0H7v3.17h.68V9.55Z"/><path class="cls-3" d="M7,9.54h.57v3.17H7V9.55Zm.56,0H7v3.17h.56V9.55Z"/><path class="cls-3" d="M7,9.54h.5v3.17H7V9.55Zm.49,0H7v3.17h.49V9.55Z"/><path class="cls-11" d="M6.87,13h.91a.13.13,0,0,1-.1-.13H7a.13.13,0,0,1-.1.13Z"/><path class="cls-3" d="M6.9,13h.86a.09.09,0,0,1-.06,0,.11.11,0,0,1,0-.08H7a.11.11,0,0,1,0,.08.1.1,0,0,1,0,0Zm.88,0H6.87s.06,0,.07,0a.08.08,0,0,0,0-.08h.73a.08.08,0,0,0,0,.08s0,0,.07,0h0Z"/><polygon class="cls-11" points="6.84 13.19 7.81 13.19 7.81 12.96 6.84 12.96 6.84 13.19 6.84 13.19"/><path class="cls-3" d="M6.84,13.18h1V13h-1v.22Zm1,0h-1V13h1v.23Z"/><path class="cls-12" d="M7.68,12.77H6.93v0h0v0H7.7v0h0s0,0,0,0Z"/><path class="cls-3" d="M7.68,12.77h0Zm-.72,0H7Z"/><path class="cls-1" d="M6.63,12.06s0,0,.08.09a.18.18,0,0,1,.07.15.2.2,0,0,0,.08-.2.29.29,0,0,0-.11-.17L6.64,12v.06Z"/><path class="cls-3" d="M6.64,12.06a.29.29,0,0,0,.07.09.18.18,0,0,1,.07.09.06.06,0,0,1,0,0,.16.16,0,0,0,.06-.18.28.28,0,0,0-.1-.16l-.1.06v.06Zm.06.1a.34.34,0,0,1-.08-.1h0V12h0l.12-.07h0a.29.29,0,0,1,.11.18.23.23,0,0,1-.08.21h0v0a.18.18,0,0,0,0-.06.18.18,0,0,0-.06-.08Z"/><path class="cls-1" d="M8,11.33a1.5,1.5,0,0,1-.6.38c-.17.07-.37.12-.53.2a.49.49,0,0,0-.2.15l-.07-.33a.42.42,0,0,1,.14-.1,7.39,7.39,0,0,0,1-.47A.59.59,0,0,0,7.92,11l0,.33Z"/><path class="cls-3" d="M8,11.34a.88.88,0,0,1-.28.22l-.32.16-.24.09a1.25,1.25,0,0,0-.29.11L6.71,12l-.08.07v0l-.07-.33h0l.06-.06.09-.05.4-.17a2.85,2.85,0,0,0,.64-.3l.11-.08s.06-.05.06-.07h0l0,.33Zm-.29.2A1.21,1.21,0,0,0,8,11.33l0-.3-.06.05-.11.09a3.07,3.07,0,0,1-.64.3,2.83,2.83,0,0,0-.4.17.19.19,0,0,0-.09,0l0,0,.06.31L6.7,12l.13-.08.29-.11.24-.09a2.39,2.39,0,0,0,.32-.16Z"/><path class="cls-1" d="M8.39,10.36a2.54,2.54,0,0,0-1.61.05.51.51,0,0,0-.29.24l.16.36c0-.24.62-.36.87-.37a2.19,2.19,0,0,1,.86.11v-.39Z"/><path class="cls-3" d="M8.38,10.36a1.84,1.84,0,0,0-.75-.1,2.47,2.47,0,0,0-.85.16.55.55,0,0,0-.17.1.28.28,0,0,0-.11.13l.14.33c0-.11.16-.19.33-.24a2,2,0,0,1,.53-.11h0a3.2,3.2,0,0,1,.44,0,2.58,2.58,0,0,1,.42.1v-.38Zm-.75-.11a1.89,1.89,0,0,1,.76.1h0v.39h0a1.84,1.84,0,0,0-.42-.1,2.13,2.13,0,0,0-.44,0h0a2.51,2.51,0,0,0-.53.11c-.17.06-.32.15-.31.26h0v.05l0-.05-.16-.35h0a.33.33,0,0,1,.12-.14.5.5,0,0,1,.18-.1,2.47,2.47,0,0,1,.85-.16Z"/><path class="cls-15" d="M8.33,9h4.21v3.52c0,.66-.65,1.21-2.1,1.21-1,0-2.11-.33-2.11-1.22V9Z"/><path class="cls-18" d="M10,13.49a.51.51,0,0,1,.47.12.47.47,0,0,1-.47-.12Z"/><path class="cls-3" d="M10,13.48a.53.53,0,0,1,.47.13h0a.47.47,0,0,1-.47-.12h0Zm.46.13a.53.53,0,0,0-.45-.12.47.47,0,0,0,.45.12Z"/><path class="cls-18" d="M10.48,13.61a.49.49,0,0,1,.48-.08s-.12.14-.48.08Z"/><path class="cls-3" d="M10.48,13.61a.51.51,0,0,1,.48-.09h0s-.12.15-.48.09h0Zm.47-.08a.48.48,0,0,0-.46.08c.32.05.44-.06.46-.08Z"/><path class="cls-18" d="M10.42,13.7a.38.38,0,0,0,0-.2h0a.48.48,0,0,1,0,.18s0,0-.06,0Z"/><path class="cls-3" d="M10.41,13.7a.35.35,0,0,0,0-.2h0a.43.43,0,0,1,0,.19h0s0,0-.06,0Zm0-.2a.41.41,0,0,1,0,.2l.06,0a.62.62,0,0,0,0-.18Z"/><path class="cls-15" d="M12.52,11.26H10.43V9h2.1v2.23Z"/><path class="cls-3" d="M12.52,11.27h-2.1V9h2.12v2.23h0Zm-2.07,0h2.07V9H10.44v2.23h0Z"/><path class="cls-1" d="M8.33,11.26h2.1V9H8.32v2.23Z"/><path class="cls-3" d="M8.33,11.25h2.09V9H8.33v2.23Zm2.08,0H8.32V9h2.12v2.23h0Zm-2.08,0Z"/><path class="cls-19" d="M10.81,9.67s-.06,0-.09,0a.08.08,0,0,1,.07-.09.1.1,0,0,1,0,.07Z"/><path class="cls-3" d="M10.8,9.68a.08.08,0,0,0-.08,0v0a.09.09,0,0,1,.08-.09h0a.07.07,0,0,1,0,.07h0Zm-.08,0a.12.12,0,0,1,.08,0,.06.06,0,0,0,0-.05.09.09,0,0,0-.06.06Z"/><path class="cls-19" d="M10.79,9.53a.06.06,0,0,0-.08,0,.1.1,0,0,1,.13,0,.05.05,0,0,1-.05,0Z"/><path class="cls-3" d="M10.78,9.53v0l0,0h0a.11.11,0,0,1,.14,0h0a.06.06,0,0,1-.06.06h0Zm0,0a0,0,0,0,1,0,0,0,0,0,0,0,0,0,.11.11,0,0,0-.1,0h0l0,0Z"/><path class="cls-19" d="M10.91,9.45a.05.05,0,0,0,0-.08s.07,0,.05.1-.06,0-.08,0Z"/><path class="cls-3" d="M10.91,9.45a.06.06,0,0,0,0-.08h0s.07,0,.06.12h0s-.06,0-.08,0h0Zm0-.07a0,0,0,0,1,0,.07s.05,0,.07,0,0-.08,0-.09Z"/><path class="cls-19" d="M11.25,10.83s0-.05,0-.07,0,0-.06,0a.06.06,0,0,0,0,.09Z"/><path class="cls-3" d="M11.24,10.82a0,0,0,0,1,0-.06s0,0,0,0a0,0,0,0,0,0,.07Zm0-.06a0,0,0,0,0,0,.06v0h0c-.07,0,0-.09,0-.09h0a.08.08,0,0,1,.06,0h0Z"/><path class="cls-19" d="M11.15,10.69a.12.12,0,0,0-.1,0,.08.08,0,0,1,.09-.07.08.08,0,0,1,0,.06Z"/><path class="cls-3" d="M11.15,10.7a.1.1,0,0,0-.09,0h0a.08.08,0,0,1,.09-.08h0a.08.08,0,0,1,0,.07Zm-.09,0a.1.1,0,0,1,.09,0s0,0,0,0a.05.05,0,0,0-.07,0Z"/><path class="cls-19" d="M11.11,10.52a.08.08,0,0,1,.07.05s.05,0,.05,0a.11.11,0,0,0-.12,0Z"/><path class="cls-3" d="M11.13,10.52a.05.05,0,0,1,0,0l0,0a.09.09,0,0,0-.09,0Zm0,.05a.07.07,0,0,0-.07,0h0a.09.09,0,0,1,.12,0h0s-.06,0-.06,0h0Z"/><path class="cls-19" d="M11.74,10.85a.08.08,0,0,0-.09,0,.09.09,0,0,1,.09-.07.11.11,0,0,1,0,.06Z"/><path class="cls-3" d="M11.74,10.86a.09.09,0,0,0-.09,0h0a.09.09,0,0,1,.1-.07h0a.11.11,0,0,1,0,.06h0Zm-.08,0s.07,0,.08,0v0a.1.1,0,0,0-.08,0Z"/><path class="cls-19" d="M11.81,10.94a.1.1,0,0,0-.06.07s0-.07,0-.1.05,0,.06,0Z"/><path class="cls-3" d="M11.81,11a.07.07,0,0,0-.05.06v0s0-.07,0-.11h0s.05,0,.06,0h0Zm-.06,0a.08.08,0,0,1,.05-.05s0,0,0,0,0,.05,0,.07Z"/><path class="cls-19" d="M11.94,11s0,.05,0,.08a.08.08,0,0,1-.07-.08s.05,0,.08,0Z"/><path class="cls-3" d="M11.94,11s0,.05,0,.08h0s-.08,0-.07-.09h0s.05,0,.08,0h0Zm0,.07a.06.06,0,0,1,0-.07s0,0-.06,0,0,0,.05.06Z"/><path class="cls-20" d="M11.64,10.29H11.4a.18.18,0,0,0-.07,0,.13.13,0,0,0,0,.06.78.78,0,0,0,0,.09v-.08a.1.1,0,0,1,0,0s0,0,0,.06v0l0,0,0,0a.2.2,0,0,0,0,.05s0,0,0,0a.14.14,0,0,1-.11,0l0,0s0,0,0,0l0,0,0,0s0,0,0,0,0,0,0,0a0,0,0,0,1,0,0s0,0,0,0,0,0,0,0,0,0,0,0,0,0,0,0,0,0,0,0,0,0,0,0a0,0,0,0,0,0,0h0s0,0,0,0,0,0,0,0,0,0,0,0h.12a.06.06,0,0,0,.06,0,.06.06,0,0,0,0-.06.36.36,0,0,1,0-.1.08.08,0,0,1,0-.07,0,0,0,0,1,.05,0h.1l.05-.1,0-.05-.06,0Z"/><path class="cls-3" d="M11.64,10.3h-.27l0,0,0,0v0s0,.05,0,.07v0l0,0h0a.1.1,0,0,1,0,0v0a.08.08,0,0,0,0,0h0v0l0,0h0a.08.08,0,0,0,0,.05v0l0,0h-.06l-.05,0h0s0,0,0,0v0h0v0h0l0,0s0,0,0,0h-.06s0,0,0,0,0,0,0,0v0h0v0h.08a0,0,0,0,1,0,0h.06a.08.08,0,0,1,0,0h.24v-.06h0s0-.06,0-.09v0a0,0,0,0,1,0,0l0,0h.13l0-.1v0l-.06,0Zm0,0h0l.06,0h0v.05h0l0,.1h-.15s0,0,0,0v0l0,.09h0v0a0,0,0,0,1,0,0s0,0,0,0h-.2a0,0,0,0,0,0,0s0,0,0,0H11.2v0h-.07s0,0,0,0h0v0s0,0,0,0,0,0,0,0h0s0,0,0,0h0v0h.05l0,0h0s0,0,0,0l0,0h0l0,0h.07a0,0,0,0,0,0,0s0,0,0,0h0a0,0,0,0,0,0,0v-.08l0,0v0a.78.78,0,0,1,0-.09v0l0,0s0,0,0,0l0,0h.23Z"/><path class="cls-20" d="M11.23,9.75l-.1-.06-.09,0S11,9.6,11,9.58a0,0,0,0,1,0-.05l0-.06h-.07s0,0,0,0,0,0,0,0,0,0,0,0,0,0,0,0h0a0,0,0,0,1,0,0l0,0s0,0,0,0,0,0,0,0h0s0,0,0,0l0,0s0,0,0,0h.08l0,.05,0,0s0,0,0,0l0,0h0s0,0,.05,0h0l0,0h.11l.07.05.07.05.16-.11,0-.07-.15,0Z"/><path class="cls-3" d="M11.23,9.75l-.1-.05-.05,0-.05,0,0,0,0,0h0a0,0,0,0,1,0-.06l0,0v0h-.08v0h0s0,0,0,0l0,0,0,0h0l0,0h0s0,0,0,0h-.06v0h.09v0l0,0h0l0,0h0l0,0h.07a.05.05,0,0,1,0,0l0,0,.07.06.16-.11a.21.21,0,0,1,0-.06l-.14,0Zm-.09-.06.09.05.15,0h0l0,.07L11.2,10h0l-.08-.06,0,0,0,0H11l0,0h0s0,0,0,0v0H10.8s0,0,0,0v0s0,0,0,0h0s0,0,0,0h0l0,0h0v0h0l0,0v0s0,0,0,0h0v0a0,0,0,0,1,0,0s0,0,0,0H11l0,0,0,0a0,0,0,0,0,0,0v0h0l0,0,0,0,0,0,.06,0Z"/><path class="cls-20" d="M11.33,10.05a.4.4,0,0,0,.08.12.31.31,0,0,0,.14.09.3.3,0,0,1,.11.07.09.09,0,0,1,0,.06.23.23,0,0,1,0,.09.13.13,0,0,0,0,.08.14.14,0,0,0,0,.1l.06.06a.2.2,0,0,1,0-.08.21.21,0,0,0,.06.08.21.21,0,0,1,0-.08l0,0s0,.05,0,.07a.07.07,0,0,1-.06,0h0s0,0,0,0a0,0,0,0,1,0,0s0,0,0,0,0,0,0,0h0v0l0,0s0,0,0,0h0l0,0s0,0,0,0,0,0,0,0,0,0,0,0,0,0,0,0,0,0,0,0h0s0,0,0,0,0,0,0,0a.11.11,0,0,1,0-.06.63.63,0,0,1,0-.09.43.43,0,0,1,0-.07s0,0,0,0,0,0,0,0h0a.14.14,0,0,1-.06-.08.33.33,0,0,1,0-.12.18.18,0,0,1,.1,0,.15.15,0,0,0,.1-.06.3.3,0,0,0,0-.19c0-.09-.09-.18-.09-.26a.24.24,0,0,1,0-.13s.06-.05.08-.08,0,0,0-.07l.07-.08h-.08a.23.23,0,0,0,.06-.07.17.17,0,0,0,0-.1l-.07.05a.09.09,0,0,0-.06.07.22.22,0,0,0,0-.1.45.45,0,0,1,0,.11s-.05.09,0,.14v.09a.53.53,0,0,0,0,.12A1.21,1.21,0,0,0,12,10a.77.77,0,0,1,.05.19.12.12,0,0,1-.07.13.17.17,0,0,1-.14,0,.51.51,0,0,1-.2-.38c0-.09-.31,0-.33.16Z"/><path class="cls-3" d="M11.34,10.05a.4.4,0,0,0,.07.12l.06,0,.08,0h0l.1.06,0,0v0a.08.08,0,0,1,0,0s0,0,0,.05l0,0v0a.09.09,0,0,0,0,0s0,0,0,.05l0,0a.13.13,0,0,1,0-.06h0a.11.11,0,0,0,0,.06v-.06l0,0,0,0v0h0l0,0h-.09v0h.07v0h0v0h0v0h0v0h.08l0,0v0a.11.11,0,0,1,0,0l0-.05,0,0s0,0,0,0,0,0,0,0v0s0,0,0,0h0a.08.08,0,0,1-.06-.08.16.16,0,0,1,0-.07.08.08,0,0,1,0,0l0,0,.05,0,.06,0a.1.1,0,0,0,0,0l0-.06a.24.24,0,0,0,0-.12.28.28,0,0,0,0-.12.43.43,0,0,1,0-.14V9.76l0,0a.08.08,0,0,1,0,0l0,0,0,0v0l0-.05,0,0h-.07l.06-.07a.15.15,0,0,0,0-.09l-.06,0h0s0,0,0,.06v0a.17.17,0,0,0,0-.08l0,.1v0h0a.23.23,0,0,0,0,.11v0a0,0,0,0,1,0,0s0,0,0,0,0,0,0,.08h0A.26.26,0,0,0,12,10l0,.1a.28.28,0,0,1,0,.09.25.25,0,0,1,0,.08s0,0-.05.06h-.15a.43.43,0,0,1-.14-.16.68.68,0,0,1-.07-.23v0h-.05l-.08,0a.27.27,0,0,0-.17.16Zm.06.12a.8.8,0,0,1-.08-.12h0a.32.32,0,0,1,.19-.17l.07,0h.06s0,0,0,0a.75.75,0,0,0,.07.23.47.47,0,0,0,.13.15H12s0,0,.05-.06a.17.17,0,0,0,0-.07.29.29,0,0,0,0-.09.38.38,0,0,0,0-.1.34.34,0,0,1,0-.13h0a.22.22,0,0,1,0-.08v0s0,0,0,0v0a.2.2,0,0,1,0-.11h0v0a.82.82,0,0,0,0-.11h0a.11.11,0,0,1,0,.07.1.1,0,0,1,0,0h0l.07,0h0v0a.22.22,0,0,1,0,.11s0,0-.05.05h.07l0,0,0,.05,0,0s0,0,0,0l-.05,0,0,0s0,0,0,0a.2.2,0,0,0,0,.09.33.33,0,0,0,0,.13.69.69,0,0,1,.05.13.41.41,0,0,1,0,.12.24.24,0,0,1,0,.07.1.1,0,0,1,0,0l-.06,0h-.06l0,0s0,0,0,0v.07a.07.07,0,0,0,0,.07h0v0h0s0,0,0,0l0,0a0,0,0,0,1,0,0s0,0,0,0l0,0s0,0,0,0a.43.43,0,0,1,0,0v0l0,0v0h-.1s0,0,0,0h0v0h0v0h-.08v0h0l0,0h0v0h0v0h0a0,0,0,0,1,0,0h.09l0,0h0v0l0,0,0,0v.07h0l0-.06a.12.12,0,0,0,0,.05v0h0l-.06-.06a.05.05,0,0,1,0,0s0,0,0-.06v0s0,0,0,0l0-.05a0,0,0,0,0,0,0v0l0,0-.1-.06h0l-.08,0a.18.18,0,0,1-.07-.05Z"/><path class="cls-19" d="M11,10.24s0,0,0,.07-.06,0-.06-.08Z"/><path class="cls-3" d="M11,10.25s0,0,0,.06h0a.09.09,0,0,1-.07-.09h0s.07,0,.07,0h0Zm0,.06s0-.06,0-.07h-.05a.07.07,0,0,0,0,.07Z"/><path class="cls-19" d="M10.87,10.19s-.06,0-.09,0a.08.08,0,0,1,.08-.07.22.22,0,0,1,0,.06Z"/><path class="cls-3" d="M10.86,10.19a.13.13,0,0,0-.08,0h0a.09.09,0,0,1,.09-.08h0a.11.11,0,0,1,0,.06h0Zm-.07,0h.07s0,0,0,0a.1.1,0,0,0-.07,0Z"/><path class="cls-19" d="M10.86,10.06s0,0-.07,0,0-.06.11,0,0,0,0,0Z"/><path class="cls-3" d="M10.85,10.07s0,0-.06,0h0s0-.06.12,0h0s0,0,0,.05h0Zm0,0s.06,0,.06,0a.05.05,0,0,0,0,0,.08.08,0,0,0-.09,0Z"/><path class="cls-20" d="M11.32,9.85l-.06,0a.18.18,0,0,0-.07,0l0,.05-.09.06h-.11l0,0s0,0,0,0l0,0s0,0,0,0h0s0,0,0,0h0s0,0,0,0v0s0,0,0,0h0l0,0h0l0,0s0,0,0,0H11l0,0s0-.05,0-.06h.08l0,0h0v0s.08,0,.09-.1,0,0,0,.06l0-.05.08,0,.08,0,0,0,0-.09,0,0h-.14Z"/><path class="cls-3" d="M11.32,9.86h0l0,0h0l-.05,0,0,0,0,0h0l-.07,0,0,0H11l0,0h0l0,0h0l0,0h0v0h0v0h.07v0a0,0,0,0,1,0,0H11v-.06l0,0h.12v0h0a.2.2,0,0,0,.08-.08v0h0a.18.18,0,0,0,0,.05l0,0h0l0,0,0,0,0,0,0,0v0l0-.08v0h-.14Zm0,0,0,0h.15v0h0a.37.37,0,0,1,0,.09v0l0,0,0,0,0,0,0,0h0l0,.05,0,0V10.1a.19.19,0,0,1-.07.08h0v0H11v.06h0l0,0H10.9s0,0,0,0h0s0,0,0,0h0v0h0a0,0,0,0,0,0,0h0s0,0,0,0h0s0,0,0,0l0,0h0l0,0h0l0,0H11l.07,0h0l0,0,0,0a.1.1,0,0,1,.06,0h0l0,0Z"/><path class="cls-9" d="M11.41,9.5s0,0,0,0,0,0,0,0a0,0,0,0,1,0,0Z"/><path class="cls-3" d="M11.4,9.5v0s0,0,0,0h0a.07.07,0,0,1,0,0h0Zm0,0v0h0l0,0Z"/><path class="cls-9" d="M11.46,9.51v0h0l0,0Z"/><path class="cls-3" d="M11.45,9.51v0s.05,0,.05,0h0l0,0h0Zm0,0v0h0Z"/><path class="cls-9" d="M11.4,9.58a0,0,0,0,0,0,0h0l0,0Z"/><path class="cls-3" d="M11.4,9.59h0Zm0,0a.07.07,0,0,1,0,0h0s0,0,0,0h0Z"/><path class="cls-9" d="M11.43,9.6v0l0,0Z"/><path class="cls-3" d="M11.42,9.6v0h0l0,0s0,0,0,0h0Zm0,0h0Z"/><path class="cls-19" d="M11.13,9.45a.22.22,0,0,1,.1.07.2.2,0,0,0,.14.05h.11l0,0V9.53h-.11a.17.17,0,0,1-.11,0s-.07-.09-.18,0Z"/><path class="cls-3" d="M11.15,9.45h0l.06.06s0,0,.06,0h.21v0h-.16l0,0h0a.12.12,0,0,0-.15,0Zm0,0,0,0h0c.11,0,.15,0,.18,0h0l0,0h.16v.05H11.3a.1.1,0,0,1-.07,0l-.06,0Z"/><path class="cls-20" d="M11.16,9.8a.09.09,0,0,1,.1-.07h.13s0,0,0,0-.05,0-.05-.06l0,0h0s0,0,.05,0a.07.07,0,0,0,0-.06,0,0,0,0,0,0,0h-.06a.1.1,0,0,1,0-.05s0,0,0,0h.12s0,0,0,0l.05,0h.06l.14.09a.06.06,0,0,1,0,.06v.11a.24.24,0,0,0,0,.09l-.05,0a.1.1,0,0,0,0,.09l0,0a.23.23,0,0,1,0,.07s0-.06-.08-.06a.16.16,0,0,1,0,.12.18.18,0,0,0-.09-.09.24.24,0,0,1,0,.18l-.05-.05,0,0,0,.06,0,0a.41.41,0,0,0,0-.07.17.17,0,0,1,0,0s0,0,0,.06l-.05,0a.26.26,0,0,0,0-.07V9.87s0,.05-.06.06l-.08,0s0,0,0-.07a.09.09,0,0,1,0-.09.06.06,0,0,1-.06,0c-.06,0-.06,0-.12,0Z"/><path class="cls-3" d="M11.15,9.8a.11.11,0,0,1,.11-.08h.13a0,0,0,0,0,0,0h0l0,0,0,0h0l0,0h.12a0,0,0,0,1,0,0v0h0l0,0h-.06l0,0,0,0h0v0h.14l0,0,0,0h.08l.07,0,.08.05,0,0a0,0,0,0,1,0,0v.08a0,0,0,0,0,0,0,.43.43,0,0,1,0,.05v0l0,0,0,0-.05,0a.15.15,0,0,0,0,.06l0,0,0,0a.12.12,0,0,1,0,.07v0l0,0a.16.16,0,0,0-.06-.05.18.18,0,0,1,0,.11h0a.21.21,0,0,0-.07-.07.32.32,0,0,1,0,.16h0l-.06-.05,0,0,0,.05s0,0,0,0v0l0-.06s0,0,0,0,0,0,0,0l0,0h0a.35.35,0,0,1,0-.06.08.08,0,0,1,0,0l0,0-.08,0h0a.56.56,0,0,0,0-.07h0a0,0,0,0,1,0-.06h-.08s0,0-.08,0h0v0Zm.11-.07a.09.09,0,0,0-.09.06h.11a.08.08,0,0,0,.05,0h0a.09.09,0,0,0,0,.08h0a.13.13,0,0,1,0,.06l.07,0,0-.05,0,0v0a.08.08,0,0,0,0,.05.13.13,0,0,1,0,.06l0,0s0,0,0,0v0a.08.08,0,0,1,0,.05l0,0s0-.05,0-.05v0l0,0,.05.05a.22.22,0,0,0,0-.17h0a.14.14,0,0,1,.08.07.14.14,0,0,0,0-.1h0a.13.13,0,0,1,.07.05.11.11,0,0,0,0-.05l0,0,0,0a.16.16,0,0,1,0-.09h0l0,0v0a.43.43,0,0,0,0-.05V9.48a0,0,0,0,0,0,0l0,0-.08-.05-.07,0h-.07l0,0h0s0,0,0,0h-.14v0h0s0,0,0,0h.08l0,0v.08l0,0h-.1s0,0,0,0l0,0v0s0,0,0,0h-.13Z"/><path class="cls-9" d="M11.39,9.45v0a0,0,0,0,1,0,0l0,0,0,0Z"/><path class="cls-9" d="M11.55,9.38s0,0,0,0l0,0h-.05l0,0v0Z"/><path class="cls-4" d="M11.6,9.33s0-.05,0-.07a.15.15,0,0,0,0-.08s0,0,0,0,0,0,0,0,0,0,0,0,0,0,0,0,0,0,0,0a0,0,0,0,0,0,0l0,0c-.06,0,0-.06,0,0s.09,0,0,0,0,.06,0,0a0,0,0,0,0,0,0h0l0,0,0,0c-.06,0,0-.07,0,0h0c0-.06.08,0,0,0h0c.06,0,0,.07,0,0s0,0,0,0h0a0,0,0,0,0,0,0h0s0-.07,0,0,.08,0,0,0,0,.06,0,0,0,0,0,0h0a0,0,0,0,0,0,0h0s0,0,0,0,0,0,0,0,.07,0,.06,0h0l-.14,0a.4.4,0,0,0-.22-.15Z"/><path class="cls-3" d="M11.61,9.26s0,0,0,0l0,0h0a0,0,0,0,1,0,0h0l0,0h0l0,0h0l0,0s0,0,0,0h0l0,0h0s0,0,0,0,0,0,0,0l0,0h0v0h.06s0,0,0,0h.09v0a0,0,0,0,1,0,0l0,0v0h.07s0,0,0,0l0,0h0s0,0,0,0h0l0,0h0s0,0,0,0h0s0,0,0,0,0,0,0,0h0s0,0,0,0h0a.2.2,0,0,0-.13,0h0a.44.44,0,0,0-.22-.16s0-.05,0-.07Zm0,0a.17.17,0,0,1,0,.07.34.34,0,0,1,.21.15.26.26,0,0,1,.14,0h0s0,0,0,0h-.06s0,0,0,0,0,0,0,0h0a0,0,0,0,1,0,0s0,0,0,0l0,0,0,0h0l0,0h0s0,0-.06,0a0,0,0,0,1,0,0h0s0,0,0,0h0s0,0,0,0h0l0,0h0l0,0h0l0,0h0s0,0,0,0h0l0,0h0l0,0h0s0,0,0,0h0l0,0h0s0,0,0,0h0v0h0v0s0,0,0,0Zm0,0v0h0s0,0,0,0h0s0,0,0,0Zm.22.14h0s0,0,0,0h0l0,0Zm0,0h0Z"/><path class="cls-9" d="M11.63,9.29s0,0,0,0h0Z"/><path class="cls-9" d="M11.66,9.3h0Z"/><path class="cls-9" d="M11.68,9.31h0Z"/><path class="cls-9" d="M11.71,9.33h0Z"/><path class="cls-9" d="M11.73,9.35h0Z"/><path class="cls-9" d="M11.75,9.36h0Z"/><path class="cls-9" d="M11.76,9.37a0,0,0,0,1,0,0h0a0,0,0,0,1,0,0Z"/><path class="cls-9" d="M11.78,9.39h0Z"/><path class="cls-9" d="M11.8,9.4h0Z"/><path class="cls-9" d="M11.82,9.42h0Z"/><path class="cls-9" d="M11.84,9.44h0a0,0,0,0,1,0,0h0Z"/><path class="cls-1" d="M12.52,11.26H10.45l0,0v1.25a1,1,0,0,0,1.05,1h0a1,1,0,0,0,1-1V11.27Z"/><path class="cls-3" d="M12.52,11.27H10.44v1.25a1,1,0,0,0,.3.71,1.09,1.09,0,0,0,1.48,0,1,1,0,0,0,.3-.71V11.27Zm-2.07,0h2.09v1.26a1,1,0,0,1-.31.72,1.09,1.09,0,0,1-1.5,0,1,1,0,0,1-.31-.72V11.28s0,0,0,0h0Z"/><polygon class="cls-4" points="8.8 10.94 8.8 10.63 8.96 10.63 8.96 10.04 8.87 10.04 8.87 9.75 9.02 9.75 9.02 9.66 8.96 9.66 8.96 9.49 9.02 9.49 9.02 9.54 9.07 9.54 9.07 9.5 9.13 9.5 9.13 9.54 9.18 9.54 9.18 9.49 9.24 9.49 9.24 9.65 9.18 9.65 9.18 9.75 9.31 9.75 9.31 9.44 9.25 9.44 9.25 9.27 9.31 9.27 9.31 9.32 9.36 9.32 9.36 9.27 9.42 9.27 9.42 9.32 9.47 9.32 9.47 9.27 9.53 9.27 9.53 9.44 9.48 9.44 9.48 9.74 9.6 9.74 9.6 9.66 9.54 9.66 9.54 9.49 9.61 9.49 9.61 9.54 9.66 9.54 9.66 9.49 9.72 9.49 9.72 9.54 9.77 9.54 9.77 9.49 9.83 9.49 9.83 9.66 9.77 9.66 9.77 9.75 9.91 9.75 9.91 10.04 9.83 10.04 9.83 10.63 9.98 10.63 9.98 10.94 8.8 10.94 8.8 10.94"/><path class="cls-3" d="M9.9,10.86V10.8H9.77v.06Zm-.62-.1H9.2v.17h.38v-.17H9.51v0h.1a.11.11,0,0,0,0-.1.38.38,0,0,0-.11.08v0l.07,0-.07,0-.05.07h0a.33.33,0,0,0,.06-.1.23.23,0,0,0-.15,0l0,.1h0l0-.07a.19.19,0,0,0-.08,0l.07.06h0l-.09-.08a.14.14,0,0,0,0,.1l.11,0Zm-.09.17v-.06H9.11v.06Zm0-.07V10.8H9v.06Zm0-.08v0h0v0h0v.06Zm0-.07,0-.07H9v.07Zm.08-.09v0H9.1v0Zm0,0,.06,0H9.25v0Zm.06-.06h0V10.5H9.18v.06Zm0,0a.28.28,0,0,1,.13,0V10.5H9.33v.05Zm.15,0H9.6V10.5H9.48v.06Zm0,0v0l0,0v0Zm.2,0v0H9.55v0Zm-.07,0a.12.12,0,0,1,0,.07h.12v-.07Zm0,.08v0h0v0h.08v-.06Zm0,.08v.06h.15V10.8Zm0,.07v.06h.08v-.06ZM9,11H8.79v-.31H9v-.58H8.86V9.75H9V9.67H9V9.49H9v0h0v0h.08v0h0v0h.08v.17H9.19v.07H9.3v-.3H9.24V9.27h.08v0h0v0h.08v0h0v0h.08v.17H9.48v.3h.11V9.67H9.53V9.49h.09v0h0v0h.08v0h0v0h.08v.17H9.78v.07h.13V10H9.83v.58H10v.31H9Zm-.07-1.2v.07H9V9.75Zm0,.08v.06H9V9.83Zm0,.08V10H9v0H8.88Zm0,.07v0H9v0Zm.08.07v.06H9v-.06Zm0,.07v.06h.27v-.06Zm0,.08v.06h.35V10.2Zm0,.07v.06h.42v-.06Zm0,.08v.06h.35v-.06Zm0,.07v.07h.13v-.07Zm0,.08v.06H9V10.5Zm0,.08v0h.12v0Zm-.08.06v.07H9v-.07Zm0,0H8.81v.07h.06v-.07Zm-.06.08v.06H9v-.06Zm0,.08v.06h.06V10.8Zm0,.07v.06H9v-.06Zm.15.06h.13v-.06H9v.06Zm.74,0h.12v-.06H9.7v.06Zm.14,0H10v-.06H9.84v.06Zm.13-.07V10.8H9.92v.06Zm0-.08v-.06H9.84v.06Zm0-.07v-.07H9.92v.07Zm-.07-.07H9.77v.07H9.9v-.07Zm-.08,0v0H9.7v0Zm0-.06V10.5H9.77v.06Zm0-.07v-.07H9.7v.07Zm0-.08v-.06H9.47v.06Zm0-.08v-.06H9.4v.06Zm0-.07V10.2H9.47v.06Zm0-.08v-.06H9.55v.06Zm0-.07v-.06H9.77v.06ZM9.9,10v0H9.84v0Zm0-.07V9.91H9.77V10Zm0-.07V9.83H9.84v.06Zm0-.07V9.75H9.78v.07Zm-.14-.08V9.66H9.69v.08Zm.06-.09V9.59H9.55v.06Zm0-.07V9.5H9.77v0H9.71v0H9.66v0H9.6v0h0v.08Zm-.21.08v.08h.07V9.66Zm-.12.09v.07H9.6V9.75Zm0,0H9.31l0,.17h.13V9.75Zm0,0V9.68H9.32v.06Zm0-.08V9.61H9.4v.05Zm0-.07V9.53H9.32v.06Zm0-.07V9.44H9.4v.08Zm0-.09h.06V9.37H9.26v.06h.21Zm.06-.08V9.28h0v0H9.41v0h0v0H9.3v0h0v.07Zm-.21.09v.08h.06V9.44Zm0,.17v.05h.06V9.61Zm0,.14H9.19v.07H9.3V9.75Zm-.13,0V9.66H9.1v.08Zm.06-.09V9.59H9v.06Zm0-.07V9.5h0v0H9.12v0h0v0H9v0H9v.08ZM9,9.66v.08h.07V9.66Zm.15.09H9l0,.17h.13V9.75Zm.6,0H9.61l0,.17h.12l0-.17ZM9,10h.13v0H9v0Zm.15,0h.13V9.91H9.18V10Zm.14,0h.14v0H9.32v0Zm.16,0H9.6V9.91H9.48V10Zm.14,0h.14v0H9.62v0Zm.2,0H9.7v0h.12v0Zm-.14,0H9.55v0h.13v0Zm-.14,0H9.4v0h.14v0Zm-.16,0H9.25v0h.13v0Zm-.15,0H9.11v0h.12v0Zm-.14,0H9v0h.13v0Zm.67.07H9.62v.06h.14v-.06Zm-.16,0H9.47v.06H9.6v-.06Zm-.14,0H9.33v.06h.13v-.06Zm-.15,0H9.19v.06h.12v-.06Zm-.14,0H9v.06h.14v-.06Zm.37.07H9.4v.06h.14v-.06Zm-.16,0H9.25v.06h.13v-.06Zm.08.08H9.33v.06h.13V10.2Zm0,.15H9.33v.06h.13v-.06Zm.22.07H9.55v.07h.13v-.07Zm-.15,0H9.4v.07h.13v-.07Zm-.15,0H9.25v.07h.13v-.07Zm-.14,0H9.11v.07h.13v-.07Zm.52.08H9.62v.06h.14V10.5Zm-.59,0H9v.06h.14V10.5Zm0-.67v.06h.05V9.83ZM9,9.89V9.83H9v.06Zm.47-.06v.06h0V9.83Zm-.17.06V9.83H9.25v.06Zm.47-.06v.06h.05V9.83Zm-.17.06V9.83h0v.06Zm.21.83H9.7v.06h.12v-.06Zm-.73,0H9v.06h.13v-.06Zm-.21.08v.06H9V10.8Z"/><path class="cls-21" d="M9,10.43h.22v-.2a.1.1,0,0,0-.11-.1h0a.1.1,0,0,0-.11.1v.2Z"/><path class="cls-3" d="M9,10.42h.2v-.19a.11.11,0,0,0,0-.07l-.07,0h0l-.07,0a.11.11,0,0,0,0,.07v.19Zm.21,0H9v-.2a.12.12,0,0,1,0-.08.11.11,0,0,1,.08,0h0a.1.1,0,0,1,.11.11v.2Z"/><path class="cls-21" d="M9.54,10.43h.22v-.2a.1.1,0,0,0-.11-.1h0a.1.1,0,0,0-.11.1v.2Z"/><path class="cls-3" d="M9.55,10.42h.2v-.19a.11.11,0,0,0,0-.07l-.07,0h0l-.07,0a.11.11,0,0,0,0,.07v.19Zm.21,0H9.53v-.2a.12.12,0,0,1,0-.08.11.11,0,0,1,.08,0h0a.11.11,0,0,1,.08,0,.12.12,0,0,1,0,.08v.2h0Z"/><path class="cls-21" d="M9.26,10.93h.26v-.15a.13.13,0,0,0-.13-.12h0a.12.12,0,0,0-.12.1v.17Z"/><path class="cls-7" d="M11.16,12h0l0,0a0,0,0,0,0,0,0h0l0,0,0,0h0v0h0l0,0,0,0Zm1,.68a.84.84,0,0,1,0,.17.09.09,0,0,1,0,.07.1.1,0,0,1-.11.1h0l-.08.08-.06,0,0-.06,0,0L12,13a.13.13,0,0,1,0-.06.07.07,0,0,1,0-.05l0,0-.1-.11,0,0h0l0-.05-.05-.05h0v0a.05.05,0,0,0,0,0h0l-.18-.18v.31h0l0,0h0v.17h-.07v.24s.05,0,.06,0l.16,0,0,.06-.18,0a.1.1,0,0,1-.1.08.11.11,0,0,1-.11-.08.45.45,0,0,1-.19-.05l0,0,.17,0s0,0,.06,0v-.24h-.06V12.7h0l0,0h0v-.31l-.18.19h0l0,0h0l0,0,0,0-.05,0h-.08l-.09.1,0,0s0,0,0,.05A.14.14,0,0,1,11,13L11,13l.05,0,0,0-.05,0L10.92,13h0a.09.09,0,0,1-.1-.1.14.14,0,0,1,0-.07l-.06-.17h.07a.88.88,0,0,0,0,.15h.06l.05-.05.09-.1h0l0,0v0l.05,0,.05-.05v0h.06l.18-.19h-.15s0,0,0,0v0h-.17l0,0s0,0,0,0a0,0,0,0,1,0,0h0a0,0,0,0,1,0,0s0,0,0,0v0h.18v0s0,0,0,0h.17L11.2,12h0l0,0h0l0-.05L11,12h0v0l0,0h0l-.12-.13-.16-.16.05,0,.16.16.12.13h0l.05,0h0l0,0,0,.05h0v0s0,0,0,0h0l.19.19v-.26h-.06v-.17h0l0,0h0v-.07a.12.12,0,0,1-.07-.07h-.13a.08.08,0,0,1,0,0H11s0,0,0,0a.08.08,0,0,1,0,0h0s0,0,0,0v-.06h.18v0a.06.06,0,0,1,0,0h.14a.11.11,0,0,1,.1-.06.1.1,0,0,1,.09.06h.12s0,0,0,0v0h.17v0l0,0h.15a.13.13,0,0,1,.1-.06.11.11,0,0,1,.11.1.11.11,0,0,1-.08.1v.16h-.06v-.16h0l-.1.1-.13.13v0l0,0v0l0,0,0,0-.05.05h-.08l-.2.21h.14s0,0,0,0v0h.17v0a.05.05,0,0,1,0,0h.18v.06h-.18a.05.05,0,0,1,0,0v0h-.17v0s0,0,0,0h-.13l.18.19h0l0,0h0l0,0,0,.05h0v0l0,0h0l.1.11,0,0h.06a.88.88,0,0,0,.05-.15Zm-.4,0h0l0,0h0l0,0,0,0h0l0,0h0l0,0,0,0Zm-.35.08h0v.09h.07v-.09h-.06Zm-.3-.08h0l0,0,0,0h0v0h0l0,0,0,0h0l0,0Zm.61-.35h.1v-.05h-.1v.05Zm.32-.72v0h-.15l0,0h-.19l0,0h-.11a.12.12,0,0,1-.07.07v.07h0l0,0h0v.17h-.07v.27l.19-.2h0s0,0,0,0h0v0l.05-.05,0,0,0,0h.06L12,11.7l.1-.11Zm-1,.72h.1v-.05h-.1v.05Zm.71-.32h0l0,0,0,0h0v0h0l0,0,0,0h0l0,0Zm-.71-.43h.1v-.05h-.1v.05Zm.68,0h.1v-.05h-.1v.05Zm-.31.22h0v.09h.07v-.09h-.06Z"/><path class="cls-18" d="M11.48,12.18a.11.11,0,0,1,.11.11.11.11,0,0,1-.22,0,.11.11,0,0,1,.11-.11Z"/><path class="cls-4" d="M11.76,13.13h0l0,0,0,0h0v0h0l0,0,0,0h0v0a0,0,0,0,1,0,0Zm.41-.9a0,0,0,0,0,0,0,0,0,0,0,0,0,0,0,0,0,0,0,.05,0,0,0,0,0,0-.05,0Zm-1.4,0a0,0,0,0,1,.05,0,0,0,0,0,1-.05,0,0,0,0,0,1,0,0,0,0,0,0,1,0,0Zm0-.37h0V12h-.07v-.09h.06Zm0,.68h0v.09h-.07v-.09h.06Zm0-.36a.1.1,0,0,1,.08.07h.17v.06h-.18a.07.07,0,0,1-.07.06v.11h.07v.17h-.14l0,0h0v-.17h0l0,0h0v-.11a.09.09,0,0,1-.08-.09.1.1,0,0,1,.08-.1V12h0l0,0h0v-.17h.2V12h0l0,0h0v.16Zm1.35-.32h0V12h0s0,0,0,0h0v-.09h-.06Zm0,.68h0v.09h.06v-.09h-.06Zm0-.36a.08.08,0,0,0-.07.07h-.18v.06h.18a.09.09,0,0,0,.07.06v.11h-.06v.17h.14l0,0h0v-.17h0l0,0h0v-.11a.1.1,0,0,0,.07-.09.1.1,0,0,0-.07-.1V12h0l0,0h0v-.17h-.2V12h0l0,0h0v.16Zm-1,1h0l0,0,0,0h0v0h0l0,0,0,0h0v0a0,0,0,0,0,0,0Zm.07,0,0,.06h0l0,0h0l-.06,0-.06,0h0v0a4110285003977,4110285003977,0,0,1,0-.08h0l0,0,0,0h0l.06,0,.06,0h0v.06Zm.43,0,0,.06h0l0,0h0l.06,0,.06,0h0v0a4110285003975.78,4110285003975.78,0,0,0,0-.08h0l0,0,0,0h0l-.06,0-.06,0h0v.06Z"/><path class="cls-4" d="M8.33,11.26h2.08l0,0v1.25a1,1,0,0,1-1,1h0a1,1,0,0,1-1.06-1V11.27Z"/><path class="cls-3" d="M8.33,11.25h2.1v1.27a1,1,0,0,1-.31.72,1.12,1.12,0,0,1-.75.3,1.08,1.08,0,0,1-.75-.3,1,1,0,0,1-.31-.72V11.27h0Zm2.08,0H8.33v1.26a1,1,0,0,0,.31.71,1.08,1.08,0,0,0,1.47,0,1,1,0,0,0,.31-.71V11.28h0Zm-2.08,0Z"/><path class="cls-1" d="M8.58,11.26H8.8v2.11a1,1,0,0,1-.22-.18V11.26Zm.47,0h.22v2.28l-.22,0V11.26Zm.46,0h.22v2.22a.79.79,0,0,1-.22,0V11.26Zm.47,0h.22v1.9a1.37,1.37,0,0,1-.22.2v-2.1Z"/><path class="cls-3" d="M8.58,11.25h.23v2.13h0a.36.36,0,0,1-.12-.08l-.11-.11h0V11.26h0Zm.21,0h-.2v1.92l.1.09.1.08V11.27Zm.26,0h.22v2.28H9.15L9,13.5H9V11.26h0Zm.21,0H9.05v2.21l.11,0,.1,0V11.27Zm.25,0h.23v2.22h0l-.11,0-.11,0h0V11.26h0Zm.21,0h-.2v2.25h.1l.1,0V11.27Zm.26,0h.23v1.9h0a.47.47,0,0,1-.1.1l-.12.1h0v-2.1h0Zm.21,0H10v2.07l.1-.08.1-.1V11.27Z"/><path class="cls-1" d="M10.43,10.5a.75.75,0,1,1-.65.74.7.7,0,0,1,.65-.74Z"/><path class="cls-3" d="M10.43,10.49a.62.62,0,0,1,.48.22.78.78,0,0,1,.19.53.8.8,0,0,1-.19.53.62.62,0,0,1-.95,0,.8.8,0,0,1-.19-.53.78.78,0,0,1,.19-.53.62.62,0,0,1,.47-.22Zm.46.23a.6.6,0,0,0-.91,0,.77.77,0,0,0-.19.52.75.75,0,0,0,.19.51.58.58,0,0,0,.91,0,.75.75,0,0,0,.19-.51.77.77,0,0,0-.19-.52Z"/><path class="cls-10" d="M10.43,10.7a.54.54,0,1,1-.47.54.51.51,0,0,1,.47-.54Z"/><path class="cls-3" d="M10.43,10.7a.49.49,0,0,1,.35.15.64.64,0,0,1,.14.39.61.61,0,0,1-.14.38.46.46,0,0,1-.35.16.46.46,0,0,1-.34-.16.61.61,0,0,1-.14-.38.64.64,0,0,1,.14-.39.49.49,0,0,1,.34-.15Zm.33.16a.45.45,0,0,0-.33-.15.44.44,0,0,0-.32.15.56.56,0,0,0-.14.38.53.53,0,0,0,.14.37.41.41,0,0,0,.32.15.41.41,0,0,0,.33-.15.53.53,0,0,0,.14-.37.56.56,0,0,0-.14-.38Z"/><path class="cls-4" d="M10.66,11.33s0-.06-.07,0l0-.09c0-.08,0-.09-.08-.05s-.06-.05,0-.1.08,0,.1,0h0a.16.16,0,0,1,0-.2.15.15,0,0,1,0,.2s0,0,0,0,.06-.05.09,0,0,.1,0,.1-.11,0-.08.05a.37.37,0,0,0,0,.09c-.06,0-.08,0-.08,0Z"/><path class="cls-3" d="M10.66,11.33a0,0,0,0,0-.07,0h0l0-.09a.08.08,0,0,0,0-.05h0l0,0h0s-.06-.05,0-.1v0h.08s0-.05,0-.08a.14.14,0,0,1,.06-.12h0a.14.14,0,0,1,.06.12.11.11,0,0,1,0,.08h.08l0,0s0,.1,0,.1h0l0,0h0a.13.13,0,0,0,0,.05.31.31,0,0,1,0,.09h0c-.05,0-.06,0-.06,0h0Zm-.07,0a.13.13,0,0,0,.14,0,.27.27,0,0,0,0-.08.06.06,0,0,1,0-.06h0l0,0s.05-.05,0-.09h-.1s0,0,0,0h0a.2.2,0,0,0,0-.09.2.2,0,0,0-.06-.11.14.14,0,0,0-.05.11s0,.07,0,.09h-.1s0,.08,0,.09l.05,0h0a.15.15,0,0,1,0,.06.22.22,0,0,1,0,.08Z"/><path class="cls-4" d="M10.58,11.2h.16v0h0v0h-.16v0h0v0Z"/><path class="cls-3" d="M10.58,11.2h.17s0,0,0,0h-.19v0Zm.16,0h0Z"/><path class="cls-4" d="M10.22,11.33s0-.06-.08,0a.37.37,0,0,0,0-.09c0-.08,0-.09-.08-.05s-.06-.05,0-.1.07,0,.09,0,0,0,0,0a.15.15,0,0,1,0-.2.15.15,0,0,1,0,.2s0,0,0,0,.06-.05.09,0,0,.1,0,.1-.11,0-.08.05a.37.37,0,0,0,0,.09c-.06,0-.08,0-.08,0Z"/><path class="cls-3" d="M10.22,11.33a0,0,0,0,0-.07,0h0a.25.25,0,0,1,0-.09v-.05h0l0,0h0s-.07-.05,0-.1v0h.08a.19.19,0,0,1,0-.08.14.14,0,0,1,.06-.12h0a.14.14,0,0,1,.06.12.19.19,0,0,1,0,.08h.08l0,0s0,.1,0,.1h0l0,0h0v.05a.25.25,0,0,1,0,.09h0a0,0,0,0,0-.07,0h0Zm-.07,0a.13.13,0,0,0,.14,0s0,0,0-.08a.06.06,0,0,1,0-.06h0l0,0s.05-.05,0-.09h-.1a.13.13,0,0,0,0-.09.14.14,0,0,0,0-.11.14.14,0,0,0-.05.11.13.13,0,0,0,0,.09h-.1s0,.08,0,.09l0,0h0a.06.06,0,0,1,0,.06.22.22,0,0,1,0,.08Z"/><path class="cls-4" d="M10.14,11.2h.16v0h0v0h-.16s0,0,0,0h0s0,0,0,0Z"/><path class="cls-3" d="M10.14,11.2h.17v0h-.19s0,0,0,0Zm.16,0h0Z"/><path class="cls-4" d="M10.44,11.69s0,0-.08,0a.37.37,0,0,0,0-.09c0-.08-.06-.08-.08-.05a.07.07,0,0,1,0-.1s.07,0,.09,0,0,0,0,0a.15.15,0,0,1,0-.2.18.18,0,0,1,0,.2s0,0,0,0a.06.06,0,0,1,.1,0,.07.07,0,0,1,0,.1s-.11,0-.08.05l0,.09c-.06,0-.07,0-.07,0Z"/><path class="cls-3" d="M10.43,11.69s0,0-.06,0h0l0-.09a0,0,0,0,0,0-.05h0a0,0,0,0,0,0,0h0s-.07,0,0-.11h0l0,0,0,0h0a.18.18,0,0,1,0-.2h0a.13.13,0,0,1,.06.11s0,.07,0,.09h0l0,0,0,0h0a.08.08,0,0,1,0,.11h0s0,0,0,0h0s0,0,0,.05a.37.37,0,0,0,0,.09h0s-.07,0-.07,0v0Zm-.06,0a.25.25,0,0,0,.14,0,.3.3,0,0,1,0-.09.05.05,0,0,1,0-.05l0,0h0l.05,0s0,0,0-.09l0,0H10.5v0h0s0,0,0-.09a.12.12,0,0,0-.05-.1.14.14,0,0,0-.06.1.2.2,0,0,0,0,.09h0s0,0,0,0h0l0,0h-.06v0s0,.08,0,.09l0,0h0l0,0a0,0,0,0,1,0,.05.29.29,0,0,0,0,.09Z"/><path class="cls-4" d="M10.36,11.57h.17v0h-.18v0Z"/><path class="cls-3" d="M10.36,11.56h.17v0h-.19v0h0Zm.15,0h-.16v0h.17v0h0Z"/><path class="cls-22" d="M10.31,13.13a.11.11,0,0,1,0,0s-.15,0-.13.16a.18.18,0,0,0,.22.16c.1,0,.22,0,.22-.14a.17.17,0,0,0-.12-.18v0l-.06,0a.08.08,0,0,0,0,0,.14.14,0,0,0-.05,0,.19.19,0,0,0-.1,0Z"/><path class="cls-3" d="M10.32,13.14s0,0,0,0h0s-.15,0-.13.16a.2.2,0,0,0,.07.12.26.26,0,0,0,.15,0,.32.32,0,0,0,.16,0,.13.13,0,0,0,.06-.1.18.18,0,0,0,0-.11.14.14,0,0,0-.09-.06h0a.08.08,0,0,1,0,0l-.05,0h0l0-.05s0,0-.05.05h0a.11.11,0,0,0-.08,0Zm0,0a.07.07,0,0,0,0,0h0a.11.11,0,0,1,.09,0,.2.2,0,0,1,0-.05h0l0,.05.06,0h0s0,0,0,0a.2.2,0,0,1,.1.07.18.18,0,0,1,0,.11.16.16,0,0,1-.07.11.29.29,0,0,1-.16,0,.32.32,0,0,1-.16,0,.23.23,0,0,1-.07-.13.15.15,0,0,1,.13-.16Z"/><path class="cls-23" d="M10.46,13.19a.19.19,0,0,1,0,.28.19.19,0,0,1,0-.28Z"/><path class="cls-3" d="M10.46,13.19a.19.19,0,0,1,0,.28h0a.2.2,0,0,1,0-.28Zm0,.28a.18.18,0,0,0,0-.27.19.19,0,0,0,0,.27Z"/><path class="cls-3" d="M8.32,9h4.23v3.53a1,1,0,0,1-.57.9,3.15,3.15,0,0,1-1.55.32,3.19,3.19,0,0,1-1.55-.34,1,1,0,0,1-.57-.89V9Zm2.11,0H8.33v3.51a1,1,0,0,0,.55.88,3.19,3.19,0,0,0,1.55.34A3.22,3.22,0,0,0,12,13.43a1,1,0,0,0,.57-.89V9Z"/><path class="cls-12" d="M7,10.68l0-.11,0,0,0,0a0,0,0,0,0,0,0v-.05s0,0,0,0H6.93l-.09,0,.09.25H7Zm0-.13,0-.1H7l0,0v.06l0,0h0Zm.32,0,0-.24H7.16l0,.26.15,0h-.1Zm.29,0h0l0-.1,0-.08,0-.09h0l0,.1,0,.09,0-.06,0-.06a.64.64,0,0,1,0-.07H7.42l.06.13a.5.5,0,0,1,0,.13h0Zm.37-.2h0v0H7.81l0,0a0,0,0,0,0,0,0v0l0,0h.06l0,0v0H7.82l0,0v0h0v.05h.14l0,0a0,0,0,0,0,0,0v0a0,0,0,0,1,0,0h0l0,0h0v0h.08s0,0,0,0Z"/><path class="cls-12" d="M12.91,10.6h0a.29.29,0,0,1,0-.09l0-.09,0-.09h0a.36.36,0,0,0,0,.1l0,.1,0-.06,0-.06,0-.06h-.07l.07.13a.75.75,0,0,1,.07.12h0Zm.28,0v-.23h-.06v.26h.06Zm.28,0,0-.23h.07l-.2,0h.07l0,.24h.06Zm.21-.23-.06.26h.06l0-.12h0v0h0l0,.09h.07v0l0-.06s0,0,0-.06h0l0,0s0,0,0,0v0l0,0h-.06l-.09,0Zm0,.14,0-.1h0s0,0,0,0h0l0,0Zm.27.14.08,0v.08h.06l0-.28h0l-.23.19h0l0,0,0,0,0,0Zm.08,0-.06,0,.07-.06v.09Z"/></svg>