<?xml version="1.0" encoding="UTF-8"?>
<svg width="30px" height="20px" viewBox="0 0 30 20" version="1.1" xmlns="http://www.w3.org/2000/svg" xmlns:xlink="http://www.w3.org/1999/xlink">
    <title>27234387-9274-4F11-9B30-4F98C5A481C7@2x</title>
    <g id="Flags" stroke="none" stroke-width="1" fill="none" fill-rule="evenodd">
        <g transform="translate(-444.000000, -789.000000)" id="IL">
            <g transform="translate(444.000000, 789.000000)">
                <g id="Flag-of-Israel" transform="translate(1.000000, 0.000000)">
                    <polygon id="Fill-1" fill="#FFFFFF" points="0 20 28 20 28 0 0 0"></polygon>
                    <path d="M0,5 L28,5 L28,1.875 L0,1.875 L0,5 Z M12.7272727,7.83495 L10.1818182,7.83495 L11.4545455,10 L10.1818182,12.165075 L12.7272727,12.165075 L14,14.330125 L15.2727273,12.165075 L17.8181818,12.165075 L16.5454545,10 L17.8181818,7.83495 L15.2727273,7.83495 L14,5.66985 L12.7272727,7.83495 Z M14,7.044875 L14.4644436,7.83495 L13.5355564,7.83495 L14,7.044875 Z M15.6768691,8.522425 L16.6057818,8.522425 L16.1413127,9.3125 L15.6768691,8.522425 Z M12.2628291,10 L13.1314145,8.522425 L14.8685855,8.522425 L15.7371709,10 L14.8685855,11.477575 L13.1314145,11.477575 L12.2628291,10 Z M11.3942436,8.522425 L12.3231309,8.522425 L11.8586873,9.3125 L11.3942436,8.522425 Z M16.1413127,10.6875 L16.6057818,11.477575 L15.6768691,11.477575 L16.1413127,10.6875 Z M11.8586873,10.6875 L12.3231309,11.477575 L11.3942436,11.477575 L11.8586873,10.6875 Z M13.5355564,12.165075 L14.4644436,12.165075 L14,12.95515 L13.5355564,12.165075 Z M0,18.125 L28,18.125 L28,15 L0,15 L0,18.125 Z" id="Fill-2" fill="#0038B8"></path>
                </g>
            </g>
        </g>
    </g>
</svg>