<?xml version="1.0" encoding="UTF-8"?>
<svg width="30px" height="20px" viewBox="0 0 30 20" version="1.1" xmlns="http://www.w3.org/2000/svg" xmlns:xlink="http://www.w3.org/1999/xlink">
    <title>0C679F46-A8BF-4829-BD62-AB0B035562D6@2x</title>
    <g id="Flags" stroke="none" stroke-width="1" fill="none" fill-rule="evenodd">
        <g transform="translate(-240.000000, -1021.000000)" fill-rule="nonzero" id="MY">
            <g transform="translate(240.000000, 1021.000000)">
                <g id="Flag-of-Malaysia" transform="translate(0.000000, -0.000000)">
                    <polygon id="rect2186" fill="#CC0000" points="0 0 30 0 30 20 0 20"></polygon>
                    <polygon id="rect2188-1" fill="#FFFFFF" points="0.0234375 1.6625 29.9765625 1.6625 29.9765625 3.2625 0.0234375 3.2625"></polygon>
                    <polygon id="rect2188-1-9" fill="#FFFFFF" points="0.0234375 4.94166667 29.9765625 4.94166667 29.9765625 6.54166667 0.0234375 6.54166667"></polygon>
                    <polygon id="rect2188-1-9-1" fill="#FFFFFF" points="0.0234375 8.225 29.9765625 8.225 29.9765625 9.825 0.0234375 9.825"></polygon>
                    <polygon id="path837" fill="#000066" points="0 0.0208333333 15 0.0208333333 15 11.6875 0 11.6875"></polygon>
                    <polygon id="rect2188-1-9-1-4" fill="#FFFFFF" points="0.0234375 11.5083333 29.9765625 11.5083333 29.9765625 13.1083333 0.0234375 13.1083333"></polygon>
                    <polygon id="rect2188-1-9-1-4-4" fill="#FFFFFF" points="0.0234375 14.7666667 29.9765625 14.7666667 29.9765625 16.3666667 0.0234375 16.3666667"></polygon>
                    <polygon id="rect2188-1-9-1-4-4-6" fill="#FFFFFF" points="0 18.4 29.953125 18.4 29.953125 20 0 20"></polygon>
                    <path d="M10.2573378,3.075 L10.5104628,4.77083333 L11.4807753,3.35416667 L10.9576503,4.9875 L12.4553065,4.12083333 L11.2698378,5.37083333 L12.9995253,5.2375 L11.383744,5.85416667 L12.9995253,6.47083333 L11.2698378,6.3375 L12.4553065,7.5875 L10.9576503,6.72083333 L11.4765565,8.35833333 L10.506244,6.9375 L10.253119,8.63333333 L10.0042128,6.9375 L9.03390027,8.35416667 L9.55702527,6.72083333 L8.05936902,7.5875 L9.24061902,6.3375 L7.51093152,6.47083333 L9.13093152,5.85416667 L7.51515027,5.2375 L9.24483777,5.37083333 L8.05936902,4.12083333 L9.55702527,4.9875 L9.03390027,3.35 L10.0042128,4.77083333 L10.2573378,3.075 Z M8.85249402,3.14583333 C7.59465396,2.59513849 6.11875807,2.96025581 5.27226714,4.03153461 C4.4257762,5.1028134 4.4257762,6.60551994 5.27226714,7.67679873 C6.11875807,8.74807752 7.59465396,9.11319485 8.85249402,8.5625 C7.45314963,9.55412131 5.52229496,9.3460344 4.37241213,8.07968459 C3.22252929,6.81333478 3.22252929,4.89499856 4.37241213,3.62864874 C5.52229496,2.36229893 7.45314963,2.15421202 8.85249402,3.14583333 L8.85249402,3.14583333 Z" id="path841" fill="#FFCC00"></path>
                </g>
            </g>
        </g>
    </g>
</svg>