<?xml version="1.0" encoding="UTF-8"?>
<svg width="431px" height="326px" viewBox="0 0 431 326" version="1.1" xmlns="http://www.w3.org/2000/svg" xmlns:xlink="http://www.w3.org/1999/xlink">
    <title>B3025C2B-4643-4AE9-A4AE-784D7B3A190F</title>
    <defs>
        <polygon id="path-1" points="-6.35545029 0.780126775 422.64455 0.780126775 422.64455 325.780127 -6.35545029 325.780127"></polygon>
    </defs>
    <g id="Page-1" stroke="none" stroke-width="1" fill="none" fill-rule="evenodd">
        <g id="Country-Flags" transform="translate(-497.000000, -575.000000)">
            <g id="sg" transform="translate(503.355450, 575.219873)">
                <mask id="mask-2" fill="white">
                    <use xlink:href="#path-1"></use>
                </mask>
                <g id="Path"></g>
                <g id="Group" mask="url(#mask-2)" fill-rule="nonzero">
                    <g transform="translate(2.644550, 0.780127)">
                        <polygon id="Path" fill="#FFFFFF" points="0 0 429 0 429 291 0 291"></polygon>
                        <polygon id="Path" fill="#DF0000" points="0 0 429 0 429 145.5 0 145.5"></polygon>
                        <path d="M98.9083333,24.37125 C75.6463644,29.4577282 59.071284,50.4356494 59.1865033,74.6443948 C59.3017226,98.8531402 76.075706,119.666741 99.385,124.52375 C86.3001135,128.376239 72.246144,126.769152 60.3281173,120.057551 C48.4100906,113.34595 39.608944,102.082248 35.8691667,88.755 C28.2129093,61.1412347 43.9231998,32.4225182 71.0233333,24.4925 C80.5566667,21.70375 89.375,21.643125 98.9679167,24.37125 L98.9083333,24.37125 Z" id="Path" fill="#FFFFFF"></path>
                        <path d="M91.1625,66.6875 L94.0820833,75.78125 L86.33625,70.20375 L78.7095833,75.9025 L81.51,66.6875 L73.8833333,61.049375 L83.3570833,60.928125 L86.33625,51.834375 L89.3154167,60.928125 L98.7295833,60.928125 L91.1625,66.6875 Z M101.589583,98.2125 L104.56875,107.366875 L96.8229167,101.789375 L89.1366667,107.4275 L91.9966667,98.273125 L84.37,92.574375 L93.84375,92.51375 L96.7633333,83.359375 L99.7425,92.453125 L109.275833,92.453125 L101.589583,98.2125 Z M136.445833,97.97 L139.365417,107.185 L131.619583,101.546875 L123.992917,107.185 L126.793333,98.030625 L119.166667,92.3925 L128.640417,92.27125 L131.619583,83.1775 L134.59875,92.27125 L144.012917,92.27125 L136.445833,97.97 Z M146.813333,66.6875 L149.732917,75.841875 L141.987083,70.264375 L134.360417,75.9025 L137.220417,66.748125 L129.534167,61.049375 L139.0675,60.98875 L141.9275,51.834375 L144.906667,60.928125 L154.44,60.928125 L146.813333,66.6875 Z M119.22625,45.893125 L122.205417,55.108125 L114.459583,49.47 L106.773333,55.16875 L109.633333,45.95375 L102.006667,40.255 L111.420833,40.194375 L114.4,31.04 L117.379167,40.13375 L126.9125,40.13375 L119.22625,45.893125 Z" id="Shape" fill="#FFFFFF"></path>
                    </g>
                </g>
            </g>
        </g>
    </g>
</svg>